<svg xmlns="http://www.w3.org/2000/svg" width="201.172" height="72.099" viewBox="0 0 201.172 72.099">
  <g id="Group_9" data-name="Group 9" transform="translate(-117.5 -30.901)">
    <path id="XMLID_1_" d="M357.225,91.842H283.783a3.474,3.474,0,0,1-3.483-3.483h0V84.8a12.3,12.3,0,0,1,6.133-10.638l30.4-17.566a12.243,12.243,0,0,1,12.266,0l4.921,2.839a1.868,1.868,0,0,1,.681,2.574,2.43,2.43,0,0,1-.379.492L314.409,79.917a2.8,2.8,0,0,0-.265,3.9,2.567,2.567,0,0,0,1.817.909l29.907,2.915a24.111,24.111,0,0,1,11.357,4.2Z" transform="translate(-102.267 -24.049)" fill="#e20613"/>
    <path id="Union_4" data-name="Union 4" d="M-2183.977,24.872a12.212,12.212,0,0,1,0-14.727c1.666-2.083,4.164-3.1,7.534-3.1s5.868,1.06,7.534,3.1a12.211,12.211,0,0,1,0,14.727c-1.666,2.044-4.164,3.066-7.534,3.066S-2182.311,26.916-2183.977,24.872Zm4.051-11.887a7.459,7.459,0,0,0-1.211,4.542,7.462,7.462,0,0,0,1.211,4.543,7.194,7.194,0,0,0,.53.53,4.554,4.554,0,0,0,6.4-.53,7.462,7.462,0,0,0,1.211-4.543A7.459,7.459,0,0,0-2173,12.985a6.846,6.846,0,0,0-.53-.53,4.435,4.435,0,0,0-2.906-1.072A4.606,4.606,0,0,0-2179.926,12.985Zm-26.045,12.606A7.857,7.857,0,0,1-2209,19.08h5.3a5.7,5.7,0,0,0,1.021,2.725c.947,1.1,2.5,1.628,4.732,1.628a10.532,10.532,0,0,0,3.256-.417,3.051,3.051,0,0,0,2.385-3.066,2.323,2.323,0,0,0-1.174-2.006,11.293,11.293,0,0,0-3.672-1.249l-2.877-.643a18.606,18.606,0,0,1-5.83-2.045,6.535,6.535,0,0,1-2.688-5.754,7.677,7.677,0,0,1,2.613-5.906C-2204.154.795-2201.58,0-2198.21,0a12.066,12.066,0,0,1,7.231,2.234,7.91,7.91,0,0,1,3.142,6.436h-5.338a3.771,3.771,0,0,0-2.12-3.407,7.059,7.059,0,0,0-3.294-.681,6.325,6.325,0,0,0-3.483.87,2.7,2.7,0,0,0-1.325,2.423,2.263,2.263,0,0,0,1.287,2.12,17.02,17.02,0,0,0,3.521,1.1l4.656,1.1a12.125,12.125,0,0,1,4.581,1.931,6.466,6.466,0,0,1,2.384,5.376,7.626,7.626,0,0,1-2.8,6.057q-2.839,2.384-7.95,2.385C-2201.2,27.939-2203.965,27.181-2205.971,25.592Zm168.349,1.627a7.8,7.8,0,0,1-2.8-1.893,9.186,9.186,0,0,1-1.893-3.142,13.33,13.33,0,0,1-.681-4.391,13.969,13.969,0,0,1,.568-3.938,9.494,9.494,0,0,1,1.666-3.18A8.061,8.061,0,0,1-2038,8.518a8.529,8.529,0,0,1,3.862-.795,8.681,8.681,0,0,1,3.9.795,7.948,7.948,0,0,1,2.764,2.12,8.512,8.512,0,0,1,1.628,3.255,13.928,13.928,0,0,1,.53,3.938,12.734,12.734,0,0,1-.644,4.126,9.431,9.431,0,0,1-1.779,3.18,7.882,7.882,0,0,1-2.8,2.044,9.156,9.156,0,0,1-3.634.72A10.714,10.714,0,0,1-2037.622,27.219Zm.53-16.884a6.155,6.155,0,0,0-2.006,1.817,8.226,8.226,0,0,0-1.136,2.575,11.343,11.343,0,0,0-.379,2.991,11.811,11.811,0,0,0,.417,3.255,7.735,7.735,0,0,0,1.249,2.574,5.333,5.333,0,0,0,2.006,1.666,5.937,5.937,0,0,0,2.8.606,5.749,5.749,0,0,0,2.953-.681,5.761,5.761,0,0,0,2.006-1.817,8.222,8.222,0,0,0,1.136-2.574,11.677,11.677,0,0,0,.379-3.029,12.6,12.6,0,0,0-.379-3.181,7.522,7.522,0,0,0-1.136-2.574,5.376,5.376,0,0,0-1.968-1.7,6.827,6.827,0,0,0-2.991-.606q-.109,0-.219,0A5.736,5.736,0,0,0-2037.092,10.335Zm-103.614,17.528A7.191,7.191,0,0,1-2146.5,25.1a10.681,10.681,0,0,1-2.347-7.117c0-3.37.757-5.981,2.309-7.912a7.491,7.491,0,0,1,6.17-2.877,6.606,6.606,0,0,1,3.181.795,6.1,6.1,0,0,1,2.234,2.158V.795h5.224V27.257h-5V24.531a7.622,7.622,0,0,1-2.5,2.536,6.907,6.907,0,0,1-3.257.8Q-2140.593,27.867-2140.706,27.863Zm-1.817-14.462a7.822,7.822,0,0,0-1.06,4.2,7.811,7.811,0,0,0,1.06,4.354,3.628,3.628,0,0,0,3.255,1.627,3.846,3.846,0,0,0,3.332-1.627,6.771,6.771,0,0,0,1.1-4.164c0-2.423-.606-4.127-1.817-5.149a3.8,3.8,0,0,0-2.575-.946A3.629,3.629,0,0,0-2142.523,13.4Zm66.969,13.667a7.492,7.492,0,0,1-2.726-2.12,8.406,8.406,0,0,1-1.59-3.181,13.925,13.925,0,0,1-.529-3.937,13.175,13.175,0,0,1,.568-3.824,9.311,9.311,0,0,1,1.665-3.218,7.791,7.791,0,0,1,2.726-2.234,8.141,8.141,0,0,1,3.785-.832,8.486,8.486,0,0,1,5.375,1.59,7.321,7.321,0,0,1,2.574,4.921h-2.233a6.228,6.228,0,0,0-2.007-3.332,5.481,5.481,0,0,0-3.634-1.211,6.053,6.053,0,0,0-2.915.719,5.9,5.9,0,0,0-2.006,1.856,8.061,8.061,0,0,0-1.136,2.612,10.821,10.821,0,0,0-.379,2.915,12.874,12.874,0,0,0,.341,2.953,8.224,8.224,0,0,0,1.136,2.574,5.679,5.679,0,0,0,1.968,1.817,5.75,5.75,0,0,0,2.953.681,5.633,5.633,0,0,0,3.975-1.363,6.448,6.448,0,0,0,1.93-3.672h2.347a11.165,11.165,0,0,1-.947,2.877,8.005,8.005,0,0,1-1.665,2.233,6.882,6.882,0,0,1-2.424,1.439,10.559,10.559,0,0,1-3.241.513A10.158,10.158,0,0,1-2075.554,27.068Zm-18.74-.038a7.5,7.5,0,0,1-2.725-2.12,9.32,9.32,0,0,1-1.59-3.181,13.479,13.479,0,0,1-.53-3.9,12.774,12.774,0,0,1,.606-3.938,10.205,10.205,0,0,1,1.741-3.217,8.025,8.025,0,0,1,2.726-2.158,8.126,8.126,0,0,1,3.672-.795,7.589,7.589,0,0,1,6.208,2.687c1.477,1.779,2.234,4.392,2.158,7.836h-14.8a10.867,10.867,0,0,0,.417,2.915,7.865,7.865,0,0,0,1.211,2.385,5.609,5.609,0,0,0,2.006,1.628,5.938,5.938,0,0,0,2.8.606,5.974,5.974,0,0,0,3.71-1.136,5.5,5.5,0,0,0,2.083-3.255h2.5a11.589,11.589,0,0,1-1.06,2.536,8.051,8.051,0,0,1-1.666,2.044,6.951,6.951,0,0,1-2.347,1.363,10.152,10.152,0,0,1-3.18.492A10.028,10.028,0,0,1-2094.294,27.03Zm1.326-16.771a5.705,5.705,0,0,0-1.93,1.477,6.383,6.383,0,0,0-1.288,2.12,10.221,10.221,0,0,0-.606,2.574h12.455a8.951,8.951,0,0,0-.379-2.65,6.074,6.074,0,0,0-1.136-2.12,5.846,5.846,0,0,0-1.893-1.438,6.2,6.2,0,0,0-2.612-.53A6.125,6.125,0,0,0-2092.968,10.259Zm33.881,16.7a3.983,3.983,0,0,1-.87-2.953V10.07h-2.688V8.215h2.726v-5.3h2.2v5.3h3.521V10.07h-3.559V23.131a11.8,11.8,0,0,0,.038,1.211,1.729,1.729,0,0,0,.228.833,1.03,1.03,0,0,0,.568.492,3.662,3.662,0,0,0,1.1.151,3.736,3.736,0,0,0,.908-.113,7.77,7.77,0,0,0,.909-.189v1.817c-.265.038-.606.151-1.06.265a6.592,6.592,0,0,1-1.477.189A3.418,3.418,0,0,1-2059.087,26.954Zm6.966.341V8.215h2.2v3.559h.075a6.159,6.159,0,0,1,2.347-3.143,7.284,7.284,0,0,1,3.861-.908V10.07a6.793,6.793,0,0,0-3.1.606,5.568,5.568,0,0,0-1.931,1.7,6.938,6.938,0,0,0-.985,2.536,16.119,16.119,0,0,0-.264,3.029V27.3Zm-52.091,0V.757h2.2V27.3Zm-20.746,0V.757h17.642V2.915h-15.143v9.578h13.667v2.12h-13.667V25.137h15.521V27.3Zm-31.043,0V7.685h5.187V27.3Zm-8.442,0V.795h5.111V27.3Zm154.418-.038V14.8a5.734,5.734,0,0,0-1.136-3.862,4.767,4.767,0,0,0-3.785-1.287,4.618,4.618,0,0,0-1.893.3,5.9,5.9,0,0,0-1.515.832,5.777,5.777,0,0,0-1.174,1.174,6.274,6.274,0,0,0-.757,1.4,7.214,7.214,0,0,0-.417,1.779c-.038.568-.076,1.174-.076,1.855v10.26h-2.233V8.177h2.2v2.65a13.2,13.2,0,0,1,2.726-2.272,6.274,6.274,0,0,1,3.407-.87,8.908,8.908,0,0,1,3.293.606,5.535,5.535,0,0,1,2.536,2.12,4.9,4.9,0,0,1,.833,2.12c.076.757.113,1.514.189,2.234V27.257ZM-2156,5.338V.606h5.187V5.338Z" transform="translate(2326.5 75.062)" fill="#f8f8f8"/>
  </g>
</svg>
