<?xml version="1.0" encoding="UTF-8"?>
<svg id="Layer_1" data-name="Layer 1" xmlns="http://www.w3.org/2000/svg" viewBox="0 0 618.43 620.06">
  <path d="m258.3,384.05c-69.87-.06-125.05-46.43-135.85-109.38-12.44-72.54,36.73-141.17,109.46-152.78,62.85-10.03,123.96,26.36,145.12,86.26,1.5,4.24.67,6.1-3.18,8.54-39.69,25.15-59.46,61.42-58.19,108.38.3,11.11,3.61,22.25,6.45,33.13,1.14,4.37.36,6.03-3.27,8.1-20.55,11.72-42.6,17.59-60.54,17.76Zm-11.13-204.89c-5.79,0-10.93-.13-16.06.02-16.46.51-28.82,13.1-29.01,29.47-.07,5.83.35,11.69-.08,17.49-1.24,16.6,11.99,32.23,31.95,31.7,13.32-.35,26.66-.21,39.98,0,10.64.17,18.03,7.8,18.24,18.47.13,6.49.16,13-.02,19.49-.27,10.17-8.02,18.01-18.19,18.14-14.32.19-28.66.21-42.98-.01-10.29-.16-17.68-8.02-17.8-18.34-.05-4.16.03-8.33-.04-12.49-.06-3.87-1.91-6.69-5.91-6.55-3.71.13-5.34,2.8-5.18,6.57.14,3.49.24,7.01-.01,10.49-1.29,17.72,13.6,32.42,31.57,31.48,4.41-.23,8.84-.03,13.56-.03,0,9.07.03,17.38-.01,25.69-.02,3.64,1.88,5.84,5.31,5.96,3.51.12,5.39-2.25,5.7-5.68.16-1.82.05-3.66.05-5.49,0-6.75,0-13.5,0-20.5,5.94,0,11.09.11,16.24-.02,13.52-.33,25.82-9.56,27.63-22.92,1.46-10.73.64-21.85.04-32.75-.19-3.54-2.42-7.26-4.54-10.34-6.41-9.33-15.84-12.59-26.82-12.5-12.99.11-25.99.14-38.98,0-11.15-.12-18.52-7.54-18.62-18.48-.06-6.16-.03-12.33,0-18.49.05-11.26,7.32-19.06,18.47-19.25,13.99-.24,27.99-.23,41.98-.01,10.73.17,18.35,8.13,18.57,18.87.08,4.16-.06,8.33.04,12.49.08,3.28,1.74,5.4,5.16,5.52,3.63.12,5.6-1.92,5.78-5.44.18-3.49.05-6.99.05-10.49,0-19.73-12.31-32.04-32.08-32.08-4.24,0-8.49,0-12.93,0,0-8.82,0-16.8,0-24.79,0-3.85-1.58-6.76-5.67-6.74-4.12.03-5.49,2.89-5.43,6.83.13,7.97.04,15.95.04,24.71Z"/>
  <path d="m328.56,373.76c5.57,14.03,18.43,23.41,23.29,38,2.33,7,1.51,10.13-5.26,13.09-11.11,4.85-22.25,9.67-33.41,14.42-6.3,2.68-9.6,1.36-12.26-4.87-2.88-6.72-5.8-13.43-8.38-20.27-1.62-4.28-4.08-5.98-8.74-5.17-17.52,3.03-35.15,2.7-52.79,1.24-7.76-.64-8.17-.32-11.09,6.89-2.55,6.32-5.03,12.66-7.65,18.95-2.36,5.68-5.75,7.09-11.53,4.9-4.66-1.76-9.28-3.62-13.93-5.42-.09-.04-.28.16-.93.56-2.71,6.78-5.75,13.95-8.36,21.28-.44,1.23.64,3.4,1.62,4.66,6.92,8.86,7.83,19.13,2.32,28.39-5.09,8.53-14.83,13.07-24.73,11.53-9.92-1.55-17.81-9.34-20.02-19.76-2.71-12.81,6.75-26.39,19.9-28.08,3.47-.45,5.26-1.74,6.42-4.99,2.33-6.55,5.03-12.96,7.8-20-3.62-1.47-6.95-2.82-10.27-4.19-6.17-2.55-7.72-6.05-5.32-12.21,2.6-6.66,5.19-13.32,7.99-19.9,1.84-4.32,1.32-7.46-2.92-10.16-15.39-9.82-27.66-22.86-38.26-37.59-3.97-5.52-4.9-5.76-11.16-2.94-6.22,2.79-12.39,5.68-18.6,8.48-6.58,2.97-10.01,1.59-12.99-5.14-1.4-3.16-2.8-6.32-4.34-9.79-6.76,2.9-13.22,5.48-19.47,8.51-1.15.56-1.9,2.86-2.04,4.42-1.11,12.82-12.35,22.96-24.99,22.34-13.42-.65-23.52-11.46-23.36-24.99.16-12.93,10.55-23.98,23.43-23.58,5.17.16,10.5,2.57,15.28,4.93,2.65,1.31,4.46,2.01,7.21.71,5.66-2.67,11.47-5.03,17.48-7.63-1.14-2.69-2.11-4.96-3.06-7.23-3.39-8.14-2.31-10.84,5.69-14.33,6.55-2.85,13.04-5.84,19.66-8.53,4.25-1.73,5.66-4.24,4.72-8.92-3.85-19.11-4.34-38.31-.6-57.54.68-3.5-.97-5.69-4.18-6.96-7.41-2.94-14.79-5.95-22.2-8.89-7.93-3.15-9.25-6.2-6.06-14.26.85-2.15,1.73-4.29,2.8-6.96-7.53-3.64-14.89-7.36-22.44-10.66-1.07-.47-3.2.83-4.55,1.74-9.99,6.74-23.35,5.52-31.52-3-8.09-8.43-9.03-21.73-2.21-31.21,5.83-8.1,16.58-11.87,26.19-9.17,10.02,2.81,17.15,11.43,17.54,21.8.12,3.16,1.24,4.67,4.03,5.91,6.22,2.76,12.28,5.89,18.96,9.14,1.37-3.26,2.67-6.41,4.01-9.55,2.41-5.63,5.84-7.23,11.54-5.06,7.61,2.9,15.2,5.86,22.67,9.08,4.26,1.84,7.13,1.05,9.68-2.87,10.64-16.39,23.98-30.23,39.92-41.54,3.25-2.31,3.97-4.99,2.38-8.63-3.12-7.16-6.13-14.37-9.1-21.59-2.43-5.9-1-9.38,4.83-12.03,2.84-1.3,5.73-2.5,8.99-3.92-3.66-8.36-6.97-16.48-10.85-24.31-.72-1.45-3.7-2.17-5.76-2.51-10.53-1.75-18.34-8.96-20.43-19.18-2.21-10.84,2.78-21.4,12.47-26.4,9.95-5.13,21.68-3.08,29.21,5.12,7.5,8.16,8.87,20.36,2.31,29.44-2.96,4.1-2.65,7.15-.71,11.16,3.11,6.4,5.85,12.99,8.99,20.03,3.77-1.59,7.21-3.09,10.69-4.49,5.42-2.18,8.92-.86,11.28,4.51,3.01,6.84,5.91,13.74,8.68,20.69,1.65,4.15,4.39,5.4,8.67,4.48,18.75-4.01,37.61-4.85,56.52-1.22,4.14.8,6.31-1.08,7.7-4.54,2.6-6.48,5.09-13,7.75-19.45,2.43-5.91,5.92-7.38,11.87-5.11,3.86,1.47,7.67,3.04,11.92,4.73,3.05-6.07,6.18-11.9,8.85-17.93.52-1.17-.36-3.35-1.21-4.66-7.17-11.02-4.98-25.11,5.3-33.14,9.92-7.75,24.46-6.45,32.93,3.19,6.67,7.58,7.96,16.38,4.13,25.61-3.78,9.11-11.04,14.12-20.82,14.67-3.52.2-5.35,1.19-6.72,4.38-1.96,4.57-4.42,8.93-6.98,13.99,4.26,1.72,8.33,3.35,12.4,5.01,6.51,2.67,8.04,6.08,5.52,12.52-2.49,6.34-4.95,12.7-7.64,18.96-1.56,3.64-.83,6.32,2.22,8.74,15.17,12.06,29.45,25.02,40.86,40.86,2.03,2.81,4.73,3.25,7.93,1.69,6.28-3.05,12.61-5.99,18.96-8.88,6.52-2.97,10.28-1.38,12.89,5.32,1.44,3.7,2.84,7.43,4.44,11.64,8.14-3.39,16.08-6.59,23.89-10.06.94-.42,1.59-2.31,1.74-3.59,1.53-13.22,12.1-22.71,25-22.31,12.88.4,23.2,10.86,23.53,23.85.33,12.87-9.29,23.64-22.5,24.81-6.56.58-12.38-1.64-17.6-5.71-1.16-.91-3.34-1.62-4.57-1.16-7.75,2.92-15.37,6.2-23.49,9.54,1.55,4.36,3.02,8.49,4.87,13.71-18.01.3-35.05,2.27-51.28,9.67-17.2-47.99-49.29-80.33-98.24-94.37-36.65-10.52-72.23-6.29-105.87,11.68-67.67,36.16-94.24,119.29-61.31,188.18,33.09,69.22,125.55,107.34,204.85,59.4Z"/>
  <path d="m435.38,210.58c60.11,0,108.87,48.78,108.87,108.91,0,60.4-48.71,108.81-109.41,108.73-59.82-.08-108.6-48.99-108.49-108.76.12-60.11,48.95-108.88,109.03-108.88Zm-4.41,172.98c0,3.93.06,7.22-.02,10.51-.08,3.05.92,5.57,4.18,5.69,3.55.14,4.73-2.53,4.83-5.7.04-1.33.02-2.67.02-4,0-27.67.05-55.33-.06-82.99-.01-3.44.67-5.12,4.44-6.19,15.5-4.38,24.72-19.63,22.03-35.56-2.37-14.02-14.08-24.84-28.3-26.15-13.64-1.25-26.96,7.04-32.06,19.96-5.21,13.19-1.17,28.42,10.28,36.58,4.25,3.02,9.33,4.87,14.33,7.4v44.24c-6.95,0-13.58,0-20.21,0-3.22,0-6.35.48-6.46,4.51-.11,4.15,2.98,4.56,6.25,4.52,5.67-.06,11.34-.17,16.99.12,1.28.07,3.48,1.61,3.56,2.61.37,4.93.17,9.89.17,15.44-2.34,0-4.12,0-5.9,0-5.5,0-11.03-.3-16.48.22-1.67.16-4.26,2.57-4.33,4.05-.07,1.49,2.25,3.44,3.95,4.54,1.07.69,2.92.2,4.42.21,5.95,0,11.89,0,18.37,0Z"/>
  <path d="m428.6,580.14c-31.33,0-62.65-.13-93.98.08-9.42.06-17.14-3.06-23.75-9.62-22.23-22.07-44.55-44.05-66.77-66.12-10.2-10.12-10.74-24.77-1.44-34.44,9.71-10.1,24.78-10.33,35.3-.24,17.56,16.83,35.16,33.63,52.31,50.88,6.73,6.77,14.32,9.9,23.58,9.9,31.49,0,62.99-.01,94.48.02,3.92,0,7.28-.98,7.26-5.56-.01-4.58-3.4-5.52-7.3-5.52-29.83.03-59.65.05-89.48-.01-3.48,0-7.08-.04-10.4-.89-8.44-2.17-14.04-10.65-12.98-18.91,1.13-8.78,8.35-15.51,17.33-15.67,11.33-.2,22.66-.2,33.99.01,3.99.07,6.92-1.21,9.76-3.92,14.49-13.85,31.16-23.93,51.15-27.33,30.82-5.23,58.73,2.33,83.71,20.75,2.12,1.57,3.74,5.28,3.76,8.01.27,29.66.18,59.32.15,88.98,0,6.93-2.73,9.61-9.7,9.61-32.33.02-64.65,0-96.98,0Z"/>
  <path d="m618.43,530.04c0,26.97.01,53.94,0,80.91,0,7.35-1.76,9.08-9.09,9.09-7.16.01-14.32.04-21.48,0-5.66-.04-7.74-2.1-8.03-7.79-.06-1.16-.05-2.33-.05-3.5,0-52.61,0-105.22,0-157.82,0-9.59,1.32-10.85,11.02-10.85,6.49,0,12.99-.03,19.48.01,6,.04,8.1,2.06,8.11,8.06.04,27.3.02,54.61.02,81.91Z"/>
  <path d="m568.75,530.06c0,21,.01,42,0,63,0,4.29.77,9.07-4.88,10.72-5.73,1.67-13.14-1.11-15.6-6.1-1.13-2.29-1.81-5.06-1.82-7.61-.11-40-.11-79.99-.06-119.99.01-9.78,7.45-15.76,16.99-13.83,4.55.93,5.41,4.32,5.4,8.31-.03,13.67-.02,27.33-.02,41,0,8.17,0,16.33,0,24.5Z"/>
  <path d="m435,293.15c-12.57-.07-22.16-10.01-22.02-22.81.14-12.48,10.35-22.44,22.78-22.22,12.09.21,22.1,10.34,22.22,22.48.12,12.54-10.15,22.62-22.98,22.55Z"/>
</svg>