<svg xmlns="http://www.w3.org/2000/svg" viewBox="0 0 633.82 277.01"><defs><style>.cls-1{fill:#b2b2b2;}.cls-2,.cls-3{fill:#ec6a1d;}.cls-3{fill-rule:evenodd;}</style></defs><title>Varlık 1</title><g id="katman_2" data-name="katman 2"><g id="katman_1-2" data-name="katman 1"><path class="cls-1" d="M8.38,251.12a4.6,4.6,0,0,1-3.13,1,4.65,4.65,0,0,1-3.15-1,3.85,3.85,0,0,1-1.11-3v-6.21h2.2v6.21a4.25,4.25,0,0,0,.07.8,1.62,1.62,0,0,0,.29.69,1.44,1.44,0,0,0,.63.49,2.45,2.45,0,0,0,1.07.19,2,2,0,0,0,1.62-.52,2.48,2.48,0,0,0,.45-1.65v-6.21h2.2v6.21A3.78,3.78,0,0,1,8.38,251.12Z"/><path class="cls-1" d="M13.87,254a2.84,2.84,0,0,1-1.59.38H11.06v-1.64l.57.05h.59a.79.79,0,0,0,.58-.31,1,1,0,0,0,.19-.59,1.38,1.38,0,0,0-.08-.45l-2.54-6.79h2.12l1.63,5h0l1.58-5h2.06l-3,8.14A2.5,2.5,0,0,1,13.87,254Z"/><path class="cls-1" d="M18.38,246.87a2.23,2.23,0,0,1,1.13-1.9,3.37,3.37,0,0,1,1.07-.4,6.11,6.11,0,0,1,1.2-.12,6.91,6.91,0,0,1,1.11.08,3.5,3.5,0,0,1,1,.3,2,2,0,0,1,.76.62,1.79,1.79,0,0,1,.29,1.06v3.76a7.42,7.42,0,0,0,.06.94,1.61,1.61,0,0,0,.19.67h-2c0-.11-.07-.23-.1-.34a2.16,2.16,0,0,1,0-.36,2.61,2.61,0,0,1-1.12.69,4.53,4.53,0,0,1-1.32.19,4.21,4.21,0,0,1-1-.12,2.29,2.29,0,0,1-.78-.39,2,2,0,0,1-.53-.67,2.46,2.46,0,0,1-.18-1,2.14,2.14,0,0,1,.21-1,1.89,1.89,0,0,1,.56-.63,2.36,2.36,0,0,1,.79-.36,8.79,8.79,0,0,1,.89-.19,8.81,8.81,0,0,0,.88-.11,5,5,0,0,0,.77-.13,1.34,1.34,0,0,0,.53-.24.55.55,0,0,0,.18-.47,1,1,0,0,0-.1-.51.81.81,0,0,0-.28-.3,1.25,1.25,0,0,0-.41-.14,4.17,4.17,0,0,0-.5,0,1.49,1.49,0,0,0-.92.25,1.1,1.1,0,0,0-.39.84ZM23,248.34a1,1,0,0,1-.31.18l-.41.1-.46.07-.47.07-.44.11a1.35,1.35,0,0,0-.38.19.83.83,0,0,0-.26.3,1.1,1.1,0,0,0-.1.47,1,1,0,0,0,.1.44.84.84,0,0,0,.27.29,1.32,1.32,0,0,0,.39.15h.46a1.69,1.69,0,0,0,.91-.2,1.27,1.27,0,0,0,.48-.47,1.57,1.57,0,0,0,.19-.55V249Z"/><path class="cls-1" d="M28.39,244.64V246h0a2.61,2.61,0,0,1,.37-.62,2.58,2.58,0,0,1,.55-.49,2.87,2.87,0,0,1,.66-.32,2.58,2.58,0,0,1,.73-.11,1.25,1.25,0,0,1,.43.07v1.9h-.71a2.12,2.12,0,0,0-.93.18,1.64,1.64,0,0,0-.61.5,2,2,0,0,0-.33.73,4.6,4.6,0,0,0-.09.91V252h-2v-7.24Z"/><path class="cls-1" d="M34,244.64v7.24H32v-7.24Z"/><path class="cls-1" d="M.8,256.56H4.14a2.35,2.35,0,0,1,1.48.42,1.72,1.72,0,0,1,.3,2.18,1.68,1.68,0,0,1-.72.57h0a1.5,1.5,0,0,1,1,.6,2,2,0,0,1,.33,1.17,1.93,1.93,0,0,1-.15.75,1.43,1.43,0,0,1-.45.61,2.27,2.27,0,0,1-.79.4,4,4,0,0,1-1.14.16H.8ZM2,259.42H4a1.06,1.06,0,0,0,.72-.25.89.89,0,0,0,.29-.7.93.93,0,0,0-.26-.74,1.17,1.17,0,0,0-.75-.21H2Zm0,3H4.13a1.2,1.2,0,0,0,.85-.28,1.06,1.06,0,0,0,.31-.81,1,1,0,0,0-.31-.78,1.2,1.2,0,0,0-.85-.28H2Z"/><path class="cls-1" d="M11.79,263.42H10.71v-.69h0a1.71,1.71,0,0,1-1.42.83,1.82,1.82,0,0,1-1.42-.49,2.16,2.16,0,0,1-.44-1.47v-3.18h1.1v3a1.32,1.32,0,0,0,.25.92.91.91,0,0,0,.7.27,1.42,1.42,0,0,0,.58-.1,1.1,1.1,0,0,0,.38-.29,1.13,1.13,0,0,0,.2-.43,2,2,0,0,0,.07-.54v-2.83H11.8Z"/><path class="cls-1" d="M15.65,256.56h1.1v6.86h-1.1Z"/><path class="cls-1" d="M20.22,263.57a2.77,2.77,0,0,1-1.06-.2A2.21,2.21,0,0,1,17.88,262a3.31,3.31,0,0,1,0-2.11,2.21,2.21,0,0,1,1.28-1.37,2.9,2.9,0,0,1,2.13,0,2.21,2.21,0,0,1,1.28,1.37,3.31,3.31,0,0,1,0,2.11,2.21,2.21,0,0,1-1.28,1.37A2.79,2.79,0,0,1,20.22,263.57Zm0-.87a1.31,1.31,0,0,0,.64-.15,1.24,1.24,0,0,0,.44-.41,1.68,1.68,0,0,0,.26-.56,2.8,2.8,0,0,0,.08-.64,2.74,2.74,0,0,0-.08-.64,1.68,1.68,0,0,0-.26-.56,1.53,1.53,0,0,0-.44-.4,1.42,1.42,0,0,0-1.27,0,1.53,1.53,0,0,0-.44.4,1.68,1.68,0,0,0-.26.56,2.74,2.74,0,0,0-.08.64,2.8,2.8,0,0,0,.08.64,1.68,1.68,0,0,0,.26.56,1.24,1.24,0,0,0,.44.41A1.36,1.36,0,0,0,20.22,262.7Z"/><path class="cls-1" d="M28.25,263.17a2.11,2.11,0,0,1-.63,1.68,2.68,2.68,0,0,1-1.81.56,3.84,3.84,0,0,1-.76-.08,2.4,2.4,0,0,1-.69-.26,1.62,1.62,0,0,1-.53-.48,1.49,1.49,0,0,1-.25-.73h1.1a.87.87,0,0,0,.16.37,1,1,0,0,0,.28.23,1.08,1.08,0,0,0,.35.1h.41a1.26,1.26,0,0,0,1-.33,1.33,1.33,0,0,0,.3-.94v-.76h0a1.7,1.7,0,0,1-1.49.87,2.32,2.32,0,0,1-1-.2,2,2,0,0,1-.7-.57,2.34,2.34,0,0,1-.39-.83,3.76,3.76,0,0,1-.13-1,2.82,2.82,0,0,1,.15-1,2.39,2.39,0,0,1,.45-.79,2,2,0,0,1,1.65-.75,2,2,0,0,1,.87.2,1.34,1.34,0,0,1,.6.62h0v-.66h1.1Zm-2.43-.6a1.21,1.21,0,0,0,.62-.15,1.12,1.12,0,0,0,.41-.4,1.65,1.65,0,0,0,.23-.55,2.7,2.7,0,0,0,.07-.63,2.56,2.56,0,0,0-.07-.62,1.5,1.5,0,0,0-.24-.53,1,1,0,0,0-.41-.37,1.29,1.29,0,0,0-.61-.13,1.12,1.12,0,0,0-.62.15,1.27,1.27,0,0,0-.4.4,1.62,1.62,0,0,0-.23.56,3.18,3.18,0,0,0-.06.62,2.46,2.46,0,0,0,.07.6,1.7,1.7,0,0,0,.24.53,1.28,1.28,0,0,0,.4.37A1.24,1.24,0,0,0,25.82,262.57Z"/><path class="cls-1" d="M31.64,263.57a2.77,2.77,0,0,1-1.06-.2A2.2,2.2,0,0,1,29.3,262a3.31,3.31,0,0,1,0-2.11,2.2,2.2,0,0,1,1.28-1.37,2.88,2.88,0,0,1,2.12,0,2.14,2.14,0,0,1,.79.54,2.26,2.26,0,0,1,.49.83A3.31,3.31,0,0,1,34,262a2.26,2.26,0,0,1-.49.83,2.14,2.14,0,0,1-.79.54A2.77,2.77,0,0,1,31.64,263.57Zm0-.87a1.23,1.23,0,0,0,1.08-.56,1.66,1.66,0,0,0,.25-.56,2.6,2.6,0,0,0,0-1.28,1.66,1.66,0,0,0-.25-.56,1.53,1.53,0,0,0-.44-.4,1.44,1.44,0,0,0-1.28,0,1.68,1.68,0,0,0-.44.4,1.66,1.66,0,0,0-.25.56,2.32,2.32,0,0,0,0,1.28,1.66,1.66,0,0,0,.25.56,1.22,1.22,0,0,0,1.08.56Z"/><path class="cls-1" d="M37,256.42h1l-2.76,7.2h-1Z"/><path class="cls-1" d="M42.62,262.33a.49.49,0,0,0,.06.29.22.22,0,0,0,.2.08h.27v.72l-.15.05h-.54a1.08,1.08,0,0,1-.56-.14.66.66,0,0,1-.29-.47,1.79,1.79,0,0,1-.8.46,2.91,2.91,0,0,1-.92.15,2.37,2.37,0,0,1-.65-.09,1.82,1.82,0,0,1-.54-.27,1.24,1.24,0,0,1-.37-.45,1.3,1.3,0,0,1-.14-.64,1.56,1.56,0,0,1,.16-.76,1.21,1.21,0,0,1,.45-.45,1.88,1.88,0,0,1,.61-.23,5.5,5.5,0,0,1,.69-.11l.57-.09a2.67,2.67,0,0,0,.48-.08.78.78,0,0,0,.32-.18.48.48,0,0,0,.12-.36.52.52,0,0,0-.1-.34.64.64,0,0,0-.25-.21,1.26,1.26,0,0,0-.33-.1h-.35a1.35,1.35,0,0,0-.76.19.75.75,0,0,0-.33.6h-1.1a1.61,1.61,0,0,1,.23-.8,1.58,1.58,0,0,1,.52-.51,1.93,1.93,0,0,1,.7-.27,4.45,4.45,0,0,1,.81-.08,3.53,3.53,0,0,1,.72.08,1.86,1.86,0,0,1,.64.25,1.24,1.24,0,0,1,.46.45,1.2,1.2,0,0,1,.17.67Zm-1.09-1.39a1.37,1.37,0,0,1-.62.2,5.83,5.83,0,0,0-.73.1l-.34.08a.89.89,0,0,0-.29.15.57.57,0,0,0-.19.24.86.86,0,0,0-.08.36.51.51,0,0,0,.11.31.79.79,0,0,0,.25.19,1.26,1.26,0,0,0,.33.1h.32a1.34,1.34,0,0,0,.4,0,1.16,1.16,0,0,0,.4-.16,1.07,1.07,0,0,0,.31-.29.76.76,0,0,0,.13-.44Z"/><path class="cls-1" d="M43.81,258.42h1v.69h0a2.88,2.88,0,0,1,.27-.34,1.35,1.35,0,0,1,.32-.26,2,2,0,0,1,.94-.23,1.89,1.89,0,0,1,.84.2,1.21,1.21,0,0,1,.55.63,2.11,2.11,0,0,1,.65-.61,1.8,1.8,0,0,1,.91-.22,1.78,1.78,0,0,1,1.23.39A1.62,1.62,0,0,1,51,260v3.46h-1.1V260a1.19,1.19,0,0,0-.11-.42.59.59,0,0,0-.27-.27,1,1,0,0,0-.5-.1.91.91,0,0,0-.81.35,1.61,1.61,0,0,0-.25,1v2.89h-1.1v-3.19a1.37,1.37,0,0,0-.19-.79.81.81,0,0,0-.69-.26,1,1,0,0,0-.41.09.84.84,0,0,0-.34.25,1.25,1.25,0,0,0-.24.4,1.45,1.45,0,0,0-.1.55v2.95h-1Z"/><path class="cls-1" d="M52.21,256.56h1.1v2.54h0a1.48,1.48,0,0,1,.28-.33,2.25,2.25,0,0,1,.36-.24,1.56,1.56,0,0,1,.41-.15,1.54,1.54,0,0,1,.43-.06,2.3,2.3,0,0,1,1,.21,2,2,0,0,1,.73.57,2.42,2.42,0,0,1,.44.84,3.72,3.72,0,0,1,.14,1,3.39,3.39,0,0,1-.13,1,2.53,2.53,0,0,1-.39.83,2.07,2.07,0,0,1-.67.58,2,2,0,0,1-1,.22h-.5a1.56,1.56,0,0,1-.41-.15,1.79,1.79,0,0,1-.42-.25,1.2,1.2,0,0,1-.31-.4h0v.65h-1ZM56,261a2.82,2.82,0,0,0-.08-.65,2,2,0,0,0-.26-.57,1.49,1.49,0,0,0-.44-.39,1.33,1.33,0,0,0-1.64.33,2.16,2.16,0,0,0-.35,1.28,2.74,2.74,0,0,0,.09.7,1.44,1.44,0,0,0,.28.55,1.19,1.19,0,0,0,1,.5,1.15,1.15,0,0,0,.63-.15,1.37,1.37,0,0,0,.43-.4,1.64,1.64,0,0,0,.24-.56A2.76,2.76,0,0,0,56,261Z"/><path class="cls-1" d="M58.09,256.56h1.1v6.86h-1.1Z"/><path class="cls-1" d="M61.24,261.23a2.1,2.1,0,0,0,.08.56,1.42,1.42,0,0,0,.25.47,1.3,1.3,0,0,0,.41.32,1.53,1.53,0,0,0,.6.12,1.39,1.39,0,0,0,.77-.2,1.21,1.21,0,0,0,.44-.63h1a2.13,2.13,0,0,1-.3.73,2,2,0,0,1-.51.53,2.78,2.78,0,0,1-.67.33,2.74,2.74,0,0,1-1.77-.08,2.29,2.29,0,0,1-.77-.54,2.35,2.35,0,0,1-.47-.83,3.45,3.45,0,0,1-.16-1.06,3.09,3.09,0,0,1,.17-1,2.54,2.54,0,0,1,.48-.83,2.4,2.4,0,0,1,.76-.58,2.17,2.17,0,0,1,1-.21,2.12,2.12,0,0,1,1.05.25,2.44,2.44,0,0,1,.78.65,2.68,2.68,0,0,1,.45.93,3,3,0,0,1,.07,1.08Zm2.56-.72a1.72,1.72,0,0,0-.11-.5,1.38,1.38,0,0,0-.25-.42,1.18,1.18,0,0,0-.89-.4,1.39,1.39,0,0,0-.53.1,1.26,1.26,0,0,0-.4.28,1.68,1.68,0,0,0-.27.42,1.31,1.31,0,0,0-.11.52Z"/><path class="cls-1" d="M65.74,258.42h1v.69h0l.27-.34a1.64,1.64,0,0,1,.33-.26,1.4,1.4,0,0,1,.4-.16,2,2,0,0,1,1.38.13,1.21,1.21,0,0,1,.55.63,2.11,2.11,0,0,1,.65-.61,1.8,1.8,0,0,1,.91-.22,1.78,1.78,0,0,1,1.23.39A1.62,1.62,0,0,1,72.9,260v3.46H71.8V260a1.19,1.19,0,0,0-.11-.42.57.57,0,0,0-.28-.27,1,1,0,0,0-.5-.1.91.91,0,0,0-.81.35,1.68,1.68,0,0,0-.25,1v2.89h-1v-3.19a1.37,1.37,0,0,0-.19-.79.82.82,0,0,0-.69-.26,1,1,0,0,0-.41.09.94.94,0,0,0-.35.25,1.25,1.25,0,0,0-.24.4,1.71,1.71,0,0,0-.09.55v2.95H65.74Z"/><path class="cls-1" d="M77.73,261.14a1.59,1.59,0,0,0,.13.68,1.27,1.27,0,0,0,.38.45,1.55,1.55,0,0,0,.55.26,2.59,2.59,0,0,0,.68.09,2,2,0,0,0,.68-.1,1.47,1.47,0,0,0,.45-.23.9.9,0,0,0,.25-.33,1,1,0,0,0,.08-.38.85.85,0,0,0-.18-.59,1,1,0,0,0-.39-.26,8.34,8.34,0,0,0-.85-.26l-1.2-.31a3.19,3.19,0,0,1-.74-.3,2.36,2.36,0,0,1-.47-.42,1.49,1.49,0,0,1-.24-.49,1.88,1.88,0,0,1-.07-.53,1.78,1.78,0,0,1,.21-.9,1.84,1.84,0,0,1,.58-.63,2.34,2.34,0,0,1,.8-.37,3.57,3.57,0,0,1,.92-.12,3.06,3.06,0,0,1,1,.14,2.22,2.22,0,0,1,.84.42,2,2,0,0,1,.79,1.63h-1.2a1.14,1.14,0,0,0-.45-.94,1.77,1.77,0,0,0-1-.27,1.24,1.24,0,0,0-.84.15.8.8,0,0,0-.2,1.27,1.72,1.72,0,0,0,.6.31l.3.08.59.16.64.17.45.12a1.91,1.91,0,0,1,.59.29,2.09,2.09,0,0,1,.42.42,1.8,1.8,0,0,1,.25.5,2.07,2.07,0,0,1-.16,1.54,1.9,1.9,0,0,1-.62.67,2.81,2.81,0,0,1-.87.38,4.21,4.21,0,0,1-1,.12,4.11,4.11,0,0,1-1.1-.15,2.41,2.41,0,0,1-.91-.44,2.06,2.06,0,0,1-.61-.76,2.39,2.39,0,0,1-.24-1.11Z"/><path class="cls-1" d="M85.3,263.57a2.77,2.77,0,0,1-1.06-.2A2.21,2.21,0,0,1,83,262a3.31,3.31,0,0,1,0-2.11,2.21,2.21,0,0,1,1.28-1.37,2.9,2.9,0,0,1,2.13,0,2.21,2.21,0,0,1,1.28,1.37,3.31,3.31,0,0,1,0,2.11,2.21,2.21,0,0,1-1.28,1.37A2.79,2.79,0,0,1,85.3,263.57Zm0-.87a1.31,1.31,0,0,0,.64-.15,1.24,1.24,0,0,0,.44-.41,1.68,1.68,0,0,0,.26-.56,2.8,2.8,0,0,0,.08-.64,2.74,2.74,0,0,0-.08-.64,1.68,1.68,0,0,0-.26-.56,1.53,1.53,0,0,0-.44-.4,1.42,1.42,0,0,0-1.27,0,1.53,1.53,0,0,0-.44.4,1.68,1.68,0,0,0-.26.56,2.74,2.74,0,0,0-.08.64,2.8,2.8,0,0,0,.08.64,1.68,1.68,0,0,0,.26.56,1.24,1.24,0,0,0,.44.41A1.36,1.36,0,0,0,85.3,262.7Z"/><path class="cls-1" d="M88.76,256.56h1.1v6.86h-1.1Z"/><path class="cls-1" d="M91.08,256.56h1.1v1h-1.1Zm0,1.9h1.1v5h-1.1Z"/><path class="cls-1" d="M98.06,263.42H97v-.67h0a1.25,1.25,0,0,1-.64.62,2.14,2.14,0,0,1-.9.19,2.46,2.46,0,0,1-1-.21,2.1,2.1,0,0,1-.73-.56,2.39,2.39,0,0,1-.43-.84,3.75,3.75,0,0,1-.15-1.05,3.24,3.24,0,0,1,.18-1.16,2.48,2.48,0,0,1,.49-.81,1.81,1.81,0,0,1,.69-.47,2.22,2.22,0,0,1,.8-.15,2.42,2.42,0,0,1,.47.05,1.45,1.45,0,0,1,.46.14,1.52,1.52,0,0,1,.41.24,1.47,1.47,0,0,1,.31.35h0v-2.54h1.1ZM94.23,261a2.57,2.57,0,0,0,.08.62,1.61,1.61,0,0,0,.25.55,1.19,1.19,0,0,0,1,.53,1.36,1.36,0,0,0,.63-.15,1.3,1.3,0,0,0,.43-.41,1.88,1.88,0,0,0,.25-.56,2.74,2.74,0,0,0,.08-.64,2,2,0,0,0-.37-1.29,1.21,1.21,0,0,0-1-.46,1.23,1.23,0,0,0-.65.16,1.3,1.3,0,0,0-.43.41,1.74,1.74,0,0,0-.24.58,3,3,0,0,0-.08.67Z"/><path class="cls-1" d="M102.08,256.56h5v1h-3.74v1.86h3.46v1h-3.46v2h3.81v1h-5Z"/><path class="cls-1" d="M108,256.56h1.1v6.86H108Z"/><path class="cls-1" d="M111.17,261.23a2.1,2.1,0,0,0,.08.56,1.42,1.42,0,0,0,.25.47,1.3,1.3,0,0,0,.41.32,1.53,1.53,0,0,0,.6.12,1.39,1.39,0,0,0,.77-.2,1.27,1.27,0,0,0,.44-.63h1a2.13,2.13,0,0,1-.3.73,2,2,0,0,1-.51.53,2.78,2.78,0,0,1-.67.33,2.74,2.74,0,0,1-1.77-.08,2.29,2.29,0,0,1-.77-.54,2.35,2.35,0,0,1-.47-.83,3.17,3.17,0,0,1-.16-1.06,3.09,3.09,0,0,1,.17-1,2.54,2.54,0,0,1,.48-.83,2.4,2.4,0,0,1,.76-.58,2.29,2.29,0,0,1,2,0,2.44,2.44,0,0,1,.78.65,2.68,2.68,0,0,1,.45.93,3,3,0,0,1,.07,1.08Zm2.56-.72a1.72,1.72,0,0,0-.11-.5,1.38,1.38,0,0,0-.25-.42,1.19,1.19,0,0,0-.89-.4,1.39,1.39,0,0,0-.53.1,1.26,1.26,0,0,0-.4.28,1.68,1.68,0,0,0-.27.42,1.31,1.31,0,0,0-.11.52Z"/><path class="cls-1" d="M119,260.12a1,1,0,0,0-.38-.69,1.17,1.17,0,0,0-.76-.24,1.41,1.41,0,0,0-.45.07,1.15,1.15,0,0,0-.45.27,1.47,1.47,0,0,0-.33.55,2.6,2.6,0,0,0-.14.92,3.17,3.17,0,0,0,.07.61,1.59,1.59,0,0,0,.24.55,1.24,1.24,0,0,0,.4.39,1.2,1.2,0,0,0,.61.15,1.1,1.1,0,0,0,.79-.3,1.44,1.44,0,0,0,.4-.83h1.09a2.41,2.41,0,0,1-.73,1.48,2.24,2.24,0,0,1-1.55.52,2.66,2.66,0,0,1-1-.2,2.16,2.16,0,0,1-.76-.54,2.36,2.36,0,0,1-.47-.81,3.37,3.37,0,0,1-.16-1,3.71,3.71,0,0,1,.16-1,2.35,2.35,0,0,1,.46-.85,2.18,2.18,0,0,1,.77-.57,2.47,2.47,0,0,1,1.07-.21,3.24,3.24,0,0,1,.82.11,2.64,2.64,0,0,1,.7.33,1.76,1.76,0,0,1,.49.56,1.72,1.72,0,0,1,.23.8Z"/><path class="cls-1" d="M120.52,258.42h.82v-1.49h1.1v1.49h1v.82h-1v2.65a1.5,1.5,0,0,0,0,.3.83.83,0,0,0,.06.21.34.34,0,0,0,.16.13.93.93,0,0,0,.29.05h.46v.84h-.71a2.74,2.74,0,0,1-.7-.08.82.82,0,0,1-.41-.24.84.84,0,0,1-.2-.4,3.45,3.45,0,0,1-.07-.55v-2.93h-.82Z"/><path class="cls-1" d="M124.22,258.42h1v1h0a1.23,1.23,0,0,1,.19-.4,1.88,1.88,0,0,1,.34-.35,1.43,1.43,0,0,1,.43-.25,1.24,1.24,0,0,1,.5-.1h.47v1.1h-.47a1.4,1.4,0,0,0-.53.11,1.37,1.37,0,0,0-.43.33,1.59,1.59,0,0,0-.28.53,2.33,2.33,0,0,0-.11.74v2.29h-1.1Z"/><path class="cls-1" d="M129.72,263.57a2.77,2.77,0,0,1-1.06-.2,2.14,2.14,0,0,1-.79-.54,2.26,2.26,0,0,1-.49-.83,3.31,3.31,0,0,1,0-2.11,2.26,2.26,0,0,1,.49-.83,2.14,2.14,0,0,1,.79-.54,2.88,2.88,0,0,1,2.12,0,2.2,2.2,0,0,1,1.28,1.37,3.31,3.31,0,0,1,0,2.11,2.2,2.2,0,0,1-1.28,1.37A2.77,2.77,0,0,1,129.72,263.57Zm0-.87a1.26,1.26,0,0,0,1.08-.56,1.66,1.66,0,0,0,.25-.56,2.6,2.6,0,0,0,0-1.28,1.66,1.66,0,0,0-.25-.56,1.56,1.56,0,0,0-.45-.4,1.42,1.42,0,0,0-1.27,0,1.53,1.53,0,0,0-.44.4,1.66,1.66,0,0,0-.25.56,2.32,2.32,0,0,0,0,1.28,1.66,1.66,0,0,0,.25.56,1.24,1.24,0,0,0,.44.41A1.31,1.31,0,0,0,129.72,262.7Z"/><path class="cls-1" d="M133.15,258.42h1v.73h0a1.78,1.78,0,0,1,1.54-.89,1.79,1.79,0,0,1,1.29.43,1.59,1.59,0,0,1,.48,1.27v3.46h-1.1v-3.13a1.37,1.37,0,0,0-.25-.85,1,1,0,0,0-.72-.26,1.09,1.09,0,0,0-.5.1,1,1,0,0,0-.38.28,1.49,1.49,0,0,0-.33.93v2.93h-1.09Z"/><path class="cls-1" d="M141.5,256.56h1.21v3.13l3.06-3.13h1.48l-2.75,2.74,2.94,4.13h-1.5l-2.25-3.28-1,1v2.27H141.5Z"/><path class="cls-1" d="M150.22,263.57a2.77,2.77,0,0,1-1.06-.2,2.2,2.2,0,0,1-1.28-1.37,3.31,3.31,0,0,1,0-2.11,2.2,2.2,0,0,1,1.28-1.37,2.6,2.6,0,0,1,1.06-.2,2.79,2.79,0,0,1,1.07.2,2.27,2.27,0,0,1,.79.54,2.4,2.4,0,0,1,.49.83,3.61,3.61,0,0,1,0,2.11,2.5,2.5,0,0,1-.49.83,2.27,2.27,0,0,1-.79.54A2.79,2.79,0,0,1,150.22,263.57Zm0-.87a1.31,1.31,0,0,0,.64-.15,1.24,1.24,0,0,0,.44-.41,1.68,1.68,0,0,0,.26-.56,2.8,2.8,0,0,0,.08-.64,2.74,2.74,0,0,0-.08-.64,1.68,1.68,0,0,0-.26-.56,1.53,1.53,0,0,0-.44-.4,1.42,1.42,0,0,0-1.27,0,1.56,1.56,0,0,0-.45.4,1.66,1.66,0,0,0-.25.56,2.6,2.6,0,0,0,0,1.28,1.66,1.66,0,0,0,.25.56,1.26,1.26,0,0,0,1.08.56Z"/><path class="cls-1" d="M153.65,258.42h1v.73h0a1.84,1.84,0,0,1,.65-.65,1.76,1.76,0,0,1,.9-.24,1.84,1.84,0,0,1,1.29.43A1.62,1.62,0,0,1,158,260v3.46h-1.1v-3.13a1.29,1.29,0,0,0-.25-.85.91.91,0,0,0-.72-.26,1.09,1.09,0,0,0-.5.1,1.29,1.29,0,0,0-.38.28,1.58,1.58,0,0,0-.24.42,1.75,1.75,0,0,0-.08.51v2.93h-1.1Z"/><path class="cls-1" d="M158.67,258.42h.83v-1.49h1.1v1.49h1v.82h-1v2.65a1.5,1.5,0,0,0,0,.3.58.58,0,0,0,.07.21.34.34,0,0,0,.16.13.93.93,0,0,0,.29.05h.46v.84h-.71a2.74,2.74,0,0,1-.7-.08.82.82,0,0,1-.41-.24.86.86,0,0,1-.21-.4,5.14,5.14,0,0,1-.06-.55v-2.93h-.83Z"/><path class="cls-1" d="M162.38,258.42h1v1h0a1,1,0,0,1,.19-.4,2.2,2.2,0,0,1,.33-.35,1.48,1.48,0,0,1,.44-.25,1.16,1.16,0,0,1,.49-.1h.42v1.1h-.48a1.31,1.31,0,0,0-.52.11,1.37,1.37,0,0,0-.43.33,1.62,1.62,0,0,0-.29.53,2.32,2.32,0,0,0-.1.74v2.29h-1.1Z"/><path class="cls-1" d="M167.88,263.57a2.79,2.79,0,0,1-1.07-.2,2.21,2.21,0,0,1-1.28-1.37,3.31,3.31,0,0,1,0-2.11,2.21,2.21,0,0,1,1.28-1.37,2.9,2.9,0,0,1,2.13,0,2.21,2.21,0,0,1,1.28,1.37,3.31,3.31,0,0,1,0,2.11,2.21,2.21,0,0,1-1.28,1.37A2.77,2.77,0,0,1,167.88,263.57Zm0-.87a1.36,1.36,0,0,0,.63-.15,1.24,1.24,0,0,0,.44-.41,1.68,1.68,0,0,0,.26-.56,2.8,2.8,0,0,0,.08-.64,2.74,2.74,0,0,0-.08-.64,1.68,1.68,0,0,0-.26-.56,1.53,1.53,0,0,0-.44-.4,1.42,1.42,0,0,0-1.27,0,1.53,1.53,0,0,0-.44.4,1.68,1.68,0,0,0-.26.56,2.74,2.74,0,0,0-.08.64,2.8,2.8,0,0,0,.08.64,1.68,1.68,0,0,0,.26.56,1.24,1.24,0,0,0,.44.41A1.31,1.31,0,0,0,167.88,262.7Z"/><path class="cls-1" d="M171.33,256.56h1.1v6.86h-1.1Z"/><path class="cls-1" d="M175.8,256.56h5.56v1h-2.18v5.86H178v-5.83h-2.2Z"/><path class="cls-1" d="M181.79,261.23a1.77,1.77,0,0,0,.09.56,1.4,1.4,0,0,0,.24.47,1.3,1.3,0,0,0,.42.32,1.33,1.33,0,0,0,.59.12,1.44,1.44,0,0,0,.78-.2,1.27,1.27,0,0,0,.44-.63h1a2.13,2.13,0,0,1-.3.73,2,2,0,0,1-.51.53,2.78,2.78,0,0,1-.67.33,2.94,2.94,0,0,1-.78.11,2.86,2.86,0,0,1-1-.19,2.18,2.18,0,0,1-1.23-1.37,3.17,3.17,0,0,1-.16-1.06,2.84,2.84,0,0,1,.17-1,2.54,2.54,0,0,1,.48-.83,2.48,2.48,0,0,1,.75-.58,2.3,2.3,0,0,1,1-.21,2.25,2.25,0,0,1,1.83.9,2.44,2.44,0,0,1,.45.93,2.81,2.81,0,0,1,.07,1.08Zm2.57-.72a2.13,2.13,0,0,0-.11-.5,1.41,1.41,0,0,0-.26-.42,1.1,1.1,0,0,0-.38-.29,1.26,1.26,0,0,0-.51-.11,1.3,1.3,0,0,0-.52.1,1.12,1.12,0,0,0-.4.28,1.17,1.17,0,0,0-.27.42,1.52,1.52,0,0,0-.12.52Z"/><path class="cls-1" d="M186.32,256.56h1.1v3.91l2-2h1.35l-1.91,1.83,2.09,3.14h-1.34L188.09,261l-.65.63v1.76h-1.1Z"/><path class="cls-1" d="M191.46,258.42h1v.73h0a1.84,1.84,0,0,1,.65-.65,1.76,1.76,0,0,1,.9-.24,1.84,1.84,0,0,1,1.29.43,1.62,1.62,0,0,1,.47,1.27v3.46h-1.1v-3.13a1.29,1.29,0,0,0-.25-.85.91.91,0,0,0-.72-.26,1.09,1.09,0,0,0-.5.1,1.29,1.29,0,0,0-.38.28,1.58,1.58,0,0,0-.24.42,1.75,1.75,0,0,0-.08.51v2.93h-1.1Z"/><path class="cls-1" d="M199.27,263.57a2.79,2.79,0,0,1-1.07-.2,2.27,2.27,0,0,1-.79-.54,2.5,2.5,0,0,1-.49-.83,3.31,3.31,0,0,1,0-2.11,2.4,2.4,0,0,1,.49-.83,2.27,2.27,0,0,1,.79-.54,2.9,2.9,0,0,1,2.13,0,2.21,2.21,0,0,1,1.28,1.37,3.31,3.31,0,0,1,0,2.11,2.21,2.21,0,0,1-1.28,1.37A2.77,2.77,0,0,1,199.27,263.57Zm0-.87a1.36,1.36,0,0,0,.63-.15,1.24,1.24,0,0,0,.44-.41,1.68,1.68,0,0,0,.26-.56,2.8,2.8,0,0,0,.08-.64,2.74,2.74,0,0,0-.08-.64,1.68,1.68,0,0,0-.26-.56,1.53,1.53,0,0,0-.44-.4,1.42,1.42,0,0,0-1.27,0,1.53,1.53,0,0,0-.44.4,1.68,1.68,0,0,0-.26.56,2.74,2.74,0,0,0-.08.64,2.8,2.8,0,0,0,.08.64,1.68,1.68,0,0,0,.26.56,1.24,1.24,0,0,0,.44.41A1.31,1.31,0,0,0,199.27,262.7Z"/><path class="cls-1" d="M202.72,256.56h1.1v6.86h-1.1Z"/><path class="cls-1" d="M207.29,263.57a2.77,2.77,0,0,1-1.06-.2A2.21,2.21,0,0,1,205,262a3.31,3.31,0,0,1,0-2.11,2.21,2.21,0,0,1,1.28-1.37,2.9,2.9,0,0,1,2.13,0,2.21,2.21,0,0,1,1.28,1.37,3.31,3.31,0,0,1,0,2.11,2.21,2.21,0,0,1-1.28,1.37A2.79,2.79,0,0,1,207.29,263.57Zm0-.87a1.31,1.31,0,0,0,.64-.15,1.24,1.24,0,0,0,.44-.41,1.68,1.68,0,0,0,.26-.56,2.8,2.8,0,0,0,.08-.64,2.74,2.74,0,0,0-.08-.64,1.68,1.68,0,0,0-.26-.56,1.53,1.53,0,0,0-.44-.4,1.42,1.42,0,0,0-1.27,0,1.53,1.53,0,0,0-.44.4,1.68,1.68,0,0,0-.26.56,2.74,2.74,0,0,0-.08.64,2.8,2.8,0,0,0,.08.64,1.68,1.68,0,0,0,.26.56,1.24,1.24,0,0,0,.44.41A1.36,1.36,0,0,0,207.29,262.7Z"/><path class="cls-1" d="M210.75,258.42h1.1v5.4a1.72,1.72,0,0,1-.33,1.14,1.33,1.33,0,0,1-1.1.41h-.49v-.87h.38c.2,0,.32-.06.37-.18a1.46,1.46,0,0,0,.07-.55Zm0-1.9h1.1v1h-1.1Z"/><path class="cls-1" d="M213.07,256.56h1.1v1h-1.1Zm0,1.9h1.1v5h-1.1Z"/><path class="cls-1" d="M215.39,256.56h1.1v6.86h-1.1Z"/><path class="cls-1" d="M218.54,261.23a1.77,1.77,0,0,0,.08.56,1.42,1.42,0,0,0,.25.47,1.07,1.07,0,0,0,.41.32,1.53,1.53,0,0,0,.6.12,1.39,1.39,0,0,0,.77-.2,1.27,1.27,0,0,0,.44-.63h1a2.13,2.13,0,0,1-.3.73,2,2,0,0,1-.51.53,2.78,2.78,0,0,1-.67.33,2.74,2.74,0,0,1-1.77-.08,2.19,2.19,0,0,1-.77-.54,2.35,2.35,0,0,1-.47-.83,3.17,3.17,0,0,1-.16-1.06,3.09,3.09,0,0,1,.17-1,2.54,2.54,0,0,1,.48-.83,2.4,2.4,0,0,1,.76-.58,2.17,2.17,0,0,1,1-.21,2.12,2.12,0,0,1,1.05.25,2.44,2.44,0,0,1,.78.65,2.49,2.49,0,0,1,.44.93,2.81,2.81,0,0,1,.08,1.08Zm2.56-.72a2.13,2.13,0,0,0-.11-.5,1.38,1.38,0,0,0-.25-.42,1.19,1.19,0,0,0-.89-.4,1.22,1.22,0,0,0-.53.1,1.12,1.12,0,0,0-.4.28,1.17,1.17,0,0,0-.27.42,1.31,1.31,0,0,0-.11.52Z"/><path class="cls-1" d="M223,258.42h1v1h0a1.23,1.23,0,0,1,.19-.4,1.88,1.88,0,0,1,.34-.35,1.63,1.63,0,0,1,.47-.25,1.24,1.24,0,0,1,.5-.1h.41v1.1h-.47a1.4,1.4,0,0,0-.53.11,1.34,1.34,0,0,0-.42.33,1.44,1.44,0,0,0-.29.53,2.33,2.33,0,0,0-.11.74v2.29H223Z"/><path class="cls-1" d="M226.45,256.56h1.1v1h-1.1Zm0,1.9h1.1v5h-1.1Z"/><path class="cls-1" d="M232.36,261.14a1.46,1.46,0,0,0,.14.68,1.08,1.08,0,0,0,.37.45,1.55,1.55,0,0,0,.55.26,2.59,2.59,0,0,0,.68.09,2,2,0,0,0,.68-.1,1.47,1.47,0,0,0,.45-.23.9.9,0,0,0,.25-.33,1,1,0,0,0,.08-.38.85.85,0,0,0-.18-.59,1,1,0,0,0-.39-.26,8.34,8.34,0,0,0-.85-.26l-1.2-.31a3.19,3.19,0,0,1-.74-.3,2.36,2.36,0,0,1-.47-.42,1.49,1.49,0,0,1-.24-.49,1.88,1.88,0,0,1-.07-.53,1.78,1.78,0,0,1,.21-.9,1.84,1.84,0,0,1,.58-.63,2.34,2.34,0,0,1,.8-.37,3.57,3.57,0,0,1,.92-.12,3.36,3.36,0,0,1,1,.14,2.41,2.41,0,0,1,.83.42,2,2,0,0,1,.58.68,2.06,2.06,0,0,1,.21.95h-1.21a1.14,1.14,0,0,0-.45-.94,1.77,1.77,0,0,0-1-.27,1.24,1.24,0,0,0-.84.15.86.86,0,0,0-.3.27.84.84,0,0,0,.11,1,1.46,1.46,0,0,0,.59.31l.3.08.59.16.64.17.45.12a1.91,1.91,0,0,1,.59.29,2.09,2.09,0,0,1,.42.42,1.8,1.8,0,0,1,.25.5,2.07,2.07,0,0,1-.16,1.54,1.9,1.9,0,0,1-.62.67,2.81,2.81,0,0,1-.87.38,4.21,4.21,0,0,1-1,.12,4.13,4.13,0,0,1-1.11-.15A2.41,2.41,0,0,1,232,263a2.06,2.06,0,0,1-.61-.76,2.39,2.39,0,0,1-.24-1.11Z"/><path class="cls-1" d="M241.82,262.33a.49.49,0,0,0,.06.29.22.22,0,0,0,.2.08h.27v.72l-.15.05h-.54a1,1,0,0,1-.56-.14.66.66,0,0,1-.29-.47,1.79,1.79,0,0,1-.8.46,2.91,2.91,0,0,1-.92.15,2.37,2.37,0,0,1-.65-.09,1.82,1.82,0,0,1-.54-.27,1.36,1.36,0,0,1-.38-.45,1.57,1.57,0,0,1-.14-.64,1.54,1.54,0,0,1,.17-.76,1.21,1.21,0,0,1,.45-.45,1.67,1.67,0,0,1,.61-.23,5.5,5.5,0,0,1,.69-.11l.57-.09a2.43,2.43,0,0,0,.47-.08.72.72,0,0,0,.33-.18.48.48,0,0,0,.12-.36.52.52,0,0,0-.1-.34.72.72,0,0,0-.25-.21,1.26,1.26,0,0,0-.33-.1h-.35a1.35,1.35,0,0,0-.76.19.75.75,0,0,0-.33.6h-1.1a1.61,1.61,0,0,1,.23-.8,1.55,1.55,0,0,1,.51-.51,2.06,2.06,0,0,1,.69-.17,4.45,4.45,0,0,1,.81-.08,3.53,3.53,0,0,1,.72.08,1.86,1.86,0,0,1,.64.25,1.24,1.24,0,0,1,.46.45,1.2,1.2,0,0,1,.17.67Zm-1.1-1.39a1.2,1.2,0,0,1-.61.2,5.83,5.83,0,0,0-.73.1l-.34.08a.8.8,0,0,0-.29.15.68.68,0,0,0-.2.24.89.89,0,0,0-.07.36.51.51,0,0,0,.11.31.79.79,0,0,0,.25.19,1.26,1.26,0,0,0,.33.1h.32a1.34,1.34,0,0,0,.4,0,1.16,1.16,0,0,0,.4-.16,1.07,1.07,0,0,0,.31-.29.86.86,0,0,0,.12-.44Z"/><path class="cls-1" d="M243,258.42h1v.75a1.87,1.87,0,0,1,.66-.65,1.76,1.76,0,0,1,.9-.24,1.8,1.8,0,0,1,1.28.43,1.59,1.59,0,0,1,.48,1.27v3.44h-1.1v-3.13a1.34,1.34,0,0,0-.22-.87.91.91,0,0,0-.72-.26,1.09,1.09,0,0,0-.5.1,1,1,0,0,0-.38.28,1.49,1.49,0,0,0-.33.93v2.95H243Z"/><path class="cls-1" d="M248.62,262.13H250v1.29h-1.34Z"/><path class="cls-1" d="M253.39,258.42h1.2l1.26,3.82h0l1.21-3.82h1.13l-1.78,5H255.2Z"/><path class="cls-1" d="M259.74,261.23a1.77,1.77,0,0,0,.08.56,1.4,1.4,0,0,0,.24.47,1.3,1.3,0,0,0,.42.32,1.33,1.33,0,0,0,.59.12,1.42,1.42,0,0,0,.78-.2,1.27,1.27,0,0,0,.44-.63h1a2.13,2.13,0,0,1-.3.73,2,2,0,0,1-.51.53,2.78,2.78,0,0,1-.67.33,2.94,2.94,0,0,1-.78.11,2.86,2.86,0,0,1-1-.19,2.19,2.19,0,0,1-.77-.54,2.08,2.08,0,0,1-.47-.83,3.17,3.17,0,0,1-.16-1.06,3.09,3.09,0,0,1,.17-1,2.54,2.54,0,0,1,.48-.83,2.48,2.48,0,0,1,.75-.58,2.3,2.3,0,0,1,1-.21,2.12,2.12,0,0,1,1.05.25,2.44,2.44,0,0,1,.78.65,2.49,2.49,0,0,1,.44.93,2.63,2.63,0,0,1,.07,1.08Zm2.56-.72a2.13,2.13,0,0,0-.11-.5,1.79,1.79,0,0,0-.25-.42,1.19,1.19,0,0,0-.89-.4,1.22,1.22,0,0,0-.53.1,1.12,1.12,0,0,0-.4.28,1.17,1.17,0,0,0-.27.42,1.31,1.31,0,0,0-.11.52Z"/><path class="cls-1" d="M266.41,256.56H272v1h-2.18v5.86h-1.21v-5.83h-2.17Z"/><path class="cls-1" d="M272.64,256.56h1.1v1h-1.1Zm0,1.9h1.1v5h-1.1Z"/><path class="cls-1" d="M278.29,260.12a1,1,0,0,0-.37-.69,1.17,1.17,0,0,0-.76-.24,1.41,1.41,0,0,0-.45.07,1.15,1.15,0,0,0-.45.27,1.47,1.47,0,0,0-.33.55,2.84,2.84,0,0,0-.06,1.53,1.57,1.57,0,0,0,.23.55,1.24,1.24,0,0,0,.4.39,1.2,1.2,0,0,0,.61.15,1.12,1.12,0,0,0,.8-.3,1.39,1.39,0,0,0,.38-.83h1.1a2.41,2.41,0,0,1-.73,1.48,2.24,2.24,0,0,1-1.55.52,2.66,2.66,0,0,1-1-.2,2.16,2.16,0,0,1-.76-.54,2.36,2.36,0,0,1-.47-.81,3.37,3.37,0,0,1-.15-1,3.7,3.7,0,0,1,.15-1,2.35,2.35,0,0,1,.46-.85,2.18,2.18,0,0,1,.77-.57,2.47,2.47,0,0,1,1.07-.21,3.24,3.24,0,0,1,.82.11,2.64,2.64,0,0,1,.7.33,1.76,1.76,0,0,1,.49.56,1.72,1.72,0,0,1,.23.8Z"/><path class="cls-1" d="M280.38,262.13h1.33v1.29h-1.33Z"/><path class="cls-1" d="M287.63,256.56h1.28l2.65,6.87h-1.29l-.65-1.82h-2.74l-.64,1.82H285Zm-.42,4.14h2.1l-1-3h0Z"/><path class="cls-1" d="M292.15,262.13h1.34v1.29h-1.34Z"/><path class="cls-1" d="M295.66,265a1.75,1.75,0,0,0,.32.12.81.81,0,0,0,.31,0h.2l.19,0a.33.33,0,0,0,.14-.12.31.31,0,0,0,.05-.21.3.3,0,0,0-.14-.27.53.53,0,0,0-.3-.09.78.78,0,0,0-.37.09l-.22-.18.54-.72a3.83,3.83,0,0,1-.59-.1,1.93,1.93,0,0,1-.68-.32,1.42,1.42,0,0,1-.46-.54,1.55,1.55,0,0,1-.18-.76h1.09a.85.85,0,0,0,.37.67,1.43,1.43,0,0,0,.76.19H297a2.22,2.22,0,0,0,.37-.09.72.72,0,0,0,.29-.2.52.52,0,0,0,.1-.34.48.48,0,0,0-.16-.35,1.07,1.07,0,0,0-.37-.22,4.84,4.84,0,0,0-.51-.14l-.59-.12a5.69,5.69,0,0,1-.59-.16,2,2,0,0,1-.51-.26,1.32,1.32,0,0,1-.36-.42,1.26,1.26,0,0,1-.14-.63,1.11,1.11,0,0,1,.2-.68,1.52,1.52,0,0,1,.5-.44,1.91,1.91,0,0,1,.73-.21,3.26,3.26,0,0,1,.7-.07,3.65,3.65,0,0,1,.74.08,2.35,2.35,0,0,1,.63.27,1.53,1.53,0,0,1,.71,1.18h-1.14a.69.69,0,0,0-.37-.53,1.41,1.41,0,0,0-.64-.13h-.28a1.63,1.63,0,0,0-.3.07.7.7,0,0,0-.23.15.34.34,0,0,0-.1.27.47.47,0,0,0,.14.33,1,1,0,0,0,.37.2,3.23,3.23,0,0,0,.51.14l.6.13a2.16,2.16,0,0,1,.59.16,2,2,0,0,1,.51.26,1.35,1.35,0,0,1,.37.42,1.29,1.29,0,0,1,.13.61,1.32,1.32,0,0,1-.2.75,1.55,1.55,0,0,1-.52.5,2.63,2.63,0,0,1-.72.28,3.09,3.09,0,0,1-.61.08l-.34.44h.32a.87.87,0,0,1,.28.05.84.84,0,0,1,.27.13.71.71,0,0,1,.19.23.64.64,0,0,1,.07.31.77.77,0,0,1-.1.42.75.75,0,0,1-.27.26,1.53,1.53,0,0,1-.37.16,2,2,0,0,1-.42.05,3.05,3.05,0,0,1-.52-.05,1.66,1.66,0,0,1-.47-.17Z"/><path class="cls-1" d="M299.82,262.13h1.34v1.29h-1.34Z"/><path class="cls-1" d="M302.57,258.72a.58.58,0,0,0,.47-.3,1.38,1.38,0,0,0,.12-.56h-.59v-1.3h1.21v1.3a1.43,1.43,0,0,1-.33.95,1.37,1.37,0,0,1-.88.47Z"/><path class="cls-1" d="M304.54,258.42h1.2l1.3,3.71h0l1.26-3.71h1.14l-1.93,5.24c-.09.23-.18.44-.27.65a2.43,2.43,0,0,1-.31.54,1.43,1.43,0,0,1-.47.38,1.58,1.58,0,0,1-.71.14,4.87,4.87,0,0,1-.76-.06v-.89h.52a.65.65,0,0,0,.31-.05.38.38,0,0,0,.21-.14.6.6,0,0,0,.14-.21,1.45,1.45,0,0,0,.11-.29l.12-.39Z"/><path class="cls-1" d="M310.94,261.23a1.77,1.77,0,0,0,.08.56,1.4,1.4,0,0,0,.24.47,1.3,1.3,0,0,0,.42.32,1.61,1.61,0,0,0,1.37-.08,1.27,1.27,0,0,0,.44-.63h1a2.13,2.13,0,0,1-.3.73,2,2,0,0,1-.51.53,2.78,2.78,0,0,1-.67.33,2.74,2.74,0,0,1-1.77-.08,2.19,2.19,0,0,1-.77-.54A2.08,2.08,0,0,1,310,262a3.17,3.17,0,0,1-.16-1.06,3.09,3.09,0,0,1,.17-1,2.54,2.54,0,0,1,.48-.83,2.4,2.4,0,0,1,.76-.58,2.17,2.17,0,0,1,1-.21,2.12,2.12,0,0,1,1.05.25,2.44,2.44,0,0,1,.78.65,2.49,2.49,0,0,1,.44.93,2.81,2.81,0,0,1,.08,1.08Zm2.56-.72a2.13,2.13,0,0,0-.11-.5,1.38,1.38,0,0,0-.25-.42,1.19,1.19,0,0,0-.89-.4,1.22,1.22,0,0,0-.53.1,1.12,1.12,0,0,0-.4.28,1.68,1.68,0,0,0-.27.42,1.31,1.31,0,0,0-.11.52Z"/><path class="cls-1" d="M317.56,258.42h1.2l1.3,3.71h0l1.26-3.71h1.15l-1.94,5.24c-.09.23-.17.44-.26.65a2.48,2.48,0,0,1-.32.54,1.43,1.43,0,0,1-.47.38,1.58,1.58,0,0,1-.71.14,4.87,4.87,0,0,1-.76-.06v-.89h.52a.7.7,0,0,0,.32-.05.6.6,0,0,0,.21-.14.74.74,0,0,0,.13-.21,1.45,1.45,0,0,0,.11-.29l.13-.39Z"/><path class="cls-1" d="M324,261.23a2.1,2.1,0,0,0,.08.56,1.42,1.42,0,0,0,.25.47,1.3,1.3,0,0,0,.41.32,1.53,1.53,0,0,0,.6.12,1.39,1.39,0,0,0,.77-.2,1.21,1.21,0,0,0,.44-.63h1a2.13,2.13,0,0,1-.3.73,2,2,0,0,1-.51.53,2.78,2.78,0,0,1-.67.33,2.74,2.74,0,0,1-1.77-.08,2.29,2.29,0,0,1-.77-.54,2.44,2.44,0,0,1-.47-.83,3.45,3.45,0,0,1-.16-1.06,3.09,3.09,0,0,1,.17-1,2.54,2.54,0,0,1,.48-.83,2.4,2.4,0,0,1,.76-.58,2.17,2.17,0,0,1,1-.21,2.12,2.12,0,0,1,1.05.25,2.23,2.23,0,0,1,.78.65,2.68,2.68,0,0,1,.45.93,3,3,0,0,1,.07,1.08Zm2.56-.72a1.72,1.72,0,0,0-.11-.5,1.27,1.27,0,0,0-.25-.42,1.16,1.16,0,0,0-1.38-.29,1.25,1.25,0,0,0-.41.28,1.68,1.68,0,0,0-.27.42,1.31,1.31,0,0,0-.11.52Z"/><path class="cls-1" d="M328,258.42h.82v-1.49h1.1v1.49h1v.82h-1v2.65a1.5,1.5,0,0,0,0,.3.83.83,0,0,0,.06.21.34.34,0,0,0,.16.13.93.93,0,0,0,.29.05h.46v.84h-.71a2.74,2.74,0,0,1-.7-.08.82.82,0,0,1-.41-.24.84.84,0,0,1-.2-.4,3.45,3.45,0,0,1-.07-.55v-2.93H328Z"/><path class="cls-1" d="M331.69,256.56h1.1v3.91l2-2h1.35l-1.91,1.83,2.07,3.12H335L333.48,261l-.65.63v1.78h-1.1Z"/><path class="cls-1" d="M336.86,256.56H338v1h-1.1Zm0,1.9H338v5h-1.1Z"/><path class="cls-1" d="M339.18,256.56h1.1v6.86h-1.1Z"/><path class="cls-1" d="M341.5,256.56h1.1v1h-1.1Zm0,1.9h1.1v5h-1.1Z"/><path class="cls-1" d="M346.5,256.56h1.09v3.91l2-2h1.34L349,260.3l2.09,3.14h-1.34L348.26,261l-.66.63v1.76h-1.1Z"/><path class="cls-1" d="M356,263.42h-1.08v-.69h0a1.57,1.57,0,0,1-.6.6,1.69,1.69,0,0,1-.82.23,1.82,1.82,0,0,1-1.42-.49,2.16,2.16,0,0,1-.44-1.47v-3.18h1.1v3a1.37,1.37,0,0,0,.25.92.91.91,0,0,0,.71.27,1.4,1.4,0,0,0,.57-.1,1,1,0,0,0,.38-.29,1.23,1.23,0,0,0,.21-.43,2.48,2.48,0,0,0,.06-.54v-2.83H356Z"/><path class="cls-1" d="M357.16,258.42h1v1h0a1,1,0,0,1,.19-.4,2.2,2.2,0,0,1,.33-.35,1.92,1.92,0,0,1,.44-.25,1.16,1.16,0,0,1,.49-.1H360v1.1h-.47a1.4,1.4,0,0,0-.53.11,1.37,1.37,0,0,0-.43.33,1.62,1.62,0,0,0-.29.53,2.32,2.32,0,0,0-.1.74v2.29h-1.1Z"/><path class="cls-1" d="M364.92,263.42h-1.08v-.69h0a1.51,1.51,0,0,1-.6.6,1.76,1.76,0,0,1-.81.23,1.82,1.82,0,0,1-1.42-.49,2.16,2.16,0,0,1-.44-1.47v-3.18h1.1v3a1.32,1.32,0,0,0,.25.92.88.88,0,0,0,.7.27,1.42,1.42,0,0,0,.58-.1,1.16,1.16,0,0,0,.37-.29,1,1,0,0,0,.21-.43,2.48,2.48,0,0,0,.06-.54v-2.83h1.1Z"/><path class="cls-1" d="M366.07,258.42h1v.69h0l.27-.34a1.38,1.38,0,0,1,.73-.42,2,2,0,0,1,1.38.13,1.21,1.21,0,0,1,.55.63,2.19,2.19,0,0,1,.64-.61,1.84,1.84,0,0,1,.92-.22,1.78,1.78,0,0,1,1.23.39,1.66,1.66,0,0,1,.43,1.29v3.46h-1V260a1.19,1.19,0,0,0-.11-.42.61.61,0,0,0-.28-.27,1,1,0,0,0-.5-.1.91.91,0,0,0-.81.35,1.68,1.68,0,0,0-.25,1v2.89h-1.1v-3.19a1.42,1.42,0,0,0-.15-.81.82.82,0,0,0-.69-.26,1,1,0,0,0-.41.09.94.94,0,0,0-.35.25,1.25,1.25,0,0,0-.24.4,1.71,1.71,0,0,0-.09.55v3h-1.1Z"/><path class="cls-1" d="M376.62,258.42h.83v-1.49h1.1v1.49h1v.82h-1v2.65a1.5,1.5,0,0,0,0,.3.58.58,0,0,0,.07.21.34.34,0,0,0,.16.13.93.93,0,0,0,.29.05h.46v.84h-.71a2.74,2.74,0,0,1-.7-.08.82.82,0,0,1-.41-.24.86.86,0,0,1-.21-.4,5.14,5.14,0,0,1-.06-.55v-2.93h-.83Z"/><path class="cls-1" d="M384.5,262.33a.71.71,0,0,0,.05.29.24.24,0,0,0,.21.08H385v.72l-.15.05h-.55a1,1,0,0,1-.55-.14.66.66,0,0,1-.29-.47,1.88,1.88,0,0,1-.81.46,2.91,2.91,0,0,1-.92.15,2.3,2.3,0,0,1-.64-.09,1.52,1.52,0,0,1-.54-.27,1.27,1.27,0,0,1-.38-.45,1.57,1.57,0,0,1-.14-.64,1.54,1.54,0,0,1,.17-.76,1.27,1.27,0,0,1,.44-.45,1.93,1.93,0,0,1,.62-.23,5.5,5.5,0,0,1,.69-.11l.56-.09a2.38,2.38,0,0,0,.46,0,.72.72,0,0,0,.33-.18.48.48,0,0,0,.12-.36.52.52,0,0,0-.1-.34.72.72,0,0,0-.25-.21,1.26,1.26,0,0,0-.33-.1h-.35a1.35,1.35,0,0,0-.76.19.76.76,0,0,0-.34.6h-1.1a1.72,1.72,0,0,1,.23-.8,1.58,1.58,0,0,1,.52-.51,1.87,1.87,0,0,1,.71-.27,4.45,4.45,0,0,1,.81-.08,3.53,3.53,0,0,1,.72.08,2.08,2.08,0,0,1,.64.25,1.24,1.24,0,0,1,.46.45,1.2,1.2,0,0,1,.17.67Zm-1.1-1.39a1.3,1.3,0,0,1-.61.2,6,6,0,0,0-.74.1l-.33.08a.8.8,0,0,0-.29.15.52.52,0,0,0-.2.24.89.89,0,0,0-.07.36.5.5,0,0,0,.1.31.83.83,0,0,0,.26.19,1.26,1.26,0,0,0,.33.1h.32a1.28,1.28,0,0,0,.39,0,1.16,1.16,0,0,0,.4-.16,1.26,1.26,0,0,0,.32-.29.86.86,0,0,0,.12-.44Z"/><path class="cls-1" d="M2.64,268.11H3.92L6.56,275H5.28l-.65-1.82H1.89L1.24,275H0Zm-.43,4.14h2.1l-1-2.95h0Z"/><path class="cls-1" d="M7.07,270h1v.69h0l.33-.28a2.16,2.16,0,0,1,.33-.27,1.4,1.4,0,0,1,.4-.16,1.89,1.89,0,0,1,1.38.14,1.12,1.12,0,0,1,.55.62,2.07,2.07,0,0,1,.65-.6,1.71,1.71,0,0,1,.91-.23,1.78,1.78,0,0,1,1.23.39,1.7,1.7,0,0,1,.44,1.29V275h-1.1v-3.46a1.19,1.19,0,0,0-.11-.42.57.57,0,0,0-.28-.27,1,1,0,0,0-.5-.1,1,1,0,0,0-.81.35,1.76,1.76,0,0,0-.25,1v2.92H10.13v-3.2a1.33,1.33,0,0,0-.19-.78.79.79,0,0,0-.69-.27,1,1,0,0,0-.41.09,1.07,1.07,0,0,0-.35.25,1.25,1.25,0,0,0-.24.4,1.71,1.71,0,0,0-.09.55v3H7.07Z"/><path class="cls-1" d="M19.61,273.88a.58.58,0,0,0,.05.29.24.24,0,0,0,.21.08h.29V275h-.7a1.06,1.06,0,0,1-.55-.13.68.68,0,0,1-.29-.48,2,2,0,0,1-.81.47,3.21,3.21,0,0,1-.92.14,2.3,2.3,0,0,1-.64-.09,1.52,1.52,0,0,1-.54-.27,1.27,1.27,0,0,1-.38-.45,1.57,1.57,0,0,1-.14-.64,1.5,1.5,0,0,1,.17-.75,1.22,1.22,0,0,1,.44-.46,1.93,1.93,0,0,1,.62-.23,5.5,5.5,0,0,1,.69-.11,3.43,3.43,0,0,1,.56-.08l.48-.09a.62.62,0,0,0,.33-.17.5.5,0,0,0,.12-.37.59.59,0,0,0-.1-.34.72.72,0,0,0-.25-.21,1,1,0,0,0-.34-.1h-.34a1.35,1.35,0,0,0-.76.19.76.76,0,0,0-.34.6h-1.1a1.72,1.72,0,0,1,.23-.8,1.58,1.58,0,0,1,.52-.51,1.87,1.87,0,0,1,.71-.27,4.45,4.45,0,0,1,.81-.08,3.53,3.53,0,0,1,.72.08,2.18,2.18,0,0,1,.64.25,1.38,1.38,0,0,1,.45.45,1.13,1.13,0,0,1,.18.67Zm-1.1-1.39a1.26,1.26,0,0,1-.62.2,4.73,4.73,0,0,0-.73.1l-.33.08a1.14,1.14,0,0,0-.29.15.52.52,0,0,0-.2.24.89.89,0,0,0-.07.36.5.5,0,0,0,.1.31.7.7,0,0,0,.26.19.91.91,0,0,0,.33.1h.71a1.42,1.42,0,0,0,.4-.17.86.86,0,0,0,.31-.29.69.69,0,0,0,.13-.44Z"/><path class="cls-1" d="M24.15,271.67a1,1,0,0,0-.37-.69,1.17,1.17,0,0,0-.76-.24,1.43,1.43,0,0,0-.46.07,1,1,0,0,0-.44.27,1.64,1.64,0,0,0-.34.55,3.09,3.09,0,0,0-.06,1.54,2.21,2.21,0,0,0,.23.55,1.07,1.07,0,0,0,.41.38,1.2,1.2,0,0,0,.61.15,1.15,1.15,0,0,0,.79-.29,1.4,1.4,0,0,0,.39-.84h1.1a2.37,2.37,0,0,1-.74,1.49,2.26,2.26,0,0,1-1.54.51,2.66,2.66,0,0,1-1-.2,2.12,2.12,0,0,1-.75-.54,2.27,2.27,0,0,1-.47-.81,3.08,3.08,0,0,1-.16-1,3.39,3.39,0,0,1,.16-1.05,2.35,2.35,0,0,1,.46-.85,2.24,2.24,0,0,1,.76-.57,2.51,2.51,0,0,1,1.08-.21,3.24,3.24,0,0,1,.82.11,2.22,2.22,0,0,1,.69.34,1.92,1.92,0,0,1,.5.56,2,2,0,0,1,.23.79Z"/><path class="cls-1" d="M26.17,275v-5h1.1v5Z"/><path class="cls-1" d="M35.83,275h-1v-.68h0a1.27,1.27,0,0,1-.65.62,2.09,2.09,0,0,1-.89.19,2.46,2.46,0,0,1-1-.21,2,2,0,0,1-.72-.56,2.51,2.51,0,0,1-.44-.84,3.77,3.77,0,0,1-.14-1,3.27,3.27,0,0,1,.18-1.16,2.32,2.32,0,0,1,.49-.81,1.81,1.81,0,0,1,.69-.47,2.22,2.22,0,0,1,.8-.15,2.42,2.42,0,0,1,.47.05,1.88,1.88,0,0,1,.46.14,1.52,1.52,0,0,1,.41.24,1.47,1.47,0,0,1,.31.35h0v-2.54h1.1ZM32,272.55a2.27,2.27,0,0,0,.08.63,1.77,1.77,0,0,0,.25.54,1.24,1.24,0,0,0,.43.39,1.19,1.19,0,0,0,.61.14,1.15,1.15,0,0,0,.63-.15,1.53,1.53,0,0,0,.44-.4,2.06,2.06,0,0,0,.25-.57,2.74,2.74,0,0,0,.08-.64,2,2,0,0,0-.37-1.29,1.21,1.21,0,0,0-1-.46,1.23,1.23,0,0,0-.65.16,1.3,1.3,0,0,0-.43.41,2,2,0,0,0-.24.58A3,3,0,0,0,32,272.55Z"/><path class="cls-1" d="M37.05,275v-5h1.1v5Z"/><path class="cls-1" d="M40.27,276.53a1.63,1.63,0,0,0,.31.11h.51a.66.66,0,0,0,.2-.06.53.53,0,0,0,.14-.12.34.34,0,0,0,0-.2.31.31,0,0,0-.14-.28.53.53,0,0,0-.3-.09.64.64,0,0,0-.38.1l-.21-.19.54-.72a3.83,3.83,0,0,1-.59-.1,2,2,0,0,1-.69-.32,1.6,1.6,0,0,1-.46-.54,1.7,1.7,0,0,1-.18-.76h1.1a.8.8,0,0,0,.37.67,1.42,1.42,0,0,0,.75.19h.36a2.22,2.22,0,0,0,.37-.09.69.69,0,0,0,.28-.2.42.42,0,0,0,.1-.34.47.47,0,0,0-.15-.35.91.91,0,0,0-.37-.21,2.35,2.35,0,0,0-.52-.14l-.58-.13c-.2,0-.4-.1-.6-.16a2,2,0,0,1-.51-.26,1.32,1.32,0,0,1-.36-.42,1.37,1.37,0,0,1-.13-.63,1.11,1.11,0,0,1,.2-.68,1.32,1.32,0,0,1,.5-.44,2,2,0,0,1,.67-.24,4.17,4.17,0,0,1,.71-.07,3,3,0,0,1,.73.09,1.88,1.88,0,0,1,.64.26,1.54,1.54,0,0,1,.47.48,1.72,1.72,0,0,1,.24.7h-1.1a.68.68,0,0,0-.36-.52,1.46,1.46,0,0,0-.65-.14h-.27a1.09,1.09,0,0,0-.3.07.63.63,0,0,0-.24.16.35.35,0,0,0-.09.26.42.42,0,0,0,.13.33,1.36,1.36,0,0,0,.37.21,3.18,3.18,0,0,0,.51.13l.6.13a5.69,5.69,0,0,1,.59.16,2,2,0,0,1,.51.26,1.23,1.23,0,0,1,.51,1,1.34,1.34,0,0,1-.2.75,1.41,1.41,0,0,1-.53.5,2.29,2.29,0,0,1-.71.28,4.2,4.2,0,0,1-.62.08l-.34.44h.61a.91.91,0,0,1,.26.13.71.71,0,0,1,.19.23.72.72,0,0,1,.08.32.84.84,0,0,1-.11.41.87.87,0,0,1-.27.27,2.39,2.39,0,0,1-.37.15h-.94a1.66,1.66,0,0,1-.47-.17Z"/><path class="cls-1" d="M44.37,275v-5h1.09v5Z"/><path class="cls-1" d="M46.66,270h1v.73h0a1.78,1.78,0,0,1,1.55-.89,1.88,1.88,0,0,1,1.29.43,1.62,1.62,0,0,1,.47,1.27V275h-1.1v-3.13a1.31,1.31,0,0,0-.25-.85.89.89,0,0,0-.72-.27,1.09,1.09,0,0,0-.5.1,1,1,0,0,0-.38.28,1.49,1.49,0,0,0-.33.93V275h-1Z"/><path class="cls-1" d="M56.87,275h-1v-.68h0a1.25,1.25,0,0,1-.64.62,2.14,2.14,0,0,1-.9.19,2.46,2.46,0,0,1-1-.21,1.84,1.84,0,0,1-.73-.56,2.39,2.39,0,0,1-.43-.84,3.41,3.41,0,0,1-.15-1,3.27,3.27,0,0,1,.18-1.16,2.58,2.58,0,0,1,.49-.81,1.81,1.81,0,0,1,.69-.47,2.22,2.22,0,0,1,.8-.15,2.42,2.42,0,0,1,.47.05,1.88,1.88,0,0,1,.46.14,1.52,1.52,0,0,1,.41.24,1.3,1.3,0,0,1,.31.35h0v-2.54h1.1ZM53,272.55a2.72,2.72,0,0,0,.08.63,1.89,1.89,0,0,0,.25.54,1.24,1.24,0,0,0,.43.39,1.2,1.2,0,0,0,.62.14,1.21,1.21,0,0,0,1.06-.55,1.8,1.8,0,0,0,.25-.57,2.74,2.74,0,0,0,.08-.64,2,2,0,0,0-.37-1.29,1.18,1.18,0,0,0-1-.46,1.14,1.14,0,0,0-.65.16,1.24,1.24,0,0,0-.44.41,2,2,0,0,0-.24.58A3,3,0,0,0,53,272.55Z"/><path class="cls-1" d="M62.23,273.88a.49.49,0,0,0,.06.29.22.22,0,0,0,.2.08h.27V275h-.69a1.08,1.08,0,0,1-.56-.13.68.68,0,0,1-.29-.48,1.91,1.91,0,0,1-.8.47,3.6,3.6,0,0,1-.92.14,2.37,2.37,0,0,1-.65-.09,1.82,1.82,0,0,1-.54-.27,1.36,1.36,0,0,1-.38-.45,1.57,1.57,0,0,1-.14-.64,1.5,1.5,0,0,1,.17-.75,1.24,1.24,0,0,1,.45-.46,2,2,0,0,1,.61-.23,5.5,5.5,0,0,1,.69-.11,3.72,3.72,0,0,1,.57-.08,3.55,3.55,0,0,0,.47-.09.62.62,0,0,0,.33-.17.5.5,0,0,0,.12-.37.52.52,0,0,0-.1-.34.72.72,0,0,0-.25-.21,1.26,1.26,0,0,0-.33-.1h-.35a1.35,1.35,0,0,0-.76.19.76.76,0,0,0-.34.6H58a1.61,1.61,0,0,1,.23-.8,1.55,1.55,0,0,1,.51-.51,2.27,2.27,0,0,1,.71-.27,4.45,4.45,0,0,1,.81-.08,3.53,3.53,0,0,1,.72.08,2.08,2.08,0,0,1,.64.25,1.52,1.52,0,0,1,.46.45,1.2,1.2,0,0,1,.17.67Zm-1.1-1.39a1.2,1.2,0,0,1-.61.2,4.42,4.42,0,0,0-.73.1l-.34.08a1.14,1.14,0,0,0-.29.15.68.68,0,0,0-.2.24.89.89,0,0,0-.07.36.51.51,0,0,0,.11.31.67.67,0,0,0,.25.19.91.91,0,0,0,.33.1h.72a1.78,1.78,0,0,0,.4-.17,1,1,0,0,0,.31-.29.86.86,0,0,0,.12-.44Z"/><path class="cls-1" d="M65.6,270h1.19l1.27,3.82h0L69.28,270h1.13l-1.78,5H67.41Z"/><path class="cls-1" d="M71.94,272.78a1.77,1.77,0,0,0,.09.56,1.4,1.4,0,0,0,.24.47,1.1,1.1,0,0,0,.42.32,1.33,1.33,0,0,0,.59.12,1.44,1.44,0,0,0,.78-.2,1.36,1.36,0,0,0,.44-.62h1a2.08,2.08,0,0,1-.3.72,2,2,0,0,1-.51.53A2.1,2.1,0,0,1,74,275a2.94,2.94,0,0,1-.78.11,2.65,2.65,0,0,1-1-.19A2.16,2.16,0,0,1,71,273.56a3.17,3.17,0,0,1-.16-1.06,2.63,2.63,0,0,1,.17-1,2.51,2.51,0,0,1,.48-.84,2.33,2.33,0,0,1,.75-.57,2.15,2.15,0,0,1,1-.22,2.3,2.3,0,0,1,1.06.25,2.2,2.2,0,0,1,.77.65,2.44,2.44,0,0,1,.45.93,2.81,2.81,0,0,1,.07,1.08Zm2.56-.72a1.45,1.45,0,0,0-.11-.5,1.27,1.27,0,0,0-.25-.42,1.33,1.33,0,0,0-.38-.29,1.26,1.26,0,0,0-.51-.11,1.3,1.3,0,0,0-.52.1,1.42,1.42,0,0,0-.41.28,1.68,1.68,0,0,0-.27.42,1.86,1.86,0,0,0-.11.52Z"/><path class="cls-1" d="M83.28,273.88a.49.49,0,0,0,.06.29.22.22,0,0,0,.2.08h.27V275h-.69a1.1,1.1,0,0,1-.56-.13.68.68,0,0,1-.29-.48,1.91,1.91,0,0,1-.8.47,3.21,3.21,0,0,1-.92.14,2.3,2.3,0,0,1-.64-.09,1.76,1.76,0,0,1-.55-.27,1.24,1.24,0,0,1-.37-.45,1.3,1.3,0,0,1-.14-.64,1.32,1.32,0,0,1,.17-.75,1.22,1.22,0,0,1,.44-.46,2,2,0,0,1,.61-.23,5.5,5.5,0,0,1,.69-.11,3.72,3.72,0,0,1,.57-.08l.48-.09a.76.76,0,0,0,.32-.17.5.5,0,0,0,.12-.37.52.52,0,0,0-.1-.34.64.64,0,0,0-.25-.21,1.26,1.26,0,0,0-.33-.1h-.35a1.35,1.35,0,0,0-.76.19.75.75,0,0,0-.33.6H79a1.72,1.72,0,0,1,.23-.8,1.58,1.58,0,0,1,.52-.51,1.93,1.93,0,0,1,.7-.27,4.45,4.45,0,0,1,.81-.08,3.53,3.53,0,0,1,.72.08,2.08,2.08,0,0,1,.64.25,1.41,1.41,0,0,1,.46.45,1.2,1.2,0,0,1,.17.67Zm-1.09-1.39a1.37,1.37,0,0,1-.62.2,4.57,4.57,0,0,0-.73.1l-.34.08a1.59,1.59,0,0,0-.29.15.57.57,0,0,0-.19.24.86.86,0,0,0-.08.36.51.51,0,0,0,.11.31.79.79,0,0,0,.25.19.91.91,0,0,0,.33.1h.72a1.78,1.78,0,0,0,.4-.17,1,1,0,0,0,.31-.29.76.76,0,0,0,.13-.44Z"/><path class="cls-1" d="M85.3,273.42a.82.82,0,0,0,.36.67,1.43,1.43,0,0,0,.76.19,2,2,0,0,0,.35,0,2.22,2.22,0,0,0,.37-.09.72.72,0,0,0,.29-.2.47.47,0,0,0,.1-.34.56.56,0,0,0-.15-.35,1,1,0,0,0-.38-.21,2.27,2.27,0,0,0-.51-.14l-.59-.13a5.69,5.69,0,0,1-.59-.16,2,2,0,0,1-.51-.26,1.32,1.32,0,0,1-.36-.42,1.26,1.26,0,0,1-.14-.63,1.11,1.11,0,0,1,.2-.68,1.52,1.52,0,0,1,.5-.44,2,2,0,0,1,.68-.24,4.15,4.15,0,0,1,.7-.07,3.06,3.06,0,0,1,.74.09,2.1,2.1,0,0,1,.64.26,1.54,1.54,0,0,1,.47.48,1.57,1.57,0,0,1,.23.7H87.32a.68.68,0,0,0-.36-.52,1.46,1.46,0,0,0-.65-.14H86a1.63,1.63,0,0,0-.3.07.53.53,0,0,0-.23.16.32.32,0,0,0-.1.26.47.47,0,0,0,.14.33,1.36,1.36,0,0,0,.37.21,3.18,3.18,0,0,0,.51.13l.6.13a2.16,2.16,0,0,1,.59.16,2,2,0,0,1,.51.26,1.35,1.35,0,0,1,.37.42,1.19,1.19,0,0,1,.14.61,1.24,1.24,0,0,1-.21.75,1.46,1.46,0,0,1-.52.5,2.12,2.12,0,0,1-.72.28,3.46,3.46,0,0,1-.78.09,3.19,3.19,0,0,1-.87-.11,2,2,0,0,1-.69-.32,1.42,1.42,0,0,1-.46-.54,1.7,1.7,0,0,1-.18-.76Z"/><path class="cls-1" d="M89.49,268.11h1.1V275h-1.1Z"/><path class="cls-1" d="M91.81,275v-5h1.1v5Z"/><path class="cls-1" d="M94.1,270h1v.73h0a1.87,1.87,0,0,1,.66-.65,1.75,1.75,0,0,1,.89-.24,1.84,1.84,0,0,1,1.29.43,1.59,1.59,0,0,1,.47,1.27V275h-1v-3.13a1.44,1.44,0,0,0-.25-.85.94.94,0,0,0-.73-.27,1.24,1.24,0,0,0-.5.1,1.13,1.13,0,0,0-.37.28,1.49,1.49,0,0,0-.33.93V275H94.1Z"/><path class="cls-1" d="M103.8,273.88a.48.48,0,0,0,0,.29.24.24,0,0,0,.21.08h.27V275h-.7a1.06,1.06,0,0,1-.55-.13.68.68,0,0,1-.29-.48,2,2,0,0,1-.81.47,3.21,3.21,0,0,1-.92.14,2.3,2.3,0,0,1-.64-.09,1.52,1.52,0,0,1-.54-.27,1.27,1.27,0,0,1-.38-.45,1.57,1.57,0,0,1-.14-.64,1.5,1.5,0,0,1,.17-.75,1.14,1.14,0,0,1,.52-.4,1.93,1.93,0,0,1,.62-.23,5.5,5.5,0,0,1,.69-.11,3.43,3.43,0,0,1,.56-.08l.48-.09a.62.62,0,0,0,.33-.17.5.5,0,0,0,.12-.37.59.59,0,0,0-.1-.34.72.72,0,0,0-.25-.21,1,1,0,0,0-.34-.1h-.34a1.35,1.35,0,0,0-.76.19.76.76,0,0,0-.34.6h-1.1a1.72,1.72,0,0,1,.23-.8,1.58,1.58,0,0,1,.52-.51,1.87,1.87,0,0,1,.71-.27,4.26,4.26,0,0,1,.8-.08,3.55,3.55,0,0,1,.73.08,2.18,2.18,0,0,1,.64.25,1.38,1.38,0,0,1,.45.45,1.13,1.13,0,0,1,.18.67Zm-1.1-1.39a1.26,1.26,0,0,1-.62.2,4.73,4.73,0,0,0-.73.1l-.33.08a1.14,1.14,0,0,0-.29.15.52.52,0,0,0-.2.24.89.89,0,0,0-.07.36.5.5,0,0,0,.1.31.7.7,0,0,0,.26.19.92.92,0,0,0,.32.1h.72a1.42,1.42,0,0,0,.4-.17.86.86,0,0,0,.31-.29.69.69,0,0,0,.13-.44Z"/><path class="cls-1" d="M111.83,273.88a.48.48,0,0,0,0,.29.22.22,0,0,0,.2.08h.27V275h-.69a1.1,1.1,0,0,1-.56-.13.72.72,0,0,1-.29-.48,1.91,1.91,0,0,1-.8.47,3.21,3.21,0,0,1-.92.14,2.3,2.3,0,0,1-.64-.09,1.76,1.76,0,0,1-.55-.27,1.46,1.46,0,0,1-.37-.45,1.3,1.3,0,0,1-.14-.64,1.4,1.4,0,0,1,.17-.75,1.28,1.28,0,0,1,.49-.4,1.93,1.93,0,0,1,.62-.23,5.07,5.07,0,0,1,.68-.11,3.72,3.72,0,0,1,.57-.08l.48-.09a.59.59,0,0,0,.32-.17.5.5,0,0,0,.12-.37.52.52,0,0,0-.1-.34.64.64,0,0,0-.25-.21,1.26,1.26,0,0,0-.33-.1h-.34a1.38,1.38,0,0,0-.77.19.77.77,0,0,0-.33.6h-1.1a1.72,1.72,0,0,1,.23-.8,1.58,1.58,0,0,1,.52-.51,1.93,1.93,0,0,1,.7-.27,4.45,4.45,0,0,1,.81-.08,3.53,3.53,0,0,1,.72.08,2.14,2.14,0,0,1,.65.25,1.61,1.61,0,0,1,.45.45,1.13,1.13,0,0,1,.18.67Zm-1.1-1.39a1.26,1.26,0,0,1-.62.2,4.57,4.57,0,0,0-.73.1l-.34.08a1.59,1.59,0,0,0-.29.15.63.63,0,0,0-.19.24.86.86,0,0,0-.08.36.51.51,0,0,0,.11.31.7.7,0,0,0,.26.19.92.92,0,0,0,.32.1h.72a1.78,1.78,0,0,0,.4-.17.86.86,0,0,0,.31-.29.69.69,0,0,0,.13-.44Z"/><path class="cls-1" d="M112.46,270h1.2l1.3,3.71h0l1.26-3.71h1.15l-1.94,5.25c-.09.22-.17.43-.26.64a2.26,2.26,0,0,1-.32.54,1.26,1.26,0,0,1-.47.38,1.58,1.58,0,0,1-.71.14,4.87,4.87,0,0,1-.76-.06V276h.52a.86.86,0,0,0,.32,0,.77.77,0,0,0,.21-.14,1.64,1.64,0,0,0,.14-.22,1.68,1.68,0,0,1,.1-.29l.13-.38Z"/><path class="cls-1" d="M118,268.11h1.1V272l2-2h1.35l-1.9,1.83,2.08,3.15H121.3l-1.52-2.42-.66.63V275H118Z"/><path class="cls-1" d="M123.2,275v-5h1.1v5Z"/><path class="cls-1" d="M125.49,270h1v1h0a1.18,1.18,0,0,1,.19-.39,1.61,1.61,0,0,1,.34-.35,1.52,1.52,0,0,1,.93-.36h.41V271h-.47a1.4,1.4,0,0,0-.53.11,1.34,1.34,0,0,0-.42.33,1.57,1.57,0,0,0-.29.54,2.27,2.27,0,0,0-.11.73v2.37h-1.1Z"/><path class="cls-1" d="M128.91,275v-5H130v5Z"/><path class="cls-1" d="M133.88,270h1v1h0a1,1,0,0,1,.19-.39,1.56,1.56,0,0,1,.33-.35,1.5,1.5,0,0,1,.44-.26,1.38,1.38,0,0,1,.49-.1h.41V271h-.47a1.31,1.31,0,0,0-.52.11,1.27,1.27,0,0,0-.43.33,1.57,1.57,0,0,0-.29.54,2.23,2.23,0,0,0-.11.73v2.37h-1.09Z"/><path class="cls-1" d="M138,272.78a2.1,2.1,0,0,0,.08.56,1.42,1.42,0,0,0,.25.47,1.07,1.07,0,0,0,.41.32,1.53,1.53,0,0,0,.6.12,1.39,1.39,0,0,0,.77-.2,1.25,1.25,0,0,0,.44-.62h1a2.08,2.08,0,0,1-.3.72,2.18,2.18,0,0,1-1.18.86,2.87,2.87,0,0,1-.77.11,2.65,2.65,0,0,1-1-.19,2.29,2.29,0,0,1-.77-.54,2.35,2.35,0,0,1-.47-.83,3.45,3.45,0,0,1-.16-1.06,3.09,3.09,0,0,1,.17-1,2.51,2.51,0,0,1,.48-.84,2.24,2.24,0,0,1,.76-.57,2.15,2.15,0,0,1,1-.22,2.23,2.23,0,0,1,1.05.25,2.44,2.44,0,0,1,.78.65,2.68,2.68,0,0,1,.45.93,3,3,0,0,1,.07,1.08Zm2.56-.72a1.72,1.72,0,0,0-.11-.5,1.27,1.27,0,0,0-.25-.42,1.19,1.19,0,0,0-.89-.4,1.39,1.39,0,0,0-.53.1,1.26,1.26,0,0,0-.4.28,1.68,1.68,0,0,0-.27.42,1.31,1.31,0,0,0-.11.52Z"/><path class="cls-1" d="M142.45,270h1v.73h0a1.87,1.87,0,0,1,.66-.65,1.75,1.75,0,0,1,.89-.24,1.84,1.84,0,0,1,1.29.43,1.59,1.59,0,0,1,.48,1.27V275h-1.1v-3.13a1.31,1.31,0,0,0-.25-.85.92.92,0,0,0-.72-.27,1.09,1.09,0,0,0-.5.1,1,1,0,0,0-.38.28,1.49,1.49,0,0,0-.33.93V275H142.4Z"/><path class="cls-1" d="M148,268.11h1.1V272l2-2h1.35l-1.91,1.83,2.09,3.15h-1.34l-1.52-2.42-.65.63V275H148Z"/><path class="cls-1" d="M153.23,273.69h1.33V275a1.47,1.47,0,0,1-.36,1,1.67,1.67,0,0,1-.94.52v-.59a.72.72,0,0,0,.48-.35,1,1,0,0,0,.15-.58h-.66Z"/><path class="cls-1" d="M163.18,275h-1v-.68h0a1.25,1.25,0,0,1-.64.62,2.14,2.14,0,0,1-.9.19,2.46,2.46,0,0,1-1-.21,2,2,0,0,1-.72-.56,2.39,2.39,0,0,1-.43-.84,3.41,3.41,0,0,1-.15-1,3.27,3.27,0,0,1,.18-1.16,2.58,2.58,0,0,1,.49-.81,1.81,1.81,0,0,1,.69-.47,2.22,2.22,0,0,1,.8-.15,2.42,2.42,0,0,1,.47.05,1.88,1.88,0,0,1,.46.14,1.52,1.52,0,0,1,.41.24,1.3,1.3,0,0,1,.31.35h0v-2.54h1.1Zm-3.83-2.44a2.72,2.72,0,0,0,.08.63,1.77,1.77,0,0,0,.25.54,1.24,1.24,0,0,0,.43.39,1.19,1.19,0,0,0,.61.14,1.31,1.31,0,0,0,.64-.15,1.37,1.37,0,0,0,.43-.4,2.06,2.06,0,0,0,.25-.57,2.74,2.74,0,0,0,.08-.64,2,2,0,0,0-.37-1.29,1.21,1.21,0,0,0-1-.46,1.23,1.23,0,0,0-.65.16,1.3,1.3,0,0,0-.43.41,2,2,0,0,0-.24.58,3,3,0,0,0-.08.66Z"/><path class="cls-1" d="M168.74,275h-1.07v-.7h0a1.71,1.71,0,0,1-1.42.83,1.82,1.82,0,0,1-1.42-.49,2.14,2.14,0,0,1-.44-1.46V270h1.1v3.05a1.32,1.32,0,0,0,.25.92.91.91,0,0,0,.7.27,1.42,1.42,0,0,0,.58-.1,1,1,0,0,0,.58-.71,2.5,2.5,0,0,0,.07-.54V270h1.09Zm-3.57-5.8v-1h1.1v1Zm2.75-1v1h-1.09v-1Z"/><path class="cls-1" d="M169.72,270h4.05v.77l-2.85,3.34h3V275h-4.38v-.77l2.76-3.34h-2.57Z"/><path class="cls-1" d="M175.57,272.78a2.1,2.1,0,0,0,.08.56,1.26,1.26,0,0,0,.25.47,1.07,1.07,0,0,0,.41.32,1.53,1.53,0,0,0,.6.12,1.39,1.39,0,0,0,.77-.2,1.25,1.25,0,0,0,.44-.62h1a2.08,2.08,0,0,1-.3.72,2.18,2.18,0,0,1-1.18.86,2.87,2.87,0,0,1-.77.11,2.65,2.65,0,0,1-1-.19,2.19,2.19,0,0,1-.77-.54,2.35,2.35,0,0,1-.47-.83,3.17,3.17,0,0,1-.16-1.06,3.09,3.09,0,0,1,.17-1,2.51,2.51,0,0,1,.48-.84,2.24,2.24,0,0,1,.76-.57,2.15,2.15,0,0,1,1-.22,2.23,2.23,0,0,1,1.05.25,2.44,2.44,0,0,1,.78.65,2.49,2.49,0,0,1,.44.93,2.81,2.81,0,0,1,.08,1.08Zm2.56-.72a1.72,1.72,0,0,0-.11-.5,1.38,1.38,0,0,0-.25-.42,1.19,1.19,0,0,0-.89-.4,1.22,1.22,0,0,0-.53.1,1.26,1.26,0,0,0-.4.28,1.68,1.68,0,0,0-.27.42,1.31,1.31,0,0,0-.11.52Z"/><path class="cls-1" d="M180.06,270h1v.73h0a1.87,1.87,0,0,1,.66-.65,1.75,1.75,0,0,1,.89-.24,1.84,1.84,0,0,1,1.29.43,1.59,1.59,0,0,1,.47,1.27V275h-1.09v-3.13A1.44,1.44,0,0,0,183,271a.94.94,0,0,0-.73-.27,1.24,1.24,0,0,0-.5.1,1.13,1.13,0,0,0-.37.28,1.1,1.1,0,0,0-.24.42,1.48,1.48,0,0,0-.09.51V275H180Z"/><path class="cls-1" d="M187.77,270H189l1.26,3.82h0l1.21-3.82h1.14l-1.78,5h-1.24Z"/><path class="cls-1" d="M194.12,272.78a1.77,1.77,0,0,0,.08.56,1.26,1.26,0,0,0,.25.47,1.07,1.07,0,0,0,.41.32,1.53,1.53,0,0,0,.6.12,1.39,1.39,0,0,0,.77-.2,1.25,1.25,0,0,0,.44-.62h1a2.08,2.08,0,0,1-.3.72,2.18,2.18,0,0,1-1.18.86,2.87,2.87,0,0,1-.77.11,2.65,2.65,0,0,1-1-.19,2.19,2.19,0,0,1-.77-.54,2.35,2.35,0,0,1-.47-.83,3.17,3.17,0,0,1-.16-1.06,3.09,3.09,0,0,1,.17-1,2.51,2.51,0,0,1,.48-.84,2.24,2.24,0,0,1,.76-.57,2.15,2.15,0,0,1,1-.22,2.18,2.18,0,0,1,1,.25,2.44,2.44,0,0,1,.78.65,2.49,2.49,0,0,1,.44.93,2.81,2.81,0,0,1,.08,1.08Zm2.56-.72a1.72,1.72,0,0,0-.11-.5,1.38,1.38,0,0,0-.25-.42,1.19,1.19,0,0,0-.89-.4,1.22,1.22,0,0,0-.53.1,1.12,1.12,0,0,0-.4.28,1.17,1.17,0,0,0-.27.42,1.31,1.31,0,0,0-.11.52Z"/><path class="cls-1" d="M201.32,268.11h1.09v2.54h0a1.43,1.43,0,0,1,.28-.32,1.78,1.78,0,0,1,.36-.25,1.5,1.5,0,0,1,.42-.15,1.54,1.54,0,0,1,.43-.06,2.3,2.3,0,0,1,1,.21,2.13,2.13,0,0,1,.73.57,2.39,2.39,0,0,1,.43.84,3.37,3.37,0,0,1,.15,1,3.76,3.76,0,0,1-.13,1,2.6,2.6,0,0,1-.4.84,2,2,0,0,1-1.62.79h-.51a2.85,2.85,0,0,1-.48-.13,1.79,1.79,0,0,1-.42-.25,1.14,1.14,0,0,1-.31-.41h0V275h-1Zm3.83,4.39a2.37,2.37,0,0,0-.09-.65,1.73,1.73,0,0,0-.26-.57,1.34,1.34,0,0,0-.43-.39,1.14,1.14,0,0,0-.6-.15,1.21,1.21,0,0,0-1,.48,2.09,2.09,0,0,0-.35,1.28,2.74,2.74,0,0,0,.09.7,1.44,1.44,0,0,0,.71.92,1.34,1.34,0,0,0,.59.13,1.31,1.31,0,0,0,.64-.15,1.49,1.49,0,0,0,.43-.4,1.64,1.64,0,0,0,.24-.56,3.43,3.43,0,0,0,0-.64Z"/><path class="cls-1" d="M211.54,275h-1.08v-.7h0a1.51,1.51,0,0,1-.6.6,1.53,1.53,0,0,1-.81.23,1.82,1.82,0,0,1-1.42-.49,2.14,2.14,0,0,1-.44-1.46V270h1.1v3.05a1.32,1.32,0,0,0,.25.92.88.88,0,0,0,.7.27,1.42,1.42,0,0,0,.58-.1,1.09,1.09,0,0,0,.58-.71,2.48,2.48,0,0,0,.06-.54V270h1.1Zm-3.57-5.8v-1h1.1v1Zm2.75-1v1h-1.1v-1Z"/><path class="cls-1" d="M212.15,270h1.2l1.3,3.71h0l1.26-3.71h1.15l-1.94,5.25c-.09.22-.18.43-.26.64a2.48,2.48,0,0,1-.32.54,1.43,1.43,0,0,1-.47.38,1.58,1.58,0,0,1-.71.14,4.87,4.87,0,0,1-.76-.06V276h.52a.86.86,0,0,0,.32,0,.56.56,0,0,0,.2-.14.74.74,0,0,0,.14-.22,1.45,1.45,0,0,0,.11-.29L214,275Z"/><path class="cls-1" d="M222.06,275H221v-.7h0a1.51,1.51,0,0,1-.6.6,1.53,1.53,0,0,1-.81.23,1.82,1.82,0,0,1-1.42-.49,2.14,2.14,0,0,1-.44-1.46V270h1.1v3.05a1.32,1.32,0,0,0,.25.92.91.91,0,0,0,.7.27,1.42,1.42,0,0,0,.58-.1,1,1,0,0,0,.58-.71,2.48,2.48,0,0,0,.06-.54V270h1.1Zm-3.57-5.8v-1h1.1v1Zm2.75-1v1h-1.09v-1Z"/><path class="cls-1" d="M223.25,268.11h1.09V272l2-2h1.34l-1.9,1.83,2.09,3.15h-1.34L225,272.57l-.66.63V275h-1.09Z"/><path class="cls-1" d="M228.41,268.11h1.1V275h-1.1Z"/><path class="cls-1" d="M235.08,275H234v-.7h0a1.69,1.69,0,0,1-1.42.83,1.82,1.82,0,0,1-1.42-.49,2.14,2.14,0,0,1-.43-1.46V270h1.09v3.05a1.37,1.37,0,0,0,.25.92.91.91,0,0,0,.71.27,1.37,1.37,0,0,0,.57-.1,1,1,0,0,0,.38-.29,1.19,1.19,0,0,0,.21-.42,2.48,2.48,0,0,0,.06-.54V270h1.1Zm-3.58-5.8v-1h1.1v1Zm2.76-1v1h-1.1v-1Z"/><path class="cls-1" d="M236.26,268.11h1.1V272l2-2h1.35l-1.91,1.83,2.09,3.15h-1.34L238,272.57l-.65.63V275h-1.1Z"/><path class="cls-1" d="M241.43,268.11h1.1V275h-1.1Z"/><path class="cls-1" d="M244.58,272.78a1.77,1.77,0,0,0,.08.56,1.4,1.4,0,0,0,.24.47,1.1,1.1,0,0,0,.42.32,1.33,1.33,0,0,0,.59.12,1.42,1.42,0,0,0,.78-.2,1.36,1.36,0,0,0,.44-.62h1a2.08,2.08,0,0,1-.3.72,2.18,2.18,0,0,1-1.18.86,2.94,2.94,0,0,1-.78.11,2.65,2.65,0,0,1-1-.19,2.19,2.19,0,0,1-.77-.54,2.08,2.08,0,0,1-.47-.83,3.17,3.17,0,0,1-.16-1.06,3.09,3.09,0,0,1,.17-1,2.51,2.51,0,0,1,.48-.84,2.33,2.33,0,0,1,.75-.57,2.15,2.15,0,0,1,1-.22,2.23,2.23,0,0,1,1,.25,2.2,2.2,0,0,1,.77.65,2.44,2.44,0,0,1,.45.93,2.81,2.81,0,0,1,.07,1.08Zm2.56-.72a2.13,2.13,0,0,0-.11-.5,1.79,1.79,0,0,0-.25-.42,1.19,1.19,0,0,0-.89-.4,1.22,1.22,0,0,0-.53.1,1.12,1.12,0,0,0-.4.28,1.17,1.17,0,0,0-.27.42,1.31,1.31,0,0,0-.11.52Z"/><path class="cls-1" d="M249.07,270h1v1h0a1,1,0,0,1,.19-.39,1.41,1.41,0,0,1,.34-.35A1.45,1.45,0,0,1,251,270a1.38,1.38,0,0,1,.49-.1h.42V271h-.47a1.4,1.4,0,0,0-.53.11,1.37,1.37,0,0,0-.43.33,1.55,1.55,0,0,0-.28.54,2,2,0,0,0-.11.73v2.37H249Z"/><path class="cls-1" d="M257,275h-1v-.68h0a1.31,1.31,0,0,1-.65.62,2.09,2.09,0,0,1-.89.19,2.46,2.46,0,0,1-1-.21,2.1,2.1,0,0,1-.73-.56,2.68,2.68,0,0,1-.43-.84,3.77,3.77,0,0,1-.14-1,3.27,3.27,0,0,1,.18-1.16,2.29,2.29,0,0,1,.48-.81,1.92,1.92,0,0,1,.7-.47,2.13,2.13,0,0,1,.79-.15,2.42,2.42,0,0,1,.47.05,2,2,0,0,1,.47.14,1.63,1.63,0,0,1,.4.24,1.78,1.78,0,0,1,.32.35h0v-2.54h1Zm-3.83-2.44a2.72,2.72,0,0,0,.08.63,1.59,1.59,0,0,0,.26.54,1.31,1.31,0,0,0,.42.39,1.2,1.2,0,0,0,.62.14,1.19,1.19,0,0,0,1.06-.55,1.71,1.71,0,0,0,.25-.57,2.3,2.3,0,0,0,.09-.64,2,2,0,0,0-.38-1.29,1.34,1.34,0,0,0-1.65-.3,1.3,1.3,0,0,0-.43.41,1.67,1.67,0,0,0-.25.58,3.76,3.76,0,0,0-.1.66Z"/><path class="cls-1" d="M259,272.78a1.77,1.77,0,0,0,.09.56,1.4,1.4,0,0,0,.24.47,1.1,1.1,0,0,0,.42.32,1.33,1.33,0,0,0,.59.12,1.44,1.44,0,0,0,.78-.2,1.36,1.36,0,0,0,.44-.62h1a2.08,2.08,0,0,1-.3.72,2,2,0,0,1-.51.53,2.1,2.1,0,0,1-.67.33,2.94,2.94,0,0,1-.78.11,2.65,2.65,0,0,1-1-.19,2.18,2.18,0,0,1-1.23-1.37,3.17,3.17,0,0,1-.16-1.06,2.63,2.63,0,0,1,.17-1,2.51,2.51,0,0,1,.48-.84,2.33,2.33,0,0,1,.75-.57,2.15,2.15,0,0,1,1-.22,2.3,2.3,0,0,1,1.06.25,2.2,2.2,0,0,1,.77.65,2.44,2.44,0,0,1,.45.93,2.81,2.81,0,0,1,.07,1.08Zm2.56-.72a1.45,1.45,0,0,0-.11-.5,1.27,1.27,0,0,0-.25-.42,1.33,1.33,0,0,0-.38-.29,1.26,1.26,0,0,0-.51-.11,1.3,1.3,0,0,0-.52.1,1.42,1.42,0,0,0-.41.28,1.68,1.68,0,0,0-.27.42,1.86,1.86,0,0,0-.11.52Z"/><path class="cls-1" d="M266.22,268.11h1.1V272l2-2h1.34l-1.9,1.83,2.09,3.15H269.5l-1.5-2.43-.66.63V275h-1.1Z"/><path class="cls-1" d="M275.74,275h-1.08v-.7h0a1.69,1.69,0,0,1-1.42.83,1.82,1.82,0,0,1-1.42-.49,2.14,2.14,0,0,1-.43-1.46V270h1.09v3.05a1.37,1.37,0,0,0,.25.92.91.91,0,0,0,.71.27,1.4,1.4,0,0,0,.57-.1,1,1,0,0,0,.38-.29,1.19,1.19,0,0,0,.21-.42,2.48,2.48,0,0,0,.06-.54V270h1.1Z"/><path class="cls-1" d="M276.92,268.11H278V275h-1.1Z"/><path class="cls-1" d="M279.24,268.11h1.1V275h-1.1Z"/><path class="cls-1" d="M285.7,273.88a.71.71,0,0,0,.05.29.24.24,0,0,0,.21.08h.27V275h-.69a1,1,0,0,1-.56-.13.68.68,0,0,1-.29-.48,2,2,0,0,1-.81.47,3.21,3.21,0,0,1-.92.14,2.3,2.3,0,0,1-.64-.09,1.52,1.52,0,0,1-.54-.27,1.27,1.27,0,0,1-.38-.45,1.57,1.57,0,0,1-.14-.64,1.5,1.5,0,0,1,.17-.75,1.22,1.22,0,0,1,.44-.46,1.93,1.93,0,0,1,.62-.23,5.5,5.5,0,0,1,.69-.11,3.43,3.43,0,0,1,.56-.08l.48-.09a.62.62,0,0,0,.33-.17.5.5,0,0,0,.12-.37.59.59,0,0,0-.1-.34.72.72,0,0,0-.25-.21,1,1,0,0,0-.34-.1h-.34a1.35,1.35,0,0,0-.76.19.76.76,0,0,0-.34.6h-1.1a1.72,1.72,0,0,1,.23-.8,1.58,1.58,0,0,1,.52-.51,1.87,1.87,0,0,1,.71-.27,4.45,4.45,0,0,1,.81-.08,3.53,3.53,0,0,1,.72.08,2.08,2.08,0,0,1,.64.25,1.52,1.52,0,0,1,.46.45,1.2,1.2,0,0,1,.17.67Zm-1.1-1.39a1.26,1.26,0,0,1-.62.2,4.73,4.73,0,0,0-.73.1l-.33.08a1.14,1.14,0,0,0-.29.15.52.52,0,0,0-.2.24.89.89,0,0,0-.07.36.5.5,0,0,0,.1.31.83.83,0,0,0,.26.19.91.91,0,0,0,.33.1h.71a1.42,1.42,0,0,0,.4-.17.89.89,0,0,0,.32-.29.86.86,0,0,0,.12-.44Z"/><path class="cls-1" d="M286.88,270h1v.73h0a1.87,1.87,0,0,1,.66-.65,1.75,1.75,0,0,1,.89-.24,1.84,1.84,0,0,1,1.29.43,1.59,1.59,0,0,1,.47,1.27V275H290.1v-3.13a1.34,1.34,0,0,0-.26-.85.89.89,0,0,0-.72-.27,1.24,1.24,0,0,0-.5.1,1.13,1.13,0,0,0-.37.28,1.1,1.1,0,0,0-.24.42,1.48,1.48,0,0,0-.09.51V275h-1.1Z"/><path class="cls-1" d="M292.44,275v-5h1.09v5Z"/><path class="cls-1" d="M294.76,268.11h1.09V275h-1.09Z"/><path class="cls-1" d="M301.21,273.88a.49.49,0,0,0,.06.29.22.22,0,0,0,.2.08h.27V275h-.69a1.08,1.08,0,0,1-.56-.13.67.67,0,0,1-.28-.48,2,2,0,0,1-.81.47,3.21,3.21,0,0,1-.92.14,2.3,2.3,0,0,1-.64-.09,1.76,1.76,0,0,1-.55-.27,1.24,1.24,0,0,1-.37-.45,1.3,1.3,0,0,1-.14-.64,1.32,1.32,0,0,1,.17-.75,1.22,1.22,0,0,1,.44-.46,2,2,0,0,1,.61-.23,5.5,5.5,0,0,1,.69-.11,3.72,3.72,0,0,1,.57-.08l.48-.09a.59.59,0,0,0,.32-.17.51.51,0,0,0,.13-.37.6.6,0,0,0-.11-.34.64.64,0,0,0-.25-.21,1.26,1.26,0,0,0-.33-.1h-.34a1.38,1.38,0,0,0-.77.19.77.77,0,0,0-.33.6H297a1.72,1.72,0,0,1,.23-.8,1.58,1.58,0,0,1,.52-.51,1.93,1.93,0,0,1,.7-.27,4.45,4.45,0,0,1,.81-.08,3.55,3.55,0,0,1,.73.08,2,2,0,0,1,.63.25,1.41,1.41,0,0,1,.46.45,1.2,1.2,0,0,1,.17.67Zm-1.09-1.39a1.26,1.26,0,0,1-.62.2,4.57,4.57,0,0,0-.73.1l-.34.08a1.59,1.59,0,0,0-.29.15.63.63,0,0,0-.19.24.89.89,0,0,0-.07.36.5.5,0,0,0,.1.31.7.7,0,0,0,.26.19.92.92,0,0,0,.32.1h.72a1.78,1.78,0,0,0,.4-.17,1,1,0,0,0,.31-.29.69.69,0,0,0,.13-.44Z"/><path class="cls-1" d="M302.4,270h1v.69h0a2.16,2.16,0,0,1,.27-.33,1.18,1.18,0,0,1,.32-.27,2,2,0,0,1,.94-.23,1.77,1.77,0,0,1,.84.21,1.08,1.08,0,0,1,.55.62,2.07,2.07,0,0,1,.65-.6,1.71,1.71,0,0,1,.91-.23,1.78,1.78,0,0,1,1.23.39,1.7,1.7,0,0,1,.44,1.29V275h-1.1v-2.91a5,5,0,0,0,0-.55,1.19,1.19,0,0,0-.11-.42.59.59,0,0,0-.27-.27,1,1,0,0,0-.5-.1.91.91,0,0,0-.81.35,1.61,1.61,0,0,0-.25,1V275h-1.1v-3.2a1.26,1.26,0,0,0-.19-.78.79.79,0,0,0-.69-.27.9.9,0,0,0-.4.09,1.07,1.07,0,0,0-.35.25,1.25,1.25,0,0,0-.24.4,1.71,1.71,0,0,0-.09.55v3h-1.1Z"/><path class="cls-1" d="M314.94,273.88a.49.49,0,0,0,.06.29.22.22,0,0,0,.2.08h.27V275h-.69a1.08,1.08,0,0,1-.56-.13.68.68,0,0,1-.29-.48,1.91,1.91,0,0,1-.8.47,3.6,3.6,0,0,1-.92.14,2.37,2.37,0,0,1-.65-.09,1.82,1.82,0,0,1-.54-.27,1.36,1.36,0,0,1-.38-.45,1.57,1.57,0,0,1-.14-.64,1.5,1.5,0,0,1,.17-.75,1.24,1.24,0,0,1,.45-.46,2,2,0,0,1,.61-.23,5.5,5.5,0,0,1,.69-.11,3.72,3.72,0,0,1,.57-.08,3.55,3.55,0,0,0,.47-.09.62.62,0,0,0,.33-.17.5.5,0,0,0,.12-.37.52.52,0,0,0-.1-.34.72.72,0,0,0-.25-.21,1.26,1.26,0,0,0-.33-.1h-.35a1.35,1.35,0,0,0-.76.19.75.75,0,0,0-.33.6h-1.1a1.61,1.61,0,0,1,.23-.8,1.55,1.55,0,0,1,.51-.51,2.27,2.27,0,0,1,.71-.27,4.45,4.45,0,0,1,.81-.08,3.53,3.53,0,0,1,.72.08,2.08,2.08,0,0,1,.64.25,1.52,1.52,0,0,1,.46.45,1.2,1.2,0,0,1,.17.67Zm-1.1-1.39a1.2,1.2,0,0,1-.61.2,4.42,4.42,0,0,0-.73.1l-.34.08a1.59,1.59,0,0,0-.29.15.68.68,0,0,0-.2.24.89.89,0,0,0-.07.36.51.51,0,0,0,.11.31.67.67,0,0,0,.25.19.91.91,0,0,0,.33.1H313a1.78,1.78,0,0,0,.4-.17,1,1,0,0,0,.31-.29.86.86,0,0,0,.12-.44Z"/><path class="cls-1" d="M316,270h4v.77l-2.85,3.34h3V275h-4.38v-.77l2.75-3.34H316Z"/><path class="cls-1" d="M321,273.69h1.33V275H321Z"/><path class="cls-2" d="M216,46.9h21.34l23.27,56.78H238.74l-3.12-8.34h-19l-2.95,8.34H192.44Zm10.37,19.81-4.89,14h9.7Z"/><path class="cls-2" d="M264.8,103.68V46.9h22.26a66.65,66.65,0,0,1,13.54,1.33A32.18,32.18,0,0,1,312,52.8a23.89,23.89,0,0,1,7.88,8.62q3,5.37,2.95,13.55A27.75,27.75,0,0,1,320,87.88a25.62,25.62,0,0,1-7.55,9A32.69,32.69,0,0,1,301.57,102a48.47,48.47,0,0,1-12.82,1.68ZM284.11,63.1V87.24h3.71q7.1,0,10.88-2.91t3.8-9.56a10.45,10.45,0,0,0-3.8-8.59q-3.79-3.08-10.12-3.08Z"/><path class="cls-2" d="M331.26,46.9H351.5V87.24h19.82v16.44H331.26Z"/><path class="cls-2" d="M487.83,105.13A39.87,39.87,0,0,1,474.72,103a31,31,0,0,1-10.46-6,27.88,27.88,0,0,1-7-9.43,29.45,29.45,0,0,1-2.53-12.35,29.48,29.48,0,0,1,2.53-12.35,28.35,28.35,0,0,1,6.92-9.46,30.92,30.92,0,0,1,10.29-6.06,37.2,37.2,0,0,1,12.65-2.12,40.54,40.54,0,0,1,13.28,2.16,27.86,27.86,0,0,1,10.25,5.94L499,66.79a13.22,13.22,0,0,0-10.63-4.57,12.92,12.92,0,0,0-4.77.92,12.48,12.48,0,0,0-4.09,2.65,13.55,13.55,0,0,0-2.86,4.13,12.82,12.82,0,0,0-1.1,5.37A14.18,14.18,0,0,0,478.77,85q3.24,3.72,10.41,3.73a17,17,0,0,0,2.62-.21,6.6,6.6,0,0,0,2.11-.6V83.55h-9.62v-15H511.7v31a31.91,31.91,0,0,1-4.85,2.21,50.23,50.23,0,0,1-5.82,1.72,64.39,64.39,0,0,1-6.45,1.16A51,51,0,0,1,487.83,105.13Z"/><path class="cls-2" d="M558.17,82.11H541.81v21.57H521.74V46.9h20V66.15h16.36V46.9h20.15v56.78H558.17Z"/><path class="cls-2" d="M619.15,103.68H599.07V63H584.4V46.9h49.42V63H619.15Z"/><path class="cls-3" d="M389.79,95.77l12.7-24.15a3.82,3.82,0,0,0-.19-3.89,4.25,4.25,0,0,0-3.57-1.89h-2.65l12.7-24.15a3.8,3.8,0,0,0-.18-3.89A4.23,4.23,0,0,0,405,35.9h-2.65l12.09-23,12.1,23h-2.65a4.26,4.26,0,0,0-3.57,1.9,3.81,3.81,0,0,0-.19,3.88l12.71,24.16h-2.66a4.28,4.28,0,0,0-3.57,1.89,3.83,3.83,0,0,0-.18,3.88l12.7,24.16Zm59.67,1.75L437,73.82h2.66a4.25,4.25,0,0,0,3.57-1.89,3.85,3.85,0,0,0,.18-3.89l-12.7-24.15h2.65A4.23,4.23,0,0,0,436.93,42a3.78,3.78,0,0,0,.18-3.88L418.23,2.2a4.3,4.3,0,0,0-7.51,0L391.83,38.12A3.81,3.81,0,0,0,392,42a4.23,4.23,0,0,0,3.57,1.89h2.65l-12.7,24.16a3.83,3.83,0,0,0,.18,3.88,4.25,4.25,0,0,0,3.57,1.89h2.65L379.24,98a3.81,3.81,0,0,0,.19,3.88,4.23,4.23,0,0,0,3.57,1.89h27.28v8a4.2,4.2,0,0,0,8.39,0v-8H446a4.09,4.09,0,0,0,4.2-4,3.82,3.82,0,0,0-.73-2.24Z"/></g></g></svg>