<svg xmlns="http://www.w3.org/2000/svg" viewBox="0 0 712.36 272.85"><defs><style>.cls-1{fill:#2a6160;}.cls-2{fill:#333;}.cls-3{fill:#fff;}.cls-4{fill:#1d1d1b;}.cls-5{fill:#b2b2b2;}</style></defs><g id="Layer_2" data-name="Layer 2"><g id="Layer_1-2" data-name="Layer 1"><path class="cls-1" d="M701.22,0H128.49a11.15,11.15,0,0,0-11.15,11.14V96.52a11.13,11.13,0,0,0,11.15,11.14H701.22a11.14,11.14,0,0,0,11.14-11.14V11.15A11.14,11.14,0,0,0,701.22,0Zm7,96.51a7,7,0,0,1-7,7h-197V4.14h197a7,7,0,0,1,7,7Z"/><path class="cls-2" d="M517,22.84h25.17c14.69,0,23.58,8.62,23.58,21.3v.17c0,14.35-11.09,21.65-24.9,21.65h-10.3V84.44H517ZM541.27,53.9c6.77,0,10.73-4,10.73-9.32V44.4c0-6.07-4.22-9.33-11-9.33H530.53V53.9Z"/><path class="cls-2" d="M574.45,22.84h28.16c7.83,0,13.81,2.11,17.95,6.25,3.52,3.52,5.28,8.18,5.28,14.08v.17c0,9.95-5.37,16.2-13.2,19.1l15.05,22H611.85l-13.2-19.71H588V84.44H574.45Zm27.28,29.92c6.68,0,10.38-3.43,10.38-8.71v-.18c0-5.89-4-8.8-10.65-8.8H588V52.76Z"/><path class="cls-2" d="M634,53.82v-.18c0-17.51,13.82-31.86,32.83-31.86S699.5,36,699.5,53.46v.18c0,17.51-13.82,31.86-32.83,31.86S634,71.33,634,53.82Zm51.31,0v-.18c0-10.56-7.75-19.36-18.66-19.36s-18.48,8.62-18.48,19.18v.18c0,10.56,7.75,19.36,18.66,19.36S685.33,64.38,685.33,53.82Z"/><path class="cls-3" d="M146.86,22.84h28.6c7.12,0,12.49,1.85,16.1,5.46a14.23,14.23,0,0,1,4.22,10.47v.17a14.23,14.23,0,0,1-8.09,13.29c7.13,2.73,11.53,7,11.53,15.14v.18c0,11.26-9.16,16.89-23.06,16.89h-29.3Zm35.46,18.22c0-4.14-3.17-6.34-8.89-6.34H160.06v13h12.49c6,0,9.77-1.93,9.77-6.51Zm3.43,24.64c0-4.14-3-6.69-10-6.69H160.06V72.56h16.1c6,0,9.59-2.11,9.59-6.69Z"/><path class="cls-3" d="M209.69,22.84h13.55v61.6H209.69Z"/><path class="cls-3" d="M234.59,53.82v-.18c0-17.51,13.82-31.86,32.83-31.86S300.07,36,300.07,53.46v.18c0,17.51-13.82,31.86-32.83,31.86S234.59,71.33,234.59,53.82Zm51.31,0v-.18c0-10.56-7.74-19.36-18.66-19.36s-18.48,8.62-18.48,19.18v.18c0,10.56,7.75,19.36,18.66,19.36S285.9,64.38,285.9,53.82Z"/><path class="cls-3" d="M308.08,53.82v-.18c0-17.51,13.64-31.86,32.3-31.86,11,0,17.86,3,24.2,8.45L356,40.53c-4.66-4-9.06-6.25-16.1-6.25-9.86,0-17.69,8.71-17.69,19.18v.18c0,11.26,7.74,19.54,18.65,19.54a21.45,21.45,0,0,0,12.76-3.7v-8.8H340V49h26.76V75.73a40,40,0,0,1-26.32,9.77C321.28,85.5,308.08,72.12,308.08,53.82Z"/><path class="cls-3" d="M399.6,22.4h12.5l26.4,62H424.33L418.7,70.63H392.65L387,84.44H373.2Zm14.26,36.26-8.18-20-8.19,20Z"/><path class="cls-3" d="M441.58,75.47l8-9.6c5.63,4.58,11.35,7.48,18.39,7.48,5.63,0,8.89-2.2,8.89-5.8v-.18c0-3.43-2.11-5.28-12.41-7.83C452,56.46,444.05,52.85,444.05,40.7v-.17c0-11.18,8.88-18.57,21.56-18.57a35.71,35.71,0,0,1,22.88,7.83l-7,10.21c-5.55-3.78-10.74-6.07-16-6.07s-7.92,2.29-7.92,5.37v.17c0,4.14,2.64,5.28,13.29,8.1,12.5,3.34,19.53,7.74,19.53,18.48v.18c0,12.23-9.32,19.09-22.61,19.09A38.64,38.64,0,0,1,441.58,75.47Z"/><path class="cls-4" d="M136.6,120.93h6.51a5.61,5.61,0,0,1,4,1.35,3.44,3.44,0,0,1,1,2.44v0a3.68,3.68,0,0,1-2.42,3.53c1.81.53,3.27,1.62,3.27,3.69v0c0,2.62-2.2,4.17-5.54,4.17H136.6Zm9.74,4c0-1.5-1.2-2.48-3.39-2.48H138.3v5.26h4.52c2.1,0,3.52-.92,3.52-2.73Zm.85,6.92c0-1.66-1.38-2.62-4.06-2.62H138.3v5.4h5.13c2.34,0,3.76-1,3.76-2.73Z"/><path class="cls-4" d="M152.51,120.93h1.73v15.28h-1.73Z"/><path class="cls-4" d="M158,128.61v0a7.79,7.79,0,1,1,15.58,0v0a7.79,7.79,0,1,1-15.58,0Zm13.79,0v0a6.07,6.07,0,0,0-6-6.31,6,6,0,0,0-6,6.26v0a6.07,6.07,0,0,0,6,6.3A6,6,0,0,0,171.83,128.61Z"/><path class="cls-4" d="M176.59,128.61v0a7.67,7.67,0,0,1,7.66-7.91,8.09,8.09,0,0,1,5.7,2L188.83,124a6.51,6.51,0,0,0-4.65-1.74,6,6,0,0,0-5.8,6.26v0c0,3.64,2.33,6.35,6.05,6.35a7.17,7.17,0,0,0,4.4-1.53v-3.8h-4.65V128h6.31v6.09a9.09,9.09,0,0,1-6.13,2.34A7.49,7.49,0,0,1,176.59,128.61Z"/><path class="cls-4" d="M200,120.82h1.62l7,15.39h-1.86l-1.79-4h-8.31l-1.81,4h-1.77Zm4.26,9.8-3.47-7.8-3.5,7.8Z"/><path class="cls-4" d="M210.31,134l1.07-1.27a7.17,7.17,0,0,0,5.24,2.16c2.08,0,3.41-1.09,3.41-2.59v-.05c0-1.42-.77-2.2-4-2.9-3.51-.76-5.13-1.9-5.13-4.41v0c0-2.38,2.12-4.17,5-4.17a7.94,7.94,0,0,1,5.37,1.88l-1,1.33a6.7,6.7,0,0,0-4.41-1.66c-2,0-3.25,1.07-3.25,2.46v0c0,1.44.76,2.27,4.15,3s5,2,5,4.32v0c0,2.62-2.18,4.32-5.21,4.32A8.82,8.82,0,0,1,210.31,134Z"/><path class="cls-4" d="M231.84,120.93h5.3c4.8,0,8.12,3.29,8.12,7.59v0c0,4.3-3.32,7.64-8.12,7.64h-5.3Zm1.72,1.59v12.09h3.58c3.86,0,6.33-2.59,6.33-6v0a6,6,0,0,0-6.33-6Z"/><path class="cls-4" d="M248.9,120.93h11v1.57h-9.32v5.21H259v1.58h-8.34v5.34h9.43v1.58H248.9Z"/><path class="cls-4" d="M262.53,134l1.07-1.27a7.15,7.15,0,0,0,5.23,2.16c2.08,0,3.41-1.09,3.41-2.59v-.05c0-1.42-.77-2.2-4-2.9-3.52-.76-5.13-1.9-5.13-4.41v0c0-2.38,2.11-4.17,5-4.17a7.94,7.94,0,0,1,5.37,1.88l-1,1.33a6.68,6.68,0,0,0-4.41-1.66c-2,0-3.25,1.07-3.25,2.46v0c0,1.44.77,2.27,4.15,3s5,2,5,4.32v0c0,2.62-2.18,4.32-5.21,4.32A8.78,8.78,0,0,1,262.53,134Z"/><path class="cls-4" d="M277.26,129.81v-8.88H279v8.77c0,3.32,1.73,5.15,4.68,5.15s4.6-1.7,4.6-5v-8.88H290v8.75c0,4.47-2.56,6.77-6.38,6.77S277.26,134.13,277.26,129.81Z"/><path class="cls-4" d="M294.07,120.93h1.72v13.68h8.6v1.6H294.07Z"/><path class="cls-4" d="M307.49,120.93h5.72c3.45,0,5.72,1.83,5.72,4.84v0c0,3.29-2.75,5-6,5h-3.71v5.4h-1.73Zm5.5,8.31c2.53,0,4.19-1.35,4.19-3.36v0c0-2.19-1.64-3.32-4.1-3.32h-3.86v6.72Z"/><path class="cls-4" d="M322.07,120.93h1.73v6.78h8.81v-6.78h1.73v15.28h-1.73v-6.88H323.8v6.88h-1.73Z"/><path class="cls-4" d="M338.42,129.81v-8.88h1.72v8.77c0,3.32,1.73,5.15,4.68,5.15s4.6-1.7,4.6-5v-8.88h1.73v8.75c0,4.47-2.56,6.77-6.38,6.77S338.42,134.13,338.42,129.81Z"/><path class="cls-4" d="M355.23,120.93h6.57a6,6,0,0,1,4.34,1.52,4.12,4.12,0,0,1,1.18,3v0c0,2.53-1.75,4-4.15,4.45l4.7,6.25h-2.12l-4.43-5.94H357v5.94h-1.72Zm6.42,7.79c2.27,0,3.92-1.18,3.92-3.14v0c0-1.9-1.44-3-3.9-3H357v6.2Z"/><path class="cls-4" d="M371.16,120.93h1.73v15.28h-1.73Z"/><path class="cls-4" d="M376.36,134l1.07-1.27a7.15,7.15,0,0,0,5.24,2.16c2.07,0,3.4-1.09,3.4-2.59v-.05c0-1.42-.76-2.2-4-2.9-3.52-.76-5.13-1.9-5.13-4.41v0c0-2.38,2.12-4.17,5-4.17a7.94,7.94,0,0,1,5.37,1.88l-1,1.33a6.66,6.66,0,0,0-4.4-1.66c-2,0-3.26,1.07-3.26,2.46v0c0,1.44.77,2.27,4.15,3s5,2,5,4.32v0c0,2.62-2.19,4.32-5.22,4.32A8.79,8.79,0,0,1,376.36,134Z"/><path class="cls-4" d="M396.66,120.82h1.61l7,15.39h-1.86l-1.79-4h-8.32l-1.81,4h-1.77Zm4.25,9.8-3.47-7.8-3.49,7.8Z"/><path class="cls-4" d="M410.34,122.52h-5.15v-1.59h12v1.59h-5.15v13.69h-1.73Z"/><path class="cls-4" d="M420.51,120.93h1.73v15.28h-1.73Z"/><path class="cls-4" d="M426,128.61v0a7.79,7.79,0,1,1,15.58,0v0a7.79,7.79,0,1,1-15.58,0Zm13.79,0v0a6.07,6.07,0,0,0-6-6.31,6,6,0,0,0-6,6.26v0a6.07,6.07,0,0,0,6,6.3A6,6,0,0,0,439.83,128.61Z"/><path class="cls-4" d="M445.27,120.93h1.61l9.63,12.24V120.93h1.68v15.28h-1.38L447,123.68v12.53h-1.68Z"/><path class="cls-4" d="M469.06,120.93h5.72c3.45,0,5.72,1.83,5.72,4.84v0c0,3.29-2.75,5-6,5h-3.71v5.4h-1.72Zm5.5,8.31c2.53,0,4.19-1.35,4.19-3.36v0c0-2.19-1.64-3.32-4.1-3.32h-3.87v6.72Z"/><path class="cls-4" d="M483.4,129.81v-8.88h1.72v8.77c0,3.32,1.73,5.15,4.68,5.15s4.6-1.7,4.6-5v-8.88h1.73v8.75c0,4.47-2.56,6.77-6.38,6.77S483.4,134.13,483.4,129.81Z"/><path class="cls-4" d="M500.21,120.93H502l5.57,8.33,5.57-8.33h1.74v15.28h-1.72V123.83L507.54,132h-.09l-5.56-8.17v12.36h-1.68Z"/><path class="cls-4" d="M519.15,120.93h5.72c3.45,0,5.72,1.83,5.72,4.84v0c0,3.29-2.75,5-6,5h-3.71v5.4h-1.73Zm5.5,8.31c2.54,0,4.2-1.35,4.2-3.36v0c0-2.19-1.64-3.32-4.11-3.32h-3.86v6.72Z"/><path class="cls-4" d="M539.61,128.61v0a7.71,7.71,0,0,1,7.72-7.91,7.83,7.83,0,0,1,6,2.43l-1.18,1.26a6.63,6.63,0,0,0-4.8-2.09,6,6,0,0,0-5.91,6.26v0a6,6,0,0,0,5.91,6.3,6.6,6.6,0,0,0,4.93-2.2l1.14,1.11a7.94,7.94,0,0,1-6.11,2.69A7.62,7.62,0,0,1,539.61,128.61Z"/><path class="cls-4" d="M555.37,128.61v0a7.79,7.79,0,1,1,15.58,0v0a7.79,7.79,0,1,1-15.58,0Zm13.79,0v0a6.07,6.07,0,0,0-6-6.31,6,6,0,0,0-6,6.26v0a6.07,6.07,0,0,0,6,6.3A6,6,0,0,0,569.16,128.61Z"/><path class="cls-4" d="M574.6,120.93h1.61l9.63,12.24V120.93h1.68v15.28h-1.38l-9.86-12.53v12.53H574.6Z"/><path class="cls-4" d="M595.81,122.52h-5.15v-1.59h12v1.59h-5.15v13.69h-1.73Z"/><path class="cls-4" d="M605.83,120.93h6.57a6,6,0,0,1,4.35,1.52,4.16,4.16,0,0,1,1.17,3v0c0,2.53-1.74,4-4.14,4.45l4.69,6.25h-2.12l-4.43-5.94h-4.36v5.94h-1.73Zm6.42,7.79c2.27,0,3.93-1.18,3.93-3.14v0c0-1.9-1.44-3-3.91-3h-4.71v6.2Z"/><path class="cls-4" d="M620.94,128.61v0a7.79,7.79,0,1,1,15.58,0v0a7.79,7.79,0,1,1-15.58,0Zm13.79,0v0a6.07,6.07,0,0,0-6-6.31,6,6,0,0,0-6,6.26v0a6.07,6.07,0,0,0,6,6.3A6,6,0,0,0,634.73,128.61Z"/><path class="cls-4" d="M640.17,120.93h1.72v13.68h8.6v1.6H640.17Z"/><path class="cls-4" d="M653.59,120.93h1.73v13.68h8.6v1.6H653.59Z"/><path class="cls-4" d="M667,120.93h11v1.57h-9.32v5.21h8.34v1.58h-8.34v5.34h9.43v1.58H667Z"/><path class="cls-4" d="M681.64,120.93h6.57a6,6,0,0,1,4.34,1.52,4.12,4.12,0,0,1,1.18,3v0c0,2.53-1.74,4-4.14,4.45l4.69,6.25h-2.12l-4.43-5.94h-4.37v5.94h-1.72Zm6.42,7.79c2.27,0,3.93-1.18,3.93-3.14v0c0-1.9-1.44-3-3.91-3h-4.72v6.2Z"/><path class="cls-5" d="M8.38,246.84a4.59,4.59,0,0,1-3.13,1,4.64,4.64,0,0,1-3.15-1,3.84,3.84,0,0,1-1.11-3v-6.21h2.2v6.21a4.25,4.25,0,0,0,.07.8,1.64,1.64,0,0,0,.29.69,1.49,1.49,0,0,0,.63.49,2.44,2.44,0,0,0,1.07.19,2.06,2.06,0,0,0,1.62-.52,2.5,2.5,0,0,0,.45-1.65v-6.21h2.2v6.21A3.78,3.78,0,0,1,8.38,246.84Z"/><path class="cls-5" d="M13.87,249.76a2.87,2.87,0,0,1-1.59.38l-.61,0-.61-.05v-1.64l.57.06a5.81,5.81,0,0,0,.59,0,.78.78,0,0,0,.58-.31,1,1,0,0,0,.19-.59,1.32,1.32,0,0,0-.08-.44l-2.54-6.79h2.12l1.63,4.95h0l1.58-4.95h2.06l-3,8.13A2.48,2.48,0,0,1,13.87,249.76Z"/><path class="cls-5" d="M18.38,242.59a2.23,2.23,0,0,1,1.13-1.9,3.43,3.43,0,0,1,1.07-.4,6.11,6.11,0,0,1,1.2-.12,8.41,8.41,0,0,1,1.11.08,3.36,3.36,0,0,1,1,.3,2,2,0,0,1,.76.62,1.8,1.8,0,0,1,.29,1.06V246a7.07,7.07,0,0,0,.06.94,1.63,1.63,0,0,0,.19.67h-2a3.37,3.37,0,0,1-.1-.34,2.09,2.09,0,0,1,0-.36,2.63,2.63,0,0,1-1.12.69,4.54,4.54,0,0,1-1.32.2,3.73,3.73,0,0,1-1-.13,2,2,0,0,1-.78-.39,2,2,0,0,1-.53-.67,2.4,2.4,0,0,1-.18-1,2.2,2.2,0,0,1,.21-1,1.9,1.9,0,0,1,.56-.63,2.48,2.48,0,0,1,.79-.36,8.79,8.79,0,0,1,.89-.19c.29-.05.59-.08.88-.11a5.13,5.13,0,0,0,.77-.13,1.24,1.24,0,0,0,.53-.24.55.55,0,0,0,.18-.47,1,1,0,0,0-.1-.51.71.71,0,0,0-.28-.29,1.12,1.12,0,0,0-.41-.15,3.84,3.84,0,0,0-.5,0,1.48,1.48,0,0,0-.92.25,1.12,1.12,0,0,0-.39.84ZM23,244.06a.94.94,0,0,1-.31.18l-.41.1-.45.07-.48.07-.44.11a1.35,1.35,0,0,0-.38.19.94.94,0,0,0-.26.3,1.09,1.09,0,0,0-.1.47,1,1,0,0,0,.1.44.76.76,0,0,0,.27.29,1.13,1.13,0,0,0,.39.15,2.32,2.32,0,0,0,.46,0,1.75,1.75,0,0,0,.91-.2,1.28,1.28,0,0,0,.48-.47,1.64,1.64,0,0,0,.19-.55,4.37,4.37,0,0,0,0-.45Z"/><path class="cls-5" d="M28.39,240.37v1.34h0a2.61,2.61,0,0,1,.37-.62,2.55,2.55,0,0,1,.55-.49,2.87,2.87,0,0,1,.66-.32,2.53,2.53,0,0,1,.73-.11,1.42,1.42,0,0,1,.43.07v1.85l-.33-.05a2.55,2.55,0,0,0-.38,0,2.17,2.17,0,0,0-.93.18,1.66,1.66,0,0,0-.61.5,2.12,2.12,0,0,0-.33.73,4.32,4.32,0,0,0-.09.91v3.26h-2v-7.23Z"/><path class="cls-5" d="M34,240.37v7.23H32v-7.23Z"/><path class="cls-5" d="M.8,252.28H4.14a2.33,2.33,0,0,1,1.48.43A1.5,1.5,0,0,1,6.18,254a1.55,1.55,0,0,1-.26.89,1.73,1.73,0,0,1-.72.57v0a1.51,1.51,0,0,1,1,.6,2,2,0,0,1,.33,1.17,1.86,1.86,0,0,1-.15.75,1.41,1.41,0,0,1-.45.61,2.26,2.26,0,0,1-.79.41,4.23,4.23,0,0,1-1.14.14H.8ZM2,255.16H4a1.05,1.05,0,0,0,.72-.25.88.88,0,0,0,.29-.7.93.93,0,0,0-.26-.74,1.19,1.19,0,0,0-.75-.21H2Zm0,3H4.13a1.18,1.18,0,0,0,.85-.28,1.06,1.06,0,0,0,.3-.8,1,1,0,0,0-.3-.79,1.22,1.22,0,0,0-.85-.27H2Z"/><path class="cls-5" d="M11.79,259.15H10.71v-.69h0a1.45,1.45,0,0,1-.6.6,1.61,1.61,0,0,1-.81.23,1.8,1.8,0,0,1-1.42-.49,2.12,2.12,0,0,1-.44-1.46v-3.16h1.1v3.05a1.32,1.32,0,0,0,.25.92.91.91,0,0,0,.7.27,1.4,1.4,0,0,0,.58-.1,1.1,1.1,0,0,0,.38-.29,1.14,1.14,0,0,0,.2-.43,2.2,2.2,0,0,0,.06-.53v-2.89h1.1Z"/><path class="cls-5" d="M15.65,252.28h1.1v6.87h-1.1Z"/><path class="cls-5" d="M20.22,259.29a2.74,2.74,0,0,1-1.06-.2,2.31,2.31,0,0,1-.79-.54,2.37,2.37,0,0,1-.49-.83,3.36,3.36,0,0,1,0-2.11,2.37,2.37,0,0,1,.49-.83,2.31,2.31,0,0,1,.79-.54,2.94,2.94,0,0,1,2.13,0,2.31,2.31,0,0,1,.79.54,2.37,2.37,0,0,1,.49.83,3.36,3.36,0,0,1,0,2.11,2.37,2.37,0,0,1-.49.83,2.31,2.31,0,0,1-.79.54A2.76,2.76,0,0,1,20.22,259.29Zm0-.87a1.29,1.29,0,0,0,.64-.15,1.24,1.24,0,0,0,.44-.41,1.7,1.7,0,0,0,.26-.56,2.56,2.56,0,0,0,0-1.27,1.75,1.75,0,0,0-.26-.57,1.42,1.42,0,0,0-.44-.4,1.42,1.42,0,0,0-1.27,0,1.42,1.42,0,0,0-.44.4,1.75,1.75,0,0,0-.26.57,2.56,2.56,0,0,0,0,1.27,1.7,1.7,0,0,0,.26.56,1.24,1.24,0,0,0,.44.41A1.28,1.28,0,0,0,20.22,258.42Z"/><path class="cls-5" d="M28.25,258.89a2.09,2.09,0,0,1-.63,1.68,2.65,2.65,0,0,1-1.81.56,3.92,3.92,0,0,1-.76-.08,2.29,2.29,0,0,1-.69-.26,1.62,1.62,0,0,1-.53-.48,1.51,1.51,0,0,1-.25-.73h1.1a.9.9,0,0,0,.16.37.77.77,0,0,0,.28.23,1.2,1.2,0,0,0,.35.11l.4,0a1.29,1.29,0,0,0,1-.33,1.34,1.34,0,0,0,.3-.94v-.76h0a1.71,1.71,0,0,1-.64.64,1.61,1.61,0,0,1-.86.23,2.25,2.25,0,0,1-1-.2,2,2,0,0,1-.7-.57,2.35,2.35,0,0,1-.39-.83,3.68,3.68,0,0,1-.13-1,3,3,0,0,1,.15-1,2.46,2.46,0,0,1,.45-.79,2.06,2.06,0,0,1,.7-.54,2.11,2.11,0,0,1,.95-.21,1.92,1.92,0,0,1,.87.2,1.41,1.41,0,0,1,.61.62h0v-.68h1.1Zm-2.43-.6a1.21,1.21,0,0,0,.62-.15,1.12,1.12,0,0,0,.41-.4,1.69,1.69,0,0,0,.23-.55,2.7,2.7,0,0,0,.07-.63,2.51,2.51,0,0,0-.07-.62,1.51,1.51,0,0,0-.24-.53,1.13,1.13,0,0,0-.41-.37,1.31,1.31,0,0,0-.61-.13,1.19,1.19,0,0,0-.62.15,1.27,1.27,0,0,0-.4.4,1.74,1.74,0,0,0-.23.56,3.34,3.34,0,0,0-.06.62,2.35,2.35,0,0,0,.07.6,1.83,1.83,0,0,0,.24.53,1.28,1.28,0,0,0,.4.37A1.16,1.16,0,0,0,25.82,258.29Z"/><path class="cls-5" d="M31.64,259.29a2.71,2.71,0,0,1-1.06-.2,2.21,2.21,0,0,1-1.28-1.37,3.36,3.36,0,0,1,0-2.11,2.21,2.21,0,0,1,1.28-1.37,2.91,2.91,0,0,1,2.12,0,2.14,2.14,0,0,1,.79.54,2.23,2.23,0,0,1,.49.83,3.36,3.36,0,0,1,0,2.11,2.23,2.23,0,0,1-.49.83,2.14,2.14,0,0,1-.79.54A2.71,2.71,0,0,1,31.64,259.29Zm0-.87a1.22,1.22,0,0,0,1.08-.56,1.68,1.68,0,0,0,.25-.56A2.29,2.29,0,0,0,33,256a1.73,1.73,0,0,0-.25-.57,1.54,1.54,0,0,0-.44-.4,1.44,1.44,0,0,0-1.28,0,1.68,1.68,0,0,0-.44.4,1.73,1.73,0,0,0-.25.57,2.27,2.27,0,0,0-.08.63,2.29,2.29,0,0,0,.08.64,1.68,1.68,0,0,0,.25.56,1.43,1.43,0,0,0,.44.41A1.32,1.32,0,0,0,31.64,258.42Z"/><path class="cls-5" d="M37,252.12h1.05l-2.76,7.2h-1Z"/><path class="cls-5" d="M42.62,258.05a.55.55,0,0,0,.06.29.22.22,0,0,0,.2.08H43a.41.41,0,0,0,.15,0v.76l-.15,0-.18,0-.2,0h-.16a1.08,1.08,0,0,1-.56-.14.67.67,0,0,1-.29-.47,1.87,1.87,0,0,1-.8.46,3,3,0,0,1-.92.15,2.37,2.37,0,0,1-.65-.09,1.71,1.71,0,0,1-.54-.27,1.24,1.24,0,0,1-.37-.45,1.34,1.34,0,0,1-.14-.64,1.49,1.49,0,0,1,.16-.75,1.24,1.24,0,0,1,.45-.46,1.79,1.79,0,0,1,.61-.23,5.5,5.5,0,0,1,.69-.11l.57-.09a2.18,2.18,0,0,0,.48-.08.77.77,0,0,0,.32-.18.49.49,0,0,0,.12-.36.53.53,0,0,0-.1-.34.64.64,0,0,0-.25-.21,1.15,1.15,0,0,0-.33-.1l-.35,0a1.38,1.38,0,0,0-.76.19.74.74,0,0,0-.33.6h-1.1a1.71,1.71,0,0,1,.23-.8,1.65,1.65,0,0,1,.51-.51,2.09,2.09,0,0,1,.71-.27,4.36,4.36,0,0,1,.81-.08,3.38,3.38,0,0,1,.72.08,2.14,2.14,0,0,1,.64.25,1.41,1.41,0,0,1,.46.45,1.17,1.17,0,0,1,.17.67Zm-1.09-1.39a1.34,1.34,0,0,1-.62.2c-.24,0-.49.06-.73.1l-.34.08a1.32,1.32,0,0,0-.29.15.57.57,0,0,0-.19.24.8.8,0,0,0-.08.36.49.49,0,0,0,.11.31.67.67,0,0,0,.25.19.91.91,0,0,0,.33.1l.32,0a1.87,1.87,0,0,0,.4,0,1.55,1.55,0,0,0,.4-.17,1.07,1.07,0,0,0,.31-.29.79.79,0,0,0,.13-.44Z"/><path class="cls-5" d="M43.81,254.18h1v.69h0a2.88,2.88,0,0,1,.27-.34,1.35,1.35,0,0,1,.32-.26,1.52,1.52,0,0,1,.41-.16,1.7,1.7,0,0,1,.53-.07,1.74,1.74,0,0,1,.84.21,1.12,1.12,0,0,1,.55.62,2.21,2.21,0,0,1,.65-.61,1.8,1.8,0,0,1,.91-.22,1.78,1.78,0,0,1,1.23.39,1.63,1.63,0,0,1,.44,1.29v3.43h-1.1v-2.9c0-.2,0-.38,0-.55a1.08,1.08,0,0,0-.11-.42.59.59,0,0,0-.27-.27,1.05,1.05,0,0,0-.51-.1.89.89,0,0,0-.8.35,1.61,1.61,0,0,0-.25,1v2.91h-1.1V256a1.34,1.34,0,0,0-.19-.79.8.8,0,0,0-.69-.26,1,1,0,0,0-.41.09.91.91,0,0,0-.34.25,1.22,1.22,0,0,0-.24.4,1.54,1.54,0,0,0-.1.55v2.95H43.81Z"/><path class="cls-5" d="M52.21,252.28h1.1v2.54h0a1.22,1.22,0,0,1,.28-.32,1.78,1.78,0,0,1,.36-.25,1.56,1.56,0,0,1,.41-.15,1.65,1.65,0,0,1,.43-.06,2.32,2.32,0,0,1,1,.21,2,2,0,0,1,.73.57,2.59,2.59,0,0,1,.44.84,3.77,3.77,0,0,1,.14,1,3.49,3.49,0,0,1-.13,1,2.61,2.61,0,0,1-.4.84,1.82,1.82,0,0,1-.66.57,2,2,0,0,1-1,.22l-.5,0a2.72,2.72,0,0,1-.49-.13,2.22,2.22,0,0,1-.42-.25,1.3,1.3,0,0,1-.31-.41h0v.68h-1ZM56,256.67A2.82,2.82,0,0,0,56,256a2,2,0,0,0-.26-.57,1.38,1.38,0,0,0-.44-.39,1.15,1.15,0,0,0-.59-.15,1.22,1.22,0,0,0-1.05.48,2.16,2.16,0,0,0-.35,1.28,2.63,2.63,0,0,0,.09.7,1.43,1.43,0,0,0,.28.55,1.2,1.2,0,0,0,1,.5,1.22,1.22,0,0,0,.63-.15,1.37,1.37,0,0,0,.43-.4,1.67,1.67,0,0,0,.24-.56A2.73,2.73,0,0,0,56,256.67Z"/><path class="cls-5" d="M58.09,252.28h1.1v6.87h-1.1Z"/><path class="cls-5" d="M61.24,257a2.1,2.1,0,0,0,.08.56,1.51,1.51,0,0,0,.25.47,1.19,1.19,0,0,0,.41.32,1.4,1.4,0,0,0,.6.12,1.35,1.35,0,0,0,.77-.2,1.24,1.24,0,0,0,.44-.63h1a2.16,2.16,0,0,1-.3.73,2,2,0,0,1-.51.53,2.21,2.21,0,0,1-.67.33,2.76,2.76,0,0,1-.77.11,2.79,2.79,0,0,1-1-.19,2.23,2.23,0,0,1-.77-.54,2.33,2.33,0,0,1-.47-.83,3.52,3.52,0,0,1-.16-1.06,3,3,0,0,1,.17-1,2.49,2.49,0,0,1,.48-.84,2.27,2.27,0,0,1,.76-.57,2.16,2.16,0,0,1,1-.22,2.26,2.26,0,0,1,1.05.25,2.34,2.34,0,0,1,.78.65,2.87,2.87,0,0,1,.45.93A3,3,0,0,1,64.9,257Zm2.56-.72a1.65,1.65,0,0,0-.11-.5,1.27,1.27,0,0,0-.25-.42,1.19,1.19,0,0,0-.89-.4,1.32,1.32,0,0,0-.53.1,1.26,1.26,0,0,0-.4.28,1.51,1.51,0,0,0-.27.42,1.46,1.46,0,0,0-.11.52Z"/><path class="cls-5" d="M65.74,254.18h1v.69h0l.27-.34a1.64,1.64,0,0,1,.33-.26,1.45,1.45,0,0,1,.4-.16,1.79,1.79,0,0,1,.53-.07,1.76,1.76,0,0,1,.85.21,1.12,1.12,0,0,1,.55.62,2.21,2.21,0,0,1,.65-.61,1.78,1.78,0,0,1,.91-.22,1.8,1.8,0,0,1,1.23.39,1.63,1.63,0,0,1,.43,1.29v3.43H71.86v-2.9c0-.2,0-.38,0-.55a1.08,1.08,0,0,0-.11-.42.57.57,0,0,0-.28-.27,1,1,0,0,0-.5-.1.92.92,0,0,0-.81.35,1.69,1.69,0,0,0-.25,1v2.91H68.8V256a1.41,1.41,0,0,0-.19-.79.82.82,0,0,0-.69-.26,1,1,0,0,0-.41.09.94.94,0,0,0-.35.25,1.22,1.22,0,0,0-.24.4,1.55,1.55,0,0,0-.09.55v2.95H65.74Z"/><path class="cls-5" d="M77.73,256.86a1.56,1.56,0,0,0,.13.68,1.19,1.19,0,0,0,.38.45,1.47,1.47,0,0,0,.55.26,2.48,2.48,0,0,0,.68.09,2.29,2.29,0,0,0,.68-.09,1.59,1.59,0,0,0,.45-.24,1,1,0,0,0,.25-.33,1,1,0,0,0,.08-.38.83.83,0,0,0-.18-.59,1.07,1.07,0,0,0-.39-.26,8.75,8.75,0,0,0-.85-.26l-1.2-.31a2.85,2.85,0,0,1-.74-.3,2,2,0,0,1-.47-.42,1.59,1.59,0,0,1-.24-.49,1.88,1.88,0,0,1-.07-.53,1.81,1.81,0,0,1,.21-.9,2.05,2.05,0,0,1,.58-.63,2.35,2.35,0,0,1,.8-.37,3.63,3.63,0,0,1,.92-.12,3.29,3.29,0,0,1,1,.14,2.37,2.37,0,0,1,.84.42,2,2,0,0,1,.79,1.63H80.73a1.17,1.17,0,0,0-.45-.94,1.81,1.81,0,0,0-1-.27,2.09,2.09,0,0,0-.43,0,1.34,1.34,0,0,0-.41.15.86.86,0,0,0-.3.27A.76.76,0,0,0,78,254a.71.71,0,0,0,.23.57,1.38,1.38,0,0,0,.59.31l.3.08.59.16.64.17.45.12a2,2,0,0,1,.59.29,2.09,2.09,0,0,1,.42.42,1.8,1.8,0,0,1,.25.5,2,2,0,0,1,.08.54,1.91,1.91,0,0,1-.24,1,2,2,0,0,1-.62.67,2.74,2.74,0,0,1-.87.38,4.29,4.29,0,0,1-1,.12,3.9,3.9,0,0,1-1.1-.15,2.49,2.49,0,0,1-.91-.44,2.18,2.18,0,0,1-.61-.76,2.42,2.42,0,0,1-.24-1.11Z"/><path class="cls-5" d="M85.31,259.29a2.76,2.76,0,0,1-1.07-.2,2.31,2.31,0,0,1-.79-.54,2.37,2.37,0,0,1-.49-.83,3.36,3.36,0,0,1,0-2.11,2.37,2.37,0,0,1,.49-.83,2.31,2.31,0,0,1,.79-.54,2.94,2.94,0,0,1,2.13,0,2.31,2.31,0,0,1,.79.54,2.37,2.37,0,0,1,.49.83,3.36,3.36,0,0,1,0,2.11,2.37,2.37,0,0,1-.49.83,2.31,2.31,0,0,1-.79.54A2.74,2.74,0,0,1,85.31,259.29Zm0-.87a1.28,1.28,0,0,0,.63-.15,1.24,1.24,0,0,0,.44-.41,1.7,1.7,0,0,0,.26-.56,2.56,2.56,0,0,0,0-1.27,1.75,1.75,0,0,0-.26-.57,1.42,1.42,0,0,0-.44-.4,1.42,1.42,0,0,0-1.27,0,1.42,1.42,0,0,0-.44.4A1.75,1.75,0,0,0,84,256a2.56,2.56,0,0,0,0,1.27,1.7,1.7,0,0,0,.26.56,1.24,1.24,0,0,0,.44.41A1.29,1.29,0,0,0,85.31,258.42Z"/><path class="cls-5" d="M88.76,252.28h1.1v6.87h-1.1Z"/><path class="cls-5" d="M91.08,252.28h1.1v1h-1.1Zm0,1.9h1.1v5h-1.1Z"/><path class="cls-5" d="M98.06,259.15H97v-.67h0a1.28,1.28,0,0,1-.64.62,2.17,2.17,0,0,1-.9.19,2.32,2.32,0,0,1-1-.21,2,2,0,0,1-.73-.56,2.39,2.39,0,0,1-.43-.84,3.55,3.55,0,0,1-.15-1.05,3.37,3.37,0,0,1,.18-1.16,2.46,2.46,0,0,1,.49-.81,1.89,1.89,0,0,1,.69-.47,2.22,2.22,0,0,1,.8-.15,2.59,2.59,0,0,1,.47.05,1.88,1.88,0,0,1,.46.14,1.69,1.69,0,0,1,.41.24,1.47,1.47,0,0,1,.31.35h0v-2.54h1.1Zm-3.83-2.43a2.57,2.57,0,0,0,.08.62,1.63,1.63,0,0,0,.25.55,1.34,1.34,0,0,0,.43.39,1.2,1.2,0,0,0,.61.14,1.19,1.19,0,0,0,1.07-.56,1.91,1.91,0,0,0,.25-.56,2.74,2.74,0,0,0,.08-.64,2,2,0,0,0-.37-1.29,1.22,1.22,0,0,0-1-.46,1.23,1.23,0,0,0-.65.16,1.3,1.3,0,0,0-.43.41,1.77,1.77,0,0,0-.24.58A2.84,2.84,0,0,0,94.23,256.72Z"/><path class="cls-5" d="M102.08,252.28h5v1h-3.74v1.8h3.46v1h-3.46v2h3.81v1h-5Z"/><path class="cls-5" d="M108,252.28h1.1v6.87H108Z"/><path class="cls-5" d="M111.17,257a2.1,2.1,0,0,0,.08.56,1.51,1.51,0,0,0,.25.47,1.19,1.19,0,0,0,.41.32,1.4,1.4,0,0,0,.6.12,1.35,1.35,0,0,0,.77-.2,1.24,1.24,0,0,0,.44-.63h1a2.16,2.16,0,0,1-.3.73,2,2,0,0,1-.51.53,2.21,2.21,0,0,1-.67.33,2.76,2.76,0,0,1-.77.11,2.79,2.79,0,0,1-1-.19,2.23,2.23,0,0,1-.77-.54,2.33,2.33,0,0,1-.47-.83,3.23,3.23,0,0,1-.16-1.06,3,3,0,0,1,.17-1,2.49,2.49,0,0,1,.48-.84,2.27,2.27,0,0,1,.76-.57,2.16,2.16,0,0,1,1-.22,2.26,2.26,0,0,1,1,.25,2.34,2.34,0,0,1,.78.65,2.87,2.87,0,0,1,.45.93,3,3,0,0,1,.07,1.08Zm2.56-.72a1.65,1.65,0,0,0-.11-.5,1.27,1.27,0,0,0-.25-.42A1.24,1.24,0,0,0,113,255a1.15,1.15,0,0,0-.5-.11,1.32,1.32,0,0,0-.53.1,1.26,1.26,0,0,0-.4.28,1.51,1.51,0,0,0-.27.42,1.46,1.46,0,0,0-.11.52Z"/><path class="cls-5" d="M119,255.84a1,1,0,0,0-.37-.69,1.17,1.17,0,0,0-.76-.24,1.5,1.5,0,0,0-.45.07,1.18,1.18,0,0,0-.45.27,1.61,1.61,0,0,0-.33.55,2.58,2.58,0,0,0-.14.92,3.27,3.27,0,0,0,.07.62,1.65,1.65,0,0,0,.24.54,1.24,1.24,0,0,0,.4.39,1.17,1.17,0,0,0,.61.15,1.12,1.12,0,0,0,.8-.3,1.37,1.37,0,0,0,.38-.83h1.1a2.4,2.4,0,0,1-.73,1.48,2.24,2.24,0,0,1-1.55.52,2.52,2.52,0,0,1-1-.2,2.19,2.19,0,0,1-.76-.54,2.4,2.4,0,0,1-.47-.81,3.3,3.3,0,0,1-.16-1,3.6,3.6,0,0,1,.16-1.05,2.4,2.4,0,0,1,.46-.85,2.21,2.21,0,0,1,.77-.57,2.52,2.52,0,0,1,1.07-.21,3.12,3.12,0,0,1,.82.11,2.4,2.4,0,0,1,.7.34,1.73,1.73,0,0,1,.49.55,1.87,1.87,0,0,1,.23.8Z"/><path class="cls-5" d="M120.52,254.18h.82v-1.49h1.1v1.49h1V255h-1v2.65a2.36,2.36,0,0,0,0,.3.58.58,0,0,0,.06.21.34.34,0,0,0,.16.13.76.76,0,0,0,.29,0h.23a.85.85,0,0,0,.23,0v.84l-.35,0a2.17,2.17,0,0,1-.36,0,2.28,2.28,0,0,1-.7-.08.88.88,0,0,1-.41-.24.8.8,0,0,1-.2-.4,2.84,2.84,0,0,1-.07-.55V255h-.82Z"/><path class="cls-5" d="M124.22,254.18h1v1h0a1.09,1.09,0,0,1,.19-.39,1.92,1.92,0,0,1,.34-.36,1.67,1.67,0,0,1,.43-.25,1.44,1.44,0,0,1,.5-.1H127l.15,0v1.06l-.24,0-.23,0a1.36,1.36,0,0,0-.53.11,1.5,1.5,0,0,0-.43.33,1.67,1.67,0,0,0-.28.53,2.13,2.13,0,0,0-.11.74v2.36h-1.1Z"/><path class="cls-5" d="M129.72,259.29a2.71,2.71,0,0,1-1.06-.2,2.14,2.14,0,0,1-.79-.54,2.23,2.23,0,0,1-.49-.83,3.36,3.36,0,0,1,0-2.11,2.23,2.23,0,0,1,.49-.83,2.14,2.14,0,0,1,.79-.54,2.91,2.91,0,0,1,2.12,0,2.21,2.21,0,0,1,1.28,1.37,3.36,3.36,0,0,1,0,2.11,2.21,2.21,0,0,1-1.28,1.37A2.71,2.71,0,0,1,129.72,259.29Zm0-.87a1.28,1.28,0,0,0,.63-.15,1.36,1.36,0,0,0,.45-.41,1.68,1.68,0,0,0,.25-.56,2.29,2.29,0,0,0,.08-.64,2.27,2.27,0,0,0-.08-.63,1.73,1.73,0,0,0-.25-.57,1.58,1.58,0,0,0-.45-.4,1.28,1.28,0,0,0-.63-.15,1.32,1.32,0,0,0-.64.15,1.54,1.54,0,0,0-.44.4,1.73,1.73,0,0,0-.25.57,2.29,2.29,0,0,0,0,1.27,1.68,1.68,0,0,0,.25.56,1.22,1.22,0,0,0,1.08.56Z"/><path class="cls-5" d="M133.15,254.18h1v.75a1.87,1.87,0,0,1,.66-.65,1.72,1.72,0,0,1,.89-.24,1.81,1.81,0,0,1,1.29.43,1.59,1.59,0,0,1,.48,1.27v3.41h-1.1V256a1.38,1.38,0,0,0-.25-.86,1,1,0,0,0-.72-.26,1.12,1.12,0,0,0-.5.1,1.08,1.08,0,0,0-.38.28,1.46,1.46,0,0,0-.33.93v2.93h-1.09Z"/><path class="cls-5" d="M141.5,252.28h1.2v3.13l3.07-3.13h1.48L144.5,255l2.94,4.13h-1.5l-2.25-3.28-1,1v2.31h-1.2Z"/><path class="cls-5" d="M150.22,259.29a2.71,2.71,0,0,1-1.06-.2,2.21,2.21,0,0,1-1.28-1.37,3.36,3.36,0,0,1,0-2.11,2.21,2.21,0,0,1,1.28-1.37,2.71,2.71,0,0,1,1.06-.2,2.79,2.79,0,0,1,1.07.2,2.31,2.31,0,0,1,.79.54,2.53,2.53,0,0,1,.49.83,3.56,3.56,0,0,1,0,2.11,2.53,2.53,0,0,1-.49.83,2.31,2.31,0,0,1-.79.54A2.79,2.79,0,0,1,150.22,259.29Zm0-.87a1.29,1.29,0,0,0,.64-.15,1.24,1.24,0,0,0,.44-.41,1.7,1.7,0,0,0,.26-.56,2.56,2.56,0,0,0,0-1.27,1.75,1.75,0,0,0-.26-.57,1.42,1.42,0,0,0-.44-.4,1.42,1.42,0,0,0-1.27,0,1.58,1.58,0,0,0-.45.4,1.73,1.73,0,0,0-.25.57,2.27,2.27,0,0,0-.08.63,2.29,2.29,0,0,0,.08.64,1.68,1.68,0,0,0,.25.56,1.36,1.36,0,0,0,.45.41A1.28,1.28,0,0,0,150.22,258.42Z"/><path class="cls-5" d="M153.65,254.18h1v.73l0,0a1.84,1.84,0,0,1,.65-.65,1.73,1.73,0,0,1,.9-.24,1.85,1.85,0,0,1,1.29.43,1.62,1.62,0,0,1,.47,1.27v3.41h-1.1V256a1.32,1.32,0,0,0-.25-.86.92.92,0,0,0-.72-.26,1.15,1.15,0,0,0-.5.1,1.17,1.17,0,0,0-.38.28,1.44,1.44,0,0,0-.24.42,1.7,1.7,0,0,0-.08.51v2.93h-1.1Z"/><path class="cls-5" d="M158.67,254.18h.83v-1.49h1.1v1.49h1V255h-1v2.65a2.63,2.63,0,0,0,0,.3.58.58,0,0,0,.07.21.34.34,0,0,0,.16.13.76.76,0,0,0,.29,0h.23a.91.91,0,0,0,.23,0v.84l-.36,0a2,2,0,0,1-.35,0,2.28,2.28,0,0,1-.7-.08.83.83,0,0,1-.41-.24.9.9,0,0,1-.21-.4,4,4,0,0,1-.06-.55V255h-.83Z"/><path class="cls-5" d="M162.38,254.18h1v1h0a.94.94,0,0,1,.19-.39,1.86,1.86,0,0,1,.33-.36,1.73,1.73,0,0,1,.44-.25,1.43,1.43,0,0,1,.49-.1h.27l.15,0v1.06l-.24,0-.24,0a1.31,1.31,0,0,0-.52.11,1.37,1.37,0,0,0-.43.33,1.69,1.69,0,0,0-.29.53,2.41,2.41,0,0,0-.1.74v2.36h-1.1Z"/><path class="cls-5" d="M167.88,259.29a2.76,2.76,0,0,1-1.07-.2,2.31,2.31,0,0,1-.79-.54,2.37,2.37,0,0,1-.49-.83,3.36,3.36,0,0,1,0-2.11,2.37,2.37,0,0,1,.49-.83,2.31,2.31,0,0,1,.79-.54,2.94,2.94,0,0,1,2.13,0,2.31,2.31,0,0,1,.79.54,2.37,2.37,0,0,1,.49.83,3.36,3.36,0,0,1,0,2.11,2.37,2.37,0,0,1-.49.83,2.31,2.31,0,0,1-.79.54A2.74,2.74,0,0,1,167.88,259.29Zm0-.87a1.28,1.28,0,0,0,.63-.15,1.24,1.24,0,0,0,.44-.41,1.7,1.7,0,0,0,.26-.56,2.56,2.56,0,0,0,0-1.27,1.75,1.75,0,0,0-.26-.57,1.42,1.42,0,0,0-.44-.4,1.42,1.42,0,0,0-1.27,0,1.42,1.42,0,0,0-.44.4,1.75,1.75,0,0,0-.26.57,2.56,2.56,0,0,0,0,1.27,1.7,1.7,0,0,0,.26.56,1.24,1.24,0,0,0,.44.41A1.29,1.29,0,0,0,167.88,258.42Z"/><path class="cls-5" d="M171.33,252.28h1.1v6.87h-1.1Z"/><path class="cls-5" d="M175.8,252.28h5.56v1h-2.18v5.83H178v-5.83H175.8Z"/><path class="cls-5" d="M181.79,257a1.77,1.77,0,0,0,.09.56,1.31,1.31,0,0,0,.24.47,1.23,1.23,0,0,0,.42.32,1.32,1.32,0,0,0,.59.12,1.41,1.41,0,0,0,.78-.2,1.3,1.3,0,0,0,.44-.63h1a2.16,2.16,0,0,1-.3.73,2,2,0,0,1-.51.53,2.33,2.33,0,0,1-.67.33,2.88,2.88,0,0,1-.78.11,2.83,2.83,0,0,1-1-.19,2.17,2.17,0,0,1-1.23-1.37,3.23,3.23,0,0,1-.16-1.06,2.77,2.77,0,0,1,.17-1,2.49,2.49,0,0,1,.48-.84,2.33,2.33,0,0,1,.75-.57,2.19,2.19,0,0,1,1-.22,2.27,2.27,0,0,1,1.06.25,2.21,2.21,0,0,1,.77.65,2.52,2.52,0,0,1,.45.93,2.8,2.8,0,0,1,.07,1.08Zm2.57-.72a2,2,0,0,0-.11-.5,1.49,1.49,0,0,0-.26-.42,1.1,1.1,0,0,0-.38-.29,1.19,1.19,0,0,0-.51-.11,1.27,1.27,0,0,0-.52.1,1.15,1.15,0,0,0-.4.28,1.17,1.17,0,0,0-.27.42,1.47,1.47,0,0,0-.12.52Z"/><path class="cls-5" d="M186.32,252.28h1.1v3.91l2-2h1.35L188.84,256l2.09,3.14h-1.34l-1.52-2.41-.65.63v1.78h-1.1Z"/><path class="cls-5" d="M191.46,254.18h1v.73l0,0a1.84,1.84,0,0,1,.65-.65,1.73,1.73,0,0,1,.9-.24,1.85,1.85,0,0,1,1.29.43,1.62,1.62,0,0,1,.47,1.27v3.41h-1.1V256a1.32,1.32,0,0,0-.25-.86.92.92,0,0,0-.72-.26,1.15,1.15,0,0,0-.5.1,1.17,1.17,0,0,0-.38.28,1.44,1.44,0,0,0-.24.42,1.7,1.7,0,0,0-.08.51v2.93h-1.1Z"/><path class="cls-5" d="M199.27,259.29a2.76,2.76,0,0,1-1.07-.2,2.31,2.31,0,0,1-.79-.54,2.37,2.37,0,0,1-.49-.83,3.36,3.36,0,0,1,0-2.11,2.37,2.37,0,0,1,.49-.83,2.31,2.31,0,0,1,.79-.54,2.94,2.94,0,0,1,2.13,0,2.31,2.31,0,0,1,.79.54,2.37,2.37,0,0,1,.49.83,3.36,3.36,0,0,1,0,2.11,2.37,2.37,0,0,1-.49.83,2.31,2.31,0,0,1-.79.54A2.74,2.74,0,0,1,199.27,259.29Zm0-.87a1.28,1.28,0,0,0,.63-.15,1.24,1.24,0,0,0,.44-.41,1.7,1.7,0,0,0,.26-.56,2.56,2.56,0,0,0,0-1.27,1.75,1.75,0,0,0-.26-.57,1.42,1.42,0,0,0-.44-.4,1.42,1.42,0,0,0-1.27,0,1.42,1.42,0,0,0-.44.4,1.75,1.75,0,0,0-.26.57,2.56,2.56,0,0,0,0,1.27,1.7,1.7,0,0,0,.26.56,1.24,1.24,0,0,0,.44.41A1.29,1.29,0,0,0,199.27,258.42Z"/><path class="cls-5" d="M202.72,252.28h1.1v6.87h-1.1Z"/><path class="cls-5" d="M207.29,259.29a2.74,2.74,0,0,1-1.06-.2,2.31,2.31,0,0,1-.79-.54,2.37,2.37,0,0,1-.49-.83,3.36,3.36,0,0,1,0-2.11,2.37,2.37,0,0,1,.49-.83,2.31,2.31,0,0,1,.79-.54,2.94,2.94,0,0,1,2.13,0,2.31,2.31,0,0,1,.79.54,2.37,2.37,0,0,1,.49.83,3.36,3.36,0,0,1,0,2.11,2.37,2.37,0,0,1-.49.83,2.31,2.31,0,0,1-.79.54A2.76,2.76,0,0,1,207.29,259.29Zm0-.87a1.29,1.29,0,0,0,.64-.15,1.24,1.24,0,0,0,.44-.41,1.7,1.7,0,0,0,.26-.56,2.56,2.56,0,0,0,0-1.27,1.75,1.75,0,0,0-.26-.57,1.42,1.42,0,0,0-.44-.4,1.42,1.42,0,0,0-1.27,0,1.42,1.42,0,0,0-.44.4,1.75,1.75,0,0,0-.26.57,2.56,2.56,0,0,0,0,1.27,1.7,1.7,0,0,0,.26.56,1.24,1.24,0,0,0,.44.41A1.28,1.28,0,0,0,207.29,258.42Z"/><path class="cls-5" d="M210.75,254.18h1.1v5.4a1.76,1.76,0,0,1-.33,1.14,1.33,1.33,0,0,1-1.1.41h-.27l-.22,0v-.87l.2,0h.18c.2,0,.32-.06.37-.18a1.56,1.56,0,0,0,.07-.55Zm0-1.9h1.1v1h-1.1Z"/><path class="cls-5" d="M213.07,252.28h1.1v1h-1.1Zm0,1.9h1.1v5h-1.1Z"/><path class="cls-5" d="M215.39,252.28h1.1v6.87h-1.1Z"/><path class="cls-5" d="M218.54,257a1.77,1.77,0,0,0,.08.56,1.49,1.49,0,0,0,.24.47,1.23,1.23,0,0,0,.42.32,1.57,1.57,0,0,0,1.37-.08,1.24,1.24,0,0,0,.44-.63h1a2.16,2.16,0,0,1-.3.73,2,2,0,0,1-.51.53,2.21,2.21,0,0,1-.67.33,2.81,2.81,0,0,1-.77.11,2.76,2.76,0,0,1-1-.19,2.14,2.14,0,0,1-.77-.54,2.19,2.19,0,0,1-.47-.83,3.23,3.23,0,0,1-.16-1.06,3,3,0,0,1,.17-1,2.49,2.49,0,0,1,.48-.84,2.27,2.27,0,0,1,.76-.57,2.14,2.14,0,0,1,1-.22,2.26,2.26,0,0,1,1.05.25,2.34,2.34,0,0,1,.78.65,2.66,2.66,0,0,1,.44.93,2.8,2.8,0,0,1,.08,1.08Zm2.56-.72a2,2,0,0,0-.11-.5,1.46,1.46,0,0,0-.25-.42,1.24,1.24,0,0,0-.39-.29,1.18,1.18,0,0,0-.5-.11,1.29,1.29,0,0,0-.53.1,1.15,1.15,0,0,0-.4.28,1.51,1.51,0,0,0-.27.42,1.27,1.27,0,0,0-.11.52Z"/><path class="cls-5" d="M223,254.18h1v1h0a1.09,1.09,0,0,1,.19-.39,1.92,1.92,0,0,1,.34-.36,1.67,1.67,0,0,1,.43-.25,1.44,1.44,0,0,1,.5-.1h.26l.15,0v1.06l-.24,0-.23,0a1.36,1.36,0,0,0-.53.11,1.5,1.5,0,0,0-.43.33,1.67,1.67,0,0,0-.28.53,2.4,2.4,0,0,0-.11.74v2.36H223Z"/><path class="cls-5" d="M226.45,252.28h1.1v1h-1.1Zm0,1.9h1.1v5h-1.1Z"/><path class="cls-5" d="M232.36,256.86a1.55,1.55,0,0,0,.14.68,1.08,1.08,0,0,0,.37.45,1.55,1.55,0,0,0,.55.26,2.48,2.48,0,0,0,.68.09,2.24,2.24,0,0,0,.68-.09,1.59,1.59,0,0,0,.45-.24,1,1,0,0,0,.25-.33,1,1,0,0,0,.08-.38.83.83,0,0,0-.18-.59,1.07,1.07,0,0,0-.39-.26,8.75,8.75,0,0,0-.85-.26l-1.2-.31a2.85,2.85,0,0,1-.74-.3,2.16,2.16,0,0,1-.47-.42,1.59,1.59,0,0,1-.24-.49,1.88,1.88,0,0,1-.07-.53,1.81,1.81,0,0,1,.21-.9,2.05,2.05,0,0,1,.58-.63,2.35,2.35,0,0,1,.8-.37,3.63,3.63,0,0,1,.92-.12,3.29,3.29,0,0,1,1,.14,2.37,2.37,0,0,1,.84.42,2,2,0,0,1,.79,1.63h-1.21a1.17,1.17,0,0,0-.45-.94,1.81,1.81,0,0,0-1-.27,2.15,2.15,0,0,0-.43,0,1.44,1.44,0,0,0-.41.15.86.86,0,0,0-.3.27.76.76,0,0,0-.12.44.75.75,0,0,0,.23.57,1.38,1.38,0,0,0,.59.31l.3.08.59.16.64.17.45.12a2,2,0,0,1,.59.29,1.86,1.86,0,0,1,.42.42,1.8,1.8,0,0,1,.25.5,2,2,0,0,1,.08.54,1.91,1.91,0,0,1-.24,1,2,2,0,0,1-.62.67,2.74,2.74,0,0,1-.87.38,4.21,4.21,0,0,1-1,.12,4,4,0,0,1-1.11-.15,2.49,2.49,0,0,1-.91-.44,2.18,2.18,0,0,1-.61-.76,2.42,2.42,0,0,1-.24-1.11Z"/><path class="cls-5" d="M241.82,258.05a.55.55,0,0,0,.06.29.22.22,0,0,0,.2.08h.12a.44.44,0,0,0,.15,0v.76l-.15,0-.19,0-.19,0h-.16a1.06,1.06,0,0,1-.56-.14.67.67,0,0,1-.29-.47,1.87,1.87,0,0,1-.8.46,3.1,3.1,0,0,1-.92.15,2.32,2.32,0,0,1-.65-.09,1.71,1.71,0,0,1-.54-.27,1.38,1.38,0,0,1-.38-.45,1.47,1.47,0,0,1-.14-.64,1.49,1.49,0,0,1,.17-.75,1.24,1.24,0,0,1,.45-.46,1.72,1.72,0,0,1,.61-.23,5.5,5.5,0,0,1,.69-.11l.57-.09a2,2,0,0,0,.47-.08.75.75,0,0,0,.33-.18.49.49,0,0,0,.12-.36.53.53,0,0,0-.1-.34.72.72,0,0,0-.25-.21,1.15,1.15,0,0,0-.33-.1l-.35,0a1.36,1.36,0,0,0-.76.19.74.74,0,0,0-.33.6h-1.1a1.61,1.61,0,0,1,.23-.8,1.55,1.55,0,0,1,.51-.51,2.09,2.09,0,0,1,.71-.27,4.28,4.28,0,0,1,.81-.08,3.53,3.53,0,0,1,.72.08,2.14,2.14,0,0,1,.64.25,1.41,1.41,0,0,1,.46.45,1.26,1.26,0,0,1,.17.67Zm-1.09-1.39a1.34,1.34,0,0,1-.62.2c-.25,0-.49.06-.73.1L239,257a1.13,1.13,0,0,0-.29.15.68.68,0,0,0-.2.24,1,1,0,0,0-.07.36.49.49,0,0,0,.11.31.67.67,0,0,0,.25.19.91.91,0,0,0,.33.1l.32,0a1.94,1.94,0,0,0,.4,0,1.55,1.55,0,0,0,.4-.17,1.07,1.07,0,0,0,.31-.29.79.79,0,0,0,.13-.44Z"/><path class="cls-5" d="M243,254.18h1v.75a1.87,1.87,0,0,1,.66-.65,1.72,1.72,0,0,1,.89-.24,1.81,1.81,0,0,1,1.29.43,1.59,1.59,0,0,1,.48,1.27v3.41h-1.1V256a1.38,1.38,0,0,0-.25-.86.93.93,0,0,0-.72-.26,1.12,1.12,0,0,0-.5.1,1.08,1.08,0,0,0-.38.28,1.46,1.46,0,0,0-.33.93v2.93H243Z"/><path class="cls-5" d="M248.62,257.85H250v1.3h-1.34Z"/><path class="cls-5" d="M253.39,254.18h1.2l1.26,3.82h0l1.21-3.82h1.14l-1.79,5H255.2Z"/><path class="cls-5" d="M259.74,257a1.77,1.77,0,0,0,.08.56,1.31,1.31,0,0,0,.24.47,1.23,1.23,0,0,0,.42.32,1.32,1.32,0,0,0,.59.12,1.39,1.39,0,0,0,.78-.2,1.3,1.3,0,0,0,.44-.63h1a2.16,2.16,0,0,1-.3.73,2,2,0,0,1-.51.53,2.21,2.21,0,0,1-.67.33,2.88,2.88,0,0,1-.78.11,2.74,2.74,0,0,1-1-.19,2.14,2.14,0,0,1-.77-.54,2.19,2.19,0,0,1-.47-.83,3.23,3.23,0,0,1-.16-1.06,3,3,0,0,1,.17-1,2.49,2.49,0,0,1,.48-.84,2.33,2.33,0,0,1,.75-.57,2.21,2.21,0,0,1,1-.22,2.26,2.26,0,0,1,1.05.25,2.21,2.21,0,0,1,.77.65,2.52,2.52,0,0,1,.45.93,2.61,2.61,0,0,1,.07,1.08Zm2.56-.72a2,2,0,0,0-.11-.5,1.46,1.46,0,0,0-.25-.42,1.24,1.24,0,0,0-.39-.29,1.18,1.18,0,0,0-.5-.11,1.29,1.29,0,0,0-.53.1,1.15,1.15,0,0,0-.4.28,1.17,1.17,0,0,0-.27.42,1.27,1.27,0,0,0-.11.52Z"/><path class="cls-5" d="M266.41,252.28H272v1h-2.18v5.83h-1.21v-5.83h-2.17Z"/><path class="cls-5" d="M272.65,252.28h1.09v1h-1.09Zm0,1.9h1.09v5h-1.09Z"/><path class="cls-5" d="M278.3,255.84a1,1,0,0,0-.38-.69,1.17,1.17,0,0,0-.76-.24,1.5,1.5,0,0,0-.45.07,1.18,1.18,0,0,0-.45.27,1.61,1.61,0,0,0-.33.55,2.58,2.58,0,0,0-.14.92,3.27,3.27,0,0,0,.07.62,1.65,1.65,0,0,0,.24.54,1.24,1.24,0,0,0,.4.39,1.17,1.17,0,0,0,.61.15,1.12,1.12,0,0,0,.8-.3,1.44,1.44,0,0,0,.39-.83h1.09a2.4,2.4,0,0,1-.73,1.48,2.24,2.24,0,0,1-1.55.52,2.56,2.56,0,0,1-1-.2,2.19,2.19,0,0,1-.76-.54,2.4,2.4,0,0,1-.47-.81,3.31,3.31,0,0,1-.15-1,3.6,3.6,0,0,1,.15-1.05,2.4,2.4,0,0,1,.46-.85,2.21,2.21,0,0,1,.77-.57,2.52,2.52,0,0,1,1.07-.21,3.12,3.12,0,0,1,.82.11,2.4,2.4,0,0,1,.7.34,1.73,1.73,0,0,1,.49.55,1.87,1.87,0,0,1,.23.8Z"/><path class="cls-5" d="M280.37,257.85h1.34v1.3h-1.34Z"/><path class="cls-5" d="M287.63,252.28h1.28l2.65,6.87h-1.29l-.64-1.81h-2.75l-.64,1.81H285Zm-.42,4.14h2.1l-1-3h0Z"/><path class="cls-5" d="M292.15,257.85h1.34v1.3h-1.34Z"/><path class="cls-5" d="M295.66,260.69a1.84,1.84,0,0,0,.32.12,1,1,0,0,0,.31,0l.2,0,.19-.05a.33.33,0,0,0,.14-.12.35.35,0,0,0,.05-.21.29.29,0,0,0-.14-.27.53.53,0,0,0-.3-.09.72.72,0,0,0-.37.09l-.22-.18.54-.72a3.51,3.51,0,0,1-.58-.1,1.83,1.83,0,0,1-.69-.32,1.42,1.42,0,0,1-.46-.54,1.53,1.53,0,0,1-.18-.76h1.09a.85.85,0,0,0,.37.67,1.43,1.43,0,0,0,.76.19,2.24,2.24,0,0,0,.35,0,2,2,0,0,0,.37-.09.75.75,0,0,0,.29-.2.53.53,0,0,0,.1-.34.5.5,0,0,0-.16-.35,1,1,0,0,0-.37-.21,2.36,2.36,0,0,0-.51-.14l-.59-.13a5.69,5.69,0,0,1-.59-.16,2,2,0,0,1-.51-.26,1.22,1.22,0,0,1-.36-.42,1.33,1.33,0,0,1-.14-.63,1.14,1.14,0,0,1,.2-.68,1.52,1.52,0,0,1,.5-.44,2.14,2.14,0,0,1,.67-.24,4.6,4.6,0,0,1,.71-.07,3,3,0,0,1,.74.09,2,2,0,0,1,.63.26,1.57,1.57,0,0,1,.48.48,1.65,1.65,0,0,1,.23.7h-1.14a.73.73,0,0,0-.36-.53,1.51,1.51,0,0,0-.65-.13l-.28,0a1.63,1.63,0,0,0-.3.07.76.76,0,0,0-.23.15.36.36,0,0,0-.1.27.45.45,0,0,0,.14.33,1,1,0,0,0,.37.2,3.12,3.12,0,0,0,.51.14l.6.13c.2,0,.39.1.59.16a2,2,0,0,1,.51.26,1.37,1.37,0,0,1,.37.42,1.25,1.25,0,0,1,.14.61,1.28,1.28,0,0,1-.21.75,1.46,1.46,0,0,1-.52.5,2.51,2.51,0,0,1-.72.28,3.19,3.19,0,0,1-.61.08l-.34.44h0l.13,0h.19a.92.92,0,0,1,.28.05.71.71,0,0,1,.26.13.74.74,0,0,1,.2.23.63.63,0,0,1,.07.32.76.76,0,0,1-.1.41.75.75,0,0,1-.27.26,1.38,1.38,0,0,1-.37.16,2,2,0,0,1-.42.05,3.07,3.07,0,0,1-.53-.05,1.68,1.68,0,0,1-.46-.17Z"/><path class="cls-5" d="M299.82,257.85h1.34v1.3h-1.34Z"/><path class="cls-5" d="M302.57,254.44a.56.56,0,0,0,.47-.3,1.25,1.25,0,0,0,.12-.56h-.59v-1.3h1.21v1.3a1.43,1.43,0,0,1-.33.95,1.36,1.36,0,0,1-.88.47Z"/><path class="cls-5" d="M304.54,254.18h1.2l1.3,3.71h0l1.26-3.71h1.14l-1.93,5.24c-.09.23-.18.44-.27.65a2.18,2.18,0,0,1-.31.54,1.46,1.46,0,0,1-.47.38,1.63,1.63,0,0,1-.71.14,4.77,4.77,0,0,1-.76-.06v-.92l.26,0a1.1,1.1,0,0,0,.26,0,.9.9,0,0,0,.31,0,.55.55,0,0,0,.21-.14.83.83,0,0,0,.14-.22,1.6,1.6,0,0,0,.11-.29l.12-.39Z"/><path class="cls-5" d="M310.94,257a1.77,1.77,0,0,0,.08.56,1.49,1.49,0,0,0,.24.47,1.23,1.23,0,0,0,.42.32,1.57,1.57,0,0,0,1.37-.08,1.24,1.24,0,0,0,.44-.63h1a2.16,2.16,0,0,1-.3.73,2,2,0,0,1-.51.53,2.21,2.21,0,0,1-.67.33,2.87,2.87,0,0,1-.77.11,2.76,2.76,0,0,1-1-.19,2.14,2.14,0,0,1-.77-.54,2.19,2.19,0,0,1-.47-.83,3.23,3.23,0,0,1-.16-1.06,3,3,0,0,1,.17-1,2.49,2.49,0,0,1,.48-.84,2.27,2.27,0,0,1,.76-.57,2.14,2.14,0,0,1,1-.22,2.26,2.26,0,0,1,1.05.25,2.34,2.34,0,0,1,.78.65,2.66,2.66,0,0,1,.44.93,2.8,2.8,0,0,1,.08,1.08Zm2.56-.72a2,2,0,0,0-.11-.5,1.46,1.46,0,0,0-.25-.42,1.24,1.24,0,0,0-.39-.29,1.18,1.18,0,0,0-.5-.11,1.29,1.29,0,0,0-.53.1,1.15,1.15,0,0,0-.4.28,1.51,1.51,0,0,0-.27.42,1.27,1.27,0,0,0-.11.52Z"/><path class="cls-5" d="M317.56,254.18h1.2l1.3,3.71h0l1.26-3.71h1.15l-1.94,5.24c-.09.23-.17.44-.26.65a2.2,2.2,0,0,1-.32.54,1.36,1.36,0,0,1-.47.38,1.6,1.6,0,0,1-.71.14,4.87,4.87,0,0,1-.76-.06v-.92l.26,0a1.1,1.1,0,0,0,.26,0,1,1,0,0,0,.32,0,.77.77,0,0,0,.21-.14,1.18,1.18,0,0,0,.14-.22c0-.08.07-.18.1-.29l.13-.39Z"/><path class="cls-5" d="M324,257a2.1,2.1,0,0,0,.08.56,1.51,1.51,0,0,0,.25.47,1.3,1.3,0,0,0,.41.32,1.4,1.4,0,0,0,.6.12,1.35,1.35,0,0,0,.77-.2,1.18,1.18,0,0,0,.44-.63h1a2.16,2.16,0,0,1-.3.73,2,2,0,0,1-.51.53,2.21,2.21,0,0,1-.67.33,2.76,2.76,0,0,1-.77.11,2.79,2.79,0,0,1-1-.19,2.23,2.23,0,0,1-.77-.54,2.49,2.49,0,0,1-.47-.83,3.52,3.52,0,0,1-.16-1.06,3,3,0,0,1,.17-1,2.49,2.49,0,0,1,.48-.84,2.27,2.27,0,0,1,.76-.57,2.16,2.16,0,0,1,1-.22,2.29,2.29,0,0,1,1.83.9,2.87,2.87,0,0,1,.45.93,3,3,0,0,1,.07,1.08Zm2.56-.72a1.65,1.65,0,0,0-.11-.5,1.27,1.27,0,0,0-.25-.42,1.2,1.2,0,0,0-.38-.29,1.32,1.32,0,0,0-1,0,1.2,1.2,0,0,0-.41.28,1.51,1.51,0,0,0-.27.42,1.46,1.46,0,0,0-.11.52Z"/><path class="cls-5" d="M328,254.18h.82v-1.49h1.1v1.49h1V255h-1v2.65a2.36,2.36,0,0,0,0,.3.58.58,0,0,0,.06.21.34.34,0,0,0,.16.13.76.76,0,0,0,.29,0h.23a.85.85,0,0,0,.23,0v.84l-.35,0a2.17,2.17,0,0,1-.36,0,2.28,2.28,0,0,1-.7-.08.88.88,0,0,1-.41-.24.8.8,0,0,1-.2-.4,2.84,2.84,0,0,1-.07-.55V255H328Z"/><path class="cls-5" d="M331.69,252.28h1.1v3.91l2-2h1.35L334.21,256l2.09,3.14H335l-1.52-2.41-.65.63v1.78h-1.1Z"/><path class="cls-5" d="M336.86,252.28H338v1h-1.1Zm0,1.9H338v5h-1.1Z"/><path class="cls-5" d="M339.18,252.28h1.1v6.87h-1.1Z"/><path class="cls-5" d="M341.5,252.28h1.1v1h-1.1Zm0,1.9h1.1v5h-1.1Z"/><path class="cls-5" d="M346.5,252.28h1.09v3.91l2-2h1.34L349,256l2.09,3.14h-1.34l-1.52-2.41-.66.63v1.78H346.5Z"/><path class="cls-5" d="M356,259.15h-1.08v-.69h0a1.57,1.57,0,0,1-.6.6,1.67,1.67,0,0,1-.82.23,1.83,1.83,0,0,1-1.42-.49,2.12,2.12,0,0,1-.43-1.46v-3.16h1.09v3.05a1.37,1.37,0,0,0,.25.92.92.92,0,0,0,.71.27,1.35,1.35,0,0,0,.57-.1,1,1,0,0,0,.38-.29,1.33,1.33,0,0,0,.21-.43,2.2,2.2,0,0,0,.06-.53v-2.89H356Z"/><path class="cls-5" d="M357.16,254.18h1v1h0a.94.94,0,0,1,.19-.39,1.86,1.86,0,0,1,.33-.36,1.92,1.92,0,0,1,.44-.25,1.43,1.43,0,0,1,.49-.1h.27l.15,0v1.06l-.24,0-.23,0a1.32,1.32,0,0,0-.53.11,1.37,1.37,0,0,0-.43.33,1.69,1.69,0,0,0-.29.53,2.41,2.41,0,0,0-.1.74v2.36h-1.1Z"/><path class="cls-5" d="M364.92,259.15h-1.08v-.69h0a1.45,1.45,0,0,1-.6.6,1.66,1.66,0,0,1-.81.23,1.8,1.8,0,0,1-1.42-.49,2.07,2.07,0,0,1-.44-1.46v-3.16h1.1v3.05a1.32,1.32,0,0,0,.25.92.9.9,0,0,0,.7.27,1.44,1.44,0,0,0,.58-.1,1,1,0,0,0,.37-.29,1,1,0,0,0,.21-.43,2.2,2.2,0,0,0,.06-.53v-2.89h1.1Z"/><path class="cls-5" d="M366.07,254.18h1v.69h0l.27-.34a1.92,1.92,0,0,1,.32-.26,1.67,1.67,0,0,1,.41-.16,1.74,1.74,0,0,1,.53-.07,1.78,1.78,0,0,1,.85.21,1.12,1.12,0,0,1,.55.62,2.17,2.17,0,0,1,.64-.61,1.84,1.84,0,0,1,.92-.22,1.81,1.81,0,0,1,1.23.39,1.63,1.63,0,0,1,.43,1.29v3.43H372.2v-2.9c0-.2,0-.38,0-.55a1.29,1.29,0,0,0-.11-.42.61.61,0,0,0-.28-.27,1,1,0,0,0-.5-.1.92.92,0,0,0-.81.35,1.69,1.69,0,0,0-.25,1v2.91h-1.09V256a1.41,1.41,0,0,0-.19-.79.82.82,0,0,0-.69-.26,1,1,0,0,0-.41.09.94.94,0,0,0-.35.25,1.22,1.22,0,0,0-.24.4,1.55,1.55,0,0,0-.09.55v2.95h-1.1Z"/><path class="cls-5" d="M376.62,254.18h.83v-1.49h1.1v1.49h1V255h-1v2.65a2.63,2.63,0,0,0,0,.3.58.58,0,0,0,.07.21.34.34,0,0,0,.16.13.76.76,0,0,0,.29,0h.23a.91.91,0,0,0,.23,0v.84l-.35,0a2.17,2.17,0,0,1-.36,0,2.28,2.28,0,0,1-.7-.08.83.83,0,0,1-.41-.24.9.9,0,0,1-.21-.4,4,4,0,0,1-.06-.55V255h-.83Z"/><path class="cls-5" d="M384.5,258.05a.69.69,0,0,0,.05.29.26.26,0,0,0,.21.08h.11a.47.47,0,0,0,.16,0v.76l-.15,0-.19,0-.19,0h-.17a1,1,0,0,1-.55-.14.64.64,0,0,1-.29-.47,1.91,1.91,0,0,1-.81.46,3,3,0,0,1-.92.15,2.3,2.3,0,0,1-.64-.09,1.52,1.52,0,0,1-.54-.27,1.27,1.27,0,0,1-.38-.45,1.47,1.47,0,0,1-.14-.64,1.49,1.49,0,0,1,.17-.75,1.22,1.22,0,0,1,.44-.46,1.77,1.77,0,0,1,.62-.23,5.5,5.5,0,0,1,.69-.11l.56-.09a2.18,2.18,0,0,0,.48-.08.75.75,0,0,0,.33-.18.49.49,0,0,0,.12-.36.53.53,0,0,0-.1-.34.72.72,0,0,0-.25-.21,1.15,1.15,0,0,0-.33-.1l-.35,0a1.36,1.36,0,0,0-.76.19.77.77,0,0,0-.34.6h-1.1a1.61,1.61,0,0,1,.24-.8,1.55,1.55,0,0,1,.51-.51,2,2,0,0,1,.71-.27,4.28,4.28,0,0,1,.81-.08,3.53,3.53,0,0,1,.72.08,2.14,2.14,0,0,1,.64.25,1.41,1.41,0,0,1,.46.45,1.26,1.26,0,0,1,.17.67Zm-1.1-1.39a1.3,1.3,0,0,1-.61.2c-.25,0-.49.06-.74.1l-.33.08a1.13,1.13,0,0,0-.29.15.59.59,0,0,0-.2.24.8.8,0,0,0-.07.36.48.48,0,0,0,.1.31.7.7,0,0,0,.26.19.91.91,0,0,0,.33.1l.32,0a1.84,1.84,0,0,0,.39,0,1.42,1.42,0,0,0,.4-.17,1.11,1.11,0,0,0,.32-.29.78.78,0,0,0,.12-.44Z"/><path class="cls-5" d="M385.68,254.18h1v1h0a1.09,1.09,0,0,1,.19-.39,1.64,1.64,0,0,1,.34-.36,1.67,1.67,0,0,1,.43-.25,1.44,1.44,0,0,1,.5-.1h.26l.15,0v1.06l-.24,0-.23,0a1.36,1.36,0,0,0-.53.11,1.5,1.5,0,0,0-.43.33,1.67,1.67,0,0,0-.28.53,2.13,2.13,0,0,0-.11.74v2.36h-1.1Z"/><path class="cls-5" d="M393.24,258.05a.69.69,0,0,0,.05.29.26.26,0,0,0,.21.08h.11a.47.47,0,0,0,.16,0v.76l-.15,0-.19,0-.19,0h-.16a1,1,0,0,1-.56-.14.64.64,0,0,1-.29-.47,1.91,1.91,0,0,1-.81.46,3,3,0,0,1-.92.15,2.3,2.3,0,0,1-.64-.09,1.52,1.52,0,0,1-.54-.27,1.27,1.27,0,0,1-.38-.45,1.47,1.47,0,0,1-.14-.64,1.49,1.49,0,0,1,.17-.75,1.22,1.22,0,0,1,.44-.46,1.85,1.85,0,0,1,.62-.23,5.5,5.5,0,0,1,.69-.11l.56-.09a2.18,2.18,0,0,0,.48-.08.75.75,0,0,0,.33-.18.49.49,0,0,0,.12-.36.53.53,0,0,0-.1-.34.72.72,0,0,0-.25-.21,1.15,1.15,0,0,0-.33-.1l-.35,0a1.36,1.36,0,0,0-.76.19.77.77,0,0,0-.34.6H389a1.61,1.61,0,0,1,.24-.8,1.55,1.55,0,0,1,.51-.51,2,2,0,0,1,.71-.27,4.28,4.28,0,0,1,.81-.08,3.53,3.53,0,0,1,.72.08,2.14,2.14,0,0,1,.64.25,1.41,1.41,0,0,1,.46.45,1.26,1.26,0,0,1,.17.67Zm-1.1-1.39a1.3,1.3,0,0,1-.61.2c-.25,0-.49.06-.74.1l-.33.08a1.13,1.13,0,0,0-.29.15.59.59,0,0,0-.2.24.8.8,0,0,0-.07.36.48.48,0,0,0,.1.31.79.79,0,0,0,.26.19.91.91,0,0,0,.33.1l.32,0a1.84,1.84,0,0,0,.39,0,1.42,1.42,0,0,0,.4-.17,1.11,1.11,0,0,0,.32-.29.78.78,0,0,0,.12-.44Z"/><path class="cls-5" d="M393.93,254.18h.82v-.42a2,2,0,0,1,.12-.76.94.94,0,0,1,.3-.45,1.08,1.08,0,0,1,.44-.22,3,3,0,0,1,.52-.05,2.89,2.89,0,0,1,.77.07v.86l-.23-.05h-.28a.65.65,0,0,0-.38.1.46.46,0,0,0-.16.42v.51h.93V255h-.93v4.15h-1.1V255h-.82Z"/><path class="cls-5" d="M397.48,259.15v-5h1.1v5Z"/><path class="cls-5" d="M399.77,254.18h1v.73l0,0a1.87,1.87,0,0,1,.66-.65,1.72,1.72,0,0,1,.89-.24,1.81,1.81,0,0,1,1.29.43,1.59,1.59,0,0,1,.48,1.27v3.41h-1.1V256a1.44,1.44,0,0,0-.25-.86,1,1,0,0,0-.72-.26,1.19,1.19,0,0,0-.51.1,1.13,1.13,0,0,0-.37.28,1.46,1.46,0,0,0-.33.93v2.93h-1.1Z"/><path class="cls-5" d="M410,259.15h-1v-.67h0a1.27,1.27,0,0,1-.65.62,2.09,2.09,0,0,1-.89.19,2.4,2.4,0,0,1-1-.21,2,2,0,0,1-.72-.56,2.41,2.41,0,0,1-.44-.84,3.92,3.92,0,0,1-.14-1.05,3.37,3.37,0,0,1,.18-1.16,2.31,2.31,0,0,1,.49-.81,1.89,1.89,0,0,1,.69-.47,2.22,2.22,0,0,1,.8-.15,2.59,2.59,0,0,1,.47.05,1.88,1.88,0,0,1,.46.14,1.69,1.69,0,0,1,.41.24,1.47,1.47,0,0,1,.31.35h0v-2.54H410Zm-3.83-2.43a2.15,2.15,0,0,0,.08.62,1.63,1.63,0,0,0,.25.55,1.24,1.24,0,0,0,.43.39,1.2,1.2,0,0,0,.61.14,1.22,1.22,0,0,0,.63-.15,1.33,1.33,0,0,0,.44-.41,1.91,1.91,0,0,0,.25-.56,2.74,2.74,0,0,0,.08-.64,2,2,0,0,0-.37-1.29,1.22,1.22,0,0,0-1-.46,1.23,1.23,0,0,0-.65.16,1.3,1.3,0,0,0-.43.41,1.77,1.77,0,0,0-.24.58A2.84,2.84,0,0,0,406.16,256.72Z"/><path class="cls-5" d="M415.35,258.05a.69.69,0,0,0,0,.29.26.26,0,0,0,.21.08h.11a.47.47,0,0,0,.16,0v.76l-.15,0-.19,0-.19,0h-.16a1,1,0,0,1-.56-.14.64.64,0,0,1-.29-.47,1.91,1.91,0,0,1-.81.46,3,3,0,0,1-.91.15,2.32,2.32,0,0,1-.65-.09,1.61,1.61,0,0,1-.54-.27,1.27,1.27,0,0,1-.38-.45,1.47,1.47,0,0,1-.14-.64,1.49,1.49,0,0,1,.17-.75,1.22,1.22,0,0,1,.44-.46,1.85,1.85,0,0,1,.62-.23,5.5,5.5,0,0,1,.69-.11l.57-.09a2.19,2.19,0,0,0,.47-.08.75.75,0,0,0,.33-.18.49.49,0,0,0,.12-.36.53.53,0,0,0-.1-.34A.72.72,0,0,0,414,255a1.15,1.15,0,0,0-.33-.1l-.35,0a1.36,1.36,0,0,0-.76.19.77.77,0,0,0-.34.6h-1.1a1.61,1.61,0,0,1,.24-.8,1.55,1.55,0,0,1,.51-.51,2,2,0,0,1,.71-.27,4.28,4.28,0,0,1,.81-.08,3.53,3.53,0,0,1,.72.08,2.14,2.14,0,0,1,.64.25,1.41,1.41,0,0,1,.46.45,1.26,1.26,0,0,1,.17.67Zm-1.1-1.39a1.3,1.3,0,0,1-.61.2c-.25,0-.49.06-.74.1l-.33.08a1.13,1.13,0,0,0-.29.15.59.59,0,0,0-.2.24.8.8,0,0,0-.07.36.48.48,0,0,0,.1.31.79.79,0,0,0,.26.19.91.91,0,0,0,.33.1l.32,0a1.84,1.84,0,0,0,.39,0,1.31,1.31,0,0,0,.4-.17,1.11,1.11,0,0,0,.32-.29.78.78,0,0,0,.12-.44Z"/><path class="cls-5" d="M416.53,254.18h1v.73l0,0a1.87,1.87,0,0,1,.66-.65,1.7,1.7,0,0,1,.89-.24,1.81,1.81,0,0,1,1.29.43,1.59,1.59,0,0,1,.47,1.27v3.41h-1.09V256a1.44,1.44,0,0,0-.25-.86,1,1,0,0,0-.73-.26,1.18,1.18,0,0,0-.5.1,1.13,1.13,0,0,0-.37.28,1.46,1.46,0,0,0-.33.93v2.93h-1.1Z"/><path class="cls-5" d="M424.23,254.18h.83v-1.49h1.1v1.49h1V255h-1v2.65a2.63,2.63,0,0,0,0,.3.58.58,0,0,0,.07.21.34.34,0,0,0,.16.13.76.76,0,0,0,.29,0h.23a.91.91,0,0,0,.23,0v.84l-.36,0a2,2,0,0,1-.35,0,2.28,2.28,0,0,1-.7-.08.83.83,0,0,1-.41-.24.9.9,0,0,1-.21-.4,4,4,0,0,1-.06-.55V255h-.83Z"/><path class="cls-5" d="M428.8,257a1.77,1.77,0,0,0,.08.56,1.31,1.31,0,0,0,.24.47,1.23,1.23,0,0,0,.42.32,1.32,1.32,0,0,0,.59.12,1.39,1.39,0,0,0,.78-.2,1.3,1.3,0,0,0,.44-.63h1a2.16,2.16,0,0,1-.3.73,2,2,0,0,1-.51.53,2.21,2.21,0,0,1-.67.33,2.88,2.88,0,0,1-.78.11,2.74,2.74,0,0,1-1-.19,2.14,2.14,0,0,1-.77-.54,2.19,2.19,0,0,1-.47-.83,3.23,3.23,0,0,1-.16-1.06,3,3,0,0,1,.17-1,2.49,2.49,0,0,1,.48-.84,2.33,2.33,0,0,1,.75-.57,2.21,2.21,0,0,1,1-.22,2.26,2.26,0,0,1,1.05.25,2.21,2.21,0,0,1,.77.65,2.52,2.52,0,0,1,.45.93,2.61,2.61,0,0,1,.07,1.08Zm2.56-.72a2,2,0,0,0-.11-.5,1.46,1.46,0,0,0-.25-.42,1.24,1.24,0,0,0-.39-.29,1.18,1.18,0,0,0-.5-.11,1.29,1.29,0,0,0-.53.1,1.15,1.15,0,0,0-.4.28,1.17,1.17,0,0,0-.27.42,1.27,1.27,0,0,0-.11.52Z"/><path class="cls-5" d="M434.12,257.56a.8.8,0,0,0,.37.67,1.41,1.41,0,0,0,.76.19,2,2,0,0,0,.72-.11.72.72,0,0,0,.28-.2.43.43,0,0,0,.1-.34.45.45,0,0,0-.15-.35,1,1,0,0,0-.37-.21,2.3,2.3,0,0,0-.52-.14l-.58-.13a5.25,5.25,0,0,1-.6-.16,2,2,0,0,1-.51-.26,1.22,1.22,0,0,1-.36-.42,1.34,1.34,0,0,1-.13-.63,1.08,1.08,0,0,1,.2-.68,1.42,1.42,0,0,1,.5-.44,2.05,2.05,0,0,1,.67-.24,4.49,4.49,0,0,1,.71-.07,2.92,2.92,0,0,1,.73.09,1.92,1.92,0,0,1,.64.26,1.44,1.44,0,0,1,.47.48,1.66,1.66,0,0,1,.24.7h-1.15a.68.68,0,0,0-.36-.53,1.51,1.51,0,0,0-.65-.13l-.27,0a1.32,1.32,0,0,0-.3.07.82.82,0,0,0-.24.15.4.4,0,0,0-.09.27.42.42,0,0,0,.14.33,1,1,0,0,0,.36.2,3,3,0,0,0,.52.14l.59.13a5.69,5.69,0,0,1,.59.16,2,2,0,0,1,.51.26,1.15,1.15,0,0,1,.37.42,1.25,1.25,0,0,1,.14.61,1.35,1.35,0,0,1-.2.75,1.49,1.49,0,0,1-.53.5,2.34,2.34,0,0,1-.71.28,3.59,3.59,0,0,1-.78.09,3.34,3.34,0,0,1-.87-.11,2,2,0,0,1-.7-.32,1.51,1.51,0,0,1-.46-.54,1.77,1.77,0,0,1-.18-.76Z"/><path class="cls-5" d="M441.65,255.84a1,1,0,0,0-.37-.69,1.22,1.22,0,0,0-.77-.24,1.5,1.5,0,0,0-.45.07,1.07,1.07,0,0,0-.44.27,1.48,1.48,0,0,0-.34.55,2.58,2.58,0,0,0-.14.92,2.64,2.64,0,0,0,.08.62,1.63,1.63,0,0,0,.23.54,1.18,1.18,0,0,0,.41.39,1.14,1.14,0,0,0,.6.15,1.12,1.12,0,0,0,.8-.3,1.33,1.33,0,0,0,.39-.83h1.1a2.41,2.41,0,0,1-.74,1.48,2.24,2.24,0,0,1-1.55.52,2.56,2.56,0,0,1-1-.2,2.19,2.19,0,0,1-.76-.54,2.22,2.22,0,0,1-.46-.81,3,3,0,0,1-.16-1,3.6,3.6,0,0,1,.15-1.05,2.4,2.4,0,0,1,.46-.85,2.21,2.21,0,0,1,.77-.57,2.52,2.52,0,0,1,1.07-.21,3.26,3.26,0,0,1,.83.11,2.34,2.34,0,0,1,.69.34,1.62,1.62,0,0,1,.49.55,2,2,0,0,1,.24.8Z"/><path class="cls-5" d="M443.67,252.28h1.1v1h-1.1Zm0,1.9h1.1v5h-1.1Z"/><path class="cls-5" d="M446,252.28h1.1v6.87H446Z"/><path class="cls-5" d="M451.81,257a2.1,2.1,0,0,0,.08.56,1.51,1.51,0,0,0,.25.47,1.3,1.3,0,0,0,.41.32,1.59,1.59,0,0,0,1.38-.08,1.23,1.23,0,0,0,.43-.63h1a1.82,1.82,0,0,1-.3.73,2,2,0,0,1-.51.53,2.15,2.15,0,0,1-.66.33,2.88,2.88,0,0,1-.78.11,2.79,2.79,0,0,1-1-.19,2.1,2.1,0,0,1-.76-.54,2.35,2.35,0,0,1-.48-.83,3.53,3.53,0,0,1-.15-1.06,3,3,0,0,1,.16-1,2.69,2.69,0,0,1,.49-.84,2.23,2.23,0,0,1,.75-.57,2.19,2.19,0,0,1,1-.22,2.33,2.33,0,0,1,1.06.25,2.21,2.21,0,0,1,.77.65,2.52,2.52,0,0,1,.45.93,2.8,2.8,0,0,1,.07,1.08Zm2.56-.72a1.65,1.65,0,0,0-.11-.5,1.27,1.27,0,0,0-.25-.42,1.1,1.1,0,0,0-.38-.29,1.19,1.19,0,0,0-.51-.11,1.24,1.24,0,0,0-.52.1,1.3,1.3,0,0,0-.41.28,1.51,1.51,0,0,0-.27.42,1.72,1.72,0,0,0-.11.52Z"/><path class="cls-5" d="M461,259.15h-1v-.67h0a1.3,1.3,0,0,1-.65.62,2.09,2.09,0,0,1-.89.19,2.37,2.37,0,0,1-1-.21,2,2,0,0,1-.72-.56,2.41,2.41,0,0,1-.44-.84,3.92,3.92,0,0,1-.14-1.05,3.37,3.37,0,0,1,.18-1.16,2.17,2.17,0,0,1,.49-.81,1.89,1.89,0,0,1,.69-.47,2.17,2.17,0,0,1,.79-.15,2.7,2.7,0,0,1,.48.05,1.88,1.88,0,0,1,.46.14,1.91,1.91,0,0,1,.41.24,1.47,1.47,0,0,1,.31.35h0v-2.54H461Zm-3.84-2.43a2.16,2.16,0,0,0,.09.62,1.46,1.46,0,0,0,.25.55,1.24,1.24,0,0,0,.43.39,1.17,1.17,0,0,0,.61.14,1.22,1.22,0,0,0,.63-.15,1.21,1.21,0,0,0,.43-.41,1.7,1.7,0,0,0,.26-.56,2.74,2.74,0,0,0,.08-.64,2.06,2.06,0,0,0-.37-1.29,1.23,1.23,0,0,0-1-.46,1.23,1.23,0,0,0-1.08.57,1.77,1.77,0,0,0-.24.58A2.84,2.84,0,0,0,457.16,256.72Z"/><path class="cls-5" d="M462.22,252.28h1.1v1h-1.1Zm0,1.9h1.1v5h-1.1Z"/><path class="cls-5" d="M464.54,252.28h1.1v6.87h-1.1Z"/><path class="cls-5" d="M466.83,254.18h1v.69h0a2.88,2.88,0,0,1,.27-.34,1.35,1.35,0,0,1,.32-.26,1.52,1.52,0,0,1,.41-.16,1.7,1.7,0,0,1,.53-.07,1.74,1.74,0,0,1,.84.21,1.12,1.12,0,0,1,.55.62,2.21,2.21,0,0,1,.65-.61,1.8,1.8,0,0,1,.91-.22,1.78,1.78,0,0,1,1.23.39,1.63,1.63,0,0,1,.44,1.29v3.43H473v-2.9c0-.2,0-.38,0-.55a1.08,1.08,0,0,0-.11-.42.59.59,0,0,0-.27-.27,1,1,0,0,0-.5-.1.9.9,0,0,0-.81.35,1.61,1.61,0,0,0-.25,1v2.91h-1.1V256a1.34,1.34,0,0,0-.19-.79.8.8,0,0,0-.69-.26,1,1,0,0,0-.41.09.91.91,0,0,0-.34.25,1.22,1.22,0,0,0-.24.4,1.55,1.55,0,0,0-.09.55v2.95h-1.1Z"/><path class="cls-5" d="M475.23,252.28h1.1v1h-1.1Zm0,1.9h1.1v5h-1.1Z"/><path class="cls-5" d="M478.45,260.69a1.59,1.59,0,0,0,.32.12,1,1,0,0,0,.3,0l.21,0,.19-.05a.41.41,0,0,0,.14-.12.43.43,0,0,0,.05-.21.31.31,0,0,0-.14-.27.53.53,0,0,0-.3-.09.79.79,0,0,0-.38.09l-.21-.18.54-.72a3.63,3.63,0,0,1-.59-.1,2,2,0,0,1-.69-.32,1.51,1.51,0,0,1-.46-.54,1.77,1.77,0,0,1-.18-.76h1.1a.83.83,0,0,0,.37.67,1.41,1.41,0,0,0,.76.19,2,2,0,0,0,.72-.11.72.72,0,0,0,.28-.2.43.43,0,0,0,.1-.34.45.45,0,0,0-.15-.35,1,1,0,0,0-.37-.21,2.3,2.3,0,0,0-.52-.14l-.58-.13a4.59,4.59,0,0,1-.59-.16,2,2,0,0,1-.51-.26,1.15,1.15,0,0,1-.37-.42,1.34,1.34,0,0,1-.13-.63,1.14,1.14,0,0,1,.2-.68,1.52,1.52,0,0,1,.5-.44,2.05,2.05,0,0,1,.67-.24,4.49,4.49,0,0,1,.71-.07,3,3,0,0,1,.74.09,2,2,0,0,1,.63.26,1.44,1.44,0,0,1,.47.48,1.53,1.53,0,0,1,.24.7h-1.15A.68.68,0,0,0,480,255a1.48,1.48,0,0,0-.65-.13l-.27,0a1.32,1.32,0,0,0-.3.07,1,1,0,0,0-.24.15.4.4,0,0,0-.09.27.42.42,0,0,0,.14.33,1,1,0,0,0,.36.2,3.25,3.25,0,0,0,.52.14l.59.13a5.69,5.69,0,0,1,.59.16,2.11,2.11,0,0,1,.52.26,1.22,1.22,0,0,1,.36.42,1.15,1.15,0,0,1,.14.61,1.35,1.35,0,0,1-.2.75,1.55,1.55,0,0,1-.52.5,2.51,2.51,0,0,1-.72.28,3.29,3.29,0,0,1-.62.08l-.33.44h0l.14,0h.18a1,1,0,0,1,.29.05.79.79,0,0,1,.26.13.71.71,0,0,1,.19.23.63.63,0,0,1,.08.32.68.68,0,0,1-.11.41.81.81,0,0,1-.26.26,1.45,1.45,0,0,1-.38.16,1.84,1.84,0,0,1-.41.05,3.07,3.07,0,0,1-.53-.05,1.88,1.88,0,0,1-.47-.17Z"/><path class="cls-5" d="M482,254.18h.83v-1.49h1.09v1.49h1V255h-1v2.65a2.36,2.36,0,0,0,0,.3.44.44,0,0,0,.07.21.28.28,0,0,0,.15.13.79.79,0,0,0,.29,0h.23l.24,0v.84l-.36,0a2.11,2.11,0,0,1-.36,0,2.17,2.17,0,0,1-.69-.08.86.86,0,0,1-.42-.24.8.8,0,0,1-.2-.4,2.26,2.26,0,0,1-.06-.55V255H482Z"/><path class="cls-5" d="M485.75,252.28h1.1v1h-1.1Zm0,1.9h1.1v5h-1.1Z"/><path class="cls-5" d="M488,254.18h1v1h0a1.28,1.28,0,0,1,.19-.39,1.92,1.92,0,0,1,.34-.36,1.73,1.73,0,0,1,.44-.25,1.38,1.38,0,0,1,.49-.1h.26l.15,0v1.06l-.23,0-.24,0a1.36,1.36,0,0,0-.53.11,1.34,1.34,0,0,0-.42.33,1.51,1.51,0,0,0-.29.53,2.4,2.4,0,0,0-.11.74v2.36H488Z"/><path class="cls-5" d="M490.63,257.85H492v1.3h-1.34Z"/><path class="cls-5" d="M2.64,263.83H3.92l2.64,6.88H5.27l-.64-1.82H1.89l-.65,1.82H0ZM2.21,268h2.1l-1-3h0Z"/><path class="cls-5" d="M7.07,265.73h1v.69h0l.27-.33a1.35,1.35,0,0,1,.33-.26,1.46,1.46,0,0,1,.4-.17,2.19,2.19,0,0,1,.53-.07,1.76,1.76,0,0,1,.85.21,1.12,1.12,0,0,1,.55.62,2.17,2.17,0,0,1,.65-.6,1.68,1.68,0,0,1,.91-.23,1.8,1.8,0,0,1,1.23.39,1.66,1.66,0,0,1,.43,1.29v3.44H13.19V267.8c0-.2,0-.38,0-.54a1.09,1.09,0,0,0-.11-.43.57.57,0,0,0-.28-.27,1,1,0,0,0-.5-.1.94.94,0,0,0-.81.35,1.71,1.71,0,0,0-.25,1v2.92H10.13v-3.2a1.36,1.36,0,0,0-.19-.78.8.8,0,0,0-.69-.27,1,1,0,0,0-.41.09,1.07,1.07,0,0,0-.35.25,1.42,1.42,0,0,0-.24.4,1.59,1.59,0,0,0-.09.55v3H7.07Z"/><path class="cls-5" d="M19.61,269.6a.69.69,0,0,0,.05.29.23.23,0,0,0,.21.08h.27v.76l-.15,0-.19,0a.63.63,0,0,1-.19,0h-.17a1,1,0,0,1-.55-.13.66.66,0,0,1-.29-.48,1.93,1.93,0,0,1-.81.47,3.32,3.32,0,0,1-.92.14,2.25,2.25,0,0,1-.64-.09,1.52,1.52,0,0,1-.54-.27,1.27,1.27,0,0,1-.38-.45,1.47,1.47,0,0,1-.14-.64,1.49,1.49,0,0,1,.17-.75,1.22,1.22,0,0,1,.44-.46,2.28,2.28,0,0,1,.62-.23,5.22,5.22,0,0,1,.69-.11,3.78,3.78,0,0,1,.56-.08,2.94,2.94,0,0,0,.48-.09.65.65,0,0,0,.33-.17.5.5,0,0,0,.12-.37.6.6,0,0,0-.1-.34.72.72,0,0,0-.25-.21.9.9,0,0,0-.34-.09l-.34,0a1.45,1.45,0,0,0-.76.19.77.77,0,0,0-.34.6h-1.1a1.71,1.71,0,0,1,.23-.8,1.69,1.69,0,0,1,.52-.51,2,2,0,0,1,.71-.27,4.28,4.28,0,0,1,.81-.08,3.53,3.53,0,0,1,.72.08,2.25,2.25,0,0,1,.64.25,1.38,1.38,0,0,1,.45.45,1.2,1.2,0,0,1,.18.67Zm-1.1-1.39a1.3,1.3,0,0,1-.62.2c-.24,0-.48.06-.73.1l-.33.08a1.13,1.13,0,0,0-.29.15.59.59,0,0,0-.2.24.8.8,0,0,0-.07.36.48.48,0,0,0,.1.31.7.7,0,0,0,.26.19A1.17,1.17,0,0,0,17,270a1.77,1.77,0,0,0,.32,0,1.84,1.84,0,0,0,.39,0,1.42,1.42,0,0,0,.4-.17,1,1,0,0,0,.32-.29.78.78,0,0,0,.12-.44Z"/><path class="cls-5" d="M24.15,267.39a1,1,0,0,0-.37-.69,1.19,1.19,0,0,0-.76-.24,1.9,1.9,0,0,0-.46.07,1.07,1.07,0,0,0-.44.27,1.62,1.62,0,0,0-.34.55,3.08,3.08,0,0,0-.06,1.54,1.93,1.93,0,0,0,.23.55,1.27,1.27,0,0,0,.41.39A1.17,1.17,0,0,0,23,270a1.09,1.09,0,0,0,.79-.29,1.38,1.38,0,0,0,.39-.84h1.1a2.41,2.41,0,0,1-.74,1.49,2.25,2.25,0,0,1-1.54.51,2.44,2.44,0,0,1-1-.2,2.07,2.07,0,0,1-.75-.54,2.16,2.16,0,0,1-.47-.81,3,3,0,0,1-.16-1,3.3,3.3,0,0,1,.16-1,2.26,2.26,0,0,1,.46-.85,2.17,2.17,0,0,1,.76-.57,2.6,2.6,0,0,1,1.08-.21,2.81,2.81,0,0,1,.82.12,2,2,0,0,1,.69.33,1.8,1.8,0,0,1,.5.56,1.92,1.92,0,0,1,.23.79Z"/><path class="cls-5" d="M26.17,270.71v-5h1.1v5Z"/><path class="cls-5" d="M35.83,270.71h-1V270h0a1.27,1.27,0,0,1-.65.62,2.09,2.09,0,0,1-.89.19,2.4,2.4,0,0,1-1-.21,1.9,1.9,0,0,1-.72-.56,2.41,2.41,0,0,1-.44-.84,3.92,3.92,0,0,1-.14-1.05,3.41,3.41,0,0,1,.18-1.16,2.31,2.31,0,0,1,.49-.81,1.89,1.89,0,0,1,.69-.47,2.22,2.22,0,0,1,.8-.15,2.59,2.59,0,0,1,.47.05,1.88,1.88,0,0,1,.46.14,1.69,1.69,0,0,1,.41.24,1.47,1.47,0,0,1,.31.35h0v-2.54h1.1ZM32,268.27a2.27,2.27,0,0,0,.08.63,1.72,1.72,0,0,0,.25.55,1.22,1.22,0,0,0,.43.38,1.2,1.2,0,0,0,.61.14,1.22,1.22,0,0,0,.63-.15,1.41,1.41,0,0,0,.44-.4,2.1,2.1,0,0,0,.25-.57,2.74,2.74,0,0,0,.08-.64,2,2,0,0,0-.37-1.29,1.25,1.25,0,0,0-1-.46,1.23,1.23,0,0,0-.65.16,1.4,1.4,0,0,0-.43.41,1.87,1.87,0,0,0-.24.58A3,3,0,0,0,32,268.27Z"/><path class="cls-5" d="M37.05,270.71v-5h1.1v5Z"/><path class="cls-5" d="M40.27,272.25a1.67,1.67,0,0,0,.31.11,1.06,1.06,0,0,0,.31,0h.2a.66.66,0,0,0,.2-.06.53.53,0,0,0,.14-.12.39.39,0,0,0,0-.2.31.31,0,0,0-.14-.28.55.55,0,0,0-.3-.09.67.67,0,0,0-.38.1l-.21-.19.54-.72a5.21,5.21,0,0,1-.59-.09,2.21,2.21,0,0,1-.69-.33,1.51,1.51,0,0,1-.46-.54,1.77,1.77,0,0,1-.18-.76h1.1a.82.82,0,0,0,.36.67,1.47,1.47,0,0,0,.77.19,2,2,0,0,0,.72-.11.72.72,0,0,0,.28-.2.42.42,0,0,0,.1-.34.49.49,0,0,0-.15-.35,1,1,0,0,0-.37-.21,3,3,0,0,0-.52-.14l-.58-.13a5.25,5.25,0,0,1-.6-.16,2,2,0,0,1-.51-.26,1.22,1.22,0,0,1-.36-.42,1.34,1.34,0,0,1-.13-.63,1.08,1.08,0,0,1,.2-.68,1.42,1.42,0,0,1,.5-.44,2.31,2.31,0,0,1,.67-.24,4.49,4.49,0,0,1,.71-.07,2.92,2.92,0,0,1,.73.09,1.92,1.92,0,0,1,.64.26,1.44,1.44,0,0,1,.47.48,1.66,1.66,0,0,1,.24.71H42.19a.67.67,0,0,0-.36-.53,1.51,1.51,0,0,0-.65-.14l-.27,0a1.32,1.32,0,0,0-.3.07.67.67,0,0,0-.24.16.36.36,0,0,0-.1.26.42.42,0,0,0,.14.33,1.44,1.44,0,0,0,.37.21,3,3,0,0,0,.52.13l.59.13.59.16a2.44,2.44,0,0,1,.51.26,1.15,1.15,0,0,1,.37.42,1.25,1.25,0,0,1,.14.61,1.35,1.35,0,0,1-.2.75,1.49,1.49,0,0,1-.53.5,2.11,2.11,0,0,1-.71.28,2.64,2.64,0,0,1-.62.08l-.34.44h0l.14,0h.18a1,1,0,0,1,.29,0,.91.91,0,0,1,.26.13.71.71,0,0,1,.19.23.63.63,0,0,1,.08.32.76.76,0,0,1-.11.41.87.87,0,0,1-.27.27,1.79,1.79,0,0,1-.37.15,1.51,1.51,0,0,1-.42.05,2.24,2.24,0,0,1-.52-.05,1.75,1.75,0,0,1-.47-.17Z"/><path class="cls-5" d="M44.37,270.71v-5h1.09v5Z"/><path class="cls-5" d="M46.66,265.73h1v.73l0,0a1.76,1.76,0,0,1,.65-.65,1.73,1.73,0,0,1,.9-.24,1.89,1.89,0,0,1,1.29.43,1.62,1.62,0,0,1,.47,1.27v3.42h-1.1v-3.13a1.34,1.34,0,0,0-.25-.85.89.89,0,0,0-.72-.27,1.27,1.27,0,0,0-.5.1,1.08,1.08,0,0,0-.38.28,1.46,1.46,0,0,0-.33.93v2.94H46.66Z"/><path class="cls-5" d="M56.87,270.71h-1V270h0a1.28,1.28,0,0,1-.64.62,2.14,2.14,0,0,1-.9.19,2.32,2.32,0,0,1-1-.21,1.86,1.86,0,0,1-.73-.56,2.39,2.39,0,0,1-.43-.84,3.55,3.55,0,0,1-.15-1.05,3.41,3.41,0,0,1,.18-1.16,2.46,2.46,0,0,1,.49-.81,1.89,1.89,0,0,1,.69-.47,2.22,2.22,0,0,1,.8-.15,2.59,2.59,0,0,1,.47.05,1.88,1.88,0,0,1,.46.14,1.52,1.52,0,0,1,.41.24,1.28,1.28,0,0,1,.31.35h0v-2.54h1.1ZM53,268.27a2.72,2.72,0,0,0,.08.63,2,2,0,0,0,.25.55,1.31,1.31,0,0,0,.43.38,1.21,1.21,0,0,0,.62.14,1.28,1.28,0,0,0,.63-.15,1.37,1.37,0,0,0,.43-.4,1.83,1.83,0,0,0,.25-.57,2.74,2.74,0,0,0,.08-.64,2,2,0,0,0-.37-1.29,1.24,1.24,0,0,0-1-.46,1.18,1.18,0,0,0-.65.16,1.33,1.33,0,0,0-.44.41,1.87,1.87,0,0,0-.24.58A3,3,0,0,0,53,268.27Z"/><path class="cls-5" d="M62.23,269.6a.55.55,0,0,0,.06.29c0,.06.1.08.2.08h.27v.76l-.15,0-.19,0a.58.58,0,0,1-.19,0h-.16a1.06,1.06,0,0,1-.56-.13.69.69,0,0,1-.29-.48,1.89,1.89,0,0,1-.8.47,3.43,3.43,0,0,1-.92.14,2.32,2.32,0,0,1-.65-.09,1.71,1.71,0,0,1-.54-.27,1.38,1.38,0,0,1-.38-.45,1.47,1.47,0,0,1-.14-.64,1.49,1.49,0,0,1,.17-.75,1.24,1.24,0,0,1,.45-.46A2.21,2.21,0,0,1,59,268a5.5,5.5,0,0,1,.69-.11,4.1,4.1,0,0,1,.57-.08,2.62,2.62,0,0,0,.47-.09.65.65,0,0,0,.33-.17.5.5,0,0,0,.12-.37.53.53,0,0,0-.1-.34.72.72,0,0,0-.25-.21.9.9,0,0,0-.33-.09l-.35,0a1.45,1.45,0,0,0-.76.19.77.77,0,0,0-.34.6H58a1.61,1.61,0,0,1,.23-.8,1.55,1.55,0,0,1,.51-.51,2.09,2.09,0,0,1,.71-.27,4.28,4.28,0,0,1,.81-.08,3.53,3.53,0,0,1,.72.08,2.14,2.14,0,0,1,.64.25,1.52,1.52,0,0,1,.46.45,1.28,1.28,0,0,1,.17.67Zm-1.1-1.39a1.26,1.26,0,0,1-.61.2c-.25,0-.49.06-.73.1l-.34.08a1.13,1.13,0,0,0-.29.15.68.68,0,0,0-.2.24,1,1,0,0,0-.07.36.49.49,0,0,0,.11.31.67.67,0,0,0,.25.19,1.17,1.17,0,0,0,.33.11,1.89,1.89,0,0,0,.32,0,1.94,1.94,0,0,0,.4,0,1.55,1.55,0,0,0,.4-.17,1,1,0,0,0,.31-.29.78.78,0,0,0,.12-.44Z"/><path class="cls-5" d="M65.6,265.73h1.19l1.27,3.82h0l1.22-3.82h1.13l-1.78,5H67.41Z"/><path class="cls-5" d="M71.94,268.5a1.77,1.77,0,0,0,.09.56,1.23,1.23,0,0,0,.24.47,1.12,1.12,0,0,0,.42.32,1.24,1.24,0,0,0,1.81-.7h1a2.11,2.11,0,0,1-.3.72,2,2,0,0,1-.51.53,2.1,2.1,0,0,1-.67.33,2.88,2.88,0,0,1-.78.11,2.61,2.61,0,0,1-1-.19A2.17,2.17,0,0,1,71,269.28a3.23,3.23,0,0,1-.16-1.06,2.77,2.77,0,0,1,.17-1,2.49,2.49,0,0,1,.48-.84,2.29,2.29,0,0,1,1.75-.79,2.27,2.27,0,0,1,1.06.25,2.21,2.21,0,0,1,.77.65,2.52,2.52,0,0,1,.45.93,2.8,2.8,0,0,1,.07,1.08Zm2.56-.72a1.45,1.45,0,0,0-.11-.5,1.27,1.27,0,0,0-.25-.42,1.24,1.24,0,0,0-.38-.29,1.19,1.19,0,0,0-.51-.11,1.46,1.46,0,0,0-.52.1,1.2,1.2,0,0,0-.67.7,1.47,1.47,0,0,0-.12.52Z"/><path class="cls-5" d="M83.28,269.6a.55.55,0,0,0,.06.29c0,.06.1.08.2.08h.27v.76l-.15,0-.18,0a.69.69,0,0,1-.2,0h-.16a1.08,1.08,0,0,1-.56-.13.69.69,0,0,1-.29-.48,1.83,1.83,0,0,1-.8.47,3.37,3.37,0,0,1-.92.14,2.25,2.25,0,0,1-.64-.09,1.66,1.66,0,0,1-.55-.27A1.24,1.24,0,0,1,79,270a1.34,1.34,0,0,1-.14-.64,1.39,1.39,0,0,1,.17-.75,1.15,1.15,0,0,1,.44-.46,2.34,2.34,0,0,1,.61-.23,5.5,5.5,0,0,1,.69-.11,4.1,4.1,0,0,1,.57-.08,2.94,2.94,0,0,0,.48-.09.66.66,0,0,0,.32-.17.5.5,0,0,0,.12-.37.53.53,0,0,0-.1-.34.64.64,0,0,0-.25-.21.9.9,0,0,0-.33-.09l-.35,0a1.47,1.47,0,0,0-.76.19.74.74,0,0,0-.33.6H79a1.71,1.71,0,0,1,.23-.8,1.69,1.69,0,0,1,.52-.51,2,2,0,0,1,.7-.27,4.45,4.45,0,0,1,.81-.08,3.38,3.38,0,0,1,.72.08,2.14,2.14,0,0,1,.64.25,1.41,1.41,0,0,1,.46.45,1.19,1.19,0,0,1,.17.67Zm-1.09-1.39a1.34,1.34,0,0,1-.62.2c-.24,0-.49.06-.73.1l-.34.08a1.32,1.32,0,0,0-.29.15A.57.57,0,0,0,80,269a.8.8,0,0,0-.08.36.49.49,0,0,0,.11.31.7.7,0,0,0,.26.19,1,1,0,0,0,.32.11,2.23,2.23,0,0,0,.72,0,1.55,1.55,0,0,0,.4-.17,1,1,0,0,0,.31-.29.72.72,0,0,0,.13-.44Z"/><path class="cls-5" d="M85.3,269.11a.82.82,0,0,0,.36.67,1.43,1.43,0,0,0,.76.19,2.24,2.24,0,0,0,.35,0,1.82,1.82,0,0,0,.37-.09.75.75,0,0,0,.29-.2.46.46,0,0,0,.1-.34.54.54,0,0,0-.15-.35,1,1,0,0,0-.38-.21,3.12,3.12,0,0,0-.51-.14l-.59-.13a5.69,5.69,0,0,1-.59-.16,2,2,0,0,1-.51-.26,1.22,1.22,0,0,1-.36-.42,1.33,1.33,0,0,1-.14-.63,1.14,1.14,0,0,1,.2-.68,1.52,1.52,0,0,1,.5-.44,2.38,2.38,0,0,1,.68-.24,4.37,4.37,0,0,1,.7-.07,2.94,2.94,0,0,1,.74.09,2,2,0,0,1,.64.26,1.55,1.55,0,0,1,.7,1.19H87.32a.67.67,0,0,0-.36-.53,1.51,1.51,0,0,0-.65-.14l-.28,0a1.63,1.63,0,0,0-.3.07.63.63,0,0,0-.23.16.33.33,0,0,0-.1.26.42.42,0,0,0,.14.33,1.29,1.29,0,0,0,.37.21,3.15,3.15,0,0,0,.51.13l.6.13.59.16a2.44,2.44,0,0,1,.51.26,1.37,1.37,0,0,1,.37.42,1.25,1.25,0,0,1,.14.61,1.28,1.28,0,0,1-.21.75,1.46,1.46,0,0,1-.52.5,2.16,2.16,0,0,1-.72.28,3.63,3.63,0,0,1-1.65,0,2.1,2.1,0,0,1-.69-.33,1.42,1.42,0,0,1-.46-.54,1.64,1.64,0,0,1-.18-.76Z"/><path class="cls-5" d="M89.49,263.83h1.1v6.88h-1.1Z"/><path class="cls-5" d="M91.81,270.71v-5h1.1v5Z"/><path class="cls-5" d="M94.1,265.73h1v.73l0,0a1.87,1.87,0,0,1,.66-.65,1.7,1.7,0,0,1,.89-.24A1.86,1.86,0,0,1,98,266a1.59,1.59,0,0,1,.47,1.27v3.42H97.38v-3.13a1.41,1.41,0,0,0-.25-.85.92.92,0,0,0-.73-.27,1.35,1.35,0,0,0-.5.1,1.13,1.13,0,0,0-.37.28,1.46,1.46,0,0,0-.33.93v2.94H94.1Z"/><path class="cls-5" d="M103.8,269.6a.56.56,0,0,0,0,.29c0,.06.1.08.21.08h.27v.76l-.15,0-.19,0a.63.63,0,0,1-.19,0h-.17a1,1,0,0,1-.55-.13.66.66,0,0,1-.29-.48,1.93,1.93,0,0,1-.81.47,3.37,3.37,0,0,1-.92.14,2.25,2.25,0,0,1-.64-.09,1.66,1.66,0,0,1-.55-.27,1.36,1.36,0,0,1-.37-.45,1.47,1.47,0,0,1-.14-.64,1.49,1.49,0,0,1,.17-.75,1.22,1.22,0,0,1,.44-.46,2.28,2.28,0,0,1,.62-.23,5.07,5.07,0,0,1,.68-.11,4.1,4.1,0,0,1,.57-.08,2.94,2.94,0,0,0,.48-.09.65.65,0,0,0,.33-.17.5.5,0,0,0,.12-.37.6.6,0,0,0-.1-.34.72.72,0,0,0-.25-.21.9.9,0,0,0-.34-.09l-.34,0a1.45,1.45,0,0,0-.76.19.77.77,0,0,0-.34.6h-1.1a1.71,1.71,0,0,1,.23-.8,1.69,1.69,0,0,1,.52-.51,2,2,0,0,1,.71-.27,4.26,4.26,0,0,1,.8-.08,3.55,3.55,0,0,1,.73.08,2.25,2.25,0,0,1,.64.25,1.38,1.38,0,0,1,.45.45,1.2,1.2,0,0,1,.18.67Zm-1.1-1.39a1.3,1.3,0,0,1-.62.2c-.24,0-.48.06-.73.1l-.33.08a1.13,1.13,0,0,0-.29.15.59.59,0,0,0-.2.24.8.8,0,0,0-.07.36.48.48,0,0,0,.1.31.7.7,0,0,0,.26.19,1.17,1.17,0,0,0,.33.11,1.77,1.77,0,0,0,.32,0,1.84,1.84,0,0,0,.39,0,1.42,1.42,0,0,0,.4-.17.86.86,0,0,0,.31-.29.72.72,0,0,0,.13-.44Z"/><path class="cls-5" d="M111.83,269.6a.56.56,0,0,0,0,.29c0,.06.1.08.2.08h.27v.76l-.14,0-.19,0-.19,0h-.17a1.08,1.08,0,0,1-.56-.13.72.72,0,0,1-.29-.48,1.83,1.83,0,0,1-.8.47,3.37,3.37,0,0,1-.92.14,2.25,2.25,0,0,1-.64-.09,1.66,1.66,0,0,1-.55-.27,1.36,1.36,0,0,1-.37-.45,1.34,1.34,0,0,1-.14-.64,1.39,1.39,0,0,1,.17-.75,1.22,1.22,0,0,1,.44-.46,2.34,2.34,0,0,1,.61-.23,5.5,5.5,0,0,1,.69-.11,4.1,4.1,0,0,1,.57-.08,2.94,2.94,0,0,0,.48-.09.62.62,0,0,0,.32-.17.5.5,0,0,0,.13-.37.53.53,0,0,0-.11-.34.64.64,0,0,0-.25-.21.9.9,0,0,0-.33-.09l-.34,0a1.49,1.49,0,0,0-.77.19.76.76,0,0,0-.33.6h-1.1a1.71,1.71,0,0,1,.23-.8,1.69,1.69,0,0,1,.52-.51,2,2,0,0,1,.7-.27,4.45,4.45,0,0,1,.81-.08,3.38,3.38,0,0,1,.72.08,2,2,0,0,1,.64.25,1.41,1.41,0,0,1,.46.45,1.2,1.2,0,0,1,.18.67Zm-1.1-1.39a1.3,1.3,0,0,1-.62.2c-.24,0-.49.06-.73.1l-.34.08a1.32,1.32,0,0,0-.29.15.65.65,0,0,0-.19.24.8.8,0,0,0-.08.36.49.49,0,0,0,.11.31.7.7,0,0,0,.26.19,1.1,1.1,0,0,0,.32.11,1.94,1.94,0,0,0,.33,0,1.84,1.84,0,0,0,.39,0,1.55,1.55,0,0,0,.4-.17.86.86,0,0,0,.31-.29.72.72,0,0,0,.13-.44Z"/><path class="cls-5" d="M112.46,265.73h1.2l1.3,3.72h0l1.26-3.72h1.15L115.45,271c-.09.22-.17.44-.26.64a2,2,0,0,1-.32.54,1.26,1.26,0,0,1-.47.38,1.6,1.6,0,0,1-.71.14,4.87,4.87,0,0,1-.76-.06v-.92l.26,0a1.14,1.14,0,0,0,.26,0,1,1,0,0,0,.32,0,.77.77,0,0,0,.21-.14,1.18,1.18,0,0,0,.14-.22c0-.08.07-.18.1-.29l.13-.38Z"/><path class="cls-5" d="M118,263.83h1.1v3.91l2-2h1.35l-1.9,1.83,2.08,3.15h-1.33l-1.52-2.42-.66.64v1.78H118Z"/><path class="cls-5" d="M123.2,270.71v-5h1.1v5Z"/><path class="cls-5" d="M125.49,265.73h1v1h0a1.17,1.17,0,0,1,.19-.39,1.88,1.88,0,0,1,.78-.61,1.38,1.38,0,0,1,.49-.1h.26l.15,0v1.06l-.24,0-.23,0a1.21,1.21,0,0,0-.53.12,1.18,1.18,0,0,0-.42.32,1.47,1.47,0,0,0-.29.54,2.29,2.29,0,0,0-.11.73v2.37h-1.1Z"/><path class="cls-5" d="M128.91,270.71v-5H130v5Z"/><path class="cls-5" d="M133.88,265.73h1v1h0a1.14,1.14,0,0,1,.18-.39,1.88,1.88,0,0,1,.34-.35,1.76,1.76,0,0,1,.44-.26,1.38,1.38,0,0,1,.49-.1h.27l.14,0v1.06l-.23,0-.24,0a1.17,1.17,0,0,0-.52.12,1.13,1.13,0,0,0-.43.32,1.63,1.63,0,0,0-.29.54,2.3,2.3,0,0,0-.1.73v2.37h-1.1Z"/><path class="cls-5" d="M138,268.5a2.1,2.1,0,0,0,.08.56,1.41,1.41,0,0,0,.25.47,1.09,1.09,0,0,0,.41.32,1.4,1.4,0,0,0,.6.12,1.28,1.28,0,0,0,.77-.2,1.26,1.26,0,0,0,.44-.62h1a2.11,2.11,0,0,1-.3.72,2.15,2.15,0,0,1-1.18.86,2.76,2.76,0,0,1-.77.11,2.61,2.61,0,0,1-1-.19,2.23,2.23,0,0,1-.77-.54,2.33,2.33,0,0,1-.47-.83,3.52,3.52,0,0,1-.16-1.06,3,3,0,0,1,.17-1,2.49,2.49,0,0,1,.48-.84,2.27,2.27,0,0,1,.76-.57,2.3,2.3,0,0,1,1-.22,2.26,2.26,0,0,1,1.05.25,2.34,2.34,0,0,1,.78.65,2.87,2.87,0,0,1,.45.93,3,3,0,0,1,.07,1.08Zm2.56-.72a1.72,1.72,0,0,0-.11-.5,1.27,1.27,0,0,0-.25-.42,1.28,1.28,0,0,0-.39-.29,1.15,1.15,0,0,0-.5-.11,1.51,1.51,0,0,0-.53.1,1.26,1.26,0,0,0-.4.28,1.51,1.51,0,0,0-.27.42,1.46,1.46,0,0,0-.11.52Z"/><path class="cls-5" d="M142.45,265.73h1v.73l0,0a1.87,1.87,0,0,1,.66-.65,1.72,1.72,0,0,1,.89-.24,1.86,1.86,0,0,1,1.29.43,1.59,1.59,0,0,1,.48,1.27v3.42h-1.1v-3.13a1.34,1.34,0,0,0-.25-.85.91.91,0,0,0-.72-.27,1.27,1.27,0,0,0-.5.1,1.08,1.08,0,0,0-.38.28,1.46,1.46,0,0,0-.33.93v2.94h-1.09Z"/><path class="cls-5" d="M148,263.83h1.1v3.91l2-2h1.35l-1.91,1.83,2.09,3.15h-1.34l-1.52-2.42-.65.64v1.78H148Z"/><path class="cls-5" d="M153.23,269.41h1.33v1.3a1.46,1.46,0,0,1-.36,1,1.65,1.65,0,0,1-.94.52v-.59a.7.7,0,0,0,.48-.35,1,1,0,0,0,.15-.58h-.66Z"/><path class="cls-5" d="M163.18,270.71h-1V270h0a1.28,1.28,0,0,1-.64.62,2.14,2.14,0,0,1-.9.19,2.32,2.32,0,0,1-1-.21,1.86,1.86,0,0,1-.73-.56,2.39,2.39,0,0,1-.43-.84,3.55,3.55,0,0,1-.15-1.05,3.41,3.41,0,0,1,.18-1.16,2.46,2.46,0,0,1,.49-.81,1.89,1.89,0,0,1,.69-.47,2.22,2.22,0,0,1,.8-.15,2.59,2.59,0,0,1,.47.05,1.88,1.88,0,0,1,.46.14,1.69,1.69,0,0,1,.41.24,1.28,1.28,0,0,1,.31.35h0v-2.54h1.1Zm-3.83-2.44a2.72,2.72,0,0,0,.08.63,1.72,1.72,0,0,0,.25.55,1.31,1.31,0,0,0,.43.38,1.21,1.21,0,0,0,.62.14,1.28,1.28,0,0,0,.63-.15,1.37,1.37,0,0,0,.43-.4,2.1,2.1,0,0,0,.25-.57,2.74,2.74,0,0,0,.08-.64,2,2,0,0,0-.37-1.29,1.25,1.25,0,0,0-1-.46,1.23,1.23,0,0,0-.65.16,1.4,1.4,0,0,0-.43.41,1.87,1.87,0,0,0-.24.58A3,3,0,0,0,159.35,268.27Z"/><path class="cls-5" d="M168.74,270.71h-1.07V270h0a1.53,1.53,0,0,1-.61.6,1.51,1.51,0,0,1-.81.23,1.81,1.81,0,0,1-1.42-.49,2.12,2.12,0,0,1-.44-1.46v-3.16h1.1v3a1.35,1.35,0,0,0,.25.93.94.94,0,0,0,.7.26,1.4,1.4,0,0,0,.58-.1,1,1,0,0,0,.58-.71,2.35,2.35,0,0,0,.07-.54v-2.89h1.09Zm-3.57-5.8v-1h1.1v1Zm2.75-1v1h-1.09v-1Z"/><path class="cls-5" d="M169.73,265.73h4v.77l-2.85,3.34h3v.87h-4.38v-.77l2.76-3.34h-2.56Z"/><path class="cls-5" d="M175.57,268.5a2.1,2.1,0,0,0,.08.56,1.25,1.25,0,0,0,.25.47,1,1,0,0,0,.41.32,1.4,1.4,0,0,0,.6.12,1.28,1.28,0,0,0,.77-.2,1.26,1.26,0,0,0,.44-.62h1a2.11,2.11,0,0,1-.3.72,2.15,2.15,0,0,1-1.18.86,2.81,2.81,0,0,1-.77.11,2.57,2.57,0,0,1-1-.19,2.14,2.14,0,0,1-.77-.54,2.33,2.33,0,0,1-.47-.83,3.23,3.23,0,0,1-.16-1.06,3,3,0,0,1,.17-1,2.49,2.49,0,0,1,.48-.84,2.35,2.35,0,0,1,2.81-.54,2.34,2.34,0,0,1,.78.65,2.66,2.66,0,0,1,.44.93,2.8,2.8,0,0,1,.08,1.08Zm2.56-.72a1.72,1.72,0,0,0-.11-.5,1.46,1.46,0,0,0-.25-.42,1.42,1.42,0,0,0-.39-.29,1.18,1.18,0,0,0-.5-.11,1.47,1.47,0,0,0-.53.1,1.26,1.26,0,0,0-.4.28,1.51,1.51,0,0,0-.27.42,1.27,1.27,0,0,0-.11.52Z"/><path class="cls-5" d="M180.06,265.73h1v.73l0,0a1.87,1.87,0,0,1,.66-.65,1.7,1.7,0,0,1,.89-.24A1.86,1.86,0,0,1,184,266a1.59,1.59,0,0,1,.47,1.27v3.42h-1.09v-3.13a1.41,1.41,0,0,0-.25-.85.92.92,0,0,0-.73-.27,1.35,1.35,0,0,0-.5.1,1.13,1.13,0,0,0-.37.28,1.46,1.46,0,0,0-.33.93v2.94h-1.1Z"/><path class="cls-5" d="M187.77,265.73H189l1.26,3.82h0l1.21-3.82h1.14l-1.78,5h-1.24Z"/><path class="cls-5" d="M194.12,268.5a1.77,1.77,0,0,0,.08.56,1.39,1.39,0,0,0,.24.47,1.12,1.12,0,0,0,.42.32,1.37,1.37,0,0,0,.6.12,1.3,1.3,0,0,0,.77-.2,1.26,1.26,0,0,0,.44-.62h1a2.11,2.11,0,0,1-.3.72,2.15,2.15,0,0,1-1.18.86,2.81,2.81,0,0,1-.77.11,2.57,2.57,0,0,1-1-.19,2.14,2.14,0,0,1-.77-.54,2.19,2.19,0,0,1-.47-.83,3.23,3.23,0,0,1-.16-1.06,3,3,0,0,1,.17-1,2.49,2.49,0,0,1,.48-.84,2.35,2.35,0,0,1,2.81-.54,2.34,2.34,0,0,1,.78.65,2.66,2.66,0,0,1,.44.93,2.8,2.8,0,0,1,.08,1.08Zm2.56-.72a1.72,1.72,0,0,0-.11-.5,1.46,1.46,0,0,0-.25-.42,1.42,1.42,0,0,0-.39-.29,1.18,1.18,0,0,0-.5-.11,1.47,1.47,0,0,0-.53.1,1.15,1.15,0,0,0-.4.28,1.51,1.51,0,0,0-.27.42,1.27,1.27,0,0,0-.11.52Z"/><path class="cls-5" d="M201.32,263.83h1.09v2.54h0a1.43,1.43,0,0,1,.28-.32,1.78,1.78,0,0,1,.36-.25,1.62,1.62,0,0,1,.42-.15,1.59,1.59,0,0,1,.43-.06,2.32,2.32,0,0,1,1,.21,2.06,2.06,0,0,1,.73.57,2.39,2.39,0,0,1,.43.84,3.47,3.47,0,0,1,.15,1,3.85,3.85,0,0,1-.13,1,2.51,2.51,0,0,1-.4.84,1.94,1.94,0,0,1-.67.57,1.91,1.91,0,0,1-1,.22l-.51,0a2.42,2.42,0,0,1-.48-.13,1.73,1.73,0,0,1-.42-.25,1.17,1.17,0,0,1-.31-.41h0v.69h-1Zm3.83,4.39a2.37,2.37,0,0,0-.09-.65,1.7,1.7,0,0,0-.26-.56,1.27,1.27,0,0,0-.43-.4,1.16,1.16,0,0,0-.6-.15,1.2,1.2,0,0,0-1,.48,2.09,2.09,0,0,0-.35,1.28,2.58,2.58,0,0,0,.09.7,1.49,1.49,0,0,0,.27.55,1.3,1.3,0,0,0,.44.37,1.25,1.25,0,0,0,.59.13,1.29,1.29,0,0,0,.64-.15,1.36,1.36,0,0,0,.43-.4,1.67,1.67,0,0,0,.24-.56A3.39,3.39,0,0,0,205.15,268.22Z"/><path class="cls-5" d="M211.54,270.71h-1.08V270h0a1.45,1.45,0,0,1-.6.6,1.56,1.56,0,0,1-.81.23,1.8,1.8,0,0,1-1.42-.49,2.12,2.12,0,0,1-.44-1.46v-3.16h1.1v3a1.35,1.35,0,0,0,.25.93.93.93,0,0,0,.7.26,1.44,1.44,0,0,0,.58-.1,1.07,1.07,0,0,0,.37-.28,1.08,1.08,0,0,0,.21-.43,2.35,2.35,0,0,0,.06-.54v-2.89h1.1Zm-3.57-5.8v-1h1.1v1Zm2.75-1v1h-1.1v-1Z"/><path class="cls-5" d="M212.15,265.73h1.2l1.3,3.72h0l1.26-3.72h1.15L215.14,271l-.26.64a2.33,2.33,0,0,1-.32.54,1.34,1.34,0,0,1-.47.38,1.63,1.63,0,0,1-.71.14,4.77,4.77,0,0,1-.76-.06v-.92l.26,0a1.1,1.1,0,0,0,.26,0,1,1,0,0,0,.32,0,.6.6,0,0,0,.2-.14.83.83,0,0,0,.14-.22,1.6,1.6,0,0,0,.11-.29l.12-.38Z"/><path class="cls-5" d="M222.06,270.71H221V270h0a1.45,1.45,0,0,1-.6.6,1.51,1.51,0,0,1-.81.23,1.8,1.8,0,0,1-1.42-.49,2.12,2.12,0,0,1-.44-1.46v-3.16h1.1v3a1.35,1.35,0,0,0,.25.93.94.94,0,0,0,.7.26,1.4,1.4,0,0,0,.58-.1,1.07,1.07,0,0,0,.37-.28,1.08,1.08,0,0,0,.21-.43,2.35,2.35,0,0,0,.06-.54v-2.89h1.1Zm-3.57-5.8v-1h1.1v1Zm2.75-1v1h-1.09v-1Z"/><path class="cls-5" d="M223.25,263.83h1.09v3.91l2-2h1.34l-1.9,1.83,2.09,3.15h-1.34L225,268.29l-.66.64v1.78h-1.09Z"/><path class="cls-5" d="M228.41,263.83h1.1v6.88h-1.1Z"/><path class="cls-5" d="M235.08,270.71H234V270h0a1.68,1.68,0,0,1-1.42.83,1.83,1.83,0,0,1-1.42-.49,2.12,2.12,0,0,1-.43-1.46v-3.16h1.09v3a1.4,1.4,0,0,0,.25.93,1,1,0,0,0,.71.26,1.35,1.35,0,0,0,.57-.1,1.11,1.11,0,0,0,.38-.28,1.23,1.23,0,0,0,.21-.43,2.35,2.35,0,0,0,.06-.54v-2.89h1.1Zm-3.58-5.8v-1h1.1v1Zm2.76-1v1h-1.1v-1Z"/><path class="cls-5" d="M236.26,263.83h1.1v3.91l2-2h1.35l-1.91,1.83,2.09,3.15h-1.34L238,268.29l-.65.64v1.78h-1.1Z"/><path class="cls-5" d="M241.43,263.83h1.1v6.88h-1.1Z"/><path class="cls-5" d="M244.58,268.5a1.77,1.77,0,0,0,.08.56,1.23,1.23,0,0,0,.24.47,1.12,1.12,0,0,0,.42.32,1.24,1.24,0,0,0,1.81-.7h1a2.11,2.11,0,0,1-.3.72,2.15,2.15,0,0,1-1.18.86,2.88,2.88,0,0,1-.78.11,2.56,2.56,0,0,1-1-.19,2.14,2.14,0,0,1-.77-.54,2.19,2.19,0,0,1-.47-.83,3.23,3.23,0,0,1-.16-1.06,3,3,0,0,1,.17-1,2.49,2.49,0,0,1,.48-.84,2.29,2.29,0,0,1,1.76-.79,2.26,2.26,0,0,1,1.05.25,2.21,2.21,0,0,1,.77.65,2.52,2.52,0,0,1,.45.93,2.8,2.8,0,0,1,.07,1.08Zm2.56-.72a2.13,2.13,0,0,0-.11-.5,1.46,1.46,0,0,0-.25-.42,1.42,1.42,0,0,0-.39-.29,1.18,1.18,0,0,0-.5-.11,1.47,1.47,0,0,0-.53.1,1.15,1.15,0,0,0-.4.28,1.17,1.17,0,0,0-.27.42,1.27,1.27,0,0,0-.11.52Z"/><path class="cls-5" d="M249.07,265.73h1v1h0a1.17,1.17,0,0,1,.19-.39,1.41,1.41,0,0,1,.34-.35,1.7,1.7,0,0,1,.43-.26,1.43,1.43,0,0,1,.49-.1h.27l.15,0v1.06l-.24,0-.23,0a1.21,1.21,0,0,0-.53.12,1.31,1.31,0,0,0-.43.32,1.84,1.84,0,0,0-.29.54,2.3,2.3,0,0,0-.1.73v2.37h-1.1Z"/><path class="cls-5" d="M257,270.71h-1V270h0a1.3,1.3,0,0,1-.65.62,2.09,2.09,0,0,1-.89.19,2.34,2.34,0,0,1-1-.21,2,2,0,0,1-.73-.56,2.57,2.57,0,0,1-.43-.84,3.56,3.56,0,0,1-.14-1.05,3.41,3.41,0,0,1,.18-1.16,2.29,2.29,0,0,1,.48-.81,2,2,0,0,1,.7-.47,2.17,2.17,0,0,1,.79-.15,2.5,2.5,0,0,1,.47.05,2,2,0,0,1,.47.14,1.63,1.63,0,0,1,.4.24,1.52,1.52,0,0,1,.32.35h0v-2.54H257Zm-3.83-2.44a2.28,2.28,0,0,0,.09.63,1.53,1.53,0,0,0,.25.55,1.28,1.28,0,0,0,.42.38,1.23,1.23,0,0,0,.62.14,1.21,1.21,0,0,0,1.06-.55,1.63,1.63,0,0,0,.25-.57,2.3,2.3,0,0,0,.09-.64,2,2,0,0,0-.38-1.29,1.23,1.23,0,0,0-1-.46,1.21,1.21,0,0,0-.65.16,1.3,1.3,0,0,0-.43.41,1.49,1.49,0,0,0-.24.58A3,3,0,0,0,253.14,268.27Z"/><path class="cls-5" d="M259,268.5a1.77,1.77,0,0,0,.09.56,1.23,1.23,0,0,0,.24.47,1.12,1.12,0,0,0,.42.32,1.24,1.24,0,0,0,1.81-.7h1a2.11,2.11,0,0,1-.3.72,2,2,0,0,1-.51.53,2.1,2.1,0,0,1-.67.33,2.88,2.88,0,0,1-.78.11,2.61,2.61,0,0,1-1-.19,2.17,2.17,0,0,1-1.23-1.37,3.23,3.23,0,0,1-.16-1.06,2.77,2.77,0,0,1,.17-1,2.49,2.49,0,0,1,.48-.84,2.29,2.29,0,0,1,1.75-.79,2.27,2.27,0,0,1,1.06.25,2.21,2.21,0,0,1,.77.65,2.52,2.52,0,0,1,.45.93,2.8,2.8,0,0,1,.07,1.08Zm2.56-.72a1.45,1.45,0,0,0-.11-.5,1.27,1.27,0,0,0-.25-.42,1.24,1.24,0,0,0-.38-.29,1.19,1.19,0,0,0-.51-.11,1.46,1.46,0,0,0-.52.1,1.2,1.2,0,0,0-.67.7,1.47,1.47,0,0,0-.12.52Z"/><path class="cls-5" d="M266.23,263.83h1.09v3.91l2-2h1.34l-1.9,1.83,2.09,3.15H269.5L268,268.29l-.66.64v1.78h-1.09Z"/><path class="cls-5" d="M275.74,270.71h-1.08V270h0a1.68,1.68,0,0,1-1.42.83,1.83,1.83,0,0,1-1.42-.49,2.12,2.12,0,0,1-.43-1.46v-3.16h1.09v3a1.4,1.4,0,0,0,.25.93,1,1,0,0,0,.71.26,1.35,1.35,0,0,0,.57-.1,1.11,1.11,0,0,0,.38-.28,1.44,1.44,0,0,0,.21-.43,2.35,2.35,0,0,0,.06-.54v-2.89h1.1Z"/><path class="cls-5" d="M276.92,263.83H278v6.88h-1.1Z"/><path class="cls-5" d="M279.24,263.83h1.1v6.88h-1.1Z"/><path class="cls-5" d="M285.7,269.6a.69.69,0,0,0,.05.29.23.23,0,0,0,.21.08h.27v.76l-.15,0-.19,0a.63.63,0,0,1-.19,0h-.17a1,1,0,0,1-.55-.13.66.66,0,0,1-.29-.48,1.93,1.93,0,0,1-.81.47,3.32,3.32,0,0,1-.92.14,2.25,2.25,0,0,1-.64-.09,1.52,1.52,0,0,1-.54-.27,1.27,1.27,0,0,1-.38-.45,1.47,1.47,0,0,1-.14-.64,1.49,1.49,0,0,1,.17-.75,1.22,1.22,0,0,1,.44-.46,2.28,2.28,0,0,1,.62-.23,5.5,5.5,0,0,1,.69-.11,4,4,0,0,1,.56-.08,2.94,2.94,0,0,0,.48-.09.65.65,0,0,0,.33-.17.5.5,0,0,0,.12-.37.6.6,0,0,0-.1-.34.72.72,0,0,0-.25-.21.9.9,0,0,0-.34-.09l-.34,0a1.45,1.45,0,0,0-.76.19.77.77,0,0,0-.34.6h-1.1a1.71,1.71,0,0,1,.23-.8,1.69,1.69,0,0,1,.52-.51,2,2,0,0,1,.71-.27,4.28,4.28,0,0,1,.81-.08,3.53,3.53,0,0,1,.72.08,2.14,2.14,0,0,1,.64.25,1.38,1.38,0,0,1,.45.45,1.2,1.2,0,0,1,.18.67Zm-1.1-1.39a1.3,1.3,0,0,1-.62.2c-.24,0-.48.06-.73.1l-.33.08a1.13,1.13,0,0,0-.29.15.59.59,0,0,0-.2.24.8.8,0,0,0-.07.36.48.48,0,0,0,.1.31.7.7,0,0,0,.26.19,1.17,1.17,0,0,0,.33.11,2.17,2.17,0,0,0,.71,0,1.42,1.42,0,0,0,.4-.17,1,1,0,0,0,.32-.29.78.78,0,0,0,.12-.44Z"/><path class="cls-5" d="M286.88,265.73h1v.73l0,0a1.87,1.87,0,0,1,.66-.65,1.7,1.7,0,0,1,.89-.24,1.86,1.86,0,0,1,1.29.43,1.59,1.59,0,0,1,.47,1.27v3.42h-1.09v-3.13a1.34,1.34,0,0,0-.26-.85.89.89,0,0,0-.72-.27,1.35,1.35,0,0,0-.5.1,1,1,0,0,0-.37.28,1.1,1.1,0,0,0-.24.42,1.44,1.44,0,0,0-.09.51v2.94h-1.1Z"/><path class="cls-5" d="M292.44,270.71v-5h1.09v5Z"/><path class="cls-5" d="M294.76,263.83h1.09v6.88h-1.09Z"/><path class="cls-5" d="M301.22,269.6a.56.56,0,0,0,0,.29c0,.06.1.08.21.08h.26v.76l-.14,0-.19,0-.19,0h-.17a1.08,1.08,0,0,1-.56-.13.72.72,0,0,1-.29-.48,1.83,1.83,0,0,1-.8.47,3.37,3.37,0,0,1-.92.14,2.25,2.25,0,0,1-.64-.09,1.66,1.66,0,0,1-.55-.27,1.36,1.36,0,0,1-.37-.45,1.34,1.34,0,0,1-.14-.64,1.39,1.39,0,0,1,.17-.75,1.22,1.22,0,0,1,.44-.46A2.34,2.34,0,0,1,298,268a5.5,5.5,0,0,1,.69-.11,4.1,4.1,0,0,1,.57-.08,2.94,2.94,0,0,0,.48-.09.62.62,0,0,0,.32-.17.46.46,0,0,0,.13-.37.53.53,0,0,0-.11-.34.64.64,0,0,0-.25-.21.9.9,0,0,0-.33-.09l-.34,0a1.42,1.42,0,0,0-.76.19.74.74,0,0,0-.34.6H297a1.71,1.71,0,0,1,.23-.8,1.69,1.69,0,0,1,.52-.51,2,2,0,0,1,.7-.27,4.45,4.45,0,0,1,.81-.08,3.38,3.38,0,0,1,.72.08,2,2,0,0,1,.64.25,1.41,1.41,0,0,1,.46.45,1.2,1.2,0,0,1,.18.67Zm-1.1-1.39a1.3,1.3,0,0,1-.62.2c-.24,0-.49.06-.73.1l-.34.08a1.32,1.32,0,0,0-.29.15.65.65,0,0,0-.19.24.8.8,0,0,0-.07.36.48.48,0,0,0,.1.31.7.7,0,0,0,.26.19,1.1,1.1,0,0,0,.32.11,1.94,1.94,0,0,0,.33,0,1.84,1.84,0,0,0,.39,0,1.55,1.55,0,0,0,.4-.17.86.86,0,0,0,.31-.29.72.72,0,0,0,.13-.44Z"/><path class="cls-5" d="M302.4,265.73h1v.69h0a2.16,2.16,0,0,1,.27-.33,1.14,1.14,0,0,1,.32-.26,1.53,1.53,0,0,1,.41-.17,2.06,2.06,0,0,1,.53-.07,1.74,1.74,0,0,1,.84.21,1.09,1.09,0,0,1,.55.62,2.17,2.17,0,0,1,.65-.6,1.71,1.71,0,0,1,.91-.23,1.78,1.78,0,0,1,1.23.39,1.66,1.66,0,0,1,.44,1.29v3.44h-1.1V267.8a4.52,4.52,0,0,0,0-.54,1.09,1.09,0,0,0-.11-.43.59.59,0,0,0-.27-.27,1,1,0,0,0-.5-.1.93.93,0,0,0-.81.35,1.63,1.63,0,0,0-.25,1v2.92h-1.1v-3.2a1.28,1.28,0,0,0-.19-.78.77.77,0,0,0-.69-.27.93.93,0,0,0-.4.09,1,1,0,0,0-.35.25,1.22,1.22,0,0,0-.24.4,1.59,1.59,0,0,0-.09.55v3h-1.1Z"/><path class="cls-5" d="M314.94,269.6a.55.55,0,0,0,.06.29c0,.06.1.08.2.08h.27v.76l-.15,0-.19,0a.58.58,0,0,1-.19,0h-.16a1.06,1.06,0,0,1-.56-.13.69.69,0,0,1-.29-.48,1.89,1.89,0,0,1-.8.47,3.43,3.43,0,0,1-.92.14,2.32,2.32,0,0,1-.65-.09,1.71,1.71,0,0,1-.54-.27,1.38,1.38,0,0,1-.38-.45,1.47,1.47,0,0,1-.14-.64,1.49,1.49,0,0,1,.17-.75,1.24,1.24,0,0,1,.45-.46,2.21,2.21,0,0,1,.61-.23,5.5,5.5,0,0,1,.69-.11,4.1,4.1,0,0,1,.57-.08,2.62,2.62,0,0,0,.47-.09.65.65,0,0,0,.33-.17.5.5,0,0,0,.12-.37.53.53,0,0,0-.1-.34.72.72,0,0,0-.25-.21.9.9,0,0,0-.33-.09l-.35,0a1.45,1.45,0,0,0-.76.19.77.77,0,0,0-.34.6h-1.09a1.61,1.61,0,0,1,.23-.8,1.55,1.55,0,0,1,.51-.51,2.09,2.09,0,0,1,.71-.27,4.28,4.28,0,0,1,.81-.08,3.53,3.53,0,0,1,.72.08,2.14,2.14,0,0,1,.64.25,1.52,1.52,0,0,1,.46.45,1.28,1.28,0,0,1,.17.67Zm-1.1-1.39a1.26,1.26,0,0,1-.61.2c-.25,0-.49.06-.73.1l-.34.08a1.13,1.13,0,0,0-.29.15.68.68,0,0,0-.2.24,1,1,0,0,0-.07.36.49.49,0,0,0,.11.31.67.67,0,0,0,.25.19,1.17,1.17,0,0,0,.33.11,1.89,1.89,0,0,0,.32,0,1.94,1.94,0,0,0,.4,0,1.55,1.55,0,0,0,.4-.17,1,1,0,0,0,.31-.29.78.78,0,0,0,.12-.44Z"/><path class="cls-5" d="M316,265.73H320v.77l-2.85,3.34h3v.87h-4.38v-.77l2.75-3.34H316Z"/><path class="cls-5" d="M321,269.41h1.33v1.3H321Z"/></g></g></svg>