<svg xmlns="http://www.w3.org/2000/svg" viewBox="0 0 688.17 273.81"><defs><style>.cls-1{isolation:isolate;}.cls-2{fill:#b2b2b2;}.cls-3{fill:#ea5b63;}.cls-4{fill:#989898;}.cls-5{fill:#2e1b43;}.cls-6{fill:#3fb6aa;}.cls-7{fill:#fdcb5b;}.cls-8{fill:#777776;opacity:0.37;mix-blend-mode:multiply;}</style></defs><g class="cls-1"><g id="katman_1" data-name="katman 1"><path class="cls-2" d="M8.38,250.49a4.67,4.67,0,0,1-3.13,1,4.6,4.6,0,0,1-3.15-1,3.82,3.82,0,0,1-1.11-3v-6.22h2.2v6.22a4.25,4.25,0,0,0,.07.8,1.57,1.57,0,0,0,.29.69,1.68,1.68,0,0,0,.63.49,2.45,2.45,0,0,0,1.07.19,2.06,2.06,0,0,0,1.62-.53,2.47,2.47,0,0,0,.45-1.64v-6.22h2.2v6.22A3.78,3.78,0,0,1,8.38,250.49Z" transform="translate(0 -2.66)"/><path class="cls-2" d="M13.87,253.41a2.94,2.94,0,0,1-1.59.37H11.06v-1.63h1.16a.82.82,0,0,0,.58-.31,1,1,0,0,0,.19-.59,1.38,1.38,0,0,0-.08-.45L10.37,244h2.12l1.63,5h0l1.58-5h2.06l-3,8.14A2.59,2.59,0,0,1,13.87,253.41Z" transform="translate(0 -2.66)"/><path class="cls-2" d="M18.38,246.24a2.28,2.28,0,0,1,.35-1.16,2.43,2.43,0,0,1,.78-.75,3.63,3.63,0,0,1,1.07-.4,6.09,6.09,0,0,1,1.2-.11,8.27,8.27,0,0,1,1.11.07,3.5,3.5,0,0,1,1,.3,2,2,0,0,1,.76.63,1.71,1.71,0,0,1,.29,1.05v3.77a7.42,7.42,0,0,0,.06.94,1.61,1.61,0,0,0,.19.67h-2a1.46,1.46,0,0,0-.1-.34,1.45,1.45,0,0,1,0-.36,2.61,2.61,0,0,1-1.12.69,4.53,4.53,0,0,1-1.32.19,3.35,3.35,0,0,1-1-.13,1.91,1.91,0,0,1-.78-.39,1.82,1.82,0,0,1-.53-.67,2.46,2.46,0,0,1-.18-1,2.14,2.14,0,0,1,.21-1,1.91,1.91,0,0,1,.56-.64,2.55,2.55,0,0,1,.79-.35,6.71,6.71,0,0,1,.89-.19c.29-.05.59-.09.88-.12a4.94,4.94,0,0,0,.77-.12,1.36,1.36,0,0,0,.53-.25.53.53,0,0,0,.18-.47,1.11,1.11,0,0,0-.1-.51.86.86,0,0,0-.28-.29,1.25,1.25,0,0,0-.41-.14h-.5a1.49,1.49,0,0,0-.92.25,1.17,1.17,0,0,0-.39.84ZM23,247.71a.94.94,0,0,1-.31.17l-.41.11-.45.07-.48.07a3.15,3.15,0,0,0-.44.11,1.35,1.35,0,0,0-.38.19.83.83,0,0,0-.26.3,1,1,0,0,0-.1.46,1,1,0,0,0,.1.45.84.84,0,0,0,.27.29,1.07,1.07,0,0,0,.39.14,2.4,2.4,0,0,0,.46.05,1.69,1.69,0,0,0,.91-.2,1.35,1.35,0,0,0,.48-.47,1.8,1.8,0,0,0,.19-.55v-.45Z" transform="translate(0 -2.66)"/><path class="cls-2" d="M28.39,244v1.35h0a2.48,2.48,0,0,1,.37-.63,2.53,2.53,0,0,1,1.21-.8,2.27,2.27,0,0,1,.73-.11,1.54,1.54,0,0,1,.43.06v1.85h-.71a2.12,2.12,0,0,0-.93.18,1.75,1.75,0,0,0-.61.5,2,2,0,0,0-.33.74,4.6,4.6,0,0,0-.09.91v3.26h-2V244Z" transform="translate(0 -2.66)"/><path class="cls-2" d="M34,244v7.24H32V244Z" transform="translate(0 -2.66)"/><path class="cls-2" d="M.8,255.93H4.14a2.35,2.35,0,0,1,1.48.42,1.54,1.54,0,0,1,.56,1.28,1.48,1.48,0,0,1-.26.89,1.61,1.61,0,0,1-.72.57h0a1.5,1.5,0,0,1,1,.6,2,2,0,0,1,.33,1.17,2,2,0,0,1-.15.76,1.43,1.43,0,0,1-.45.61,2.27,2.27,0,0,1-.79.4A4,4,0,0,1,4,262.8H.8ZM2,258.8H4a1.1,1.1,0,0,0,.72-.24.87.87,0,0,0,.29-.71.9.9,0,0,0-.26-.73,1.17,1.17,0,0,0-.75-.21H2Zm0,3H4.13a1.19,1.19,0,0,0,.85-.29,1,1,0,0,0,.31-.8A1,1,0,0,0,5,260a1.2,1.2,0,0,0-.85-.28H2Z" transform="translate(0 -2.66)"/><path class="cls-2" d="M11.79,262.8H10.71v-.69h0a1.53,1.53,0,0,1-.61.6,1.67,1.67,0,0,1-.81.22,1.81,1.81,0,0,1-1.42-.48A2.16,2.16,0,0,1,7.42,261v-3.16h1.1v3.05a1.4,1.4,0,0,0,.25.93.91.91,0,0,0,.7.27,1.28,1.28,0,0,0,.58-.11,1,1,0,0,0,.38-.28,1.13,1.13,0,0,0,.2-.43,2.5,2.5,0,0,0,.07-.54v-2.89h1.09Z" transform="translate(0 -2.66)"/><path class="cls-2" d="M15.65,255.93h1.1v6.87h-1.1Z" transform="translate(0 -2.66)"/><path class="cls-2" d="M20.22,262.93a2.76,2.76,0,0,1-1.06-.19,2.28,2.28,0,0,1-1.28-1.37,3.46,3.46,0,0,1-.17-1.06,3.39,3.39,0,0,1,.17-1.05,2.21,2.21,0,0,1,1.28-1.37,2.9,2.9,0,0,1,2.13,0,2.21,2.21,0,0,1,1.28,1.37,3.39,3.39,0,0,1,.17,1.05,3.46,3.46,0,0,1-.17,1.06,2.28,2.28,0,0,1-1.28,1.37A2.78,2.78,0,0,1,20.22,262.93Zm0-.86a1.2,1.2,0,0,0,.64-.16,1.13,1.13,0,0,0,.44-.4,1.68,1.68,0,0,0,.26-.56,2.6,2.6,0,0,0,0-1.28,1.68,1.68,0,0,0-.26-.56,1.13,1.13,0,0,0-.44-.4,1.36,1.36,0,0,0-1.27,0,1.13,1.13,0,0,0-.44.4,1.68,1.68,0,0,0-.26.56,2.6,2.6,0,0,0,0,1.28,1.68,1.68,0,0,0,.26.56,1.13,1.13,0,0,0,.44.4A1.16,1.16,0,0,0,20.22,262.07Z" transform="translate(0 -2.66)"/><path class="cls-2" d="M28.25,262.54a2.11,2.11,0,0,1-.63,1.68,2.63,2.63,0,0,1-1.81.55,3.84,3.84,0,0,1-.76-.07,2.51,2.51,0,0,1-.69-.26,1.74,1.74,0,0,1-.53-.48,1.52,1.52,0,0,1-.25-.74h1.1a1,1,0,0,0,.16.38.89.89,0,0,0,.28.23,1.08,1.08,0,0,0,.35.1h.41a1.26,1.26,0,0,0,1-.33,1.38,1.38,0,0,0,.31-1v-.76h0a1.67,1.67,0,0,1-.64.65,1.73,1.73,0,0,1-.86.23,2.14,2.14,0,0,1-1-.21A2,2,0,0,1,24,262a2.39,2.39,0,0,1-.39-.84,3.76,3.76,0,0,1-.13-1,3.09,3.09,0,0,1,.15-1,2.54,2.54,0,0,1,.45-.8,2.31,2.31,0,0,1,.7-.54,2.22,2.22,0,0,1,.95-.2,1.77,1.77,0,0,1,.87.2,1.31,1.31,0,0,1,.61.62h0v-.69h1.09Zm-2.43-.61a1.21,1.21,0,0,0,.62-.15,1.1,1.1,0,0,0,.41-.39,1.62,1.62,0,0,0,.23-.56,2.72,2.72,0,0,0,.08-.63,2.57,2.57,0,0,0-.08-.62,1.64,1.64,0,0,0-.24-.52,1,1,0,0,0-.41-.37,1.3,1.3,0,0,0-.61-.14,1.22,1.22,0,0,0-.62.16,1.1,1.1,0,0,0-.4.4,1.43,1.43,0,0,0-.22.56,2.56,2.56,0,0,0-.07.62,2.46,2.46,0,0,0,.07.6,1.64,1.64,0,0,0,.24.52,1.45,1.45,0,0,0,.4.38,1.13,1.13,0,0,0,.6.14Z" transform="translate(0 -2.66)"/><path class="cls-2" d="M31.64,262.93a2.76,2.76,0,0,1-1.06-.19,2.17,2.17,0,0,1-.79-.55,2.14,2.14,0,0,1-.49-.82,3,3,0,0,1-.17-1.06,2.89,2.89,0,0,1,.17-1.05,2.2,2.2,0,0,1,1.28-1.37,2.88,2.88,0,0,1,2.12,0,2.14,2.14,0,0,1,.79.54,2.26,2.26,0,0,1,.49.83,2.89,2.89,0,0,1,.17,1.05,3,3,0,0,1-.17,1.06,2.14,2.14,0,0,1-.49.82,2.17,2.17,0,0,1-.79.55A2.76,2.76,0,0,1,31.64,262.93Zm0-.86a1.2,1.2,0,0,0,.64-.16,1.21,1.21,0,0,0,.44-.4A1.7,1.7,0,0,0,33,261a2.32,2.32,0,0,0,0-1.28,1.66,1.66,0,0,0-.25-.56,1.21,1.21,0,0,0-.44-.4,1.38,1.38,0,0,0-1.28,0,1.53,1.53,0,0,0-.44.4,1.66,1.66,0,0,0-.25.56,2.6,2.6,0,0,0,0,1.28,1.66,1.66,0,0,0,.25.56,1.53,1.53,0,0,0,.44.4A1.17,1.17,0,0,0,31.64,262.07Z" transform="translate(0 -2.66)"/><path class="cls-2" d="M37,255.76h1L35.33,263h-1Z" transform="translate(0 -2.66)"/><path class="cls-2" d="M42.62,261.69a.49.49,0,0,0,.06.29.2.2,0,0,0,.2.09h.27v.76h-.69a1.1,1.1,0,0,1-.56-.13.69.69,0,0,1-.29-.47,2.07,2.07,0,0,1-.8.46,3.21,3.21,0,0,1-.92.14,2.3,2.3,0,0,1-.64-.09,1.76,1.76,0,0,1-.55-.27,1.15,1.15,0,0,1-.37-.45,1.3,1.3,0,0,1-.14-.64,1.49,1.49,0,0,1,.16-.75,1.21,1.21,0,0,1,.45-.45,2.16,2.16,0,0,1,.61-.24c.23-.05.46-.08.69-.11l.57-.08a2.67,2.67,0,0,0,.48-.08.78.78,0,0,0,.32-.18.48.48,0,0,0,.12-.36.55.55,0,0,0-.1-.35.64.64,0,0,0-.25-.21,1,1,0,0,0-.33-.09h-.35a1.36,1.36,0,0,0-.76.2.74.74,0,0,0-.33.59h-1.1a1.72,1.72,0,0,1,.23-.8,1.46,1.46,0,0,1,.52-.5,2.12,2.12,0,0,1,.7-.27,3.71,3.71,0,0,1,.81-.08,2.94,2.94,0,0,1,.72.08,2,2,0,0,1,.65.3,1.38,1.38,0,0,1,.46.44,1.2,1.2,0,0,1,.17.67Zm-1.09-1.38a1.36,1.36,0,0,1-.62.19,3.68,3.68,0,0,0-.73.11,1.3,1.3,0,0,0-.34.08,1.11,1.11,0,0,0-.29.14.57.57,0,0,0-.19.24.9.9,0,0,0-.08.36.51.51,0,0,0,.11.31.82.82,0,0,0,.25.2,1.26,1.26,0,0,0,.33.1h.32a1.83,1.83,0,0,0,.4-.05,1.52,1.52,0,0,0,.4-.16,1.11,1.11,0,0,0,.31-.3.76.76,0,0,0,.13-.44Z" transform="translate(0 -2.66)"/><path class="cls-2" d="M43.81,257.82h1v.7h0a2.24,2.24,0,0,1,.27-.34,1.35,1.35,0,0,1,.32-.26,1.62,1.62,0,0,1,.41-.17,2.33,2.33,0,0,1,.53-.06,1.89,1.89,0,0,1,.84.2,1.14,1.14,0,0,1,.55.63,2.11,2.11,0,0,1,.65-.61,1.71,1.71,0,0,1,.91-.22,1.82,1.82,0,0,1,1.23.38,1.7,1.7,0,0,1,.44,1.29v3.44h-1.1v-3.45a1,1,0,0,0-.11-.42.61.61,0,0,0-.27-.28,1.24,1.24,0,0,0-.5-.1.91.91,0,0,0-.81.35,1.61,1.61,0,0,0-.25,1v2.92h-1.1v-3.2a1.33,1.33,0,0,0-.19-.78.79.79,0,0,0-.69-.27,1,1,0,0,0-.41.09.94.94,0,0,0-.34.25,1.14,1.14,0,0,0-.24.41,1.65,1.65,0,0,0-.09.54v3h-1.1Z" transform="translate(0 -2.66)"/><path class="cls-2" d="M52.21,255.93h1.1v2.54h0a1.75,1.75,0,0,1,.28-.33,1.41,1.41,0,0,1,.36-.24,2.05,2.05,0,0,1,.41-.16,2.1,2.1,0,0,1,.43-.05,2.3,2.3,0,0,1,1,.21,1.84,1.84,0,0,1,.73.56,2.46,2.46,0,0,1,.44.85,3.77,3.77,0,0,1,0,2,2.53,2.53,0,0,1-.39.83,2.07,2.07,0,0,1-.67.58,2,2,0,0,1-1,.21h-.5a2.09,2.09,0,0,1-.49-.13,1.79,1.79,0,0,1-.42-.25,1.35,1.35,0,0,1-.31-.4h0v.68h-1ZM56,260.32a3,3,0,0,0-.08-.66,1.91,1.91,0,0,0-.26-.56,1.3,1.3,0,0,0-2.08-.06,2.16,2.16,0,0,0-.35,1.28,2.67,2.67,0,0,0,.09.69,1.48,1.48,0,0,0,.28.56,1.36,1.36,0,0,0,.43.36,1.26,1.26,0,0,0,.6.14,1.16,1.16,0,0,0,.63-.16,1.27,1.27,0,0,0,.43-.4A1.66,1.66,0,0,0,56,261,2.58,2.58,0,0,0,56,260.32Z" transform="translate(0 -2.66)"/><path class="cls-2" d="M58.09,255.93h1.1v6.87h-1.1Z" transform="translate(0 -2.66)"/><path class="cls-2" d="M61.24,260.6a2,2,0,0,0,.08.55,1.42,1.42,0,0,0,.25.47A1.21,1.21,0,0,0,62,262a1.53,1.53,0,0,0,.6.12,1.32,1.32,0,0,0,.77-.21,1.15,1.15,0,0,0,.44-.62h1a2.08,2.08,0,0,1-.3.72,2,2,0,0,1-1.18.86,2.52,2.52,0,0,1-.77.11,2.65,2.65,0,0,1-1-.19,2.16,2.16,0,0,1-1.24-1.37,3.39,3.39,0,0,1-.16-1.05,3.09,3.09,0,0,1,.17-1,2.51,2.51,0,0,1,.48-.84,2.24,2.24,0,0,1,.76-.57,2.3,2.3,0,0,1,1-.21,2.28,2.28,0,0,1,1,.24,2.44,2.44,0,0,1,.78.65,2.77,2.77,0,0,1,.45.93,3.09,3.09,0,0,1,.07,1.09Zm2.56-.73a1.72,1.72,0,0,0-.11-.5,1.19,1.19,0,0,0-.64-.7,1.08,1.08,0,0,0-.5-.12,1.4,1.4,0,0,0-.53.11,1.09,1.09,0,0,0-.4.27,1.43,1.43,0,0,0-.38.94Z" transform="translate(0 -2.66)"/><path class="cls-2" d="M65.74,257.82h1v.7h0a2.88,2.88,0,0,1,.27-.34,1.64,1.64,0,0,1,.33-.26,1.42,1.42,0,0,1,.4-.17,2.33,2.33,0,0,1,.53-.06,1.9,1.9,0,0,1,.85.2,1.14,1.14,0,0,1,.55.63,2.11,2.11,0,0,1,.65-.61,1.71,1.71,0,0,1,.91-.22,1.88,1.88,0,0,1,1.23.38,1.7,1.7,0,0,1,.44,1.29v3.44H71.8v-3.45a1,1,0,0,0-.11-.42.63.63,0,0,0-.28-.28,1.09,1.09,0,0,0-.5-.1,1,1,0,0,0-.81.35,1.76,1.76,0,0,0-.25,1v2.92h-1v-3.2a1.43,1.43,0,0,0-.19-.78.79.79,0,0,0-.69-.27,1,1,0,0,0-.41.09.94.94,0,0,0-.34.25,1.55,1.55,0,0,0-.25.41,1.65,1.65,0,0,0-.09.54v3H65.74Z" transform="translate(0 -2.66)"/><path class="cls-2" d="M77.73,260.51a1.54,1.54,0,0,0,.13.67,1.3,1.3,0,0,0,.38.46,1.55,1.55,0,0,0,.55.26,3.08,3.08,0,0,0,.68.08,2.23,2.23,0,0,0,.68-.09,1.31,1.31,0,0,0,.45-.24.81.81,0,0,0,.25-.33,1,1,0,0,0,.08-.38.81.81,0,0,0-.18-.58,1.05,1.05,0,0,0-.39-.27c-.25-.09-.53-.17-.85-.25l-1.2-.31a2.53,2.53,0,0,1-.74-.31,1.71,1.71,0,0,1-.47-.42,1.49,1.49,0,0,1-.24-.49,2,2,0,0,1,.14-1.43,2.05,2.05,0,0,1,.58-.63,2.54,2.54,0,0,1,.8-.37,3.72,3.72,0,0,1,1.93,0,2.65,2.65,0,0,1,.84.42,2.11,2.11,0,0,1,.57.69,2,2,0,0,1,.22.95H80.73a1.14,1.14,0,0,0-.45-.94,1.77,1.77,0,0,0-1-.27h-.43a2,2,0,0,0-.41.14.89.89,0,0,0-.3.28.74.74,0,0,0-.12.43.68.68,0,0,0,.23.57,1.48,1.48,0,0,0,.59.32l.3.08.59.16.64.16.45.13a2.13,2.13,0,0,1,.59.28,2.78,2.78,0,0,1,.42.42,1.79,1.79,0,0,1,.33,1.05,1.92,1.92,0,0,1-.24,1,1.9,1.9,0,0,1-.62.67,2.51,2.51,0,0,1-.87.38,4.21,4.21,0,0,1-1,.12,3.73,3.73,0,0,1-1.1-.14,2.74,2.74,0,0,1-.91-.44,2.17,2.17,0,0,1-.61-.77,2.33,2.33,0,0,1-.24-1.1Z" transform="translate(0 -2.66)"/><path class="cls-2" d="M85.31,262.93a2.78,2.78,0,0,1-1.07-.19A2.27,2.27,0,0,1,83,261.37a3.46,3.46,0,0,1-.17-1.06,3.39,3.39,0,0,1,.17-1.05,2.21,2.21,0,0,1,1.28-1.37,2.9,2.9,0,0,1,2.13,0,2.21,2.21,0,0,1,1.28,1.37,3.39,3.39,0,0,1,.17,1.05,3.46,3.46,0,0,1-.17,1.06,2.28,2.28,0,0,1-1.28,1.37A2.74,2.74,0,0,1,85.31,262.93Zm0-.86a1.16,1.16,0,0,0,.63-.16,1.13,1.13,0,0,0,.44-.4,1.68,1.68,0,0,0,.26-.56,2.6,2.6,0,0,0,0-1.28,1.68,1.68,0,0,0-.26-.56,1.13,1.13,0,0,0-.44-.4,1.36,1.36,0,0,0-1.27,0,1.13,1.13,0,0,0-.44.4,1.68,1.68,0,0,0-.26.56,2.74,2.74,0,0,0-.08.64A2.69,2.69,0,0,0,84,261a1.68,1.68,0,0,0,.26.56,1.13,1.13,0,0,0,.44.4A1.17,1.17,0,0,0,85.31,262.07Z" transform="translate(0 -2.66)"/><path class="cls-2" d="M88.76,255.93h1.1v6.87h-1.1Z" transform="translate(0 -2.66)"/><path class="cls-2" d="M91.08,255.93h1.1v1h-1.1Zm0,1.89h1.1v5h-1.1Z" transform="translate(0 -2.66)"/><path class="cls-2" d="M98.06,262.8H97v-.67h0a1.37,1.37,0,0,1-.64.62,2.47,2.47,0,0,1-1.9,0,2.13,2.13,0,0,1-.73-.57,2.24,2.24,0,0,1-.43-.84,3.37,3.37,0,0,1-.15-1,3.33,3.33,0,0,1,.18-1.17,2.58,2.58,0,0,1,.49-.81,1.9,1.9,0,0,1,.69-.46,2.22,2.22,0,0,1,.8-.15h.47a2.44,2.44,0,0,1,.46.14,2.14,2.14,0,0,1,.41.25,1.47,1.47,0,0,1,.31.35h0v-2.54h1.1Zm-3.83-2.44a2.72,2.72,0,0,0,.08.63,1.61,1.61,0,0,0,.25.55,1.27,1.27,0,0,0,1,.53,1.16,1.16,0,0,0,.63-.16,1.27,1.27,0,0,0,.43-.4,1.88,1.88,0,0,0,.25-.56,2.74,2.74,0,0,0,.08-.64,2,2,0,0,0-.37-1.29,1.22,1.22,0,0,0-1-.47,1.33,1.33,0,0,0-.65.16,1.44,1.44,0,0,0-.43.42,1.74,1.74,0,0,0-.24.58A2.35,2.35,0,0,0,94.23,260.36Z" transform="translate(0 -2.66)"/><path class="cls-2" d="M102.08,255.93h5v1h-3.74v1.8h3.46v1h-3.46v2h3.81v1h-5Z" transform="translate(0 -2.66)"/><path class="cls-2" d="M108,255.93h1.1v6.87H108Z" transform="translate(0 -2.66)"/><path class="cls-2" d="M111.17,260.6a2,2,0,0,0,.08.55,1.42,1.42,0,0,0,.25.47,1.2,1.2,0,0,0,.41.33,1.53,1.53,0,0,0,.6.12,1.32,1.32,0,0,0,.77-.21,1.21,1.21,0,0,0,.44-.62h1a2.08,2.08,0,0,1-.3.72,2,2,0,0,1-1.18.86,2.52,2.52,0,0,1-.77.11,2.65,2.65,0,0,1-1-.19,2.16,2.16,0,0,1-1.24-1.37,3.26,3.26,0,0,1,0-2.05,2.51,2.51,0,0,1,.48-.84,2.24,2.24,0,0,1,.76-.57,2.3,2.3,0,0,1,1-.21,2.17,2.17,0,0,1,1,.24,2.44,2.44,0,0,1,.78.65,2.77,2.77,0,0,1,.45.93,3.09,3.09,0,0,1,.07,1.09Zm2.56-.73a1.72,1.72,0,0,0-.11-.5,1.38,1.38,0,0,0-.25-.42,1.21,1.21,0,0,0-.39-.28,1.08,1.08,0,0,0-.5-.12,1.4,1.4,0,0,0-.53.11,1.09,1.09,0,0,0-.4.27,1.43,1.43,0,0,0-.38.94Z" transform="translate(0 -2.66)"/><path class="cls-2" d="M119,259.49a1,1,0,0,0-.38-.7,1.17,1.17,0,0,0-.76-.24,1.42,1.42,0,0,0-.45.08,1,1,0,0,0-.45.27,1.55,1.55,0,0,0-.33.55,2.55,2.55,0,0,0-.14.91,3.18,3.18,0,0,0,.07.62,1.59,1.59,0,0,0,.24.55,1.24,1.24,0,0,0,.4.39,1.2,1.2,0,0,0,.61.15,1.12,1.12,0,0,0,.8-.3,1.49,1.49,0,0,0,.39-.84h1.09a2.43,2.43,0,0,1-.73,1.49,2.25,2.25,0,0,1-1.55.51,2.47,2.47,0,0,1-1-.19,2.16,2.16,0,0,1-.76-.54,2.4,2.4,0,0,1-.47-.82,3.2,3.2,0,0,1,0-2,2.39,2.39,0,0,1,.46-.86,2,2,0,0,1,.77-.56,2.47,2.47,0,0,1,1.07-.21,3.24,3.24,0,0,1,.82.11,2.25,2.25,0,0,1,.7.33,1.81,1.81,0,0,1,.72,1.36Z" transform="translate(0 -2.66)"/><path class="cls-2" d="M120.52,257.82h.82v-1.49h1.1v1.49h1v.82h-1v2.66a1.5,1.5,0,0,0,0,.3.83.83,0,0,0,.06.21.34.34,0,0,0,.16.13.71.71,0,0,0,.29,0h.46v.85h-.71a2.74,2.74,0,0,1-.7-.08,1.14,1.14,0,0,1-.41-.24.84.84,0,0,1-.2-.4,3.31,3.31,0,0,1-.07-.55v-2.94h-.82Z" transform="translate(0 -2.66)"/><path class="cls-2" d="M124.22,257.82h1v1h0a1.23,1.23,0,0,1,.19-.4,1.88,1.88,0,0,1,.34-.35,1.45,1.45,0,0,1,.43-.26,1.43,1.43,0,0,1,.5-.09h.47v1.06h-.47a1.2,1.2,0,0,0-1,.44,1.59,1.59,0,0,0-.28.53,2.27,2.27,0,0,0-.11.73v2.37h-1.1Z" transform="translate(0 -2.66)"/><path class="cls-2" d="M129.72,262.93a2.76,2.76,0,0,1-1.06-.19,2.17,2.17,0,0,1-.79-.55,2.14,2.14,0,0,1-.49-.82,3,3,0,0,1-.17-1.06,2.89,2.89,0,0,1,.17-1.05,2.26,2.26,0,0,1,.49-.83,2.14,2.14,0,0,1,.79-.54,2.88,2.88,0,0,1,2.12,0,2.2,2.2,0,0,1,1.28,1.37,2.89,2.89,0,0,1,.17,1.05,3,3,0,0,1-.17,1.06,2.14,2.14,0,0,1-.49.82,2.17,2.17,0,0,1-.79.55A2.76,2.76,0,0,1,129.72,262.93Zm0-.86a1.16,1.16,0,0,0,.63-.16,1.33,1.33,0,0,0,.45-.4,1.66,1.66,0,0,0,.25-.56,2.6,2.6,0,0,0,0-1.28,1.66,1.66,0,0,0-.25-.56,1.33,1.33,0,0,0-.45-.4,1.26,1.26,0,0,0-.63-.16,1.32,1.32,0,0,0-.64.16,1.21,1.21,0,0,0-.44.4,1.66,1.66,0,0,0-.25.56,2.32,2.32,0,0,0,0,1.28,1.66,1.66,0,0,0,.25.56,1.21,1.21,0,0,0,.44.4A1.2,1.2,0,0,0,129.72,262.07Z" transform="translate(0 -2.66)"/><path class="cls-2" d="M133.15,257.82h1v.73h0a1.94,1.94,0,0,1,2.83-.46,1.59,1.59,0,0,1,.48,1.27v3.42h-1.1v-3.13a1.37,1.37,0,0,0-.25-.85.92.92,0,0,0-.72-.27,1.25,1.25,0,0,0-.5.11.94.94,0,0,0-.38.27,1.49,1.49,0,0,0-.33.93v2.94h-1.09Z" transform="translate(0 -2.66)"/><path class="cls-2" d="M141.5,255.93h1.21v3.13l3.06-3.13h1.48l-2.75,2.74,2.94,4.13h-1.5l-2.25-3.28-1,1v2.31H141.5Z" transform="translate(0 -2.66)"/><path class="cls-2" d="M150.22,262.93a2.76,2.76,0,0,1-1.06-.19,2.17,2.17,0,0,1-.79-.55,2.14,2.14,0,0,1-.49-.82,3.46,3.46,0,0,1-.17-1.06,3.39,3.39,0,0,1,.17-1.05,2.2,2.2,0,0,1,1.28-1.37,2.56,2.56,0,0,1,1.06-.2,2.61,2.61,0,0,1,1.07.2,2.27,2.27,0,0,1,.79.54,2.4,2.4,0,0,1,.49.83,3.39,3.39,0,0,1,.17,1.05,3.46,3.46,0,0,1-.17,1.06,2.63,2.63,0,0,1-.49.82,2.3,2.3,0,0,1-.79.55A2.78,2.78,0,0,1,150.22,262.93Zm0-.86a1.2,1.2,0,0,0,.64-.16,1.13,1.13,0,0,0,.44-.4,1.68,1.68,0,0,0,.26-.56,2.6,2.6,0,0,0,0-1.28,1.68,1.68,0,0,0-.26-.56,1.13,1.13,0,0,0-.44-.4,1.36,1.36,0,0,0-1.27,0,1.33,1.33,0,0,0-.45.4,1.66,1.66,0,0,0-.25.56,2.6,2.6,0,0,0,0,1.28,1.66,1.66,0,0,0,.25.56,1.33,1.33,0,0,0,.45.4A1.16,1.16,0,0,0,150.22,262.07Z" transform="translate(0 -2.66)"/><path class="cls-2" d="M153.65,257.82h1v.73h0a1.84,1.84,0,0,1,.65-.65,2.05,2.05,0,0,1,2.19.19,1.67,1.67,0,0,1,.47,1.27v3.42h-1.1v-3.13a1.31,1.31,0,0,0-.25-.85.92.92,0,0,0-.72-.27,1.23,1.23,0,0,0-.88.38,1.38,1.38,0,0,0-.32.93v2.94h-1.1Z" transform="translate(0 -2.66)"/><path class="cls-2" d="M158.67,257.82h.83v-1.49h1.1v1.49h1v.82h-1v2.66a1.5,1.5,0,0,0,0,.3.58.58,0,0,0,.07.21.34.34,0,0,0,.16.13.71.71,0,0,0,.29,0h.46v.85h-.71a2.74,2.74,0,0,1-.7-.08,1.14,1.14,0,0,1-.41-.24.86.86,0,0,1-.21-.4,5.14,5.14,0,0,1-.06-.55v-2.94h-.83Z" transform="translate(0 -2.66)"/><path class="cls-2" d="M162.38,257.82h1v1h0a1,1,0,0,1,.19-.4A1.91,1.91,0,0,1,164,258a1.5,1.5,0,0,1,.44-.26,1.37,1.37,0,0,1,.49-.09h.42v1.06h-.47a1.1,1.1,0,0,0-.53.11,1.08,1.08,0,0,0-.43.33,1.62,1.62,0,0,0-.29.53,2.26,2.26,0,0,0-.1.73v2.37h-1.1Z" transform="translate(0 -2.66)"/><path class="cls-2" d="M167.88,262.93a2.78,2.78,0,0,1-1.07-.19,2.28,2.28,0,0,1-1.28-1.37,3.46,3.46,0,0,1-.17-1.06,3.39,3.39,0,0,1,.17-1.05,2.21,2.21,0,0,1,1.28-1.37,2.9,2.9,0,0,1,2.13,0,2.21,2.21,0,0,1,1.28,1.37,3.39,3.39,0,0,1,.17,1.05,3.46,3.46,0,0,1-.17,1.06,2.28,2.28,0,0,1-1.28,1.37A2.76,2.76,0,0,1,167.88,262.93Zm0-.86a1.16,1.16,0,0,0,.63-.16,1.13,1.13,0,0,0,.44-.4,1.68,1.68,0,0,0,.26-.56,2.6,2.6,0,0,0,0-1.28,1.68,1.68,0,0,0-.26-.56,1.13,1.13,0,0,0-.44-.4,1.36,1.36,0,0,0-1.27,0,1.13,1.13,0,0,0-.44.4,1.68,1.68,0,0,0-.26.56,2.6,2.6,0,0,0,0,1.28,1.68,1.68,0,0,0,.26.56,1.13,1.13,0,0,0,.44.4A1.2,1.2,0,0,0,167.88,262.07Z" transform="translate(0 -2.66)"/><path class="cls-2" d="M171.33,255.93h1.1v6.87h-1.1Z" transform="translate(0 -2.66)"/><path class="cls-2" d="M175.8,255.93h5.56v1h-2.18v5.83H178V257h-2.2Z" transform="translate(0 -2.66)"/><path class="cls-2" d="M181.79,260.6a1.71,1.71,0,0,0,.09.55,1.4,1.4,0,0,0,.24.47,1.23,1.23,0,0,0,.42.33,1.54,1.54,0,0,0,1.37-.09,1.25,1.25,0,0,0,.44-.62h1a2.08,2.08,0,0,1-.3.72,2,2,0,0,1-1.18.86,2.58,2.58,0,0,1-.78.11,2.65,2.65,0,0,1-1-.19,2.16,2.16,0,0,1-.76-.54,2.08,2.08,0,0,1-.47-.83,3.11,3.11,0,0,1-.16-1.05,2.84,2.84,0,0,1,.17-1,2.51,2.51,0,0,1,.48-.84,2.23,2.23,0,0,1,1.75-.78,2.29,2.29,0,0,1,1.06.24,2.41,2.41,0,0,1,.77.65,2.51,2.51,0,0,1,.45.93,2.87,2.87,0,0,1,.07,1.09Zm2.57-.73a2.13,2.13,0,0,0-.11-.5A1.85,1.85,0,0,0,184,259a1.21,1.21,0,0,0-.39-.28,1.13,1.13,0,0,0-.51-.12,1.31,1.31,0,0,0-.52.11,1.09,1.09,0,0,0-.4.27,1.17,1.17,0,0,0-.27.42,1.52,1.52,0,0,0-.12.52Z" transform="translate(0 -2.66)"/><path class="cls-2" d="M186.32,255.93h1.1v3.9l2-2h1.35l-1.91,1.83,2.09,3.15h-1.34l-1.52-2.42-.65.64v1.78h-1.1Z" transform="translate(0 -2.66)"/><path class="cls-2" d="M191.46,257.82h1v.73h0a1.84,1.84,0,0,1,.65-.65,2.05,2.05,0,0,1,2.19.19,1.67,1.67,0,0,1,.47,1.27v3.42h-1.1v-3.13a1.31,1.31,0,0,0-.25-.85.92.92,0,0,0-.72-.27,1.23,1.23,0,0,0-.88.38,1.38,1.38,0,0,0-.32.93v2.94h-1.1Z" transform="translate(0 -2.66)"/><path class="cls-2" d="M199.27,262.93a2.78,2.78,0,0,1-1.07-.19,2.3,2.3,0,0,1-.79-.55,2.63,2.63,0,0,1-.49-.82,3.46,3.46,0,0,1-.17-1.06,3.39,3.39,0,0,1,.17-1.05,2.4,2.4,0,0,1,.49-.83,2.27,2.27,0,0,1,.79-.54,2.9,2.9,0,0,1,2.13,0,2.21,2.21,0,0,1,1.28,1.37,3.39,3.39,0,0,1,.17,1.05,3.46,3.46,0,0,1-.17,1.06,2.28,2.28,0,0,1-1.28,1.37A2.76,2.76,0,0,1,199.27,262.93Zm0-.86a1.16,1.16,0,0,0,.63-.16,1.13,1.13,0,0,0,.44-.4,1.68,1.68,0,0,0,.26-.56,2.6,2.6,0,0,0,0-1.28,1.68,1.68,0,0,0-.26-.56,1.13,1.13,0,0,0-.44-.4,1.36,1.36,0,0,0-1.27,0,1.13,1.13,0,0,0-.44.4,1.68,1.68,0,0,0-.26.56,2.6,2.6,0,0,0,0,1.28,1.68,1.68,0,0,0,.26.56,1.13,1.13,0,0,0,.44.4A1.2,1.2,0,0,0,199.27,262.07Z" transform="translate(0 -2.66)"/><path class="cls-2" d="M202.72,255.93h1.1v6.87h-1.1Z" transform="translate(0 -2.66)"/><path class="cls-2" d="M207.29,262.93a2.76,2.76,0,0,1-1.06-.19,2.28,2.28,0,0,1-1.28-1.37,3.46,3.46,0,0,1-.17-1.06,3.39,3.39,0,0,1,.17-1.05,2.21,2.21,0,0,1,1.28-1.37,2.9,2.9,0,0,1,2.13,0,2.21,2.21,0,0,1,1.28,1.37,3.39,3.39,0,0,1,.17,1.05,3.46,3.46,0,0,1-.17,1.06,2.28,2.28,0,0,1-1.28,1.37A2.78,2.78,0,0,1,207.29,262.93Zm0-.86a1.2,1.2,0,0,0,.64-.16,1.13,1.13,0,0,0,.44-.4,1.68,1.68,0,0,0,.26-.56,2.6,2.6,0,0,0,0-1.28,1.68,1.68,0,0,0-.26-.56,1.13,1.13,0,0,0-.44-.4,1.36,1.36,0,0,0-1.27,0,1.13,1.13,0,0,0-.44.4,1.68,1.68,0,0,0-.26.56,2.6,2.6,0,0,0,0,1.28,1.68,1.68,0,0,0,.26.56,1.13,1.13,0,0,0,.44.4A1.16,1.16,0,0,0,207.29,262.07Z" transform="translate(0 -2.66)"/><path class="cls-2" d="M210.75,257.82h1.1v5.4a1.75,1.75,0,0,1-.33,1.15,1.33,1.33,0,0,1-1.1.4h-.49v-.86h.38c.2,0,.32-.06.37-.19a1.46,1.46,0,0,0,.07-.55Zm0-1.89h1.1v1h-1.1Z" transform="translate(0 -2.66)"/><path class="cls-2" d="M213.07,255.93h1.1v1h-1.1Zm0,1.89h1.1v5h-1.1Z" transform="translate(0 -2.66)"/><path class="cls-2" d="M215.39,255.93h1.1v6.87h-1.1Z" transform="translate(0 -2.66)"/><path class="cls-2" d="M218.54,260.6a1.7,1.7,0,0,0,.08.55,1.26,1.26,0,0,0,.25.47,1,1,0,0,0,.41.33,1.37,1.37,0,0,0,.6.12,1.32,1.32,0,0,0,.77-.21,1.21,1.21,0,0,0,.44-.62h1a2.08,2.08,0,0,1-.3.72,2,2,0,0,1-1.18.86,2.52,2.52,0,0,1-.77.11,2.65,2.65,0,0,1-1-.19,2.19,2.19,0,0,1-.77-.54,2.35,2.35,0,0,1-.47-.83,3.26,3.26,0,0,1,0-2.05,2.51,2.51,0,0,1,.48-.84,2.4,2.4,0,0,1,2.81-.54,2.44,2.44,0,0,1,.78.65,2.49,2.49,0,0,1,.44.93,2.85,2.85,0,0,1,.08,1.09Zm2.56-.73a2.13,2.13,0,0,0-.11-.5,1.38,1.38,0,0,0-.25-.42,1.21,1.21,0,0,0-.39-.28,1.08,1.08,0,0,0-.5-.12,1.4,1.4,0,0,0-.53.11,1.09,1.09,0,0,0-.4.27,1.68,1.68,0,0,0-.27.42,1.31,1.31,0,0,0-.11.52Z" transform="translate(0 -2.66)"/><path class="cls-2" d="M223,257.82h1v1h0a1.23,1.23,0,0,1,.19-.4,1.88,1.88,0,0,1,.34-.35,1.45,1.45,0,0,1,.43-.26,1.43,1.43,0,0,1,.5-.09h.41v1.06h-.47a1.23,1.23,0,0,0-.53.11,1.12,1.12,0,0,0-.42.33,1.44,1.44,0,0,0-.29.53,2.27,2.27,0,0,0-.11.73v2.37H223Z" transform="translate(0 -2.66)"/><path class="cls-2" d="M226.45,255.93h1.1v1h-1.1Zm0,1.89h1.1v5h-1.1Z" transform="translate(0 -2.66)"/><path class="cls-2" d="M232.36,260.51a1.42,1.42,0,0,0,.14.67,1.18,1.18,0,0,0,.37.46,1.55,1.55,0,0,0,.55.26,3.08,3.08,0,0,0,.68.08,2.23,2.23,0,0,0,.68-.09,1.31,1.31,0,0,0,.45-.24.81.81,0,0,0,.25-.33,1,1,0,0,0,.08-.38.81.81,0,0,0-.18-.58,1.05,1.05,0,0,0-.39-.27c-.25-.09-.53-.17-.85-.25l-1.2-.31a2.53,2.53,0,0,1-.74-.31,1.71,1.71,0,0,1-.47-.42,1.49,1.49,0,0,1-.24-.49,2,2,0,0,1,.14-1.43,2.05,2.05,0,0,1,.58-.63,2.54,2.54,0,0,1,.8-.37,3.57,3.57,0,0,1,.92-.12,3.77,3.77,0,0,1,1,.14,2.82,2.82,0,0,1,.83.42,2.27,2.27,0,0,1,.58.69,1.94,1.94,0,0,1,.21.95h-1.21a1.14,1.14,0,0,0-.45-.94,1.77,1.77,0,0,0-1-.27h-.43a2,2,0,0,0-.41.14.89.89,0,0,0-.3.28.83.83,0,0,0,.11,1,1.48,1.48,0,0,0,.59.32l.3.08.59.16.64.16.45.13a2.13,2.13,0,0,1,.59.28,2.09,2.09,0,0,1,.42.42,1.79,1.79,0,0,1,.33,1,1.92,1.92,0,0,1-.24,1,1.9,1.9,0,0,1-.62.67,2.51,2.51,0,0,1-.87.38,4.21,4.21,0,0,1-1,.12,3.8,3.8,0,0,1-1.11-.14,2.74,2.74,0,0,1-.91-.44,2.17,2.17,0,0,1-.61-.77,2.33,2.33,0,0,1-.24-1.1Z" transform="translate(0 -2.66)"/><path class="cls-2" d="M241.82,261.69a.49.49,0,0,0,.06.29.2.2,0,0,0,.2.09h.27v.76h-.69a1.08,1.08,0,0,1-.56-.13.69.69,0,0,1-.29-.47,2.07,2.07,0,0,1-.8.46,3.21,3.21,0,0,1-.92.14,2.37,2.37,0,0,1-.65-.09,1.82,1.82,0,0,1-.54-.27,1.27,1.27,0,0,1-.38-.45,1.42,1.42,0,0,1-.14-.64,1.5,1.5,0,0,1,.17-.75,1.21,1.21,0,0,1,.45-.45,1.9,1.9,0,0,1,.61-.24c.23-.05.46-.08.69-.11l.57-.08a2.43,2.43,0,0,0,.47-.08.72.72,0,0,0,.33-.18.48.48,0,0,0,.12-.36.55.55,0,0,0-.1-.35.72.72,0,0,0-.25-.21,1,1,0,0,0-.33-.09h-.35a1.36,1.36,0,0,0-.76.2.74.74,0,0,0-.33.59h-1.1a1.72,1.72,0,0,1,.23-.8,1.52,1.52,0,0,1,.51-.5,2.27,2.27,0,0,1,.71-.27,3.71,3.71,0,0,1,.81-.08,2.94,2.94,0,0,1,.72.08,1.86,1.86,0,0,1,.64.25,1.38,1.38,0,0,1,.46.44,1.31,1.31,0,0,1,.17.67Zm-1.09-1.38a1.36,1.36,0,0,1-.62.19,3.68,3.68,0,0,0-.73.11,1.3,1.3,0,0,0-.34.08,1.11,1.11,0,0,0-.29.14.78.78,0,0,0-.2.24.89.89,0,0,0-.07.36.51.51,0,0,0,.11.31.82.82,0,0,0,.25.2,1.26,1.26,0,0,0,.33.1h.32a1.83,1.83,0,0,0,.4-.05,1.52,1.52,0,0,0,.4-.16,1.11,1.11,0,0,0,.31-.3.76.76,0,0,0,.13-.44Z" transform="translate(0 -2.66)"/><path class="cls-2" d="M243,257.82h1v.73h0a1.76,1.76,0,0,1,1.55-.88,1.93,1.93,0,0,1,1.29.42,1.67,1.67,0,0,1,.47,1.27v3.42h-1.1v-3.13a1.37,1.37,0,0,0-.25-.85.92.92,0,0,0-.72-.27,1.25,1.25,0,0,0-.5.11.94.94,0,0,0-.38.27,1.49,1.49,0,0,0-.33.93v2.94h-1Z" transform="translate(0 -2.66)"/><path class="cls-2" d="M248.62,261.5H250v1.3h-1.34Z" transform="translate(0 -2.66)"/><path class="cls-2" d="M253.39,257.82h1.2l1.26,3.82h0l1.21-3.82h1.14l-1.79,5H255.2Z" transform="translate(0 -2.66)"/><path class="cls-2" d="M259.74,260.6a1.7,1.7,0,0,0,.08.55,1.4,1.4,0,0,0,.24.47,1.23,1.23,0,0,0,1,.45,1.32,1.32,0,0,0,.77-.21,1.25,1.25,0,0,0,.44-.62h1a2.08,2.08,0,0,1-.3.72,2,2,0,0,1-1.18.86,2.52,2.52,0,0,1-.77.11,2.65,2.65,0,0,1-1-.19,2.19,2.19,0,0,1-.77-.54,2.08,2.08,0,0,1-.47-.83,3.26,3.26,0,0,1,0-2.05,2.51,2.51,0,0,1,.48-.84,2.25,2.25,0,0,1,1.76-.78,2.28,2.28,0,0,1,1.05.24,2.44,2.44,0,0,1,.78.65,2.8,2.8,0,0,1,.51,2Zm2.56-.73a2.13,2.13,0,0,0-.11-.5,1.38,1.38,0,0,0-.25-.42,1.21,1.21,0,0,0-.39-.28,1.08,1.08,0,0,0-.5-.12,1.4,1.4,0,0,0-.53.11,1.09,1.09,0,0,0-.4.27,1.43,1.43,0,0,0-.38.94Z" transform="translate(0 -2.66)"/><path class="cls-2" d="M266.41,255.93H272v1h-2.18v5.83h-1.21V257h-2.17Z" transform="translate(0 -2.66)"/><path class="cls-2" d="M272.65,255.93h1.09v1h-1.09Zm0,1.89h1.09v5h-1.09Z" transform="translate(0 -2.66)"/><path class="cls-2" d="M278.3,259.49a1,1,0,0,0-.38-.7,1.17,1.17,0,0,0-.76-.24,1.42,1.42,0,0,0-.45.08,1,1,0,0,0-.45.27,1.55,1.55,0,0,0-.33.55,2.84,2.84,0,0,0-.06,1.53,1.57,1.57,0,0,0,.23.55,1.24,1.24,0,0,0,.4.39,1.2,1.2,0,0,0,.61.15,1.12,1.12,0,0,0,.8-.3,1.49,1.49,0,0,0,.39-.84h1.09a2.43,2.43,0,0,1-.73,1.49,2.25,2.25,0,0,1-1.55.51,2.65,2.65,0,0,1-1-.19,2.16,2.16,0,0,1-.76-.54,2.4,2.4,0,0,1-.47-.82,3.41,3.41,0,0,1,0-2,2.39,2.39,0,0,1,.46-.86,2,2,0,0,1,.77-.56,2.47,2.47,0,0,1,1.07-.21,3.24,3.24,0,0,1,.82.11,2.25,2.25,0,0,1,.7.33,1.81,1.81,0,0,1,.72,1.36Z" transform="translate(0 -2.66)"/><path class="cls-2" d="M280.38,261.5h1.33v1.3h-1.33Z" transform="translate(0 -2.66)"/><path class="cls-2" d="M287.63,255.93h1.28l2.65,6.87h-1.29l-.64-1.82h-2.75l-.64,1.82H285Zm-.42,4.14h2.1l-1-3h0Z" transform="translate(0 -2.66)"/><path class="cls-2" d="M292.15,261.5h1.34v1.3h-1.34Z" transform="translate(0 -2.66)"/><path class="cls-2" d="M295.66,264.34l.32.12a1.61,1.61,0,0,0,.31,0h.2a.6.6,0,0,0,.19-.06.33.33,0,0,0,.14-.12.29.29,0,0,0,.05-.2.3.3,0,0,0-.14-.27.47.47,0,0,0-.3-.1.79.79,0,0,0-.37.1l-.22-.18.54-.73a2.8,2.8,0,0,1-.58-.09,2,2,0,0,1-.69-.32,1.59,1.59,0,0,1-.64-1.31h1.09a.89.89,0,0,0,.37.68,1.53,1.53,0,0,0,.76.19H297a1.18,1.18,0,0,0,.37-.09.7.7,0,0,0,.29-.19.55.55,0,0,0,.1-.35.46.46,0,0,0-.16-.34,1.07,1.07,0,0,0-.37-.22,4.84,4.84,0,0,0-.51-.14l-.59-.12a5.72,5.72,0,0,1-.59-.17,1.89,1.89,0,0,1-.51-.26,1.22,1.22,0,0,1-.36-.42,1.26,1.26,0,0,1-.14-.63,1.11,1.11,0,0,1,.2-.68,1.52,1.52,0,0,1,.5-.44,2,2,0,0,1,.68-.23,3.26,3.26,0,0,1,.7-.07,3.65,3.65,0,0,1,.74.08,1.85,1.85,0,0,1,.63.27,1.48,1.48,0,0,1,.71,1.18h-1.14a.71.71,0,0,0-.36-.53,1.62,1.62,0,0,0-.65-.14h-.28a1.67,1.67,0,0,0-.3.08.51.51,0,0,0-.23.15.35.35,0,0,0-.1.26.44.44,0,0,0,.14.33,1.23,1.23,0,0,0,.37.21,4.84,4.84,0,0,0,.51.14l.6.12c.2,0,.39.1.59.17a1.89,1.89,0,0,1,.51.26,1.32,1.32,0,0,1,.37.41,1.2,1.2,0,0,1,.14.62,1.31,1.31,0,0,1-.21.75,1.66,1.66,0,0,1-.52.5,2.63,2.63,0,0,1-.72.28,3.08,3.08,0,0,1-.61.07l-.34.45h.6a.87.87,0,0,1,.27.14.79.79,0,0,1,.19.22.71.71,0,0,1,.07.32.74.74,0,0,1-.1.41.87.87,0,0,1-.27.27,1.2,1.2,0,0,1-.37.15,1.52,1.52,0,0,1-.42.06,2.31,2.31,0,0,1-.52-.06,1.56,1.56,0,0,1-.47-.17Z" transform="translate(0 -2.66)"/><path class="cls-2" d="M299.82,261.5h1.34v1.3h-1.34Z" transform="translate(0 -2.66)"/><path class="cls-2" d="M302.57,258.08a.57.57,0,0,0,.47-.29,1.34,1.34,0,0,0,.12-.56h-.59v-1.3h1.21v1.3a1.4,1.4,0,0,1-.33.94,1.33,1.33,0,0,1-.88.47Z" transform="translate(0 -2.66)"/><path class="cls-2" d="M304.54,257.82h1.2l1.3,3.72h0l1.26-3.72h1.14l-1.93,5.25c-.09.22-.18.44-.27.64a2.29,2.29,0,0,1-.31.55,1.4,1.4,0,0,1-.47.37,1.58,1.58,0,0,1-.71.14,4.82,4.82,0,0,1-.76,0v-.93h.26a1.13,1.13,0,0,0,.26,0,.81.81,0,0,0,.31,0,.49.49,0,0,0,.21-.14.64.64,0,0,0,.14-.22,2.33,2.33,0,0,0,.11-.28l.12-.39Z" transform="translate(0 -2.66)"/><path class="cls-2" d="M310.94,260.6a1.7,1.7,0,0,0,.08.55,1.4,1.4,0,0,0,.24.47,1.23,1.23,0,0,0,.42.33,1.37,1.37,0,0,0,.6.12,1.32,1.32,0,0,0,.77-.21,1.21,1.21,0,0,0,.44-.62h1a2.08,2.08,0,0,1-.3.72,2,2,0,0,1-1.18.86,2.52,2.52,0,0,1-.77.11,2.65,2.65,0,0,1-1-.19,2.19,2.19,0,0,1-.77-.54,2.08,2.08,0,0,1-.47-.83,3.26,3.26,0,0,1,0-2.05,2.51,2.51,0,0,1,.48-.84,2.4,2.4,0,0,1,2.81-.54,2.44,2.44,0,0,1,.78.65,2.49,2.49,0,0,1,.44.93,2.85,2.85,0,0,1,.08,1.09Zm2.56-.73a1.72,1.72,0,0,0-.11-.5,1.38,1.38,0,0,0-.25-.42,1.21,1.21,0,0,0-.39-.28,1.08,1.08,0,0,0-.5-.12,1.4,1.4,0,0,0-.53.11,1.09,1.09,0,0,0-.4.27,1.68,1.68,0,0,0-.27.42,1.31,1.31,0,0,0-.11.52Z" transform="translate(0 -2.66)"/><path class="cls-2" d="M317.56,257.82h1.2l1.3,3.72h0l1.26-3.72h1.15l-1.94,5.25c-.09.22-.17.44-.26.64a2.33,2.33,0,0,1-.32.55,1.21,1.21,0,0,1-.47.37,1.46,1.46,0,0,1-.71.14H318v-.93h.26a1.13,1.13,0,0,0,.26,0,.86.86,0,0,0,.32,0,.6.6,0,0,0,.21-.14,1,1,0,0,0,.14-.22,1.37,1.37,0,0,1,.1-.28l.13-.39Z" transform="translate(0 -2.66)"/><path class="cls-2" d="M324,260.6a2,2,0,0,0,.08.55,1.42,1.42,0,0,0,.25.47,1.2,1.2,0,0,0,.41.33,1.53,1.53,0,0,0,.6.12,1.32,1.32,0,0,0,.77-.21,1.15,1.15,0,0,0,.44-.62h1a2.08,2.08,0,0,1-.3.72,2,2,0,0,1-1.18.86,2.52,2.52,0,0,1-.77.11,2.65,2.65,0,0,1-1-.19,2.29,2.29,0,0,1-.77-.54,2.35,2.35,0,0,1-.47-.83,3.39,3.39,0,0,1-.16-1.05,3.09,3.09,0,0,1,.17-1,2.51,2.51,0,0,1,.48-.84,2.24,2.24,0,0,1,.76-.57,2.3,2.3,0,0,1,1-.21,2.28,2.28,0,0,1,1.05.24,2.44,2.44,0,0,1,.78.65,2.77,2.77,0,0,1,.45.93,3.09,3.09,0,0,1,.07,1.09Zm2.56-.73a1.72,1.72,0,0,0-.11-.5,1.38,1.38,0,0,0-.25-.42,1.29,1.29,0,0,0-.38-.28,1.13,1.13,0,0,0-.51-.12,1.31,1.31,0,0,0-.52.11,1.22,1.22,0,0,0-.41.27,1.43,1.43,0,0,0-.38.94Z" transform="translate(0 -2.66)"/><path class="cls-2" d="M328,257.82h.82v-1.49h1.1v1.49h1v.82h-1v2.66a1.5,1.5,0,0,0,0,.3.83.83,0,0,0,.06.21.34.34,0,0,0,.16.13.71.71,0,0,0,.29,0h.46v.85h-.71a2.74,2.74,0,0,1-.7-.08,1.14,1.14,0,0,1-.41-.24.84.84,0,0,1-.2-.4,3.31,3.31,0,0,1-.07-.55v-2.94H328Z" transform="translate(0 -2.66)"/><path class="cls-2" d="M331.69,255.93h1.1v3.9l2-2h1.35l-1.91,1.83,2.09,3.15H335l-1.52-2.42-.65.64v1.78h-1.1Z" transform="translate(0 -2.66)"/><path class="cls-2" d="M336.86,255.93H338v1h-1.1Zm0,1.89H338v5h-1.1Z" transform="translate(0 -2.66)"/><path class="cls-2" d="M339.18,255.93h1.1v6.87h-1.1Z" transform="translate(0 -2.66)"/><path class="cls-2" d="M341.5,255.93h1.1v1h-1.1Zm0,1.89h1.1v5h-1.1Z" transform="translate(0 -2.66)"/><path class="cls-2" d="M346.5,255.93h1.09v3.9l2-2h1.34l-1.9,1.83,2.09,3.15h-1.34l-1.52-2.42-.66.64v1.78h-1.1Z" transform="translate(0 -2.66)"/><path class="cls-2" d="M356,262.8h-1.08v-.69h0a1.57,1.57,0,0,1-.6.6,1.68,1.68,0,0,1-.82.22,1.86,1.86,0,0,1-1.42-.48,2.15,2.15,0,0,1-.43-1.47v-3.16h1.09v3.05a1.4,1.4,0,0,0,.25.93.91.91,0,0,0,.71.27,1.24,1.24,0,0,0,.57-.11,1,1,0,0,0,.38-.28,1.15,1.15,0,0,0,.21-.43,2.48,2.48,0,0,0,.06-.54v-2.89H356Z" transform="translate(0 -2.66)"/><path class="cls-2" d="M357.16,257.82h1v1h0a1,1,0,0,1,.19-.4,1.56,1.56,0,0,1,.33-.35,1.76,1.76,0,0,1,.44-.26,1.37,1.37,0,0,1,.49-.09H360v1.06h-.47a1.23,1.23,0,0,0-.53.11,1.08,1.08,0,0,0-.43.33,1.62,1.62,0,0,0-.29.53,2.26,2.26,0,0,0-.1.73v2.37h-1.1Z" transform="translate(0 -2.66)"/><path class="cls-2" d="M364.92,262.8h-1.08v-.69h0a1.45,1.45,0,0,1-.6.6,1.67,1.67,0,0,1-.81.22,1.81,1.81,0,0,1-1.42-.48,2.16,2.16,0,0,1-.44-1.47v-3.16h1.1v3.05a1.4,1.4,0,0,0,.25.93.88.88,0,0,0,.7.27,1.43,1.43,0,0,0,.58-.11,1,1,0,0,0,.37-.28,1,1,0,0,0,.21-.43,2.48,2.48,0,0,0,.06-.54v-2.89h1.1Z" transform="translate(0 -2.66)"/><path class="cls-2" d="M366.07,257.82h1v.7h0a2.88,2.88,0,0,1,.27-.34,1.64,1.64,0,0,1,.33-.26,1.42,1.42,0,0,1,.4-.17,2.33,2.33,0,0,1,.53-.06,1.93,1.93,0,0,1,.85.2,1.14,1.14,0,0,1,.55.63,2.19,2.19,0,0,1,.64-.61,1.74,1.74,0,0,1,.92-.22,1.88,1.88,0,0,1,1.23.38,1.66,1.66,0,0,1,.43,1.29v3.44h-1v-3.45a1.19,1.19,0,0,0-.11-.42.63.63,0,0,0-.28-.28,1.09,1.09,0,0,0-.5-.1,1,1,0,0,0-.81.35,1.76,1.76,0,0,0-.25,1v2.92h-1.09v-3.2a1.43,1.43,0,0,0-.19-.78.79.79,0,0,0-.69-.27,1,1,0,0,0-.41.09,1.07,1.07,0,0,0-.35.25,1.14,1.14,0,0,0-.24.41,1.65,1.65,0,0,0-.09.54v3h-1.1Z" transform="translate(0 -2.66)"/><path class="cls-2" d="M376.62,257.82h.83v-1.49h1.1v1.49h1v.82h-1v2.66a1.5,1.5,0,0,0,0,.3.58.58,0,0,0,.07.21.34.34,0,0,0,.16.13.71.71,0,0,0,.29,0h.46v.85h-.71a2.74,2.74,0,0,1-.7-.08,1.14,1.14,0,0,1-.41-.24.86.86,0,0,1-.21-.4,5.14,5.14,0,0,1-.06-.55v-2.94h-.83Z" transform="translate(0 -2.66)"/><path class="cls-2" d="M384.5,261.69a.58.58,0,0,0,.05.29.22.22,0,0,0,.21.09H385v.76h-.7a1,1,0,0,1-.55-.13.66.66,0,0,1-.29-.47,2.11,2.11,0,0,1-.81.46,3.21,3.21,0,0,1-.92.14,2.3,2.3,0,0,1-.64-.09,1.71,1.71,0,0,1-.54-.27,1.27,1.27,0,0,1-.38-.45,1.42,1.42,0,0,1-.14-.64,1.5,1.5,0,0,1,.17-.75,1.35,1.35,0,0,1,.44-.45,2.22,2.22,0,0,1,.62-.24c.23-.05.46-.08.69-.11l.56-.08a2.67,2.67,0,0,0,.48-.08.72.72,0,0,0,.33-.18.48.48,0,0,0,.12-.36.55.55,0,0,0-.1-.35.72.72,0,0,0-.25-.21,1,1,0,0,0-.33-.09h-.35a1.36,1.36,0,0,0-.76.2.75.75,0,0,0-.34.59h-1.1a1.62,1.62,0,0,1,.24-.8,1.44,1.44,0,0,1,.51-.5,2,2,0,0,1,.71-.27,3.71,3.71,0,0,1,.81-.08,2.94,2.94,0,0,1,.72.08,1.86,1.86,0,0,1,.64.25,1.38,1.38,0,0,1,.46.44,1.31,1.31,0,0,1,.17.67Zm-1.1-1.38a1.29,1.29,0,0,1-.61.19,3.78,3.78,0,0,0-.74.11,1.32,1.32,0,0,0-.33.08,1.11,1.11,0,0,0-.29.14.52.52,0,0,0-.2.24.89.89,0,0,0-.07.36.45.45,0,0,0,.1.31.86.86,0,0,0,.26.2,1.26,1.26,0,0,0,.33.1h.32a1.74,1.74,0,0,0,.39-.05,1.16,1.16,0,0,0,.4-.16,1.14,1.14,0,0,0,.32-.3.75.75,0,0,0,.12-.44Z" transform="translate(0 -2.66)"/><path class="cls-2" d="M385.68,257.82h1v1h0a1.23,1.23,0,0,1,.19-.4,1.61,1.61,0,0,1,.34-.35,1.45,1.45,0,0,1,.43-.26,1.43,1.43,0,0,1,.5-.09h.41v1.06h-.47a1.2,1.2,0,0,0-1,.44,1.59,1.59,0,0,0-.28.53,2,2,0,0,0-.11.73v2.37h-1.1Z" transform="translate(0 -2.66)"/><path class="cls-2" d="M393.24,261.69a.58.58,0,0,0,.05.29.22.22,0,0,0,.21.09h.27v.76h-.69a1.08,1.08,0,0,1-.56-.13.66.66,0,0,1-.29-.47,2.11,2.11,0,0,1-.81.46,3.21,3.21,0,0,1-.92.14,2.3,2.3,0,0,1-.64-.09,1.71,1.71,0,0,1-.54-.27,1.27,1.27,0,0,1-.38-.45,1.42,1.42,0,0,1-.14-.64,1.5,1.5,0,0,1,.17-.75,1.35,1.35,0,0,1,.44-.45A2.11,2.11,0,0,1,390,260c.23-.05.46-.08.69-.11l.57-.08a2.43,2.43,0,0,0,.47-.08.72.72,0,0,0,.33-.18.48.48,0,0,0,.12-.36.55.55,0,0,0-.1-.35.72.72,0,0,0-.25-.21,1,1,0,0,0-.33-.09h-.35a1.36,1.36,0,0,0-.76.2.75.75,0,0,0-.34.59H389a1.62,1.62,0,0,1,.24-.8,1.44,1.44,0,0,1,.51-.5,2,2,0,0,1,.71-.27,3.71,3.71,0,0,1,.81-.08,2.94,2.94,0,0,1,.72.08,1.86,1.86,0,0,1,.64.25,1.38,1.38,0,0,1,.46.44,1.31,1.31,0,0,1,.17.67Zm-1.1-1.38a1.29,1.29,0,0,1-.61.19,3.78,3.78,0,0,0-.74.11,1.32,1.32,0,0,0-.33.08,1.11,1.11,0,0,0-.29.14.52.52,0,0,0-.2.24.89.89,0,0,0-.07.36.45.45,0,0,0,.1.31,1,1,0,0,0,.26.2,1.26,1.26,0,0,0,.33.1h.32a1.74,1.74,0,0,0,.39-.05,1.16,1.16,0,0,0,.4-.16,1.14,1.14,0,0,0,.32-.3.75.75,0,0,0,.12-.44Z" transform="translate(0 -2.66)"/><path class="cls-2" d="M393.93,257.82h.82v-.41a2,2,0,0,1,.12-.77,1,1,0,0,1,.74-.66,2.26,2.26,0,0,1,.52,0,3.29,3.29,0,0,1,.77.06v.86h-.51a.73.73,0,0,0-.38.11.45.45,0,0,0-.16.41v.51h.93v.82h-.93v4.16h-1.1v-4.16h-.82Z" transform="translate(0 -2.66)"/><path class="cls-2" d="M397.48,262.8v-5h1.1v5Z" transform="translate(0 -2.66)"/><path class="cls-2" d="M399.78,257.82h1v.73h0a2,2,0,0,1,.66-.65,2,2,0,0,1,2.18.19,1.59,1.59,0,0,1,.48,1.27v3.42H403v-3.13a1.37,1.37,0,0,0-.25-.85.92.92,0,0,0-.72-.27,1.25,1.25,0,0,0-.5.11.94.94,0,0,0-.38.27,1.49,1.49,0,0,0-.33.93v2.94h-1.09Z" transform="translate(0 -2.66)"/><path class="cls-2" d="M410,262.8h-1v-.67h0a1.31,1.31,0,0,1-.65.62,2.25,2.25,0,0,1-.89.18,2.32,2.32,0,0,1-1-.2,2,2,0,0,1-.72-.57,2.42,2.42,0,0,1-.44-.84,3.77,3.77,0,0,1-.14-1,3.33,3.33,0,0,1,.18-1.17,2.58,2.58,0,0,1,.49-.81,1.9,1.9,0,0,1,.69-.46,2.22,2.22,0,0,1,.8-.15h.47a2.44,2.44,0,0,1,.46.14,2.14,2.14,0,0,1,.41.25,1.47,1.47,0,0,1,.31.35h0v-2.54h1Zm-3.83-2.44a2.22,2.22,0,0,0,.08.63,1.61,1.61,0,0,0,.25.55,1.26,1.26,0,0,0,1,.53,1.16,1.16,0,0,0,.63-.16,1.21,1.21,0,0,0,.44-.4,1.88,1.88,0,0,0,.25-.56,2.74,2.74,0,0,0,.08-.64,2,2,0,0,0-.37-1.29,1.22,1.22,0,0,0-1-.47,1.33,1.33,0,0,0-.65.16,1.44,1.44,0,0,0-.43.42,1.74,1.74,0,0,0-.24.58,2.37,2.37,0,0,0-.09.65Z" transform="translate(0 -2.66)"/><path class="cls-2" d="M415.35,261.69a.71.71,0,0,0,0,.29.22.22,0,0,0,.21.09h.27v.76h-.69a1.08,1.08,0,0,1-.56-.13.66.66,0,0,1-.29-.47,2.07,2.07,0,0,1-.8.46,3.21,3.21,0,0,1-.92.14,2.37,2.37,0,0,1-.65-.09,1.71,1.71,0,0,1-.54-.27A1.27,1.27,0,0,1,411,262a1.42,1.42,0,0,1-.14-.64,1.5,1.5,0,0,1,.17-.75,1.35,1.35,0,0,1,.44-.45,2.22,2.22,0,0,1,.62-.24c.23-.05.46-.08.69-.11l.57-.08a2.43,2.43,0,0,0,.47-.08.72.72,0,0,0,.33-.18.48.48,0,0,0,.12-.36.55.55,0,0,0-.1-.35.72.72,0,0,0-.25-.21,1,1,0,0,0-.33-.09h-.35a1.36,1.36,0,0,0-.76.2.75.75,0,0,0-.34.59H411a1.62,1.62,0,0,1,.24-.8,1.44,1.44,0,0,1,.51-.5,2.27,2.27,0,0,1,.71-.27,3.71,3.71,0,0,1,.81-.08,2.94,2.94,0,0,1,.72.08,1.86,1.86,0,0,1,.64.25,1.38,1.38,0,0,1,.46.44,1.31,1.31,0,0,1,.17.67Zm-1.1-1.38a1.29,1.29,0,0,1-.61.19,3.78,3.78,0,0,0-.74.11,1.32,1.32,0,0,0-.33.08,1.11,1.11,0,0,0-.29.14.78.78,0,0,0-.2.24.89.89,0,0,0-.07.36.4.4,0,0,0,.11.31.82.82,0,0,0,.25.2,1.26,1.26,0,0,0,.33.1H413a1.83,1.83,0,0,0,.4-.05,1.34,1.34,0,0,0,.39-.16,1.14,1.14,0,0,0,.32-.3.75.75,0,0,0,.12-.44Z" transform="translate(0 -2.66)"/><path class="cls-2" d="M416.53,257.82h1v.73h0a2,2,0,0,1,.66-.65,2,2,0,0,1,2.18.19,1.59,1.59,0,0,1,.47,1.27v3.42h-1.09v-3.13a1.44,1.44,0,0,0-.25-.85.94.94,0,0,0-.73-.27,1.25,1.25,0,0,0-.5.11,1.11,1.11,0,0,0-.37.27,1.49,1.49,0,0,0-.33.93v2.94h-1.1Z" transform="translate(0 -2.66)"/><path class="cls-2" d="M424.23,257.82h.83v-1.49h1.1v1.49h1v.82h-1v2.66a1.5,1.5,0,0,0,0,.3.58.58,0,0,0,.07.21.34.34,0,0,0,.16.13.71.71,0,0,0,.29,0h.46v.85h-.71a2.74,2.74,0,0,1-.7-.08,1.14,1.14,0,0,1-.41-.24.86.86,0,0,1-.21-.4,5.14,5.14,0,0,1-.06-.55v-2.94h-.83Z" transform="translate(0 -2.66)"/><path class="cls-2" d="M428.8,260.6a1.7,1.7,0,0,0,.08.55,1.4,1.4,0,0,0,.24.47,1.23,1.23,0,0,0,.42.33,1.52,1.52,0,0,0,.59.12,1.33,1.33,0,0,0,.78-.21,1.21,1.21,0,0,0,.44-.62h1a2.08,2.08,0,0,1-.3.72,2,2,0,0,1-1.18.86,2.88,2.88,0,0,1-1.81-.08,2.19,2.19,0,0,1-.77-.54,2.08,2.08,0,0,1-.47-.83,3.26,3.26,0,0,1,0-2.05,2.51,2.51,0,0,1,.48-.84,2.25,2.25,0,0,1,1.76-.78,2.28,2.28,0,0,1,1.05.24,2.41,2.41,0,0,1,.77.65,2.51,2.51,0,0,1,.45.93,2.85,2.85,0,0,1,.08,1.09Zm2.56-.73a2.13,2.13,0,0,0-.11-.5A1.34,1.34,0,0,0,431,259a1.21,1.21,0,0,0-.39-.28,1.08,1.08,0,0,0-.5-.12,1.4,1.4,0,0,0-.53.11,1.09,1.09,0,0,0-.4.27,1.17,1.17,0,0,0-.27.42,1.31,1.31,0,0,0-.11.52Z" transform="translate(0 -2.66)"/><path class="cls-2" d="M434.12,261.2a.82.82,0,0,0,.37.68,1.43,1.43,0,0,0,.76.19h.35a1.09,1.09,0,0,0,.4-.07.67.67,0,0,0,.28-.19.44.44,0,0,0,.1-.35.43.43,0,0,0-.15-.34,1.25,1.25,0,0,0-.37-.22,4.42,4.42,0,0,0-.52-.14l-.58-.12a4.5,4.5,0,0,1-.6-.17,2,2,0,0,1-.51-.26,1.22,1.22,0,0,1-.36-.42,1.37,1.37,0,0,1-.13-.63,1.11,1.11,0,0,1,.2-.68,1.41,1.41,0,0,1,.5-.44,2,2,0,0,1,.67-.23,3.35,3.35,0,0,1,.71-.07,3.55,3.55,0,0,1,.73.08,1.9,1.9,0,0,1,.64.27,1.51,1.51,0,0,1,.47.47,1.81,1.81,0,0,1,.24.71h-1.15a.67.67,0,0,0-.36-.53,1.46,1.46,0,0,0-.65-.14h-.27a1.11,1.11,0,0,0-.3.08.61.61,0,0,0-.24.15.43.43,0,0,0,0,.59,1,1,0,0,0,.36.21,4.42,4.42,0,0,0,.52.14l.59.12a5.72,5.72,0,0,1,.59.17,2,2,0,0,1,.52.26,1.29,1.29,0,0,1,.36.41,1.2,1.2,0,0,1,.14.62,1.34,1.34,0,0,1-.2.75,1.81,1.81,0,0,1-.53.5,2.29,2.29,0,0,1-.71.28,3.44,3.44,0,0,1-.78.08,3.63,3.63,0,0,1-.87-.1,2,2,0,0,1-.7-.32,1.59,1.59,0,0,1-.64-1.31Z" transform="translate(0 -2.66)"/><path class="cls-2" d="M441.65,259.49a1.08,1.08,0,0,0-.37-.7,1.18,1.18,0,0,0-.77-.24,1.42,1.42,0,0,0-.45.08,1,1,0,0,0-.44.27,1.42,1.42,0,0,0-.34.55,2.84,2.84,0,0,0-.06,1.53,1.57,1.57,0,0,0,.23.55,1.1,1.1,0,0,0,.41.39,1.14,1.14,0,0,0,.6.15,1.12,1.12,0,0,0,.8-.3,1.4,1.4,0,0,0,.39-.84h1.1a2.42,2.42,0,0,1-.74,1.49,2.25,2.25,0,0,1-1.55.51,2.65,2.65,0,0,1-1-.19,2.16,2.16,0,0,1-.76-.54,2.22,2.22,0,0,1-.46-.82,3.08,3.08,0,0,1-.16-1,3.37,3.37,0,0,1,.15-1,2.39,2.39,0,0,1,.46-.86,2,2,0,0,1,.77-.56,2.47,2.47,0,0,1,1.07-.21,3.32,3.32,0,0,1,.83.11,2.2,2.2,0,0,1,.69.33,1.76,1.76,0,0,1,.49.56,1.91,1.91,0,0,1,.24.8Z" transform="translate(0 -2.66)"/><path class="cls-2" d="M443.67,255.93h1.1v1h-1.1Zm0,1.89h1.1v5h-1.1Z" transform="translate(0 -2.66)"/><path class="cls-2" d="M446,255.93h1.1v6.87H446Z" transform="translate(0 -2.66)"/><path class="cls-2" d="M451.81,260.6a2,2,0,0,0,.08.55,1.42,1.42,0,0,0,.25.47,1.2,1.2,0,0,0,.41.33,1.53,1.53,0,0,0,.6.12,1.33,1.33,0,0,0,.78-.21,1.17,1.17,0,0,0,.43-.62h1a2.06,2.06,0,0,1-.29.72,2.11,2.11,0,0,1-1.18.86,2.58,2.58,0,0,1-.78.11,2.65,2.65,0,0,1-1-.19,2.16,2.16,0,0,1-.76-.54,2.23,2.23,0,0,1-.48-.83,3.7,3.7,0,0,1-.15-1.05,3.08,3.08,0,0,1,.16-1,2.73,2.73,0,0,1,.49-.84,2.2,2.2,0,0,1,.75-.57,2.46,2.46,0,0,1,1-.21,2.29,2.29,0,0,1,1.06.24,2.41,2.41,0,0,1,.77.65,2.51,2.51,0,0,1,.45.93,2.87,2.87,0,0,1,.07,1.09Zm2.56-.73a1.72,1.72,0,0,0-.11-.5A1.18,1.18,0,0,0,454,259a1.29,1.29,0,0,0-.38-.28,1.13,1.13,0,0,0-.51-.12,1.31,1.31,0,0,0-.52.11,1.22,1.22,0,0,0-.41.27,1.68,1.68,0,0,0-.27.42,1.86,1.86,0,0,0-.11.52Z" transform="translate(0 -2.66)"/><path class="cls-2" d="M461,262.8h-1v-.67h0a1.4,1.4,0,0,1-.65.62,2.25,2.25,0,0,1-.89.18,2.29,2.29,0,0,1-1-.2,2,2,0,0,1-.72-.57,2.42,2.42,0,0,1-.44-.84,3.77,3.77,0,0,1-.14-1,3.33,3.33,0,0,1,.18-1.17,2.32,2.32,0,0,1,.49-.81,1.9,1.9,0,0,1,.69-.46,2.13,2.13,0,0,1,.79-.15h.48a2.44,2.44,0,0,1,.46.14,2.5,2.5,0,0,1,.41.25,1.47,1.47,0,0,1,.31.35h0v-2.54h1Zm-3.83-2.44a2.22,2.22,0,0,0,.08.63,1.38,1.38,0,0,0,.25.55,1.26,1.26,0,0,0,1,.53,1.16,1.16,0,0,0,.63-.16,1.21,1.21,0,0,0,.44-.4,1.88,1.88,0,0,0,.25-.56,2.74,2.74,0,0,0,.08-.64,2,2,0,0,0-.37-1.29,1.25,1.25,0,0,0-1-.47,1.33,1.33,0,0,0-.65.16,1.44,1.44,0,0,0-.43.42,1.74,1.74,0,0,0-.24.58A2.82,2.82,0,0,0,457.17,260.36Z" transform="translate(0 -2.66)"/><path class="cls-2" d="M462.22,255.93h1.1v1h-1.1Zm0,1.89h1.1v5h-1.1Z" transform="translate(0 -2.66)"/><path class="cls-2" d="M464.54,255.93h1.1v6.87h-1.1Z" transform="translate(0 -2.66)"/><path class="cls-2" d="M466.83,257.82h1v.7h0a2.24,2.24,0,0,1,.27-.34,1.35,1.35,0,0,1,.32-.26,2.09,2.09,0,0,1,.41-.17,2.33,2.33,0,0,1,.53-.06,1.89,1.89,0,0,1,.84.2,1.14,1.14,0,0,1,.55.63,2.11,2.11,0,0,1,.65-.61,1.71,1.71,0,0,1,.91-.22,1.82,1.82,0,0,1,1.23.38,1.7,1.7,0,0,1,.44,1.29v3.44h-1v-2.91a4.86,4.86,0,0,0,0-.54,1,1,0,0,0-.11-.42.61.61,0,0,0-.27-.28,1.24,1.24,0,0,0-.5-.1.91.91,0,0,0-.81.35,1.61,1.61,0,0,0-.25,1v2.92H470v-3.2a1.33,1.33,0,0,0-.19-.78.79.79,0,0,0-.69-.27.9.9,0,0,0-.4.09,1.07,1.07,0,0,0-.35.25,1.14,1.14,0,0,0-.24.41,1.65,1.65,0,0,0-.09.54v3h-1.1Z" transform="translate(0 -2.66)"/><path class="cls-2" d="M475.23,255.93h1.1v1h-1.1Zm0,1.89h1.1v5h-1.1Z" transform="translate(0 -2.66)"/><path class="cls-2" d="M478.45,264.34l.32.12a1.5,1.5,0,0,0,.3,0h.21a.6.6,0,0,0,.19-.06.41.41,0,0,0,.14-.12.46.46,0,0,0,.05-.2.32.32,0,0,0-.14-.27.47.47,0,0,0-.3-.1.86.86,0,0,0-.38.1l-.21-.18.54-.73a2.9,2.9,0,0,1-.59-.09,2.17,2.17,0,0,1-.69-.32,1.59,1.59,0,0,1-.64-1.31h1.1a.84.84,0,0,0,.37.68,1.43,1.43,0,0,0,.76.19h.35a1.18,1.18,0,0,0,.37-.09.61.61,0,0,0,.28-.19.44.44,0,0,0,.1-.35.43.43,0,0,0-.15-.34,1.25,1.25,0,0,0-.37-.22,4.42,4.42,0,0,0-.52-.14l-.58-.12a4,4,0,0,1-.59-.17,1.89,1.89,0,0,1-.51-.26,1.12,1.12,0,0,1-.36-.42,1.26,1.26,0,0,1-.14-.63,1.11,1.11,0,0,1,.2-.68,1.52,1.52,0,0,1,.5-.44,2,2,0,0,1,.67-.23,3.54,3.54,0,0,1,1.45,0,1.85,1.85,0,0,1,.63.27,1.55,1.55,0,0,1,.71,1.18h-1.15a.67.67,0,0,0-.36-.53,1.46,1.46,0,0,0-.65-.14h-.27a1.11,1.11,0,0,0-.3.08.61.61,0,0,0-.24.15.43.43,0,0,0,.05.59,1,1,0,0,0,.36.21,4.42,4.42,0,0,0,.52.14l.59.12a5.72,5.72,0,0,1,.59.17,2,2,0,0,1,.52.26,1.19,1.19,0,0,1,.5,1,1.34,1.34,0,0,1-.2.75,1.77,1.77,0,0,1-.52.5,2.63,2.63,0,0,1-.72.28,3.18,3.18,0,0,1-.62.07l-.33.45h.61a.94.94,0,0,1,.26.14.67.67,0,0,1,.19.22.53.53,0,0,1,.08.32.74.74,0,0,1-.1.41,1,1,0,0,1-.65.42,1.4,1.4,0,0,1-.41.06,2.33,2.33,0,0,1-.53-.06,1.66,1.66,0,0,1-.47-.17Z" transform="translate(0 -2.66)"/><path class="cls-2" d="M482,257.82h.83v-1.49h1.09v1.49h1v.82h-1v2.66a1.5,1.5,0,0,0,0,.3.52.52,0,0,0,.07.21.27.27,0,0,0,.15.13.71.71,0,0,0,.29,0h.47v.85h-.72a2.33,2.33,0,0,1-.69-.08,1.1,1.1,0,0,1-.42-.24.84.84,0,0,1-.2-.4,2.51,2.51,0,0,1-.06-.55v-2.94H482Z" transform="translate(0 -2.66)"/><path class="cls-2" d="M485.75,255.93h1.1v1h-1.1Zm0,1.89h1.1v5h-1.1Z" transform="translate(0 -2.66)"/><path class="cls-2" d="M488,257.82h1v1h0a1.23,1.23,0,0,1,.19-.4,1.88,1.88,0,0,1,.34-.35,1.5,1.5,0,0,1,.44-.26,1.37,1.37,0,0,1,.49-.09h.41v1.06h-.47a1.23,1.23,0,0,0-.53.11,1.12,1.12,0,0,0-.42.33,1.62,1.62,0,0,0-.29.53,2.27,2.27,0,0,0-.11.73v2.37H488Z" transform="translate(0 -2.66)"/><path class="cls-2" d="M490.63,261.5H492v1.3h-1.34Z" transform="translate(0 -2.66)"/><path class="cls-2" d="M2.64,267.48H3.92l2.65,6.87H5.28l-.65-1.82H1.89l-.65,1.82H0Zm-.43,4.14h2.1l-1-3h0Z" transform="translate(0 -2.66)"/><path class="cls-2" d="M7.07,269.37h1v.7h0c.09-.12.18-.24.27-.34a1.64,1.64,0,0,1,.33-.26,1.42,1.42,0,0,1,.4-.17,2.48,2.48,0,0,1,.54-.06,1.89,1.89,0,0,1,.84.2,1.21,1.21,0,0,1,.55.63,2.11,2.11,0,0,1,.65-.61,1.71,1.71,0,0,1,.91-.22,1.88,1.88,0,0,1,1.23.38,1.64,1.64,0,0,1,.44,1.3v3.43h-1.1V270.9a1.19,1.19,0,0,0-.11-.42.63.63,0,0,0-.28-.28,1.08,1.08,0,0,0-.5-.09.94.94,0,0,0-.81.34,1.76,1.76,0,0,0-.25,1v2.92h-1v-3.19a1.37,1.37,0,0,0-.19-.79.78.78,0,0,0-.69-.26,1.15,1.15,0,0,0-.41.08.94.94,0,0,0-.34.25,1.55,1.55,0,0,0-.25.41,1.71,1.71,0,0,0-.09.55v3H7.07Z" transform="translate(0 -2.66)"/><path class="cls-2" d="M19.61,273.24a.58.58,0,0,0,.05.29.22.22,0,0,0,.21.09h.29v.76H20l-.19.05h-.36a1,1,0,0,1-.55-.14.66.66,0,0,1-.29-.47,1.88,1.88,0,0,1-.81.46,2.91,2.91,0,0,1-.92.15,2,2,0,0,1-.64-.1,1.38,1.38,0,0,1-.54-.27,1.11,1.11,0,0,1-.38-.45,1.42,1.42,0,0,1-.14-.64,1.5,1.5,0,0,1,.17-.75,1.35,1.35,0,0,1,.44-.45,2,2,0,0,1,.62-.24l.69-.11a4.72,4.72,0,0,0,.56-.08,2.67,2.67,0,0,0,.48-.08.72.72,0,0,0,.33-.18.48.48,0,0,0,.12-.36.62.62,0,0,0-.1-.35.69.69,0,0,0-.25-.2,1.33,1.33,0,0,0-.34-.1h-.34a1.35,1.35,0,0,0-.76.19.78.78,0,0,0-.34.6h-1.1a1.72,1.72,0,0,1,.23-.8,1.49,1.49,0,0,1,.52-.51,2,2,0,0,1,.71-.27,4.45,4.45,0,0,1,.81-.08,3.53,3.53,0,0,1,.72.08,1.86,1.86,0,0,1,.64.25,1.35,1.35,0,0,1,.45.44,1.21,1.21,0,0,1,.18.67Zm-1.1-1.38a1.51,1.51,0,0,1-.62.2,5.83,5.83,0,0,0-.73.1,2,2,0,0,0-.33.08,1.11,1.11,0,0,0-.29.14.52.52,0,0,0-.2.24.89.89,0,0,0-.07.36.45.45,0,0,0,.1.31.73.73,0,0,0,.26.2,1.26,1.26,0,0,0,.33.1h.32a1.74,1.74,0,0,0,.39,0,1.16,1.16,0,0,0,.4-.16,1.14,1.14,0,0,0,.32-.3.74.74,0,0,0,.12-.43Z" transform="translate(0 -2.66)"/><path class="cls-2" d="M24.15,271a1,1,0,0,0-.37-.7,1.22,1.22,0,0,0-.76-.23,1.43,1.43,0,0,0-.46.07,1.05,1.05,0,0,0-.44.27,1.49,1.49,0,0,0-.34.55,2.63,2.63,0,0,0-.13.92,2.48,2.48,0,0,0,.07.61A1.89,1.89,0,0,0,22,273a1.38,1.38,0,0,0,.41.39,1.2,1.2,0,0,0,.61.15,1.1,1.1,0,0,0,.79-.3,1.4,1.4,0,0,0,.39-.84h1.1a2.37,2.37,0,0,1-.74,1.49,2.27,2.27,0,0,1-1.54.52,2.66,2.66,0,0,1-1-.2,2.12,2.12,0,0,1-.75-.54,2.36,2.36,0,0,1-.47-.81,3.08,3.08,0,0,1-.16-1,3.11,3.11,0,0,1,.16-1,2.31,2.31,0,0,1,.46-.86,2.09,2.09,0,0,1,.76-.56,2.51,2.51,0,0,1,1.08-.21,3.24,3.24,0,0,1,.82.11,2.2,2.2,0,0,1,.69.33,1.92,1.92,0,0,1,.5.56,2,2,0,0,1,.23.8Z" transform="translate(0 -2.66)"/><path class="cls-2" d="M26.17,274.35v-5h1.1v5Z" transform="translate(0 -2.66)"/><path class="cls-2" d="M35.83,274.35h-1v-.67h0a1.31,1.31,0,0,1-.65.62,2.26,2.26,0,0,1-.89.19,2.46,2.46,0,0,1-1-.21,2.07,2.07,0,0,1-.72-.56,2.46,2.46,0,0,1-.44-.85,3.77,3.77,0,0,1-.14-1,3.27,3.27,0,0,1,.18-1.16,2.32,2.32,0,0,1,.49-.81,1.81,1.81,0,0,1,.69-.47,2.22,2.22,0,0,1,.8-.15h.47a2.44,2.44,0,0,1,.46.14,2.14,2.14,0,0,1,.41.25,1.47,1.47,0,0,1,.31.35h0v-2.54h1.1ZM32,271.92a2.15,2.15,0,0,0,.08.62,1.61,1.61,0,0,0,.25.55,1.24,1.24,0,0,0,.43.39,1.3,1.3,0,0,0,.61.14,1.15,1.15,0,0,0,.63-.15,1.24,1.24,0,0,0,.44-.41,1.88,1.88,0,0,0,.25-.56,2.74,2.74,0,0,0,.08-.64,2,2,0,0,0-.37-1.29,1.35,1.35,0,0,0-1.65-.3,1.3,1.3,0,0,0-.43.41,1.74,1.74,0,0,0-.24.58A3,3,0,0,0,32,271.92Z" transform="translate(0 -2.66)"/><path class="cls-2" d="M37.05,274.35v-5h1.1v5Z" transform="translate(0 -2.66)"/><path class="cls-2" d="M40.27,275.89l.31.12h.51a.66.66,0,0,0,.2-.06.53.53,0,0,0,.14-.12.34.34,0,0,0,0-.2.32.32,0,0,0-.14-.27.53.53,0,0,0-.3-.09.85.85,0,0,0-.38.09l-.21-.18.54-.72a5.58,5.58,0,0,1-.59-.1,2.17,2.17,0,0,1-.69-.32,1.59,1.59,0,0,1-.64-1.31h1.1a.82.82,0,0,0,.37.68,1.43,1.43,0,0,0,.76.19h.35a1.56,1.56,0,0,0,.37-.1.67.67,0,0,0,.28-.19.42.42,0,0,0,.1-.34.47.47,0,0,0-.15-.35,1.25,1.25,0,0,0-.37-.22,4.42,4.42,0,0,0-.52-.14l-.58-.12a4.5,4.5,0,0,1-.6-.17,1.89,1.89,0,0,1-.51-.26,1.12,1.12,0,0,1-.36-.42,1.33,1.33,0,0,1-.13-.62,1.11,1.11,0,0,1,.2-.68,1.44,1.44,0,0,1,.5-.45,2,2,0,0,1,.67-.23,3.35,3.35,0,0,1,.71-.07,3.55,3.55,0,0,1,.73.08,1.9,1.9,0,0,1,.64.27,1.51,1.51,0,0,1,.47.47,1.81,1.81,0,0,1,.24.71h-1.1a.67.67,0,0,0-.36-.53,1.46,1.46,0,0,0-.65-.13h-.27a1.09,1.09,0,0,0-.3.07.61.61,0,0,0-.24.15.44.44,0,0,0-.09.27.4.4,0,0,0,.14.32.88.88,0,0,0,.36.21,3.07,3.07,0,0,0,.52.14l.59.13a5.69,5.69,0,0,1,.59.16,1.89,1.89,0,0,1,.51.26,1.32,1.32,0,0,1,.37.41,1.2,1.2,0,0,1,.14.62,1.34,1.34,0,0,1-.2.75,1.58,1.58,0,0,1-.53.5,2.29,2.29,0,0,1-.71.28,4.2,4.2,0,0,1-.62.08l-.34.44h.61A.94.94,0,0,1,42,275a.79.79,0,0,1,.19.22.72.72,0,0,1,.08.32.78.78,0,0,1-.11.42.84.84,0,0,1-.27.26,1.22,1.22,0,0,1-.37.16,2,2,0,0,1-.42.05,3.05,3.05,0,0,1-.52-.05,2.64,2.64,0,0,1-.47-.17Z" transform="translate(0 -2.66)"/><path class="cls-2" d="M44.37,274.35v-5h1.09v5Z" transform="translate(0 -2.66)"/><path class="cls-2" d="M46.66,269.37h1v.74h0a1.69,1.69,0,0,1,.65-.65,1.76,1.76,0,0,1,.9-.24,1.93,1.93,0,0,1,1.29.42,1.67,1.67,0,0,1,.47,1.27v3.42h-1.1V271.2a1.37,1.37,0,0,0-.25-.85.88.88,0,0,0-.72-.26,1.24,1.24,0,0,0-.5.1,1,1,0,0,0-.38.28,1.49,1.49,0,0,0-.33.93v2.93h-1Z" transform="translate(0 -2.66)"/><path class="cls-2" d="M56.87,274.35h-1v-.67h0a1.37,1.37,0,0,1-.64.62,2.38,2.38,0,0,1-1.92,0,2.1,2.1,0,0,1-.73-.56,2.28,2.28,0,0,1-.43-.85,3.37,3.37,0,0,1-.15-1,3.27,3.27,0,0,1,.18-1.16,2.58,2.58,0,0,1,.49-.81,1.81,1.81,0,0,1,.69-.47,2.22,2.22,0,0,1,.8-.15h.47a2.44,2.44,0,0,1,.46.14,2.14,2.14,0,0,1,.41.25,1,1,0,0,1,.31.35h0V267.5h1.1ZM53,271.92a2.57,2.57,0,0,0,.08.62,1.83,1.83,0,0,0,.25.55,1.19,1.19,0,0,0,1.05.53,1.36,1.36,0,0,0,.63-.15,1.3,1.3,0,0,0,.43-.41,1.66,1.66,0,0,0,.25-.56,2.74,2.74,0,0,0,.08-.64,2,2,0,0,0-.37-1.29,1.21,1.21,0,0,0-1-.46,1.26,1.26,0,0,0-1.09.57,1.74,1.74,0,0,0-.24.58A3,3,0,0,0,53,271.92Z" transform="translate(0 -2.66)"/><path class="cls-2" d="M62.23,273.24a.49.49,0,0,0,.06.29.2.2,0,0,0,.2.09h.27v.76h-.15l-.19.05h-.35a1,1,0,0,1-.56-.14.69.69,0,0,1-.29-.47,1.79,1.79,0,0,1-.8.46,2.91,2.91,0,0,1-.92.15,2.05,2.05,0,0,1-.65-.1,1.82,1.82,0,0,1-.54-.27,1.27,1.27,0,0,1-.38-.45,1.42,1.42,0,0,1-.14-.64,1.5,1.5,0,0,1,.17-.75,1.21,1.21,0,0,1,.45-.45,1.9,1.9,0,0,1,.61-.24l.69-.11a4.89,4.89,0,0,0,.57-.08,2.43,2.43,0,0,0,.47-.08.72.72,0,0,0,.33-.18.48.48,0,0,0,.12-.36.55.55,0,0,0-.1-.35.69.69,0,0,0-.25-.2,1.26,1.26,0,0,0-.33-.1h-.35a1.35,1.35,0,0,0-.76.19.75.75,0,0,0-.33.6H58a1.61,1.61,0,0,1,.23-.8,1.39,1.39,0,0,1,.51-.51,2.27,2.27,0,0,1,.71-.27,4.45,4.45,0,0,1,.81-.08,3.53,3.53,0,0,1,.72.08,1.86,1.86,0,0,1,.64.25,1.38,1.38,0,0,1,.46.44,1.31,1.31,0,0,1,.17.67Zm-1.1-1.38a1.42,1.42,0,0,1-.61.2,5.83,5.83,0,0,0-.73.1,1.87,1.87,0,0,0-.34.08,1.11,1.11,0,0,0-.29.14.78.78,0,0,0-.2.24.89.89,0,0,0-.07.36.51.51,0,0,0,.11.31.69.69,0,0,0,.25.2,1.26,1.26,0,0,0,.33.1h.32a1.83,1.83,0,0,0,.4,0,1.16,1.16,0,0,0,.4-.16,1.11,1.11,0,0,0,.31-.3.74.74,0,0,0,.12-.43Z" transform="translate(0 -2.66)"/><path class="cls-2" d="M65.6,269.37h1.19l1.27,3.83h0l1.21-3.83H70.4l-1.78,5H67.41Z" transform="translate(0 -2.66)"/><path class="cls-2" d="M71.94,272.15a1.77,1.77,0,0,0,.09.56,1.4,1.4,0,0,0,.24.47,1.3,1.3,0,0,0,.42.32,1.54,1.54,0,0,0,1.37-.09,1.25,1.25,0,0,0,.44-.62h1a2.08,2.08,0,0,1-.3.72,2,2,0,0,1-.51.54,2.78,2.78,0,0,1-.67.33,2.94,2.94,0,0,1-.78.11,2.66,2.66,0,0,1-1-.2,2,2,0,0,1-.76-.54,2.11,2.11,0,0,1-.47-.82,3.17,3.17,0,0,1-.16-1.06,2.84,2.84,0,0,1,.17-1,2.7,2.7,0,0,1,.48-.84,2.23,2.23,0,0,1,1.75-.78,2.25,2.25,0,0,1,1.83.9,2.47,2.47,0,0,1,.45.92,2.87,2.87,0,0,1,.07,1.09Zm2.56-.73a1.45,1.45,0,0,0-.11-.5,1.16,1.16,0,0,0-.25-.41,1.1,1.1,0,0,0-.38-.29,1,1,0,0,0-.51-.11,1.3,1.3,0,0,0-.52.1,1.12,1.12,0,0,0-.4.28,1.17,1.17,0,0,0-.27.42,1.46,1.46,0,0,0-.12.51Z" transform="translate(0 -2.66)"/><path class="cls-2" d="M83.28,273.24a.49.49,0,0,0,.06.29.2.2,0,0,0,.2.09h.27v.76h-.14l-.19.05h-.36a1.08,1.08,0,0,1-.56-.14.69.69,0,0,1-.29-.47,1.79,1.79,0,0,1-.8.46,2.91,2.91,0,0,1-.92.15,2,2,0,0,1-.64-.1,1.76,1.76,0,0,1-.55-.27,1.08,1.08,0,0,1-.37-.45,1.3,1.3,0,0,1-.14-.64,1.32,1.32,0,0,1,.17-.75,1.35,1.35,0,0,1,.44-.45,2.16,2.16,0,0,1,.61-.24l.69-.11a4.89,4.89,0,0,0,.57-.08,2.67,2.67,0,0,0,.48-.08.78.78,0,0,0,.32-.18.48.48,0,0,0,.12-.36.55.55,0,0,0-.1-.35.55.55,0,0,0-.25-.2,1.26,1.26,0,0,0-.33-.1h-.35a1.35,1.35,0,0,0-.76.19.75.75,0,0,0-.33.6H79a1.72,1.72,0,0,1,.23-.8,1.49,1.49,0,0,1,.52-.51,2.12,2.12,0,0,1,.7-.27,4.45,4.45,0,0,1,.81-.08,3.53,3.53,0,0,1,.72.08,1.86,1.86,0,0,1,.64.25,1.3,1.3,0,0,1,.46.44,1.2,1.2,0,0,1,.17.67Zm-1.09-1.38a1.51,1.51,0,0,1-.62.2,5.83,5.83,0,0,0-.73.1,1.87,1.87,0,0,0-.34.08,1.11,1.11,0,0,0-.29.14.57.57,0,0,0-.19.24.9.9,0,0,0-.08.36.51.51,0,0,0,.11.31.73.73,0,0,0,.26.2,1.19,1.19,0,0,0,.32.1H81a1.74,1.74,0,0,0,.39,0,1.16,1.16,0,0,0,.4-.16,1.11,1.11,0,0,0,.31-.3.66.66,0,0,0,.13-.43Z" transform="translate(0 -2.66)"/><path class="cls-2" d="M85.3,272.75a.85.85,0,0,0,.36.68,1.43,1.43,0,0,0,.76.19h.35a1.56,1.56,0,0,0,.37-.1.7.7,0,0,0,.29-.19.47.47,0,0,0,.1-.34.51.51,0,0,0-.15-.35,1.11,1.11,0,0,0-.38-.22,4.84,4.84,0,0,0-.51-.14l-.59-.12a5.72,5.72,0,0,1-.59-.17,1.89,1.89,0,0,1-.51-.26,1.12,1.12,0,0,1-.36-.42,1.2,1.2,0,0,1-.14-.62,1.11,1.11,0,0,1,.2-.68,1.44,1.44,0,0,1,.5-.45,2.28,2.28,0,0,1,.68-.23,3.26,3.26,0,0,1,.7-.07,3.65,3.65,0,0,1,.74.08,1.9,1.9,0,0,1,.64.27,1.51,1.51,0,0,1,.47.47,1.65,1.65,0,0,1,.23.71H87.32a.67.67,0,0,0-.36-.53,1.46,1.46,0,0,0-.65-.13H86a1.09,1.09,0,0,0-.3.07.51.51,0,0,0-.23.15.34.34,0,0,0-.1.27.43.43,0,0,0,.14.32.91.91,0,0,0,.37.21,3.23,3.23,0,0,0,.51.14l.6.13a2.16,2.16,0,0,1,.59.16,1.89,1.89,0,0,1,.51.26,1.39,1.39,0,0,1-.22,2.28,2.34,2.34,0,0,1-.72.28,3.54,3.54,0,0,1-1.65,0,2.17,2.17,0,0,1-.69-.32,1.6,1.6,0,0,1-.46-.54,1.71,1.71,0,0,1-.18-.77Z" transform="translate(0 -2.66)"/><path class="cls-2" d="M89.49,267.48h1.1v6.87h-1.1Z" transform="translate(0 -2.66)"/><path class="cls-2" d="M91.81,274.35v-5h1.1v5Z" transform="translate(0 -2.66)"/><path class="cls-2" d="M94.1,269.37h1v.74h0a1.79,1.79,0,0,1,.66-.65,1.75,1.75,0,0,1,.89-.24,1.83,1.83,0,0,1,1.29.42,1.62,1.62,0,0,1,.47,1.27v3.42h-1V271.2a1.44,1.44,0,0,0-.25-.85.9.9,0,0,0-.73-.26,1.24,1.24,0,0,0-.5.1,1.13,1.13,0,0,0-.37.28,1.49,1.49,0,0,0-.33.93v2.93H94.1Z" transform="translate(0 -2.66)"/><path class="cls-2" d="M103.8,273.24a.48.48,0,0,0,0,.29.22.22,0,0,0,.21.09h.27v.76h-.15l-.19.05h-.36a1,1,0,0,1-.55-.14.66.66,0,0,1-.29-.47,1.88,1.88,0,0,1-.81.46,2.91,2.91,0,0,1-.92.15,2,2,0,0,1-.64-.1,1.38,1.38,0,0,1-.54-.27,1.11,1.11,0,0,1-.38-.45,1.42,1.42,0,0,1-.14-.64,1.5,1.5,0,0,1,.17-.75,1.35,1.35,0,0,1,.44-.45,2,2,0,0,1,.62-.24l.69-.11a5,5,0,0,0,.56-.08,2.67,2.67,0,0,0,.48-.08.72.72,0,0,0,.33-.18.48.48,0,0,0,.12-.36.62.62,0,0,0-.1-.35.69.69,0,0,0-.25-.2,1.33,1.33,0,0,0-.34-.1h-.34a1.35,1.35,0,0,0-.76.19.78.78,0,0,0-.34.6h-1.1a1.72,1.72,0,0,1,.23-.8,1.49,1.49,0,0,1,.52-.51,2,2,0,0,1,.71-.27,4.26,4.26,0,0,1,.8-.08,3.55,3.55,0,0,1,.73.08,2.08,2.08,0,0,1,.64.25,1.35,1.35,0,0,1,.45.44,1.21,1.21,0,0,1,.18.67Zm-1.1-1.38a1.51,1.51,0,0,1-.62.2,5.83,5.83,0,0,0-.73.1,2,2,0,0,0-.33.08,1.11,1.11,0,0,0-.29.14.52.52,0,0,0-.2.24.89.89,0,0,0-.07.36.45.45,0,0,0,.1.31.73.73,0,0,0,.26.2,1.26,1.26,0,0,0,.33.1h.32a1.74,1.74,0,0,0,.39,0,1.16,1.16,0,0,0,.4-.16,1.11,1.11,0,0,0,.31-.3.66.66,0,0,0,.13-.43Z" transform="translate(0 -2.66)"/><path class="cls-2" d="M111.83,273.24a.48.48,0,0,0,0,.29.2.2,0,0,0,.2.09h.27v.76h-.14l-.19.05h-.36a1.08,1.08,0,0,1-.56-.14.69.69,0,0,1-.29-.47,1.79,1.79,0,0,1-.8.46,2.91,2.91,0,0,1-.92.15,2,2,0,0,1-.64-.1,1.76,1.76,0,0,1-.55-.27,1.15,1.15,0,0,1-.37-.45,1.3,1.3,0,0,1-.14-.64,1.4,1.4,0,0,1,.17-.75,1.35,1.35,0,0,1,.44-.45,2,2,0,0,1,.62-.24l.68-.11a4.89,4.89,0,0,0,.57-.08,2.67,2.67,0,0,0,.48-.08.68.68,0,0,0,.32-.18.49.49,0,0,0,.13-.36.61.61,0,0,0-.11-.35.55.55,0,0,0-.25-.2,1.26,1.26,0,0,0-.33-.1h-.34a1.38,1.38,0,0,0-.77.19.77.77,0,0,0-.33.6h-1.1a1.72,1.72,0,0,1,.23-.8,1.49,1.49,0,0,1,.52-.51,2.12,2.12,0,0,1,.7-.27,4.45,4.45,0,0,1,.81-.08,3.53,3.53,0,0,1,.72.08,1.91,1.91,0,0,1,.65.25,1.35,1.35,0,0,1,.45.44,1.21,1.21,0,0,1,.18.67Zm-1.1-1.38a1.51,1.51,0,0,1-.62.2,5.83,5.83,0,0,0-.73.1,1.87,1.87,0,0,0-.34.08,1.11,1.11,0,0,0-.29.14.63.63,0,0,0-.19.24.89.89,0,0,0-.07.36.45.45,0,0,0,.1.31.73.73,0,0,0,.26.2,1.19,1.19,0,0,0,.32.1h.33a1.74,1.74,0,0,0,.39,0,1.16,1.16,0,0,0,.4-.16,1.11,1.11,0,0,0,.31-.3.66.66,0,0,0,.13-.43Z" transform="translate(0 -2.66)"/><path class="cls-2" d="M112.46,269.37h1.2l1.3,3.72h0l1.26-3.72h1.15l-1.94,5.25c-.09.23-.17.44-.26.65a2.48,2.48,0,0,1-.32.54,1.3,1.3,0,0,1-.46.38,1.63,1.63,0,0,1-.72.14,4.87,4.87,0,0,1-.76-.06v-.93l.26.05h.26a.86.86,0,0,0,.32-.05.6.6,0,0,0,.21-.14,1.1,1.1,0,0,0,.14-.21,2.47,2.47,0,0,0,.1-.29l.13-.39Z" transform="translate(0 -2.66)"/><path class="cls-2" d="M118,267.48h1.1v3.91l2-2h1.35l-1.9,1.83,2.08,3.15H121.3L119.78,272l-.66.63v1.78H118Z" transform="translate(0 -2.66)"/><path class="cls-2" d="M123.2,274.35v-5h1.1v5Z" transform="translate(0 -2.66)"/><path class="cls-2" d="M125.49,269.37h1v1h0a1.23,1.23,0,0,1,.19-.4,1.88,1.88,0,0,1,.34-.35,1.48,1.48,0,0,1,.44-.25,1.16,1.16,0,0,1,.49-.1h.41v1.06h-.47a1.4,1.4,0,0,0-.53.11,1,1,0,0,0-.42.33,1.44,1.44,0,0,0-.29.53,2.27,2.27,0,0,0-.11.73v2.37h-1.1Z" transform="translate(0 -2.66)"/><path class="cls-2" d="M128.91,274.35v-5H130v5Z" transform="translate(0 -2.66)"/><path class="cls-2" d="M133.88,269.37h1v1h0a1,1,0,0,1,.19-.4,1.56,1.56,0,0,1,.33-.35,1.73,1.73,0,0,1,.44-.25,1.16,1.16,0,0,1,.49-.1h.41v1.06h-.47a1.31,1.31,0,0,0-.52.11,1,1,0,0,0-.43.33,1.62,1.62,0,0,0-.29.53,2.26,2.26,0,0,0-.1.73v2.37h-1.1Z" transform="translate(0 -2.66)"/><path class="cls-2" d="M138,272.15a2.1,2.1,0,0,0,.08.56,1.63,1.63,0,0,0,.25.47,1.17,1.17,0,0,0,.41.32,1.53,1.53,0,0,0,.6.12,1.32,1.32,0,0,0,.77-.21,1.15,1.15,0,0,0,.44-.62h1a2.08,2.08,0,0,1-.3.72,2,2,0,0,1-.51.54,2.78,2.78,0,0,1-.67.33,2.87,2.87,0,0,1-.77.11,2.66,2.66,0,0,1-1-.2,2,2,0,0,1-.77-.54,2.4,2.4,0,0,1-.47-.82,3.45,3.45,0,0,1-.16-1.06,3.09,3.09,0,0,1,.17-1,2.7,2.7,0,0,1,.48-.84,2.24,2.24,0,0,1,.76-.57,2.3,2.3,0,0,1,1-.21,2.12,2.12,0,0,1,1.05.25,2.44,2.44,0,0,1,.78.65,2.92,2.92,0,0,1,.45.92,3.09,3.09,0,0,1,.07,1.09Zm2.56-.73a1.72,1.72,0,0,0-.11-.5,1.22,1.22,0,0,0-.64-.7,1,1,0,0,0-.5-.11,1.39,1.39,0,0,0-.53.1,1.26,1.26,0,0,0-.4.28,1.68,1.68,0,0,0-.27.42,1.45,1.45,0,0,0-.11.51Z" transform="translate(0 -2.66)"/><path class="cls-2" d="M142.45,269.37h1v.76a1.87,1.87,0,0,1,.66-.65,1.75,1.75,0,0,1,.89-.24,1.83,1.83,0,0,1,1.29.42,1.63,1.63,0,0,1,.48,1.27v3.42h-1.1v-3.13a1.37,1.37,0,0,0-.25-.85.91.91,0,0,0-.72-.26,1.09,1.09,0,0,0-.5.1,1,1,0,0,0-.38.28,1.49,1.49,0,0,0-.33.93v2.93H142.4Z" transform="translate(0 -2.66)"/><path class="cls-2" d="M148,267.48h1.1v3.91l2-2h1.35l-1.91,1.83,2.09,3.15h-1.34L149.77,272l-.65.63v1.78H148Z" transform="translate(0 -2.66)"/><path class="cls-2" d="M153.23,273.05h1.33v1.3a1.47,1.47,0,0,1-.36,1,1.58,1.58,0,0,1-.94.52v-.58a.68.68,0,0,0,.48-.36,1,1,0,0,0,.15-.58h-.66Z" transform="translate(0 -2.66)"/><path class="cls-2" d="M163.18,274.35h-1v-.67h0a1.37,1.37,0,0,1-.64.62,2.38,2.38,0,0,1-1.92,0,2.1,2.1,0,0,1-.73-.56,2.28,2.28,0,0,1-.43-.85,3.37,3.37,0,0,1-.15-1,3.27,3.27,0,0,1,.18-1.16,2.58,2.58,0,0,1,.49-.81,1.81,1.81,0,0,1,.69-.47,2.22,2.22,0,0,1,.8-.15h.47a2.44,2.44,0,0,1,.46.14,2.14,2.14,0,0,1,.41.25,1,1,0,0,1,.31.35h0V267.5h1.1Zm-3.83-2.43a2.57,2.57,0,0,0,.08.62,1.61,1.61,0,0,0,.25.55,1.34,1.34,0,0,0,.43.39,1.31,1.31,0,0,0,.62.14,1.36,1.36,0,0,0,.63-.15,1.3,1.3,0,0,0,.43-.41,1.88,1.88,0,0,0,.25-.56,2.74,2.74,0,0,0,.08-.64,2,2,0,0,0-.37-1.29,1.35,1.35,0,0,0-1.65-.3,1.3,1.3,0,0,0-.43.41,1.74,1.74,0,0,0-.24.58,3,3,0,0,0-.08.66Z" transform="translate(0 -2.66)"/><path class="cls-2" d="M168.74,274.35h-1.07v-.69h0a1.71,1.71,0,0,1-1.42.83,1.85,1.85,0,0,1-1.42-.49,2.16,2.16,0,0,1-.44-1.47v-3.16h1.1v3.06a1.37,1.37,0,0,0,.25.92.91.91,0,0,0,.7.27,1.28,1.28,0,0,0,.58-.11,1,1,0,0,0,.38-.28,1.13,1.13,0,0,0,.2-.43,2.5,2.5,0,0,0,.07-.54v-2.89h1.09Zm-3.57-5.79v-1h1.1v1Zm2.75-1v1h-1.09v-1Z" transform="translate(0 -2.66)"/><path class="cls-2" d="M169.73,269.37h4v.77l-2.85,3.35h3v.86H169.5v-.77l2.76-3.34H169.7Z" transform="translate(0 -2.66)"/><path class="cls-2" d="M175.57,272.15a2.1,2.1,0,0,0,.08.56,1.42,1.42,0,0,0,.25.47,1.07,1.07,0,0,0,.41.32,1.53,1.53,0,0,0,.6.12,1.32,1.32,0,0,0,.77-.21,1.15,1.15,0,0,0,.44-.62h1a2.08,2.08,0,0,1-.3.72,2,2,0,0,1-.51.54,2.78,2.78,0,0,1-.67.33,2.87,2.87,0,0,1-.77.11,2.66,2.66,0,0,1-1-.2,2,2,0,0,1-.77-.54,2.4,2.4,0,0,1-.47-.82,3.17,3.17,0,0,1-.16-1.06,3.09,3.09,0,0,1,.17-1,2.7,2.7,0,0,1,.48-.84,2.28,2.28,0,0,1,1.76-.78,2.12,2.12,0,0,1,1.05.25,2.39,2.39,0,0,1,1.22,1.57,2.85,2.85,0,0,1,.08,1.09Zm2.56-.73a1.72,1.72,0,0,0-.11-.5,1.33,1.33,0,0,0-.25-.41,1.24,1.24,0,0,0-.39-.29,1,1,0,0,0-.5-.11,1.39,1.39,0,0,0-.53.1,1.26,1.26,0,0,0-.4.28,1.68,1.68,0,0,0-.27.42,1.26,1.26,0,0,0-.11.51Z" transform="translate(0 -2.66)"/><path class="cls-2" d="M180.06,269.37h1v.74h0a1.79,1.79,0,0,1,.66-.65,1.75,1.75,0,0,1,.89-.24,1.83,1.83,0,0,1,1.29.42,1.62,1.62,0,0,1,.47,1.27v3.42h-1.09V271.2a1.44,1.44,0,0,0-.25-.85.9.9,0,0,0-.73-.26,1.24,1.24,0,0,0-.5.1,1.13,1.13,0,0,0-.37.28,1.49,1.49,0,0,0-.33.93v2.93H180Z" transform="translate(0 -2.66)"/><path class="cls-2" d="M187.77,269.37H189l1.26,3.83h0l1.21-3.83h1.14l-1.78,5h-1.24Z" transform="translate(0 -2.66)"/><path class="cls-2" d="M194.12,272.15a1.77,1.77,0,0,0,.08.56,1.42,1.42,0,0,0,.25.47,1.07,1.07,0,0,0,.41.32,1.37,1.37,0,0,0,.6.12,1.32,1.32,0,0,0,.77-.21,1.15,1.15,0,0,0,.44-.62h1a2.08,2.08,0,0,1-.3.72,2,2,0,0,1-.51.54,2.78,2.78,0,0,1-.67.33,2.87,2.87,0,0,1-.77.11,2.66,2.66,0,0,1-1-.2,1.89,1.89,0,0,1-.77-.54,2.4,2.4,0,0,1-.47-.82,3.17,3.17,0,0,1-.16-1.06,3.09,3.09,0,0,1,.17-1,2.7,2.7,0,0,1,.48-.84,2.28,2.28,0,0,1,1.76-.78,2.18,2.18,0,0,1,1,.25,2.39,2.39,0,0,1,1.22,1.57,2.85,2.85,0,0,1,.08,1.09Zm2.56-.73a1.72,1.72,0,0,0-.11-.5,1.33,1.33,0,0,0-.25-.41,1.24,1.24,0,0,0-.39-.29,1,1,0,0,0-.5-.11,1.39,1.39,0,0,0-.53.1,1.26,1.26,0,0,0-.4.28,1.68,1.68,0,0,0-.27.42,1.26,1.26,0,0,0-.11.51Z" transform="translate(0 -2.66)"/><path class="cls-2" d="M201.32,267.48h1.1V270h0a1.6,1.6,0,0,1,.64-.57,1.92,1.92,0,0,1,.42-.16,2.1,2.1,0,0,1,.43,0,2.3,2.3,0,0,1,1,.21,2,2,0,0,1,.73.56,2.44,2.44,0,0,1,.43.85,3.37,3.37,0,0,1,.15,1,3.76,3.76,0,0,1-.13,1,2.55,2.55,0,0,1-.4.83,2.07,2.07,0,0,1-.67.58,2,2,0,0,1-1,.22h-.51a1.55,1.55,0,0,1-.48-.13,1.38,1.38,0,0,1-.42-.25,1.11,1.11,0,0,1-.31-.4h0v.68h-1Zm3.83,4.39a2.44,2.44,0,0,0-.09-.66,1.68,1.68,0,0,0-.26-.56,1.34,1.34,0,0,0-.43-.39,1.14,1.14,0,0,0-.6-.15,1.21,1.21,0,0,0-1,.48,2.09,2.09,0,0,0-.35,1.28,2.74,2.74,0,0,0,.09.7,1.44,1.44,0,0,0,.71.92,1.21,1.21,0,0,0,.59.13,1.31,1.31,0,0,0,.64-.15,1.64,1.64,0,0,0,.43-.4,1.86,1.86,0,0,0,.24-.56,3.43,3.43,0,0,0,0-.64Z" transform="translate(0 -2.66)"/><path class="cls-2" d="M211.54,274.35h-1.08v-.69h0a1.45,1.45,0,0,1-.6.6,1.55,1.55,0,0,1-.81.23,1.82,1.82,0,0,1-1.42-.49,2.16,2.16,0,0,1-.44-1.47v-3.16h1.1v3.06a1.37,1.37,0,0,0,.25.92.88.88,0,0,0,.7.27,1.43,1.43,0,0,0,.58-.11,1,1,0,0,0,.37-.28,1,1,0,0,0,.21-.43,2.48,2.48,0,0,0,.06-.54v-2.89h1.1ZM208,268.56v-1h1.1v1Zm2.75-1v1h-1.1v-1Z" transform="translate(0 -2.66)"/><path class="cls-2" d="M212.15,269.37h1.2l1.3,3.72h0l1.26-3.72h1.15l-1.94,5.25-.26.65a3,3,0,0,1-.32.54,1.43,1.43,0,0,1-.47.38,1.58,1.58,0,0,1-.71.14,4.87,4.87,0,0,1-.76-.06v-.93l.26.05h.26a1.13,1.13,0,0,0,.32-.05.48.48,0,0,0,.2-.14.6.6,0,0,0,.14-.21,2.49,2.49,0,0,0,.11-.29l.12-.39Z" transform="translate(0 -2.66)"/><path class="cls-2" d="M222.06,274.35H221v-.69h0a1.45,1.45,0,0,1-.6.6,1.53,1.53,0,0,1-.81.23,1.82,1.82,0,0,1-1.42-.49,2.16,2.16,0,0,1-.44-1.47v-3.16h1.1v3.06a1.37,1.37,0,0,0,.25.92.91.91,0,0,0,.7.27,1.28,1.28,0,0,0,.58-.11,1,1,0,0,0,.38-.28,1.13,1.13,0,0,0,.2-.43,2.48,2.48,0,0,0,.06-.54v-2.89h1.1Zm-3.57-5.79v-1h1.1v1Zm2.75-1v1h-1.09v-1Z" transform="translate(0 -2.66)"/><path class="cls-2" d="M223.25,267.48h1.09v3.91l2-2h1.34l-1.9,1.83,2.09,3.15h-1.34L225,271.94l-.66.63v1.78h-1.09Z" transform="translate(0 -2.66)"/><path class="cls-2" d="M228.42,267.48h1.09v6.87h-1.09Z" transform="translate(0 -2.66)"/><path class="cls-2" d="M235.08,274.35H234v-.69h0a1.68,1.68,0,0,1-1.42.83,1.85,1.85,0,0,1-1.42-.49,2.15,2.15,0,0,1-.43-1.47v-3.16h1.09v3.06a1.37,1.37,0,0,0,.25.92.91.91,0,0,0,.71.27,1.24,1.24,0,0,0,.57-.11,1,1,0,0,0,.38-.28,1.15,1.15,0,0,0,.21-.43,2.48,2.48,0,0,0,.06-.54v-2.89h1.1Zm-3.58-5.79v-1h1.1v1Zm2.76-1v1h-1.1v-1Z" transform="translate(0 -2.66)"/><path class="cls-2" d="M236.26,267.48h1.1v3.91l2-2h1.35l-1.91,1.83,2.09,3.15h-1.34L238,271.94l-.65.63v1.78h-1.1Z" transform="translate(0 -2.66)"/><path class="cls-2" d="M241.43,267.48h1.1v6.87h-1.1Z" transform="translate(0 -2.66)"/><path class="cls-2" d="M244.58,272.15a1.77,1.77,0,0,0,.08.56,1.4,1.4,0,0,0,.24.47,1.3,1.3,0,0,0,.42.32,1.24,1.24,0,0,0,.6.12,1.32,1.32,0,0,0,.77-.21,1.25,1.25,0,0,0,.44-.62h1a2.08,2.08,0,0,1-.3.72,2,2,0,0,1-.51.54,2.78,2.78,0,0,1-.67.33,2.87,2.87,0,0,1-.77.11,2.66,2.66,0,0,1-1-.2,1.89,1.89,0,0,1-.77-.54,2.11,2.11,0,0,1-.47-.82,3.17,3.17,0,0,1-.16-1.06,3.09,3.09,0,0,1,.17-1,2.7,2.7,0,0,1,.48-.84,2.25,2.25,0,0,1,1.76-.78,2.12,2.12,0,0,1,1.05.25,2.2,2.2,0,0,1,.77.65,2.47,2.47,0,0,1,.45.92,2.87,2.87,0,0,1,.07,1.09Zm2.56-.73a2.13,2.13,0,0,0-.11-.5,1.33,1.33,0,0,0-.25-.41,1.24,1.24,0,0,0-.39-.29,1,1,0,0,0-.5-.11,1.39,1.39,0,0,0-.53.1,1.12,1.12,0,0,0-.4.28,1.17,1.17,0,0,0-.27.42,1.26,1.26,0,0,0-.11.51Z" transform="translate(0 -2.66)"/><path class="cls-2" d="M249.07,269.37h1v1h0a1.23,1.23,0,0,1,.19-.4,1.61,1.61,0,0,1,.34-.35,1.67,1.67,0,0,1,.43-.25,1.24,1.24,0,0,1,.5-.1h.41v1.06h-.47a1.4,1.4,0,0,0-.53.11,1.27,1.27,0,0,0-.43.33,1.59,1.59,0,0,0-.28.53,2,2,0,0,0-.11.73v2.37H249Z" transform="translate(0 -2.66)"/><path class="cls-2" d="M257,274.35h-1v-.67h0a1.4,1.4,0,0,1-.65.62,2.26,2.26,0,0,1-.89.19,2.46,2.46,0,0,1-1-.21,2.23,2.23,0,0,1-.73-.56,2.44,2.44,0,0,1-.43-.85,3.72,3.72,0,0,1-.14-1,3.27,3.27,0,0,1,.18-1.16,2.29,2.29,0,0,1,.48-.81,1.77,1.77,0,0,1,.7-.47,2.13,2.13,0,0,1,.79-.15h.47a2.54,2.54,0,0,1,.47.14,2.06,2.06,0,0,1,.4.25,1.52,1.52,0,0,1,.32.35h0v-2.54h1Zm-3.83-2.43a2.16,2.16,0,0,0,.09.62,1.38,1.38,0,0,0,.25.55,1.31,1.31,0,0,0,.42.39,1.34,1.34,0,0,0,.62.14,1.36,1.36,0,0,0,.63-.15,1.3,1.3,0,0,0,.43-.41,1.66,1.66,0,0,0,.25-.56,2.3,2.3,0,0,0,.09-.64,2,2,0,0,0-.38-1.29,1.29,1.29,0,0,0-1.81-.18,1.06,1.06,0,0,0-.27.29,1.49,1.49,0,0,0-.24.58,2.94,2.94,0,0,0-.11.66Z" transform="translate(0 -2.66)"/><path class="cls-2" d="M259,272.15a1.77,1.77,0,0,0,.09.56,1.4,1.4,0,0,0,.24.47,1.3,1.3,0,0,0,.42.32,1.54,1.54,0,0,0,1.37-.09,1.25,1.25,0,0,0,.44-.62h1a2.08,2.08,0,0,1-.3.72,2,2,0,0,1-.51.54,2.78,2.78,0,0,1-.67.33,2.94,2.94,0,0,1-.78.11,2.66,2.66,0,0,1-1-.2,2,2,0,0,1-.76-.54,2.11,2.11,0,0,1-.47-.82,3.17,3.17,0,0,1-.16-1.06,2.84,2.84,0,0,1,.17-1,2.7,2.7,0,0,1,.48-.84,2.23,2.23,0,0,1,1.75-.78,2.25,2.25,0,0,1,1.83.9,2.47,2.47,0,0,1,.45.92,2.87,2.87,0,0,1,.07,1.09Zm2.56-.73a1.45,1.45,0,0,0-.11-.5,1.16,1.16,0,0,0-.25-.41,1.1,1.1,0,0,0-.38-.29,1,1,0,0,0-.51-.11,1.3,1.3,0,0,0-.52.1,1.12,1.12,0,0,0-.4.28,1.17,1.17,0,0,0-.27.42,1.46,1.46,0,0,0-.12.51Z" transform="translate(0 -2.66)"/><path class="cls-2" d="M266.23,267.48h1.09v3.91l2-2h1.34l-1.9,1.83,2.09,3.15H269.5l-1.5-2.43-.66.63v1.78h-1.09Z" transform="translate(0 -2.66)"/><path class="cls-2" d="M275.74,274.35h-1.08v-.69h0a1.68,1.68,0,0,1-1.42.83,1.85,1.85,0,0,1-1.42-.49,2.15,2.15,0,0,1-.43-1.47v-3.16h1.09v3.06a1.37,1.37,0,0,0,.25.92.91.91,0,0,0,.71.27,1.24,1.24,0,0,0,.57-.11,1,1,0,0,0,.38-.28,1.23,1.23,0,0,0,.21-.43,2.48,2.48,0,0,0,.06-.54v-2.89h1.1Z" transform="translate(0 -2.66)"/><path class="cls-2" d="M276.92,267.48H278v6.87h-1.1Z" transform="translate(0 -2.66)"/><path class="cls-2" d="M279.24,267.48h1.1v6.87h-1.1Z" transform="translate(0 -2.66)"/><path class="cls-2" d="M285.7,273.24a.58.58,0,0,0,.05.29.22.22,0,0,0,.21.09h.27v.76h-.15l-.19.05h-.35a1,1,0,0,1-.56-.14.66.66,0,0,1-.29-.47,1.88,1.88,0,0,1-.81.46,2.91,2.91,0,0,1-.92.15,2,2,0,0,1-.64-.1,1.38,1.38,0,0,1-.54-.27,1.11,1.11,0,0,1-.38-.45,1.42,1.42,0,0,1-.14-.64,1.5,1.5,0,0,1,.17-.75,1.35,1.35,0,0,1,.44-.45,2,2,0,0,1,.62-.24l.69-.11a4.72,4.72,0,0,0,.56-.08,2.67,2.67,0,0,0,.48-.08.72.72,0,0,0,.33-.18.48.48,0,0,0,.12-.36.62.62,0,0,0-.1-.35.69.69,0,0,0-.25-.2,1.26,1.26,0,0,0-.33-.1h-.35a1.35,1.35,0,0,0-.76.19.78.78,0,0,0-.34.6h-1.1a1.72,1.72,0,0,1,.23-.8,1.49,1.49,0,0,1,.52-.51,2,2,0,0,1,.71-.27,4.45,4.45,0,0,1,.81-.08,3.53,3.53,0,0,1,.72.08,1.86,1.86,0,0,1,.64.25,1.38,1.38,0,0,1,.46.44,1.31,1.31,0,0,1,.17.67Zm-1.1-1.38a1.47,1.47,0,0,1-.61.2,6,6,0,0,0-.74.1,2,2,0,0,0-.33.08,1.11,1.11,0,0,0-.29.14.52.52,0,0,0-.2.24.89.89,0,0,0-.07.36.45.45,0,0,0,.1.31.86.86,0,0,0,.26.2,1.26,1.26,0,0,0,.33.1h.32a1.74,1.74,0,0,0,.39,0,1.16,1.16,0,0,0,.4-.16,1.14,1.14,0,0,0,.32-.3.74.74,0,0,0,.12-.43Z" transform="translate(0 -2.66)"/><path class="cls-2" d="M286.88,269.37h1v.74h0a1.79,1.79,0,0,1,.66-.65,1.75,1.75,0,0,1,.89-.24,1.83,1.83,0,0,1,1.29.42,1.62,1.62,0,0,1,.47,1.27v3.42H290.1V271.2a1.44,1.44,0,0,0-.25-.85.9.9,0,0,0-.73-.26,1.24,1.24,0,0,0-.5.1,1.13,1.13,0,0,0-.37.28,1.1,1.1,0,0,0-.24.42,1.48,1.48,0,0,0-.09.51v2.93h-1.1Z" transform="translate(0 -2.66)"/><path class="cls-2" d="M292.44,274.35v-5h1.09v5Z" transform="translate(0 -2.66)"/><path class="cls-2" d="M294.76,267.48h1.09v6.87h-1.09Z" transform="translate(0 -2.66)"/><path class="cls-2" d="M301.22,273.24a.48.48,0,0,0,0,.29q0,.09.21.09h.27v.76h-.15l-.19.05H301a1.08,1.08,0,0,1-.56-.14.65.65,0,0,1-.28-.47,1.88,1.88,0,0,1-.81.46,2.91,2.91,0,0,1-.92.15,2,2,0,0,1-.64-.1,1.76,1.76,0,0,1-.55-.27,1.15,1.15,0,0,1-.37-.45,1.3,1.3,0,0,1-.14-.64,1.32,1.32,0,0,1,.17-.75,1.35,1.35,0,0,1,.44-.45,2.16,2.16,0,0,1,.61-.24l.69-.11a4.89,4.89,0,0,0,.57-.08,2.67,2.67,0,0,0,.48-.08.72.72,0,0,0,.33-.18.48.48,0,0,0,.12-.36.61.61,0,0,0-.11-.35.55.55,0,0,0-.25-.2,1.26,1.26,0,0,0-.33-.1h-.34a1.35,1.35,0,0,0-.76.19.74.74,0,0,0-.34.6h-1a1.72,1.72,0,0,1,.23-.8,1.49,1.49,0,0,1,.52-.51,2.12,2.12,0,0,1,.7-.27,4.45,4.45,0,0,1,.81-.08,3.55,3.55,0,0,1,.73.08,1.81,1.81,0,0,1,.63.25,1.3,1.3,0,0,1,.46.44,1.21,1.21,0,0,1,.18.67Zm-1.1-1.38a1.51,1.51,0,0,1-.62.2,5.83,5.83,0,0,0-.73.1,1.87,1.87,0,0,0-.34.08,1.11,1.11,0,0,0-.29.14.63.63,0,0,0-.19.24.89.89,0,0,0-.07.36.45.45,0,0,0,.1.31.73.73,0,0,0,.26.2,1.19,1.19,0,0,0,.32.1h.33a1.74,1.74,0,0,0,.39,0,1.16,1.16,0,0,0,.4-.16,1.11,1.11,0,0,0,.31-.3.66.66,0,0,0,.13-.43Z" transform="translate(0 -2.66)"/><path class="cls-2" d="M302.4,269.37h1v.7h0a2.24,2.24,0,0,1,.27-.34,1.35,1.35,0,0,1,.32-.26,2.09,2.09,0,0,1,.41-.17,2.33,2.33,0,0,1,.53-.06,1.89,1.89,0,0,1,.84.2,1.14,1.14,0,0,1,.55.63,2.11,2.11,0,0,1,.65-.61,1.71,1.71,0,0,1,.91-.22,1.82,1.82,0,0,1,1.23.38,1.64,1.64,0,0,1,.44,1.3v3.43h-1.1v-2.91a4.86,4.86,0,0,0,0-.54,1.19,1.19,0,0,0-.11-.42.61.61,0,0,0-.27-.28,1.08,1.08,0,0,0-.5-.09.94.94,0,0,0-.81.34,1.61,1.61,0,0,0-.25,1v2.92h-1.1v-3.19a1.37,1.37,0,0,0-.19-.79.76.76,0,0,0-.69-.26,1.1,1.1,0,0,0-.4.08,1.07,1.07,0,0,0-.35.25,1.14,1.14,0,0,0-.24.41,1.71,1.71,0,0,0-.09.55v3h-1.1Z" transform="translate(0 -2.66)"/><path class="cls-2" d="M314.94,273.24a.49.49,0,0,0,.06.29.2.2,0,0,0,.2.09h.27v.76h-.15l-.19.05h-.35a1,1,0,0,1-.56-.14.69.69,0,0,1-.29-.47,1.79,1.79,0,0,1-.8.46,2.91,2.91,0,0,1-.92.15,2.05,2.05,0,0,1-.65-.1,1.82,1.82,0,0,1-.54-.27,1.27,1.27,0,0,1-.38-.45,1.42,1.42,0,0,1-.14-.64,1.5,1.5,0,0,1,.17-.75,1.21,1.21,0,0,1,.45-.45,1.9,1.9,0,0,1,.61-.24l.69-.11a4.89,4.89,0,0,0,.57-.08,2.43,2.43,0,0,0,.47-.08.72.72,0,0,0,.33-.18.48.48,0,0,0,.12-.36.55.55,0,0,0-.1-.35.69.69,0,0,0-.25-.2,1.26,1.26,0,0,0-.33-.1h-.35a1.35,1.35,0,0,0-.76.19.75.75,0,0,0-.33.6h-1.1a1.61,1.61,0,0,1,.23-.8,1.39,1.39,0,0,1,.51-.51,2.27,2.27,0,0,1,.71-.27,4.45,4.45,0,0,1,.81-.08,3.53,3.53,0,0,1,.72.08,1.86,1.86,0,0,1,.64.25,1.38,1.38,0,0,1,.46.44,1.31,1.31,0,0,1,.17.67Zm-1.1-1.38a1.42,1.42,0,0,1-.61.2,5.83,5.83,0,0,0-.73.1,1.87,1.87,0,0,0-.34.08,1.11,1.11,0,0,0-.29.14.78.78,0,0,0-.2.24.89.89,0,0,0-.07.36.51.51,0,0,0,.11.31.69.69,0,0,0,.25.2,1.26,1.26,0,0,0,.33.1h.32a1.83,1.83,0,0,0,.4,0,1.16,1.16,0,0,0,.4-.16,1.11,1.11,0,0,0,.31-.3.74.74,0,0,0,.12-.43Z" transform="translate(0 -2.66)"/><path class="cls-2" d="M316,269.37h4v.77l-2.85,3.35h3v.86h-4.38v-.77l2.75-3.34H316Z" transform="translate(0 -2.66)"/><path class="cls-2" d="M321,273.05h1.33v1.3H321Z" transform="translate(0 -2.66)"/><path class="cls-3" d="M362.14,80.68H333.37a9.86,9.86,0,0,0,2.94,6.1,8.51,8.51,0,0,0,5.95,2.11q5.72,0,7.83-4.37h11.15a16.17,16.17,0,0,1-6.71,9.53,21.22,21.22,0,0,1-12.27,3.5q-9,0-14.61-5.57t-5.58-14.76q0-9.27,5.5-14.76t14.54-5.58q9,0,14.61,5.8,5.41,5.88,5.42,15.67Zm-28.7-7.45h17.18a9.41,9.41,0,0,0-2.87-5.65,8.29,8.29,0,0,0-5.79-2Q334.73,65.54,333.44,73.23Z" transform="translate(0 -2.66)"/><path class="cls-3" d="M371.48,92q-5.43-5.58-5.42-14.76,0-9.34,5.42-14.84T386,56.88q8,0,13.07,4.18A16.51,16.51,0,0,1,405,72.4H393.32q-1-6-7.31-6-8.06,0-8.05,10.77T386,87.91q6.78,0,7.53-6.55h11.68a16.3,16.3,0,0,1-5.8,11.82c-3.52,2.92-8,4.37-13.41,4.37Q376.91,97.55,371.48,92Z" transform="translate(0 -2.66)"/><path class="cls-3" d="M414,92q-5.58-5.58-5.58-14.76T414,62.38q5.49-5.49,14.83-5.5t14.84,5.5q5.49,5.5,5.5,14.84T443.63,92q-5.58,5.56-14.84,5.57T414,92ZM435,85.35q2.19-2.79,2.19-8.13T435,69.08a8.49,8.49,0,0,0-12.57,0q-2.19,2.79-2.19,8.14t2.19,8.13a8.47,8.47,0,0,0,12.57,0Z" transform="translate(0 -2.66)"/><path class="cls-3" d="M456.77,94.58q-4.49-3.21-5-10.28h11.45a5.87,5.87,0,0,0,2,4.36c1.13.86,3,1.28,5.46,1.28,4.36,0,6.55-1.25,6.55-3.76a3.09,3.09,0,0,0-1.43-2.75,14.54,14.54,0,0,0-5.27-1.54l-5-.83q-13.11-2-13.1-11.9a10.47,10.47,0,0,1,4.51-9.08c3-2.13,7.33-3.2,13-3.2q17.4,0,18.07,13.33H477q-.08-5.49-7.15-5.5c-4,0-5.95,1.24-5.95,3.7A2.92,2.92,0,0,0,465.24,71a11.13,11.13,0,0,0,4.3,1.35l5.8.83q7,1,10.31,4A10.23,10.23,0,0,1,489,85.2a10.55,10.55,0,0,1-4.86,9.3q-4.86,3.27-13.67,3.28Q461.25,97.78,456.77,94.58Z" transform="translate(0 -2.66)"/><path class="cls-3" d="M515.25,66.37h-7.46V84.52a3.14,3.14,0,0,0,1,2.68,6.24,6.24,0,0,0,3.47.71h3v8.74a39.84,39.84,0,0,1-5.42.3q-7.31,0-10.55-2.6t-3.23-8.55V66.37h-5.8V57.79h5.8V46.26h11.74V57.79h7.46Z" transform="translate(0 -2.66)"/><path class="cls-3" d="M545.75,96.65a10.08,10.08,0,0,1-1-4.37q-3.91,5.27-12.42,5.27-6.4,0-10.28-3.16a10.65,10.65,0,0,1-3.88-8.74q0-10.84,15.21-12.12l6.1-.53q5.06-.52,5-3.84,0-3.91-5.95-3.92c-2.41,0-4.11.37-5.08,1.09s-1.57,2.08-1.77,4H520.07q1.06-13.47,18.6-13.48,17.33,0,17.33,12V89.49c0,3.27.52,5.65,1.58,7.16Zm-3.54-9.08q2.34-2.07,2.34-6.21V78.5a6.52,6.52,0,0,1-3.92,1.5l-4.82.53c-3.76.4-5.65,2-5.65,4.67a3.94,3.94,0,0,0,1.51,3.24,6.62,6.62,0,0,0,4.22,1.2A9.17,9.17,0,0,0,542.21,87.57Z" transform="translate(0 -2.66)"/><path class="cls-3" d="M587.33,57.34V68h-3Q574,68,574,78.57V96.65H562.25V57.79h11.44V65q2.71-7.84,11.07-7.84C585,57.18,585.82,57.23,587.33,57.34Z" transform="translate(0 -2.66)"/><path class="cls-3" d="M614.89,66.37h-7.46V84.52a3.14,3.14,0,0,0,1,2.68,6.24,6.24,0,0,0,3.47.71h3v8.74a39.84,39.84,0,0,1-5.42.3q-7.31,0-10.55-2.6t-3.23-8.55V66.37h-5.8V57.79h5.8V46.26h11.74V57.79h7.46Z" transform="translate(0 -2.66)"/><path class="cls-3" d="M657.59,80.68H628.82a9.86,9.86,0,0,0,2.94,6.1,8.53,8.53,0,0,0,6,2.11q5.73,0,7.83-4.37h11.15a16.2,16.2,0,0,1-6.7,9.53,21.28,21.28,0,0,1-12.28,3.5q-9,0-14.61-5.57t-5.57-14.76q0-9.27,5.49-14.76t14.54-5.58q9,0,14.61,5.8t5.42,15.67ZM628.9,73.23h17.17a9.4,9.4,0,0,0-2.86-5.65,8.33,8.33,0,0,0-5.8-2Q630.18,65.54,628.9,73.23Z" transform="translate(0 -2.66)"/><path class="cls-3" d="M688.17,57.34V68h-3q-10.32,0-10.32,10.54V96.65H663.09V57.79h11.45V65q2.72-7.84,11.07-7.84C685.81,57.18,686.66,57.23,688.17,57.34Z" transform="translate(0 -2.66)"/><path class="cls-4" d="M322,128.55V107.66h2.35v20.89Z" transform="translate(0 -2.66)"/><path class="cls-4" d="M334.49,128.9a7,7,0,0,1-5.28-2.17,9.09,9.09,0,0,1,0-11.5,7.51,7.51,0,0,1,10.56,0,9.09,9.09,0,0,1,0,11.5A7,7,0,0,1,334.49,128.9Zm0-2.11a4.42,4.42,0,0,0,3.55-1.56,7.55,7.55,0,0,0,0-8.53,4.88,4.88,0,0,0-7.1,0,7.55,7.55,0,0,0,0,8.53A4.41,4.41,0,0,0,334.49,126.79Z" transform="translate(0 -2.66)"/><path class="cls-4" d="M350.36,115.46h-3.11v9.83c0,.86.57,1.29,1.73,1.29h1.38v2c-.65,0-1.21.08-1.68.08q-3.78,0-3.78-3.13v-10h-2.49v-2h2.49v-4.28h2.35v4.28h3.11Z" transform="translate(0 -2.66)"/><path class="cls-4" d="M351.62,123.74H354a3.44,3.44,0,0,0,1.13,2.41,4.77,4.77,0,0,0,2.92.72c2.43,0,3.64-.78,3.64-2.34a1.78,1.78,0,0,0-.75-1.56,7.71,7.71,0,0,0-2.71-.91l-1.41-.26c-3.15-.59-4.72-2.07-4.72-4.46a3.74,3.74,0,0,1,1.48-3.12,6.39,6.39,0,0,1,4-1.16q6,0,6.16,5h-2.35a2.93,2.93,0,0,0-1-2.32,4.76,4.76,0,0,0-2.82-.68,4,4,0,0,0-2.35.59,1.92,1.92,0,0,0-.82,1.64,1.71,1.71,0,0,0,.71,1.5,6.63,6.63,0,0,0,2.34.85l1.35.26a9,9,0,0,1,4,1.59,3.54,3.54,0,0,1,1.21,2.87,3.9,3.9,0,0,1-1.6,3.33A7.24,7.24,0,0,1,358,128.9Q352,128.9,351.62,123.74Z" transform="translate(0 -2.66)"/><path class="cls-4" d="M378.57,128.9a7,7,0,0,1-5.28-2.17,9.09,9.09,0,0,1,0-11.5,7.51,7.51,0,0,1,10.56,0,9.09,9.09,0,0,1,0,11.5A7,7,0,0,1,378.57,128.9Zm0-2.11a4.41,4.41,0,0,0,3.55-1.56,7.55,7.55,0,0,0,0-8.53,4.88,4.88,0,0,0-7.1,0,7.55,7.55,0,0,0,0,8.53A4.41,4.41,0,0,0,378.57,126.79Z" transform="translate(0 -2.66)"/><path class="cls-4" d="M393.65,109.66c-1.35,0-2,.71-2,2.14v1.61h3.23v2h-3.23v13.09h-2.34V115.46h-2.5v-2h2.5v-1.55c0-2.84,1.4-4.25,4.22-4.25.37,0,.87,0,1.5,0v2Z" transform="translate(0 -2.66)"/><path class="cls-4" d="M415.61,115.2a9.66,9.66,0,0,1,0,11.53,6.56,6.56,0,0,1-5.13,2.17,5.88,5.88,0,0,1-5.07-2.53v7.92h-2.35V113.41h2.23v2.35a5.88,5.88,0,0,1,5.19-2.7A6.57,6.57,0,0,1,415.61,115.2Zm-1.89,10a6.56,6.56,0,0,0,1.34-4.33,6.19,6.19,0,0,0-1.31-4.18,4.92,4.92,0,0,0-7.11,0,7.55,7.55,0,0,0,0,8.53,4.76,4.76,0,0,0,7.08,0Z" transform="translate(0 -2.66)"/><path class="cls-4" d="M428.2,113.21v2.25h-.59a5.31,5.31,0,0,0-3.65,1.16,4.21,4.21,0,0,0-1.31,3.3v8.63h-2.34V113.41h2.23v2.67a5.11,5.11,0,0,1,4.86-2.9A6.89,6.89,0,0,1,428.2,113.21Z" transform="translate(0 -2.66)"/><path class="cls-4" d="M436.11,128.9a7,7,0,0,1-5.27-2.17,9.05,9.05,0,0,1,0-11.5,7.5,7.5,0,0,1,10.55,0,9.05,9.05,0,0,1,0,11.5A7,7,0,0,1,436.11,128.9Zm0-2.11a4.41,4.41,0,0,0,3.55-1.56,7.55,7.55,0,0,0,0-8.53,4.87,4.87,0,0,0-7.09,0,7.55,7.55,0,0,0,0,8.53A4.4,4.4,0,0,0,436.11,126.79Z" transform="translate(0 -2.66)"/><path class="cls-4" d="M457.61,107.66H460v20.89h-2.23V126.2a5.88,5.88,0,0,1-5.19,2.7,6.47,6.47,0,0,1-5.1-2.17,9.54,9.54,0,0,1,0-11.53,6.42,6.42,0,0,1,5.1-2.14,5.89,5.89,0,0,1,5.07,2.52Zm-4.78,19.13a4.41,4.41,0,0,0,3.55-1.56,7.5,7.5,0,0,0,0-8.5,4.76,4.76,0,0,0-7.08,0A6.56,6.56,0,0,0,448,121.1a6.14,6.14,0,0,0,1.32,4.19A4.5,4.5,0,0,0,452.83,126.79Z" transform="translate(0 -2.66)"/><path class="cls-4" d="M473.45,113.41h2.35v15.14h-2.23v-2.26a5.89,5.89,0,0,1-8.68,1.23,5.17,5.17,0,0,1-1.41-3.87V113.41h2.35v10q0,3.38,3.46,3.38a4,4,0,0,0,2.9-1.24,4.77,4.77,0,0,0,1.26-3.57Z" transform="translate(0 -2.66)"/><path class="cls-4" d="M480.52,126.73a9.54,9.54,0,0,1,0-11.53,6.39,6.39,0,0,1,5.07-2.14,6.6,6.6,0,0,1,4.43,1.47,6.07,6.07,0,0,1,2.08,4h-2.43a3.84,3.84,0,0,0-1.39-2.49,4.24,4.24,0,0,0-2.69-.88,4.08,4.08,0,0,0-3.31,1.51,8.07,8.07,0,0,0,0,8.58,4,4,0,0,0,3.3,1.53,4.23,4.23,0,0,0,2.7-.91,3.94,3.94,0,0,0,1.41-2.53h2.4A6.28,6.28,0,0,1,490,127.4a7,7,0,0,1-9.43-.67Z" transform="translate(0 -2.66)"/><path class="cls-4" d="M500.64,115.46h-3.11v9.83c0,.86.58,1.29,1.73,1.29h1.38v2c-.65,0-1.2.08-1.67.08-2.52,0-3.79-1-3.79-3.13v-10h-2.49v-2h2.49v-4.28h2.35v4.28h3.11Z" transform="translate(0 -2.66)"/><path class="cls-4" d="M501.9,123.74h2.38a3.36,3.36,0,0,0,1.13,2.41,4.71,4.71,0,0,0,2.91.72c2.43,0,3.64-.78,3.64-2.34a1.78,1.78,0,0,0-.75-1.56,7.71,7.71,0,0,0-2.71-.91l-1.41-.26c-3.14-.59-4.72-2.07-4.72-4.46a3.74,3.74,0,0,1,1.48-3.12,6.39,6.39,0,0,1,4-1.16c4,0,6.07,1.67,6.16,5H511.7a2.9,2.9,0,0,0-1-2.32,4.74,4.74,0,0,0-2.82-.68,4,4,0,0,0-2.34.59,1.9,1.9,0,0,0-.82,1.64,1.71,1.71,0,0,0,.7,1.5,6.62,6.62,0,0,0,2.35.85l1.35.26a9,9,0,0,1,4,1.59,3.55,3.55,0,0,1,1.22,2.87,3.92,3.92,0,0,1-1.6,3.33,7.3,7.3,0,0,1-4.42,1.19Q502.26,128.9,501.9,123.74Z" transform="translate(0 -2.66)"/><path class="cls-3" d="M296.47,87.49A72.88,72.88,0,0,1,151,94.34c-.21-2.26-.33-4.54-.33-6.85a72.9,72.9,0,0,1,45-67.35,72,72,0,0,1,19.62-5.06,72.89,72.89,0,0,1,81.15,72.41Z" transform="translate(0 -2.66)"/><path class="cls-5" d="M223.59,12.2a79,79,0,0,0-8.54.48A75.23,75.23,0,0,0,148.35,85c0,.84,0,1.69,0,2.54,0,2.34.11,4.73.33,7.07a75.29,75.29,0,1,0,75-82.36Zm0,145.76a70.48,70.48,0,0,1-70.16-63.85c-.2-2.2-.3-4.42-.3-6.62a70.27,70.27,0,0,1,43.5-65.12,69.3,69.3,0,0,1,19-4.9,71.48,71.48,0,0,1,8-.46,70.48,70.48,0,1,1,0,141Z" transform="translate(0 -2.66)"/><path class="cls-6" d="M261.24,142.38l-31,6.09-62.57-47.28L151,94.34c-.21-2.26-.33-4.54-.33-6.85a72.9,72.9,0,0,1,45-67.35s-1.42-13.43,8.76-15c5.25-.79,9,3.12,10.86,9.9,1.49,5.33,1.83,12.45.87,20.44-2.55,21.09-6.1,37.86,14.07,47.09S263.49,88,270.94,105.3C277.83,121.25,269.07,136.58,261.24,142.38Z" transform="translate(0 -2.66)"/><path class="cls-5" d="M230.26,150.88a2.39,2.39,0,0,1-1.45-.49L166.49,103.3l-16.37-6.74a2.39,2.39,0,0,1-1.48-2c-.22-2.34-.33-4.72-.33-7.07a75.08,75.08,0,0,1,44.89-68.9c-.07-5.71,2.05-14.46,10.9-15.8,6.29-.94,11.22,3.3,13.55,11.64,1.6,5.75,1.92,13.14.93,21.38-.16,1.34-.33,2.67-.49,4-2.39,19-4.11,32.73,13.18,40.64a110.23,110.23,0,0,0,17.27,6c10.7,3,19.15,5.31,24.62,18,7.26,16.84-1.76,33.51-10.49,40a2.49,2.49,0,0,1-1,.43l-31,6.09A2.5,2.5,0,0,1,230.26,150.88ZM153.31,92.67,168.61,99a2.86,2.86,0,0,1,.54.3l61.71,46.64,29.36-5.78c7.32-5.73,14.62-19.72,8.51-33.87-4.55-10.53-11.28-12.4-21.48-15.23a114.89,114.89,0,0,1-18-6.22c-20.5-9.38-18.39-26.17-15.95-45.62.16-1.3.33-2.61.49-4,.9-7.5.62-14.43-.8-19.51-1.14-4.11-3.5-8.86-8.19-8.16-7.8,1.17-6.76,11.87-6.71,12.33a2.42,2.42,0,0,1-1.47,2.48,70.28,70.28,0,0,0-43.51,65.12C153.12,89.21,153.19,90.94,153.31,92.67Z" transform="translate(0 -2.66)"/><path class="cls-7" d="M278.6,129.51a58,58,0,0,0,2-6.5c3.57-15,.27-28.89-9.54-40.26-4.71-5.48-6.57-14.09-5-23,1.83-10.16,7.77-19.11,15.5-23.38A17.06,17.06,0,0,1,289.73,34a11.58,11.58,0,0,1,4.93,1A7.53,7.53,0,0,1,297,36.76l2.1,2.33-2.78,1.43a15.83,15.83,0,0,0-2.63,1.7c-2.57,2.09-3.68,4.55-3.28,7.31l1.3,2.57a74.84,74.84,0,0,1,7.43,32.69,75.79,75.79,0,0,1-16.42,47.05Z" transform="translate(0 -2.66)"/><path class="cls-7" d="M278.75,129.09a75.1,75.1,0,0,1-1.7,7.94,12.46,12.46,0,0,0-.32,1.49q-2.42,2.39-5,4.55A60,60,0,0,0,278.75,129.09Z" transform="translate(0 -2.66)"/><path class="cls-5" d="M271.7,145.48a2.41,2.41,0,0,1-1.95-3.83,59.57,59.57,0,0,0,8.47-19.2c3.43-14.38.4-27.21-9-38.13-5.27-6.11-7.27-15.23-5.51-25,2-11,8.23-20.38,16.71-25.06,8-4.39,15.14-2.62,18.37.87,1.8,2,2.17,4.3,1,6.13a2.31,2.31,0,0,1-1.19.94c-.06,0-6.07,2.3-5.77,6.67l1.13,2.23a78,78,0,0,1-20.68,93.87A2.38,2.38,0,0,1,271.7,145.48Zm18-109a14.56,14.56,0,0,0-7,2c-7.11,3.92-12.59,12.23-14.29,21.69-1.48,8.25.17,16.12,4.42,21,10.33,12,13.81,26.65,10,42.4a60.77,60.77,0,0,1-2,6.77,73.2,73.2,0,0,0,8.73-77.15l-1.3-2.58a2.38,2.38,0,0,1-.24-.74c-.52-3.6.92-6.89,4.16-9.52a18,18,0,0,1,3-2,4.9,4.9,0,0,0-1.61-1.13A9.22,9.22,0,0,0,289.73,36.45Z" transform="translate(0 -2.66)"/><path class="cls-7" d="M277,138.2a75.25,75.25,0,0,1-53.5,22.17c-43,0-77.66-36.61-75.41-79.61a74.17,74.17,0,0,1,1.73-12.57h0C145,66.11,140,60.53,140.63,54c.78-8.14,8.77-12.6,20.65-12,6,.33,12.83,2.93,19.87,9.44a34.8,34.8,0,0,1,11.68,25.36A18.27,18.27,0,0,0,214,94.61c1.49-.25,2.94-.52,4.34-.8,13-2.57,23.37,6.12,22.69,19.4-.34,6.76.83,13.08,5.07,17,13,11.88,29.87,5.51,29.91,5.49h0L277,138.2Z" transform="translate(0 -2.66)"/><path class="cls-5" d="M223.59,162.77h-.05a78.32,78.32,0,0,1-77.82-82.13,78.14,78.14,0,0,1,1.39-11.14c-5.14-3-9.54-8.91-8.88-15.74.91-9.45,9.78-14.86,23.18-14.13,7.39.41,14.58,3.81,21.37,10.08a37.08,37.08,0,0,1,12.46,27.07,16.19,16.19,0,0,0,5.85,12.1,15.41,15.41,0,0,0,12.48,3.35c1.44-.24,2.88-.5,4.28-.78,7-1.38,13.81.22,18.64,4.39s7.28,10.39,6.92,17.49,1.08,12.13,4.29,15.07c11.7,10.71,26.8,5.24,27.44,5l2.17-.81,2.14,5.12v1.48l-.7.71A77.4,77.4,0,0,1,223.59,162.77ZM159,44.38c-9.42,0-15.32,3.6-15.92,9.84-.51,5.26,3.62,10,7.77,11.75l1.85.79-.44,2A73.42,73.42,0,0,0,223.54,158h.05a72.55,72.55,0,0,0,49.08-18.91c-6.21,1.26-18.22,2.06-28.23-7.1-4.31-3.95-6.28-10.3-5.84-18.87.28-5.58-1.59-10.41-5.26-13.59s-8.93-4.43-14.56-3.31c-1.45.28-2.93.55-4.41.8A20.4,20.4,0,0,1,198,92.59a21,21,0,0,1-7.61-15.69,32.41,32.41,0,0,0-10.91-23.65c-5.94-5.5-12.12-8.46-18.36-8.8C160.39,44.4,159.66,44.38,159,44.38Z" transform="translate(0 -2.66)"/><path class="cls-8" d="M167.46,55.35A54.25,54.25,0,0,0,148.9,73.29q-1.56,2.37-3,5.1a76.79,76.79,0,0,1,1.23-8.88,19.18,19.18,0,0,1-4.74-3.9q.78-.9,1.65-1.8c5.25-5.42,12.8-10.41,22.88-10.56A1.12,1.12,0,0,1,167.46,55.35Z" transform="translate(0 -2.66)"/><path class="cls-8" d="M296,55.88c-11.07-5.59-17.35.33-20.16,4.49a.84.84,0,0,1-1.53-.63,23.46,23.46,0,0,1,2.71-7.08c4.75-8.33,12.33-9.36,18.22-8.59a5.77,5.77,0,0,0-2.49,4.76l1.13,2.23C294.68,52.65,295.38,54.26,296,55.88Z" transform="translate(0 -2.66)"/><path class="cls-8" d="M206.36,35.89c-4.2-10.12-11.31-14.25-16.1-15.92,1-.48,2-.93,2.94-1.38A21.62,21.62,0,0,1,194.43,11C206,17,207.92,29,208,35.56A.87.87,0,0,1,206.36,35.89Z" transform="translate(0 -2.66)"/><path class="cls-8" d="M274,97c-5.33-9.82-18.56-14.47-18-31.17.67-19.9,14.53-28.77,20.62-31.71q1.62,1.61,3.12,3.31c-14.33,9.54-19,33.39-8.74,45.33,14.21,16.46,12,34.34,7.73,46.33C280.81,115.91,278.47,105.21,274,97Z" transform="translate(0 -2.66)"/><path class="cls-8" d="M271.67,145.38a75.26,75.26,0,0,1-123-50.82c-.22-2.34-.33-4.73-.33-7.07,0-.85,0-1.7,0-2.54C156,116,199.15,173,271.67,145.38Z" transform="translate(0 -2.66)"/></g></g></svg>