<svg xmlns="http://www.w3.org/2000/svg" viewBox="0 0 651.59 278.71"><defs><style>.cls-1{fill:#8f94a5;}.cls-2{fill:#333;}.cls-3{fill:#fff;}.cls-4{fill:#1d1d1b;}.cls-5{fill:#b2b2b2;}</style></defs><g id="Layer_2" data-name="Layer 2"><g id="Layer_1-2" data-name="Layer 1"><path class="cls-1" d="M639.5,0H190.9a12.1,12.1,0,0,0-12.1,12.1v92.71a12.08,12.08,0,0,0,12.1,12.09H639.5a12.09,12.09,0,0,0,12.09-12.09V12.1A12.09,12.09,0,0,0,639.5,0Zm7.6,104.8a7.62,7.62,0,0,1-7.6,7.61H425.61V4.5H639.5a7.61,7.61,0,0,1,7.6,7.6Z"/><path class="cls-2" d="M439.44,24.8h27.33c16,0,25.61,9.37,25.61,23.13v.19c0,15.57-12,23.5-27.05,23.5H454.15V91.69H439.44Zm26.37,33.73c7.36,0,11.66-4.39,11.66-10.13v-.19c0-6.59-4.59-10.13-12-10.13H454.15V58.53Z"/><path class="cls-2" d="M501.84,24.8h30.58c8.5,0,15,2.29,19.49,6.79,3.82,3.82,5.74,8.88,5.74,15.28v.2c0,10.79-5.83,17.58-14.34,20.73l16.34,23.89h-17.2l-14.33-21.4H516.55v21.4H501.84Zm29.62,32.49c7.26,0,11.28-3.73,11.28-9.46v-.19c0-6.4-4.3-9.56-11.56-9.56H516.55V57.29Z"/><path class="cls-2" d="M566.53,58.44v-.19c0-19,15-34.6,35.65-34.6S637.63,39,637.63,58.06v.19c0,19-15,34.59-35.64,34.59S566.53,77.45,566.53,58.44Zm55.71,0v-.19c0-11.47-8.41-21-20.25-21s-20.07,9.37-20.07,20.84v.19c0,11.46,8.41,21,20.26,21S622.24,69.9,622.24,58.44Z"/><path class="cls-3" d="M210.85,24.8h50.93V38.18H225.56V52.42h31.92V65.8H225.56V91.69H210.85Z"/><path class="cls-3" d="M269.14,58.44v-.19c0-19,14.81-34.6,35.07-34.6,11.94,0,19.4,3.25,26.28,9.18L321.22,44c-5.07-4.3-9.85-6.79-17.49-6.79-10.7,0-19.21,9.46-19.21,20.84v.19c0,12.23,8.41,21.21,20.26,21.21a23.33,23.33,0,0,0,13.86-4V65.89H303.83V53.18h29.05V82.23A43.44,43.44,0,0,1,304.3,92.84C283.47,92.84,269.14,78.31,269.14,58.44Z"/><path class="cls-3" d="M345.59,24.8h26.08c21,0,35.55,14.43,35.55,33.26v.19c0,18.82-14.52,33.44-35.55,33.44H345.59ZM360.3,38.08V78.41h11.37c11.95,0,20.17-8.12,20.17-20v-.19c0-11.85-8.22-20.17-20.17-20.17Z"/><path class="cls-4" d="M263.85,131.31h11.92V133h-10V139h9v1.7h-9v7.23h-1.87Z"/><path class="cls-4" d="M278.31,139.65v0a8.32,8.32,0,0,1,8.31-8.58,8.74,8.74,0,0,1,6.19,2.2l-1.21,1.42a7.05,7.05,0,0,0-5.05-1.89c-3.67,0-6.3,3.1-6.3,6.8v.05c0,3.95,2.53,6.89,6.56,6.89a7.78,7.78,0,0,0,4.79-1.66v-4.12h-5.05V139h6.85v6.61a9.88,9.88,0,0,1-6.66,2.54C281.53,148.19,278.31,144.39,278.31,139.65Z"/><path class="cls-4" d="M297.62,131.31h5.76c5.22,0,8.82,3.58,8.82,8.25v.05c0,4.67-3.6,8.29-8.82,8.29h-5.76ZM299.5,133v13.13h3.88c4.2,0,6.88-2.82,6.88-6.52v0c0-3.68-2.68-6.57-6.88-6.57Z"/><path class="cls-4" d="M323.27,131.31h6.21c3.74,0,6.21,2,6.21,5.26v.05c0,3.58-3,5.43-6.52,5.43h-4v5.85h-1.87Zm6,9c2.75,0,4.55-1.47,4.55-3.65v-.05c0-2.37-1.78-3.6-4.45-3.6h-4.2v7.3Z"/><path class="cls-4" d="M338.84,141v-9.65h1.87v9.53c0,3.6,1.88,5.59,5.08,5.59,3,0,5-1.85,5-5.47v-9.65h1.87v9.5c0,4.86-2.77,7.35-6.92,7.35S338.84,145.65,338.84,141Z"/><path class="cls-4" d="M357.09,131.31H359l6,9.05,6.05-9.05H373V147.9H371.1V134.46l-6.05,8.89H365l-6-8.86V147.9h-1.83Z"/><path class="cls-4" d="M377.67,131.31h6.2c3.75,0,6.21,2,6.21,5.26v.05c0,3.58-3,5.43-6.51,5.43h-4v5.85h-1.87Zm6,9c2.75,0,4.55-1.47,4.55-3.65v-.05c0-2.37-1.78-3.6-4.46-3.6h-4.19v7.3Z"/><path class="cls-4" d="M399.87,139.65v0a8.37,8.37,0,0,1,8.39-8.58,8.49,8.49,0,0,1,6.47,2.63L413.46,135a7.21,7.21,0,0,0-5.22-2.27,6.5,6.5,0,0,0-6.42,6.8v.05a6.53,6.53,0,0,0,6.42,6.85,7.2,7.2,0,0,0,5.36-2.4l1.23,1.21a8.66,8.66,0,0,1-6.64,2.92A8.28,8.28,0,0,1,399.87,139.65Z"/><path class="cls-4" d="M417,139.65v0a8.46,8.46,0,1,1,16.92-.05v.05a8.46,8.46,0,1,1-16.92,0Zm15,0v0a6.6,6.6,0,0,0-6.55-6.85,6.51,6.51,0,0,0-6.49,6.8v.05a6.6,6.6,0,0,0,6.54,6.85A6.53,6.53,0,0,0,432,139.65Z"/><path class="cls-4" d="M437.87,131.31h1.75l10.46,13.3v-13.3h1.82V147.9h-1.49l-10.72-13.6v13.6h-1.82Z"/><path class="cls-4" d="M460.91,133h-5.6v-1.73h13.06V133h-5.59V147.9h-1.87Z"/><path class="cls-4" d="M471.79,131.31h7.13a6.54,6.54,0,0,1,4.72,1.66,4.48,4.48,0,0,1,1.28,3.27v0c0,2.75-1.9,4.38-4.51,4.83l5.1,6.78h-2.3l-4.81-6.45h-4.74v6.45h-1.87Zm7,8.46c2.47,0,4.27-1.28,4.27-3.41v-.05c0-2.06-1.56-3.27-4.24-3.27h-5.12v6.73Z"/><path class="cls-4" d="M488.19,139.65v0a8.46,8.46,0,1,1,16.92-.05v.05a8.46,8.46,0,1,1-16.92,0Zm15,0v0a6.6,6.6,0,0,0-6.54-6.85,6.51,6.51,0,0,0-6.5,6.8v.05a6.6,6.6,0,0,0,6.54,6.85A6.52,6.52,0,0,0,503.17,139.65Z"/><path class="cls-4" d="M509.07,131.31h1.87v14.86h9.34v1.73H509.07Z"/><path class="cls-4" d="M523.65,131.31h1.87v14.86h9.34v1.73H523.65Z"/><path class="cls-4" d="M538.22,131.31h12V133H540.1v5.66h9v1.71h-9v5.8h10.24v1.71H538.22Z"/><path class="cls-4" d="M554.1,131.31h7.14A6.5,6.5,0,0,1,566,133a4.48,4.48,0,0,1,1.28,3.27v0c0,2.75-1.89,4.38-4.5,4.83l5.1,6.78h-2.3l-4.81-6.45H556v6.45H554.1Zm7,8.46c2.47,0,4.27-1.28,4.27-3.41v-.05c0-2.06-1.57-3.27-4.24-3.27H556v6.73Z"/><path class="cls-5" d="M8.38,252.7a4.59,4.59,0,0,1-3.13,1,4.64,4.64,0,0,1-3.15-1,3.84,3.84,0,0,1-1.11-3v-6.21h2.2v6.21a4.25,4.25,0,0,0,.07.8,1.64,1.64,0,0,0,.29.69,1.49,1.49,0,0,0,.63.49,2.44,2.44,0,0,0,1.07.19,2.06,2.06,0,0,0,1.62-.52,2.5,2.5,0,0,0,.45-1.65v-6.21h2.2v6.21A3.78,3.78,0,0,1,8.38,252.7Z"/><path class="cls-5" d="M13.87,255.62a2.87,2.87,0,0,1-1.59.38l-.61,0-.61,0v-1.64l.57.06a5.81,5.81,0,0,0,.59,0,.78.78,0,0,0,.58-.31,1,1,0,0,0,.19-.59,1.42,1.42,0,0,0-.08-.45l-2.54-6.79h2.12l1.63,5h0l1.58-5h2.06l-3,8.14A2.48,2.48,0,0,1,13.87,255.62Z"/><path class="cls-5" d="M18.38,248.45a2.27,2.27,0,0,1,.35-1.16,2.3,2.3,0,0,1,.78-.74,3.43,3.43,0,0,1,1.07-.4,6.11,6.11,0,0,1,1.2-.12,8.41,8.41,0,0,1,1.11.08,3.36,3.36,0,0,1,1,.3,2,2,0,0,1,.76.62,1.8,1.8,0,0,1,.29,1.06v3.76a7.07,7.07,0,0,0,.06.94,1.63,1.63,0,0,0,.19.67h-2a3.37,3.37,0,0,1-.1-.34c0-.12,0-.23,0-.36a2.57,2.57,0,0,1-1.12.69,4.53,4.53,0,0,1-1.32.19,3.74,3.74,0,0,1-1-.12,2.2,2.2,0,0,1-.78-.39,2,2,0,0,1-.53-.67,2.43,2.43,0,0,1-.18-1,2.2,2.2,0,0,1,.21-1,1.9,1.9,0,0,1,.56-.63,2.48,2.48,0,0,1,.79-.36,8.79,8.79,0,0,1,.89-.19c.29,0,.59-.08.88-.11a5.13,5.13,0,0,0,.77-.13,1.24,1.24,0,0,0,.53-.24.55.55,0,0,0,.18-.47,1,1,0,0,0-.1-.51.81.81,0,0,0-.28-.3,1.32,1.32,0,0,0-.41-.14,3.84,3.84,0,0,0-.5,0,1.48,1.48,0,0,0-.92.25,1.15,1.15,0,0,0-.39.84ZM23,249.92a.94.94,0,0,1-.31.18l-.41.1-.45.07-.48.07-.44.11a1.35,1.35,0,0,0-.38.19.94.94,0,0,0-.26.3,1.06,1.06,0,0,0-.1.47,1,1,0,0,0,.1.44.84.84,0,0,0,.27.29,1.13,1.13,0,0,0,.39.15,3.42,3.42,0,0,0,.46,0,1.75,1.75,0,0,0,.91-.2,1.28,1.28,0,0,0,.48-.47,1.64,1.64,0,0,0,.19-.55q0-.29,0-.45Z"/><path class="cls-5" d="M28.39,246.22v1.35h0a2.61,2.61,0,0,1,.37-.62,2.55,2.55,0,0,1,.55-.49,2.87,2.87,0,0,1,.66-.32,2.53,2.53,0,0,1,.73-.11,1.42,1.42,0,0,1,.43.07V248l-.33,0a2.55,2.55,0,0,0-.38,0,2.17,2.17,0,0,0-.93.18,1.66,1.66,0,0,0-.61.5,2.12,2.12,0,0,0-.33.73,4.32,4.32,0,0,0-.09.91v3.26h-2v-7.24Z"/><path class="cls-5" d="M34,246.22v7.24H32v-7.24Z"/><path class="cls-5" d="M.8,258.14H4.14a2.39,2.39,0,0,1,1.48.42,1.53,1.53,0,0,1,.56,1.29,1.55,1.55,0,0,1-.26.89,1.73,1.73,0,0,1-.72.57v0a1.51,1.51,0,0,1,1,.6,2,2,0,0,1,.33,1.17,1.86,1.86,0,0,1-.15.75,1.41,1.41,0,0,1-.45.61,2.25,2.25,0,0,1-.79.4A3.84,3.84,0,0,1,4,265H.8ZM2,261H4a1.05,1.05,0,0,0,.72-.25.88.88,0,0,0,.29-.7.93.93,0,0,0-.26-.74,1.19,1.19,0,0,0-.75-.21H2Zm0,3H4.13a1.18,1.18,0,0,0,.85-.28,1.07,1.07,0,0,0,.31-.81,1,1,0,0,0-.31-.78,1.22,1.22,0,0,0-.85-.27H2Z"/><path class="cls-5" d="M11.79,265H10.71v-.69h0a1.53,1.53,0,0,1-.61.6,1.61,1.61,0,0,1-.81.23,1.8,1.8,0,0,1-1.42-.49,2.13,2.13,0,0,1-.44-1.47V260h1.1v3a1.32,1.32,0,0,0,.25.92.91.91,0,0,0,.7.27,1.4,1.4,0,0,0,.58-.1,1.1,1.1,0,0,0,.38-.29,1.14,1.14,0,0,0,.2-.43,2.19,2.19,0,0,0,.07-.53V260h1.09Z"/><path class="cls-5" d="M15.65,258.14h1.1V265h-1.1Z"/><path class="cls-5" d="M20.22,265.15a2.74,2.74,0,0,1-1.06-.2,2.31,2.31,0,0,1-.79-.54,2.37,2.37,0,0,1-.49-.83,3.36,3.36,0,0,1,0-2.11,2.37,2.37,0,0,1,.49-.83,2.31,2.31,0,0,1,.79-.54,2.94,2.94,0,0,1,2.13,0,2.31,2.31,0,0,1,.79.54,2.37,2.37,0,0,1,.49.83,3.36,3.36,0,0,1,0,2.11,2.37,2.37,0,0,1-.49.83,2.31,2.31,0,0,1-.79.54A2.76,2.76,0,0,1,20.22,265.15Zm0-.87a1.29,1.29,0,0,0,.64-.15,1.24,1.24,0,0,0,.44-.41,1.7,1.7,0,0,0,.26-.56,2.56,2.56,0,0,0,0-1.27,1.75,1.75,0,0,0-.26-.57,1.42,1.42,0,0,0-.44-.4,1.42,1.42,0,0,0-1.27,0,1.42,1.42,0,0,0-.44.4,1.75,1.75,0,0,0-.26.57,2.56,2.56,0,0,0,0,1.27,1.7,1.7,0,0,0,.26.56,1.24,1.24,0,0,0,.44.41A1.28,1.28,0,0,0,20.22,264.28Z"/><path class="cls-5" d="M28.25,264.75a2.11,2.11,0,0,1-.63,1.68,2.65,2.65,0,0,1-1.81.56,3.92,3.92,0,0,1-.76-.08,2.29,2.29,0,0,1-.69-.26,1.62,1.62,0,0,1-.53-.48,1.51,1.51,0,0,1-.25-.73h1.1a.9.9,0,0,0,.16.37.89.89,0,0,0,.28.23,1,1,0,0,0,.35.1,2.63,2.63,0,0,0,.41,0,1.28,1.28,0,0,0,1-.33,1.35,1.35,0,0,0,.31-.94v-.76h0a1.71,1.71,0,0,1-.64.64,1.61,1.61,0,0,1-.86.23,2.39,2.39,0,0,1-1-.2,2,2,0,0,1-.7-.57,2.35,2.35,0,0,1-.39-.83,3.68,3.68,0,0,1-.13-1,3,3,0,0,1,.15-1,2.46,2.46,0,0,1,.45-.79,2,2,0,0,1,1.65-.75,1.92,1.92,0,0,1,.87.2,1.41,1.41,0,0,1,.61.62h0V260h1.09Zm-2.43-.6a1.21,1.21,0,0,0,.62-.15,1.12,1.12,0,0,0,.41-.4,1.69,1.69,0,0,0,.23-.55,2.72,2.72,0,0,0,.08-.63,2.51,2.51,0,0,0-.08-.62,1.51,1.51,0,0,0-.24-.53,1.13,1.13,0,0,0-.41-.37,1.31,1.31,0,0,0-.61-.13,1.19,1.19,0,0,0-.62.15,1.27,1.27,0,0,0-.4.4,1.53,1.53,0,0,0-.22.56,2.68,2.68,0,0,0-.07.62,2.35,2.35,0,0,0,.07.6,1.83,1.83,0,0,0,.24.53,1.28,1.28,0,0,0,.4.37A1.16,1.16,0,0,0,25.82,264.15Z"/><path class="cls-5" d="M31.64,265.15a2.71,2.71,0,0,1-1.06-.2,2.21,2.21,0,0,1-1.28-1.37,3.36,3.36,0,0,1,0-2.11,2.21,2.21,0,0,1,1.28-1.37,2.91,2.91,0,0,1,2.12,0,2.14,2.14,0,0,1,.79.54,2.23,2.23,0,0,1,.49.83,3.36,3.36,0,0,1,0,2.11,2.23,2.23,0,0,1-.49.83,2.14,2.14,0,0,1-.79.54A2.71,2.71,0,0,1,31.64,265.15Zm0-.87a1.22,1.22,0,0,0,1.08-.56,1.68,1.68,0,0,0,.25-.56,2.29,2.29,0,0,0,0-1.27,1.73,1.73,0,0,0-.25-.57,1.54,1.54,0,0,0-.44-.4,1.44,1.44,0,0,0-1.28,0,1.68,1.68,0,0,0-.44.4,1.73,1.73,0,0,0-.25.57,2.27,2.27,0,0,0-.08.63,2.29,2.29,0,0,0,.08.64,1.68,1.68,0,0,0,.25.56,1.43,1.43,0,0,0,.44.41A1.32,1.32,0,0,0,31.64,264.28Z"/><path class="cls-5" d="M37,258h1.05l-2.76,7.2h-1Z"/><path class="cls-5" d="M42.62,263.91a.55.55,0,0,0,.06.29.22.22,0,0,0,.2.08H43a.41.41,0,0,0,.15,0V265a.64.64,0,0,1-.15.05l-.18,0-.2,0h-.16a1.08,1.08,0,0,1-.56-.14.67.67,0,0,1-.29-.47,1.87,1.87,0,0,1-.8.46,3,3,0,0,1-.92.15,2.25,2.25,0,0,1-.64-.09,1.66,1.66,0,0,1-.55-.27,1.24,1.24,0,0,1-.37-.45,1.34,1.34,0,0,1-.14-.64,1.56,1.56,0,0,1,.16-.76,1.29,1.29,0,0,1,.45-.45,1.79,1.79,0,0,1,.61-.23,5.5,5.5,0,0,1,.69-.11l.57-.09a2.18,2.18,0,0,0,.48-.08.77.77,0,0,0,.32-.18.49.49,0,0,0,.12-.36.53.53,0,0,0-.1-.34.64.64,0,0,0-.25-.21,1.15,1.15,0,0,0-.33-.1l-.35,0a1.38,1.38,0,0,0-.76.19.74.74,0,0,0-.33.6h-1.1a1.71,1.71,0,0,1,.23-.8,1.69,1.69,0,0,1,.52-.51,2,2,0,0,1,.7-.27,4.45,4.45,0,0,1,.81-.08,3.38,3.38,0,0,1,.72.08,1.9,1.9,0,0,1,.64.25,1.41,1.41,0,0,1,.46.45,1.17,1.17,0,0,1,.17.67Zm-1.09-1.39a1.34,1.34,0,0,1-.62.2,6.09,6.09,0,0,0-.73.1l-.34.08a1,1,0,0,0-.29.15.57.57,0,0,0-.19.24.8.8,0,0,0-.08.36.49.49,0,0,0,.11.31.79.79,0,0,0,.25.19,1.15,1.15,0,0,0,.33.1l.32,0a1.41,1.41,0,0,0,.4,0,1.24,1.24,0,0,0,.4-.16,1.07,1.07,0,0,0,.31-.29.79.79,0,0,0,.13-.44Z"/><path class="cls-5" d="M43.81,260h1v.69h0a2.88,2.88,0,0,1,.27-.34,1.35,1.35,0,0,1,.32-.26,1.52,1.52,0,0,1,.41-.16,1.7,1.7,0,0,1,.53-.07,1.86,1.86,0,0,1,.84.2,1.18,1.18,0,0,1,.55.63,2.21,2.21,0,0,1,.65-.61,1.8,1.8,0,0,1,.91-.22,1.78,1.78,0,0,1,1.23.39,1.63,1.63,0,0,1,.44,1.29V265h-1.1v-2.9c0-.2,0-.38,0-.55a1.08,1.08,0,0,0-.11-.42.59.59,0,0,0-.27-.27,1,1,0,0,0-.5-.1.9.9,0,0,0-.81.35,1.61,1.61,0,0,0-.25,1V265h-1.1v-3.19a1.34,1.34,0,0,0-.19-.79.8.8,0,0,0-.69-.26,1,1,0,0,0-.41.09.91.91,0,0,0-.34.25,1.22,1.22,0,0,0-.24.4,1.55,1.55,0,0,0-.09.55V265h-1.1Z"/><path class="cls-5" d="M52.21,258.14h1.1v2.54h0a1.75,1.75,0,0,1,.28-.33,2.25,2.25,0,0,1,.36-.24,1.56,1.56,0,0,1,.41-.15,1.65,1.65,0,0,1,.43-.06,2.32,2.32,0,0,1,1,.21,2,2,0,0,1,.73.57,2.59,2.59,0,0,1,.44.84,3.77,3.77,0,0,1,.14,1,3.49,3.49,0,0,1-.13,1,2.65,2.65,0,0,1-.39.83,1.87,1.87,0,0,1-.67.58,2,2,0,0,1-1,.22,2.89,2.89,0,0,1-.5,0A1.69,1.69,0,0,1,54,265a1.51,1.51,0,0,1-.42-.25,1.16,1.16,0,0,1-.31-.4h0V265h-1ZM56,262.53a2.82,2.82,0,0,0-.08-.65,2,2,0,0,0-.26-.57,1.38,1.38,0,0,0-.44-.39,1.15,1.15,0,0,0-.59-.15,1.22,1.22,0,0,0-1.05.48,2.16,2.16,0,0,0-.35,1.28,2.63,2.63,0,0,0,.09.7,1.43,1.43,0,0,0,.28.55,1.2,1.2,0,0,0,1,.5,1.22,1.22,0,0,0,.63-.15,1.37,1.37,0,0,0,.43-.4,1.67,1.67,0,0,0,.24-.56A2.73,2.73,0,0,0,56,262.53Z"/><path class="cls-5" d="M58.09,258.14h1.1V265h-1.1Z"/><path class="cls-5" d="M61.24,262.81a2.1,2.1,0,0,0,.08.56,1.51,1.51,0,0,0,.25.47,1.19,1.19,0,0,0,.41.32,1.4,1.4,0,0,0,.6.12,1.35,1.35,0,0,0,.77-.2,1.18,1.18,0,0,0,.44-.63h1a2.16,2.16,0,0,1-.3.73,2,2,0,0,1-.51.53,2.46,2.46,0,0,1-.67.33,2.76,2.76,0,0,1-.77.11,2.79,2.79,0,0,1-1-.19,2.23,2.23,0,0,1-.77-.54,2.33,2.33,0,0,1-.47-.83,3.52,3.52,0,0,1-.16-1.06,3.1,3.1,0,0,1,.17-1,2.54,2.54,0,0,1,.48-.83,2.44,2.44,0,0,1,.76-.58,2.29,2.29,0,0,1,1-.21,2.14,2.14,0,0,1,1.05.25,2.25,2.25,0,0,1,.78.65,2.87,2.87,0,0,1,.45.93,3,3,0,0,1,.07,1.08Zm2.56-.72a1.65,1.65,0,0,0-.11-.5,1.27,1.27,0,0,0-.25-.42,1.19,1.19,0,0,0-.89-.4,1.32,1.32,0,0,0-.53.1,1.26,1.26,0,0,0-.4.28,1.51,1.51,0,0,0-.27.42,1.46,1.46,0,0,0-.11.52Z"/><path class="cls-5" d="M65.74,260h1v.69h0l.27-.34a1.64,1.64,0,0,1,.33-.26,1.45,1.45,0,0,1,.4-.16,1.79,1.79,0,0,1,.53-.07,1.87,1.87,0,0,1,.85.2,1.18,1.18,0,0,1,.55.63,2.21,2.21,0,0,1,.65-.61,1.78,1.78,0,0,1,.91-.22,1.8,1.8,0,0,1,1.23.39,1.63,1.63,0,0,1,.44,1.29V265h-1.1v-2.9c0-.2,0-.38,0-.55a1.08,1.08,0,0,0-.11-.42.57.57,0,0,0-.28-.27,1,1,0,0,0-.5-.1.92.92,0,0,0-.81.35,1.69,1.69,0,0,0-.25,1V265H68.8v-3.19a1.41,1.41,0,0,0-.19-.79.82.82,0,0,0-.69-.26,1,1,0,0,0-.41.09.84.84,0,0,0-.34.25,1.44,1.44,0,0,0-.25.4,1.55,1.55,0,0,0-.09.55V265H65.74Z"/><path class="cls-5" d="M77.73,262.72a1.56,1.56,0,0,0,.13.68,1.19,1.19,0,0,0,.38.45,1.47,1.47,0,0,0,.55.26,2.48,2.48,0,0,0,.68.09,2,2,0,0,0,.68-.1,1.36,1.36,0,0,0,.45-.23,1,1,0,0,0,.25-.33,1.08,1.08,0,0,0,.08-.38.83.83,0,0,0-.18-.59,1.07,1.07,0,0,0-.39-.26,8.75,8.75,0,0,0-.85-.26l-1.2-.31a2.85,2.85,0,0,1-.74-.3,2.16,2.16,0,0,1-.47-.42,1.59,1.59,0,0,1-.24-.49,1.93,1.93,0,0,1-.07-.53,1.81,1.81,0,0,1,.21-.9,2.05,2.05,0,0,1,.58-.63,2.35,2.35,0,0,1,.8-.37,3.63,3.63,0,0,1,.92-.12,3.29,3.29,0,0,1,1,.14,2.37,2.37,0,0,1,.84.42,2,2,0,0,1,.79,1.63H80.73a1.17,1.17,0,0,0-.45-.94,1.81,1.81,0,0,0-1-.27,2.09,2.09,0,0,0-.43,0,1.44,1.44,0,0,0-.41.15.86.86,0,0,0-.3.27.75.75,0,0,0-.12.43.72.72,0,0,0,.23.58,1.5,1.5,0,0,0,.59.31l.3.08.59.16.64.17.45.12a2,2,0,0,1,.59.29,2.09,2.09,0,0,1,.42.42,1.8,1.8,0,0,1,.25.5,2,2,0,0,1,.08.54,1.91,1.91,0,0,1-.24,1,2,2,0,0,1-.62.67,2.74,2.74,0,0,1-.87.38,4.23,4.23,0,0,1-1,.12,3.9,3.9,0,0,1-1.1-.15,2.49,2.49,0,0,1-.91-.44,2.18,2.18,0,0,1-.61-.76,2.42,2.42,0,0,1-.24-1.11Z"/><path class="cls-5" d="M85.31,265.15a2.76,2.76,0,0,1-1.07-.2,2.31,2.31,0,0,1-.79-.54,2.37,2.37,0,0,1-.49-.83,3.36,3.36,0,0,1,0-2.11,2.37,2.37,0,0,1,.49-.83,2.31,2.31,0,0,1,.79-.54,2.94,2.94,0,0,1,2.13,0,2.31,2.31,0,0,1,.79.54,2.37,2.37,0,0,1,.49.83,3.36,3.36,0,0,1,0,2.11,2.37,2.37,0,0,1-.49.83,2.31,2.31,0,0,1-.79.54A2.74,2.74,0,0,1,85.31,265.15Zm0-.87a1.28,1.28,0,0,0,.63-.15,1.24,1.24,0,0,0,.44-.41,1.7,1.7,0,0,0,.26-.56,2.56,2.56,0,0,0,0-1.27,1.75,1.75,0,0,0-.26-.57,1.42,1.42,0,0,0-.44-.4,1.42,1.42,0,0,0-1.27,0,1.42,1.42,0,0,0-.44.4,1.75,1.75,0,0,0-.26.57,2.56,2.56,0,0,0,0,1.27,1.7,1.7,0,0,0,.26.56,1.24,1.24,0,0,0,.44.41A1.29,1.29,0,0,0,85.31,264.28Z"/><path class="cls-5" d="M88.76,258.14h1.1V265h-1.1Z"/><path class="cls-5" d="M91.08,258.14h1.1v1h-1.1Zm0,1.9h1.1v5h-1.1Z"/><path class="cls-5" d="M98.06,265H97v-.67h0a1.28,1.28,0,0,1-.64.62,2.14,2.14,0,0,1-.9.19,2.32,2.32,0,0,1-1-.21,2,2,0,0,1-.73-.56,2.39,2.39,0,0,1-.43-.84,3.6,3.6,0,0,1-.15-1.05,3.33,3.33,0,0,1,.18-1.16,2.46,2.46,0,0,1,.49-.81,1.89,1.89,0,0,1,.69-.47,2.22,2.22,0,0,1,.8-.15,2.59,2.59,0,0,1,.47.05,1.53,1.53,0,0,1,.46.14,1.69,1.69,0,0,1,.41.24,1.47,1.47,0,0,1,.31.35h0v-2.54h1.1Zm-3.83-2.43a2.57,2.57,0,0,0,.08.62,1.63,1.63,0,0,0,.25.55,1.34,1.34,0,0,0,.43.39,1.32,1.32,0,0,0,.62.14,1.28,1.28,0,0,0,.63-.15,1.3,1.3,0,0,0,.43-.41,1.91,1.91,0,0,0,.25-.56,2.74,2.74,0,0,0,.08-.64,2,2,0,0,0-.37-1.29,1.22,1.22,0,0,0-1-.46,1.23,1.23,0,0,0-.65.16,1.3,1.3,0,0,0-.43.41,1.77,1.77,0,0,0-.24.58A2.84,2.84,0,0,0,94.23,262.58Z"/><path class="cls-5" d="M102.08,258.14h5v1h-3.74V261h3.46v1h-3.46v2h3.81v1h-5Z"/><path class="cls-5" d="M108,258.14h1.1V265H108Z"/><path class="cls-5" d="M111.17,262.81a2.1,2.1,0,0,0,.08.56,1.51,1.51,0,0,0,.25.47,1.19,1.19,0,0,0,.41.32,1.4,1.4,0,0,0,.6.12,1.35,1.35,0,0,0,.77-.2,1.24,1.24,0,0,0,.44-.63h1a2.16,2.16,0,0,1-.3.73,2,2,0,0,1-.51.53,2.46,2.46,0,0,1-.67.33,2.76,2.76,0,0,1-.77.11,2.79,2.79,0,0,1-1-.19,2.23,2.23,0,0,1-.77-.54,2.33,2.33,0,0,1-.47-.83,3.23,3.23,0,0,1-.16-1.06,3.1,3.1,0,0,1,.17-1,2.54,2.54,0,0,1,.48-.83,2.44,2.44,0,0,1,.76-.58,2.29,2.29,0,0,1,1-.21,2.14,2.14,0,0,1,1,.25,2.34,2.34,0,0,1,.78.65,2.87,2.87,0,0,1,.45.93,3,3,0,0,1,.07,1.08Zm2.56-.72a1.65,1.65,0,0,0-.11-.5,1.27,1.27,0,0,0-.25-.42,1.24,1.24,0,0,0-.39-.29,1.15,1.15,0,0,0-.5-.11,1.32,1.32,0,0,0-.53.1,1.26,1.26,0,0,0-.4.28,1.51,1.51,0,0,0-.27.42,1.46,1.46,0,0,0-.11.52Z"/><path class="cls-5" d="M119,261.7a1,1,0,0,0-.38-.69,1.17,1.17,0,0,0-.76-.24,1.5,1.5,0,0,0-.45.07,1.18,1.18,0,0,0-.45.27,1.61,1.61,0,0,0-.33.55,2.58,2.58,0,0,0-.14.92,3.17,3.17,0,0,0,.07.61,1.61,1.61,0,0,0,.24.55,1.24,1.24,0,0,0,.4.39,1.17,1.17,0,0,0,.61.15,1.12,1.12,0,0,0,.8-.3,1.44,1.44,0,0,0,.39-.83h1.09a2.4,2.4,0,0,1-.73,1.48,2.24,2.24,0,0,1-1.55.52,2.52,2.52,0,0,1-1-.2,2.19,2.19,0,0,1-.76-.54,2.5,2.5,0,0,1-.47-.81,3.4,3.4,0,0,1-.16-1,3.6,3.6,0,0,1,.16-1.05,2.4,2.4,0,0,1,.46-.85,2.21,2.21,0,0,1,.77-.57,2.52,2.52,0,0,1,1.07-.21,3.12,3.12,0,0,1,.82.11,2.4,2.4,0,0,1,.7.34,1.73,1.73,0,0,1,.49.55,1.83,1.83,0,0,1,.23.8Z"/><path class="cls-5" d="M120.52,260h.82v-1.49h1.1V260h1v.82h-1v2.65a2.36,2.36,0,0,0,0,.3.58.58,0,0,0,.06.21.34.34,0,0,0,.16.13.76.76,0,0,0,.29.05h.23a.85.85,0,0,0,.23,0V265l-.35,0a2.17,2.17,0,0,1-.36,0,2.64,2.64,0,0,1-.7-.08.88.88,0,0,1-.41-.24.8.8,0,0,1-.2-.4,2.84,2.84,0,0,1-.07-.55v-2.93h-.82Z"/><path class="cls-5" d="M124.22,260h1v1h0a1.21,1.21,0,0,1,.19-.4,2.23,2.23,0,0,1,.34-.35,1.67,1.67,0,0,1,.43-.25,1.24,1.24,0,0,1,.5-.1H127l.15,0V261l-.24,0-.23,0a1.36,1.36,0,0,0-.53.11,1.5,1.5,0,0,0-.43.33,1.57,1.57,0,0,0-.28.53,2.4,2.4,0,0,0-.11.74V265h-1.1Z"/><path class="cls-5" d="M129.72,265.15a2.71,2.71,0,0,1-1.06-.2,2.14,2.14,0,0,1-.79-.54,2.23,2.23,0,0,1-.49-.83,3.36,3.36,0,0,1,0-2.11,2.23,2.23,0,0,1,.49-.83,2.14,2.14,0,0,1,.79-.54,2.91,2.91,0,0,1,2.12,0,2.21,2.21,0,0,1,1.28,1.37,3.36,3.36,0,0,1,0,2.11,2.21,2.21,0,0,1-1.28,1.37A2.71,2.71,0,0,1,129.72,265.15Zm0-.87a1.28,1.28,0,0,0,.63-.15,1.36,1.36,0,0,0,.45-.41,1.68,1.68,0,0,0,.25-.56,2.29,2.29,0,0,0,.08-.64,2.27,2.27,0,0,0-.08-.63,1.73,1.73,0,0,0-.25-.57,1.58,1.58,0,0,0-.45-.4,1.28,1.28,0,0,0-.63-.15,1.32,1.32,0,0,0-.64.15,1.54,1.54,0,0,0-.44.4,1.73,1.73,0,0,0-.25.57,2.29,2.29,0,0,0,0,1.27,1.68,1.68,0,0,0,.25.56,1.22,1.22,0,0,0,1.08.56Z"/><path class="cls-5" d="M133.15,260h1v.73l0,0a1.76,1.76,0,0,1,.65-.65,1.72,1.72,0,0,1,.89-.24,1.81,1.81,0,0,1,1.29.43,1.59,1.59,0,0,1,.48,1.27V265h-1.1v-3.12a1.38,1.38,0,0,0-.25-.86,1,1,0,0,0-.72-.26,1.12,1.12,0,0,0-.5.1,1.08,1.08,0,0,0-.38.28,1.46,1.46,0,0,0-.33.93V265h-1.09Z"/><path class="cls-5" d="M141.5,258.14h1.21v3.13l3.06-3.13h1.48l-2.75,2.74,2.94,4.13h-1.5l-2.25-3.28-1,1V265H141.5Z"/><path class="cls-5" d="M150.22,265.15a2.71,2.71,0,0,1-1.06-.2,2.21,2.21,0,0,1-1.28-1.37,3.36,3.36,0,0,1,0-2.11,2.21,2.21,0,0,1,1.28-1.37,2.71,2.71,0,0,1,1.06-.2,2.79,2.79,0,0,1,1.07.2,2.31,2.31,0,0,1,.79.54,2.53,2.53,0,0,1,.49.83,3.36,3.36,0,0,1,0,2.11,2.53,2.53,0,0,1-.49.83,2.31,2.31,0,0,1-.79.54A2.79,2.79,0,0,1,150.22,265.15Zm0-.87a1.29,1.29,0,0,0,.64-.15,1.24,1.24,0,0,0,.44-.41,1.7,1.7,0,0,0,.26-.56,2.56,2.56,0,0,0,0-1.27,1.75,1.75,0,0,0-.26-.57,1.42,1.42,0,0,0-.44-.4,1.42,1.42,0,0,0-1.27,0,1.58,1.58,0,0,0-.45.4,1.73,1.73,0,0,0-.25.57,2.27,2.27,0,0,0-.08.63,2.29,2.29,0,0,0,.08.64,1.68,1.68,0,0,0,.25.56,1.36,1.36,0,0,0,.45.41A1.28,1.28,0,0,0,150.22,264.28Z"/><path class="cls-5" d="M153.65,260h1v.73l0,0a1.84,1.84,0,0,1,.65-.65,1.73,1.73,0,0,1,.9-.24,1.85,1.85,0,0,1,1.29.43,1.62,1.62,0,0,1,.47,1.27V265h-1.1v-3.12a1.32,1.32,0,0,0-.25-.86.92.92,0,0,0-.72-.26,1.15,1.15,0,0,0-.5.1,1.17,1.17,0,0,0-.38.28,1.44,1.44,0,0,0-.24.42,1.7,1.7,0,0,0-.08.51V265h-1.1Z"/><path class="cls-5" d="M158.67,260h.83v-1.49h1.1V260h1v.82h-1v2.65a2.63,2.63,0,0,0,0,.3.58.58,0,0,0,.07.21.34.34,0,0,0,.16.13.76.76,0,0,0,.29.05h.23a.91.91,0,0,0,.23,0V265l-.36,0a2,2,0,0,1-.35,0,2.64,2.64,0,0,1-.7-.08.83.83,0,0,1-.41-.24.9.9,0,0,1-.21-.4,4,4,0,0,1-.06-.55v-2.93h-.83Z"/><path class="cls-5" d="M162.38,260h1v1h0a1,1,0,0,1,.19-.4,2.15,2.15,0,0,1,.33-.35,1.73,1.73,0,0,1,.44-.25,1.23,1.23,0,0,1,.49-.1h.27l.15,0V261l-.24,0-.23,0a1.32,1.32,0,0,0-.53.11,1.37,1.37,0,0,0-.43.33,1.58,1.58,0,0,0-.29.53,2.41,2.41,0,0,0-.1.74V265h-1.1Z"/><path class="cls-5" d="M167.88,265.15a2.76,2.76,0,0,1-1.07-.2,2.31,2.31,0,0,1-.79-.54,2.37,2.37,0,0,1-.49-.83,3.36,3.36,0,0,1,0-2.11,2.37,2.37,0,0,1,.49-.83,2.31,2.31,0,0,1,.79-.54,2.94,2.94,0,0,1,2.13,0,2.31,2.31,0,0,1,.79.54,2.37,2.37,0,0,1,.49.83,3.36,3.36,0,0,1,0,2.11,2.37,2.37,0,0,1-.49.83,2.31,2.31,0,0,1-.79.54A2.74,2.74,0,0,1,167.88,265.15Zm0-.87a1.28,1.28,0,0,0,.63-.15,1.24,1.24,0,0,0,.44-.41,1.52,1.52,0,0,0,.26-.56,2.56,2.56,0,0,0,0-1.27,1.56,1.56,0,0,0-.26-.57,1.42,1.42,0,0,0-.44-.4,1.42,1.42,0,0,0-1.27,0,1.42,1.42,0,0,0-.44.4,1.75,1.75,0,0,0-.26.57,2.56,2.56,0,0,0,0,1.27,1.7,1.7,0,0,0,.26.56,1.24,1.24,0,0,0,.44.41A1.29,1.29,0,0,0,167.88,264.28Z"/><path class="cls-5" d="M171.33,258.14h1.1V265h-1.1Z"/><path class="cls-5" d="M175.8,258.14h5.56v1h-2.18V265H178v-5.83H175.8Z"/><path class="cls-5" d="M181.79,262.81a1.77,1.77,0,0,0,.09.56,1.31,1.31,0,0,0,.24.47,1.23,1.23,0,0,0,.42.32,1.32,1.32,0,0,0,.59.12,1.41,1.41,0,0,0,.78-.2,1.3,1.3,0,0,0,.44-.63h1a2.16,2.16,0,0,1-.3.73,2,2,0,0,1-.51.53,2.46,2.46,0,0,1-.67.33,2.88,2.88,0,0,1-.78.11,2.83,2.83,0,0,1-1-.19,2.17,2.17,0,0,1-1.23-1.37,3.23,3.23,0,0,1-.16-1.06,2.86,2.86,0,0,1,.17-1,2.54,2.54,0,0,1,.48-.83,2.52,2.52,0,0,1,.75-.58,2.33,2.33,0,0,1,1-.21,2.16,2.16,0,0,1,1.06.25,2.21,2.21,0,0,1,.77.65,2.52,2.52,0,0,1,.45.93,2.8,2.8,0,0,1,.07,1.08Zm2.57-.72a2,2,0,0,0-.11-.5,1.73,1.73,0,0,0-.25-.42,1.24,1.24,0,0,0-.39-.29,1.19,1.19,0,0,0-.51-.11,1.27,1.27,0,0,0-.52.1,1.15,1.15,0,0,0-.4.28,1.17,1.17,0,0,0-.27.42,1.47,1.47,0,0,0-.12.52Z"/><path class="cls-5" d="M186.32,258.14h1.1v3.91l2-2h1.35l-1.91,1.83,2.09,3.14h-1.34l-1.52-2.41-.65.63V265h-1.1Z"/><path class="cls-5" d="M191.46,260h1v.73l0,0a1.84,1.84,0,0,1,.65-.65,1.73,1.73,0,0,1,.9-.24,1.85,1.85,0,0,1,1.29.43,1.62,1.62,0,0,1,.47,1.27V265h-1.1v-3.12a1.32,1.32,0,0,0-.25-.86.92.92,0,0,0-.72-.26,1.15,1.15,0,0,0-.5.1,1.17,1.17,0,0,0-.38.28,1.44,1.44,0,0,0-.24.42,1.7,1.7,0,0,0-.08.51V265h-1.1Z"/><path class="cls-5" d="M199.27,265.15a2.76,2.76,0,0,1-1.07-.2,2.31,2.31,0,0,1-.79-.54,2.53,2.53,0,0,1-.49-.83,3.36,3.36,0,0,1,0-2.11,2.53,2.53,0,0,1,.49-.83,2.31,2.31,0,0,1,.79-.54,2.94,2.94,0,0,1,2.13,0,2.31,2.31,0,0,1,.79.54,2.37,2.37,0,0,1,.49.83,3.36,3.36,0,0,1,0,2.11,2.37,2.37,0,0,1-.49.83,2.31,2.31,0,0,1-.79.54A2.74,2.74,0,0,1,199.27,265.15Zm0-.87a1.28,1.28,0,0,0,.63-.15,1.24,1.24,0,0,0,.44-.41,1.7,1.7,0,0,0,.26-.56,2.56,2.56,0,0,0,0-1.27,1.75,1.75,0,0,0-.26-.57,1.42,1.42,0,0,0-.44-.4,1.42,1.42,0,0,0-1.27,0,1.42,1.42,0,0,0-.44.4,1.75,1.75,0,0,0-.26.57,2.56,2.56,0,0,0,0,1.27,1.7,1.7,0,0,0,.26.56,1.24,1.24,0,0,0,.44.41A1.29,1.29,0,0,0,199.27,264.28Z"/><path class="cls-5" d="M202.72,258.14h1.1V265h-1.1Z"/><path class="cls-5" d="M207.29,265.15a2.74,2.74,0,0,1-1.06-.2,2.31,2.31,0,0,1-.79-.54,2.37,2.37,0,0,1-.49-.83,3.36,3.36,0,0,1,0-2.11,2.37,2.37,0,0,1,.49-.83,2.31,2.31,0,0,1,.79-.54,2.94,2.94,0,0,1,2.13,0,2.31,2.31,0,0,1,.79.54,2.37,2.37,0,0,1,.49.83,3.36,3.36,0,0,1,0,2.11,2.37,2.37,0,0,1-.49.83,2.31,2.31,0,0,1-.79.54A2.76,2.76,0,0,1,207.29,265.15Zm0-.87a1.29,1.29,0,0,0,.64-.15,1.24,1.24,0,0,0,.44-.41,1.7,1.7,0,0,0,.26-.56,2.56,2.56,0,0,0,0-1.27,1.75,1.75,0,0,0-.26-.57,1.42,1.42,0,0,0-.44-.4,1.42,1.42,0,0,0-1.27,0,1.42,1.42,0,0,0-.44.4,1.75,1.75,0,0,0-.26.57,2.56,2.56,0,0,0,0,1.27,1.7,1.7,0,0,0,.26.56,1.24,1.24,0,0,0,.44.41A1.28,1.28,0,0,0,207.29,264.28Z"/><path class="cls-5" d="M210.75,260h1.1v5.4a1.76,1.76,0,0,1-.33,1.14,1.33,1.33,0,0,1-1.1.41h-.27l-.22,0v-.87l.2,0h.18c.2,0,.32-.06.37-.18a1.56,1.56,0,0,0,.07-.55Zm0-1.9h1.1v1h-1.1Z"/><path class="cls-5" d="M213.07,258.14h1.1v1h-1.1Zm0,1.9h1.1v5h-1.1Z"/><path class="cls-5" d="M215.39,258.14h1.1V265h-1.1Z"/><path class="cls-5" d="M218.54,262.81a1.77,1.77,0,0,0,.08.56,1.33,1.33,0,0,0,.25.47,1.11,1.11,0,0,0,.41.32,1.37,1.37,0,0,0,.6.12,1.35,1.35,0,0,0,.77-.2,1.24,1.24,0,0,0,.44-.63h1a2.16,2.16,0,0,1-.3.73,2,2,0,0,1-.51.53,2.46,2.46,0,0,1-.67.33,2.81,2.81,0,0,1-.77.11,2.76,2.76,0,0,1-1-.19,2.14,2.14,0,0,1-.77-.54,2.33,2.33,0,0,1-.47-.83,3.23,3.23,0,0,1-.16-1.06,3.1,3.1,0,0,1,.17-1,2.54,2.54,0,0,1,.48-.83,2.44,2.44,0,0,1,.76-.58,2.26,2.26,0,0,1,1-.21,2.14,2.14,0,0,1,1.05.25,2.34,2.34,0,0,1,.78.65,2.66,2.66,0,0,1,.44.93,2.8,2.8,0,0,1,.08,1.08Zm2.56-.72a2,2,0,0,0-.11-.5,1.46,1.46,0,0,0-.25-.42,1.24,1.24,0,0,0-.39-.29,1.18,1.18,0,0,0-.5-.11,1.29,1.29,0,0,0-.53.1,1.26,1.26,0,0,0-.4.28,1.51,1.51,0,0,0-.27.42,1.27,1.27,0,0,0-.11.52Z"/><path class="cls-5" d="M223,260h1v1h0a1.21,1.21,0,0,1,.19-.4,2.23,2.23,0,0,1,.34-.35A1.67,1.67,0,0,1,225,260a1.27,1.27,0,0,1,.5-.1h.26l.15,0V261l-.24,0-.23,0a1.36,1.36,0,0,0-.53.11,1.34,1.34,0,0,0-.42.33,1.42,1.42,0,0,0-.29.53,2.4,2.4,0,0,0-.11.74V265H223Z"/><path class="cls-5" d="M226.45,258.14h1.1v1h-1.1Zm0,1.9h1.1v5h-1.1Z"/><path class="cls-5" d="M232.36,262.72a1.55,1.55,0,0,0,.14.68,1.08,1.08,0,0,0,.37.45,1.55,1.55,0,0,0,.55.26,2.48,2.48,0,0,0,.68.09,2,2,0,0,0,.68-.1,1.36,1.36,0,0,0,.45-.23,1,1,0,0,0,.25-.33,1.08,1.08,0,0,0,.08-.38.83.83,0,0,0-.18-.59,1.07,1.07,0,0,0-.39-.26,8.75,8.75,0,0,0-.85-.26l-1.2-.31a2.85,2.85,0,0,1-.74-.3,2.16,2.16,0,0,1-.47-.42,1.59,1.59,0,0,1-.24-.49,1.93,1.93,0,0,1-.07-.53,1.81,1.81,0,0,1,.21-.9,2.05,2.05,0,0,1,.58-.63,2.35,2.35,0,0,1,.8-.37,3.63,3.63,0,0,1,.92-.12,3.4,3.4,0,0,1,1,.14,2.41,2.41,0,0,1,.83.42,2.12,2.12,0,0,1,.58.68,2.08,2.08,0,0,1,.21.95h-1.21a1.17,1.17,0,0,0-.45-.94,1.81,1.81,0,0,0-1-.27,2.15,2.15,0,0,0-.43,0,1.44,1.44,0,0,0-.41.15.86.86,0,0,0-.3.27.84.84,0,0,0,.11,1,1.5,1.5,0,0,0,.59.31l.3.08.59.16.64.17.45.12a2,2,0,0,1,.59.29,1.68,1.68,0,0,1,.42.42,1.8,1.8,0,0,1,.25.5,2,2,0,0,1,.08.54,1.91,1.91,0,0,1-.24,1,2,2,0,0,1-.62.67,2.74,2.74,0,0,1-.87.38,4.21,4.21,0,0,1-1,.12,4,4,0,0,1-1.11-.15,2.49,2.49,0,0,1-.91-.44,2.18,2.18,0,0,1-.61-.76,2.42,2.42,0,0,1-.24-1.11Z"/><path class="cls-5" d="M241.82,263.91a.55.55,0,0,0,.06.29.22.22,0,0,0,.2.08h.12a.44.44,0,0,0,.15,0V265l-.15.05-.19,0-.19,0h-.16a1.06,1.06,0,0,1-.56-.14.67.67,0,0,1-.29-.47,1.87,1.87,0,0,1-.8.46,3.1,3.1,0,0,1-.92.15,2.32,2.32,0,0,1-.65-.09,1.71,1.71,0,0,1-.54-.27,1.38,1.38,0,0,1-.38-.45,1.47,1.47,0,0,1-.14-.64,1.55,1.55,0,0,1,.17-.76,1.29,1.29,0,0,1,.45-.45,1.72,1.72,0,0,1,.61-.23,5.5,5.5,0,0,1,.69-.11l.57-.09a2,2,0,0,0,.47-.08.75.75,0,0,0,.33-.18.49.49,0,0,0,.12-.36.53.53,0,0,0-.1-.34.72.72,0,0,0-.25-.21,1.15,1.15,0,0,0-.33-.1l-.35,0a1.36,1.36,0,0,0-.76.19.74.74,0,0,0-.33.6h-1.1a1.61,1.61,0,0,1,.23-.8,1.65,1.65,0,0,1,.51-.51A2.09,2.09,0,0,1,239,260a4.28,4.28,0,0,1,.81-.08,3.53,3.53,0,0,1,.72.08,1.9,1.9,0,0,1,.64.25,1.41,1.41,0,0,1,.46.45,1.26,1.26,0,0,1,.17.67Zm-1.09-1.39a1.34,1.34,0,0,1-.62.2,6.09,6.09,0,0,0-.73.1l-.34.08a.89.89,0,0,0-.29.15.68.68,0,0,0-.2.24,1,1,0,0,0-.07.36.49.49,0,0,0,.11.31.79.79,0,0,0,.25.19,1.15,1.15,0,0,0,.33.1l.32,0a1.41,1.41,0,0,0,.4,0,1.24,1.24,0,0,0,.4-.16,1.07,1.07,0,0,0,.31-.29.79.79,0,0,0,.13-.44Z"/><path class="cls-5" d="M243,260h1v.73l0,0a1.76,1.76,0,0,1,.65-.65,1.73,1.73,0,0,1,.9-.24,1.85,1.85,0,0,1,1.29.43,1.62,1.62,0,0,1,.47,1.27V265h-1.1v-3.12A1.38,1.38,0,0,0,246,261a.93.93,0,0,0-.72-.26,1.12,1.12,0,0,0-.5.1,1.08,1.08,0,0,0-.38.28,1.46,1.46,0,0,0-.33.93V265H243Z"/><path class="cls-5" d="M248.62,263.71H250V265h-1.34Z"/><path class="cls-5" d="M253.39,260h1.2l1.26,3.82h0l1.21-3.82h1.14l-1.79,5H255.2Z"/><path class="cls-5" d="M259.74,262.81a1.77,1.77,0,0,0,.08.56,1.49,1.49,0,0,0,.24.47,1.23,1.23,0,0,0,.42.32,1.34,1.34,0,0,0,.6.12,1.37,1.37,0,0,0,.77-.2,1.3,1.3,0,0,0,.44-.63h1a2.16,2.16,0,0,1-.3.73,2,2,0,0,1-.51.53,2.46,2.46,0,0,1-.67.33,2.87,2.87,0,0,1-.77.11,2.76,2.76,0,0,1-1-.19,2.14,2.14,0,0,1-.77-.54,2.19,2.19,0,0,1-.47-.83,3.23,3.23,0,0,1-.16-1.06,3.1,3.1,0,0,1,.17-1,2.54,2.54,0,0,1,.48-.83,2.52,2.52,0,0,1,.75-.58,2.34,2.34,0,0,1,1-.21,2.14,2.14,0,0,1,1.05.25,2.34,2.34,0,0,1,.78.65,2.66,2.66,0,0,1,.44.93,2.61,2.61,0,0,1,.07,1.08Zm2.56-.72a2,2,0,0,0-.11-.5,1.46,1.46,0,0,0-.25-.42,1.24,1.24,0,0,0-.39-.29,1.18,1.18,0,0,0-.5-.11,1.29,1.29,0,0,0-.53.1,1.15,1.15,0,0,0-.4.28,1.32,1.32,0,0,0-.27.42,1.27,1.27,0,0,0-.11.52Z"/><path class="cls-5" d="M266.41,258.14H272v1h-2.18V265h-1.21v-5.83h-2.17Z"/><path class="cls-5" d="M272.65,258.14h1.09v1h-1.09Zm0,1.9h1.09v5h-1.09Z"/><path class="cls-5" d="M278.3,261.7a1,1,0,0,0-.38-.69,1.17,1.17,0,0,0-.76-.24,1.5,1.5,0,0,0-.45.07,1.18,1.18,0,0,0-.45.27,1.61,1.61,0,0,0-.33.55,2.76,2.76,0,0,0-.06,1.53,1.43,1.43,0,0,0,.23.55,1.24,1.24,0,0,0,.4.39,1.17,1.17,0,0,0,.61.15,1.12,1.12,0,0,0,.8-.3,1.44,1.44,0,0,0,.39-.83h1.09a2.4,2.4,0,0,1-.73,1.48,2.24,2.24,0,0,1-1.55.52,2.56,2.56,0,0,1-1-.2,2.19,2.19,0,0,1-.76-.54,2.5,2.5,0,0,1-.47-.81,3.4,3.4,0,0,1-.15-1,3.6,3.6,0,0,1,.15-1.05,2.4,2.4,0,0,1,.46-.85,2.21,2.21,0,0,1,.77-.57,2.52,2.52,0,0,1,1.07-.21,3.12,3.12,0,0,1,.82.11,2.4,2.4,0,0,1,.7.34,1.73,1.73,0,0,1,.49.55,1.83,1.83,0,0,1,.23.8Z"/><path class="cls-5" d="M280.38,263.71h1.33V265h-1.33Z"/><path class="cls-5" d="M287.63,258.14h1.28l2.65,6.87h-1.29l-.64-1.82h-2.75l-.64,1.82H285Zm-.42,4.14h2.1l-1-3h0Z"/><path class="cls-5" d="M292.15,263.71h1.34V265h-1.34Z"/><path class="cls-5" d="M295.66,266.55a1.84,1.84,0,0,0,.32.12,1.06,1.06,0,0,0,.31,0l.2,0,.19-.05a.33.33,0,0,0,.14-.12.35.35,0,0,0,.05-.21.29.29,0,0,0-.14-.27.53.53,0,0,0-.3-.09.75.75,0,0,0-.37.09l-.22-.18.54-.72a3.51,3.51,0,0,1-.58-.1,2,2,0,0,1-.69-.32,1.42,1.42,0,0,1-.46-.54,1.53,1.53,0,0,1-.18-.76h1.09a.85.85,0,0,0,.37.67,1.43,1.43,0,0,0,.76.19l.35,0a2,2,0,0,0,.37-.09.75.75,0,0,0,.29-.2.53.53,0,0,0,.1-.34.5.5,0,0,0-.16-.35,1.1,1.1,0,0,0-.37-.22,3.15,3.15,0,0,0-.51-.13l-.59-.13a5.69,5.69,0,0,1-.59-.16,2,2,0,0,1-.51-.26,1.22,1.22,0,0,1-.36-.42,1.33,1.33,0,0,1-.14-.63,1.14,1.14,0,0,1,.2-.68,1.52,1.52,0,0,1,.5-.44A1.9,1.9,0,0,1,296,260a4.37,4.37,0,0,1,.7-.07,3.57,3.57,0,0,1,.74.08,2.22,2.22,0,0,1,.63.27,1.57,1.57,0,0,1,.48.48,1.65,1.65,0,0,1,.23.7h-1.14a.71.71,0,0,0-.36-.53,1.51,1.51,0,0,0-.65-.13l-.28,0a1.63,1.63,0,0,0-.3.07.76.76,0,0,0-.23.15.36.36,0,0,0-.1.27.45.45,0,0,0,.14.33,1.08,1.08,0,0,0,.37.2,3.12,3.12,0,0,0,.51.14l.6.13c.2,0,.39.1.59.16a2,2,0,0,1,.51.26,1.37,1.37,0,0,1,.37.42,1.25,1.25,0,0,1,.14.61,1.28,1.28,0,0,1-.21.75,1.55,1.55,0,0,1-.52.5,2.51,2.51,0,0,1-.72.28,3.19,3.19,0,0,1-.61.08l-.34.44h0l.13,0h.19a.92.92,0,0,1,.28.05.84.84,0,0,1,.27.13.87.87,0,0,1,.19.23.62.62,0,0,1,.07.31.77.77,0,0,1-.1.42.75.75,0,0,1-.27.26,1.38,1.38,0,0,1-.37.16,2,2,0,0,1-.42.05,2.87,2.87,0,0,1-.52-.05,1.63,1.63,0,0,1-.47-.17Z"/><path class="cls-5" d="M299.82,263.71h1.34V265h-1.34Z"/><path class="cls-5" d="M302.57,260.3a.58.58,0,0,0,.47-.3,1.25,1.25,0,0,0,.12-.56h-.59v-1.3h1.21v1.3a1.43,1.43,0,0,1-.33.95,1.36,1.36,0,0,1-.88.47Z"/><path class="cls-5" d="M304.54,260h1.2l1.3,3.71h0l1.26-3.71h1.14l-1.93,5.24c-.09.23-.18.44-.27.65a2.38,2.38,0,0,1-.31.54,1.46,1.46,0,0,1-.47.38,1.63,1.63,0,0,1-.71.14,4.77,4.77,0,0,1-.76-.06V266l.26,0,.26,0a.69.69,0,0,0,.31-.05.44.44,0,0,0,.21-.13,1,1,0,0,0,.14-.22,1.6,1.6,0,0,0,.11-.29l.12-.39Z"/><path class="cls-5" d="M310.94,262.81a1.77,1.77,0,0,0,.08.56,1.49,1.49,0,0,0,.24.47,1.23,1.23,0,0,0,.42.32,1.57,1.57,0,0,0,1.37-.08,1.24,1.24,0,0,0,.44-.63h1a2.16,2.16,0,0,1-.3.73,2,2,0,0,1-.51.53,2.46,2.46,0,0,1-.67.33,2.87,2.87,0,0,1-.77.11,2.76,2.76,0,0,1-1-.19,2.14,2.14,0,0,1-.77-.54,2.19,2.19,0,0,1-.47-.83,3.23,3.23,0,0,1-.16-1.06,3.1,3.1,0,0,1,.17-1,2.54,2.54,0,0,1,.48-.83,2.44,2.44,0,0,1,.76-.58,2.26,2.26,0,0,1,1-.21,2.14,2.14,0,0,1,1.05.25,2.34,2.34,0,0,1,.78.65,2.66,2.66,0,0,1,.44.93,2.8,2.8,0,0,1,.08,1.08Zm2.56-.72a1.65,1.65,0,0,0-.11-.5,1.46,1.46,0,0,0-.25-.42,1.24,1.24,0,0,0-.39-.29,1.18,1.18,0,0,0-.5-.11,1.29,1.29,0,0,0-.53.1,1.15,1.15,0,0,0-.4.28,1.51,1.51,0,0,0-.27.42,1.27,1.27,0,0,0-.11.52Z"/><path class="cls-5" d="M317.56,260h1.2l1.3,3.71h0l1.26-3.71h1.15l-1.94,5.24c-.09.23-.17.44-.26.65a2.41,2.41,0,0,1-.32.54,1.36,1.36,0,0,1-.47.38,1.6,1.6,0,0,1-.71.14,4.87,4.87,0,0,1-.76-.06V266l.26,0,.26,0a.74.74,0,0,0,.32-.05.57.57,0,0,0,.21-.13,1.64,1.64,0,0,0,.14-.22c0-.08.07-.18.1-.29l.13-.39Z"/><path class="cls-5" d="M324,262.81a2.1,2.1,0,0,0,.08.56,1.51,1.51,0,0,0,.25.47,1.3,1.3,0,0,0,.41.32,1.4,1.4,0,0,0,.6.12,1.35,1.35,0,0,0,.77-.2,1.18,1.18,0,0,0,.44-.63h1a2.16,2.16,0,0,1-.3.73,2,2,0,0,1-.51.53,2.46,2.46,0,0,1-.67.33,2.76,2.76,0,0,1-.77.11,2.79,2.79,0,0,1-1-.19,2.23,2.23,0,0,1-.77-.54,2.49,2.49,0,0,1-.47-.83,3.52,3.52,0,0,1-.16-1.06,3.1,3.1,0,0,1,.17-1,2.54,2.54,0,0,1,.48-.83,2.44,2.44,0,0,1,.76-.58,2.29,2.29,0,0,1,1-.21,2.14,2.14,0,0,1,1.05.25,2.25,2.25,0,0,1,.78.65,2.87,2.87,0,0,1,.45.93,3,3,0,0,1,.07,1.08Zm2.56-.72a1.65,1.65,0,0,0-.11-.5,1.27,1.27,0,0,0-.25-.42,1.2,1.2,0,0,0-.38-.29,1.32,1.32,0,0,0-1,0,1.2,1.2,0,0,0-.41.28,1.51,1.51,0,0,0-.27.42,1.46,1.46,0,0,0-.11.52Z"/><path class="cls-5" d="M328,260h.82v-1.49h1.1V260h1v.82h-1v2.65a2.36,2.36,0,0,0,0,.3.58.58,0,0,0,.06.21.34.34,0,0,0,.16.13.76.76,0,0,0,.29.05h.23a.85.85,0,0,0,.23,0V265l-.35,0a2.17,2.17,0,0,1-.36,0,2.64,2.64,0,0,1-.7-.08.88.88,0,0,1-.41-.24.8.8,0,0,1-.2-.4,2.84,2.84,0,0,1-.07-.55v-2.93H328Z"/><path class="cls-5" d="M331.69,258.14h1.1v3.91l2-2h1.35l-1.91,1.83L336.3,265H335l-1.52-2.41-.65.63V265h-1.1Z"/><path class="cls-5" d="M336.86,258.14H338v1h-1.1Zm0,1.9H338v5h-1.1Z"/><path class="cls-5" d="M339.18,258.14h1.1V265h-1.1Z"/><path class="cls-5" d="M341.5,258.14h1.1v1h-1.1Zm0,1.9h1.1v5h-1.1Z"/><path class="cls-5" d="M346.5,258.14h1.09v3.91l2-2h1.34l-1.9,1.83,2.09,3.14h-1.34l-1.52-2.41-.66.63V265H346.5Z"/><path class="cls-5" d="M356,265h-1.08v-.69h0a1.57,1.57,0,0,1-.6.6,1.67,1.67,0,0,1-.82.23,1.83,1.83,0,0,1-1.42-.49,2.13,2.13,0,0,1-.43-1.47V260h1.09v3a1.37,1.37,0,0,0,.25.92.92.92,0,0,0,.71.27,1.35,1.35,0,0,0,.57-.1,1,1,0,0,0,.38-.29,1.15,1.15,0,0,0,.21-.43,2.2,2.2,0,0,0,.06-.53V260H356Z"/><path class="cls-5" d="M357.16,260h1v1h0a1,1,0,0,1,.19-.4,2.15,2.15,0,0,1,.33-.35,1.92,1.92,0,0,1,.44-.25,1.23,1.23,0,0,1,.49-.1h.27l.15,0V261l-.24,0-.23,0a1.36,1.36,0,0,0-.53.11,1.37,1.37,0,0,0-.43.33,1.58,1.58,0,0,0-.29.53,2.41,2.41,0,0,0-.1.74V265h-1.1Z"/><path class="cls-5" d="M364.92,265h-1.08v-.69h0a1.45,1.45,0,0,1-.6.6,1.66,1.66,0,0,1-.81.23,1.8,1.8,0,0,1-1.42-.49,2.13,2.13,0,0,1-.44-1.47V260h1.1v3a1.32,1.32,0,0,0,.25.92.9.9,0,0,0,.7.27,1.44,1.44,0,0,0,.58-.1,1,1,0,0,0,.37-.29,1,1,0,0,0,.21-.43,2.2,2.2,0,0,0,.06-.53V260h1.1Z"/><path class="cls-5" d="M366.07,260h1v.69h0l.27-.34a1.64,1.64,0,0,1,.33-.26,1.45,1.45,0,0,1,.4-.16,1.74,1.74,0,0,1,.53-.07,1.9,1.9,0,0,1,.85.2,1.18,1.18,0,0,1,.55.63,2.17,2.17,0,0,1,.64-.61,1.84,1.84,0,0,1,.92-.22,1.81,1.81,0,0,1,1.23.39,1.63,1.63,0,0,1,.43,1.29V265H372.2v-2.9c0-.2,0-.38,0-.55a1.29,1.29,0,0,0-.11-.42.61.61,0,0,0-.28-.27,1,1,0,0,0-.5-.1.92.92,0,0,0-.81.35,1.69,1.69,0,0,0-.25,1V265h-1.09v-3.19A1.41,1.41,0,0,0,369,261a.82.82,0,0,0-.69-.26,1,1,0,0,0-.41.09.94.94,0,0,0-.35.25,1.22,1.22,0,0,0-.24.4,1.55,1.55,0,0,0-.09.55V265h-1.1Z"/><path class="cls-5" d="M376.62,260h.83v-1.49h1.1V260h1v.82h-1v2.65a2.63,2.63,0,0,0,0,.3.58.58,0,0,0,.07.21.34.34,0,0,0,.16.13.76.76,0,0,0,.29.05h.23a.91.91,0,0,0,.23,0V265l-.35,0a2.17,2.17,0,0,1-.36,0,2.64,2.64,0,0,1-.7-.08.83.83,0,0,1-.41-.24.9.9,0,0,1-.21-.4,4,4,0,0,1-.06-.55v-2.93h-.83Z"/><path class="cls-5" d="M384.5,263.91a.69.69,0,0,0,.05.29.26.26,0,0,0,.21.08h.11a.47.47,0,0,0,.16,0V265l-.15.05-.19,0-.19,0h-.17a1,1,0,0,1-.55-.14.64.64,0,0,1-.29-.47,1.91,1.91,0,0,1-.81.46,3,3,0,0,1-.92.15,2.3,2.3,0,0,1-.64-.09,1.61,1.61,0,0,1-.54-.27,1.27,1.27,0,0,1-.38-.45,1.47,1.47,0,0,1-.14-.64,1.55,1.55,0,0,1,.17-.76,1.27,1.27,0,0,1,.44-.45,1.85,1.85,0,0,1,.62-.23,5.5,5.5,0,0,1,.69-.11l.56-.09A2.18,2.18,0,0,0,383,262a.75.75,0,0,0,.33-.18.49.49,0,0,0,.12-.36.53.53,0,0,0-.1-.34.72.72,0,0,0-.25-.21,1.15,1.15,0,0,0-.33-.1l-.35,0a1.36,1.36,0,0,0-.76.19.77.77,0,0,0-.34.6h-1.1a1.61,1.61,0,0,1,.24-.8,1.55,1.55,0,0,1,.51-.51,2,2,0,0,1,.71-.27,4.28,4.28,0,0,1,.81-.08,3.53,3.53,0,0,1,.72.08,1.9,1.9,0,0,1,.64.25,1.41,1.41,0,0,1,.46.45,1.26,1.26,0,0,1,.17.67Zm-1.1-1.39a1.3,1.3,0,0,1-.61.2,6.26,6.26,0,0,0-.74.1l-.33.08a.89.89,0,0,0-.29.15.59.59,0,0,0-.2.24.8.8,0,0,0-.07.36.48.48,0,0,0,.1.31.83.83,0,0,0,.26.19,1.15,1.15,0,0,0,.33.1l.32,0a1.39,1.39,0,0,0,.39,0,1.09,1.09,0,0,0,.4-.16,1.11,1.11,0,0,0,.32-.29.78.78,0,0,0,.12-.44Z"/><path class="cls-5" d="M385.68,260h1v1h0a1.21,1.21,0,0,1,.19-.4,1.86,1.86,0,0,1,.34-.35,1.67,1.67,0,0,1,.43-.25,1.24,1.24,0,0,1,.5-.1h.26l.15,0V261l-.24,0-.23,0a1.36,1.36,0,0,0-.53.11,1.5,1.5,0,0,0-.43.33,1.57,1.57,0,0,0-.28.53,2.13,2.13,0,0,0-.11.74V265h-1.1Z"/><path class="cls-5" d="M393.24,263.91a.69.69,0,0,0,.05.29.26.26,0,0,0,.21.08h.11a.47.47,0,0,0,.16,0V265l-.15.05-.19,0-.19,0h-.16a1.06,1.06,0,0,1-.56-.14.64.64,0,0,1-.29-.47,1.91,1.91,0,0,1-.81.46,3,3,0,0,1-.92.15,2.3,2.3,0,0,1-.64-.09,1.61,1.61,0,0,1-.54-.27,1.27,1.27,0,0,1-.38-.45,1.47,1.47,0,0,1-.14-.64,1.55,1.55,0,0,1,.17-.76,1.27,1.27,0,0,1,.44-.45,1.85,1.85,0,0,1,.62-.23,5.5,5.5,0,0,1,.69-.11l.57-.09a2.19,2.19,0,0,0,.47-.08.75.75,0,0,0,.33-.18.49.49,0,0,0,.12-.36.53.53,0,0,0-.1-.34.72.72,0,0,0-.25-.21,1.15,1.15,0,0,0-.33-.1l-.35,0a1.36,1.36,0,0,0-.76.19.77.77,0,0,0-.34.6H389a1.61,1.61,0,0,1,.24-.8,1.55,1.55,0,0,1,.51-.51,2,2,0,0,1,.71-.27,4.28,4.28,0,0,1,.81-.08,3.53,3.53,0,0,1,.72.08,1.9,1.9,0,0,1,.64.25,1.41,1.41,0,0,1,.46.45,1.26,1.26,0,0,1,.17.67Zm-1.1-1.39a1.3,1.3,0,0,1-.61.2,6.26,6.26,0,0,0-.74.1l-.33.08a.89.89,0,0,0-.29.15.59.59,0,0,0-.2.24.8.8,0,0,0-.07.36.48.48,0,0,0,.1.31,1,1,0,0,0,.26.19,1.15,1.15,0,0,0,.33.1l.32,0a1.39,1.39,0,0,0,.39,0,1.09,1.09,0,0,0,.4-.16,1.11,1.11,0,0,0,.32-.29.78.78,0,0,0,.12-.44Z"/><path class="cls-5" d="M393.93,260h.82v-.42a2,2,0,0,1,.12-.76.94.94,0,0,1,.3-.45,1.08,1.08,0,0,1,.44-.22,3,3,0,0,1,.52-.05,2.89,2.89,0,0,1,.77.07v.85l-.23,0h-.28a.65.65,0,0,0-.38.1.46.46,0,0,0-.16.42V260h.93v.82h-.93V265h-1.1v-4.15h-.82Z"/><path class="cls-5" d="M397.48,265v-5h1.1v5Z"/><path class="cls-5" d="M399.78,260h1v.73l0,0a1.87,1.87,0,0,1,.66-.65,1.72,1.72,0,0,1,.89-.24,1.81,1.81,0,0,1,1.29.43,1.59,1.59,0,0,1,.48,1.27V265h-1.1v-3.12a1.38,1.38,0,0,0-.25-.86,1,1,0,0,0-.72-.26,1.12,1.12,0,0,0-.5.1,1.08,1.08,0,0,0-.38.28,1.46,1.46,0,0,0-.33.93V265h-1.09Z"/><path class="cls-5" d="M410,265h-1v-.67h0a1.27,1.27,0,0,1-.65.62,2.09,2.09,0,0,1-.89.19,2.4,2.4,0,0,1-1-.21,2,2,0,0,1-.72-.56,2.41,2.41,0,0,1-.44-.84,4,4,0,0,1-.14-1.05,3.33,3.33,0,0,1,.18-1.16,2.31,2.31,0,0,1,.49-.81,1.89,1.89,0,0,1,.69-.47,2.22,2.22,0,0,1,.8-.15,2.59,2.59,0,0,1,.47.05,1.53,1.53,0,0,1,.46.14,1.69,1.69,0,0,1,.41.24,1.47,1.47,0,0,1,.31.35h0v-2.54H410Zm-3.83-2.43a2.15,2.15,0,0,0,.08.62,1.63,1.63,0,0,0,.25.55,1.24,1.24,0,0,0,.43.39,1.31,1.31,0,0,0,.61.14,1.22,1.22,0,0,0,.63-.15,1.33,1.33,0,0,0,.44-.41,1.91,1.91,0,0,0,.25-.56,2.74,2.74,0,0,0,.08-.64,2,2,0,0,0-.37-1.29,1.22,1.22,0,0,0-1-.46,1.23,1.23,0,0,0-.65.16,1.3,1.3,0,0,0-.43.41,1.77,1.77,0,0,0-.24.58A2.84,2.84,0,0,0,406.16,262.58Z"/><path class="cls-5" d="M415.35,263.91a.69.69,0,0,0,0,.29.26.26,0,0,0,.21.08h.11a.47.47,0,0,0,.16,0V265l-.15.05-.19,0-.19,0h-.16a1.06,1.06,0,0,1-.56-.14.64.64,0,0,1-.29-.47,1.93,1.93,0,0,1-.8.46,3.1,3.1,0,0,1-.92.15,2.32,2.32,0,0,1-.65-.09,1.61,1.61,0,0,1-.54-.27,1.27,1.27,0,0,1-.38-.45,1.47,1.47,0,0,1-.14-.64,1.55,1.55,0,0,1,.17-.76,1.27,1.27,0,0,1,.44-.45,1.85,1.85,0,0,1,.62-.23,5.5,5.5,0,0,1,.69-.11l.57-.09a2.09,2.09,0,0,0,.47-.08.75.75,0,0,0,.33-.18.49.49,0,0,0,.12-.36.53.53,0,0,0-.1-.34.72.72,0,0,0-.25-.21,1.15,1.15,0,0,0-.33-.1l-.35,0a1.36,1.36,0,0,0-.76.19.77.77,0,0,0-.34.6h-1.1a1.61,1.61,0,0,1,.24-.8,1.55,1.55,0,0,1,.51-.51,2.09,2.09,0,0,1,.71-.27,4.28,4.28,0,0,1,.81-.08,3.53,3.53,0,0,1,.72.08,1.9,1.9,0,0,1,.64.25,1.41,1.41,0,0,1,.46.45,1.26,1.26,0,0,1,.17.67Zm-1.1-1.39a1.3,1.3,0,0,1-.61.2,6.26,6.26,0,0,0-.74.1l-.33.08a.89.89,0,0,0-.29.15.68.68,0,0,0-.2.24.8.8,0,0,0-.07.36.44.44,0,0,0,.11.31.79.79,0,0,0,.25.19,1.15,1.15,0,0,0,.33.1l.32,0a1.51,1.51,0,0,0,.4,0,1.24,1.24,0,0,0,.71-.45.78.78,0,0,0,.12-.44Z"/><path class="cls-5" d="M416.53,260h1v.73l0,0a1.87,1.87,0,0,1,.66-.65,1.72,1.72,0,0,1,.89-.24,1.81,1.81,0,0,1,1.29.43,1.59,1.59,0,0,1,.47,1.27V265h-1.09v-3.12a1.44,1.44,0,0,0-.25-.86,1,1,0,0,0-.73-.26,1.18,1.18,0,0,0-.5.1,1.13,1.13,0,0,0-.37.28,1.46,1.46,0,0,0-.33.93V265h-1.1Z"/><path class="cls-5" d="M424.23,260h.83v-1.49h1.1V260h1v.82h-1v2.65a2.63,2.63,0,0,0,0,.3.58.58,0,0,0,.07.21.34.34,0,0,0,.16.13.76.76,0,0,0,.29.05h.23a.91.91,0,0,0,.23,0V265l-.36,0a2,2,0,0,1-.35,0,2.64,2.64,0,0,1-.7-.08.83.83,0,0,1-.41-.24.9.9,0,0,1-.21-.4,4,4,0,0,1-.06-.55v-2.93h-.83Z"/><path class="cls-5" d="M428.8,262.81a1.77,1.77,0,0,0,.08.56,1.31,1.31,0,0,0,.24.47,1.23,1.23,0,0,0,.42.32,1.35,1.35,0,0,0,.59.12,1.39,1.39,0,0,0,.78-.2,1.24,1.24,0,0,0,.44-.63h1a2.16,2.16,0,0,1-.3.73,2,2,0,0,1-.51.53,2.46,2.46,0,0,1-.67.33,2.88,2.88,0,0,1-.78.11,2.74,2.74,0,0,1-1-.19,2.14,2.14,0,0,1-.77-.54,2.19,2.19,0,0,1-.47-.83,3.23,3.23,0,0,1-.16-1.06,3.1,3.1,0,0,1,.17-1,2.54,2.54,0,0,1,.48-.83,2.52,2.52,0,0,1,.75-.58,2.34,2.34,0,0,1,1-.21,2.14,2.14,0,0,1,1.05.25,2.21,2.21,0,0,1,.77.65,2.52,2.52,0,0,1,.45.93,2.8,2.8,0,0,1,.08,1.08Zm2.56-.72a2,2,0,0,0-.11-.5,1.46,1.46,0,0,0-.25-.42,1.24,1.24,0,0,0-.39-.29,1.18,1.18,0,0,0-.5-.11,1.29,1.29,0,0,0-.53.1,1.15,1.15,0,0,0-.4.28,1.17,1.17,0,0,0-.27.42,1.27,1.27,0,0,0-.11.52Z"/><path class="cls-5" d="M434.12,263.42a.8.8,0,0,0,.37.67,1.41,1.41,0,0,0,.76.19l.35,0a2.22,2.22,0,0,0,.37-.09.72.72,0,0,0,.28-.2.43.43,0,0,0,.1-.34.45.45,0,0,0-.15-.35,1.21,1.21,0,0,0-.37-.22,3,3,0,0,0-.52-.13l-.58-.13a5.25,5.25,0,0,1-.6-.16,2.45,2.45,0,0,1-.51-.26,1.22,1.22,0,0,1-.36-.42,1.34,1.34,0,0,1-.13-.63,1.08,1.08,0,0,1,.2-.68,1.42,1.42,0,0,1,.5-.44,1.85,1.85,0,0,1,.67-.24,4.49,4.49,0,0,1,.71-.07,3.47,3.47,0,0,1,.73.08,2.17,2.17,0,0,1,.64.27,1.44,1.44,0,0,1,.47.48,1.66,1.66,0,0,1,.24.7h-1.15a.68.68,0,0,0-.36-.53,1.48,1.48,0,0,0-.65-.13l-.27,0a1.32,1.32,0,0,0-.3.07.82.82,0,0,0-.24.15.4.4,0,0,0-.09.27.42.42,0,0,0,.14.33,1,1,0,0,0,.36.2,3,3,0,0,0,.52.14l.59.13a5.69,5.69,0,0,1,.59.16,2.3,2.3,0,0,1,.52.26,1.22,1.22,0,0,1,.36.42,1.25,1.25,0,0,1,.14.61,1.35,1.35,0,0,1-.2.75,1.59,1.59,0,0,1-.53.5,2.34,2.34,0,0,1-.71.28,3.59,3.59,0,0,1-.78.09,3.34,3.34,0,0,1-.87-.11,2.14,2.14,0,0,1-.7-.32,1.51,1.51,0,0,1-.46-.54,1.77,1.77,0,0,1-.18-.76Z"/><path class="cls-5" d="M441.65,261.7a1,1,0,0,0-.37-.69,1.2,1.2,0,0,0-.77-.24,1.5,1.5,0,0,0-.45.07,1.07,1.07,0,0,0-.44.27,1.48,1.48,0,0,0-.34.55,2.76,2.76,0,0,0-.06,1.53,1.6,1.6,0,0,0,.23.55,1.18,1.18,0,0,0,.41.39,1.14,1.14,0,0,0,.6.15,1.12,1.12,0,0,0,.8-.3,1.33,1.33,0,0,0,.39-.83h1.1a2.41,2.41,0,0,1-.74,1.48,2.22,2.22,0,0,1-1.55.52,2.56,2.56,0,0,1-1-.2,2.19,2.19,0,0,1-.76-.54,2.31,2.31,0,0,1-.46-.81,3.11,3.11,0,0,1-.16-1,3.6,3.6,0,0,1,.15-1.05,2.4,2.4,0,0,1,.46-.85,2.21,2.21,0,0,1,.77-.57,2.52,2.52,0,0,1,1.07-.21,3.2,3.2,0,0,1,.83.11,2.34,2.34,0,0,1,.69.34,1.62,1.62,0,0,1,.49.55,2,2,0,0,1,.24.8Z"/><path class="cls-5" d="M443.67,258.14h1.1v1h-1.1Zm0,1.9h1.1v5h-1.1Z"/><path class="cls-5" d="M446,258.14h1.1V265H446Z"/><path class="cls-5" d="M451.81,262.81a2.1,2.1,0,0,0,.08.56,1.51,1.51,0,0,0,.25.47,1.3,1.3,0,0,0,.41.32,1.59,1.59,0,0,0,1.38-.08,1.23,1.23,0,0,0,.43-.63h1a2,2,0,0,1-.29.73,2.18,2.18,0,0,1-.52.53,2.4,2.4,0,0,1-.66.33,2.88,2.88,0,0,1-.78.11,2.79,2.79,0,0,1-1-.19,2.1,2.1,0,0,1-.76-.54,2.35,2.35,0,0,1-.48-.83,3.53,3.53,0,0,1-.15-1.06,3.1,3.1,0,0,1,.16-1,2.76,2.76,0,0,1,.49-.83,2.4,2.4,0,0,1,.75-.58,2.33,2.33,0,0,1,1-.21,2.18,2.18,0,0,1,1.06.25,2.21,2.21,0,0,1,.77.65,2.52,2.52,0,0,1,.45.93,2.8,2.8,0,0,1,.07,1.08Zm2.56-.72a1.65,1.65,0,0,0-.11-.5,1.27,1.27,0,0,0-.25-.42,1.1,1.1,0,0,0-.38-.29,1.19,1.19,0,0,0-.51-.11,1.24,1.24,0,0,0-.52.1,1.3,1.3,0,0,0-.41.28,1.51,1.51,0,0,0-.27.42,1.72,1.72,0,0,0-.11.52Z"/><path class="cls-5" d="M461,265h-1v-.67h0a1.3,1.3,0,0,1-.65.62,2.09,2.09,0,0,1-.89.19,2.37,2.37,0,0,1-1-.21,2,2,0,0,1-.72-.56,2.41,2.41,0,0,1-.44-.84,4,4,0,0,1-.14-1.05,3.33,3.33,0,0,1,.18-1.16,2.17,2.17,0,0,1,.49-.81,1.89,1.89,0,0,1,.69-.47,2.17,2.17,0,0,1,.79-.15,2.61,2.61,0,0,1,.48.05,1.53,1.53,0,0,1,.46.14,1.91,1.91,0,0,1,.41.24,1.47,1.47,0,0,1,.31.35h0v-2.54H461Zm-3.83-2.43a2.15,2.15,0,0,0,.08.62,1.46,1.46,0,0,0,.25.55,1.24,1.24,0,0,0,.43.39,1.28,1.28,0,0,0,.61.14,1.22,1.22,0,0,0,.63-.15,1.33,1.33,0,0,0,.44-.41,1.91,1.91,0,0,0,.25-.56,2.74,2.74,0,0,0,.08-.64,2.06,2.06,0,0,0-.37-1.29,1.23,1.23,0,0,0-1-.46,1.23,1.23,0,0,0-1.08.57,1.77,1.77,0,0,0-.24.58A2.84,2.84,0,0,0,457.17,262.58Z"/><path class="cls-5" d="M462.22,258.14h1.1v1h-1.1Zm0,1.9h1.1v5h-1.1Z"/><path class="cls-5" d="M464.54,258.14h1.1V265h-1.1Z"/><path class="cls-5" d="M466.83,260h1v.69h0a2.88,2.88,0,0,1,.27-.34,1.35,1.35,0,0,1,.32-.26,1.67,1.67,0,0,1,.41-.16,1.7,1.7,0,0,1,.53-.07,1.86,1.86,0,0,1,.84.2,1.18,1.18,0,0,1,.55.63,2.21,2.21,0,0,1,.65-.61,1.8,1.8,0,0,1,.91-.22,1.78,1.78,0,0,1,1.23.39,1.63,1.63,0,0,1,.44,1.29V265H473v-2.9a4.79,4.79,0,0,0,0-.55,1.08,1.08,0,0,0-.11-.42.59.59,0,0,0-.27-.27,1,1,0,0,0-.5-.1.91.91,0,0,0-.81.35,1.61,1.61,0,0,0-.25,1V265h-1.1v-3.19a1.34,1.34,0,0,0-.19-.79.8.8,0,0,0-.69-.26.93.93,0,0,0-.4.09.87.87,0,0,0-.35.25,1.22,1.22,0,0,0-.24.4,1.55,1.55,0,0,0-.09.55V265h-1.1Z"/><path class="cls-5" d="M475.23,258.14h1.1v1h-1.1Zm0,1.9h1.1v5h-1.1Z"/><path class="cls-5" d="M478.45,266.55a1.59,1.59,0,0,0,.32.12,1,1,0,0,0,.3,0l.21,0,.19-.05a.41.41,0,0,0,.14-.12.43.43,0,0,0,.05-.21.31.31,0,0,0-.14-.27.53.53,0,0,0-.3-.09.79.79,0,0,0-.38.09l-.21-.18.54-.72a3.63,3.63,0,0,1-.59-.1,2.19,2.19,0,0,1-.69-.32,1.51,1.51,0,0,1-.46-.54,1.77,1.77,0,0,1-.18-.76h1.1a.83.83,0,0,0,.37.67,1.41,1.41,0,0,0,.76.19l.35,0a2.22,2.22,0,0,0,.37-.09.65.65,0,0,0,.28-.2.43.43,0,0,0,.1-.34.45.45,0,0,0-.15-.35,1.21,1.21,0,0,0-.37-.22,3,3,0,0,0-.52-.13l-.58-.13a4.59,4.59,0,0,1-.59-.16,2,2,0,0,1-.51-.26,1.12,1.12,0,0,1-.36-.42,1.33,1.33,0,0,1-.14-.63,1.14,1.14,0,0,1,.2-.68,1.52,1.52,0,0,1,.5-.44,1.85,1.85,0,0,1,.67-.24,4.49,4.49,0,0,1,.71-.07,3.57,3.57,0,0,1,.74.08,2.22,2.22,0,0,1,.63.27,1.44,1.44,0,0,1,.47.48,1.53,1.53,0,0,1,.24.7h-1.15a.68.68,0,0,0-.36-.53,1.48,1.48,0,0,0-.65-.13l-.27,0a1.32,1.32,0,0,0-.3.07,1,1,0,0,0-.24.15.4.4,0,0,0-.09.27.42.42,0,0,0,.14.33,1,1,0,0,0,.36.2,3.25,3.25,0,0,0,.52.14l.59.13a5.69,5.69,0,0,1,.59.16,2.11,2.11,0,0,1,.52.26,1.22,1.22,0,0,1,.36.42,1.15,1.15,0,0,1,.14.61,1.35,1.35,0,0,1-.2.75,1.65,1.65,0,0,1-.52.5,2.51,2.51,0,0,1-.72.28,3.29,3.29,0,0,1-.62.08l-.33.44h0l.14,0h.18a1,1,0,0,1,.29.05.79.79,0,0,1,.26.13.71.71,0,0,1,.19.23.53.53,0,0,1,.08.31.77.77,0,0,1-.1.42,1,1,0,0,1-.27.26,1.45,1.45,0,0,1-.38.16,1.84,1.84,0,0,1-.41.05,3.07,3.07,0,0,1-.53-.05,1.88,1.88,0,0,1-.47-.17Z"/><path class="cls-5" d="M482,260h.83v-1.49h1.09V260h1v.82h-1v2.65a2.36,2.36,0,0,0,0,.3.44.44,0,0,0,.07.21.28.28,0,0,0,.15.13.79.79,0,0,0,.29.05h.24l.23,0V265l-.36,0a2.11,2.11,0,0,1-.36,0,2.51,2.51,0,0,1-.69-.08.86.86,0,0,1-.42-.24.8.8,0,0,1-.2-.4,2.26,2.26,0,0,1-.06-.55v-2.93H482Z"/><path class="cls-5" d="M485.75,258.14h1.1v1h-1.1Zm0,1.9h1.1v5h-1.1Z"/><path class="cls-5" d="M488,260h1v1h0a1.45,1.45,0,0,1,.19-.4,2.23,2.23,0,0,1,.34-.35,1.73,1.73,0,0,1,.44-.25,1.19,1.19,0,0,1,.49-.1h.26l.15,0V261l-.23,0-.24,0a1.36,1.36,0,0,0-.53.11,1.34,1.34,0,0,0-.42.33,1.58,1.58,0,0,0-.29.53,2.4,2.4,0,0,0-.11.74V265H488Z"/><path class="cls-5" d="M490.63,263.71H492V265h-1.34Z"/><path class="cls-5" d="M2.64,269.69H3.92l2.65,6.88H5.28l-.65-1.82H1.89l-.65,1.82H0Zm-.43,4.14h2.1l-1-2.95h0Z"/><path class="cls-5" d="M7.07,271.59h1v.69h0L8.4,272a1.7,1.7,0,0,1,.33-.27,1.45,1.45,0,0,1,.4-.16,1.81,1.81,0,0,1,.54-.07,1.74,1.74,0,0,1,.84.21,1.12,1.12,0,0,1,.55.62,2.17,2.17,0,0,1,.65-.6,1.68,1.68,0,0,1,.91-.23,1.8,1.8,0,0,1,1.23.39,1.66,1.66,0,0,1,.44,1.29v3.44h-1.1v-2.91c0-.2,0-.38,0-.55a1.08,1.08,0,0,0-.11-.42.57.57,0,0,0-.28-.27,1,1,0,0,0-.5-.1.94.94,0,0,0-.81.35,1.71,1.71,0,0,0-.25,1v2.92H10.13v-3.2a1.36,1.36,0,0,0-.19-.78.8.8,0,0,0-.69-.27,1,1,0,0,0-.41.09.94.94,0,0,0-.34.25,1.44,1.44,0,0,0-.25.4,1.59,1.59,0,0,0-.09.55v3H7.07Z"/><path class="cls-5" d="M19.61,275.46a.69.69,0,0,0,.05.29.23.23,0,0,0,.21.08H20a.47.47,0,0,0,.16,0v.77l-.15,0-.19,0a1.25,1.25,0,0,1-.19,0h-.17a1,1,0,0,1-.55-.13.66.66,0,0,1-.29-.48,1.93,1.93,0,0,1-.81.47,3.32,3.32,0,0,1-.92.14,2.25,2.25,0,0,1-.64-.09,1.52,1.52,0,0,1-.54-.27,1.27,1.27,0,0,1-.38-.45,1.47,1.47,0,0,1-.14-.64,1.49,1.49,0,0,1,.17-.75,1.22,1.22,0,0,1,.44-.46,2,2,0,0,1,.62-.23,5.5,5.5,0,0,1,.69-.11,4,4,0,0,1,.56-.08,2.94,2.94,0,0,0,.48-.09.65.65,0,0,0,.33-.17.51.51,0,0,0,.12-.37.6.6,0,0,0-.1-.34.72.72,0,0,0-.25-.21.9.9,0,0,0-.34-.09l-.34,0a1.45,1.45,0,0,0-.76.19.77.77,0,0,0-.34.6h-1.1a1.71,1.71,0,0,1,.23-.8,1.69,1.69,0,0,1,.52-.51,2,2,0,0,1,.71-.27,4.28,4.28,0,0,1,.81-.08,3.53,3.53,0,0,1,.72.08,2.14,2.14,0,0,1,.64.25,1.38,1.38,0,0,1,.45.45,1.2,1.2,0,0,1,.18.67Zm-1.1-1.39a1.3,1.3,0,0,1-.62.2c-.24,0-.48.06-.73.1l-.33.08a1.13,1.13,0,0,0-.29.15.59.59,0,0,0-.2.24.8.8,0,0,0-.07.36.48.48,0,0,0,.1.31.7.7,0,0,0,.26.19,1.17,1.17,0,0,0,.33.11l.32,0a1.84,1.84,0,0,0,.39,0,1.42,1.42,0,0,0,.4-.17,1,1,0,0,0,.32-.29.78.78,0,0,0,.12-.44Z"/><path class="cls-5" d="M24.15,273.25a1,1,0,0,0-.37-.69,1.19,1.19,0,0,0-.76-.24,2,2,0,0,0-.46.07,1.07,1.07,0,0,0-.44.27,1.62,1.62,0,0,0-.34.55,3.08,3.08,0,0,0-.06,1.54,1.93,1.93,0,0,0,.23.55,1.15,1.15,0,0,0,.41.38,1.17,1.17,0,0,0,.61.15,1.13,1.13,0,0,0,.79-.29,1.38,1.38,0,0,0,.39-.84h1.1a2.41,2.41,0,0,1-.74,1.49,2.25,2.25,0,0,1-1.54.51,2.44,2.44,0,0,1-1-.2,2.07,2.07,0,0,1-.75-.54,2.16,2.16,0,0,1-.47-.81,3,3,0,0,1-.16-1,3.3,3.3,0,0,1,.16-1.05,2.26,2.26,0,0,1,.46-.85,2.17,2.17,0,0,1,.76-.57,2.6,2.6,0,0,1,1.08-.21,3.18,3.18,0,0,1,.82.11,2.22,2.22,0,0,1,.69.34,1.8,1.8,0,0,1,.5.56,1.92,1.92,0,0,1,.23.79Z"/><path class="cls-5" d="M26.17,276.57v-5h1.1v5Z"/><path class="cls-5" d="M35.83,276.57h-1v-.68h0a1.27,1.27,0,0,1-.65.62,2.09,2.09,0,0,1-.89.19,2.4,2.4,0,0,1-1-.21,1.9,1.9,0,0,1-.72-.56,2.59,2.59,0,0,1-.44-.84,3.92,3.92,0,0,1-.14-1,3.41,3.41,0,0,1,.18-1.16,2.31,2.31,0,0,1,.49-.81,1.89,1.89,0,0,1,.69-.47,2.22,2.22,0,0,1,.8-.15,2.59,2.59,0,0,1,.47.05,1.88,1.88,0,0,1,.46.14,1.69,1.69,0,0,1,.41.24,1.47,1.47,0,0,1,.31.35h0v-2.54h1.1ZM32,274.13a2.27,2.27,0,0,0,.08.63,1.83,1.83,0,0,0,.25.55,1.22,1.22,0,0,0,.43.38,1.2,1.2,0,0,0,.61.14,1.22,1.22,0,0,0,.63-.15,1.31,1.31,0,0,0,.44-.4,2.1,2.1,0,0,0,.25-.57,2.74,2.74,0,0,0,.08-.64,2,2,0,0,0-.37-1.29,1.22,1.22,0,0,0-1-.46,1.23,1.23,0,0,0-.65.16,1.4,1.4,0,0,0-.43.41,1.87,1.87,0,0,0-.24.58A3,3,0,0,0,32,274.13Z"/><path class="cls-5" d="M37.05,276.57v-5h1.1v5Z"/><path class="cls-5" d="M40.27,278.11a1.67,1.67,0,0,0,.31.11,1.06,1.06,0,0,0,.31,0h.2a.66.66,0,0,0,.2-.06.53.53,0,0,0,.14-.12.39.39,0,0,0,0-.2.31.31,0,0,0-.14-.28.55.55,0,0,0-.3-.09.67.67,0,0,0-.38.1l-.21-.19.54-.72a5.21,5.21,0,0,1-.59-.09,2.21,2.21,0,0,1-.69-.33,1.51,1.51,0,0,1-.46-.54,1.77,1.77,0,0,1-.18-.76h1.1a.8.8,0,0,0,.37.67,1.41,1.41,0,0,0,.76.19,2,2,0,0,0,.72-.11.72.72,0,0,0,.28-.2.43.43,0,0,0,.1-.34.49.49,0,0,0-.15-.35,1,1,0,0,0-.37-.21,2.3,2.3,0,0,0-.52-.14l-.58-.13a5.25,5.25,0,0,1-.6-.16,2,2,0,0,1-.51-.26,1.22,1.22,0,0,1-.36-.42,1.34,1.34,0,0,1-.13-.63,1.08,1.08,0,0,1,.2-.68,1.42,1.42,0,0,1,.5-.44,2.05,2.05,0,0,1,.67-.24,4.49,4.49,0,0,1,.71-.07,2.92,2.92,0,0,1,.73.09,1.92,1.92,0,0,1,.64.26,1.44,1.44,0,0,1,.47.48,1.66,1.66,0,0,1,.24.7H42.19a.67.67,0,0,0-.36-.52,1.51,1.51,0,0,0-.65-.14l-.27,0a1.32,1.32,0,0,0-.3.07.67.67,0,0,0-.24.16.36.36,0,0,0-.09.26.4.4,0,0,0,.14.33,1.22,1.22,0,0,0,.36.21,3,3,0,0,0,.52.13l.59.13.59.16a2,2,0,0,1,.51.26,1.15,1.15,0,0,1,.37.42,1.25,1.25,0,0,1,.14.61,1.35,1.35,0,0,1-.2.75,1.49,1.49,0,0,1-.53.5,2.11,2.11,0,0,1-.71.28,3.29,3.29,0,0,1-.62.08l-.34.44h0l.14,0h.18a1,1,0,0,1,.29,0,.79.79,0,0,1,.26.13.71.71,0,0,1,.19.23.63.63,0,0,1,.08.32.76.76,0,0,1-.11.41.87.87,0,0,1-.27.27,1.79,1.79,0,0,1-.37.15,2,2,0,0,1-.42,0,3,3,0,0,1-.52,0,1.75,1.75,0,0,1-.47-.17Z"/><path class="cls-5" d="M44.37,276.57v-5h1.09v5Z"/><path class="cls-5" d="M46.66,271.59h1v.73l0,0a1.76,1.76,0,0,1,.65-.65,1.73,1.73,0,0,1,.9-.24,1.89,1.89,0,0,1,1.29.43,1.62,1.62,0,0,1,.47,1.27v3.42h-1.1v-3.13a1.34,1.34,0,0,0-.25-.85.89.89,0,0,0-.72-.27,1.15,1.15,0,0,0-.5.1,1.08,1.08,0,0,0-.38.28,1.46,1.46,0,0,0-.33.93v2.94H46.66Z"/><path class="cls-5" d="M56.87,276.57h-1v-.68h0a1.28,1.28,0,0,1-.64.62,2.14,2.14,0,0,1-.9.19,2.32,2.32,0,0,1-1-.21,1.86,1.86,0,0,1-.73-.56,2.39,2.39,0,0,1-.43-.84,3.55,3.55,0,0,1-.15-1,3.41,3.41,0,0,1,.18-1.16,2.46,2.46,0,0,1,.49-.81,1.89,1.89,0,0,1,.69-.47,2.22,2.22,0,0,1,.8-.15,2.59,2.59,0,0,1,.47.05,1.88,1.88,0,0,1,.46.14,1.52,1.52,0,0,1,.41.24,1.28,1.28,0,0,1,.31.35h0v-2.54h1.1ZM53,274.13a2.72,2.72,0,0,0,.08.63,2.11,2.11,0,0,0,.25.55,1.31,1.31,0,0,0,.43.38,1.21,1.21,0,0,0,.62.14,1.28,1.28,0,0,0,.63-.15,1.37,1.37,0,0,0,.43-.4,1.83,1.83,0,0,0,.25-.57,2.74,2.74,0,0,0,.08-.64,2,2,0,0,0-.37-1.29,1.21,1.21,0,0,0-1-.46,1.18,1.18,0,0,0-.65.16,1.33,1.33,0,0,0-.44.41,1.87,1.87,0,0,0-.24.58A3,3,0,0,0,53,274.13Z"/><path class="cls-5" d="M62.23,275.46a.55.55,0,0,0,.06.29c0,.06.1.08.2.08h.12a.44.44,0,0,0,.15,0v.77l-.15,0-.19,0a1.08,1.08,0,0,1-.19,0h-.16a1.06,1.06,0,0,1-.56-.13.69.69,0,0,1-.29-.48,1.89,1.89,0,0,1-.8.47,3.43,3.43,0,0,1-.92.14,2.32,2.32,0,0,1-.65-.09,1.71,1.71,0,0,1-.54-.27,1.38,1.38,0,0,1-.38-.45,1.47,1.47,0,0,1-.14-.64,1.49,1.49,0,0,1,.17-.75,1.24,1.24,0,0,1,.45-.46,1.93,1.93,0,0,1,.61-.23,5.5,5.5,0,0,1,.69-.11,4.1,4.1,0,0,1,.57-.08,2.62,2.62,0,0,0,.47-.09.65.65,0,0,0,.33-.17.51.51,0,0,0,.12-.37.53.53,0,0,0-.1-.34.72.72,0,0,0-.25-.21.9.9,0,0,0-.33-.09l-.35,0a1.45,1.45,0,0,0-.76.19.74.74,0,0,0-.33.6H58a1.61,1.61,0,0,1,.23-.8,1.55,1.55,0,0,1,.51-.51,2.09,2.09,0,0,1,.71-.27,4.28,4.28,0,0,1,.81-.08,3.53,3.53,0,0,1,.72.08,2.14,2.14,0,0,1,.64.25,1.52,1.52,0,0,1,.46.45,1.28,1.28,0,0,1,.17.67Zm-1.1-1.39a1.26,1.26,0,0,1-.61.2c-.25,0-.49.06-.73.1l-.34.08a1.32,1.32,0,0,0-.29.15.68.68,0,0,0-.2.24,1,1,0,0,0-.07.36.49.49,0,0,0,.11.31.67.67,0,0,0,.25.19,1.17,1.17,0,0,0,.33.11l.32,0a1.94,1.94,0,0,0,.4,0,1.55,1.55,0,0,0,.4-.17,1,1,0,0,0,.31-.29.78.78,0,0,0,.12-.44Z"/><path class="cls-5" d="M65.6,271.59h1.19l1.27,3.82h0l1.21-3.82h1.13l-1.78,5H67.41Z"/><path class="cls-5" d="M71.94,274.36a1.77,1.77,0,0,0,.09.56,1.23,1.23,0,0,0,.24.47,1.12,1.12,0,0,0,.42.32,1.32,1.32,0,0,0,.59.12,1.41,1.41,0,0,0,.78-.2,1.32,1.32,0,0,0,.44-.62h1a2.11,2.11,0,0,1-.3.72,2,2,0,0,1-.51.53,2.1,2.1,0,0,1-.67.33,2.88,2.88,0,0,1-.78.11,2.61,2.61,0,0,1-1-.19A2.17,2.17,0,0,1,71,275.14a3.23,3.23,0,0,1-.16-1.06,2.77,2.77,0,0,1,.17-1,2.49,2.49,0,0,1,.48-.84,2.33,2.33,0,0,1,.75-.57,2.19,2.19,0,0,1,1-.22,2.27,2.27,0,0,1,1.06.25,2.21,2.21,0,0,1,.77.65,2.52,2.52,0,0,1,.45.93,2.8,2.8,0,0,1,.07,1.08Zm2.56-.72a1.45,1.45,0,0,0-.11-.5,1.27,1.27,0,0,0-.25-.42,1.24,1.24,0,0,0-.38-.29,1.19,1.19,0,0,0-.51-.11,1.27,1.27,0,0,0-.52.1,1.15,1.15,0,0,0-.4.28,1.17,1.17,0,0,0-.27.42,1.47,1.47,0,0,0-.12.52Z"/><path class="cls-5" d="M83.28,275.46a.55.55,0,0,0,.06.29c0,.06.1.08.2.08h.12a.39.39,0,0,0,.15,0v.77l-.14,0-.19,0-.2,0h-.16a1.08,1.08,0,0,1-.56-.13.72.72,0,0,1-.29-.48,1.83,1.83,0,0,1-.8.47,3.37,3.37,0,0,1-.92.14,2.25,2.25,0,0,1-.64-.09,1.66,1.66,0,0,1-.55-.27,1.24,1.24,0,0,1-.37-.45,1.34,1.34,0,0,1-.14-.64,1.39,1.39,0,0,1,.17-.75,1.22,1.22,0,0,1,.44-.46,2,2,0,0,1,.61-.23,5.5,5.5,0,0,1,.69-.11,4.1,4.1,0,0,1,.57-.08,2.94,2.94,0,0,0,.48-.09.66.66,0,0,0,.32-.17.51.51,0,0,0,.12-.37.53.53,0,0,0-.1-.34.64.64,0,0,0-.25-.21.9.9,0,0,0-.33-.09l-.35,0a1.47,1.47,0,0,0-.76.19.74.74,0,0,0-.33.6H79a1.71,1.71,0,0,1,.23-.8,1.69,1.69,0,0,1,.52-.51,2,2,0,0,1,.7-.27,4.45,4.45,0,0,1,.81-.08,3.38,3.38,0,0,1,.72.08,2.14,2.14,0,0,1,.64.25,1.41,1.41,0,0,1,.46.45,1.19,1.19,0,0,1,.17.67Zm-1.09-1.39a1.34,1.34,0,0,1-.62.2c-.24,0-.49.06-.73.1l-.34.08a1.32,1.32,0,0,0-.29.15.57.57,0,0,0-.19.24.8.8,0,0,0-.08.36.49.49,0,0,0,.11.31.7.7,0,0,0,.26.19,1,1,0,0,0,.32.11l.33,0a1.84,1.84,0,0,0,.39,0,1.55,1.55,0,0,0,.4-.17,1,1,0,0,0,.31-.29.72.72,0,0,0,.13-.44Z"/><path class="cls-5" d="M85.3,275a.82.82,0,0,0,.36.67,1.43,1.43,0,0,0,.76.19,2.18,2.18,0,0,0,.35,0,1.82,1.82,0,0,0,.37-.09.75.75,0,0,0,.29-.2.48.48,0,0,0,.1-.34.54.54,0,0,0-.15-.35,1,1,0,0,0-.38-.21,2.36,2.36,0,0,0-.51-.14l-.59-.13a5.69,5.69,0,0,1-.59-.16,2,2,0,0,1-.51-.26,1.22,1.22,0,0,1-.36-.42,1.33,1.33,0,0,1-.14-.63,1.14,1.14,0,0,1,.2-.68,1.52,1.52,0,0,1,.5-.44,2.2,2.2,0,0,1,.68-.24,4.37,4.37,0,0,1,.7-.07,2.94,2.94,0,0,1,.74.09,2,2,0,0,1,.64.26,1.54,1.54,0,0,1,.47.48,1.65,1.65,0,0,1,.23.7H87.32a.67.67,0,0,0-.36-.52,1.51,1.51,0,0,0-.65-.14l-.28,0a1.63,1.63,0,0,0-.3.07.63.63,0,0,0-.23.16.33.33,0,0,0-.1.26.44.44,0,0,0,.14.33,1.29,1.29,0,0,0,.37.21,3.15,3.15,0,0,0,.51.13l.6.13.59.16a2,2,0,0,1,.51.26,1.37,1.37,0,0,1,.37.42,1.25,1.25,0,0,1,.14.61,1.28,1.28,0,0,1-.21.75,1.39,1.39,0,0,1-.52.5,2.16,2.16,0,0,1-.72.28,3.63,3.63,0,0,1-1.65,0,2.21,2.21,0,0,1-.69-.33,1.42,1.42,0,0,1-.46-.54,1.64,1.64,0,0,1-.18-.76Z"/><path class="cls-5" d="M89.49,269.69h1.1v6.88h-1.1Z"/><path class="cls-5" d="M91.81,276.57v-5h1.1v5Z"/><path class="cls-5" d="M94.1,271.59h1v.73l0,0a1.87,1.87,0,0,1,.66-.65,1.7,1.7,0,0,1,.89-.24,1.86,1.86,0,0,1,1.29.43,1.59,1.59,0,0,1,.47,1.27v3.42H97.38v-3.13a1.41,1.41,0,0,0-.25-.85.92.92,0,0,0-.73-.27,1.18,1.18,0,0,0-.5.1,1.13,1.13,0,0,0-.37.28,1.46,1.46,0,0,0-.33.93v2.94H94.1Z"/><path class="cls-5" d="M103.8,275.46a.56.56,0,0,0,0,.29c0,.06.1.08.21.08h.11a.47.47,0,0,0,.16,0v.77l-.15,0-.19,0a1.25,1.25,0,0,1-.19,0h-.17a1,1,0,0,1-.55-.13.66.66,0,0,1-.29-.48,1.93,1.93,0,0,1-.81.47,3.32,3.32,0,0,1-.92.14,2.25,2.25,0,0,1-.64-.09,1.52,1.52,0,0,1-.54-.27,1.27,1.27,0,0,1-.38-.45,1.47,1.47,0,0,1-.14-.64,1.49,1.49,0,0,1,.17-.75A1.22,1.22,0,0,1,100,274a2,2,0,0,1,.62-.23,5,5,0,0,1,.69-.11,3.78,3.78,0,0,1,.56-.08,2.94,2.94,0,0,0,.48-.09.65.65,0,0,0,.33-.17.51.51,0,0,0,.12-.37.6.6,0,0,0-.1-.34.72.72,0,0,0-.25-.21.9.9,0,0,0-.34-.09l-.34,0a1.45,1.45,0,0,0-.76.19.77.77,0,0,0-.34.6h-1.1a1.71,1.71,0,0,1,.23-.8,1.69,1.69,0,0,1,.52-.51,2,2,0,0,1,.71-.27,4.26,4.26,0,0,1,.8-.08,3.55,3.55,0,0,1,.73.08,2.25,2.25,0,0,1,.64.25,1.38,1.38,0,0,1,.45.45,1.2,1.2,0,0,1,.18.67Zm-1.1-1.39a1.3,1.3,0,0,1-.62.2c-.24,0-.48.06-.73.1l-.33.08a1.13,1.13,0,0,0-.29.15.59.59,0,0,0-.2.24.8.8,0,0,0-.07.36.48.48,0,0,0,.1.31.7.7,0,0,0,.26.19,1.17,1.17,0,0,0,.33.11l.32,0a1.84,1.84,0,0,0,.39,0,1.42,1.42,0,0,0,.4-.17.86.86,0,0,0,.31-.29.72.72,0,0,0,.13-.44Z"/><path class="cls-5" d="M111.83,275.46a.56.56,0,0,0,0,.29c0,.06.1.08.2.08h.12a.39.39,0,0,0,.15,0v.77l-.14,0-.19,0-.19,0h-.17a1.08,1.08,0,0,1-.56-.13.72.72,0,0,1-.29-.48,1.83,1.83,0,0,1-.8.47,3.37,3.37,0,0,1-.92.14,2.25,2.25,0,0,1-.64-.09,1.66,1.66,0,0,1-.55-.27,1.36,1.36,0,0,1-.37-.45,1.34,1.34,0,0,1-.14-.64,1.39,1.39,0,0,1,.17-.75A1.22,1.22,0,0,1,108,274a2,2,0,0,1,.62-.23,5.07,5.07,0,0,1,.68-.11,4.1,4.1,0,0,1,.57-.08,2.94,2.94,0,0,0,.48-.09.62.62,0,0,0,.32-.17.52.52,0,0,0,.13-.37.53.53,0,0,0-.11-.34.64.64,0,0,0-.25-.21.9.9,0,0,0-.33-.09l-.34,0a1.49,1.49,0,0,0-.77.19.76.76,0,0,0-.33.6h-1.1a1.71,1.71,0,0,1,.23-.8,1.69,1.69,0,0,1,.52-.51,2,2,0,0,1,.7-.27,4.45,4.45,0,0,1,.81-.08,3.38,3.38,0,0,1,.72.08,2.2,2.2,0,0,1,.65.25,1.49,1.49,0,0,1,.45.45,1.2,1.2,0,0,1,.18.67Zm-1.1-1.39a1.3,1.3,0,0,1-.62.2c-.24,0-.49.06-.73.1l-.34.08a1.32,1.32,0,0,0-.29.15.65.65,0,0,0-.19.24.8.8,0,0,0-.07.36.48.48,0,0,0,.1.31.7.7,0,0,0,.26.19,1.1,1.1,0,0,0,.32.11l.33,0a1.84,1.84,0,0,0,.39,0,1.42,1.42,0,0,0,.4-.17.86.86,0,0,0,.31-.29.72.72,0,0,0,.13-.44Z"/><path class="cls-5" d="M112.46,271.59h1.2l1.3,3.72h0l1.26-3.72h1.15l-1.94,5.25c-.09.22-.17.43-.26.64a2,2,0,0,1-.32.54,1.3,1.3,0,0,1-.46.38,1.68,1.68,0,0,1-.72.14,4.87,4.87,0,0,1-.76-.06v-.92l.26,0a1.14,1.14,0,0,0,.26,0,1,1,0,0,0,.32,0,.77.77,0,0,0,.21-.14,1.18,1.18,0,0,0,.14-.22,1.63,1.63,0,0,0,.1-.29l.13-.38Z"/><path class="cls-5" d="M118,269.69h1.1v3.91l2-2h1.35l-1.9,1.83,2.08,3.15h-1.33l-1.52-2.42-.66.63v1.79H118Z"/><path class="cls-5" d="M123.2,276.57v-5h1.1v5Z"/><path class="cls-5" d="M125.49,271.59h1v1h0a1.4,1.4,0,0,1,.19-.39,1.61,1.61,0,0,1,.34-.35,1.53,1.53,0,0,1,.93-.36h.26l.15,0v1.06l-.24,0-.23,0a1.36,1.36,0,0,0-.53.11,1.34,1.34,0,0,0-.42.33,1.47,1.47,0,0,0-.29.54,2.29,2.29,0,0,0-.11.73v2.37h-1.1Z"/><path class="cls-5" d="M128.91,276.57v-5H130v5Z"/><path class="cls-5" d="M133.88,271.59h1v1h0a1,1,0,0,1,.19-.39,1.56,1.56,0,0,1,.33-.35,1.5,1.5,0,0,1,.44-.26,1.38,1.38,0,0,1,.49-.1h.27l.14,0v1.06l-.23,0-.24,0a1.31,1.31,0,0,0-.52.11,1.27,1.27,0,0,0-.43.33,1.63,1.63,0,0,0-.29.54,2.3,2.3,0,0,0-.1.73v2.37h-1.1Z"/><path class="cls-5" d="M138,274.36a2.1,2.1,0,0,0,.08.56,1.41,1.41,0,0,0,.25.47,1.09,1.09,0,0,0,.41.32,1.4,1.4,0,0,0,.6.12,1.35,1.35,0,0,0,.77-.2,1.2,1.2,0,0,0,.44-.62h1a2.11,2.11,0,0,1-.3.72,2.15,2.15,0,0,1-1.18.86,2.76,2.76,0,0,1-.77.11,2.61,2.61,0,0,1-1-.19,2.23,2.23,0,0,1-.77-.54,2.33,2.33,0,0,1-.47-.83,3.52,3.52,0,0,1-.16-1.06,3,3,0,0,1,.17-1,2.49,2.49,0,0,1,.48-.84,2.27,2.27,0,0,1,.76-.57,2.16,2.16,0,0,1,1-.22,2.26,2.26,0,0,1,1.05.25,2.34,2.34,0,0,1,.78.65,2.87,2.87,0,0,1,.45.93,3,3,0,0,1,.07,1.08Zm2.56-.72a1.72,1.72,0,0,0-.11-.5,1.27,1.27,0,0,0-.25-.42,1.28,1.28,0,0,0-.39-.29,1.15,1.15,0,0,0-.5-.11,1.32,1.32,0,0,0-.53.1,1.26,1.26,0,0,0-.4.28,1.51,1.51,0,0,0-.27.42,1.46,1.46,0,0,0-.11.52Z"/><path class="cls-5" d="M142.45,271.59h1v.75a1.87,1.87,0,0,1,.66-.65,1.72,1.72,0,0,1,.89-.24,1.86,1.86,0,0,1,1.29.43,1.59,1.59,0,0,1,.48,1.27v3.42h-1.1v-3.13a1.34,1.34,0,0,0-.25-.85.91.91,0,0,0-.72-.27,1.12,1.12,0,0,0-.5.1,1.08,1.08,0,0,0-.38.28,1.46,1.46,0,0,0-.33.93v2.94h-1.09Z"/><path class="cls-5" d="M148,269.69h1.1v3.91l2-2h1.35l-1.91,1.83,2.09,3.15h-1.34l-1.52-2.42-.65.63v1.79H148Z"/><path class="cls-5" d="M153.23,275.27h1.33v1.3a1.46,1.46,0,0,1-.36,1,1.65,1.65,0,0,1-.94.52v-.59a.7.7,0,0,0,.48-.35,1,1,0,0,0,.15-.58h-.66Z"/><path class="cls-5" d="M163.18,276.57h-1v-.68h0a1.28,1.28,0,0,1-.64.62,2.14,2.14,0,0,1-.9.19,2.32,2.32,0,0,1-1-.21,1.86,1.86,0,0,1-.73-.56,2.39,2.39,0,0,1-.43-.84,3.55,3.55,0,0,1-.15-1,3.41,3.41,0,0,1,.18-1.16,2.46,2.46,0,0,1,.49-.81,1.89,1.89,0,0,1,.69-.47,2.22,2.22,0,0,1,.8-.15,2.59,2.59,0,0,1,.47.05,1.88,1.88,0,0,1,.46.14,1.69,1.69,0,0,1,.41.24,1.28,1.28,0,0,1,.31.35h0v-2.54h1.1Zm-3.83-2.44a2.72,2.72,0,0,0,.08.63,1.83,1.83,0,0,0,.25.55,1.31,1.31,0,0,0,.43.38,1.21,1.21,0,0,0,.62.14,1.28,1.28,0,0,0,.63-.15,1.37,1.37,0,0,0,.43-.4,2.1,2.1,0,0,0,.25-.57,2.74,2.74,0,0,0,.08-.64,2,2,0,0,0-.37-1.29,1.22,1.22,0,0,0-1-.46,1.23,1.23,0,0,0-.65.16,1.4,1.4,0,0,0-.43.41,1.87,1.87,0,0,0-.24.58A3,3,0,0,0,159.35,274.13Z"/><path class="cls-5" d="M168.74,276.57h-1.07v-.7h0a1.53,1.53,0,0,1-.61.6,1.51,1.51,0,0,1-.81.23,1.81,1.81,0,0,1-1.42-.49,2.12,2.12,0,0,1-.44-1.46v-3.16h1.1v3.05a1.3,1.3,0,0,0,.25.92.91.91,0,0,0,.7.27,1.4,1.4,0,0,0,.58-.1,1,1,0,0,0,.38-.29,1.09,1.09,0,0,0,.2-.42,2.35,2.35,0,0,0,.07-.54v-2.89h1.09Zm-3.57-5.8v-1h1.1v1Zm2.75-1v1h-1.09v-1Z"/><path class="cls-5" d="M169.73,271.59h4v.77l-2.85,3.34h3v.87h-4.38v-.77l2.76-3.34h-2.56Z"/><path class="cls-5" d="M175.57,274.36a2.1,2.1,0,0,0,.08.56,1.25,1.25,0,0,0,.25.47,1,1,0,0,0,.41.32,1.4,1.4,0,0,0,.6.12,1.35,1.35,0,0,0,.77-.2,1.26,1.26,0,0,0,.44-.62h1a2.11,2.11,0,0,1-.3.72,2.15,2.15,0,0,1-1.18.86,2.81,2.81,0,0,1-.77.11,2.57,2.57,0,0,1-1-.19,2.23,2.23,0,0,1-.77-.54,2.33,2.33,0,0,1-.47-.83,3.23,3.23,0,0,1-.16-1.06,3,3,0,0,1,.17-1,2.49,2.49,0,0,1,.48-.84,2.27,2.27,0,0,1,.76-.57,2.14,2.14,0,0,1,1-.22,2.26,2.26,0,0,1,1.05.25,2.34,2.34,0,0,1,.78.65,2.66,2.66,0,0,1,.44.93,2.8,2.8,0,0,1,.08,1.08Zm2.56-.72a1.72,1.72,0,0,0-.11-.5,1.46,1.46,0,0,0-.25-.42,1.42,1.42,0,0,0-.39-.29,1.18,1.18,0,0,0-.5-.11,1.29,1.29,0,0,0-.53.1,1.26,1.26,0,0,0-.4.28,1.51,1.51,0,0,0-.27.42,1.27,1.27,0,0,0-.11.52Z"/><path class="cls-5" d="M180.06,271.59h1v.73l0,0a1.87,1.87,0,0,1,.66-.65,1.7,1.7,0,0,1,.89-.24,1.86,1.86,0,0,1,1.29.43,1.59,1.59,0,0,1,.47,1.27v3.42h-1.09v-3.13a1.41,1.41,0,0,0-.25-.85.92.92,0,0,0-.73-.27,1.18,1.18,0,0,0-.5.1,1.13,1.13,0,0,0-.37.28,1.46,1.46,0,0,0-.33.93v2.94h-1.1Z"/><path class="cls-5" d="M187.77,271.59H189l1.26,3.82h0l1.21-3.82h1.14l-1.78,5h-1.24Z"/><path class="cls-5" d="M194.12,274.36a1.77,1.77,0,0,0,.08.56,1.25,1.25,0,0,0,.25.47,1,1,0,0,0,.41.32,1.37,1.37,0,0,0,.6.12,1.35,1.35,0,0,0,.77-.2,1.26,1.26,0,0,0,.44-.62h1a2.11,2.11,0,0,1-.3.72,2.15,2.15,0,0,1-1.18.86,2.81,2.81,0,0,1-.77.11,2.57,2.57,0,0,1-1-.19,2.14,2.14,0,0,1-.77-.54,2.33,2.33,0,0,1-.47-.83,3.23,3.23,0,0,1-.16-1.06,3,3,0,0,1,.17-1,2.49,2.49,0,0,1,.48-.84,2.27,2.27,0,0,1,.76-.57,2.14,2.14,0,0,1,1-.22,2.26,2.26,0,0,1,1,.25,2.34,2.34,0,0,1,.78.65,2.66,2.66,0,0,1,.44.93,2.8,2.8,0,0,1,.08,1.08Zm2.56-.72a1.72,1.72,0,0,0-.11-.5,1.46,1.46,0,0,0-.25-.42,1.42,1.42,0,0,0-.39-.29,1.18,1.18,0,0,0-.5-.11,1.29,1.29,0,0,0-.53.1,1.26,1.26,0,0,0-.4.28,1.51,1.51,0,0,0-.27.42,1.27,1.27,0,0,0-.11.52Z"/><path class="cls-5" d="M201.32,269.69h1.1v2.54h0a1.43,1.43,0,0,1,.28-.32,1.78,1.78,0,0,1,.36-.25,1.62,1.62,0,0,1,.42-.15,1.59,1.59,0,0,1,.43-.06,2.32,2.32,0,0,1,1,.21,2.06,2.06,0,0,1,.73.57,2.39,2.39,0,0,1,.43.84,3.47,3.47,0,0,1,.15,1,3.91,3.91,0,0,1-.13,1,2.51,2.51,0,0,1-.4.84,1.94,1.94,0,0,1-.67.57,1.91,1.91,0,0,1-1,.22l-.51,0a2.42,2.42,0,0,1-.48-.13,1.73,1.73,0,0,1-.42-.25,1.17,1.17,0,0,1-.31-.41h0v.69h-1Zm3.83,4.39a2.37,2.37,0,0,0-.09-.65,1.85,1.85,0,0,0-.26-.57,1.34,1.34,0,0,0-.43-.39,1.16,1.16,0,0,0-.6-.15,1.2,1.2,0,0,0-1,.48,2.09,2.09,0,0,0-.35,1.28,2.63,2.63,0,0,0,.09.7,1.49,1.49,0,0,0,.27.55,1.3,1.3,0,0,0,.44.37,1.25,1.25,0,0,0,.59.13,1.29,1.29,0,0,0,.64-.15,1.49,1.49,0,0,0,.43-.4,1.67,1.67,0,0,0,.24-.56A3.39,3.39,0,0,0,205.15,274.08Z"/><path class="cls-5" d="M211.54,276.57h-1.08v-.7h0a1.45,1.45,0,0,1-.6.6,1.54,1.54,0,0,1-.81.23,1.8,1.8,0,0,1-1.42-.49,2.12,2.12,0,0,1-.44-1.46v-3.16h1.1v3.05a1.3,1.3,0,0,0,.25.92.9.9,0,0,0,.7.27,1.44,1.44,0,0,0,.58-.1,1.07,1.07,0,0,0,.58-.71,2.35,2.35,0,0,0,.06-.54v-2.89h1.1Zm-3.57-5.8v-1h1.1v1Zm2.75-1v1h-1.1v-1Z"/><path class="cls-5" d="M212.15,271.59h1.2l1.3,3.72h0l1.26-3.72h1.15l-1.94,5.25c-.09.22-.18.43-.26.64a2.33,2.33,0,0,1-.32.54,1.34,1.34,0,0,1-.47.38,1.6,1.6,0,0,1-.71.14,4.77,4.77,0,0,1-.76-.06v-.92l.26,0a1.1,1.1,0,0,0,.26,0,1,1,0,0,0,.32,0,.6.6,0,0,0,.2-.14.83.83,0,0,0,.14-.22,1.6,1.6,0,0,0,.11-.29l.12-.38Z"/><path class="cls-5" d="M222.06,276.57H221v-.7h0a1.45,1.45,0,0,1-.6.6,1.51,1.51,0,0,1-.81.23,1.8,1.8,0,0,1-1.42-.49,2.12,2.12,0,0,1-.44-1.46v-3.16h1.1v3.05a1.3,1.3,0,0,0,.25.92.91.91,0,0,0,.7.27,1.4,1.4,0,0,0,.58-.1,1,1,0,0,0,.58-.71,2.35,2.35,0,0,0,.06-.54v-2.89h1.1Zm-3.57-5.8v-1h1.1v1Zm2.75-1v1h-1.09v-1Z"/><path class="cls-5" d="M223.25,269.69h1.09v3.91l2-2h1.34l-1.9,1.83,2.09,3.15h-1.34L225,274.15l-.66.63v1.79h-1.09Z"/><path class="cls-5" d="M228.42,269.69h1.09v6.88h-1.09Z"/><path class="cls-5" d="M235.08,276.57H234v-.7h0a1.68,1.68,0,0,1-1.42.83,1.83,1.83,0,0,1-1.42-.49,2.12,2.12,0,0,1-.43-1.46v-3.16h1.09v3.05a1.35,1.35,0,0,0,.25.92.92.92,0,0,0,.71.27,1.35,1.35,0,0,0,.57-.1,1,1,0,0,0,.38-.29,1.11,1.11,0,0,0,.21-.42,2.35,2.35,0,0,0,.06-.54v-2.89h1.1Zm-3.58-5.8v-1h1.1v1Zm2.76-1v1h-1.1v-1Z"/><path class="cls-5" d="M236.26,269.69h1.1v3.91l2-2h1.35l-1.91,1.83,2.09,3.15h-1.34L238,274.15l-.65.63v1.79h-1.1Z"/><path class="cls-5" d="M241.43,269.69h1.1v6.88h-1.1Z"/><path class="cls-5" d="M244.58,274.36a1.77,1.77,0,0,0,.08.56,1.23,1.23,0,0,0,.24.47,1.12,1.12,0,0,0,.42.32,1.34,1.34,0,0,0,.6.12,1.37,1.37,0,0,0,.77-.2,1.32,1.32,0,0,0,.44-.62h1a2.11,2.11,0,0,1-.3.72,2.15,2.15,0,0,1-1.18.86,2.87,2.87,0,0,1-.77.11,2.57,2.57,0,0,1-1-.19,2.14,2.14,0,0,1-.77-.54,2.19,2.19,0,0,1-.47-.83,3.23,3.23,0,0,1-.16-1.06,3,3,0,0,1,.17-1,2.49,2.49,0,0,1,.48-.84,2.33,2.33,0,0,1,.75-.57,2.21,2.21,0,0,1,1-.22,2.26,2.26,0,0,1,1.05.25,2.21,2.21,0,0,1,.77.65,2.52,2.52,0,0,1,.45.93,2.8,2.8,0,0,1,.07,1.08Zm2.56-.72a2.13,2.13,0,0,0-.11-.5,1.46,1.46,0,0,0-.25-.42,1.42,1.42,0,0,0-.39-.29,1.18,1.18,0,0,0-.5-.11,1.29,1.29,0,0,0-.53.1,1.15,1.15,0,0,0-.4.28,1.17,1.17,0,0,0-.27.42,1.27,1.27,0,0,0-.11.52Z"/><path class="cls-5" d="M249.07,271.59h1v1h0a1.17,1.17,0,0,1,.19-.39,1.41,1.41,0,0,1,.34-.35,1.45,1.45,0,0,1,.43-.26,1.44,1.44,0,0,1,.5-.1h.26l.15,0v1.06l-.24,0-.23,0a1.36,1.36,0,0,0-.53.11,1.5,1.5,0,0,0-.43.33,1.62,1.62,0,0,0-.28.54,2,2,0,0,0-.11.73v2.37h-1.1Z"/><path class="cls-5" d="M257,276.57h-1v-.68h0a1.3,1.3,0,0,1-.65.62,2.09,2.09,0,0,1-.89.19,2.34,2.34,0,0,1-1-.21,2,2,0,0,1-.73-.56,2.57,2.57,0,0,1-.43-.84,3.56,3.56,0,0,1-.14-1,3.41,3.41,0,0,1,.18-1.16,2.29,2.29,0,0,1,.48-.81,2,2,0,0,1,.7-.47,2.17,2.17,0,0,1,.79-.15,2.5,2.5,0,0,1,.47.05,2,2,0,0,1,.47.14,1.63,1.63,0,0,1,.4.24,1.52,1.52,0,0,1,.32.35h0v-2.54H257Zm-3.83-2.44a2.28,2.28,0,0,0,.09.63,1.61,1.61,0,0,0,.25.55,1.28,1.28,0,0,0,.42.38,1.23,1.23,0,0,0,.62.14,1.21,1.21,0,0,0,1.06-.55,1.63,1.63,0,0,0,.25-.57,2.3,2.3,0,0,0,.09-.64,2,2,0,0,0-.38-1.29,1.35,1.35,0,0,0-1.65-.3,1.3,1.3,0,0,0-.43.41,1.49,1.49,0,0,0-.24.58A3,3,0,0,0,253.14,274.13Z"/><path class="cls-5" d="M259,274.36a1.77,1.77,0,0,0,.09.56,1.23,1.23,0,0,0,.24.47,1.12,1.12,0,0,0,.42.32,1.32,1.32,0,0,0,.59.12,1.41,1.41,0,0,0,.78-.2,1.32,1.32,0,0,0,.44-.62h1a2.11,2.11,0,0,1-.3.72,2,2,0,0,1-.51.53,2.1,2.1,0,0,1-.67.33,2.88,2.88,0,0,1-.78.11,2.61,2.61,0,0,1-1-.19,2.17,2.17,0,0,1-1.23-1.37,3.23,3.23,0,0,1-.16-1.06,2.77,2.77,0,0,1,.17-1,2.49,2.49,0,0,1,.48-.84,2.33,2.33,0,0,1,.75-.57,2.19,2.19,0,0,1,1-.22,2.27,2.27,0,0,1,1.06.25,2.21,2.21,0,0,1,.77.65,2.52,2.52,0,0,1,.45.93,2.8,2.8,0,0,1,.07,1.08Zm2.56-.72a1.45,1.45,0,0,0-.11-.5,1.27,1.27,0,0,0-.25-.42,1.24,1.24,0,0,0-.38-.29,1.19,1.19,0,0,0-.51-.11,1.27,1.27,0,0,0-.52.1,1.15,1.15,0,0,0-.4.28,1.17,1.17,0,0,0-.27.42,1.47,1.47,0,0,0-.12.52Z"/><path class="cls-5" d="M266.23,269.69h1.09v3.91l2-2h1.34l-1.9,1.83,2.09,3.15H269.5L268,274.15l-.66.63v1.79h-1.09Z"/><path class="cls-5" d="M275.74,276.57h-1.08v-.7h0a1.68,1.68,0,0,1-1.42.83,1.83,1.83,0,0,1-1.42-.49,2.12,2.12,0,0,1-.43-1.46v-3.16h1.09v3.05a1.35,1.35,0,0,0,.25.92.92.92,0,0,0,.71.27,1.35,1.35,0,0,0,.57-.1,1,1,0,0,0,.38-.29,1.27,1.27,0,0,0,.21-.42,2.35,2.35,0,0,0,.06-.54v-2.89h1.1Z"/><path class="cls-5" d="M276.92,269.69H278v6.88h-1.1Z"/><path class="cls-5" d="M279.24,269.69h1.1v6.88h-1.1Z"/><path class="cls-5" d="M285.7,275.46a.69.69,0,0,0,.05.29.23.23,0,0,0,.21.08h.11a.47.47,0,0,0,.16,0v.77l-.15,0-.19,0a1.25,1.25,0,0,1-.19,0h-.16a1,1,0,0,1-.56-.13.66.66,0,0,1-.29-.48,1.93,1.93,0,0,1-.81.47,3.32,3.32,0,0,1-.92.14,2.3,2.3,0,0,1-.64-.09,1.52,1.52,0,0,1-.54-.27,1.27,1.27,0,0,1-.38-.45,1.47,1.47,0,0,1-.14-.64,1.49,1.49,0,0,1,.17-.75,1.22,1.22,0,0,1,.44-.46,2,2,0,0,1,.62-.23,5.5,5.5,0,0,1,.69-.11,4,4,0,0,1,.56-.08,2.94,2.94,0,0,0,.48-.09.65.65,0,0,0,.33-.17.51.51,0,0,0,.12-.37.6.6,0,0,0-.1-.34.72.72,0,0,0-.25-.21.9.9,0,0,0-.33-.09l-.35,0a1.45,1.45,0,0,0-.76.19.77.77,0,0,0-.34.6h-1.1a1.71,1.71,0,0,1,.23-.8,1.69,1.69,0,0,1,.52-.51,2,2,0,0,1,.71-.27,4.28,4.28,0,0,1,.81-.08,3.53,3.53,0,0,1,.72.08,2.14,2.14,0,0,1,.64.25,1.52,1.52,0,0,1,.46.45,1.28,1.28,0,0,1,.17.67Zm-1.1-1.39a1.3,1.3,0,0,1-.61.2c-.25,0-.49.06-.74.1l-.33.08a1.13,1.13,0,0,0-.29.15.59.59,0,0,0-.2.24.8.8,0,0,0-.07.36.48.48,0,0,0,.1.31.79.79,0,0,0,.26.19,1.17,1.17,0,0,0,.33.11l.32,0a1.84,1.84,0,0,0,.39,0,1.42,1.42,0,0,0,.4-.17,1,1,0,0,0,.32-.29.78.78,0,0,0,.12-.44Z"/><path class="cls-5" d="M286.88,271.59h1v.73l0,0a1.87,1.87,0,0,1,.66-.65,1.7,1.7,0,0,1,.89-.24,1.86,1.86,0,0,1,1.29.43,1.59,1.59,0,0,1,.47,1.27v3.42h-1.09v-3.13a1.41,1.41,0,0,0-.25-.85.92.92,0,0,0-.73-.27,1.18,1.18,0,0,0-.5.1,1.13,1.13,0,0,0-.37.28,1.1,1.1,0,0,0-.24.42,1.44,1.44,0,0,0-.09.51v2.94h-1.1Z"/><path class="cls-5" d="M292.44,276.57v-5h1.09v5Z"/><path class="cls-5" d="M294.76,269.69h1.09v6.88h-1.09Z"/><path class="cls-5" d="M301.22,275.46a.56.56,0,0,0,0,.29c0,.06.1.08.21.08h.11a.47.47,0,0,0,.16,0v.77l-.15,0-.19,0-.19,0h-.17a1.08,1.08,0,0,1-.56-.13.68.68,0,0,1-.28-.48,1.93,1.93,0,0,1-.81.47,3.37,3.37,0,0,1-.92.14,2.25,2.25,0,0,1-.64-.09,1.66,1.66,0,0,1-.55-.27,1.36,1.36,0,0,1-.37-.45,1.34,1.34,0,0,1-.14-.64,1.39,1.39,0,0,1,.17-.75,1.22,1.22,0,0,1,.44-.46,2,2,0,0,1,.61-.23,5.5,5.5,0,0,1,.69-.11,4.1,4.1,0,0,1,.57-.08,2.94,2.94,0,0,0,.48-.09.65.65,0,0,0,.33-.17.51.51,0,0,0,.12-.37.53.53,0,0,0-.11-.34.64.64,0,0,0-.25-.21.9.9,0,0,0-.33-.09l-.34,0a1.42,1.42,0,0,0-.76.19.74.74,0,0,0-.34.6H297a1.71,1.71,0,0,1,.23-.8,1.69,1.69,0,0,1,.52-.51,2,2,0,0,1,.7-.27,4.45,4.45,0,0,1,.81-.08,3.55,3.55,0,0,1,.73.08,2.08,2.08,0,0,1,.63.25,1.41,1.41,0,0,1,.46.45,1.2,1.2,0,0,1,.18.67Zm-1.1-1.39a1.3,1.3,0,0,1-.62.2c-.24,0-.49.06-.73.1l-.34.08a1.32,1.32,0,0,0-.29.15.65.65,0,0,0-.19.24.8.8,0,0,0-.07.36.48.48,0,0,0,.1.31.7.7,0,0,0,.26.19,1.1,1.1,0,0,0,.32.11l.33,0a1.84,1.84,0,0,0,.39,0,1.55,1.55,0,0,0,.4-.17.86.86,0,0,0,.31-.29.72.72,0,0,0,.13-.44Z"/><path class="cls-5" d="M302.4,271.59h1v.69h0a2.16,2.16,0,0,1,.27-.33,1.39,1.39,0,0,1,.32-.27,1.67,1.67,0,0,1,.41-.16,1.7,1.7,0,0,1,.53-.07,1.74,1.74,0,0,1,.84.21,1.09,1.09,0,0,1,.55.62,2.17,2.17,0,0,1,.65-.6,1.71,1.71,0,0,1,.91-.23,1.78,1.78,0,0,1,1.23.39,1.66,1.66,0,0,1,.44,1.29v3.44h-1.1v-2.91a4.79,4.79,0,0,0,0-.55,1.08,1.08,0,0,0-.11-.42.59.59,0,0,0-.27-.27,1,1,0,0,0-.5-.1.94.94,0,0,0-.81.35,1.63,1.63,0,0,0-.25,1v2.92h-1.1v-3.2a1.28,1.28,0,0,0-.19-.78.77.77,0,0,0-.69-.27.93.93,0,0,0-.4.09,1,1,0,0,0-.35.25,1.22,1.22,0,0,0-.24.4,1.59,1.59,0,0,0-.09.55v3h-1.1Z"/><path class="cls-5" d="M314.94,275.46a.55.55,0,0,0,.06.29c0,.06.1.08.2.08h.12a.44.44,0,0,0,.15,0v.77l-.15,0-.19,0a1.08,1.08,0,0,1-.19,0h-.16a1.06,1.06,0,0,1-.56-.13.69.69,0,0,1-.29-.48,1.89,1.89,0,0,1-.8.47,3.43,3.43,0,0,1-.92.14,2.32,2.32,0,0,1-.65-.09,1.71,1.71,0,0,1-.54-.27,1.38,1.38,0,0,1-.38-.45,1.47,1.47,0,0,1-.14-.64,1.49,1.49,0,0,1,.17-.75,1.24,1.24,0,0,1,.45-.46,1.93,1.93,0,0,1,.61-.23,5.5,5.5,0,0,1,.69-.11,4.1,4.1,0,0,1,.57-.08,2.62,2.62,0,0,0,.47-.09.65.65,0,0,0,.33-.17.51.51,0,0,0,.12-.37.53.53,0,0,0-.1-.34.72.72,0,0,0-.25-.21.9.9,0,0,0-.33-.09l-.35,0a1.45,1.45,0,0,0-.76.19.74.74,0,0,0-.33.6h-1.1a1.61,1.61,0,0,1,.23-.8,1.55,1.55,0,0,1,.51-.51,2.09,2.09,0,0,1,.71-.27,4.28,4.28,0,0,1,.81-.08,3.53,3.53,0,0,1,.72.08,2.14,2.14,0,0,1,.64.25,1.52,1.52,0,0,1,.46.45,1.28,1.28,0,0,1,.17.67Zm-1.1-1.39a1.26,1.26,0,0,1-.61.2c-.25,0-.49.06-.73.1l-.34.08a1.32,1.32,0,0,0-.29.15.68.68,0,0,0-.2.24,1,1,0,0,0-.07.36.49.49,0,0,0,.11.31.67.67,0,0,0,.25.19,1.17,1.17,0,0,0,.33.11l.32,0a1.94,1.94,0,0,0,.4,0,1.55,1.55,0,0,0,.4-.17,1,1,0,0,0,.31-.29.78.78,0,0,0,.12-.44Z"/><path class="cls-5" d="M316,271.59H320v.77l-2.85,3.34h3v.87h-4.38v-.77l2.75-3.34H316Z"/><path class="cls-5" d="M321,275.27h1.33v1.3H321Z"/></g></g></svg>