<svg xmlns="http://www.w3.org/2000/svg" viewBox="0 0 698.92 276.1"><defs><style>.cls-1{fill:#f6a400;}.cls-2{fill:#333;}.cls-3{fill:#fff;}.cls-4{fill:#1d1d1b;}.cls-5{fill:#b2b2b2;}</style></defs><g id="Layer_2" data-name="Layer 2"><g id="Layer_1-2" data-name="Layer 1"><path class="cls-1" d="M686.83,0H143.71a12.09,12.09,0,0,0-12.1,12.1v92.71a12.08,12.08,0,0,0,12.1,12.09H686.83a12.09,12.09,0,0,0,12.09-12.09V12.1A12.09,12.09,0,0,0,686.83,0Zm7.6,104.8a7.62,7.62,0,0,1-7.6,7.61H472.94V4.5H686.83a7.61,7.61,0,0,1,7.6,7.6Z"/><path class="cls-2" d="M486.77,24.8H514.1c15.95,0,25.61,9.37,25.61,23.13v.19c0,15.57-12,23.5-27.05,23.5H501.48V91.69H486.77Zm26.37,33.73c7.36,0,11.66-4.39,11.66-10.13v-.19c0-6.59-4.59-10.13-11.95-10.13H501.48V58.53Z"/><path class="cls-2" d="M549.17,24.8h30.58c8.5,0,15,2.29,19.49,6.79,3.82,3.82,5.74,8.88,5.74,15.28v.2c0,10.79-5.83,17.58-14.34,20.73L607,91.69h-17.2l-14.33-21.4H563.88v21.4H549.17Zm29.62,32.49c7.26,0,11.28-3.73,11.28-9.46v-.19c0-6.4-4.3-9.56-11.56-9.56H563.88V57.29Z"/><path class="cls-2" d="M613.86,58.44v-.19c0-19,15-34.6,35.65-34.6S685,39,685,58.06v.19c0,19-15,34.59-35.64,34.59S613.86,77.45,613.86,58.44Zm55.71,0v-.19c0-11.47-8.41-21-20.25-21s-20.07,9.37-20.07,20.84v.19c0,11.46,8.41,21,20.26,21S669.57,69.9,669.57,58.44Z"/><path class="cls-3" d="M163.65,24.8h50.93V38.18H178.37V52.42h31.92V65.8H178.37V91.69H163.65Z"/><path class="cls-3" d="M224.91,24.8h14.71V78.31H273V91.69H224.91Z"/><path class="cls-3" d="M275.84,58.44v-.19c0-19,15-34.6,35.64-34.6S346.94,39,346.94,58.06v.19c0,19-15,34.59-35.65,34.59S275.84,77.45,275.84,58.44Zm55.71,0v-.19c0-11.47-8.41-21-20.26-21s-20.06,9.37-20.06,20.84v.19c0,11.46,8.4,21,20.25,21S331.55,69.9,331.55,58.44Z"/><path class="cls-3" d="M349.62,24.8h15.76l13.86,45.3,15-45.49h12.61l15,45.49,13.85-45.3H451.1L428.26,92.17H415.45L400.36,48.4l-15.1,43.77H372.45Z"/><path class="cls-4" d="M152.31,131.31h6.21c3.75,0,6.21,2,6.21,5.26v.05c0,3.58-3,5.43-6.51,5.43h-4v5.85h-1.88Zm6,9c2.75,0,4.55-1.47,4.55-3.65v-.05c0-2.37-1.78-3.6-4.46-3.6h-4.19v7.3Z"/><path class="cls-4" d="M168.31,131.31h1.88V147.9h-1.88Z"/><path class="cls-4" d="M175,131.31h6.21c3.75,0,6.21,2,6.21,5.26v.05c0,3.58-3,5.43-6.51,5.43h-4v5.85H175Zm6,9c2.75,0,4.55-1.47,4.55-3.65v-.05c0-2.37-1.78-3.6-4.46-3.6h-4.19v7.3Z"/><path class="cls-4" d="M190.88,131.31h12V133H192.75v5.66h9.05v1.71h-9.05v5.8H203v1.71H190.88Z"/><path class="cls-4" d="M206.76,131.31h1.87v14.86H218v1.73H206.76Z"/><path class="cls-4" d="M221.5,131.31h1.87V147.9H221.5Z"/><path class="cls-4" d="M228.23,131.31H230l10.45,13.3v-13.3h1.82V147.9h-1.49l-10.71-13.6v13.6h-1.83Z"/><path class="cls-4" d="M247,131.31h12V133H248.83v5.66h9v1.71h-9v5.8h10.24v1.71H247Z"/><path class="cls-4" d="M270,131.31h11.92V133H271.82V139h9v1.7h-9v7.23H270Z"/><path class="cls-4" d="M285.5,131.31h1.87v14.86h9.34v1.73H285.5Z"/><path class="cls-4" d="M298.22,139.65v0a8.47,8.47,0,1,1,16.93-.05v.05a8.47,8.47,0,1,1-16.93,0Zm15,0v0a6.6,6.6,0,0,0-6.54-6.85,6.51,6.51,0,0,0-6.49,6.8v.05a6.6,6.6,0,0,0,6.54,6.85A6.52,6.52,0,0,0,313.2,139.65Z"/><path class="cls-4" d="M317,131.31h2l4.74,13.82,4.55-13.87h1.54l4.55,13.87,4.74-13.82h2L335.18,148h-1.59L329,134.56,324.46,148H322.9Z"/><path class="cls-4" d="M361,145.55a7.13,7.13,0,0,1-5.42,2.59c-3,0-5.22-1.87-5.22-4.65v0c0-2.21,1.45-3.77,4-4.79a5.32,5.32,0,0,1-1.66-3.65v0c0-2.18,1.75-3.93,4.38-3.93a3.84,3.84,0,0,1,4,3.74v0c0,2.11-1.47,3.46-3.91,4.31L361,143a20.42,20.42,0,0,0,2-3.7l1.54.71a21.8,21.8,0,0,1-2.39,4.17l2.89,3-1.42,1.09Zm-1.13-1.16-4.44-4.57c-2.2.83-3.17,2.13-3.17,3.55v0a3.2,3.2,0,0,0,3.46,3.13A5.63,5.63,0,0,0,359.83,144.39Zm-.5-9.48v0a2.26,2.26,0,0,0-2.35-2.3,2.35,2.35,0,0,0-2.51,2.39v0c0,1,.4,1.73,1.66,3.06C358.24,137.33,359.33,136.34,359.33,134.91Z"/><path class="cls-4" d="M375.21,131.31h6.21c3.74,0,6.21,2,6.21,5.26v.05c0,3.58-3,5.43-6.52,5.43h-4v5.85h-1.87Zm6,9c2.75,0,4.55-1.47,4.55-3.65v-.05c0-2.37-1.78-3.6-4.45-3.6h-4.2v7.3Z"/><path class="cls-4" d="M391,131.31h7.14a6.5,6.5,0,0,1,4.71,1.66,4.48,4.48,0,0,1,1.28,3.27v0c0,2.75-1.89,4.38-4.5,4.83l5.1,6.78h-2.3l-4.82-6.45h-4.74v6.45H391Zm7,8.46c2.46,0,4.27-1.28,4.27-3.41v-.05c0-2.06-1.57-3.27-4.25-3.27h-5.12v6.73Z"/><path class="cls-4" d="M408.18,131.31h12V133H410.05v5.66h9.05v1.71h-9.05v5.8h10.24v1.71H408.18Z"/><path class="cls-4" d="M423,145.48l1.16-1.37a7.8,7.8,0,0,0,5.69,2.35c2.25,0,3.7-1.19,3.7-2.82v0c0-1.54-.83-2.4-4.32-3.15-3.81-.83-5.57-2.07-5.57-4.79v-.05c0-2.58,2.3-4.53,5.45-4.53a8.65,8.65,0,0,1,5.83,2l-1.09,1.45a7.26,7.26,0,0,0-4.78-1.8c-2.18,0-3.54,1.16-3.54,2.67v0c0,1.57.83,2.47,4.51,3.23s5.4,2.15,5.4,4.69v0c0,2.84-2.37,4.69-5.66,4.69A9.52,9.52,0,0,1,423,145.48Z"/><path class="cls-4" d="M437.9,145.48l1.16-1.37a7.8,7.8,0,0,0,5.69,2.35c2.25,0,3.7-1.19,3.7-2.82v0c0-1.54-.83-2.4-4.32-3.15-3.81-.83-5.57-2.07-5.57-4.79v-.05c0-2.58,2.3-4.53,5.46-4.53a8.67,8.67,0,0,1,5.83,2l-1.09,1.45a7.28,7.28,0,0,0-4.79-1.8c-2.18,0-3.53,1.16-3.53,2.67v0c0,1.57.83,2.47,4.5,3.23s5.4,2.15,5.4,4.69v0c0,2.84-2.37,4.69-5.66,4.69A9.54,9.54,0,0,1,437.9,145.48Z"/><path class="cls-4" d="M453.9,141v-9.65h1.87v9.53c0,3.6,1.87,5.59,5.07,5.59s5-1.85,5-5.47v-9.65h1.87v9.5c0,4.86-2.78,7.35-6.92,7.35S453.9,145.65,453.9,141Z"/><path class="cls-4" d="M472.15,131.31h7.14A6.5,6.5,0,0,1,484,133a4.48,4.48,0,0,1,1.28,3.27v0c0,2.75-1.89,4.38-4.5,4.83l5.09,6.78h-2.3l-4.81-6.45H474v6.45h-1.87Zm7,8.46c2.46,0,4.27-1.28,4.27-3.41v-.05c0-2.06-1.57-3.27-4.25-3.27H474v6.73Z"/><path class="cls-4" d="M489.29,131.31h12V133H491.16v5.66h9v1.71h-9v5.8H501.4v1.71H489.29Z"/><path class="cls-4" d="M511.54,139.65v0a8.37,8.37,0,0,1,8.39-8.58,8.49,8.49,0,0,1,6.47,2.63L525.13,135a7.21,7.21,0,0,0-5.22-2.27,6.5,6.5,0,0,0-6.42,6.8v.05a6.53,6.53,0,0,0,6.42,6.85,7.2,7.2,0,0,0,5.36-2.4l1.23,1.21a8.66,8.66,0,0,1-6.64,2.92A8.28,8.28,0,0,1,511.54,139.65Z"/><path class="cls-4" d="M528.66,139.65v0a8.46,8.46,0,1,1,16.92-.05v.05a8.46,8.46,0,1,1-16.92,0Zm15,0v0a6.6,6.6,0,0,0-6.55-6.85,6.51,6.51,0,0,0-6.49,6.8v.05a6.6,6.6,0,0,0,6.54,6.85A6.53,6.53,0,0,0,543.64,139.65Z"/><path class="cls-4" d="M549.54,131.31h1.75l10.46,13.3v-13.3h1.82V147.9h-1.49l-10.72-13.6v13.6h-1.82Z"/><path class="cls-4" d="M572.58,133H567v-1.73H580V133h-5.59V147.9h-1.87Z"/><path class="cls-4" d="M583.46,131.31h7.13a6.54,6.54,0,0,1,4.72,1.66,4.48,4.48,0,0,1,1.28,3.27v0c0,2.75-1.9,4.38-4.51,4.83l5.1,6.78h-2.3l-4.81-6.45h-4.74v6.45h-1.87Zm7,8.46c2.47,0,4.27-1.28,4.27-3.41v-.05c0-2.06-1.56-3.27-4.24-3.27h-5.12v6.73Z"/><path class="cls-4" d="M599.86,139.65v0a8.46,8.46,0,1,1,16.92-.05v.05a8.46,8.46,0,1,1-16.92,0Zm15,0v0a6.6,6.6,0,0,0-6.54-6.85,6.51,6.51,0,0,0-6.5,6.8v.05a6.6,6.6,0,0,0,6.54,6.85A6.52,6.52,0,0,0,614.84,139.65Z"/><path class="cls-4" d="M620.74,131.31h1.87v14.86H632v1.73H620.74Z"/><path class="cls-4" d="M635.32,131.31h1.87v14.86h9.34v1.73H635.32Z"/><path class="cls-4" d="M649.89,131.31h12V133H651.77v5.66h9.05v1.71h-9.05v5.8H662v1.71H649.89Z"/><path class="cls-4" d="M665.77,131.31h7.14a6.5,6.5,0,0,1,4.71,1.66,4.48,4.48,0,0,1,1.28,3.27v0c0,2.75-1.89,4.38-4.5,4.83l5.1,6.78h-2.3l-4.81-6.45h-4.74v6.45h-1.88Zm7,8.46c2.47,0,4.27-1.28,4.27-3.41v-.05c0-2.06-1.57-3.27-4.24-3.27h-5.12v6.73Z"/><path class="cls-5" d="M8.38,250.09a4.64,4.64,0,0,1-3.13,1,4.55,4.55,0,0,1-3.14-1,3.79,3.79,0,0,1-1.12-3v-6.22h2.2v6.22a4.25,4.25,0,0,0,.07.8,1.64,1.64,0,0,0,.29.69,1.67,1.67,0,0,0,.63.49,2.44,2.44,0,0,0,1.07.19,2.06,2.06,0,0,0,1.62-.53,2.47,2.47,0,0,0,.45-1.64v-6.22h2.2v6.22A3.79,3.79,0,0,1,8.38,250.09Z"/><path class="cls-5" d="M13.87,253a2.88,2.88,0,0,1-1.59.37c-.21,0-.41,0-.61,0l-.61-.05v-1.63l.57,0a5.82,5.82,0,0,0,.59,0,.81.81,0,0,0,.58-.31,1,1,0,0,0,.19-.59,1.33,1.33,0,0,0-.08-.45l-2.54-6.79h2.12l1.63,5h0l1.58-5h2.06l-3,8.14A2.57,2.57,0,0,1,13.87,253Z"/><path class="cls-5" d="M18.38,245.84a2.24,2.24,0,0,1,.35-1.16,2.53,2.53,0,0,1,.78-.75,3.7,3.7,0,0,1,1.07-.4,6.09,6.09,0,0,1,1.2-.11,8.38,8.38,0,0,1,1.11.07,3.36,3.36,0,0,1,1,.3,2,2,0,0,1,.76.63,1.74,1.74,0,0,1,.29,1.05v3.77a7.07,7.07,0,0,0,.06.94,1.63,1.63,0,0,0,.19.67h-2a2.14,2.14,0,0,1-.09-.34,2.23,2.23,0,0,1-.05-.36,2.67,2.67,0,0,1-1.12.69,4.53,4.53,0,0,1-1.32.19,3.35,3.35,0,0,1-1-.13,2.12,2.12,0,0,1-.78-.39,1.73,1.73,0,0,1-.52-.67,2.55,2.55,0,0,1,0-2,1.84,1.84,0,0,1,.56-.64,2.71,2.71,0,0,1,.79-.35,6.71,6.71,0,0,1,.89-.19,8.81,8.81,0,0,1,.88-.11,5.13,5.13,0,0,0,.77-.13,1.38,1.38,0,0,0,.53-.25.52.52,0,0,0,.18-.46,1.09,1.09,0,0,0-.1-.52.86.86,0,0,0-.28-.29,1.11,1.11,0,0,0-.41-.14,3.84,3.84,0,0,0-.5,0,1.48,1.48,0,0,0-.92.25,1.15,1.15,0,0,0-.39.84ZM23,247.31a.92.92,0,0,1-.31.17,4,4,0,0,1-.41.11l-.45.07-.48.07a3.15,3.15,0,0,0-.44.11,1.35,1.35,0,0,0-.38.19.94.94,0,0,0-.26.3,1,1,0,0,0-.1.46,1,1,0,0,0,.1.45.84.84,0,0,0,.27.29,1,1,0,0,0,.39.14,2.31,2.31,0,0,0,.46.05,1.75,1.75,0,0,0,.91-.2,1.35,1.35,0,0,0,.48-.47,1.72,1.72,0,0,0,.19-.55q0-.28,0-.45Z"/><path class="cls-5" d="M28.39,243.61V245h0a2.48,2.48,0,0,1,.37-.63,2.55,2.55,0,0,1,1.21-.8,2.23,2.23,0,0,1,.73-.11,1.42,1.42,0,0,1,.43.07v1.84l-.33-.05-.38,0a2,2,0,0,0-.93.19,1.64,1.64,0,0,0-.61.49,2,2,0,0,0-.32.74,3.73,3.73,0,0,0-.1.91v3.26h-2v-7.24Z"/><path class="cls-5" d="M34,243.61v7.24H32v-7.24Z"/><path class="cls-5" d="M.8,255.53H4.14a2.39,2.39,0,0,1,1.48.42,1.51,1.51,0,0,1,.56,1.28,1.53,1.53,0,0,1-.25.89,1.61,1.61,0,0,1-.73.57v0a1.49,1.49,0,0,1,1,.61,2,2,0,0,1,.33,1.16,1.91,1.91,0,0,1-.15.76,1.47,1.47,0,0,1-.45.61,2.25,2.25,0,0,1-.79.4A3.84,3.84,0,0,1,4,262.4H.8ZM2,258.4H4a1.08,1.08,0,0,0,.72-.24.88.88,0,0,0,.29-.71.91.91,0,0,0-.26-.73,1.19,1.19,0,0,0-.75-.21H2Zm0,3H4.13a1.18,1.18,0,0,0,.85-.29,1,1,0,0,0,.31-.8,1,1,0,0,0-.31-.78,1.18,1.18,0,0,0-.85-.28H2Z"/><path class="cls-5" d="M11.79,262.4H10.71v-.69h0a1.53,1.53,0,0,1-.61.6,1.59,1.59,0,0,1-.81.22,1.83,1.83,0,0,1-1.42-.48,2.15,2.15,0,0,1-.44-1.47v-3.16h1.1v3.06a1.33,1.33,0,0,0,.25.92.91.91,0,0,0,.7.27,1.39,1.39,0,0,0,.58-.11,1.08,1.08,0,0,0,.38-.28,1.14,1.14,0,0,0,.2-.43,2.35,2.35,0,0,0,.07-.54v-2.89h1.09Z"/><path class="cls-5" d="M15.65,255.53h1.1v6.87h-1.1Z"/><path class="cls-5" d="M20.22,262.53a2.74,2.74,0,0,1-1.06-.19,2.21,2.21,0,0,1-.79-.55,2.33,2.33,0,0,1-.49-.82,3.27,3.27,0,0,1-.17-1.06,3.21,3.21,0,0,1,.17-1.05,2.37,2.37,0,0,1,.49-.83,2.31,2.31,0,0,1,.79-.54,2.94,2.94,0,0,1,2.13,0,2.31,2.31,0,0,1,.79.54,2.37,2.37,0,0,1,.49.83,3.21,3.21,0,0,1,.17,1.05,3.27,3.27,0,0,1-.17,1.06,2.33,2.33,0,0,1-.49.82,2.21,2.21,0,0,1-.79.55A2.76,2.76,0,0,1,20.22,262.53Zm0-.86a1.19,1.19,0,0,0,.64-.16,1.21,1.21,0,0,0,.44-.4,1.8,1.8,0,0,0,.26-.56,2.6,2.6,0,0,0,0-1.28,1.7,1.7,0,0,0-.26-.56,1.21,1.21,0,0,0-.44-.4,1.34,1.34,0,0,0-1.27,0,1.21,1.21,0,0,0-.44.4,1.7,1.7,0,0,0-.26.56,2.6,2.6,0,0,0,0,1.28,1.8,1.8,0,0,0,.26.56,1.21,1.21,0,0,0,.44.4A1.18,1.18,0,0,0,20.22,261.67Z"/><path class="cls-5" d="M28.25,262.14a2.12,2.12,0,0,1-.63,1.68,2.65,2.65,0,0,1-1.81.55,3.91,3.91,0,0,1-.76-.07,2.59,2.59,0,0,1-.69-.26,1.88,1.88,0,0,1-.53-.48,1.55,1.55,0,0,1-.25-.74h1.1a1,1,0,0,0,.16.38.89.89,0,0,0,.28.23,1,1,0,0,0,.35.1,2.63,2.63,0,0,0,.41,0,1.28,1.28,0,0,0,1-.33,1.36,1.36,0,0,0,.31-1v-.76h0a1.71,1.71,0,0,1-.63.65,1.77,1.77,0,0,1-.87.23,2.25,2.25,0,0,1-1-.21,1.8,1.8,0,0,1-.69-.56,2.25,2.25,0,0,1-.4-.84,3.63,3.63,0,0,1-.13-1,3,3,0,0,1,.15-.95A2.51,2.51,0,0,1,24,258a2.34,2.34,0,0,1,.7-.54,2.24,2.24,0,0,1,.95-.2,1.8,1.8,0,0,1,.87.2,1.36,1.36,0,0,1,.61.62h0v-.69h1.09Zm-2.43-.61a1.21,1.21,0,0,0,.62-.15,1.18,1.18,0,0,0,.41-.39,1.47,1.47,0,0,0,.23-.56,2.72,2.72,0,0,0,.08-.63,2.43,2.43,0,0,0-.08-.61,1.51,1.51,0,0,0-.24-.53,1,1,0,0,0-.41-.37,1.31,1.31,0,0,0-.61-.14,1.19,1.19,0,0,0-.62.16,1.1,1.1,0,0,0-.4.4,1.46,1.46,0,0,0-.22.56,2.62,2.62,0,0,0-.07.62,2.46,2.46,0,0,0,.07.6,1.66,1.66,0,0,0,.24.52,1.32,1.32,0,0,0,.4.38A1.16,1.16,0,0,0,25.82,261.53Z"/><path class="cls-5" d="M31.64,262.53a2.71,2.71,0,0,1-1.06-.19,2.12,2.12,0,0,1-.79-.55,2.19,2.19,0,0,1-.49-.82,3,3,0,0,1-.17-1.06,3,3,0,0,1,.17-1.05,2.21,2.21,0,0,1,1.28-1.37,2.54,2.54,0,0,1,1.06-.2,2.62,2.62,0,0,1,1.07.2,2.18,2.18,0,0,1,.78.54,2.23,2.23,0,0,1,.49.83,3,3,0,0,1,.17,1.05A3,3,0,0,1,34,261a2.19,2.19,0,0,1-.49.82,2.09,2.09,0,0,1-.78.55A2.8,2.8,0,0,1,31.64,262.53Zm0-.86a1.22,1.22,0,0,0,.64-.16,1.3,1.3,0,0,0,.44-.4,1.78,1.78,0,0,0,.25-.56,2.32,2.32,0,0,0,0-1.28,1.68,1.68,0,0,0-.25-.56,1.3,1.3,0,0,0-.44-.4,1.32,1.32,0,0,0-.64-.16,1.28,1.28,0,0,0-.63.16,1.33,1.33,0,0,0-.45.4,1.68,1.68,0,0,0-.25.56,2.6,2.6,0,0,0,0,1.28,1.78,1.78,0,0,0,.25.56,1.33,1.33,0,0,0,.45.4A1.18,1.18,0,0,0,31.64,261.67Z"/><path class="cls-5" d="M37,255.36h1.05l-2.76,7.2h-1Z"/><path class="cls-5" d="M42.62,261.29a.52.52,0,0,0,.06.29.2.2,0,0,0,.2.09H43l.15,0v.76l-.15,0-.18.05-.2,0h-.16a1.08,1.08,0,0,1-.56-.13.69.69,0,0,1-.29-.47,2,2,0,0,1-.8.46,3,3,0,0,1-.92.14,2.25,2.25,0,0,1-.64-.09,1.66,1.66,0,0,1-.55-.27,1.17,1.17,0,0,1-.37-.45,1.31,1.31,0,0,1-.14-.64,1.39,1.39,0,0,1,.17-.75,1.27,1.27,0,0,1,.44-.45,2,2,0,0,1,.61-.24c.23-.05.46-.08.69-.11s.39-.06.57-.08a3,3,0,0,0,.48-.08.77.77,0,0,0,.32-.18.49.49,0,0,0,.12-.36.56.56,0,0,0-.1-.35.55.55,0,0,0-.25-.2,1.15,1.15,0,0,0-.33-.1l-.35,0a1.39,1.39,0,0,0-.76.2.72.72,0,0,0-.33.59h-1.1a1.67,1.67,0,0,1,.23-.79,1.49,1.49,0,0,1,.52-.51,2,2,0,0,1,.7-.27,3.71,3.71,0,0,1,.81-.08,2.84,2.84,0,0,1,.72.08,1.9,1.9,0,0,1,.64.25,1.3,1.3,0,0,1,.46.44,1.22,1.22,0,0,1,.17.67Zm-1.09-1.38a1.33,1.33,0,0,1-.62.19c-.24,0-.49.06-.73.11a1.3,1.3,0,0,0-.34.08,1,1,0,0,0-.29.14.57.57,0,0,0-.19.24.8.8,0,0,0-.08.36.47.47,0,0,0,.11.31.82.82,0,0,0,.25.2,1.15,1.15,0,0,0,.33.1l.32,0a1.9,1.9,0,0,0,.4-.05,1.52,1.52,0,0,0,.4-.16,1.11,1.11,0,0,0,.31-.3.75.75,0,0,0,.13-.43Z"/><path class="cls-5" d="M43.81,257.42h1v.7h0a1.84,1.84,0,0,1,.27-.34,1.35,1.35,0,0,1,.32-.26,1.53,1.53,0,0,1,.41-.17,2.09,2.09,0,0,1,.53-.06,1.86,1.86,0,0,1,.84.2,1.14,1.14,0,0,1,.55.63,2.21,2.21,0,0,1,.65-.61,1.7,1.7,0,0,1,.91-.22,1.83,1.83,0,0,1,1.23.38A1.66,1.66,0,0,1,51,259v3.44h-1.1v-2.91c0-.2,0-.38,0-.54a1,1,0,0,0-.11-.42.66.66,0,0,0-.27-.28,1.17,1.17,0,0,0-.5-.1.92.92,0,0,0-.81.35,1.63,1.63,0,0,0-.25,1v2.92h-1.1v-3.2a1.32,1.32,0,0,0-.19-.78.77.77,0,0,0-.69-.27,1,1,0,0,0-.41.09,1,1,0,0,0-.34.25,1.27,1.27,0,0,0-.24.41,1.55,1.55,0,0,0-.09.55v2.95h-1.1Z"/><path class="cls-5" d="M52.21,255.53h1.1v2.54h0a1.56,1.56,0,0,1,.64-.57,2.05,2.05,0,0,1,.41-.16,2.18,2.18,0,0,1,.43,0,2.4,2.4,0,0,1,1,.21,1.9,1.9,0,0,1,.72.56,2.54,2.54,0,0,1,.44.85,3.77,3.77,0,0,1,.14,1,3.54,3.54,0,0,1-.13,1,2.76,2.76,0,0,1-.39.83,2.09,2.09,0,0,1-.67.58,2.06,2.06,0,0,1-1,.21l-.5,0a1.69,1.69,0,0,1-.49-.13,1.79,1.79,0,0,1-.42-.25,1.26,1.26,0,0,1-.31-.4h0v.68h-1ZM56,259.92a2.84,2.84,0,0,0-.08-.66,1.92,1.92,0,0,0-.26-.56,1.3,1.3,0,0,0-.44-.4,1.15,1.15,0,0,0-.59-.15,1.23,1.23,0,0,0-1.05.49,2.14,2.14,0,0,0-.35,1.28,2.5,2.5,0,0,0,.09.69,1.48,1.48,0,0,0,.28.56,1.36,1.36,0,0,0,.43.36,1.27,1.27,0,0,0,.6.14,1.14,1.14,0,0,0,.63-.16,1.27,1.27,0,0,0,.43-.4,1.61,1.61,0,0,0,.24-.55A2.79,2.79,0,0,0,56,259.92Z"/><path class="cls-5" d="M58.09,255.53h1.1v6.87h-1.1Z"/><path class="cls-5" d="M61.24,260.2a2,2,0,0,0,.08.55,1.57,1.57,0,0,0,.25.48,1.19,1.19,0,0,0,.41.32,1.4,1.4,0,0,0,.6.12,1.28,1.28,0,0,0,.77-.21,1.16,1.16,0,0,0,.44-.62h1a2.11,2.11,0,0,1-.3.72,2,2,0,0,1-1.18.86,2.43,2.43,0,0,1-.77.11,2.61,2.61,0,0,1-1-.19,2.23,2.23,0,0,1-.77-.54,2.29,2.29,0,0,1-.47-.82,3.62,3.62,0,0,1-.16-1.06,3.06,3.06,0,0,1,.17-1,2.49,2.49,0,0,1,.48-.84,2.27,2.27,0,0,1,.76-.57,2.29,2.29,0,0,1,1-.21,2.26,2.26,0,0,1,1.05.24,2.36,2.36,0,0,1,.78.65,2.87,2.87,0,0,1,.45.93,3,3,0,0,1,.07,1.09Zm2.56-.73a1.72,1.72,0,0,0-.11-.5,1.19,1.19,0,0,0-.64-.7,1,1,0,0,0-.5-.12,1.24,1.24,0,0,0-.52.11,1.17,1.17,0,0,0-.41.27,1.43,1.43,0,0,0-.38.94Z"/><path class="cls-5" d="M65.74,257.42h1v.7h0a3.37,3.37,0,0,1,.27-.34,1.64,1.64,0,0,1,.33-.26,1.61,1.61,0,0,1,.4-.17,2.2,2.2,0,0,1,.53-.06,1.87,1.87,0,0,1,.85.2,1.14,1.14,0,0,1,.55.63,2.21,2.21,0,0,1,.65-.61,1.68,1.68,0,0,1,.91-.22,1.85,1.85,0,0,1,1.23.38A1.66,1.66,0,0,1,73,259v3.44h-1.1v-2.91c0-.2,0-.38,0-.54a1,1,0,0,0-.11-.42.63.63,0,0,0-.28-.28,1.1,1.1,0,0,0-.5-.1.94.94,0,0,0-.81.35,1.71,1.71,0,0,0-.25,1v2.92H68.8v-3.2a1.4,1.4,0,0,0-.19-.78.8.8,0,0,0-.69-.27,1,1,0,0,0-.41.09.94.94,0,0,0-.34.25,1.5,1.5,0,0,0-.25.41,1.55,1.55,0,0,0-.09.55v2.95H65.74Z"/><path class="cls-5" d="M77.73,260.11a1.51,1.51,0,0,0,.14.67,1.2,1.2,0,0,0,.37.46,1.47,1.47,0,0,0,.55.26,3,3,0,0,0,.68.08,2.24,2.24,0,0,0,.68-.09,1.37,1.37,0,0,0,.45-.24.81.81,0,0,0,.25-.33,1,1,0,0,0,.08-.38.81.81,0,0,0-.18-.58,1,1,0,0,0-.39-.26,8.75,8.75,0,0,0-.85-.26l-1.2-.31a2.54,2.54,0,0,1-.74-.31,1.74,1.74,0,0,1-.47-.42,1.49,1.49,0,0,1-.24-.49,1.83,1.83,0,0,1-.07-.53,1.8,1.8,0,0,1,.21-.89,2,2,0,0,1,.58-.64,2.56,2.56,0,0,1,.8-.37,3.65,3.65,0,0,1,1.93,0,2.76,2.76,0,0,1,.84.42,2.11,2.11,0,0,1,.57.69,1.93,1.93,0,0,1,.22.95H80.73a1.14,1.14,0,0,0-.45-.94,1.81,1.81,0,0,0-1-.27,2.09,2.09,0,0,0-.43,0,1.8,1.8,0,0,0-.41.14.89.89,0,0,0-.3.28.73.73,0,0,0-.12.43.7.7,0,0,0,.23.57,1.39,1.39,0,0,0,.59.32l.3.08.59.16.64.16.45.13a2,2,0,0,1,.59.28,2.78,2.78,0,0,1,.42.42,1.81,1.81,0,0,1,.33,1.05,1.9,1.9,0,0,1-.24,1,1.82,1.82,0,0,1-.62.67,2.53,2.53,0,0,1-.87.38,4.23,4.23,0,0,1-1,.12,3.9,3.9,0,0,1-1.1-.14,2.66,2.66,0,0,1-.91-.44,2.22,2.22,0,0,1-.61-.77,2.38,2.38,0,0,1-.24-1.1Z"/><path class="cls-5" d="M85.31,262.53a2.76,2.76,0,0,1-1.07-.19,2.21,2.21,0,0,1-.79-.55A2.33,2.33,0,0,1,83,261a3.27,3.27,0,0,1-.17-1.06,3.21,3.21,0,0,1,.17-1.05,2.37,2.37,0,0,1,.49-.83,2.31,2.31,0,0,1,.79-.54,2.94,2.94,0,0,1,2.13,0,2.31,2.31,0,0,1,.79.54,2.37,2.37,0,0,1,.49.83,3.21,3.21,0,0,1,.17,1.05,3.27,3.27,0,0,1-.17,1.06,2.33,2.33,0,0,1-.49.82,2.21,2.21,0,0,1-.79.55A2.74,2.74,0,0,1,85.31,262.53Zm0-.86a1.18,1.18,0,0,0,.63-.16,1.21,1.21,0,0,0,.44-.4,1.8,1.8,0,0,0,.26-.56,2.6,2.6,0,0,0,0-1.28,1.7,1.7,0,0,0-.26-.56,1.21,1.21,0,0,0-.44-.4,1.34,1.34,0,0,0-1.27,0,1.21,1.21,0,0,0-.44.4,1.7,1.7,0,0,0-.26.56,2.6,2.6,0,0,0,0,1.28,1.8,1.8,0,0,0,.26.56,1.21,1.21,0,0,0,.44.4A1.19,1.19,0,0,0,85.31,261.67Z"/><path class="cls-5" d="M88.76,255.53h1.1v6.87h-1.1Z"/><path class="cls-5" d="M91.08,255.53h1.1v1h-1.1Zm0,1.89h1.1v5h-1.1Z"/><path class="cls-5" d="M98.06,262.4H97v-.67h0a1.33,1.33,0,0,1-.64.62,2.3,2.3,0,0,1-.9.18,2.32,2.32,0,0,1-1-.2,2,2,0,0,1-.73-.57,2.23,2.23,0,0,1-.43-.84,3.49,3.49,0,0,1-.15-1,3.43,3.43,0,0,1,.18-1.17,2.69,2.69,0,0,1,.49-.81,1.86,1.86,0,0,1,.69-.46,2.22,2.22,0,0,1,.8-.15,2.56,2.56,0,0,1,.47,0,2.44,2.44,0,0,1,.46.14,1.87,1.87,0,0,1,.41.25,1.15,1.15,0,0,1,.31.35h0v-2.54h1.1ZM94.23,260a2.59,2.59,0,0,0,.08.63,1.85,1.85,0,0,0,.25.55,1.26,1.26,0,0,0,1,.53,1.18,1.18,0,0,0,.63-.16,1.27,1.27,0,0,0,.43-.4,1.78,1.78,0,0,0,.25-.56,2.8,2.8,0,0,0,.08-.64,2,2,0,0,0-.37-1.29,1.23,1.23,0,0,0-1-.47,1.33,1.33,0,0,0-.65.16,1.44,1.44,0,0,0-.43.42,1.77,1.77,0,0,0-.24.58A2.81,2.81,0,0,0,94.23,260Z"/><path class="cls-5" d="M102.08,255.53h5v1h-3.74v1.8h3.46v1h-3.46v2h3.81v1h-5Z"/><path class="cls-5" d="M108,255.53h1.1v6.87H108Z"/><path class="cls-5" d="M111.17,260.2a2,2,0,0,0,.08.55,1.57,1.57,0,0,0,.25.48,1.19,1.19,0,0,0,.41.32,1.4,1.4,0,0,0,.6.12,1.28,1.28,0,0,0,.77-.21,1.21,1.21,0,0,0,.44-.62h1a2.11,2.11,0,0,1-.3.72,2,2,0,0,1-1.18.86,2.43,2.43,0,0,1-.77.11,2.61,2.61,0,0,1-1-.19,2.23,2.23,0,0,1-.77-.54,2.29,2.29,0,0,1-.47-.82,3.32,3.32,0,0,1-.16-1.06,3.06,3.06,0,0,1,.17-1,2.49,2.49,0,0,1,.48-.84,2.27,2.27,0,0,1,.76-.57,2.29,2.29,0,0,1,1-.21,2.26,2.26,0,0,1,1,.24,2.47,2.47,0,0,1,.78.65,2.87,2.87,0,0,1,.45.93,3,3,0,0,1,.07,1.09Zm2.56-.73a1.72,1.72,0,0,0-.11-.5,1.27,1.27,0,0,0-.25-.42,1.39,1.39,0,0,0-.39-.28,1,1,0,0,0-.5-.12,1.24,1.24,0,0,0-.52.11,1.17,1.17,0,0,0-.41.27,1.43,1.43,0,0,0-.38.94Z"/><path class="cls-5" d="M119,259.09a1,1,0,0,0-.38-.7,1.17,1.17,0,0,0-.76-.24,1.53,1.53,0,0,0-.45.08,1.06,1.06,0,0,0-.45.27,1.51,1.51,0,0,0-.33.55,2.56,2.56,0,0,0-.14.91,3.18,3.18,0,0,0,.07.62,1.61,1.61,0,0,0,.24.55,1.24,1.24,0,0,0,.4.39,1.17,1.17,0,0,0,.61.15,1.12,1.12,0,0,0,.8-.3,1.5,1.5,0,0,0,.39-.84h1.09a2.43,2.43,0,0,1-.73,1.49,2.28,2.28,0,0,1-1.55.51,2.56,2.56,0,0,1-1-.19,2.19,2.19,0,0,1-.76-.54,2.5,2.5,0,0,1-.47-.81,3.42,3.42,0,0,1-.15-1,3.49,3.49,0,0,1,.15-1,2.45,2.45,0,0,1,.46-.86,2.07,2.07,0,0,1,.77-.56,2.52,2.52,0,0,1,1.07-.21,3.12,3.12,0,0,1,.82.11,2.15,2.15,0,0,1,.7.33,1.89,1.89,0,0,1,.49.56,1.79,1.79,0,0,1,.23.8Z"/><path class="cls-5" d="M120.52,257.42h.83v-1.49h1.09v1.49h1v.82h-1v2.66a2.66,2.66,0,0,0,0,.3.65.65,0,0,0,.06.21.34.34,0,0,0,.16.13.78.78,0,0,0,.29,0h.23l.23,0v.85l-.35,0-.36,0a2.64,2.64,0,0,1-.7-.08,1.09,1.09,0,0,1-.41-.24.8.8,0,0,1-.2-.4,2.32,2.32,0,0,1-.06-.55v-2.94h-.83Z"/><path class="cls-5" d="M124.22,257.42h1v1h0a1.13,1.13,0,0,1,.19-.4,1.87,1.87,0,0,1,.34-.35,1.7,1.7,0,0,1,.43-.26,1.43,1.43,0,0,1,.5-.09H127l.15,0v1.06l-.24,0h-.23a1.21,1.21,0,0,0-1,.44,1.57,1.57,0,0,0-.28.53,2.33,2.33,0,0,0-.11.73v2.37h-1.1Z"/><path class="cls-5" d="M129.72,262.53a2.71,2.71,0,0,1-1.06-.19,2,2,0,0,1-.79-.55,2.19,2.19,0,0,1-.49-.82,3,3,0,0,1-.17-1.06,3,3,0,0,1,.17-1.05,2.23,2.23,0,0,1,.49-.83,2.14,2.14,0,0,1,.79-.54,2.91,2.91,0,0,1,2.12,0,2.21,2.21,0,0,1,1.28,1.37,3,3,0,0,1,.17,1.05,3,3,0,0,1-.17,1.06,2.19,2.19,0,0,1-.49.82,2.12,2.12,0,0,1-.79.55A2.71,2.71,0,0,1,129.72,262.53Zm0-.86a1.22,1.22,0,0,0,.64-.16,1.3,1.3,0,0,0,.44-.4,1.78,1.78,0,0,0,.25-.56,2.6,2.6,0,0,0,0-1.28,1.68,1.68,0,0,0-.25-.56,1.3,1.3,0,0,0-.44-.4,1.36,1.36,0,0,0-1.28,0,1.3,1.3,0,0,0-.44.4,1.68,1.68,0,0,0-.25.56,2.32,2.32,0,0,0,0,1.28,1.78,1.78,0,0,0,.25.56,1.3,1.3,0,0,0,.44.4A1.22,1.22,0,0,0,129.72,261.67Z"/><path class="cls-5" d="M133.15,257.42h1v.73l0,0a1.84,1.84,0,0,1,.65-.65,1.82,1.82,0,0,1,.89-.23,1.86,1.86,0,0,1,1.29.42,1.61,1.61,0,0,1,.48,1.27v3.42h-1.1v-3.13a1.36,1.36,0,0,0-.25-.85.9.9,0,0,0-.72-.27,1.12,1.12,0,0,0-.5.11,1.05,1.05,0,0,0-.38.27,1.46,1.46,0,0,0-.33.93v2.94h-1.09Z"/><path class="cls-5" d="M141.5,255.53h1.21v3.13l3.06-3.13h1.48l-2.75,2.74,2.94,4.13h-1.5l-2.25-3.28-1,1v2.31H141.5Z"/><path class="cls-5" d="M150.22,262.53a2.71,2.71,0,0,1-1.06-.19,2.12,2.12,0,0,1-.79-.55,2.19,2.19,0,0,1-.49-.82,3.27,3.27,0,0,1-.17-1.06,3.21,3.21,0,0,1,.17-1.05,2.21,2.21,0,0,1,1.28-1.37,2.54,2.54,0,0,1,1.06-.2,2.62,2.62,0,0,1,1.07.2,2.31,2.31,0,0,1,.79.54,2.53,2.53,0,0,1,.49.83,3.21,3.21,0,0,1,.17,1.05,3.27,3.27,0,0,1-.17,1.06,2.49,2.49,0,0,1-.49.82,2.21,2.21,0,0,1-.79.55A2.8,2.8,0,0,1,150.22,262.53Zm0-.86a1.19,1.19,0,0,0,.64-.16,1.21,1.21,0,0,0,.44-.4,1.8,1.8,0,0,0,.26-.56,2.6,2.6,0,0,0,0-1.28,1.7,1.7,0,0,0-.26-.56,1.21,1.21,0,0,0-.44-.4,1.34,1.34,0,0,0-1.27,0,1.33,1.33,0,0,0-.45.4,1.68,1.68,0,0,0-.25.56,2.6,2.6,0,0,0,0,1.28,1.78,1.78,0,0,0,.25.56,1.33,1.33,0,0,0,.45.4A1.18,1.18,0,0,0,150.22,261.67Z"/><path class="cls-5" d="M153.65,257.42h1v.73l0,0a1.92,1.92,0,0,1,.65-.65,1.83,1.83,0,0,1,.9-.23,1.89,1.89,0,0,1,1.29.42A1.64,1.64,0,0,1,158,259v3.42h-1.1v-3.13a1.3,1.3,0,0,0-.25-.85.89.89,0,0,0-.72-.27,1.23,1.23,0,0,0-.88.38,1.44,1.44,0,0,0-.24.42,1.7,1.7,0,0,0-.08.51v2.94h-1.1Z"/><path class="cls-5" d="M158.67,257.42h.83v-1.49h1.1v1.49h1v.82h-1v2.66a2.81,2.81,0,0,0,0,.3.65.65,0,0,0,.07.21.34.34,0,0,0,.16.13.78.78,0,0,0,.29,0h.23l.23,0v.85l-.36,0-.35,0a2.64,2.64,0,0,1-.7-.08,1,1,0,0,1-.41-.24.9.9,0,0,1-.21-.4,4.21,4.21,0,0,1-.06-.55v-2.94h-.83Z"/><path class="cls-5" d="M162.38,257.42h1v1h0a1,1,0,0,1,.19-.4,1.81,1.81,0,0,1,.33-.35,2,2,0,0,1,.44-.26,1.41,1.41,0,0,1,.49-.09h.27l.15,0v1.06l-.24,0h-.23a1.17,1.17,0,0,0-.53.11,1.13,1.13,0,0,0-.43.33,1.58,1.58,0,0,0-.29.53,2.34,2.34,0,0,0-.1.73v2.37h-1.1Z"/><path class="cls-5" d="M167.88,262.53a2.76,2.76,0,0,1-1.07-.19,2.21,2.21,0,0,1-.79-.55,2.33,2.33,0,0,1-.49-.82,3.27,3.27,0,0,1-.17-1.06,3.21,3.21,0,0,1,.17-1.05A2.37,2.37,0,0,1,166,258a2.31,2.31,0,0,1,.79-.54,2.94,2.94,0,0,1,2.13,0,2.31,2.31,0,0,1,.79.54,2.37,2.37,0,0,1,.49.83,3.21,3.21,0,0,1,.17,1.05,3.27,3.27,0,0,1-.17,1.06,2.33,2.33,0,0,1-.49.82,2.21,2.21,0,0,1-.79.55A2.74,2.74,0,0,1,167.88,262.53Zm0-.86a1.18,1.18,0,0,0,.63-.16,1.33,1.33,0,0,0,.45-.4,1.78,1.78,0,0,0,.25-.56,2.6,2.6,0,0,0,0-1.28,1.68,1.68,0,0,0-.25-.56,1.33,1.33,0,0,0-.45-.4,1.34,1.34,0,0,0-1.27,0,1.21,1.21,0,0,0-.44.4,1.7,1.7,0,0,0-.26.56,2.6,2.6,0,0,0,0,1.28,1.8,1.8,0,0,0,.26.56,1.21,1.21,0,0,0,.44.4A1.19,1.19,0,0,0,167.88,261.67Z"/><path class="cls-5" d="M171.33,255.53h1.1v6.87h-1.1Z"/><path class="cls-5" d="M175.8,255.53h5.56v1h-2.18v5.83H178v-5.83H175.8Z"/><path class="cls-5" d="M181.79,260.2a1.71,1.71,0,0,0,.09.55,1.35,1.35,0,0,0,.24.48,1.23,1.23,0,0,0,.42.32,1.54,1.54,0,0,0,1.37-.09,1.27,1.27,0,0,0,.44-.62h1a2.11,2.11,0,0,1-.3.72,2,2,0,0,1-1.18.86,2.54,2.54,0,0,1-.78.11,2.64,2.64,0,0,1-1-.19,2.19,2.19,0,0,1-.76-.54,2.15,2.15,0,0,1-.47-.82,3.32,3.32,0,0,1-.16-1.06,2.82,2.82,0,0,1,.17-1,2.49,2.49,0,0,1,.48-.84,2.24,2.24,0,0,1,1.76-.78,2.26,2.26,0,0,1,1,.24,2.32,2.32,0,0,1,.77.65,2.52,2.52,0,0,1,.45.93,2.83,2.83,0,0,1,.07,1.09Zm2.57-.73a2.13,2.13,0,0,0-.11-.5,1.73,1.73,0,0,0-.25-.42,1.39,1.39,0,0,0-.39-.28,1.06,1.06,0,0,0-.5-.12,1.29,1.29,0,0,0-.53.11,1.13,1.13,0,0,0-.4.27,1.17,1.17,0,0,0-.27.42,1.52,1.52,0,0,0-.12.52Z"/><path class="cls-5" d="M186.32,255.53h1.1v3.91l2-2h1.35l-1.91,1.83,2.09,3.15h-1.34L188.07,260l-.65.64v1.78h-1.1Z"/><path class="cls-5" d="M191.46,257.42h1v.73l0,0a1.92,1.92,0,0,1,.65-.65,1.83,1.83,0,0,1,.9-.23,1.89,1.89,0,0,1,1.29.42,1.64,1.64,0,0,1,.47,1.27v3.42h-1.1v-3.13a1.3,1.3,0,0,0-.25-.85.89.89,0,0,0-.72-.27,1.23,1.23,0,0,0-.88.38,1.44,1.44,0,0,0-.24.42,1.7,1.7,0,0,0-.08.51v2.94h-1.1Z"/><path class="cls-5" d="M199.27,262.53a2.76,2.76,0,0,1-1.07-.19,2.21,2.21,0,0,1-.79-.55,2.49,2.49,0,0,1-.49-.82,3.27,3.27,0,0,1-.17-1.06,3.21,3.21,0,0,1,.17-1.05,2.53,2.53,0,0,1,.49-.83,2.31,2.31,0,0,1,.79-.54,2.94,2.94,0,0,1,2.13,0,2.31,2.31,0,0,1,.79.54,2.37,2.37,0,0,1,.49.83,3.21,3.21,0,0,1,.17,1.05,3.27,3.27,0,0,1-.17,1.06,2.33,2.33,0,0,1-.49.82,2.21,2.21,0,0,1-.79.55A2.74,2.74,0,0,1,199.27,262.53Zm0-.86a1.18,1.18,0,0,0,.63-.16,1.21,1.21,0,0,0,.44-.4,1.8,1.8,0,0,0,.26-.56,2.6,2.6,0,0,0,0-1.28,1.7,1.7,0,0,0-.26-.56,1.21,1.21,0,0,0-.44-.4,1.34,1.34,0,0,0-1.27,0,1.21,1.21,0,0,0-.44.4,1.7,1.7,0,0,0-.26.56,2.6,2.6,0,0,0,0,1.28,1.8,1.8,0,0,0,.26.56,1.21,1.21,0,0,0,.44.4A1.19,1.19,0,0,0,199.27,261.67Z"/><path class="cls-5" d="M202.72,255.53h1.1v6.87h-1.1Z"/><path class="cls-5" d="M207.29,262.53a2.74,2.74,0,0,1-1.06-.19,2.21,2.21,0,0,1-.79-.55A2.33,2.33,0,0,1,205,261a3.27,3.27,0,0,1-.17-1.06,3.21,3.21,0,0,1,.17-1.05,2.37,2.37,0,0,1,.49-.83,2.31,2.31,0,0,1,.79-.54,2.94,2.94,0,0,1,2.13,0,2.31,2.31,0,0,1,.79.54,2.37,2.37,0,0,1,.49.83,3.21,3.21,0,0,1,.17,1.05,3.27,3.27,0,0,1-.17,1.06,2.33,2.33,0,0,1-.49.82,2.21,2.21,0,0,1-.79.55A2.76,2.76,0,0,1,207.29,262.53Zm0-.86a1.19,1.19,0,0,0,.64-.16,1.21,1.21,0,0,0,.44-.4,1.8,1.8,0,0,0,.26-.56,2.6,2.6,0,0,0,0-1.28,1.7,1.7,0,0,0-.26-.56,1.21,1.21,0,0,0-.44-.4,1.34,1.34,0,0,0-1.27,0,1.21,1.21,0,0,0-.44.4,1.7,1.7,0,0,0-.26.56,2.6,2.6,0,0,0,0,1.28,1.8,1.8,0,0,0,.26.56,1.21,1.21,0,0,0,.44.4A1.18,1.18,0,0,0,207.29,261.67Z"/><path class="cls-5" d="M210.75,257.42h1.1v5.4a1.77,1.77,0,0,1-.33,1.15,1.33,1.33,0,0,1-1.1.4h-.27a.83.83,0,0,1-.22,0v-.86l.2,0h.18c.2,0,.32-.06.37-.19a1.5,1.5,0,0,0,.07-.54Zm0-1.89h1.1v1h-1.1Z"/><path class="cls-5" d="M213.07,255.53h1.1v1h-1.1Zm0,1.89h1.1v5h-1.1Z"/><path class="cls-5" d="M215.39,255.53h1.1v6.87h-1.1Z"/><path class="cls-5" d="M218.54,260.2a1.7,1.7,0,0,0,.08.55,1.38,1.38,0,0,0,.25.48,1.11,1.11,0,0,0,.41.32,1.37,1.37,0,0,0,.6.12,1.28,1.28,0,0,0,.77-.21,1.21,1.21,0,0,0,.44-.62h1a2.11,2.11,0,0,1-.3.72,2,2,0,0,1-1.18.86,2.47,2.47,0,0,1-.77.11,2.57,2.57,0,0,1-1-.19,2.23,2.23,0,0,1-.77-.54,2.29,2.29,0,0,1-.47-.82,3.32,3.32,0,0,1-.16-1.06,3.06,3.06,0,0,1,.17-1,2.49,2.49,0,0,1,.48-.84,2.39,2.39,0,0,1,2.81-.54,2.47,2.47,0,0,1,.78.65,2.66,2.66,0,0,1,.44.93,2.83,2.83,0,0,1,.08,1.09Zm2.56-.73a1.72,1.72,0,0,0-.11-.5,1.46,1.46,0,0,0-.25-.42,1.39,1.39,0,0,0-.39-.28,1.06,1.06,0,0,0-.5-.12,1.29,1.29,0,0,0-.53.11,1.23,1.23,0,0,0-.4.27,1.51,1.51,0,0,0-.27.42,1.31,1.31,0,0,0-.11.52Z"/><path class="cls-5" d="M223,257.42h1v1h0a1.13,1.13,0,0,1,.19-.4,1.87,1.87,0,0,1,.34-.35,1.7,1.7,0,0,1,.43-.26,1.47,1.47,0,0,1,.5-.09h.26l.15,0v1.06l-.24,0h-.23a1.2,1.2,0,0,0-.53.11,1.1,1.1,0,0,0-.42.33,1.42,1.42,0,0,0-.29.53,2.33,2.33,0,0,0-.11.73v2.37H223Z"/><path class="cls-5" d="M226.45,255.53h1.1v1h-1.1Zm0,1.89h1.1v5h-1.1Z"/><path class="cls-5" d="M232.36,260.11a1.51,1.51,0,0,0,.14.67,1.2,1.2,0,0,0,.37.46,1.55,1.55,0,0,0,.55.26,3,3,0,0,0,.68.08,2.24,2.24,0,0,0,.68-.09,1.37,1.37,0,0,0,.45-.24.81.81,0,0,0,.25-.33,1,1,0,0,0,.08-.38.81.81,0,0,0-.18-.58,1,1,0,0,0-.39-.26,8.75,8.75,0,0,0-.85-.26l-1.2-.31a2.54,2.54,0,0,1-.74-.31,1.74,1.74,0,0,1-.47-.42,1.49,1.49,0,0,1-.24-.49,1.83,1.83,0,0,1-.07-.53,1.8,1.8,0,0,1,.21-.89,2,2,0,0,1,.58-.64,2.51,2.51,0,0,1,.81-.37,3.5,3.5,0,0,1,.91-.12,3.75,3.75,0,0,1,1,.14,2.82,2.82,0,0,1,.83.42,2.27,2.27,0,0,1,.58.69,2,2,0,0,1,.21.95h-1.21a1.14,1.14,0,0,0-.45-.94,1.81,1.81,0,0,0-1-.27,2.15,2.15,0,0,0-.43,0,1.8,1.8,0,0,0-.41.14.89.89,0,0,0-.3.28.83.83,0,0,0,.11,1,1.45,1.45,0,0,0,.59.32l.3.08.59.16.64.16.45.13a2,2,0,0,1,.59.28,2.09,2.09,0,0,1,.42.42,1.81,1.81,0,0,1,.33,1.05,1.9,1.9,0,0,1-.24,1,1.82,1.82,0,0,1-.62.67,2.53,2.53,0,0,1-.87.38,4.21,4.21,0,0,1-1,.12,4,4,0,0,1-1.11-.14A2.66,2.66,0,0,1,232,262a2.22,2.22,0,0,1-.61-.77,2.38,2.38,0,0,1-.24-1.1Z"/><path class="cls-5" d="M241.82,261.29a.52.52,0,0,0,.06.29.2.2,0,0,0,.2.09h.12l.15,0v.76l-.15,0-.18.05-.2,0h-.16a1.06,1.06,0,0,1-.56-.13.69.69,0,0,1-.29-.47,2,2,0,0,1-.8.46,3.07,3.07,0,0,1-.92.14,2.32,2.32,0,0,1-.65-.09,1.71,1.71,0,0,1-.54-.27,1.17,1.17,0,0,1-.37-.45,1.32,1.32,0,0,1-.15-.64,1.49,1.49,0,0,1,.17-.75,1.29,1.29,0,0,1,.45-.45,1.94,1.94,0,0,1,.61-.24c.23-.05.46-.08.69-.11s.39-.06.57-.08a3,3,0,0,0,.48-.08.77.77,0,0,0,.32-.18.49.49,0,0,0,.12-.36.56.56,0,0,0-.1-.35.6.6,0,0,0-.25-.2,1.15,1.15,0,0,0-.33-.1l-.35,0a1.39,1.39,0,0,0-.76.2.72.72,0,0,0-.33.59h-1.1a1.57,1.57,0,0,1,.23-.79,1.46,1.46,0,0,1,.51-.51,2.09,2.09,0,0,1,.71-.27,3.65,3.65,0,0,1,.81-.08,2.94,2.94,0,0,1,.72.08,1.9,1.9,0,0,1,.64.25,1.38,1.38,0,0,1,.46.44,1.22,1.22,0,0,1,.17.67Zm-1.09-1.38a1.33,1.33,0,0,1-.62.19c-.24,0-.49.06-.73.11a1.3,1.3,0,0,0-.34.08,1,1,0,0,0-.29.14.68.68,0,0,0-.2.24,1,1,0,0,0-.07.36.47.47,0,0,0,.11.31.82.82,0,0,0,.25.2,1.15,1.15,0,0,0,.33.1l.32,0a1.9,1.9,0,0,0,.4-.05,1.52,1.52,0,0,0,.4-.16,1.11,1.11,0,0,0,.31-.3.75.75,0,0,0,.13-.43Z"/><path class="cls-5" d="M243,257.42h1v.73l0,0a1.75,1.75,0,0,1,1.55-.88,1.89,1.89,0,0,1,1.29.42,1.64,1.64,0,0,1,.47,1.27v3.42h-1.1v-3.13a1.36,1.36,0,0,0-.25-.85.9.9,0,0,0-.72-.27,1.15,1.15,0,0,0-.5.11,1.05,1.05,0,0,0-.38.27,1.46,1.46,0,0,0-.33.93v2.94H243Z"/><path class="cls-5" d="M248.62,261.1H250v1.3h-1.34Z"/><path class="cls-5" d="M253.39,257.42h1.2l1.26,3.82h0l1.21-3.82h1.14l-1.78,5H255.2Z"/><path class="cls-5" d="M259.74,260.2a1.7,1.7,0,0,0,.08.55,1.54,1.54,0,0,0,.24.48,1.23,1.23,0,0,0,.42.32,1.34,1.34,0,0,0,.6.12,1.3,1.3,0,0,0,.77-.21,1.27,1.27,0,0,0,.44-.62h1a2.11,2.11,0,0,1-.3.72,2,2,0,0,1-1.18.86,2.52,2.52,0,0,1-.77.11,2.57,2.57,0,0,1-1-.19A2.17,2.17,0,0,1,258.8,261a3.32,3.32,0,0,1-.16-1.06,3.06,3.06,0,0,1,.17-1,2.49,2.49,0,0,1,.48-.84,2.24,2.24,0,0,1,1.76-.78,2.26,2.26,0,0,1,1.05.24,2.47,2.47,0,0,1,.78.65,2.82,2.82,0,0,1,.51,2Zm2.56-.73a1.72,1.72,0,0,0-.11-.5,1.46,1.46,0,0,0-.25-.42,1.39,1.39,0,0,0-.39-.28,1.06,1.06,0,0,0-.5-.12,1.29,1.29,0,0,0-.53.11,1.13,1.13,0,0,0-.4.27,1.43,1.43,0,0,0-.38.94Z"/><path class="cls-5" d="M266.41,255.53H272v1h-2.18v5.83h-1.21v-5.83h-2.17Z"/><path class="cls-5" d="M272.65,255.53h1.09v1h-1.09Zm0,1.89h1.09v5h-1.09Z"/><path class="cls-5" d="M278.3,259.09a1.07,1.07,0,0,0-.37-.7,1.22,1.22,0,0,0-.77-.24,1.53,1.53,0,0,0-.45.08,1.06,1.06,0,0,0-.45.27,1.51,1.51,0,0,0-.33.55,2.76,2.76,0,0,0-.06,1.53,1.43,1.43,0,0,0,.23.55,1.18,1.18,0,0,0,.41.39,1.14,1.14,0,0,0,.6.15,1.12,1.12,0,0,0,.8-.3,1.44,1.44,0,0,0,.39-.84h1.09a2.43,2.43,0,0,1-.73,1.49,2.28,2.28,0,0,1-1.55.51,2.56,2.56,0,0,1-1-.19,2.19,2.19,0,0,1-.76-.54,2.5,2.5,0,0,1-.47-.81,3.42,3.42,0,0,1-.15-1,3.49,3.49,0,0,1,.15-1,2.45,2.45,0,0,1,.46-.86,2.07,2.07,0,0,1,.77-.56,2.52,2.52,0,0,1,1.07-.21,3.12,3.12,0,0,1,.82.11,2.15,2.15,0,0,1,.7.33,1.89,1.89,0,0,1,.49.56,1.79,1.79,0,0,1,.23.8Z"/><path class="cls-5" d="M280.38,261.1h1.33v1.3h-1.33Z"/><path class="cls-5" d="M287.63,255.53h1.28l2.65,6.87h-1.29l-.64-1.82h-2.75l-.64,1.82H285Zm-.42,4.14h2.1l-1-3h0Z"/><path class="cls-5" d="M292.15,261.1h1.34v1.3h-1.34Z"/><path class="cls-5" d="M295.66,263.94l.32.12a1.55,1.55,0,0,0,.31,0h.2a.6.6,0,0,0,.19-.06.33.33,0,0,0,.14-.12.31.31,0,0,0,.05-.2.29.29,0,0,0-.14-.27.47.47,0,0,0-.3-.1.76.76,0,0,0-.37.1l-.22-.18.54-.72a5,5,0,0,1-.58-.1,2,2,0,0,1-.69-.32,1.58,1.58,0,0,1-.46-.54,1.57,1.57,0,0,1-.18-.77h1.09a.87.87,0,0,0,.37.68,1.53,1.53,0,0,0,.76.19l.35,0a1.12,1.12,0,0,0,.37-.09.73.73,0,0,0,.29-.19.56.56,0,0,0,.1-.35.48.48,0,0,0-.16-.34,1.1,1.1,0,0,0-.37-.22,4.6,4.6,0,0,0-.51-.14l-.59-.12a5.72,5.72,0,0,1-.59-.17,1.75,1.75,0,0,1-.51-.26,1.22,1.22,0,0,1-.36-.42,1.33,1.33,0,0,1-.14-.63,1.16,1.16,0,0,1,.2-.68,1.52,1.52,0,0,1,.5-.44,2.1,2.1,0,0,1,.68-.23,3.46,3.46,0,0,1,.7-.07,3.57,3.57,0,0,1,.74.08,2,2,0,0,1,.63.27,1.65,1.65,0,0,1,.48.47,1.7,1.7,0,0,1,.23.71h-1.14a.71.71,0,0,0-.36-.53,1.51,1.51,0,0,0-.65-.14l-.28,0a1.67,1.67,0,0,0-.3.08.51.51,0,0,0-.23.15.35.35,0,0,0-.1.26.42.42,0,0,0,.14.33,1,1,0,0,0,.37.21,4.6,4.6,0,0,0,.51.14l.6.12c.2.05.39.1.59.17a1.75,1.75,0,0,1,.51.26,1.33,1.33,0,0,1,.37.41,1.29,1.29,0,0,1,.14.62,1.32,1.32,0,0,1-.21.75,1.66,1.66,0,0,1-.52.5,2.51,2.51,0,0,1-.72.28,4.25,4.25,0,0,1-.61.08l-.34.44h0a.28.28,0,0,1,.13,0h.19a1,1,0,0,1,.29,0,.94.94,0,0,1,.26.14.82.82,0,0,1,.19.22.66.66,0,0,1,.07.32.71.71,0,0,1-.1.41.87.87,0,0,1-.27.27,1.11,1.11,0,0,1-.37.15,1.52,1.52,0,0,1-.42.06,2.18,2.18,0,0,1-.52-.06,1.47,1.47,0,0,1-.47-.17Z"/><path class="cls-5" d="M299.82,261.1h1.34v1.3h-1.34Z"/><path class="cls-5" d="M302.57,257.68a.57.57,0,0,0,.47-.29,1.25,1.25,0,0,0,.12-.56h-.59v-1.3h1.21v1.3a1.43,1.43,0,0,1-.33.95,1.33,1.33,0,0,1-.88.46Z"/><path class="cls-5" d="M304.54,257.42h1.2l1.3,3.72h0l1.26-3.72h1.14l-1.93,5.25-.26.64a2.65,2.65,0,0,1-.32.55,1.31,1.31,0,0,1-.47.37,1.5,1.5,0,0,1-.71.14,6.33,6.33,0,0,1-.76-.05v-.93l.26.05.26,0a1,1,0,0,0,.32,0,.48.48,0,0,0,.2-.14.69.69,0,0,0,.14-.22,1.82,1.82,0,0,0,.11-.28l.12-.39Z"/><path class="cls-5" d="M310.94,260.2a1.7,1.7,0,0,0,.08.55,1.38,1.38,0,0,0,.25.48,1.11,1.11,0,0,0,.41.32,1.37,1.37,0,0,0,.6.12,1.28,1.28,0,0,0,.77-.21,1.21,1.21,0,0,0,.44-.62h1a2.11,2.11,0,0,1-.3.72,2,2,0,0,1-1.18.86,2.52,2.52,0,0,1-.77.11,2.57,2.57,0,0,1-1-.19,2.14,2.14,0,0,1-.77-.54A2.29,2.29,0,0,1,310,261a3.32,3.32,0,0,1-.16-1.06,3.06,3.06,0,0,1,.17-1,2.49,2.49,0,0,1,.48-.84,2.27,2.27,0,0,1,.76-.57,2.29,2.29,0,0,1,1-.21,2.26,2.26,0,0,1,1.05.24,2.47,2.47,0,0,1,.78.65,2.66,2.66,0,0,1,.44.93,2.83,2.83,0,0,1,.08,1.09Zm2.56-.73a1.72,1.72,0,0,0-.11-.5,1.46,1.46,0,0,0-.25-.42,1.39,1.39,0,0,0-.39-.28,1.06,1.06,0,0,0-.5-.12,1.29,1.29,0,0,0-.53.11,1.13,1.13,0,0,0-.4.27,1.51,1.51,0,0,0-.27.42,1.31,1.31,0,0,0-.11.52Z"/><path class="cls-5" d="M317.56,257.42h1.2l1.3,3.72h0l1.26-3.72h1.15l-1.94,5.25c-.09.22-.17.44-.26.64a2.27,2.27,0,0,1-.32.55,1.23,1.23,0,0,1-.47.37,1.47,1.47,0,0,1-.71.14,6.47,6.47,0,0,1-.76-.05v-.93l.26.05.26,0a.93.93,0,0,0,.32,0,.6.6,0,0,0,.21-.14.93.93,0,0,0,.14-.22c0-.08.07-.18.1-.28l.13-.39Z"/><path class="cls-5" d="M324,260.2a2,2,0,0,0,.08.55,1.57,1.57,0,0,0,.25.48,1.3,1.3,0,0,0,.41.32,1.4,1.4,0,0,0,.6.12,1.28,1.28,0,0,0,.77-.21,1.16,1.16,0,0,0,.44-.62h1a2.11,2.11,0,0,1-.3.72,2,2,0,0,1-1.18.86,2.43,2.43,0,0,1-.77.11,2.61,2.61,0,0,1-1-.19,2.23,2.23,0,0,1-.77-.54A2.45,2.45,0,0,1,323,261a3.62,3.62,0,0,1-.16-1.06,3.06,3.06,0,0,1,.17-1,2.49,2.49,0,0,1,.48-.84,2.27,2.27,0,0,1,.76-.57,2.29,2.29,0,0,1,1-.21,2.26,2.26,0,0,1,1.05.24,2.36,2.36,0,0,1,.78.65,2.87,2.87,0,0,1,.45.93,3,3,0,0,1,.07,1.09Zm2.56-.73a1.72,1.72,0,0,0-.11-.5,1.27,1.27,0,0,0-.25-.42,1.34,1.34,0,0,0-.38-.28,1.1,1.1,0,0,0-.51-.12,1.24,1.24,0,0,0-.52.11,1.17,1.17,0,0,0-.41.27,1.43,1.43,0,0,0-.38.94Z"/><path class="cls-5" d="M328,257.42h.82v-1.49h1.1v1.49h1v.82h-1v2.66a2.66,2.66,0,0,0,0,.3.65.65,0,0,0,.06.21.34.34,0,0,0,.16.13.78.78,0,0,0,.29,0h.23l.23,0v.85l-.35,0-.36,0a2.64,2.64,0,0,1-.7-.08,1.09,1.09,0,0,1-.41-.24.8.8,0,0,1-.2-.4,2.94,2.94,0,0,1-.07-.55v-2.94H328Z"/><path class="cls-5" d="M331.69,255.53h1.1v3.91l2-2h1.35l-1.91,1.83,2.09,3.15H335L333.44,260l-.65.64v1.78h-1.1Z"/><path class="cls-5" d="M336.86,255.53H338v1h-1.1Zm0,1.89H338v5h-1.1Z"/><path class="cls-5" d="M339.18,255.53h1.1v6.87h-1.1Z"/><path class="cls-5" d="M341.5,255.53h1.1v1h-1.1Zm0,1.89h1.1v5h-1.1Z"/><path class="cls-5" d="M346.5,255.53h1.09v3.91l2-2h1.34l-1.9,1.83,2.09,3.15h-1.34L348.25,260l-.66.64v1.78H346.5Z"/><path class="cls-5" d="M356,262.4h-1.08v-.69h0a1.57,1.57,0,0,1-.6.6,1.66,1.66,0,0,1-.82.22,1.86,1.86,0,0,1-1.42-.48,2.15,2.15,0,0,1-.43-1.47v-3.16h1.09v3.06a1.39,1.39,0,0,0,.25.92.92.92,0,0,0,.71.27,1.35,1.35,0,0,0,.57-.11,1,1,0,0,0,.38-.28,1.15,1.15,0,0,0,.21-.43,2.35,2.35,0,0,0,.06-.54v-2.89H356Z"/><path class="cls-5" d="M357.16,257.42h1v1h0a1,1,0,0,1,.19-.4,1.81,1.81,0,0,1,.33-.35,2,2,0,0,1,.44-.26,1.41,1.41,0,0,1,.49-.09h.27l.15,0v1.06l-.24,0h-.23a1.21,1.21,0,0,0-1,.44,1.78,1.78,0,0,0-.29.53,2.34,2.34,0,0,0-.1.73v2.37h-1.1Z"/><path class="cls-5" d="M364.92,262.4h-1.08v-.69h0a1.45,1.45,0,0,1-.6.6,1.65,1.65,0,0,1-.81.22,1.83,1.83,0,0,1-1.42-.48,2.15,2.15,0,0,1-.44-1.47v-3.16h1.1v3.06a1.33,1.33,0,0,0,.25.92.9.9,0,0,0,.7.27,1.43,1.43,0,0,0,.58-.11,1,1,0,0,0,.37-.28,1,1,0,0,0,.21-.43,2.35,2.35,0,0,0,.06-.54v-2.89h1.1Z"/><path class="cls-5" d="M366.07,257.42h1v.7h0a3.37,3.37,0,0,1,.27-.34,1.64,1.64,0,0,1,.33-.26,1.46,1.46,0,0,1,.4-.17,2.15,2.15,0,0,1,.53-.06,1.9,1.9,0,0,1,.85.2,1.14,1.14,0,0,1,.55.63,2.3,2.3,0,0,1,.64-.61,1.74,1.74,0,0,1,.92-.22,1.86,1.86,0,0,1,1.23.38,1.66,1.66,0,0,1,.43,1.29v3.44H372.2v-2.91c0-.2,0-.38,0-.54a1.23,1.23,0,0,0-.11-.42.69.69,0,0,0-.28-.28,1.13,1.13,0,0,0-.5-.1.94.94,0,0,0-.81.35,1.71,1.71,0,0,0-.25,1v2.92h-1.09v-3.2a1.4,1.4,0,0,0-.19-.78.8.8,0,0,0-.69-.27,1,1,0,0,0-.41.09,1.07,1.07,0,0,0-.35.25,1.27,1.27,0,0,0-.24.41,1.55,1.55,0,0,0-.09.55v2.95h-1.1Z"/><path class="cls-5" d="M376.62,257.42h.83v-1.49h1.1v1.49h1v.82h-1v2.66a2.81,2.81,0,0,0,0,.3.65.65,0,0,0,.07.21.34.34,0,0,0,.16.13.78.78,0,0,0,.29,0h.23l.23,0v.85l-.35,0-.36,0a2.64,2.64,0,0,1-.7-.08,1.09,1.09,0,0,1-.41-.24.8.8,0,0,1-.2-.4,2.94,2.94,0,0,1-.07-.55v-2.94h-.83Z"/><path class="cls-5" d="M384.5,261.29a.65.65,0,0,0,.05.29.23.23,0,0,0,.21.09h.12l.15,0v.76l-.15,0-.19.05-.19,0h-.16a1,1,0,0,1-.56-.13.66.66,0,0,1-.29-.47,2,2,0,0,1-.81.46,3,3,0,0,1-.91.14,2.32,2.32,0,0,1-.65-.09,1.61,1.61,0,0,1-.54-.27,1.19,1.19,0,0,1-.38-.45,1.44,1.44,0,0,1-.14-.64,1.49,1.49,0,0,1,.17-.75,1.27,1.27,0,0,1,.44-.45,2.11,2.11,0,0,1,.62-.24c.23-.05.46-.08.69-.11s.39-.06.56-.08a3,3,0,0,0,.48-.08.75.75,0,0,0,.33-.18.49.49,0,0,0,.12-.36.56.56,0,0,0-.1-.35.6.6,0,0,0-.25-.2,1.15,1.15,0,0,0-.33-.1l-.35,0a1.36,1.36,0,0,0-.76.2.75.75,0,0,0-.34.59h-1.1a1.57,1.57,0,0,1,.24-.79,1.39,1.39,0,0,1,.51-.51,2,2,0,0,1,.71-.27,3.59,3.59,0,0,1,.81-.08,2.94,2.94,0,0,1,.72.08,1.9,1.9,0,0,1,.64.25,1.38,1.38,0,0,1,.46.44,1.31,1.31,0,0,1,.17.67Zm-1.1-1.38a1.29,1.29,0,0,1-.61.19c-.25,0-.49.06-.74.11a1.32,1.32,0,0,0-.33.08.87.87,0,0,0-.29.14.59.59,0,0,0-.2.24.8.8,0,0,0-.07.36.46.46,0,0,0,.1.31,1,1,0,0,0,.26.2,1.15,1.15,0,0,0,.33.1l.32,0a1.89,1.89,0,0,0,.39-.05,1.29,1.29,0,0,0,.4-.16,1.14,1.14,0,0,0,.32-.3.75.75,0,0,0,.12-.43Z"/><path class="cls-5" d="M385.68,257.42h1v1h0a1.13,1.13,0,0,1,.19-.4,1.6,1.6,0,0,1,.34-.35,1.7,1.7,0,0,1,.43-.26,1.43,1.43,0,0,1,.5-.09h.26l.15,0v1.06l-.24,0h-.23a1.21,1.21,0,0,0-1,.44,1.57,1.57,0,0,0-.28.53,2.08,2.08,0,0,0-.11.73v2.37h-1.1Z"/><path class="cls-5" d="M393.24,261.29a.65.65,0,0,0,.05.29.23.23,0,0,0,.21.09h.12l.15,0v.76l-.15,0-.19.05-.19,0h-.16a1.06,1.06,0,0,1-.56-.13.66.66,0,0,1-.29-.47,2,2,0,0,1-.81.46,3,3,0,0,1-.91.14,2.32,2.32,0,0,1-.65-.09,1.61,1.61,0,0,1-.54-.27,1.19,1.19,0,0,1-.38-.45,1.44,1.44,0,0,1-.14-.64,1.49,1.49,0,0,1,.17-.75,1.27,1.27,0,0,1,.44-.45,2.11,2.11,0,0,1,.62-.24c.23-.05.46-.08.69-.11s.39-.06.57-.08a3.06,3.06,0,0,0,.47-.08.75.75,0,0,0,.33-.18.49.49,0,0,0,.12-.36.56.56,0,0,0-.1-.35.6.6,0,0,0-.25-.2,1.15,1.15,0,0,0-.33-.1l-.35,0a1.36,1.36,0,0,0-.76.2.75.75,0,0,0-.34.59H389a1.57,1.57,0,0,1,.24-.79,1.39,1.39,0,0,1,.51-.51,2,2,0,0,1,.71-.27,3.59,3.59,0,0,1,.81-.08,2.94,2.94,0,0,1,.72.08,1.9,1.9,0,0,1,.64.25,1.38,1.38,0,0,1,.46.44,1.31,1.31,0,0,1,.17.67Zm-1.1-1.38a1.29,1.29,0,0,1-.61.19c-.25,0-.49.06-.74.11a1.32,1.32,0,0,0-.33.08.87.87,0,0,0-.29.14.59.59,0,0,0-.2.24.8.8,0,0,0-.07.36.46.46,0,0,0,.1.31,1,1,0,0,0,.26.2,1.15,1.15,0,0,0,.33.1l.32,0a1.89,1.89,0,0,0,.39-.05,1.29,1.29,0,0,0,.4-.16,1.14,1.14,0,0,0,.32-.3.75.75,0,0,0,.12-.43Z"/><path class="cls-5" d="M393.93,257.42h.82V257a2.11,2.11,0,0,1,.12-.77,1,1,0,0,1,.74-.66,2.24,2.24,0,0,1,.52-.05,3.53,3.53,0,0,1,.77.06v.86l-.23,0-.28,0a.66.66,0,0,0-.38.11.45.45,0,0,0-.16.41v.51h.93v.82h-.93v4.16h-1.1v-4.16h-.82Z"/><path class="cls-5" d="M397.48,262.4v-5h1.1v5Z"/><path class="cls-5" d="M399.78,257.42h1v.73l0,0a2,2,0,0,1,.66-.65,1.82,1.82,0,0,1,.89-.23,1.86,1.86,0,0,1,1.29.42,1.61,1.61,0,0,1,.48,1.27v3.42h-1.1v-3.13a1.36,1.36,0,0,0-.25-.85.91.91,0,0,0-.72-.27,1.12,1.12,0,0,0-.5.11,1.05,1.05,0,0,0-.38.27,1.46,1.46,0,0,0-.33.93v2.94h-1.09Z"/><path class="cls-5" d="M410,262.4h-1v-.67h0a1.31,1.31,0,0,1-.65.62,2.25,2.25,0,0,1-.89.18,2.4,2.4,0,0,1-1-.2,2,2,0,0,1-.72-.57,2.4,2.4,0,0,1-.44-.84,3.84,3.84,0,0,1-.14-1,3.43,3.43,0,0,1,.18-1.17,2.5,2.5,0,0,1,.49-.81,1.86,1.86,0,0,1,.69-.46,2.22,2.22,0,0,1,.8-.15,2.56,2.56,0,0,1,.47,0,2.44,2.44,0,0,1,.46.14,2.14,2.14,0,0,1,.41.25,1.3,1.3,0,0,1,.31.35h0v-2.54H410ZM406.16,260a2.18,2.18,0,0,0,.08.63,1.63,1.63,0,0,0,.25.55,1.13,1.13,0,0,0,.43.38,1.2,1.2,0,0,0,.61.15,1.14,1.14,0,0,0,.63-.16,1.3,1.3,0,0,0,.44-.4,2,2,0,0,0,.25-.56,2.8,2.8,0,0,0,.08-.64,2,2,0,0,0-.37-1.29,1.23,1.23,0,0,0-1-.47,1.33,1.33,0,0,0-.65.16,1.44,1.44,0,0,0-.43.42,1.77,1.77,0,0,0-.24.58A2.81,2.81,0,0,0,406.16,260Z"/><path class="cls-5" d="M415.35,261.29a.65.65,0,0,0,0,.29.23.23,0,0,0,.21.09h.11l.16,0v.76l-.15,0-.19.05-.19,0h-.16a1.06,1.06,0,0,1-.56-.13.66.66,0,0,1-.29-.47,2,2,0,0,1-.8.46,3.07,3.07,0,0,1-.92.14,2.32,2.32,0,0,1-.65-.09,1.61,1.61,0,0,1-.54-.27,1.19,1.19,0,0,1-.38-.45,1.44,1.44,0,0,1-.14-.64,1.49,1.49,0,0,1,.17-.75,1.27,1.27,0,0,1,.44-.45,2.11,2.11,0,0,1,.62-.24c.23-.05.46-.08.69-.11s.39-.06.57-.08a2.86,2.86,0,0,0,.47-.08.75.75,0,0,0,.33-.18.49.49,0,0,0,.12-.36.56.56,0,0,0-.1-.35.6.6,0,0,0-.25-.2,1.15,1.15,0,0,0-.33-.1l-.35,0a1.36,1.36,0,0,0-.76.2.75.75,0,0,0-.34.59h-1.1a1.57,1.57,0,0,1,.24-.79,1.39,1.39,0,0,1,.51-.51,2.09,2.09,0,0,1,.71-.27,3.59,3.59,0,0,1,.81-.08,2.94,2.94,0,0,1,.72.08,1.9,1.9,0,0,1,.64.25,1.38,1.38,0,0,1,.46.44,1.31,1.31,0,0,1,.17.67Zm-1.1-1.38a1.26,1.26,0,0,1-.61.19c-.25,0-.49.06-.74.11a1.32,1.32,0,0,0-.33.08.87.87,0,0,0-.29.14.68.68,0,0,0-.2.24.8.8,0,0,0-.07.36.42.42,0,0,0,.11.31.82.82,0,0,0,.25.2,1.15,1.15,0,0,0,.33.1l.32,0a2.08,2.08,0,0,0,.4-.05,1.34,1.34,0,0,0,.39-.16,1.14,1.14,0,0,0,.32-.3.75.75,0,0,0,.12-.43Z"/><path class="cls-5" d="M416.53,257.42h1v.73l0,0a2,2,0,0,1,.66-.65,1.82,1.82,0,0,1,.89-.23,1.86,1.86,0,0,1,1.29.42,1.6,1.6,0,0,1,.47,1.27v3.42h-1.09v-3.13a1.43,1.43,0,0,0-.25-.85.92.92,0,0,0-.73-.27,1.18,1.18,0,0,0-.5.11,1.11,1.11,0,0,0-.37.27,1.46,1.46,0,0,0-.33.93v2.94h-1.1Z"/><path class="cls-5" d="M424.23,257.42h.83v-1.49h1.1v1.49h1v.82h-1v2.66a2.81,2.81,0,0,0,0,.3.65.65,0,0,0,.07.21.34.34,0,0,0,.16.13.78.78,0,0,0,.29,0h.23l.23,0v.85l-.36,0-.35,0a2.64,2.64,0,0,1-.7-.08,1,1,0,0,1-.41-.24.9.9,0,0,1-.21-.4,4.21,4.21,0,0,1-.06-.55v-2.94h-.83Z"/><path class="cls-5" d="M428.8,260.2a1.7,1.7,0,0,0,.08.55,1.54,1.54,0,0,0,.24.48,1.23,1.23,0,0,0,.42.32,1.35,1.35,0,0,0,.59.12,1.31,1.31,0,0,0,.78-.21,1.21,1.21,0,0,0,.44-.62h1a2.11,2.11,0,0,1-.3.72,2,2,0,0,1-1.18.86,2.86,2.86,0,0,1-1.81-.08,2.17,2.17,0,0,1-1.24-1.36,3.32,3.32,0,0,1-.16-1.06,3.06,3.06,0,0,1,.17-1,2.49,2.49,0,0,1,.48-.84,2.39,2.39,0,0,1,2.81-.54,2.47,2.47,0,0,1,.78.65,2.66,2.66,0,0,1,.44.93,2.83,2.83,0,0,1,.08,1.09Zm2.56-.73a2.13,2.13,0,0,0-.11-.5,1.46,1.46,0,0,0-.25-.42,1.39,1.39,0,0,0-.39-.28,1.06,1.06,0,0,0-.5-.12,1.29,1.29,0,0,0-.53.11,1.13,1.13,0,0,0-.4.27,1.17,1.17,0,0,0-.27.42,1.31,1.31,0,0,0-.11.52Z"/><path class="cls-5" d="M434.12,260.8a.82.82,0,0,0,.37.68,1.5,1.5,0,0,0,.76.19l.35,0a1.18,1.18,0,0,0,.37-.09.7.7,0,0,0,.28-.19.46.46,0,0,0,.1-.35.43.43,0,0,0-.15-.34,1.21,1.21,0,0,0-.37-.22,4.25,4.25,0,0,0-.52-.14l-.58-.12a5.25,5.25,0,0,1-.6-.17,2,2,0,0,1-.51-.26,1.22,1.22,0,0,1-.36-.42,1.34,1.34,0,0,1-.13-.63,1.1,1.1,0,0,1,.2-.68,1.42,1.42,0,0,1,.5-.44,2,2,0,0,1,.67-.23,3.56,3.56,0,0,1,.71-.07,3.47,3.47,0,0,1,.73.08,1.93,1.93,0,0,1,.64.27,1.51,1.51,0,0,1,.47.47,1.71,1.71,0,0,1,.24.71h-1.15a.68.68,0,0,0-.36-.53,1.48,1.48,0,0,0-.65-.14l-.27,0a1.32,1.32,0,0,0-.3.08.55.55,0,0,0-.24.15.44.44,0,0,0,.05.59.9.9,0,0,0,.36.21,4.25,4.25,0,0,0,.52.14l.59.12a5.72,5.72,0,0,1,.59.17,2,2,0,0,1,.52.26,1.19,1.19,0,0,1,.36.41,1.29,1.29,0,0,1,.14.62,1.4,1.4,0,0,1-.2.75,1.69,1.69,0,0,1-.53.5,2.34,2.34,0,0,1-.71.28,3.56,3.56,0,0,1-.78.08,3.35,3.35,0,0,1-.87-.1,2.14,2.14,0,0,1-.7-.32,1.7,1.7,0,0,1-.46-.54,1.82,1.82,0,0,1-.18-.77Z"/><path class="cls-5" d="M441.65,259.09a1.07,1.07,0,0,0-.37-.7,1.2,1.2,0,0,0-.77-.24,1.53,1.53,0,0,0-.45.08,1,1,0,0,0-.44.27,1.4,1.4,0,0,0-.34.55,2.76,2.76,0,0,0-.06,1.53,1.6,1.6,0,0,0,.23.55,1.18,1.18,0,0,0,.41.39,1.14,1.14,0,0,0,.6.15,1.1,1.1,0,0,0,.8-.3,1.38,1.38,0,0,0,.39-.84h1.1A2.44,2.44,0,0,1,442,262a2.26,2.26,0,0,1-1.55.51,2.56,2.56,0,0,1-1-.19,2.19,2.19,0,0,1-.76-.54,2.31,2.31,0,0,1-.46-.81,3.13,3.13,0,0,1-.16-1,3.49,3.49,0,0,1,.15-1,2.45,2.45,0,0,1,.46-.86,2.07,2.07,0,0,1,.77-.56,2.52,2.52,0,0,1,1.07-.21,3.2,3.2,0,0,1,.83.11,2,2,0,0,1,.69.33,1.76,1.76,0,0,1,.49.56,1.93,1.93,0,0,1,.24.8Z"/><path class="cls-5" d="M443.67,255.53h1.1v1h-1.1Zm0,1.89h1.1v5h-1.1Z"/><path class="cls-5" d="M446,255.53h1.1v6.87H446Z"/><path class="cls-5" d="M451.81,260.2a2,2,0,0,0,.08.55,1.57,1.57,0,0,0,.25.48,1.3,1.3,0,0,0,.41.32,1.4,1.4,0,0,0,.6.12,1.33,1.33,0,0,0,.78-.21,1.2,1.2,0,0,0,.43-.62h1a1.92,1.92,0,0,1-.29.72,2.63,2.63,0,0,1-.51.54,2.3,2.3,0,0,1-.67.32,2.54,2.54,0,0,1-.78.11,2.61,2.61,0,0,1-1-.19,2.1,2.1,0,0,1-.76-.54,2.15,2.15,0,0,1-.47-.82,3.32,3.32,0,0,1-.16-1.06,3.05,3.05,0,0,1,.16-1,2.69,2.69,0,0,1,.49-.84,2.23,2.23,0,0,1,.75-.57,2.33,2.33,0,0,1,1-.21,2.3,2.3,0,0,1,1.06.24,2.32,2.32,0,0,1,.77.65,2.52,2.52,0,0,1,.45.93,2.83,2.83,0,0,1,.07,1.09Zm2.56-.73a1.72,1.72,0,0,0-.11-.5,1.27,1.27,0,0,0-.25-.42,1.21,1.21,0,0,0-.38-.28,1.07,1.07,0,0,0-.51-.12,1.24,1.24,0,0,0-.52.11,1.27,1.27,0,0,0-.41.27,1.51,1.51,0,0,0-.27.42,1.78,1.78,0,0,0-.11.52Z"/><path class="cls-5" d="M461,262.4h-1v-.67h0a1.35,1.35,0,0,1-.65.62,2.25,2.25,0,0,1-.89.18,2.37,2.37,0,0,1-1-.2,2,2,0,0,1-.72-.57,2.24,2.24,0,0,1-.44-.84,3.84,3.84,0,0,1-.14-1,3.43,3.43,0,0,1,.18-1.17,2.5,2.5,0,0,1,.49-.81,1.86,1.86,0,0,1,.69-.46,2.21,2.21,0,0,1,.79-.15,2.59,2.59,0,0,1,.48,0,2.44,2.44,0,0,1,.46.14,2.5,2.5,0,0,1,.41.25,1.3,1.3,0,0,1,.31.35h0v-2.54H461ZM457.17,260a2.18,2.18,0,0,0,.08.63,1.46,1.46,0,0,0,.25.55,1.13,1.13,0,0,0,.43.38,1.17,1.17,0,0,0,.61.15,1.14,1.14,0,0,0,.63-.16,1.3,1.3,0,0,0,.44-.4,2,2,0,0,0,.25-.56,2.8,2.8,0,0,0,.08-.64,2.06,2.06,0,0,0-.37-1.29,1.24,1.24,0,0,0-1-.47,1.3,1.3,0,0,0-.65.16,1.33,1.33,0,0,0-.43.42,1.77,1.77,0,0,0-.24.58A2.81,2.81,0,0,0,457.17,260Z"/><path class="cls-5" d="M462.22,255.53h1.1v1h-1.1Zm0,1.89h1.1v5h-1.1Z"/><path class="cls-5" d="M464.54,255.53h1.1v6.87h-1.1Z"/><path class="cls-5" d="M466.83,257.42h1v.7h0a1.84,1.84,0,0,1,.27-.34,1.35,1.35,0,0,1,.32-.26,1.68,1.68,0,0,1,.41-.17,2.09,2.09,0,0,1,.53-.06,1.86,1.86,0,0,1,.84.2,1.14,1.14,0,0,1,.55.63,2.21,2.21,0,0,1,.65-.61,1.7,1.7,0,0,1,.91-.22,1.83,1.83,0,0,1,1.23.38,1.66,1.66,0,0,1,.44,1.29v3.44H473v-2.91a4.52,4.52,0,0,0,0-.54,1,1,0,0,0-.11-.42.66.66,0,0,0-.27-.28,1.13,1.13,0,0,0-.5-.1.93.93,0,0,0-.81.35,1.63,1.63,0,0,0-.25,1v2.92h-1.1v-3.2a1.32,1.32,0,0,0-.19-.78.77.77,0,0,0-.69-.27.93.93,0,0,0-.4.09,1,1,0,0,0-.35.25,1.27,1.27,0,0,0-.24.41,1.55,1.55,0,0,0-.09.55v2.95h-1.1Z"/><path class="cls-5" d="M475.23,255.53h1.1v1h-1.1Zm0,1.89h1.1v5h-1.1Z"/><path class="cls-5" d="M478.45,263.94l.32.12a1.39,1.39,0,0,0,.3,0h.21a.6.6,0,0,0,.19-.06.41.41,0,0,0,.14-.12.39.39,0,0,0,.05-.2.31.31,0,0,0-.14-.27.47.47,0,0,0-.3-.1.8.8,0,0,0-.38.1l-.21-.18.54-.72a5.18,5.18,0,0,1-.59-.1,2.19,2.19,0,0,1-.69-.32,1.7,1.7,0,0,1-.46-.54,1.82,1.82,0,0,1-.18-.77h1.1a.84.84,0,0,0,.37.68,1.5,1.5,0,0,0,.76.19l.35,0a1.18,1.18,0,0,0,.37-.09.63.63,0,0,0,.28-.19.46.46,0,0,0,.1-.35.43.43,0,0,0-.15-.34,1.21,1.21,0,0,0-.37-.22,4.25,4.25,0,0,0-.52-.14l-.58-.12a4.57,4.57,0,0,1-.59-.17,1.75,1.75,0,0,1-.51-.26,1.12,1.12,0,0,1-.36-.42,1.33,1.33,0,0,1-.14-.63,1.16,1.16,0,0,1,.2-.68,1.52,1.52,0,0,1,.5-.44,2,2,0,0,1,.67-.23,3.55,3.55,0,0,1,1.45,0,2,2,0,0,1,.63.27,1.51,1.51,0,0,1,.47.47,1.58,1.58,0,0,1,.24.71h-1.15a.68.68,0,0,0-.36-.53,1.48,1.48,0,0,0-.65-.14l-.27,0a1.32,1.32,0,0,0-.3.08.61.61,0,0,0-.24.15.44.44,0,0,0,.05.59.9.9,0,0,0,.36.21,4.81,4.81,0,0,0,.52.14l.59.12a5.72,5.72,0,0,1,.59.17,1.81,1.81,0,0,1,.52.26,1.2,1.2,0,0,1,.5,1,1.32,1.32,0,0,1-.2.75,1.66,1.66,0,0,1-.52.5,2.51,2.51,0,0,1-.72.28,4.38,4.38,0,0,1-.62.08l-.33.44h0a.32.32,0,0,1,.14,0h.18a1,1,0,0,1,.29,0,.82.82,0,0,1,.26.14.67.67,0,0,1,.19.22.57.57,0,0,1,.08.32.71.71,0,0,1-.1.41,1.15,1.15,0,0,1-.27.27,1.2,1.2,0,0,1-.37.15,1.52,1.52,0,0,1-.42.06,2.33,2.33,0,0,1-.53-.06,1.41,1.41,0,0,1-.46-.17Z"/><path class="cls-5" d="M482,257.42h.83v-1.49H484v1.49h1v.82h-1v2.66a2.81,2.81,0,0,0,0,.3.48.48,0,0,0,.07.21.3.3,0,0,0,.16.13.72.72,0,0,0,.28,0h.24l.23,0v.85l-.36,0-.36,0a2.56,2.56,0,0,1-.69-.08,1.06,1.06,0,0,1-.42-.24.89.89,0,0,1-.2-.4,3,3,0,0,1-.06-.55v-2.94H482Z"/><path class="cls-5" d="M485.75,255.53h1.1v1h-1.1Zm0,1.89h1.1v5h-1.1Z"/><path class="cls-5" d="M488,257.42h1v1h0a1.33,1.33,0,0,1,.19-.4,2.24,2.24,0,0,1,.34-.35,1.76,1.76,0,0,1,.44-.26,1.37,1.37,0,0,1,.49-.09h.26l.15,0v1.06l-.23,0h-.24a1.2,1.2,0,0,0-.53.11,1.1,1.1,0,0,0-.42.33,1.58,1.58,0,0,0-.29.53,2.33,2.33,0,0,0-.11.73v2.37H488Z"/><path class="cls-5" d="M490.63,261.1H492v1.3h-1.34Z"/><path class="cls-5" d="M2.64,267.08H3.92L6.57,274H5.28l-.65-1.82H1.89L1.24,274H0Zm-.43,4.14h2.1l-1-3h0Z"/><path class="cls-5" d="M7.07,269h1v.69h0c.09-.12.18-.24.27-.34a1.64,1.64,0,0,1,.33-.26,2.09,2.09,0,0,1,.4-.17,2.23,2.23,0,0,1,.54-.06,1.86,1.86,0,0,1,.84.2,1.18,1.18,0,0,1,.55.63,2.21,2.21,0,0,1,.65-.61,1.68,1.68,0,0,1,.91-.22,1.8,1.8,0,0,1,1.23.39,1.63,1.63,0,0,1,.44,1.29V274h-1.1V271c0-.19,0-.38,0-.54a1.08,1.08,0,0,0-.11-.42.63.63,0,0,0-.28-.28,1.12,1.12,0,0,0-.5-.09.94.94,0,0,0-.81.34,1.71,1.71,0,0,0-.25,1V274H10.13v-3.19a1.41,1.41,0,0,0-.19-.79.79.79,0,0,0-.69-.26,1.15,1.15,0,0,0-.41.08.94.94,0,0,0-.34.25,1.5,1.5,0,0,0-.25.41,1.55,1.55,0,0,0-.09.55V274H7.07Z"/><path class="cls-5" d="M19.61,272.84a.62.62,0,0,0,.05.29.23.23,0,0,0,.21.09H20l.16,0V274L20,274l-.19.05-.19,0h-.16a1,1,0,0,1-.56-.14.66.66,0,0,1-.29-.47,1.91,1.91,0,0,1-.81.46,3,3,0,0,1-.91.15,2,2,0,0,1-.65-.1,1.7,1.7,0,0,1-.54-.26,1.22,1.22,0,0,1-.38-.46,1.41,1.41,0,0,1-.14-.64,1.49,1.49,0,0,1,.17-.75,1.27,1.27,0,0,1,.44-.45,2,2,0,0,1,.62-.24l.69-.11c.2,0,.38-.06.56-.08a2.18,2.18,0,0,0,.48-.08.75.75,0,0,0,.33-.18.49.49,0,0,0,.12-.36.63.63,0,0,0-.1-.35.69.69,0,0,0-.25-.2,1.13,1.13,0,0,0-.34-.1,2,2,0,0,0-.34,0,1.36,1.36,0,0,0-.76.19.77.77,0,0,0-.34.6h-1.1a1.71,1.71,0,0,1,.23-.8,1.69,1.69,0,0,1,.52-.51,2,2,0,0,1,.71-.27,4.28,4.28,0,0,1,.81-.08,3.53,3.53,0,0,1,.72.08,1.9,1.9,0,0,1,.64.25,1.38,1.38,0,0,1,.46.44,1.31,1.31,0,0,1,.17.67Zm-1.1-1.38a1.42,1.42,0,0,1-.62.2,6.38,6.38,0,0,0-.73.1,2,2,0,0,0-.33.08.87.87,0,0,0-.29.14.59.59,0,0,0-.2.24.8.8,0,0,0-.07.36.45.45,0,0,0,.1.31.82.82,0,0,0,.26.2,1.15,1.15,0,0,0,.33.1l.32,0a1.89,1.89,0,0,0,.39-.05,1.16,1.16,0,0,0,.4-.16,1.14,1.14,0,0,0,.32-.3.73.73,0,0,0,.12-.43Z"/><path class="cls-5" d="M24.15,270.64a1,1,0,0,0-.37-.7,1.25,1.25,0,0,0-.76-.23,1.56,1.56,0,0,0-.46.07,1.14,1.14,0,0,0-.44.27,1.52,1.52,0,0,0-.34.55,2.6,2.6,0,0,0-.13.92,2.54,2.54,0,0,0,.07.61,1.82,1.82,0,0,0,.23.55,1.27,1.27,0,0,0,.41.39,1.17,1.17,0,0,0,.61.15,1.09,1.09,0,0,0,.79-.3,1.38,1.38,0,0,0,.39-.84h1.1a2.38,2.38,0,0,1-.74,1.49,2.26,2.26,0,0,1-1.54.52,2.61,2.61,0,0,1-1-.2,2.07,2.07,0,0,1-.75-.54,2.33,2.33,0,0,1-.47-.81,3.11,3.11,0,0,1-.16-1,3.21,3.21,0,0,1,.16-1,2.38,2.38,0,0,1,.46-.86,2.15,2.15,0,0,1,.76-.56,2.6,2.6,0,0,1,1.08-.21,3.18,3.18,0,0,1,.82.11,2.45,2.45,0,0,1,.69.33,1.92,1.92,0,0,1,.5.56,2,2,0,0,1,.23.8Z"/><path class="cls-5" d="M26.17,274v-5h1.1v5Z"/><path class="cls-5" d="M35.83,274h-1v-.67h0a1.31,1.31,0,0,1-.65.62,2.26,2.26,0,0,1-.89.19,2.4,2.4,0,0,1-1-.21,2.12,2.12,0,0,1-.72-.56,2.54,2.54,0,0,1-.44-.85,3.84,3.84,0,0,1-.14-1,3.33,3.33,0,0,1,.18-1.16,2.46,2.46,0,0,1,.49-.81,1.77,1.77,0,0,1,.69-.47,2.22,2.22,0,0,1,.8-.15,3.89,3.89,0,0,1,.47,0A2.44,2.44,0,0,1,34,269a2.14,2.14,0,0,1,.41.25,1.47,1.47,0,0,1,.31.35h0v-2.54h1.1ZM32,271.52a2.15,2.15,0,0,0,.08.62,1.63,1.63,0,0,0,.25.55,1.24,1.24,0,0,0,.43.39,1.31,1.31,0,0,0,.61.14,1.22,1.22,0,0,0,.63-.15,1.33,1.33,0,0,0,.44-.41,2,2,0,0,0,.25-.56,2.74,2.74,0,0,0,.08-.64,2,2,0,0,0-.37-1.29,1.22,1.22,0,0,0-1-.46,1.23,1.23,0,0,0-.65.16,1.3,1.3,0,0,0-.43.41,1.77,1.77,0,0,0-.24.58A2.84,2.84,0,0,0,32,271.52Z"/><path class="cls-5" d="M37.05,274v-5h1.1v5Z"/><path class="cls-5" d="M40.27,275.49l.31.12a1.55,1.55,0,0,0,.31,0l.2,0a.66.66,0,0,0,.2-.06.53.53,0,0,0,.14-.12.39.39,0,0,0,0-.2.31.31,0,0,0-.14-.27.55.55,0,0,0-.3-.09.76.76,0,0,0-.38.09l-.21-.18.54-.72a3.63,3.63,0,0,1-.59-.1,2.19,2.19,0,0,1-.69-.32,1.7,1.7,0,0,1-.46-.54,1.82,1.82,0,0,1-.18-.77h1.1a.82.82,0,0,0,.37.68,1.41,1.41,0,0,0,.76.19l.35,0a2.22,2.22,0,0,0,.37-.09.84.84,0,0,0,.28-.2.43.43,0,0,0,.1-.34.44.44,0,0,0-.15-.35,1.21,1.21,0,0,0-.37-.22,4.25,4.25,0,0,0-.52-.14l-.58-.12a5.25,5.25,0,0,1-.6-.17,1.75,1.75,0,0,1-.51-.26,1.19,1.19,0,0,1-.36-.41,1.34,1.34,0,0,1-.13-.63,1.08,1.08,0,0,1,.2-.68,1.45,1.45,0,0,1,.5-.45,2,2,0,0,1,.67-.23,3.56,3.56,0,0,1,.71-.07,3.47,3.47,0,0,1,.73.08,2.17,2.17,0,0,1,.64.27,1.51,1.51,0,0,1,.47.47,1.76,1.76,0,0,1,.24.71H42.19a.68.68,0,0,0-.36-.53,1.51,1.51,0,0,0-.65-.13,1.32,1.32,0,0,0-.27,0,.94.94,0,0,0-.3.07.55.55,0,0,0-.24.15.4.4,0,0,0-.09.27.39.39,0,0,0,.14.32.9.9,0,0,0,.36.21,3,3,0,0,0,.52.14l.59.13a5.69,5.69,0,0,1,.59.16,1.75,1.75,0,0,1,.51.26,1.21,1.21,0,0,1,.37.41,1.32,1.32,0,0,1,.14.62,1.37,1.37,0,0,1-.2.75,1.59,1.59,0,0,1-.53.5,2.34,2.34,0,0,1-.71.28,4.38,4.38,0,0,1-.62.08l-.34.44h0l.14,0h.18a1.45,1.45,0,0,1,.29,0,.82.82,0,0,1,.26.14.71.71,0,0,1,.19.23.62.62,0,0,1,.08.31.77.77,0,0,1-.11.42.84.84,0,0,1-.27.26,1.38,1.38,0,0,1-.37.16,1.93,1.93,0,0,1-.42.05,3,3,0,0,1-.52-.05,2.17,2.17,0,0,1-.47-.17Z"/><path class="cls-5" d="M44.37,274v-5h1.09v5Z"/><path class="cls-5" d="M46.66,269h1v.73l0,0a1.69,1.69,0,0,1,.65-.65,1.73,1.73,0,0,1,.9-.24,1.89,1.89,0,0,1,1.29.42,1.65,1.65,0,0,1,.47,1.27V274h-1.1v-3.13a1.36,1.36,0,0,0-.25-.85.88.88,0,0,0-.72-.26,1.15,1.15,0,0,0-.5.1,1.17,1.17,0,0,0-.38.28,1.46,1.46,0,0,0-.33.93V274H46.66Z"/><path class="cls-5" d="M56.87,274h-1v-.67h0a1.33,1.33,0,0,1-.64.62,2.4,2.4,0,0,1-1.92,0,2.16,2.16,0,0,1-.73-.56,2.35,2.35,0,0,1-.43-.85,3.49,3.49,0,0,1-.15-1,3.33,3.33,0,0,1,.18-1.16,2.46,2.46,0,0,1,.49-.81,1.77,1.77,0,0,1,.69-.47,2.22,2.22,0,0,1,.8-.15,3.89,3.89,0,0,1,.47,0A2.44,2.44,0,0,1,55,269a1.87,1.87,0,0,1,.41.25,1.28,1.28,0,0,1,.31.35h0v-2.54h1.1ZM53,271.52a2.57,2.57,0,0,0,.08.62,1.85,1.85,0,0,0,.25.55,1.34,1.34,0,0,0,.43.39,1.32,1.32,0,0,0,.62.14,1.28,1.28,0,0,0,.63-.15,1.4,1.4,0,0,0,.43-.41,1.78,1.78,0,0,0,.25-.56,2.29,2.29,0,0,0,.08-.64,2,2,0,0,0-.37-1.29,1.21,1.21,0,0,0-1-.46,1.18,1.18,0,0,0-.65.16,1.24,1.24,0,0,0-.44.41,1.77,1.77,0,0,0-.24.58A2.84,2.84,0,0,0,53,271.52Z"/><path class="cls-5" d="M62.23,272.84a.5.5,0,0,0,.06.29.2.2,0,0,0,.2.09h.12l.15,0V274l-.15,0-.19.05-.19,0h-.16a1.06,1.06,0,0,1-.56-.14.69.69,0,0,1-.29-.47,1.87,1.87,0,0,1-.8.46,3.1,3.1,0,0,1-.92.15,2,2,0,0,1-.65-.1,1.93,1.93,0,0,1-.54-.26,1.32,1.32,0,0,1-.38-.46,1.41,1.41,0,0,1-.14-.64,1.49,1.49,0,0,1,.17-.75,1.29,1.29,0,0,1,.45-.45,1.94,1.94,0,0,1,.61-.24l.69-.11c.2,0,.39-.06.57-.08a2,2,0,0,0,.47-.08.75.75,0,0,0,.33-.18.49.49,0,0,0,.12-.36.56.56,0,0,0-.1-.35.69.69,0,0,0-.25-.2,1.15,1.15,0,0,0-.33-.1,2.11,2.11,0,0,0-.35,0,1.36,1.36,0,0,0-.76.19.74.74,0,0,0-.33.6H58a1.61,1.61,0,0,1,.23-.8,1.65,1.65,0,0,1,.51-.51,2.09,2.09,0,0,1,.71-.27,4.28,4.28,0,0,1,.81-.08,3.53,3.53,0,0,1,.72.08,1.9,1.9,0,0,1,.64.25,1.38,1.38,0,0,1,.46.44,1.31,1.31,0,0,1,.17.67Zm-1.1-1.38a1.38,1.38,0,0,1-.61.2,6.09,6.09,0,0,0-.73.1,1.87,1.87,0,0,0-.34.08,1,1,0,0,0-.29.14.68.68,0,0,0-.2.24,1,1,0,0,0-.07.36.45.45,0,0,0,.11.31.69.69,0,0,0,.25.2,1.15,1.15,0,0,0,.33.1l.32,0a1.9,1.9,0,0,0,.4-.05,1.24,1.24,0,0,0,.4-.16,1.11,1.11,0,0,0,.31-.3.73.73,0,0,0,.12-.43Z"/><path class="cls-5" d="M65.6,269h1.19l1.27,3.82h0L69.29,269h1.13l-1.78,5H67.41Z"/><path class="cls-5" d="M72,271.75a1.77,1.77,0,0,0,.08.56,1.31,1.31,0,0,0,.24.47,1.23,1.23,0,0,0,.42.32,1.54,1.54,0,0,0,1.37-.09,1.23,1.23,0,0,0,.44-.62h1a2.11,2.11,0,0,1-.3.72,2,2,0,0,1-.51.54,2.61,2.61,0,0,1-.67.33,2.88,2.88,0,0,1-.78.11,2.61,2.61,0,0,1-1-.2,2,2,0,0,1-.76-.53,2.27,2.27,0,0,1-.47-.83,3.27,3.27,0,0,1-.16-1.06,2.86,2.86,0,0,1,.17-1,2.7,2.7,0,0,1,.48-.84,2.24,2.24,0,0,1,1.75-.78,2.16,2.16,0,0,1,1.06.25,2.21,2.21,0,0,1,.77.65,2.55,2.55,0,0,1,.45.92,2.85,2.85,0,0,1,.07,1.09Zm2.56-.72a1.66,1.66,0,0,0-.12-.5,1.17,1.17,0,0,0-.25-.42,1.1,1.1,0,0,0-.38-.29,1.06,1.06,0,0,0-.51-.11,1.27,1.27,0,0,0-.52.1,1.15,1.15,0,0,0-.4.28,1.17,1.17,0,0,0-.27.42A1.27,1.27,0,0,0,72,271Z"/><path class="cls-5" d="M83.29,272.84a.52.52,0,0,0,0,.29.2.2,0,0,0,.2.09h.12l.15,0V274l-.14,0-.19.05-.19,0h-.17a1.08,1.08,0,0,1-.56-.14.72.72,0,0,1-.29-.47,1.82,1.82,0,0,1-.8.46,3,3,0,0,1-.92.15,2,2,0,0,1-.64-.1,1.86,1.86,0,0,1-.55-.26,1.36,1.36,0,0,1-.51-1.1,1.39,1.39,0,0,1,.17-.75,1.27,1.27,0,0,1,.44-.45,2,2,0,0,1,.61-.24l.69-.11c.2,0,.39-.06.57-.08a2.18,2.18,0,0,0,.48-.08.71.71,0,0,0,.32-.18.49.49,0,0,0,.12-.36.56.56,0,0,0-.1-.35.62.62,0,0,0-.25-.2,1.15,1.15,0,0,0-.33-.1,2.11,2.11,0,0,0-.35,0,1.38,1.38,0,0,0-.76.19.76.76,0,0,0-.33.6H79a1.71,1.71,0,0,1,.23-.8,1.69,1.69,0,0,1,.52-.51,2,2,0,0,1,.7-.27,4.45,4.45,0,0,1,.81-.08,3.38,3.38,0,0,1,.72.08,1.9,1.9,0,0,1,.64.25,1.3,1.3,0,0,1,.46.44,1.22,1.22,0,0,1,.18.67Zm-1.1-1.38a1.46,1.46,0,0,1-.62.2,6.09,6.09,0,0,0-.73.1,1.87,1.87,0,0,0-.34.08,1,1,0,0,0-.29.14.57.57,0,0,0-.19.24.8.8,0,0,0-.08.36.45.45,0,0,0,.11.31.73.73,0,0,0,.26.2,1,1,0,0,0,.32.1l.33,0a1.89,1.89,0,0,0,.39-.05,1.24,1.24,0,0,0,.4-.16,1,1,0,0,0,.31-.3.67.67,0,0,0,.13-.43Z"/><path class="cls-5" d="M85.3,272.35a.84.84,0,0,0,.36.68,1.43,1.43,0,0,0,.76.19l.35,0a1.82,1.82,0,0,0,.37-.09.79.79,0,0,0,.29-.2.48.48,0,0,0,.1-.34.51.51,0,0,0-.15-.35A1.21,1.21,0,0,0,87,272c-.16-.05-.33-.1-.52-.14l-.59-.12a5.72,5.72,0,0,1-.59-.17,1.75,1.75,0,0,1-.51-.26,1.19,1.19,0,0,1-.36-.41,1.33,1.33,0,0,1-.14-.63,1.14,1.14,0,0,1,.2-.68,1.54,1.54,0,0,1,.5-.45,2.19,2.19,0,0,1,.68-.23,3.46,3.46,0,0,1,.7-.07,3.5,3.5,0,0,1,.74.08,2.17,2.17,0,0,1,.64.27,1.62,1.62,0,0,1,.47.47,1.75,1.75,0,0,1,.23.71H87.32a.68.68,0,0,0-.36-.53,1.51,1.51,0,0,0-.65-.13,1.47,1.47,0,0,0-.28,0,1.09,1.09,0,0,0-.3.07.51.51,0,0,0-.23.15.36.36,0,0,0-.1.27.42.42,0,0,0,.14.32,1,1,0,0,0,.37.21,3.12,3.12,0,0,0,.51.14l.6.13c.2,0,.39.1.59.16a1.75,1.75,0,0,1,.51.26,1.45,1.45,0,0,1,.37.41,1.32,1.32,0,0,1,.14.62,1.3,1.3,0,0,1-.21.75,1.47,1.47,0,0,1-.52.5,2.3,2.3,0,0,1-.72.28,3.46,3.46,0,0,1-1.65,0,2.19,2.19,0,0,1-.69-.32,1.58,1.58,0,0,1-.46-.54,1.68,1.68,0,0,1-.18-.77Z"/><path class="cls-5" d="M89.49,267.08h1.1V274h-1.1Z"/><path class="cls-5" d="M91.81,274v-5h1.1v5Z"/><path class="cls-5" d="M94.1,269h1v.73l0,0a1.79,1.79,0,0,1,.66-.65,1.7,1.7,0,0,1,.89-.24,1.86,1.86,0,0,1,1.29.42,1.62,1.62,0,0,1,.47,1.27V274H97.38v-3.13a1.43,1.43,0,0,0-.25-.85.92.92,0,0,0-.73-.26,1.18,1.18,0,0,0-.5.1,1.13,1.13,0,0,0-.37.28,1.46,1.46,0,0,0-.33.93V274H94.1Z"/><path class="cls-5" d="M103.8,272.84a.52.52,0,0,0,0,.29.23.23,0,0,0,.21.09h.11l.16,0V274l-.15,0-.19.05-.19,0h-.17a1,1,0,0,1-.55-.14.66.66,0,0,1-.29-.47,1.91,1.91,0,0,1-.81.46,3,3,0,0,1-.92.15,2,2,0,0,1-.64-.1,1.7,1.7,0,0,1-.54-.26,1.22,1.22,0,0,1-.38-.46,1.41,1.41,0,0,1-.14-.64,1.49,1.49,0,0,1,.17-.75,1.27,1.27,0,0,1,.44-.45,2,2,0,0,1,.62-.24l.69-.11c.19,0,.38-.06.56-.08a2.18,2.18,0,0,0,.48-.08.75.75,0,0,0,.33-.18.49.49,0,0,0,.12-.36.63.63,0,0,0-.1-.35.69.69,0,0,0-.25-.2,1.13,1.13,0,0,0-.34-.1,2,2,0,0,0-.34,0,1.36,1.36,0,0,0-.76.19.77.77,0,0,0-.34.6h-1.1a1.71,1.71,0,0,1,.23-.8,1.69,1.69,0,0,1,.52-.51,2,2,0,0,1,.71-.27,4.26,4.26,0,0,1,.8-.08,3.55,3.55,0,0,1,.73.08,2,2,0,0,1,.64.25,1.27,1.27,0,0,1,.45.44,1.22,1.22,0,0,1,.18.67Zm-1.1-1.38a1.42,1.42,0,0,1-.62.2,6.38,6.38,0,0,0-.73.1,1.77,1.77,0,0,0-.33.08.87.87,0,0,0-.29.14.59.59,0,0,0-.2.24.8.8,0,0,0-.07.36.45.45,0,0,0,.1.31.73.73,0,0,0,.26.2,1.15,1.15,0,0,0,.33.1l.32,0a1.89,1.89,0,0,0,.39-.05,1.16,1.16,0,0,0,.4-.16,1,1,0,0,0,.31-.3.67.67,0,0,0,.13-.43Z"/><path class="cls-5" d="M111.83,272.84a.52.52,0,0,0,0,.29q0,.09.21.09h.11l.16,0V274l-.15,0-.19.05-.19,0h-.17a1.08,1.08,0,0,1-.56-.14.72.72,0,0,1-.29-.47,1.82,1.82,0,0,1-.8.46,3,3,0,0,1-.92.15,2,2,0,0,1-.64-.1,1.86,1.86,0,0,1-.55-.26,1.36,1.36,0,0,1-.51-1.1,1.39,1.39,0,0,1,.17-.75,1.27,1.27,0,0,1,.44-.45,2,2,0,0,1,.62-.24l.68-.11c.2,0,.39-.06.57-.08a2.18,2.18,0,0,0,.48-.08.75.75,0,0,0,.33-.18.49.49,0,0,0,.12-.36.63.63,0,0,0-.1-.35.73.73,0,0,0-.26-.2,1.15,1.15,0,0,0-.33-.1,2,2,0,0,0-.34,0,1.34,1.34,0,0,0-.76.19.74.74,0,0,0-.34.6h-1.1a1.71,1.71,0,0,1,.23-.8,1.69,1.69,0,0,1,.52-.51,2,2,0,0,1,.7-.27,4.45,4.45,0,0,1,.81-.08,3.38,3.38,0,0,1,.72.08,2,2,0,0,1,.65.25,1.35,1.35,0,0,1,.45.44,1.22,1.22,0,0,1,.18.67Zm-1.1-1.38a1.42,1.42,0,0,1-.62.2,6.09,6.09,0,0,0-.73.1,2.09,2.09,0,0,0-.34.08,1,1,0,0,0-.29.14.65.65,0,0,0-.19.24.8.8,0,0,0-.07.36.45.45,0,0,0,.1.31.73.73,0,0,0,.26.2,1.09,1.09,0,0,0,.32.1l.33,0a1.89,1.89,0,0,0,.39-.05,1.16,1.16,0,0,0,.4-.16,1,1,0,0,0,.31-.3.67.67,0,0,0,.13-.43Z"/><path class="cls-5" d="M112.46,269h1.2l1.3,3.71h0l1.26-3.71h1.15l-1.93,5.24c-.09.23-.18.44-.27.65a2.41,2.41,0,0,1-.32.54,1.42,1.42,0,0,1-.46.38,1.68,1.68,0,0,1-.72.14,4.87,4.87,0,0,1-.76-.06v-.93l.26.05.26,0a.93.93,0,0,0,.32-.05.6.6,0,0,0,.21-.14,1.1,1.1,0,0,0,.14-.21,2,2,0,0,0,.1-.29l.13-.39Z"/><path class="cls-5" d="M118,267.08h1.1V271l2-2h1.34l-1.9,1.82,2.08,3.15h-1.33l-1.52-2.41-.66.63V274H118Z"/><path class="cls-5" d="M123.2,274v-5h1.1v5Z"/><path class="cls-5" d="M125.49,269h1v1h0a1.33,1.33,0,0,1,.19-.4,1.87,1.87,0,0,1,.34-.35,1.73,1.73,0,0,1,.44-.25,1.19,1.19,0,0,1,.49-.1h.26l.15,0v1.06l-.24,0h-.23a1.36,1.36,0,0,0-.53.11,1.1,1.1,0,0,0-.42.33,1.42,1.42,0,0,0-.29.53,2.33,2.33,0,0,0-.11.73V274h-1.1Z"/><path class="cls-5" d="M128.91,274v-5H130v5Z"/><path class="cls-5" d="M133.88,269h1v1h0a1,1,0,0,1,.19-.4,1.81,1.81,0,0,1,.33-.35,1.73,1.73,0,0,1,.44-.25,1.19,1.19,0,0,1,.49-.1h.27l.14,0v1.06l-.23,0h-.24a1.31,1.31,0,0,0-.52.11,1.06,1.06,0,0,0-.43.33,1.58,1.58,0,0,0-.29.53,2.34,2.34,0,0,0-.1.73V274h-1.1Z"/><path class="cls-5" d="M138,271.75a2.1,2.1,0,0,0,.08.56,1.51,1.51,0,0,0,.25.47,1.19,1.19,0,0,0,.41.32,1.4,1.4,0,0,0,.6.12,1.28,1.28,0,0,0,.77-.21,1.12,1.12,0,0,0,.44-.62h1a2.11,2.11,0,0,1-.3.72,2,2,0,0,1-.51.54,2.46,2.46,0,0,1-.67.33,2.76,2.76,0,0,1-.77.11,2.61,2.61,0,0,1-1-.2,2.08,2.08,0,0,1-.77-.53,2.6,2.6,0,0,1-.47-.83,3.57,3.57,0,0,1-.16-1.06,3.1,3.1,0,0,1,.17-1,2.7,2.7,0,0,1,.48-.84,2.27,2.27,0,0,1,.76-.57,2.29,2.29,0,0,1,1-.21,2.14,2.14,0,0,1,1.05.25,2.34,2.34,0,0,1,.78.65,2.92,2.92,0,0,1,.45.92,3.06,3.06,0,0,1,.07,1.09Zm2.56-.72a1.65,1.65,0,0,0-.11-.5,1.17,1.17,0,0,0-.25-.42,1.2,1.2,0,0,0-.38-.29,1.09,1.09,0,0,0-.51-.11,1.32,1.32,0,0,0-.53.1,1.26,1.26,0,0,0-.4.28,1.51,1.51,0,0,0-.27.42,1.46,1.46,0,0,0-.11.52Z"/><path class="cls-5" d="M142.45,269h1v.75a1.79,1.79,0,0,1,.66-.65,1.72,1.72,0,0,1,.89-.24,1.86,1.86,0,0,1,1.29.42,1.62,1.62,0,0,1,.48,1.27V274h-1.1v-3.13a1.36,1.36,0,0,0-.25-.85.91.91,0,0,0-.72-.26,1.12,1.12,0,0,0-.5.1,1.08,1.08,0,0,0-.38.28,1.46,1.46,0,0,0-.33.93V274h-1.09Z"/><path class="cls-5" d="M148,267.08h1.1V271l2-2h1.35l-1.91,1.82,2.09,3.15h-1.34l-1.52-2.41-.65.63V274H148Z"/><path class="cls-5" d="M153.23,272.65h1.33V274a1.44,1.44,0,0,1-.36,1,1.6,1.6,0,0,1-.93.52v-.58a.72.72,0,0,0,.47-.36,1,1,0,0,0,.15-.58h-.66Z"/><path class="cls-5" d="M163.18,274h-1v-.67h0a1.33,1.33,0,0,1-.64.62,2.4,2.4,0,0,1-1.92,0,2.06,2.06,0,0,1-.73-.56,2.35,2.35,0,0,1-.43-.85,3.49,3.49,0,0,1-.15-1,3.33,3.33,0,0,1,.18-1.16,2.46,2.46,0,0,1,.49-.81,1.77,1.77,0,0,1,.69-.47,2.22,2.22,0,0,1,.8-.15,3.89,3.89,0,0,1,.47,0,2.44,2.44,0,0,1,.46.14,2.14,2.14,0,0,1,.41.25,1.28,1.28,0,0,1,.31.35h0v-2.54h1.1Zm-3.83-2.43a2.57,2.57,0,0,0,.08.62,1.63,1.63,0,0,0,.25.55,1.34,1.34,0,0,0,.43.39,1.32,1.32,0,0,0,.62.14,1.28,1.28,0,0,0,.63-.15,1.4,1.4,0,0,0,.43-.41,2,2,0,0,0,.25-.56,2.74,2.74,0,0,0,.08-.64,2,2,0,0,0-.37-1.29,1.22,1.22,0,0,0-1-.46,1.23,1.23,0,0,0-.65.16,1.3,1.3,0,0,0-.43.41,1.77,1.77,0,0,0-.24.58A2.84,2.84,0,0,0,159.35,271.52Z"/><path class="cls-5" d="M168.74,274h-1.07v-.69h0a1.53,1.53,0,0,1-.61.6,1.61,1.61,0,0,1-.81.23,1.85,1.85,0,0,1-1.42-.49,2.13,2.13,0,0,1-.44-1.47V269h1.1v3a1.33,1.33,0,0,0,.25.92.91.91,0,0,0,.7.27,1.25,1.25,0,0,0,.58-.11,1,1,0,0,0,.38-.28,1.14,1.14,0,0,0,.2-.43,2.21,2.21,0,0,0,.07-.54V269h1.09Zm-3.57-5.79v-1h1.1v1Zm2.76-1v1h-1.1v-1Z"/><path class="cls-5" d="M169.73,269h4v.76l-2.85,3.35h3V274h-4.38v-.77l2.76-3.34h-2.56Z"/><path class="cls-5" d="M175.57,271.75a2.1,2.1,0,0,0,.08.56,1.51,1.51,0,0,0,.25.47,1.11,1.11,0,0,0,.41.32,1.4,1.4,0,0,0,.6.12,1.28,1.28,0,0,0,.77-.21,1.17,1.17,0,0,0,.44-.62h1a2.11,2.11,0,0,1-.3.72,2,2,0,0,1-.51.54,2.46,2.46,0,0,1-.67.33,2.81,2.81,0,0,1-.77.11,2.61,2.61,0,0,1-1-.2,2.08,2.08,0,0,1-.77-.53,2.42,2.42,0,0,1-.47-.83,3.27,3.27,0,0,1-.16-1.06,3.1,3.1,0,0,1,.17-1,2.7,2.7,0,0,1,.48-.84,2.27,2.27,0,0,1,.76-.57,2.29,2.29,0,0,1,1-.21,2.14,2.14,0,0,1,1.05.25,2.34,2.34,0,0,1,.78.65,2.7,2.7,0,0,1,.44.92,2.85,2.85,0,0,1,.08,1.09Zm2.56-.72a1.65,1.65,0,0,0-.11-.5,1.34,1.34,0,0,0-.25-.42,1.24,1.24,0,0,0-.39-.29,1,1,0,0,0-.5-.11,1.32,1.32,0,0,0-.53.1,1.26,1.26,0,0,0-.4.28,1.51,1.51,0,0,0-.27.42,1.27,1.27,0,0,0-.11.52Z"/><path class="cls-5" d="M180.06,269h1v.73l0,0a1.79,1.79,0,0,1,.66-.65,1.72,1.72,0,0,1,.89-.24,1.86,1.86,0,0,1,1.29.42,1.62,1.62,0,0,1,.47,1.27V274h-1.09v-3.13a1.43,1.43,0,0,0-.25-.85.91.91,0,0,0-.72-.26,1.19,1.19,0,0,0-.51.1,1.13,1.13,0,0,0-.37.28,1.46,1.46,0,0,0-.33.93V274h-1.1Z"/><path class="cls-5" d="M187.77,269H189l1.26,3.82h0l1.21-3.82h1.14l-1.78,5h-1.24Z"/><path class="cls-5" d="M194.12,271.75a1.77,1.77,0,0,0,.08.56,1.33,1.33,0,0,0,.25.47,1.11,1.11,0,0,0,.41.32,1.37,1.37,0,0,0,.6.12,1.28,1.28,0,0,0,.77-.21,1.17,1.17,0,0,0,.44-.62h1a2.11,2.11,0,0,1-.3.72,2,2,0,0,1-.51.54,2.46,2.46,0,0,1-.67.33,2.81,2.81,0,0,1-.77.11,2.57,2.57,0,0,1-1-.2,2.08,2.08,0,0,1-.77-.53,2.42,2.42,0,0,1-.47-.83,3.27,3.27,0,0,1-.16-1.06,3.1,3.1,0,0,1,.17-1,2.7,2.7,0,0,1,.48-.84,2.28,2.28,0,0,1,1.76-.78,2.14,2.14,0,0,1,1,.25,2.34,2.34,0,0,1,.78.65,2.7,2.7,0,0,1,.44.92,2.85,2.85,0,0,1,.08,1.09Zm2.56-.72a1.65,1.65,0,0,0-.11-.5,1.34,1.34,0,0,0-.25-.42,1.24,1.24,0,0,0-.39-.29,1,1,0,0,0-.5-.11,1.29,1.29,0,0,0-.53.1,1.26,1.26,0,0,0-.4.28,1.51,1.51,0,0,0-.27.42,1.27,1.27,0,0,0-.11.52Z"/><path class="cls-5" d="M201.32,267.08h1.1v2.54h0a1.56,1.56,0,0,1,.64-.57,2.14,2.14,0,0,1,.42-.16,2.1,2.1,0,0,1,.43-.05,2.32,2.32,0,0,1,1,.21,2,2,0,0,1,.73.56,2.53,2.53,0,0,1,.43.85,3.42,3.42,0,0,1,.15,1,3.91,3.91,0,0,1-.13,1,2.56,2.56,0,0,1-.4.83,2,2,0,0,1-.67.58,2,2,0,0,1-1,.22,4.38,4.38,0,0,1-.51,0,1.55,1.55,0,0,1-.48-.13,1.27,1.27,0,0,1-.42-.25,1.05,1.05,0,0,1-.31-.4h0V274h-1Zm3.83,4.39a2.44,2.44,0,0,0-.09-.66,1.7,1.7,0,0,0-.26-.56,1.34,1.34,0,0,0-.43-.39,1.16,1.16,0,0,0-.6-.15,1.2,1.2,0,0,0-1,.48,2.09,2.09,0,0,0-.35,1.28,2.63,2.63,0,0,0,.09.7,1.57,1.57,0,0,0,.27.55,1.43,1.43,0,0,0,.44.37,1.25,1.25,0,0,0,.59.13,1.29,1.29,0,0,0,.64-.15,1.64,1.64,0,0,0,.43-.4,1.76,1.76,0,0,0,.24-.56A3.39,3.39,0,0,0,205.15,271.47Z"/><path class="cls-5" d="M211.54,274h-1.08v-.69h0a1.45,1.45,0,0,1-.6.6,1.63,1.63,0,0,1-.81.23,1.83,1.83,0,0,1-1.42-.49,2.13,2.13,0,0,1-.44-1.47V269h1.1v3a1.33,1.33,0,0,0,.25.92.9.9,0,0,0,.7.27,1.28,1.28,0,0,0,.58-.11,1,1,0,0,0,.37-.28,1,1,0,0,0,.21-.43,2.23,2.23,0,0,0,.06-.54V269h1.1ZM208,268.16v-1h1.1v1Zm2.75-1v1h-1.1v-1Z"/><path class="cls-5" d="M212.15,269h1.2l1.3,3.71h0l1.26-3.71h1.15l-1.94,5.24-.26.65a2.85,2.85,0,0,1-.32.54,1.46,1.46,0,0,1-.47.38,1.6,1.6,0,0,1-.71.14,4.77,4.77,0,0,1-.76-.06v-.93l.26.05.26,0a1,1,0,0,0,.32-.05.48.48,0,0,0,.2-.14.77.77,0,0,0,.14-.21,2,2,0,0,0,.11-.29l.12-.39Z"/><path class="cls-5" d="M222.06,274H221v-.69h0a1.45,1.45,0,0,1-.6.6,1.61,1.61,0,0,1-.81.23,1.83,1.83,0,0,1-1.42-.49,2.13,2.13,0,0,1-.44-1.47V269h1.1v3a1.33,1.33,0,0,0,.25.92.91.91,0,0,0,.7.27,1.25,1.25,0,0,0,.58-.11,1.08,1.08,0,0,0,.38-.28,1.14,1.14,0,0,0,.2-.43,2.23,2.23,0,0,0,.06-.54V269h1.1Zm-3.57-5.79v-1h1.1v1Zm2.75-1v1h-1.09v-1Z"/><path class="cls-5" d="M223.25,267.08h1.09V271l2-2h1.34l-1.9,1.82,2.09,3.15h-1.34L225,271.54l-.66.63V274h-1.09Z"/><path class="cls-5" d="M228.42,267.08h1.09V274h-1.09Z"/><path class="cls-5" d="M235.08,274H234v-.69h0a1.57,1.57,0,0,1-.6.6,1.67,1.67,0,0,1-.82.23,1.86,1.86,0,0,1-1.42-.49,2.13,2.13,0,0,1-.43-1.47V269h1.09v3a1.39,1.39,0,0,0,.25.92.93.93,0,0,0,.71.27,1.21,1.21,0,0,0,.57-.11,1,1,0,0,0,.38-.28,1,1,0,0,0,.21-.43,2.23,2.23,0,0,0,.06-.54V269h1.1Zm-3.58-5.79v-1h1.1v1Zm2.76-1v1h-1.1v-1Z"/><path class="cls-5" d="M236.26,267.08h1.1V271l2-2h1.35l-1.91,1.82,2.09,3.15h-1.34L238,271.54l-.65.63V274h-1.1Z"/><path class="cls-5" d="M241.43,267.08h1.1V274h-1.1Z"/><path class="cls-5" d="M244.58,271.75a1.77,1.77,0,0,0,.08.56,1.31,1.31,0,0,0,.24.47,1.23,1.23,0,0,0,.42.32,1.34,1.34,0,0,0,.6.12,1.3,1.3,0,0,0,.77-.21,1.23,1.23,0,0,0,.44-.62h1a2.11,2.11,0,0,1-.3.72,2,2,0,0,1-.51.54,2.46,2.46,0,0,1-.67.33,2.87,2.87,0,0,1-.77.11,2.57,2.57,0,0,1-1-.2,2,2,0,0,1-.77-.53,2.27,2.27,0,0,1-.47-.83,3.27,3.27,0,0,1-.16-1.06,3.1,3.1,0,0,1,.17-1,2.7,2.7,0,0,1,.48-.84,2.24,2.24,0,0,1,1.76-.78,2.14,2.14,0,0,1,1.05.25,2.21,2.21,0,0,1,.77.65,2.55,2.55,0,0,1,.45.92,2.66,2.66,0,0,1,.07,1.09Zm2.56-.72a2,2,0,0,0-.11-.5,1.34,1.34,0,0,0-.25-.42,1.24,1.24,0,0,0-.39-.29,1,1,0,0,0-.5-.11,1.29,1.29,0,0,0-.53.1,1.15,1.15,0,0,0-.4.28,1.17,1.17,0,0,0-.27.42,1.27,1.27,0,0,0-.11.52Z"/><path class="cls-5" d="M249.07,269h1v1h0a1.13,1.13,0,0,1,.19-.4,1.6,1.6,0,0,1,.34-.35,1.67,1.67,0,0,1,.43-.25,1.24,1.24,0,0,1,.5-.1h.26l.15,0v1.06l-.24,0h-.23a1.36,1.36,0,0,0-.53.11,1.21,1.21,0,0,0-.43.33,1.57,1.57,0,0,0-.28.53,2.33,2.33,0,0,0-.11.73V274h-1.1Z"/><path class="cls-5" d="M257,274h-1v-.67h0a1.35,1.35,0,0,1-.65.62,2.26,2.26,0,0,1-.89.19,2.34,2.34,0,0,1-1-.21,2.26,2.26,0,0,1-.73-.56,2.52,2.52,0,0,1-.43-.85,3.49,3.49,0,0,1-.14-1,3.33,3.33,0,0,1,.18-1.16,2.29,2.29,0,0,1,.48-.81,1.88,1.88,0,0,1,.7-.47,2.17,2.17,0,0,1,.79-.15,3.73,3.73,0,0,1,.47,0,2.54,2.54,0,0,1,.47.14,2.06,2.06,0,0,1,.4.25,1.32,1.32,0,0,1,.32.35h0v-2.54H257Zm-3.83-2.43a2.16,2.16,0,0,0,.09.62,1.46,1.46,0,0,0,.25.55,1.31,1.31,0,0,0,.42.39,1.35,1.35,0,0,0,.62.14,1.28,1.28,0,0,0,.63-.15,1.3,1.3,0,0,0,.43-.41,1.58,1.58,0,0,0,.25-.56,2.3,2.3,0,0,0,.09-.64,2,2,0,0,0-.38-1.29,1.29,1.29,0,0,0-2.08.11,1.43,1.43,0,0,0-.24.58A2.84,2.84,0,0,0,253.14,271.52Z"/><path class="cls-5" d="M259,271.75a1.77,1.77,0,0,0,.08.56,1.31,1.31,0,0,0,.24.47,1.23,1.23,0,0,0,.42.32,1.54,1.54,0,0,0,1.37-.09,1.23,1.23,0,0,0,.44-.62h1a2.11,2.11,0,0,1-.3.72,2,2,0,0,1-.51.54,2.61,2.61,0,0,1-.67.33,2.88,2.88,0,0,1-.78.11,2.61,2.61,0,0,1-1-.2,2,2,0,0,1-.76-.53,2.27,2.27,0,0,1-.47-.83,3.27,3.27,0,0,1-.16-1.06,2.86,2.86,0,0,1,.17-1,2.7,2.7,0,0,1,.48-.84,2.24,2.24,0,0,1,1.75-.78,2.16,2.16,0,0,1,1.06.25,2.21,2.21,0,0,1,.77.65,2.55,2.55,0,0,1,.45.92,2.85,2.85,0,0,1,.07,1.09Zm2.56-.72a1.66,1.66,0,0,0-.12-.5,1.17,1.17,0,0,0-.25-.42,1.1,1.1,0,0,0-.38-.29,1.06,1.06,0,0,0-.51-.11,1.27,1.27,0,0,0-.52.1,1.15,1.15,0,0,0-.4.28,1.17,1.17,0,0,0-.27.42,1.27,1.27,0,0,0-.11.52Z"/><path class="cls-5" d="M266.23,267.08h1.09V271l2-2h1.34l-1.9,1.82,2.09,3.15H269.5L268,271.54l-.66.63V274h-1.09Z"/><path class="cls-5" d="M275.74,274h-1.08v-.69h0a1.57,1.57,0,0,1-.6.6,1.67,1.67,0,0,1-.82.23,1.86,1.86,0,0,1-1.42-.49,2.13,2.13,0,0,1-.43-1.47V269h1.09v3a1.39,1.39,0,0,0,.25.92.92.92,0,0,0,.71.27,1.21,1.21,0,0,0,.57-.11,1,1,0,0,0,.38-.28,1.33,1.33,0,0,0,.21-.43,2.23,2.23,0,0,0,.06-.54V269h1.1Z"/><path class="cls-5" d="M276.92,267.08H278V274h-1.1Z"/><path class="cls-5" d="M279.24,267.08h1.1V274h-1.1Z"/><path class="cls-5" d="M285.7,272.84a.62.62,0,0,0,.05.29.23.23,0,0,0,.21.09h.11l.16,0V274l-.15,0-.19.05-.19,0h-.16A1,1,0,0,1,285,274a.66.66,0,0,1-.29-.47,1.91,1.91,0,0,1-.81.46,3,3,0,0,1-.92.15,2,2,0,0,1-.64-.1,1.81,1.81,0,0,1-.54-.26,1.22,1.22,0,0,1-.38-.46,1.41,1.41,0,0,1-.14-.64,1.49,1.49,0,0,1,.17-.75,1.27,1.27,0,0,1,.44-.45,2,2,0,0,1,.62-.24l.69-.11c.2,0,.38-.06.56-.08a2.18,2.18,0,0,0,.48-.08.75.75,0,0,0,.33-.18.49.49,0,0,0,.12-.36.63.63,0,0,0-.1-.35.69.69,0,0,0-.25-.2,1.15,1.15,0,0,0-.33-.1,2.18,2.18,0,0,0-.35,0,1.36,1.36,0,0,0-.76.19.77.77,0,0,0-.34.6h-1.1a1.61,1.61,0,0,1,.24-.8,1.55,1.55,0,0,1,.51-.51,2,2,0,0,1,.71-.27,4.28,4.28,0,0,1,.81-.08,3.53,3.53,0,0,1,.72.08,1.9,1.9,0,0,1,.64.25,1.38,1.38,0,0,1,.46.44,1.31,1.31,0,0,1,.17.67Zm-1.1-1.38a1.42,1.42,0,0,1-.61.2,6.26,6.26,0,0,0-.74.1,2,2,0,0,0-.33.08.87.87,0,0,0-.29.14.59.59,0,0,0-.2.24.8.8,0,0,0-.07.36.45.45,0,0,0,.1.31.82.82,0,0,0,.26.2,1.15,1.15,0,0,0,.33.1l.32,0a1.89,1.89,0,0,0,.39-.05,1.16,1.16,0,0,0,.4-.16,1.14,1.14,0,0,0,.32-.3.73.73,0,0,0,.12-.43Z"/><path class="cls-5" d="M286.88,269h1v.73l0,0a1.79,1.79,0,0,1,.66-.65,1.7,1.7,0,0,1,.89-.24,1.86,1.86,0,0,1,1.29.42,1.62,1.62,0,0,1,.47,1.27V274h-1.09v-3.13a1.43,1.43,0,0,0-.25-.85.92.92,0,0,0-.73-.26,1.18,1.18,0,0,0-.5.1,1.13,1.13,0,0,0-.37.28,1.24,1.24,0,0,0-.24.42,1.44,1.44,0,0,0-.09.51V274h-1.1Z"/><path class="cls-5" d="M292.44,274v-5h1.09v5Z"/><path class="cls-5" d="M294.76,267.08h1.09V274h-1.09Z"/><path class="cls-5" d="M301.22,272.84a.52.52,0,0,0,0,.29q0,.09.21.09h.11l.16,0V274l-.15,0-.19.05-.19,0h-.17a1.08,1.08,0,0,1-.56-.14.68.68,0,0,1-.28-.47,1.91,1.91,0,0,1-.81.46,3,3,0,0,1-.92.15,2,2,0,0,1-.64-.1,1.86,1.86,0,0,1-.55-.26,1.36,1.36,0,0,1-.51-1.1,1.39,1.39,0,0,1,.17-.75,1.27,1.27,0,0,1,.44-.45,2,2,0,0,1,.62-.24l.68-.11c.2,0,.39-.06.57-.08a2.18,2.18,0,0,0,.48-.08.75.75,0,0,0,.33-.18.49.49,0,0,0,.12-.36.56.56,0,0,0-.11-.35.62.62,0,0,0-.25-.2,1.15,1.15,0,0,0-.33-.1,2,2,0,0,0-.34,0,1.34,1.34,0,0,0-.76.19.74.74,0,0,0-.34.6H297a1.71,1.71,0,0,1,.23-.8,1.69,1.69,0,0,1,.52-.51,2,2,0,0,1,.7-.27,4.45,4.45,0,0,1,.81-.08,3.55,3.55,0,0,1,.73.08,2,2,0,0,1,.64.25,1.35,1.35,0,0,1,.45.44,1.22,1.22,0,0,1,.18.67Zm-1.1-1.38a1.42,1.42,0,0,1-.62.2,6.09,6.09,0,0,0-.73.1,2.09,2.09,0,0,0-.34.08,1,1,0,0,0-.29.14.65.65,0,0,0-.19.24.8.8,0,0,0-.07.36.45.45,0,0,0,.1.31.73.73,0,0,0,.26.2,1.19,1.19,0,0,0,.32.1l.33,0a1.89,1.89,0,0,0,.39-.05,1.24,1.24,0,0,0,.4-.16,1,1,0,0,0,.31-.3.67.67,0,0,0,.13-.43Z"/><path class="cls-5" d="M302.4,269h1v.69h0a2.24,2.24,0,0,1,.27-.34,1.35,1.35,0,0,1,.32-.26,2.19,2.19,0,0,1,.41-.17,2.09,2.09,0,0,1,.53-.06,1.86,1.86,0,0,1,.84.2,1.14,1.14,0,0,1,.55.63,2.21,2.21,0,0,1,.65-.61,1.7,1.7,0,0,1,.91-.22,1.78,1.78,0,0,1,1.23.39,1.63,1.63,0,0,1,.44,1.29V274h-1.1V271a4.61,4.61,0,0,0,0-.54,1.08,1.08,0,0,0-.11-.42.66.66,0,0,0-.27-.28,1.15,1.15,0,0,0-.5-.09.94.94,0,0,0-.81.34,1.63,1.63,0,0,0-.25,1V274h-1.1v-3.19a1.34,1.34,0,0,0-.19-.79.77.77,0,0,0-.69-.26,1.1,1.1,0,0,0-.4.08,1,1,0,0,0-.35.25,1.27,1.27,0,0,0-.24.41,1.55,1.55,0,0,0-.09.55V274h-1.1Z"/><path class="cls-5" d="M314.94,272.84a.5.5,0,0,0,.06.29.2.2,0,0,0,.2.09h.12l.15,0V274l-.15,0-.19.05-.19,0h-.16a1.06,1.06,0,0,1-.56-.14.69.69,0,0,1-.29-.47,1.87,1.87,0,0,1-.8.46,3.1,3.1,0,0,1-.92.15,2,2,0,0,1-.65-.1,1.93,1.93,0,0,1-.54-.26,1.32,1.32,0,0,1-.38-.46,1.41,1.41,0,0,1-.14-.64,1.49,1.49,0,0,1,.17-.75,1.29,1.29,0,0,1,.45-.45,1.94,1.94,0,0,1,.61-.24l.69-.11c.2,0,.39-.06.57-.08a2,2,0,0,0,.47-.08.75.75,0,0,0,.33-.18.49.49,0,0,0,.12-.36.56.56,0,0,0-.1-.35.69.69,0,0,0-.25-.2,1.15,1.15,0,0,0-.33-.1,2.11,2.11,0,0,0-.35,0,1.36,1.36,0,0,0-.76.19.74.74,0,0,0-.33.6h-1.1a1.61,1.61,0,0,1,.23-.8,1.55,1.55,0,0,1,.51-.51,2.09,2.09,0,0,1,.71-.27,4.28,4.28,0,0,1,.81-.08,3.53,3.53,0,0,1,.72.08,1.9,1.9,0,0,1,.64.25,1.38,1.38,0,0,1,.46.44,1.31,1.31,0,0,1,.17.67Zm-1.09-1.38a1.46,1.46,0,0,1-.62.2,5.83,5.83,0,0,0-.73.1,1.87,1.87,0,0,0-.34.08,1,1,0,0,0-.29.14.68.68,0,0,0-.2.24,1,1,0,0,0-.07.36.45.45,0,0,0,.11.31.69.69,0,0,0,.25.2,1.15,1.15,0,0,0,.33.1l.32,0a2,2,0,0,0,.4-.05,1.24,1.24,0,0,0,.4-.16,1.11,1.11,0,0,0,.31-.3.73.73,0,0,0,.13-.43Z"/><path class="cls-5" d="M316,269H320v.76l-2.85,3.35h3V274h-4.38v-.77l2.75-3.34H316Z"/><path class="cls-5" d="M321,272.65h1.33V274H321Z"/></g></g></svg>