<?xml version="1.0" encoding="utf-8"?>
<!-- Generator: Adobe Illustrator 25.0.1, SVG Export Plug-In . SVG Version: 6.00 Build 0)  -->
<svg version="1.1" id="Layer_1" xmlns="http://www.w3.org/2000/svg" xmlns:xlink="http://www.w3.org/1999/xlink" x="0px" y="0px"
	 viewBox="0 0 595.28 420.94" style="enable-background:new 0 0 595.28 420.94;" xml:space="preserve">
<style type="text/css">
	.st0{fill:#FFC800;}
	.st1{fill:#1D1D1B;}
	.st2{fill:#FDC603;}
	.st3{fill:#FFFFFF;}
</style>
<g>
	<rect x="117.64" y="30.47" class="st0" width="360" height="360"/>
	<g>
		<g>
			<path class="st1" d="M183.16,200.48h9.13v20.01h12.23v7.08h-21.36V200.48z"/>
			<path class="st1" d="M207.03,200.48h9.13v27.09h-9.13V200.48z"/>
			<path class="st1" d="M247.27,220.1c0,4.72-3.98,7.47-11.45,7.47h-15.25v-27.09h14.47c7.47,0,10.95,2.98,10.95,7.08
				c0,2.51-1.28,4.6-3.75,5.84C245.42,214.57,247.27,216.89,247.27,220.1z M229.55,206.87v4.02h4.26c2.05,0,2.98-0.7,2.98-2.01
				s-0.93-2.01-2.98-2.01H229.55z M238.06,219.06c0-1.39-1.01-2.13-3.02-2.13h-5.49v4.26h5.49
				C237.06,221.18,238.06,220.45,238.06,219.06z"/>
			<path class="st1" d="M273,220.68v6.89h-22.52v-27.09h22.02v6.89h-13.04v3.17h11.45v6.58h-11.45v3.56H273z"/>
			<path class="st1" d="M288.13,220.76h-2.48v6.81h-9.13v-27.09h13.04c7.55,0,12.34,3.95,12.34,10.22c0,3.91-1.86,6.85-5.11,8.51
				l5.69,8.36h-9.75L288.13,220.76z M288.98,207.52h-3.33v6.35h3.33c2.51,0,3.71-1.2,3.71-3.17
				C292.7,208.72,291.5,207.52,288.98,207.52z"/>
			<path class="st1" d="M310.84,207.56h-7.93v-7.08h25v7.08h-7.93v20.01h-9.13V207.56z"/>
			<path class="st1" d="M352.79,220.68v6.89h-22.52v-27.09h22.02v6.89h-13.04v3.17h11.45v6.58h-11.45v3.56H352.79z"/>
			<path class="st1" d="M355.22,214.02c0-8.32,6.38-14.16,15.09-14.16c5.3,0,9.48,1.94,12.15,5.42l-5.77,5.15
				c-1.59-2.01-3.48-3.17-5.92-3.17c-3.79,0-6.35,2.63-6.35,6.77c0,4.14,2.55,6.77,6.35,6.77c2.44,0,4.33-1.16,5.92-3.17l5.77,5.15
				c-2.67,3.48-6.85,5.42-12.15,5.42C361.61,228.19,355.22,222.34,355.22,214.02z"/>
			<path class="st1" d="M411.79,200.48v27.09h-9.13v-9.98h-8.44v9.98h-9.13v-27.09h9.13v9.6h8.44v-9.6H411.79z"/>
		</g>
		<polygon class="st1" points="265.39,151.87 265.39,189.37 183.07,189.37 183.07,90.91 220.56,90.91 220.56,151.87 		"/>
		<path class="st1" d="M412.2,236.75v54.41c0,9.52-6.74,17.71-16.08,19.54l-98.48,19.32l-98.48-19.32
			c-9.34-1.83-16.08-10.02-16.08-19.54v-54.41H412.2z"/>
		<line class="st2" x1="314.34" y1="90.97" x2="313.75" y2="90.97"/>
		<polygon class="st1" points="412.2,90.97 412.2,189.42 374.72,189.42 374.72,128.46 363.25,128.46 363.25,189.42 325.77,189.42 
			325.77,128.46 314.34,128.46 314.34,189.42 276.86,189.42 276.86,90.97 		"/>
		<g>
			<path class="st3" d="M218.3,276.53l-0.06-9.85l-4.69,7.9h-3.21l-4.69-7.56v9.51h-6.64v-21.61H205l7.04,11.51l6.85-11.51h5.99
				l0.06,21.61H218.3z"/>
			<path class="st3" d="M246.42,271.04v5.49h-17.96v-21.61h17.56v5.49h-10.4v2.53h9.14v5.25h-9.14v2.84H246.42z"/>
			<path class="st3" d="M248.36,265.73c0-6.64,5.09-11.3,12.04-11.3c4.23,0,7.56,1.54,9.69,4.32l-4.6,4.1
				c-1.27-1.6-2.78-2.53-4.72-2.53c-3.02,0-5.06,2.1-5.06,5.4c0,3.3,2.04,5.4,5.06,5.4c1.95,0,3.46-0.93,4.72-2.53l4.6,4.1
				c-2.13,2.78-5.46,4.32-9.69,4.32C253.45,277.03,248.36,272.37,248.36,265.73z"/>
			<path class="st3" d="M293.48,254.93v21.61h-7.28v-7.96h-6.73v7.96h-7.28v-21.61h7.28v7.65h6.73v-7.65H293.48z"/>
			<path class="st3" d="M311.72,272.77h-8.21l-1.45,3.77h-7.41l9.45-21.61h7.16l9.45,21.61h-7.53L311.72,272.77z M309.72,267.52
				l-2.1-5.43l-2.1,5.43H309.72z"/>
			<path class="st3" d="M343.17,254.93v21.61h-5.99l-8.21-9.82v9.82h-7.1v-21.61h5.99l8.21,9.82v-9.82H343.17z"/>
			<path class="st3" d="M346.69,254.93h7.28v21.61h-7.28V254.93z"/>
			<path class="st3" d="M356.63,265.73c0-6.64,5.09-11.3,12.04-11.3c4.23,0,7.56,1.54,9.69,4.32l-4.6,4.1
				c-1.27-1.6-2.78-2.53-4.72-2.53c-3.02,0-5.06,2.1-5.06,5.4c0,3.3,2.04,5.4,5.06,5.4c1.95,0,3.46-0.93,4.72-2.53l4.6,4.1
				c-2.13,2.78-5.46,4.32-9.69,4.32C361.72,277.03,356.63,272.37,356.63,265.73z"/>
			<path class="st3" d="M378.79,274.81l2.35-5.31c2.04,1.2,4.75,1.98,7.13,1.98c2.07,0,2.81-0.43,2.81-1.17
				c0-2.72-11.94-0.52-11.94-8.58c0-4.01,3.36-7.28,10.06-7.28c2.9,0,5.89,0.62,8.15,1.88l-2.19,5.28
				c-2.13-1.08-4.14-1.61-6.02-1.61c-2.13,0-2.81,0.62-2.81,1.36c0,2.59,11.95,0.43,11.95,8.4c0,3.95-3.37,7.28-10.06,7.28
				C384.59,277.03,380.95,276.13,378.79,274.81z"/>
		</g>
	</g>
</g>
</svg>
