<?xml version="1.0" encoding="UTF-8"?>
<svg id="Layer_1" data-name="Layer 1" xmlns="http://www.w3.org/2000/svg" viewBox="0 0 337.8 118.65">
  <defs>
    <style>
      .cls-1 {
        fill: #dadad9;
      }

      .cls-1, .cls-2 {
        stroke-width: 0px;
      }

      .cls-2 {
        fill: #e72529;
      }
    </style>
  </defs>
  <path class="cls-2" d="M226.07,60.67h-120.85c-3.18,0-5.75-2.57-5.75-5.75v-5.84c0-7.22,3.85-13.88,10.09-17.48L159.61,2.7c6.24-3.6,13.94-3.6,20.18,0l8.11,4.68c1.85,1.07,2.1,3.64.49,5.05l-32.76,28.63c-3.01,2.63-1.42,7.58,2.56,7.96l49.19,4.77c6.72.65,13.15,3.02,18.69,6.88h0Z"/>
  <g>
    <g>
      <path class="cls-1" d="M32.26,95.86c-1.67-1.32-4.19-2.38-7.54-3.17l-7.66-1.81c-2.95-.69-4.89-1.29-5.8-1.81-1.42-.77-2.12-1.93-2.12-3.49,0-1.7.72-3.02,2.15-3.97,1.44-.95,3.36-1.42,5.76-1.42,2.16,0,3.97.37,5.43,1.09,2.18,1.11,3.36,2.97,3.52,5.59h8.76c-.16-4.64-1.88-8.17-5.17-10.61-3.29-2.44-7.26-3.66-11.91-3.66-5.57,0-9.8,1.29-12.67,3.88-2.88,2.58-4.31,5.83-4.31,9.74,0,4.28,1.47,7.43,4.41,9.44,1.74,1.2,4.92,2.32,9.57,3.34l4.72,1.04c2.76.59,4.78,1.27,6.06,2.04,1.27.79,1.91,1.9,1.91,3.34,0,2.47-1.3,4.15-3.9,5.06-1.37.47-3.15.71-5.35.71-3.67,0-6.25-.9-7.77-2.69-.83-.99-1.38-2.48-1.66-4.47H0c0,4.54,1.64,8.1,4.94,10.7,3.29,2.59,7.81,3.89,13.55,3.89s9.98-1.32,13.06-3.95c3.08-2.63,4.62-5.94,4.62-9.93s-1.3-6.86-3.9-8.91Z"/>
      <path class="cls-1" d="M53.47,84.23c-5.54,0-9.68,1.71-12.4,5.12-2.72,3.41-4.08,7.44-4.08,12.09s1.36,8.78,4.08,12.14c2.72,3.36,6.86,5.04,12.4,5.04s9.68-1.68,12.4-5.04c2.72-3.36,4.08-7.41,4.08-12.14s-1.36-8.68-4.08-12.09c-2.72-3.41-6.86-5.12-12.4-5.12ZM59.12,108.91c-1.32,1.75-3.22,2.63-5.68,2.63s-4.37-.88-5.7-2.63c-1.33-1.75-2-4.25-2-7.48s.67-5.72,2-7.46,3.23-2.62,5.7-2.62,4.36.87,5.68,2.62c1.32,1.74,1.98,4.23,1.98,7.46s-.66,5.72-1.98,7.48Z"/>
      <rect class="cls-1" x="73.26" y="73.9" width="8.43" height="43.62"/>
      <rect class="cls-1" x="87.13" y="85.26" width="8.55" height="32.26"/>
      <rect class="cls-1" x="87.13" y="73.63" width="8.55" height="7.78"/>
      <polygon class="cls-1" points="142.31 96.67 164.79 96.67 164.79 93.16 142.31 93.16 142.31 77.4 167.22 77.4 167.22 73.88 138.19 73.88 138.19 117.52 167.83 117.52 167.83 114.01 142.31 114.01 142.31 96.67"/>
      <rect class="cls-1" x="172.31" y="73.88" width="3.64" height="43.64"/>
      <path class="cls-1" d="M205.28,89.73c-2.47-2.97-5.86-4.45-10.18-4.45-2.26,0-4.28.43-6.06,1.3-1.78.87-3.28,2.06-4.52,3.58-1.23,1.52-2.18,3.28-2.85,5.3-.67,2.02-1,4.18-1,6.49s.28,4.45.85,6.45c.57,2,1.43,3.74,2.61,5.21,1.17,1.48,2.67,2.64,4.49,3.49,1.82.85,3.98,1.27,6.49,1.27,1.98,0,3.72-.26,5.21-.79,1.49-.52,2.79-1.26,3.88-2.21,1.09-.95,2-2.06,2.73-3.33.73-1.27,1.31-2.66,1.76-4.15h-4.06c-.57,2.3-1.7,4.08-3.39,5.33-1.7,1.25-3.74,1.88-6.12,1.88-1.74,0-3.27-.33-4.61-1-1.33-.67-2.43-1.56-3.3-2.67-.87-1.11-1.53-2.42-1.97-3.94-.45-1.52-.67-3.12-.67-4.82h24.37c.04-5.66-1.17-9.97-3.64-12.94ZM184.55,99.64c.16-1.49.5-2.91,1.03-4.24.52-1.33,1.22-2.5,2.09-3.52.87-1.01,1.92-1.82,3.15-2.42,1.23-.61,2.66-.91,4.27-.91s3.05.29,4.3.88c1.25.59,2.29,1.37,3.12,2.36.83.99,1.45,2.16,1.88,3.52.42,1.35.64,2.8.64,4.33h-20.49Z"/>
      <path class="cls-1" d="M232.52,112.85c-1.64,1.5-3.81,2.24-6.52,2.24-1.9,0-3.52-.37-4.85-1.12-1.33-.75-2.42-1.75-3.27-3-.85-1.25-1.47-2.67-1.85-4.24-.38-1.58-.58-3.19-.58-4.85s.2-3.22.61-4.82c.4-1.6,1.03-3.03,1.88-4.3.85-1.27,1.94-2.29,3.27-3.06,1.33-.77,2.93-1.15,4.79-1.15,2.42,0,4.42.66,6,1.97,1.58,1.31,2.69,3.14,3.33,5.49h3.7c-.57-3.68-1.97-6.38-4.21-8.12-2.24-1.74-5.18-2.61-8.82-2.61-2.34,0-4.42.45-6.21,1.36-1.8.91-3.3,2.13-4.52,3.67-1.21,1.54-2.13,3.3-2.76,5.3-.63,2-.94,4.09-.94,6.27,0,2.3.28,4.47.85,6.49.57,2.02,1.43,3.77,2.61,5.24,1.17,1.48,2.67,2.64,4.49,3.49,1.82.85,3.98,1.27,6.49,1.27,1.98,0,3.74-.28,5.27-.85,1.54-.57,2.86-1.36,3.97-2.39,1.11-1.03,2.02-2.26,2.73-3.7.71-1.43,1.22-3.02,1.55-4.76h-3.88c-.45,2.63-1.48,4.69-3.12,6.18Z"/>
      <path class="cls-1" d="M251.95,115.1c-.77,0-1.36-.08-1.79-.24-.42-.16-.74-.42-.94-.79-.2-.36-.32-.83-.36-1.39-.04-.57-.06-1.23-.06-2v-21.52h5.88v-3.03h-5.88v-8.73h-3.64v8.73h-4.42v3.03h4.42v22.97c0,2.34.47,3.97,1.42,4.88.95.91,2.33,1.36,4.15,1.36.89,0,1.7-.1,2.42-.3.73-.2,1.31-.34,1.76-.42v-2.97c-.48.12-.98.22-1.48.3-.51.08-1,.12-1.48.12Z"/>
      <path class="cls-1" d="M261.77,92.01h-.12v-5.88h-3.64v31.4h3.64v-15.39c0-1.74.15-3.4.45-5,.3-1.6.85-2.98,1.64-4.15.79-1.17,1.85-2.1,3.18-2.79,1.33-.69,3.03-1.01,5.09-.97v-3.94c-2.63,0-4.74.5-6.33,1.48-1.6.99-2.9,2.74-3.91,5.24Z"/>
      <path class="cls-1" d="M298.56,90.1c-1.21-1.47-2.73-2.65-4.55-3.52-1.82-.87-3.96-1.3-6.42-1.3s-4.55.43-6.36,1.3c-1.82.87-3.33,2.05-4.55,3.55-1.21,1.5-2.12,3.24-2.73,5.24s-.91,4.15-.91,6.46c0,2.75.38,5.15,1.15,7.21.77,2.06,1.81,3.78,3.12,5.15,1.31,1.37,2.85,2.4,4.61,3.09,1.76.69,3.65,1.05,5.67,1.09,2.18,0,4.17-.39,5.97-1.18,1.8-.79,3.33-1.91,4.61-3.36,1.27-1.45,2.25-3.19,2.94-5.21.69-2.02,1.03-4.28,1.03-6.79,0-2.3-.29-4.46-.88-6.49-.59-2.02-1.49-3.77-2.7-5.24ZM297.65,106.73c-.4,1.58-1.03,2.99-1.88,4.24-.85,1.25-1.95,2.25-3.3,3-1.35.75-2.98,1.12-4.88,1.12-1.74,0-3.27-.32-4.61-.97-1.33-.65-2.45-1.55-3.33-2.73-.89-1.17-1.57-2.58-2.03-4.21-.47-1.64-.7-3.42-.7-5.36,0-1.7.2-3.34.61-4.94.4-1.6,1.03-3.01,1.88-4.24.85-1.23,1.95-2.22,3.3-2.97,1.35-.75,2.98-1.12,4.88-1.12s3.58.34,4.91,1.03c1.33.69,2.42,1.63,3.27,2.82.85,1.19,1.47,2.6,1.88,4.21.4,1.62.61,3.35.61,5.21,0,1.7-.2,3.33-.61,4.91Z"/>
      <path class="cls-1" d="M330.59,93.25c-.14-1.19-.6-2.35-1.36-3.49-1.13-1.66-2.53-2.82-4.18-3.49-1.66-.67-3.45-1-5.39-1-2.18,0-4.05.48-5.61,1.45-1.56.97-3.06,2.22-4.52,3.76v-4.36h-3.64v31.4h3.64v-16.91c0-1.09.04-2.1.12-3.03.08-.93.3-1.9.67-2.91.28-.81.69-1.58,1.21-2.3.52-.73,1.16-1.37,1.91-1.94.75-.57,1.59-1.02,2.52-1.36.93-.34,1.96-.52,3.09-.52,2.91,0,4.99.71,6.24,2.12,1.25,1.41,1.88,3.54,1.88,6.36v20.49h3.64v-20.55c0-1.29-.07-2.54-.21-3.73Z"/>
      <path class="cls-1" d="M126.25,73.96h-4.5v15.39c-.95-1.52-2.18-2.71-3.7-3.57-1.52-.86-3.26-1.29-5.21-1.29-4.24,0-7.63,1.58-10.17,4.74-2.54,3.16-3.8,7.49-3.8,12.99,0,4.77,1.29,8.69,3.86,11.73,2.57,3.05,5.75,4.57,9.51,4.57,2.29,0,4.2-.43,5.74-1.3,1.54-.87,2.91-2.26,4.11-4.17v4.47h8.2v-43.56h-4.05ZM120.12,108.76c-1.24,1.78-3.06,2.66-5.45,2.66s-4.17-.89-5.34-2.68c-1.17-1.79-1.76-4.17-1.76-7.15,0-2.76.58-5.08,1.73-6.94,1.15-1.86,2.96-2.8,5.43-2.8,1.62,0,3.04.51,4.26,1.54,1.99,1.7,2.99,4.52,2.99,8.46,0,2.82-.62,5.12-1.86,6.9Z"/>
    </g>
    <path class="cls-1" d="M331.29,75.63c.18-.41.43-.76.73-1.06.31-.3.67-.54,1.08-.71.41-.17.85-.26,1.31-.26s.9.09,1.31.26c.41.17.77.41,1.07.71.31.3.55.66.73,1.06s.27.85.27,1.33-.09.94-.27,1.35-.42.77-.73,1.07c-.31.3-.66.54-1.07.71-.41.17-.84.25-1.31.25s-.9-.08-1.31-.25c-.41-.17-.77-.4-1.08-.71s-.55-.66-.73-1.07-.27-.86-.27-1.35.09-.92.27-1.33ZM331.84,78.11c.14.35.34.66.59.91.25.26.54.46.88.61.34.15.71.22,1.1.22s.75-.07,1.09-.22c.34-.15.63-.35.88-.61.25-.26.44-.56.59-.91.14-.35.21-.73.21-1.15s-.07-.78-.21-1.13c-.14-.35-.34-.65-.59-.91-.25-.26-.54-.46-.88-.6-.34-.15-.7-.22-1.09-.22s-.77.07-1.1.22c-.34.15-.63.35-.88.6-.25.26-.44.56-.59.91-.14.35-.21.72-.21,1.13s.07.8.21,1.15ZM334.62,75c.47,0,.82.09,1.04.28.23.19.34.47.34.85,0,.35-.1.61-.3.78-.2.17-.45.26-.74.29l1.13,1.74h-.66l-1.07-1.69h-.65v1.69h-.61v-3.94h1.52ZM334.35,76.75c.14,0,.27,0,.39-.01.12,0,.23-.03.33-.08s.17-.11.23-.19c.06-.09.09-.21.09-.37,0-.13-.03-.24-.08-.32-.05-.08-.12-.14-.2-.18-.08-.04-.17-.07-.28-.09-.11-.01-.21-.02-.31-.02h-.81v1.25h.64Z"/>
  </g>
</svg>