<?xml version="1.0" encoding="UTF-8"?>
<svg id="Layer_1" data-name="Layer 1" xmlns="http://www.w3.org/2000/svg" viewBox="0 0 162.05 65.07">
  <defs>
    <style>
      .cls-1 {
        fill: #dbdad9;
      }

      .cls-1, .cls-2 {
        stroke-width: 0px;
      }

      .cls-2 {
        fill: #ed3430;
      }
    </style>
  </defs>
  <polygon class="cls-2" points="108.49 23.91 81.02 37.26 53.56 23.91 53.56 0 108.49 0 108.49 23.91"/>
  <g>
    <path class="cls-1" d="M0,41.58h8.03l4.93,8.09,4.93-8.09h8.03v23.03h-7.66v-11.41l-5.3,8.19h-.13l-5.3-8.19v11.41H0v-23.03Z"/>
    <path class="cls-1" d="M28.56,41.58h19.64v6.32h-12.07v2.34h11.25v5.56h-11.25v2.5h12.24v6.32h-19.8v-23.03Z"/>
    <path class="cls-1" d="M56.32,48.09h-6.78v-6.51h21.25v6.51h-6.78v16.51h-7.7v-16.51Z"/>
    <path class="cls-1" d="M72.6,41.58h7.7v23.03h-7.7v-23.03Z"/>
    <path class="cls-1" d="M83,41.58h11.25c4.11,0,6.68,1.02,8.29,2.63,1.41,1.41,2.11,3.09,2.11,5.46v.07c0,3.39-1.74,5.69-4.54,7.04l5.36,7.83h-8.78l-4.34-6.58h-1.64v6.58h-7.7v-23.03ZM94.02,52.54c1.84,0,2.96-.82,2.96-2.24v-.07c0-1.48-1.12-2.2-2.93-2.2h-3.36v4.51h3.32Z"/>
    <path class="cls-1" d="M106.59,41.58h7.7v23.03h-7.7v-23.03Z"/>
    <path class="cls-1" d="M116.78,54.28v-12.7h7.83v12.6c0,2.86,1.48,4.08,3.55,4.08s3.55-1.12,3.55-3.91v-12.76h7.83v12.53c0,7.86-4.57,10.95-11.45,10.95s-11.32-3.16-11.32-10.79Z"/>
    <path class="cls-1" d="M140.08,61.15l4.11-4.9c2.5,1.94,5.33,2.7,8.06,2.7,1.41,0,1.97-.36,1.97-.99v-.07c0-.66-.72-1.02-3.19-1.51-5.16-1.05-9.7-2.53-9.7-7.4v-.07c0-4.38,3.45-7.76,9.77-7.76,4.47,0,7.73,1.05,10.4,3.16l-3.75,5.2c-2.2-1.58-4.77-2.27-6.91-2.27-1.15,0-1.68.39-1.68.95v.07c0,.63.59,1.05,3.06,1.48,5.89,1.05,9.84,2.83,9.84,7.43v.07c0,4.84-3.98,7.8-10.16,7.8-4.7,0-8.88-1.28-11.81-3.88Z"/>
  </g>
</svg>