<svg xmlns="http://www.w3.org/2000/svg" viewBox="0 0 665.27 302.39"><defs><style>.cls-1{fill:#e42320;}.cls-2{fill:#2b2b2b;}.cls-3{fill:#b2b2b2;}</style></defs><g id="Layer_2" data-name="Layer 2"><g id="Layer_1-2" data-name="Layer 1"><polygon class="cls-1" points="499.98 73.79 415.2 115.01 330.42 73.79 330.42 0 499.98 0 499.98 73.79"/><path class="cls-2" d="M165.12,128.33H189.9l15.23,25,15.23-25h24.77V199.4H221.47V164.17l-16.34,25.28h-.41l-16.34-25.28V199.4H165.12Z"/><path class="cls-2" d="M253.26,128.33h60.61v19.5H276.61V155h34.72v17.16H276.61v7.72h37.77V199.4H253.26Z"/><path class="cls-2" d="M339,148.44H318V128.33h65.59v20.11H362.71v51H339Z"/><path class="cls-2" d="M389.21,128.33H413V199.4H389.21Z"/><path class="cls-2" d="M421.29,128.33H456c12.69,0,20.61,3.15,25.59,8.13,4.37,4.36,6.5,9.54,6.5,16.85v.2c0,10.46-5.38,17.57-14,21.73l16.54,24.16h-27.1l-13.41-20.3h-5.07v20.3H421.29Zm34,33.81c5.69,0,9.14-2.54,9.14-6.9V155c0-4.56-3.45-6.8-9-6.8H445.05v13.91Z"/><path class="cls-2" d="M494.09,128.33h23.76V199.4H494.09Z"/><path class="cls-2" d="M525.57,167.52V128.33h24.16v38.89c0,8.83,4.57,12.59,11,12.59s11-3.45,11-12.08v-39.4h24.16V167c0,24.26-14.11,33.8-35.33,33.8S525.57,191.08,525.57,167.52Z"/><path class="cls-2" d="M597.45,188.74l12.69-15.12A39.9,39.9,0,0,0,635,181.94c4.37,0,6.1-1.12,6.1-3v-.21c0-2-2.24-3.14-9.85-4.67-15.94-3.25-30-7.82-30-22.84V151c0-13.5,10.66-24,30.15-24,13.81,0,23.86,3.25,32.08,9.75L652,152.8a37.51,37.51,0,0,0-21.32-7c-3.55,0-5.18,1.22-5.18,2.94v.2c0,1.93,1.83,3.25,9.44,4.57,18.18,3.25,30.36,8.74,30.36,23v.2c0,14.93-12.29,24.06-31.37,24.06C619.38,200.72,606.48,196.76,597.45,188.74Z"/><path class="cls-3" d="M8.38,276.38a4.59,4.59,0,0,1-3.13,1,4.64,4.64,0,0,1-3.15-1,3.83,3.83,0,0,1-1.11-3v-6.21h2.2v6.21a4.18,4.18,0,0,0,.07.8,1.68,1.68,0,0,0,.29.7,1.67,1.67,0,0,0,.63.49,2.61,2.61,0,0,0,1.07.18A2.06,2.06,0,0,0,6.87,275a2.5,2.5,0,0,0,.45-1.65v-6.21h2.2v6.21A3.78,3.78,0,0,1,8.38,276.38Z"/><path class="cls-3" d="M13.87,279.3a2.87,2.87,0,0,1-1.59.38l-.61,0-.61-.05V278l.57.06a3.88,3.88,0,0,0,.59,0,.78.78,0,0,0,.58-.31,1,1,0,0,0,.19-.59,1.32,1.32,0,0,0-.08-.44l-2.54-6.79h2.12l1.63,4.95h0l1.58-4.95h2.06l-3,8.13A2.48,2.48,0,0,1,13.87,279.3Z"/><path class="cls-3" d="M18.38,272.13a2.3,2.3,0,0,1,.35-1.16,2.4,2.4,0,0,1,.78-.74,3.43,3.43,0,0,1,1.07-.4,6.11,6.11,0,0,1,1.2-.12,8.41,8.41,0,0,1,1.11.08,3.36,3.36,0,0,1,1,.3,2.1,2.1,0,0,1,.76.62,1.8,1.8,0,0,1,.29,1.06v3.76a7.07,7.07,0,0,0,.06.94,1.58,1.58,0,0,0,.19.67h-2a3.37,3.37,0,0,1-.1-.34,2.09,2.09,0,0,1,0-.36,2.63,2.63,0,0,1-1.12.69,4.54,4.54,0,0,1-1.32.2,3.73,3.73,0,0,1-1-.13,2,2,0,0,1-.78-.39,2,2,0,0,1-.53-.67,2.4,2.4,0,0,1-.18-1,2.13,2.13,0,0,1,.21-1,1.84,1.84,0,0,1,.56-.64,2.48,2.48,0,0,1,.79-.36,8.79,8.79,0,0,1,.89-.19l.88-.11a5.13,5.13,0,0,0,.77-.13,1.24,1.24,0,0,0,.53-.24A.54.54,0,0,0,23,272a1.08,1.08,0,0,0-.1-.51.78.78,0,0,0-.28-.29,1.11,1.11,0,0,0-.41-.14,2.6,2.6,0,0,0-.5,0,1.55,1.55,0,0,0-.92.25,1.12,1.12,0,0,0-.39.84ZM23,273.6a.79.79,0,0,1-.31.18l-.41.1-.45.07-.48.07a3.17,3.17,0,0,0-.44.12,1.11,1.11,0,0,0-.38.18.88.88,0,0,0-.26.31,1,1,0,0,0-.1.46,1,1,0,0,0,.1.44.76.76,0,0,0,.27.29,1.13,1.13,0,0,0,.39.15,2.32,2.32,0,0,0,.46,0,1.66,1.66,0,0,0,.91-.2,1.33,1.33,0,0,0,.48-.46,1.77,1.77,0,0,0,.19-.56,4.21,4.21,0,0,0,0-.44Z"/><path class="cls-3" d="M28.39,269.91v1.34h0a2.61,2.61,0,0,1,.37-.62,2.55,2.55,0,0,1,.55-.49,2.87,2.87,0,0,1,.66-.32,2.53,2.53,0,0,1,.73-.11,1.42,1.42,0,0,1,.43.07v1.85l-.33-.05-.38,0a2.17,2.17,0,0,0-.93.18,1.66,1.66,0,0,0-.61.5,2.12,2.12,0,0,0-.33.73,4.39,4.39,0,0,0-.09.91v3.26h-2v-7.23Z"/><path class="cls-3" d="M34,269.91v7.23H32v-7.23Z"/><path class="cls-3" d="M.8,281.82H4.14a2.33,2.33,0,0,1,1.48.43,1.51,1.51,0,0,1,.56,1.28,1.55,1.55,0,0,1-.26.89,1.73,1.73,0,0,1-.72.57v0a1.51,1.51,0,0,1,1,.6,2,2,0,0,1,.33,1.17,1.94,1.94,0,0,1-.15.76,1.44,1.44,0,0,1-.45.6,2.26,2.26,0,0,1-.79.41A3.84,3.84,0,0,1,4,288.7H.8ZM2,284.7H4a1.1,1.1,0,0,0,.72-.24,1.08,1.08,0,0,0,0-1.44A1.2,1.2,0,0,0,4,282.8H2Zm0,3H4.13a1.18,1.18,0,0,0,.85-.28,1.06,1.06,0,0,0,.3-.8,1,1,0,0,0-.3-.79,1.22,1.22,0,0,0-.85-.27H2Z"/><path class="cls-3" d="M11.79,288.7H10.71V288h0a1.45,1.45,0,0,1-.6.6,1.51,1.51,0,0,1-.81.23,1.8,1.8,0,0,1-1.42-.49,2.12,2.12,0,0,1-.44-1.46v-3.16h1.1v3a1.32,1.32,0,0,0,.25.92.91.91,0,0,0,.7.27,1.4,1.4,0,0,0,.58-.1,1,1,0,0,0,.58-.71,2.35,2.35,0,0,0,.06-.54v-2.89h1.1Z"/><path class="cls-3" d="M15.65,281.82h1.1v6.88h-1.1Z"/><path class="cls-3" d="M20.22,288.83a2.74,2.74,0,0,1-1.06-.2,2.31,2.31,0,0,1-.79-.54,2.37,2.37,0,0,1-.49-.83,3.36,3.36,0,0,1,0-2.11,2.33,2.33,0,0,1,.49-.82,2.21,2.21,0,0,1,.79-.55,2.94,2.94,0,0,1,2.13,0,2.21,2.21,0,0,1,.79.55,2.33,2.33,0,0,1,.49.82,3.36,3.36,0,0,1,0,2.11,2.37,2.37,0,0,1-.49.83,2.31,2.31,0,0,1-.79.54A2.76,2.76,0,0,1,20.22,288.83Zm0-.87a1.29,1.29,0,0,0,.64-.15,1.31,1.31,0,0,0,.44-.4,1.85,1.85,0,0,0,.26-.57,2.56,2.56,0,0,0,0-1.27,1.85,1.85,0,0,0-.26-.57,1.42,1.42,0,0,0-.44-.4,1.42,1.42,0,0,0-1.27,0,1.42,1.42,0,0,0-.44.4,1.85,1.85,0,0,0-.26.57,2.56,2.56,0,0,0,0,1.27,1.85,1.85,0,0,0,.26.57,1.31,1.31,0,0,0,.44.4A1.28,1.28,0,0,0,20.22,288Z"/><path class="cls-3" d="M28.25,288.44a2.12,2.12,0,0,1-.63,1.68,2.7,2.7,0,0,1-1.81.55,3.92,3.92,0,0,1-.76-.08,2.29,2.29,0,0,1-.69-.26,1.62,1.62,0,0,1-.53-.48,1.51,1.51,0,0,1-.25-.73h1.1a.9.9,0,0,0,.16.37.77.77,0,0,0,.28.23,1,1,0,0,0,.35.11l.4,0a1.29,1.29,0,0,0,1-.33,1.34,1.34,0,0,0,.3-.94v-.76h0a1.64,1.64,0,0,1-.64.64,1.62,1.62,0,0,1-.86.24,2.25,2.25,0,0,1-1-.21,2,2,0,0,1-.7-.57,2.35,2.35,0,0,1-.39-.83,3.68,3.68,0,0,1-.13-1,3.06,3.06,0,0,1,.15-1,2.46,2.46,0,0,1,.45-.79,2.06,2.06,0,0,1,.7-.54,2.11,2.11,0,0,1,.95-.21,1.92,1.92,0,0,1,.87.2,1.41,1.41,0,0,1,.61.62h0v-.68h1.1Zm-2.43-.61a1.21,1.21,0,0,0,.62-.15,1.18,1.18,0,0,0,.41-.39,1.74,1.74,0,0,0,.23-.56,2.7,2.7,0,0,0,.07-.63,2.56,2.56,0,0,0-.07-.62,1.51,1.51,0,0,0-.24-.53,1.1,1.1,0,0,0-.41-.36,1.31,1.31,0,0,0-.61-.14,1.19,1.19,0,0,0-.62.15,1.27,1.27,0,0,0-.4.4,1.74,1.74,0,0,0-.23.56,3.34,3.34,0,0,0-.06.62,2.35,2.35,0,0,0,.07.6,1.72,1.72,0,0,0,.24.53,1.28,1.28,0,0,0,.4.37A1.16,1.16,0,0,0,25.82,287.83Z"/><path class="cls-3" d="M31.64,288.83a2.71,2.71,0,0,1-1.06-.2,2.21,2.21,0,0,1-1.28-1.37,3.36,3.36,0,0,1,0-2.11,2.19,2.19,0,0,1,.49-.82,2.12,2.12,0,0,1,.79-.55,2.91,2.91,0,0,1,2.12,0,2,2,0,0,1,.79.55,2.19,2.19,0,0,1,.49.82,3.36,3.36,0,0,1,0,2.11,2.23,2.23,0,0,1-.49.83,2.14,2.14,0,0,1-.79.54A2.71,2.71,0,0,1,31.64,288.83Zm0-.87a1.32,1.32,0,0,0,.64-.15,1.41,1.41,0,0,0,.44-.4,1.83,1.83,0,0,0,.25-.57,2.29,2.29,0,0,0,0-1.27,1.83,1.83,0,0,0-.25-.57,1.54,1.54,0,0,0-.44-.4,1.44,1.44,0,0,0-1.28,0,1.68,1.68,0,0,0-.44.4,1.83,1.83,0,0,0-.25.57,2.27,2.27,0,0,0-.08.63,2.29,2.29,0,0,0,.08.64,1.83,1.83,0,0,0,.25.57,1.53,1.53,0,0,0,.44.4A1.32,1.32,0,0,0,31.64,288Z"/><path class="cls-3" d="M37,281.66h1.05l-2.76,7.2h-1Z"/><path class="cls-3" d="M42.62,287.59a.55.55,0,0,0,.06.29.22.22,0,0,0,.2.08H43a.41.41,0,0,0,.15,0v.77l-.15,0-.18,0-.2,0h-.16a1.08,1.08,0,0,1-.56-.13.69.69,0,0,1-.29-.48,1.89,1.89,0,0,1-.8.47,3.37,3.37,0,0,1-.92.14,2.37,2.37,0,0,1-.65-.09,1.71,1.71,0,0,1-.54-.27,1.24,1.24,0,0,1-.37-.45,1.34,1.34,0,0,1-.14-.64,1.49,1.49,0,0,1,.16-.75,1.24,1.24,0,0,1,.45-.46,2,2,0,0,1,.61-.23,5.5,5.5,0,0,1,.69-.11,4.1,4.1,0,0,1,.57-.08,2.94,2.94,0,0,0,.48-.09.66.66,0,0,0,.32-.17.51.51,0,0,0,.12-.37.53.53,0,0,0-.1-.34.64.64,0,0,0-.25-.21,1.15,1.15,0,0,0-.33-.1l-.35,0a1.38,1.38,0,0,0-.76.19.74.74,0,0,0-.33.6h-1.1a1.71,1.71,0,0,1,.23-.8,1.65,1.65,0,0,1,.51-.51,2.09,2.09,0,0,1,.71-.27,4.36,4.36,0,0,1,.81-.08,3.38,3.38,0,0,1,.72.08,2.14,2.14,0,0,1,.64.25,1.52,1.52,0,0,1,.46.45,1.17,1.17,0,0,1,.17.67Zm-1.09-1.39a1.34,1.34,0,0,1-.62.2c-.24,0-.49.06-.73.1l-.34.08a1.32,1.32,0,0,0-.29.15.57.57,0,0,0-.19.24.8.8,0,0,0-.08.36.49.49,0,0,0,.11.31.67.67,0,0,0,.25.19.91.91,0,0,0,.33.1l.32,0a1.87,1.87,0,0,0,.4,0,1.55,1.55,0,0,0,.4-.17,1,1,0,0,0,.31-.29.79.79,0,0,0,.13-.44Z"/><path class="cls-3" d="M43.81,283.72h1v.69h0a2.16,2.16,0,0,1,.27-.33,1.39,1.39,0,0,1,.32-.27,1.52,1.52,0,0,1,.41-.16,1.7,1.7,0,0,1,.53-.07,1.74,1.74,0,0,1,.84.21,1.12,1.12,0,0,1,.55.62,2.17,2.17,0,0,1,.65-.6,1.71,1.71,0,0,1,.91-.23,1.78,1.78,0,0,1,1.23.39,1.66,1.66,0,0,1,.44,1.29v3.44h-1.1v-2.91c0-.2,0-.38,0-.55a1.08,1.08,0,0,0-.11-.42.59.59,0,0,0-.27-.27,1.05,1.05,0,0,0-.51-.1.91.91,0,0,0-.8.35,1.63,1.63,0,0,0-.25,1v2.92h-1.1v-3.2a1.28,1.28,0,0,0-.19-.78.77.77,0,0,0-.69-.27,1,1,0,0,0-.41.09,1,1,0,0,0-.34.25,1.22,1.22,0,0,0-.24.4,1.58,1.58,0,0,0-.1.55v3H43.81Z"/><path class="cls-3" d="M52.21,281.82h1.1v2.54h0a1.22,1.22,0,0,1,.28-.32,1.78,1.78,0,0,1,.36-.25,1.56,1.56,0,0,1,.41-.15,1.65,1.65,0,0,1,.43-.06,2.32,2.32,0,0,1,1,.21,2,2,0,0,1,.73.57,2.59,2.59,0,0,1,.44.84,3.82,3.82,0,0,1,.14,1,3.49,3.49,0,0,1-.13,1,2.51,2.51,0,0,1-.4.84,1.82,1.82,0,0,1-.66.57,2,2,0,0,1-1,.22l-.5,0a2.72,2.72,0,0,1-.49-.13,2.22,2.22,0,0,1-.42-.25,1.3,1.3,0,0,1-.31-.41h0v.69h-1ZM56,286.21a2.82,2.82,0,0,0-.08-.65,2.12,2.12,0,0,0-.26-.57,1.38,1.38,0,0,0-.44-.39,1.15,1.15,0,0,0-.59-.15,1.22,1.22,0,0,0-1.05.48,2.16,2.16,0,0,0-.35,1.28,2.63,2.63,0,0,0,.09.7,1.36,1.36,0,0,0,.28.55,1.2,1.2,0,0,0,1,.5,1.22,1.22,0,0,0,.63-.15,1.37,1.37,0,0,0,.43-.4,1.67,1.67,0,0,0,.24-.56A2.73,2.73,0,0,0,56,286.21Z"/><path class="cls-3" d="M58.09,281.82h1.1v6.88h-1.1Z"/><path class="cls-3" d="M61.24,286.49a2.1,2.1,0,0,0,.08.56,1.41,1.41,0,0,0,.25.47,1.09,1.09,0,0,0,.41.32,1.4,1.4,0,0,0,.6.12,1.35,1.35,0,0,0,.77-.2,1.26,1.26,0,0,0,.44-.62h1a2.11,2.11,0,0,1-.3.72,2.15,2.15,0,0,1-1.18.86,2.76,2.76,0,0,1-.77.11,2.61,2.61,0,0,1-1-.19,2.23,2.23,0,0,1-.77-.54,2.33,2.33,0,0,1-.47-.83,3.52,3.52,0,0,1-.16-1.06,3,3,0,0,1,.17-1,2.49,2.49,0,0,1,.48-.84,2.27,2.27,0,0,1,.76-.57,2.16,2.16,0,0,1,1-.22,2.26,2.26,0,0,1,1.05.25,2.34,2.34,0,0,1,.78.65,2.87,2.87,0,0,1,.45.93,3,3,0,0,1,.07,1.08Zm2.56-.72a1.72,1.72,0,0,0-.11-.5,1.27,1.27,0,0,0-.25-.42,1.28,1.28,0,0,0-.39-.29,1.15,1.15,0,0,0-.5-.11,1.32,1.32,0,0,0-.53.1,1.26,1.26,0,0,0-.4.28,1.51,1.51,0,0,0-.27.42,1.46,1.46,0,0,0-.11.52Z"/><path class="cls-3" d="M65.74,283.72h1v.69h0l.27-.33a1.7,1.7,0,0,1,.33-.27,1.45,1.45,0,0,1,.4-.16,1.79,1.79,0,0,1,.53-.07,1.76,1.76,0,0,1,.85.21,1.12,1.12,0,0,1,.55.62,2.17,2.17,0,0,1,.65-.6,1.68,1.68,0,0,1,.91-.23,1.8,1.8,0,0,1,1.23.39,1.66,1.66,0,0,1,.43,1.29v3.44H71.86v-2.91c0-.2,0-.38,0-.55a1.08,1.08,0,0,0-.11-.42.57.57,0,0,0-.28-.27,1,1,0,0,0-.5-.1.94.94,0,0,0-.81.35,1.71,1.71,0,0,0-.25,1v2.92H68.8v-3.2a1.36,1.36,0,0,0-.19-.78.8.8,0,0,0-.69-.27,1,1,0,0,0-.41.09,1.07,1.07,0,0,0-.35.25,1.22,1.22,0,0,0-.24.4,1.59,1.59,0,0,0-.09.55v3H65.74Z"/><path class="cls-3" d="M77.73,286.4a1.56,1.56,0,0,0,.13.68,1.3,1.3,0,0,0,.38.46,1.86,1.86,0,0,0,.55.26,3,3,0,0,0,.68.08,2.29,2.29,0,0,0,.68-.09,1.59,1.59,0,0,0,.45-.24,1,1,0,0,0,.25-.33,1,1,0,0,0,.08-.38.79.79,0,0,0-.18-.58,1,1,0,0,0-.39-.27c-.25-.09-.53-.17-.85-.25l-1.2-.32a2.54,2.54,0,0,1-.74-.3,2,2,0,0,1-.47-.42,1.59,1.59,0,0,1-.24-.49,1.88,1.88,0,0,1-.07-.53,1.81,1.81,0,0,1,.21-.9,2.05,2.05,0,0,1,.58-.63,2.35,2.35,0,0,1,.8-.37,3.65,3.65,0,0,1,1.93,0,2.37,2.37,0,0,1,.84.42,1.92,1.92,0,0,1,.57.69,1.89,1.89,0,0,1,.22.94H80.73a1.13,1.13,0,0,0-.45-.93,1.74,1.74,0,0,0-1-.28,3.13,3.13,0,0,0-.43,0,1.34,1.34,0,0,0-.41.15,1,1,0,0,0-.3.27.76.76,0,0,0-.12.44.71.71,0,0,0,.23.57,1.38,1.38,0,0,0,.59.31l.3.08.59.16.64.17.45.12a2,2,0,0,1,.59.29,2.09,2.09,0,0,1,.42.42,2,2,0,0,1,.25.5,2,2,0,0,1,.08.54,1.92,1.92,0,0,1-.86,1.66,2.74,2.74,0,0,1-.87.38,4.35,4.35,0,0,1-2.11,0,2.67,2.67,0,0,1-.91-.45,2.18,2.18,0,0,1-.61-.76,2.39,2.39,0,0,1-.24-1.11Z"/><path class="cls-3" d="M85.31,288.83a2.76,2.76,0,0,1-1.07-.2,2.31,2.31,0,0,1-.79-.54,2.37,2.37,0,0,1-.49-.83,3.36,3.36,0,0,1,0-2.11,2.33,2.33,0,0,1,.49-.82,2.21,2.21,0,0,1,.79-.55,2.94,2.94,0,0,1,2.13,0,2.21,2.21,0,0,1,.79.55,2.33,2.33,0,0,1,.49.82,3.36,3.36,0,0,1,0,2.11,2.37,2.37,0,0,1-.49.83,2.31,2.31,0,0,1-.79.54A2.74,2.74,0,0,1,85.31,288.83Zm0-.87a1.28,1.28,0,0,0,.63-.15,1.31,1.31,0,0,0,.44-.4,1.85,1.85,0,0,0,.26-.57,2.56,2.56,0,0,0,0-1.27,1.85,1.85,0,0,0-.26-.57,1.42,1.42,0,0,0-.44-.4,1.42,1.42,0,0,0-1.27,0,1.42,1.42,0,0,0-.44.4,1.85,1.85,0,0,0-.26.57,2.56,2.56,0,0,0,0,1.27,1.85,1.85,0,0,0,.26.57,1.31,1.31,0,0,0,.44.4A1.29,1.29,0,0,0,85.31,288Z"/><path class="cls-3" d="M88.76,281.82h1.1v6.88h-1.1Z"/><path class="cls-3" d="M91.08,281.82h1.1v1h-1.1Zm0,1.9h1.1v5h-1.1Z"/><path class="cls-3" d="M98.06,288.7H97V288h0a1.28,1.28,0,0,1-.64.62,2.17,2.17,0,0,1-.9.19,2.32,2.32,0,0,1-1-.21,1.86,1.86,0,0,1-.73-.56,2.39,2.39,0,0,1-.43-.84,3.55,3.55,0,0,1-.15-1.05,3.37,3.37,0,0,1,.18-1.16,2.46,2.46,0,0,1,.49-.81,1.89,1.89,0,0,1,.69-.47,2.22,2.22,0,0,1,.8-.15,2.59,2.59,0,0,1,.47.05,1.88,1.88,0,0,1,.46.14,1.69,1.69,0,0,1,.41.24,1.47,1.47,0,0,1,.31.35h0v-2.54h1.1Zm-3.83-2.44a2.72,2.72,0,0,0,.08.63,1.67,1.67,0,0,0,.25.54,1.24,1.24,0,0,0,.43.39,1.2,1.2,0,0,0,.61.14,1.29,1.29,0,0,0,.64-.15,1.37,1.37,0,0,0,.43-.4,2.1,2.1,0,0,0,.25-.57,2.74,2.74,0,0,0,.08-.64,2,2,0,0,0-.37-1.29,1.22,1.22,0,0,0-1-.46,1.23,1.23,0,0,0-.65.16,1.4,1.4,0,0,0-.43.41,1.87,1.87,0,0,0-.24.58A3,3,0,0,0,94.23,286.26Z"/><path class="cls-3" d="M102.08,281.82h5v1h-3.74v1.8h3.46v1h-3.46v2h3.81v1h-5Z"/><path class="cls-3" d="M108,281.82h1.1v6.88H108Z"/><path class="cls-3" d="M111.17,286.49a2.1,2.1,0,0,0,.08.56,1.41,1.41,0,0,0,.25.47,1.09,1.09,0,0,0,.41.32,1.4,1.4,0,0,0,.6.12,1.35,1.35,0,0,0,.77-.2,1.26,1.26,0,0,0,.44-.62h1a2.11,2.11,0,0,1-.3.72,2.15,2.15,0,0,1-1.18.86,2.76,2.76,0,0,1-.77.11,2.61,2.61,0,0,1-1-.19,2.23,2.23,0,0,1-.77-.54,2.33,2.33,0,0,1-.47-.83,3.23,3.23,0,0,1-.16-1.06,3,3,0,0,1,.17-1,2.49,2.49,0,0,1,.48-.84,2.27,2.27,0,0,1,.76-.57,2.16,2.16,0,0,1,1-.22,2.26,2.26,0,0,1,1,.25,2.34,2.34,0,0,1,.78.65,2.87,2.87,0,0,1,.45.93,3,3,0,0,1,.07,1.08Zm2.56-.72a1.72,1.72,0,0,0-.11-.5,1.27,1.27,0,0,0-.25-.42,1.42,1.42,0,0,0-.39-.29,1.15,1.15,0,0,0-.5-.11,1.32,1.32,0,0,0-.53.1,1.26,1.26,0,0,0-.4.28,1.51,1.51,0,0,0-.27.42,1.46,1.46,0,0,0-.11.52Z"/><path class="cls-3" d="M119,285.38a1,1,0,0,0-.37-.69,1.17,1.17,0,0,0-.76-.24,1.5,1.5,0,0,0-.45.07,1.18,1.18,0,0,0-.45.27,1.61,1.61,0,0,0-.33.55,2.62,2.62,0,0,0-.14.92,3.27,3.27,0,0,0,.07.62,1.8,1.8,0,0,0,.24.55,1.12,1.12,0,0,0,.4.38,1.17,1.17,0,0,0,.61.15,1.16,1.16,0,0,0,.8-.29,1.43,1.43,0,0,0,.38-.84h1.1a2.46,2.46,0,0,1-.73,1.49,2.28,2.28,0,0,1-1.55.51,2.52,2.52,0,0,1-1-.2,2.19,2.19,0,0,1-.76-.54,2.3,2.3,0,0,1-.47-.81,3.3,3.3,0,0,1-.16-1,3.6,3.6,0,0,1,.16-1.05,2.4,2.4,0,0,1,.46-.85,2.21,2.21,0,0,1,.77-.57,2.52,2.52,0,0,1,1.07-.21,3.12,3.12,0,0,1,.82.11,2.4,2.4,0,0,1,.7.34,1.81,1.81,0,0,1,.72,1.35Z"/><path class="cls-3" d="M120.52,283.72h.82v-1.49h1.1v1.49h1v.82h-1v2.65a2.36,2.36,0,0,0,0,.3.53.53,0,0,0,.06.21.34.34,0,0,0,.16.13.76.76,0,0,0,.29.05h.23a.85.85,0,0,0,.23,0v.85l-.35,0a2.17,2.17,0,0,1-.36,0,2.28,2.28,0,0,1-.7-.08.88.88,0,0,1-.41-.24.76.76,0,0,1-.2-.4,2.84,2.84,0,0,1-.07-.55v-2.93h-.82Z"/><path class="cls-3" d="M124.22,283.72h1v1h0a1.17,1.17,0,0,1,.19-.39,1.61,1.61,0,0,1,.34-.35,1.45,1.45,0,0,1,.43-.26,1.44,1.44,0,0,1,.5-.1H127l.15,0v1.06l-.24,0-.23,0a1.36,1.36,0,0,0-.53.11,1.5,1.5,0,0,0-.43.33,1.62,1.62,0,0,0-.28.54,2,2,0,0,0-.11.73v2.37h-1.1Z"/><path class="cls-3" d="M129.72,288.83a2.71,2.71,0,0,1-1.06-.2,2.14,2.14,0,0,1-.79-.54,2.23,2.23,0,0,1-.49-.83,3.36,3.36,0,0,1,0-2.11,2.19,2.19,0,0,1,.49-.82,2,2,0,0,1,.79-.55,2.91,2.91,0,0,1,2.12,0,2.12,2.12,0,0,1,.79.55,2.19,2.19,0,0,1,.49.82,3.36,3.36,0,0,1,0,2.11,2.21,2.21,0,0,1-1.28,1.37A2.71,2.71,0,0,1,129.72,288.83Zm0-.87a1.28,1.28,0,0,0,.63-.15,1.44,1.44,0,0,0,.45-.4,1.83,1.83,0,0,0,.25-.57,2.29,2.29,0,0,0,.08-.64,2.27,2.27,0,0,0-.08-.63,1.83,1.83,0,0,0-.25-.57,1.58,1.58,0,0,0-.45-.4,1.28,1.28,0,0,0-.63-.15,1.32,1.32,0,0,0-.64.15,1.54,1.54,0,0,0-.44.4,1.83,1.83,0,0,0-.25.57,2.29,2.29,0,0,0,0,1.27,1.83,1.83,0,0,0,.25.57,1.41,1.41,0,0,0,.44.4A1.32,1.32,0,0,0,129.72,288Z"/><path class="cls-3" d="M133.15,283.72h1v.75a1.87,1.87,0,0,1,.66-.65,1.72,1.72,0,0,1,.89-.24A1.86,1.86,0,0,1,137,284a1.59,1.59,0,0,1,.48,1.27v3.42h-1.1v-3.13a1.34,1.34,0,0,0-.25-.85.91.91,0,0,0-.72-.27,1.12,1.12,0,0,0-.5.1,1.08,1.08,0,0,0-.38.28,1.46,1.46,0,0,0-.33.93v2.94h-1.09Z"/><path class="cls-3" d="M141.5,281.82h1.2V285l3.07-3.13h1.48l-2.75,2.75,2.94,4.13h-1.5l-2.25-3.29-1,1v2.31h-1.2Z"/><path class="cls-3" d="M150.22,288.83a2.71,2.71,0,0,1-1.06-.2,2.21,2.21,0,0,1-1.28-1.37,3.36,3.36,0,0,1,0-2.11,2.19,2.19,0,0,1,.49-.82,2.12,2.12,0,0,1,.79-.55,2.71,2.71,0,0,1,1.06-.2,2.79,2.79,0,0,1,1.07.2,2.21,2.21,0,0,1,.79.55,2.49,2.49,0,0,1,.49.82,3.56,3.56,0,0,1,0,2.11,2.53,2.53,0,0,1-.49.83,2.31,2.31,0,0,1-.79.54A2.79,2.79,0,0,1,150.22,288.83Zm0-.87a1.29,1.29,0,0,0,.64-.15,1.31,1.31,0,0,0,.44-.4,1.85,1.85,0,0,0,.26-.57,2.56,2.56,0,0,0,0-1.27,1.85,1.85,0,0,0-.26-.57,1.42,1.42,0,0,0-.44-.4,1.42,1.42,0,0,0-1.27,0,1.58,1.58,0,0,0-.45.4,1.83,1.83,0,0,0-.25.57,2.27,2.27,0,0,0-.08.63,2.29,2.29,0,0,0,.08.64,1.83,1.83,0,0,0,.25.57,1.44,1.44,0,0,0,.45.4A1.28,1.28,0,0,0,150.22,288Z"/><path class="cls-3" d="M153.65,283.72h1v.73l0,0a1.84,1.84,0,0,1,.65-.65,1.73,1.73,0,0,1,.9-.24,1.89,1.89,0,0,1,1.29.43,1.62,1.62,0,0,1,.47,1.27v3.42h-1.1v-3.13a1.28,1.28,0,0,0-.25-.85.89.89,0,0,0-.72-.27,1.15,1.15,0,0,0-.5.1,1.17,1.17,0,0,0-.38.28,1.44,1.44,0,0,0-.24.42,1.7,1.7,0,0,0-.08.51v2.94h-1.1Z"/><path class="cls-3" d="M158.67,283.72h.83v-1.49h1.1v1.49h1v.82h-1v2.65a2.63,2.63,0,0,0,0,.3.52.52,0,0,0,.07.21.34.34,0,0,0,.16.13.76.76,0,0,0,.29.05h.23a.91.91,0,0,0,.23,0v.85l-.36,0a2,2,0,0,1-.35,0,2.28,2.28,0,0,1-.7-.08.83.83,0,0,1-.41-.24.85.85,0,0,1-.21-.4,4,4,0,0,1-.06-.55v-2.93h-.83Z"/><path class="cls-3" d="M162.38,283.72h1v1h0a1,1,0,0,1,.19-.39,1.56,1.56,0,0,1,.33-.35,1.5,1.5,0,0,1,.44-.26,1.43,1.43,0,0,1,.49-.1h.27l.15,0v1.06l-.24,0-.24,0a1.31,1.31,0,0,0-.52.11,1.37,1.37,0,0,0-.43.33,1.63,1.63,0,0,0-.29.54,2.3,2.3,0,0,0-.1.73v2.37h-1.1Z"/><path class="cls-3" d="M167.88,288.83a2.76,2.76,0,0,1-1.07-.2,2.31,2.31,0,0,1-.79-.54,2.37,2.37,0,0,1-.49-.83,3.36,3.36,0,0,1,0-2.11,2.33,2.33,0,0,1,.49-.82,2.21,2.21,0,0,1,.79-.55,2.94,2.94,0,0,1,2.13,0,2.21,2.21,0,0,1,.79.55,2.33,2.33,0,0,1,.49.82,3.36,3.36,0,0,1,0,2.11,2.37,2.37,0,0,1-.49.83,2.31,2.31,0,0,1-.79.54A2.74,2.74,0,0,1,167.88,288.83Zm0-.87a1.28,1.28,0,0,0,.63-.15,1.31,1.31,0,0,0,.44-.4,1.85,1.85,0,0,0,.26-.57,2.56,2.56,0,0,0,0-1.27A1.85,1.85,0,0,0,169,285a1.42,1.42,0,0,0-.44-.4,1.42,1.42,0,0,0-1.27,0,1.42,1.42,0,0,0-.44.4,1.85,1.85,0,0,0-.26.57,2.56,2.56,0,0,0,0,1.27,1.85,1.85,0,0,0,.26.57,1.31,1.31,0,0,0,.44.4A1.29,1.29,0,0,0,167.88,288Z"/><path class="cls-3" d="M171.33,281.82h1.1v6.88h-1.1Z"/><path class="cls-3" d="M175.8,281.82h5.56v1h-2.18v5.84H178v-5.84H175.8Z"/><path class="cls-3" d="M181.79,286.49a1.77,1.77,0,0,0,.09.56,1.23,1.23,0,0,0,.24.47,1.12,1.12,0,0,0,.42.32,1.32,1.32,0,0,0,.59.12,1.41,1.41,0,0,0,.78-.2,1.32,1.32,0,0,0,.44-.62h1a2.11,2.11,0,0,1-.3.72,2,2,0,0,1-.51.53,2.1,2.1,0,0,1-.67.33,2.88,2.88,0,0,1-.78.11,2.64,2.64,0,0,1-1-.19,2.17,2.17,0,0,1-1.23-1.37,3.23,3.23,0,0,1-.16-1.06,2.77,2.77,0,0,1,.17-1,2.49,2.49,0,0,1,.48-.84,2.33,2.33,0,0,1,.75-.57,2.19,2.19,0,0,1,1-.22,2.27,2.27,0,0,1,1.06.25,2.21,2.21,0,0,1,.77.65,2.52,2.52,0,0,1,.45.93,2.8,2.8,0,0,1,.07,1.08Zm2.57-.72a2.13,2.13,0,0,0-.11-.5,1.49,1.49,0,0,0-.26-.42,1.24,1.24,0,0,0-.38-.29,1.19,1.19,0,0,0-.51-.11,1.27,1.27,0,0,0-.52.1,1.15,1.15,0,0,0-.4.28,1.17,1.17,0,0,0-.27.42,1.47,1.47,0,0,0-.12.52Z"/><path class="cls-3" d="M186.32,281.82h1.1v3.91l2-2h1.35l-1.91,1.83,2.09,3.15h-1.34l-1.52-2.42-.65.63v1.79h-1.1Z"/><path class="cls-3" d="M191.46,283.72h1v.73l0,0a1.84,1.84,0,0,1,.65-.65,1.73,1.73,0,0,1,.9-.24,1.89,1.89,0,0,1,1.29.43,1.62,1.62,0,0,1,.47,1.27v3.42h-1.1v-3.13a1.28,1.28,0,0,0-.25-.85.89.89,0,0,0-.72-.27,1.15,1.15,0,0,0-.5.1,1.17,1.17,0,0,0-.38.28,1.44,1.44,0,0,0-.24.42,1.7,1.7,0,0,0-.08.51v2.94h-1.1Z"/><path class="cls-3" d="M199.27,288.83a2.76,2.76,0,0,1-1.07-.2,2.31,2.31,0,0,1-.79-.54,2.37,2.37,0,0,1-.49-.83,3.36,3.36,0,0,1,0-2.11,2.33,2.33,0,0,1,.49-.82,2.21,2.21,0,0,1,.79-.55,2.94,2.94,0,0,1,2.13,0,2.21,2.21,0,0,1,.79.55,2.33,2.33,0,0,1,.49.82,3.36,3.36,0,0,1,0,2.11,2.37,2.37,0,0,1-.49.83,2.31,2.31,0,0,1-.79.54A2.74,2.74,0,0,1,199.27,288.83Zm0-.87a1.28,1.28,0,0,0,.63-.15,1.31,1.31,0,0,0,.44-.4,1.85,1.85,0,0,0,.26-.57,2.56,2.56,0,0,0,0-1.27,1.85,1.85,0,0,0-.26-.57,1.42,1.42,0,0,0-.44-.4,1.42,1.42,0,0,0-1.27,0,1.42,1.42,0,0,0-.44.4,1.85,1.85,0,0,0-.26.57,2.56,2.56,0,0,0,0,1.27,1.85,1.85,0,0,0,.26.57,1.31,1.31,0,0,0,.44.4A1.29,1.29,0,0,0,199.27,288Z"/><path class="cls-3" d="M202.72,281.82h1.1v6.88h-1.1Z"/><path class="cls-3" d="M207.29,288.83a2.74,2.74,0,0,1-1.06-.2,2.31,2.31,0,0,1-.79-.54,2.37,2.37,0,0,1-.49-.83,3.36,3.36,0,0,1,0-2.11,2.33,2.33,0,0,1,.49-.82,2.21,2.21,0,0,1,.79-.55,2.94,2.94,0,0,1,2.13,0,2.21,2.21,0,0,1,.79.55,2.33,2.33,0,0,1,.49.82,3.36,3.36,0,0,1,0,2.11,2.37,2.37,0,0,1-.49.83,2.31,2.31,0,0,1-.79.54A2.76,2.76,0,0,1,207.29,288.83Zm0-.87a1.29,1.29,0,0,0,.64-.15,1.31,1.31,0,0,0,.44-.4,1.85,1.85,0,0,0,.26-.57,2.56,2.56,0,0,0,0-1.27,1.85,1.85,0,0,0-.26-.57,1.42,1.42,0,0,0-.44-.4,1.42,1.42,0,0,0-1.27,0,1.42,1.42,0,0,0-.44.4,1.85,1.85,0,0,0-.26.57,2.56,2.56,0,0,0,0,1.27,1.85,1.85,0,0,0,.26.57,1.31,1.31,0,0,0,.44.4A1.28,1.28,0,0,0,207.29,288Z"/><path class="cls-3" d="M210.75,283.72h1.1v5.4a1.74,1.74,0,0,1-.33,1.14,1.33,1.33,0,0,1-1.1.41h-.27l-.22,0v-.87l.2,0h.18c.2,0,.32-.06.37-.18a1.56,1.56,0,0,0,.07-.55Zm0-1.9h1.1v1h-1.1Z"/><path class="cls-3" d="M213.07,281.82h1.1v1h-1.1Zm0,1.9h1.1v5h-1.1Z"/><path class="cls-3" d="M215.39,281.82h1.1v6.88h-1.1Z"/><path class="cls-3" d="M218.54,286.49a1.77,1.77,0,0,0,.08.56,1.39,1.39,0,0,0,.24.47,1.12,1.12,0,0,0,.42.32,1.57,1.57,0,0,0,1.37-.08,1.26,1.26,0,0,0,.44-.62h1a2.11,2.11,0,0,1-.3.72,2.15,2.15,0,0,1-1.18.86,2.81,2.81,0,0,1-.77.11,2.57,2.57,0,0,1-1-.19,2.14,2.14,0,0,1-.77-.54,2.19,2.19,0,0,1-.47-.83,3.23,3.23,0,0,1-.16-1.06,3,3,0,0,1,.17-1,2.49,2.49,0,0,1,.48-.84,2.27,2.27,0,0,1,.76-.57,2.14,2.14,0,0,1,1-.22,2.26,2.26,0,0,1,1.05.25,2.34,2.34,0,0,1,.78.65,2.66,2.66,0,0,1,.44.93,2.8,2.8,0,0,1,.08,1.08Zm2.56-.72a2.13,2.13,0,0,0-.11-.5,1.46,1.46,0,0,0-.25-.42,1.42,1.42,0,0,0-.39-.29,1.18,1.18,0,0,0-.5-.11,1.29,1.29,0,0,0-.53.1,1.15,1.15,0,0,0-.4.28,1.51,1.51,0,0,0-.27.42,1.27,1.27,0,0,0-.11.52Z"/><path class="cls-3" d="M223,283.72h1v1h0a1.17,1.17,0,0,1,.19-.39,1.61,1.61,0,0,1,.34-.35,1.45,1.45,0,0,1,.43-.26,1.44,1.44,0,0,1,.5-.1h.26l.15,0v1.06l-.24,0-.23,0a1.36,1.36,0,0,0-.53.11,1.5,1.5,0,0,0-.43.33,1.62,1.62,0,0,0-.28.54,2.29,2.29,0,0,0-.11.73v2.37H223Z"/><path class="cls-3" d="M226.45,281.82h1.1v1h-1.1Zm0,1.9h1.1v5h-1.1Z"/><path class="cls-3" d="M232.36,286.4a1.55,1.55,0,0,0,.14.68,1.18,1.18,0,0,0,.37.46,2,2,0,0,0,.55.26,3,3,0,0,0,.68.08,2.24,2.24,0,0,0,.68-.09,1.59,1.59,0,0,0,.45-.24,1,1,0,0,0,.25-.33,1,1,0,0,0,.08-.38.79.79,0,0,0-.18-.58A1,1,0,0,0,235,286c-.25-.09-.53-.17-.85-.25l-1.2-.32a2.54,2.54,0,0,1-.74-.3,2.16,2.16,0,0,1-.47-.42,1.59,1.59,0,0,1-.24-.49,1.88,1.88,0,0,1-.07-.53,1.81,1.81,0,0,1,.21-.9,2.05,2.05,0,0,1,.58-.63,2.35,2.35,0,0,1,.8-.37,3.65,3.65,0,0,1,1.93,0,2.37,2.37,0,0,1,.84.42,1.92,1.92,0,0,1,.57.69,1.89,1.89,0,0,1,.22.94h-1.21a1.13,1.13,0,0,0-.45-.93,1.74,1.74,0,0,0-1-.28,3.28,3.28,0,0,0-.43,0,1.44,1.44,0,0,0-.41.15,1,1,0,0,0-.3.27.76.76,0,0,0-.12.44.75.75,0,0,0,.23.57,1.38,1.38,0,0,0,.59.31l.3.08.59.16.64.17.45.12a2,2,0,0,1,.59.29,1.86,1.86,0,0,1,.42.42,2,2,0,0,1,.25.5,2,2,0,0,1,.08.54,1.92,1.92,0,0,1-.86,1.66,2.74,2.74,0,0,1-.87.38,4.21,4.21,0,0,1-1,.12,4.38,4.38,0,0,1-1.11-.14,2.67,2.67,0,0,1-.91-.45,2.18,2.18,0,0,1-.61-.76,2.39,2.39,0,0,1-.24-1.11Z"/><path class="cls-3" d="M241.82,287.59a.55.55,0,0,0,.06.29.22.22,0,0,0,.2.08h.12a.44.44,0,0,0,.15,0v.77l-.15,0-.19,0-.19,0h-.16a1.06,1.06,0,0,1-.56-.13.69.69,0,0,1-.29-.48,1.89,1.89,0,0,1-.8.47,3.43,3.43,0,0,1-.92.14,2.32,2.32,0,0,1-.65-.09,1.71,1.71,0,0,1-.54-.27,1.38,1.38,0,0,1-.38-.45,1.47,1.47,0,0,1-.14-.64,1.49,1.49,0,0,1,.17-.75,1.24,1.24,0,0,1,.45-.46,1.93,1.93,0,0,1,.61-.23,5.5,5.5,0,0,1,.69-.11,4.1,4.1,0,0,1,.57-.08,2.62,2.62,0,0,0,.47-.09.65.65,0,0,0,.33-.17.51.51,0,0,0,.12-.37.53.53,0,0,0-.1-.34.72.72,0,0,0-.25-.21,1.15,1.15,0,0,0-.33-.1l-.35,0a1.36,1.36,0,0,0-.76.19.74.74,0,0,0-.33.6h-1.1a1.61,1.61,0,0,1,.23-.8,1.55,1.55,0,0,1,.51-.51,2.09,2.09,0,0,1,.71-.27,4.28,4.28,0,0,1,.81-.08,3.53,3.53,0,0,1,.72.08,2.14,2.14,0,0,1,.64.25,1.52,1.52,0,0,1,.46.45,1.26,1.26,0,0,1,.17.67Zm-1.09-1.39a1.34,1.34,0,0,1-.62.2c-.25,0-.49.06-.73.1l-.34.08a1.13,1.13,0,0,0-.29.15.68.68,0,0,0-.2.24,1,1,0,0,0-.07.36.49.49,0,0,0,.11.31.67.67,0,0,0,.25.19.91.91,0,0,0,.33.1l.32,0a1.94,1.94,0,0,0,.4,0,1.55,1.55,0,0,0,.4-.17,1,1,0,0,0,.31-.29.79.79,0,0,0,.13-.44Z"/><path class="cls-3" d="M243,283.72h1v.75a1.87,1.87,0,0,1,.66-.65,1.72,1.72,0,0,1,.89-.24,1.86,1.86,0,0,1,1.29.43,1.59,1.59,0,0,1,.48,1.27v3.42h-1.1v-3.13a1.34,1.34,0,0,0-.25-.85.9.9,0,0,0-.72-.27,1.12,1.12,0,0,0-.5.1,1.08,1.08,0,0,0-.38.28,1.46,1.46,0,0,0-.33.93v2.94H243Z"/><path class="cls-3" d="M248.62,287.4H250v1.3h-1.34Z"/><path class="cls-3" d="M253.39,283.72h1.2l1.26,3.82h0l1.21-3.82h1.14l-1.79,5H255.2Z"/><path class="cls-3" d="M259.74,286.49a1.77,1.77,0,0,0,.08.56,1.23,1.23,0,0,0,.24.47,1.12,1.12,0,0,0,.42.32,1.32,1.32,0,0,0,.59.12,1.39,1.39,0,0,0,.78-.2,1.32,1.32,0,0,0,.44-.62h1a2.11,2.11,0,0,1-.3.72,2.15,2.15,0,0,1-1.18.86,2.88,2.88,0,0,1-.78.11,2.56,2.56,0,0,1-1-.19,2.14,2.14,0,0,1-.77-.54,2.19,2.19,0,0,1-.47-.83,3.23,3.23,0,0,1-.16-1.06,3,3,0,0,1,.17-1,2.49,2.49,0,0,1,.48-.84,2.33,2.33,0,0,1,.75-.57,2.21,2.21,0,0,1,1-.22,2.26,2.26,0,0,1,1.05.25,2.21,2.21,0,0,1,.77.65,2.52,2.52,0,0,1,.45.93,2.61,2.61,0,0,1,.07,1.08Zm2.56-.72a2.13,2.13,0,0,0-.11-.5,1.46,1.46,0,0,0-.25-.42,1.42,1.42,0,0,0-.39-.29,1.18,1.18,0,0,0-.5-.11,1.29,1.29,0,0,0-.53.1,1.15,1.15,0,0,0-.4.28,1.17,1.17,0,0,0-.27.42,1.27,1.27,0,0,0-.11.52Z"/><path class="cls-3" d="M266.41,281.82H272v1h-2.18v5.84h-1.21v-5.84h-2.17Z"/><path class="cls-3" d="M272.65,281.82h1.09v1h-1.09Zm0,1.9h1.09v5h-1.09Z"/><path class="cls-3" d="M278.3,285.38a1,1,0,0,0-.38-.69,1.17,1.17,0,0,0-.76-.24,1.5,1.5,0,0,0-.45.07,1.18,1.18,0,0,0-.45.27,1.61,1.61,0,0,0-.33.55,2.62,2.62,0,0,0-.14.92,3.27,3.27,0,0,0,.07.62,1.8,1.8,0,0,0,.24.55,1.12,1.12,0,0,0,.4.38,1.17,1.17,0,0,0,.61.15,1.16,1.16,0,0,0,.8-.29,1.5,1.5,0,0,0,.39-.84h1.09a2.46,2.46,0,0,1-.73,1.49,2.28,2.28,0,0,1-1.55.51,2.56,2.56,0,0,1-1-.2,2.19,2.19,0,0,1-.76-.54,2.3,2.3,0,0,1-.47-.81,3.31,3.31,0,0,1-.15-1,3.6,3.6,0,0,1,.15-1.05,2.4,2.4,0,0,1,.46-.85,2.21,2.21,0,0,1,.77-.57,2.52,2.52,0,0,1,1.07-.21,3.12,3.12,0,0,1,.82.11,2.4,2.4,0,0,1,.7.34,1.81,1.81,0,0,1,.72,1.35Z"/><path class="cls-3" d="M280.37,287.4h1.34v1.3h-1.34Z"/><path class="cls-3" d="M287.63,281.82h1.28l2.65,6.88h-1.29l-.64-1.82h-2.75l-.64,1.82H285Zm-.42,4.14h2.1l-1-2.95h0Z"/><path class="cls-3" d="M292.15,287.4h1.34v1.3h-1.34Z"/><path class="cls-3" d="M295.66,290.24a1.74,1.74,0,0,0,.32.11,1,1,0,0,0,.31,0h.2a.6.6,0,0,0,.19-.06.33.33,0,0,0,.14-.12.31.31,0,0,0,.05-.2.29.29,0,0,0-.14-.28.53.53,0,0,0-.3-.09.64.64,0,0,0-.37.1l-.22-.19.54-.72a3.51,3.51,0,0,1-.58-.1,1.83,1.83,0,0,1-.69-.32,1.42,1.42,0,0,1-.46-.54,1.53,1.53,0,0,1-.18-.76h1.09a.85.85,0,0,0,.37.67,1.43,1.43,0,0,0,.76.19,2.24,2.24,0,0,0,.35,0,2,2,0,0,0,.37-.09.75.75,0,0,0,.29-.2.53.53,0,0,0,.1-.34.5.5,0,0,0-.16-.35,1,1,0,0,0-.37-.21,2.36,2.36,0,0,0-.51-.14l-.59-.13a5.69,5.69,0,0,1-.59-.16,2,2,0,0,1-.51-.26,1.22,1.22,0,0,1-.36-.42,1.33,1.33,0,0,1-.14-.63,1.14,1.14,0,0,1,.2-.68,1.52,1.52,0,0,1,.5-.44,2.14,2.14,0,0,1,.67-.24,4.6,4.6,0,0,1,.71-.07,3,3,0,0,1,.74.09,2,2,0,0,1,.63.26,1.57,1.57,0,0,1,.48.48,1.65,1.65,0,0,1,.23.7h-1.14a.71.71,0,0,0-.36-.52,1.51,1.51,0,0,0-.65-.14l-.28,0a1.63,1.63,0,0,0-.3.07.63.63,0,0,0-.23.16.33.33,0,0,0-.1.26.44.44,0,0,0,.14.33,1.16,1.16,0,0,0,.37.21,3.15,3.15,0,0,0,.51.13l.6.13c.2,0,.39.1.59.16a2,2,0,0,1,.51.26,1.37,1.37,0,0,1,.37.42,1.25,1.25,0,0,1,.14.61,1.28,1.28,0,0,1-.21.75,1.46,1.46,0,0,1-.52.5,2.25,2.25,0,0,1-.72.28,3.19,3.19,0,0,1-.61.08l-.34.44h0l.13,0h.19a.92.92,0,0,1,.28,0,.71.71,0,0,1,.26.13.74.74,0,0,1,.2.23.63.63,0,0,1,.07.32.76.76,0,0,1-.1.41.87.87,0,0,1-.27.27,1.79,1.79,0,0,1-.37.15,2,2,0,0,1-.42,0,3.07,3.07,0,0,1-.53,0,1.68,1.68,0,0,1-.46-.17Z"/><path class="cls-3" d="M299.82,287.4h1.34v1.3h-1.34Z"/><path class="cls-3" d="M302.57,284a.56.56,0,0,0,.47-.3,1.25,1.25,0,0,0,.12-.56h-.59v-1.3h1.21v1.3a1.43,1.43,0,0,1-.33.95,1.32,1.32,0,0,1-.88.47Z"/><path class="cls-3" d="M304.54,283.72h1.2l1.3,3.71h0l1.26-3.71h1.14L307.53,289l-.27.64a2,2,0,0,1-.31.54,1.34,1.34,0,0,1-.47.38,1.63,1.63,0,0,1-.71.14,4.77,4.77,0,0,1-.76-.06v-.92l.26,0a1.1,1.1,0,0,0,.26,0,.9.9,0,0,0,.31,0,.55.55,0,0,0,.21-.14.83.83,0,0,0,.14-.22,1.6,1.6,0,0,0,.11-.29l.12-.38Z"/><path class="cls-3" d="M310.94,286.49a1.77,1.77,0,0,0,.08.56,1.39,1.39,0,0,0,.24.47,1.12,1.12,0,0,0,.42.32,1.57,1.57,0,0,0,1.37-.08,1.26,1.26,0,0,0,.44-.62h1a2.11,2.11,0,0,1-.3.72,2.15,2.15,0,0,1-1.18.86,2.87,2.87,0,0,1-.77.11,2.57,2.57,0,0,1-1-.19,2.14,2.14,0,0,1-.77-.54,2.19,2.19,0,0,1-.47-.83,3.23,3.23,0,0,1-.16-1.06,3,3,0,0,1,.17-1,2.49,2.49,0,0,1,.48-.84,2.27,2.27,0,0,1,.76-.57,2.14,2.14,0,0,1,1-.22,2.26,2.26,0,0,1,1.05.25,2.34,2.34,0,0,1,.78.65,2.66,2.66,0,0,1,.44.93,2.8,2.8,0,0,1,.08,1.08Zm2.56-.72a2.13,2.13,0,0,0-.11-.5,1.46,1.46,0,0,0-.25-.42,1.42,1.42,0,0,0-.39-.29,1.18,1.18,0,0,0-.5-.11,1.29,1.29,0,0,0-.53.1,1.15,1.15,0,0,0-.4.28,1.51,1.51,0,0,0-.27.42,1.27,1.27,0,0,0-.11.52Z"/><path class="cls-3" d="M317.56,283.72h1.2l1.3,3.71h0l1.26-3.71h1.15L320.55,289c-.09.22-.17.43-.26.64a2,2,0,0,1-.32.54,1.26,1.26,0,0,1-.47.38,1.6,1.6,0,0,1-.71.14,4.87,4.87,0,0,1-.76-.06v-.92l.26,0a1.1,1.1,0,0,0,.26,0,1,1,0,0,0,.32,0,.77.77,0,0,0,.21-.14,1.18,1.18,0,0,0,.14-.22c0-.08.07-.18.1-.29l.13-.38Z"/><path class="cls-3" d="M324,286.49a2.1,2.1,0,0,0,.08.56,1.41,1.41,0,0,0,.25.47,1.17,1.17,0,0,0,.41.32,1.4,1.4,0,0,0,.6.12,1.35,1.35,0,0,0,.77-.2,1.2,1.2,0,0,0,.44-.62h1a2.11,2.11,0,0,1-.3.72,2.15,2.15,0,0,1-1.18.86,2.76,2.76,0,0,1-.77.11,2.61,2.61,0,0,1-1-.19,2.23,2.23,0,0,1-.77-.54,2.49,2.49,0,0,1-.47-.83,3.52,3.52,0,0,1-.16-1.06,3,3,0,0,1,.17-1,2.49,2.49,0,0,1,.48-.84,2.27,2.27,0,0,1,.76-.57,2.16,2.16,0,0,1,1-.22,2.29,2.29,0,0,1,1.83.9,2.87,2.87,0,0,1,.45.93,3,3,0,0,1,.07,1.08Zm2.56-.72a1.72,1.72,0,0,0-.11-.5,1.27,1.27,0,0,0-.25-.42,1.37,1.37,0,0,0-.38-.29,1.32,1.32,0,0,0-1,0,1.2,1.2,0,0,0-.41.28,1.51,1.51,0,0,0-.27.42,1.46,1.46,0,0,0-.11.52Z"/><path class="cls-3" d="M328,283.72h.82v-1.49h1.1v1.49h1v.82h-1v2.65a2.36,2.36,0,0,0,0,.3.53.53,0,0,0,.06.21.34.34,0,0,0,.16.13.76.76,0,0,0,.29.05h.23a.85.85,0,0,0,.23,0v.85l-.35,0a2.17,2.17,0,0,1-.36,0,2.28,2.28,0,0,1-.7-.08.88.88,0,0,1-.41-.24.76.76,0,0,1-.2-.4,2.84,2.84,0,0,1-.07-.55v-2.93H328Z"/><path class="cls-3" d="M331.69,281.82h1.1v3.91l2-2h1.35l-1.91,1.83,2.09,3.15H335l-1.52-2.42-.65.63v1.79h-1.1Z"/><path class="cls-3" d="M336.86,281.82H338v1h-1.1Zm0,1.9H338v5h-1.1Z"/><path class="cls-3" d="M339.18,281.82h1.1v6.88h-1.1Z"/><path class="cls-3" d="M341.5,281.82h1.1v1h-1.1Zm0,1.9h1.1v5h-1.1Z"/><path class="cls-3" d="M346.5,281.82h1.09v3.91l2-2h1.34l-1.9,1.83,2.09,3.15h-1.34l-1.52-2.42-.66.63v1.79H346.5Z"/><path class="cls-3" d="M356,288.7h-1.08V288h0a1.68,1.68,0,0,1-1.42.83,1.83,1.83,0,0,1-1.42-.49,2.12,2.12,0,0,1-.43-1.46v-3.16h1.09v3a1.37,1.37,0,0,0,.25.92.92.92,0,0,0,.71.27,1.35,1.35,0,0,0,.57-.1,1,1,0,0,0,.38-.29,1.27,1.27,0,0,0,.21-.42,2.35,2.35,0,0,0,.06-.54v-2.89H356Z"/><path class="cls-3" d="M357.16,283.72h1v1h0a1,1,0,0,1,.19-.39,1.56,1.56,0,0,1,.33-.35,1.65,1.65,0,0,1,.44-.26,1.43,1.43,0,0,1,.49-.1h.27l.15,0v1.06l-.24,0-.23,0a1.32,1.32,0,0,0-.53.11,1.37,1.37,0,0,0-.43.33,1.63,1.63,0,0,0-.29.54,2.3,2.3,0,0,0-.1.73v2.37h-1.1Z"/><path class="cls-3" d="M364.92,288.7h-1.08V288h0a1.45,1.45,0,0,1-.6.6,1.56,1.56,0,0,1-.81.23,1.8,1.8,0,0,1-1.42-.49,2.07,2.07,0,0,1-.44-1.46v-3.16h1.1v3a1.32,1.32,0,0,0,.25.92.9.9,0,0,0,.7.27,1.44,1.44,0,0,0,.58-.1,1.07,1.07,0,0,0,.58-.71,2.35,2.35,0,0,0,.06-.54v-2.89h1.1Z"/><path class="cls-3" d="M366.07,283.72h1v.69h0l.27-.33a2,2,0,0,1,.32-.27,1.67,1.67,0,0,1,.41-.16,1.74,1.74,0,0,1,.53-.07,1.78,1.78,0,0,1,.85.21,1.12,1.12,0,0,1,.55.62,2.14,2.14,0,0,1,.64-.6,1.74,1.74,0,0,1,.92-.23,1.81,1.81,0,0,1,1.23.39,1.66,1.66,0,0,1,.43,1.29v3.44H372.2v-2.91c0-.2,0-.38,0-.55a1.29,1.29,0,0,0-.11-.42.61.61,0,0,0-.28-.27,1,1,0,0,0-.5-.1.94.94,0,0,0-.81.35,1.71,1.71,0,0,0-.25,1v2.92h-1.09v-3.2a1.36,1.36,0,0,0-.19-.78.8.8,0,0,0-.69-.27,1,1,0,0,0-.41.09,1.07,1.07,0,0,0-.35.25,1.22,1.22,0,0,0-.24.4,1.59,1.59,0,0,0-.09.55v3h-1.1Z"/><path class="cls-3" d="M376.62,283.72h.83v-1.49h1.1v1.49h1v.82h-1v2.65a2.63,2.63,0,0,0,0,.3.52.52,0,0,0,.07.21.34.34,0,0,0,.16.13.76.76,0,0,0,.29.05h.23a.91.91,0,0,0,.23,0v.85l-.35,0a2.17,2.17,0,0,1-.36,0,2.28,2.28,0,0,1-.7-.08.83.83,0,0,1-.41-.24.85.85,0,0,1-.21-.4,4,4,0,0,1-.06-.55v-2.93h-.83Z"/><path class="cls-3" d="M384.5,287.59a.69.69,0,0,0,.05.29.26.26,0,0,0,.21.08h.11a.47.47,0,0,0,.16,0v.77l-.15,0-.19,0-.19,0h-.17a1,1,0,0,1-.55-.13.66.66,0,0,1-.29-.48,1.93,1.93,0,0,1-.81.47,3.32,3.32,0,0,1-.92.14,2.3,2.3,0,0,1-.64-.09,1.52,1.52,0,0,1-.54-.27,1.27,1.27,0,0,1-.38-.45,1.47,1.47,0,0,1-.14-.64,1.49,1.49,0,0,1,.17-.75,1.22,1.22,0,0,1,.44-.46,2,2,0,0,1,.62-.23,5.5,5.5,0,0,1,.69-.11,4,4,0,0,1,.56-.08,2.94,2.94,0,0,0,.48-.09.65.65,0,0,0,.33-.17.51.51,0,0,0,.12-.37.53.53,0,0,0-.1-.34.72.72,0,0,0-.25-.21,1.15,1.15,0,0,0-.33-.1l-.35,0a1.36,1.36,0,0,0-.76.19.77.77,0,0,0-.34.6h-1.1a1.61,1.61,0,0,1,.24-.8,1.55,1.55,0,0,1,.51-.51,2,2,0,0,1,.71-.27,4.28,4.28,0,0,1,.81-.08,3.53,3.53,0,0,1,.72.08,2.14,2.14,0,0,1,.64.25,1.52,1.52,0,0,1,.46.45,1.26,1.26,0,0,1,.17.67Zm-1.1-1.39a1.3,1.3,0,0,1-.61.2c-.25,0-.49.06-.74.1l-.33.08a1.13,1.13,0,0,0-.29.15.59.59,0,0,0-.2.24.8.8,0,0,0-.07.36.48.48,0,0,0,.1.31.7.7,0,0,0,.26.19.91.91,0,0,0,.33.1l.32,0a1.84,1.84,0,0,0,.39,0,1.42,1.42,0,0,0,.4-.17,1,1,0,0,0,.32-.29.78.78,0,0,0,.12-.44Z"/><path class="cls-3" d="M385.68,283.72h1v1h0a1.17,1.17,0,0,1,.19-.39,1.41,1.41,0,0,1,.34-.35,1.45,1.45,0,0,1,.43-.26,1.44,1.44,0,0,1,.5-.1h.26l.15,0v1.06l-.24,0-.23,0a1.36,1.36,0,0,0-.53.11,1.5,1.5,0,0,0-.43.33,1.62,1.62,0,0,0-.28.54,2,2,0,0,0-.11.73v2.37h-1.1Z"/><path class="cls-3" d="M393.24,287.59a.69.69,0,0,0,.05.29.26.26,0,0,0,.21.08h.11a.47.47,0,0,0,.16,0v.77l-.15,0-.19,0-.19,0h-.16a1,1,0,0,1-.56-.13.66.66,0,0,1-.29-.48,1.93,1.93,0,0,1-.81.47,3.32,3.32,0,0,1-.92.14,2.3,2.3,0,0,1-.64-.09,1.52,1.52,0,0,1-.54-.27,1.27,1.27,0,0,1-.38-.45,1.47,1.47,0,0,1-.14-.64,1.49,1.49,0,0,1,.17-.75,1.22,1.22,0,0,1,.44-.46,2.09,2.09,0,0,1,.62-.23,5.5,5.5,0,0,1,.69-.11,4,4,0,0,1,.56-.08,2.94,2.94,0,0,0,.48-.09.65.65,0,0,0,.33-.17.51.51,0,0,0,.12-.37.53.53,0,0,0-.1-.34.72.72,0,0,0-.25-.21,1.15,1.15,0,0,0-.33-.1l-.35,0a1.36,1.36,0,0,0-.76.19.77.77,0,0,0-.34.6H389a1.61,1.61,0,0,1,.24-.8,1.55,1.55,0,0,1,.51-.51,2,2,0,0,1,.71-.27,4.28,4.28,0,0,1,.81-.08,3.53,3.53,0,0,1,.72.08,2.14,2.14,0,0,1,.64.25,1.52,1.52,0,0,1,.46.45,1.26,1.26,0,0,1,.17.67Zm-1.1-1.39a1.3,1.3,0,0,1-.61.2c-.25,0-.49.06-.74.1l-.33.08a1.13,1.13,0,0,0-.29.15.59.59,0,0,0-.2.24.8.8,0,0,0-.07.36.48.48,0,0,0,.1.31.79.79,0,0,0,.26.19.91.91,0,0,0,.33.1l.32,0a1.84,1.84,0,0,0,.39,0,1.42,1.42,0,0,0,.4-.17,1,1,0,0,0,.32-.29.78.78,0,0,0,.12-.44Z"/><path class="cls-3" d="M393.93,283.72h.82v-.42a2.05,2.05,0,0,1,.12-.76,1,1,0,0,1,.74-.66,2.24,2.24,0,0,1,.52-.06,3.39,3.39,0,0,1,.77.07v.86l-.23-.05h-.28a.59.59,0,0,0-.38.11.44.44,0,0,0-.16.41v.51h.93v.82h-.93v4.16h-1.1v-4.16h-.82Z"/><path class="cls-3" d="M397.48,288.7v-5h1.1v5Z"/><path class="cls-3" d="M399.77,283.72h1v.73l0,0a1.87,1.87,0,0,1,.66-.65,1.72,1.72,0,0,1,.89-.24,1.86,1.86,0,0,1,1.29.43,1.59,1.59,0,0,1,.48,1.27v3.42h-1.1v-3.13a1.41,1.41,0,0,0-.25-.85.91.91,0,0,0-.72-.27,1.19,1.19,0,0,0-.51.1,1.13,1.13,0,0,0-.37.28,1.46,1.46,0,0,0-.33.93v2.94h-1.1Z"/><path class="cls-3" d="M410,288.7h-1V288h0a1.27,1.27,0,0,1-.65.62,2.09,2.09,0,0,1-.89.19,2.4,2.4,0,0,1-1-.21,1.9,1.9,0,0,1-.72-.56,2.41,2.41,0,0,1-.44-.84,3.92,3.92,0,0,1-.14-1.05,3.37,3.37,0,0,1,.18-1.16,2.31,2.31,0,0,1,.49-.81,1.89,1.89,0,0,1,.69-.47,2.22,2.22,0,0,1,.8-.15,2.59,2.59,0,0,1,.47.05,1.88,1.88,0,0,1,.46.14,1.69,1.69,0,0,1,.41.24,1.47,1.47,0,0,1,.31.35h0v-2.54H410Zm-3.83-2.44a2.27,2.27,0,0,0,.08.63,1.67,1.67,0,0,0,.25.54,1.15,1.15,0,0,0,.43.39,1.2,1.2,0,0,0,.61.14,1.22,1.22,0,0,0,.63-.15,1.41,1.41,0,0,0,.44-.4,2.1,2.1,0,0,0,.25-.57,2.74,2.74,0,0,0,.08-.64,2,2,0,0,0-.37-1.29,1.22,1.22,0,0,0-1-.46,1.23,1.23,0,0,0-.65.16,1.4,1.4,0,0,0-.43.41,1.87,1.87,0,0,0-.24.58A3,3,0,0,0,406.16,286.26Z"/><path class="cls-3" d="M415.35,287.59a.69.69,0,0,0,0,.29.26.26,0,0,0,.21.08h.11a.47.47,0,0,0,.16,0v.77l-.15,0-.19,0-.19,0h-.16a1,1,0,0,1-.56-.13.66.66,0,0,1-.29-.48,1.93,1.93,0,0,1-.81.47,3.3,3.3,0,0,1-.91.14,2.32,2.32,0,0,1-.65-.09,1.61,1.61,0,0,1-.54-.27,1.27,1.27,0,0,1-.38-.45,1.47,1.47,0,0,1-.14-.64,1.49,1.49,0,0,1,.17-.75,1.22,1.22,0,0,1,.44-.46,2.09,2.09,0,0,1,.62-.23,5.5,5.5,0,0,1,.69-.11,4.1,4.1,0,0,1,.57-.08,3,3,0,0,0,.47-.09.65.65,0,0,0,.33-.17.51.51,0,0,0,.12-.37.53.53,0,0,0-.1-.34.72.72,0,0,0-.25-.21,1.15,1.15,0,0,0-.33-.1l-.35,0a1.36,1.36,0,0,0-.76.19.77.77,0,0,0-.34.6h-1.1a1.61,1.61,0,0,1,.24-.8,1.55,1.55,0,0,1,.51-.51,2,2,0,0,1,.71-.27,4.28,4.28,0,0,1,.81-.08,3.53,3.53,0,0,1,.72.08,2.14,2.14,0,0,1,.64.25,1.52,1.52,0,0,1,.46.45,1.26,1.26,0,0,1,.17.67Zm-1.1-1.39a1.3,1.3,0,0,1-.61.2c-.25,0-.49.06-.74.1l-.33.08a1.13,1.13,0,0,0-.29.15.59.59,0,0,0-.2.24.8.8,0,0,0-.07.36.48.48,0,0,0,.1.31.79.79,0,0,0,.26.19.91.91,0,0,0,.33.1l.32,0a1.84,1.84,0,0,0,.39,0,1.31,1.31,0,0,0,.4-.17,1,1,0,0,0,.32-.29.78.78,0,0,0,.12-.44Z"/><path class="cls-3" d="M416.53,283.72h1v.73l0,0a1.87,1.87,0,0,1,.66-.65,1.7,1.7,0,0,1,.89-.24,1.86,1.86,0,0,1,1.29.43,1.59,1.59,0,0,1,.47,1.27v3.42h-1.09v-3.13a1.41,1.41,0,0,0-.25-.85.92.92,0,0,0-.73-.27,1.18,1.18,0,0,0-.5.1,1.13,1.13,0,0,0-.37.28,1.46,1.46,0,0,0-.33.93v2.94h-1.1Z"/><path class="cls-3" d="M424.23,283.72h.83v-1.49h1.1v1.49h1v.82h-1v2.65a2.63,2.63,0,0,0,0,.3.52.52,0,0,0,.07.21.34.34,0,0,0,.16.13.76.76,0,0,0,.29.05h.23a.91.91,0,0,0,.23,0v.85l-.36,0a2,2,0,0,1-.35,0,2.28,2.28,0,0,1-.7-.08.83.83,0,0,1-.41-.24.85.85,0,0,1-.21-.4,4,4,0,0,1-.06-.55v-2.93h-.83Z"/><path class="cls-3" d="M428.8,286.49a1.77,1.77,0,0,0,.08.56,1.23,1.23,0,0,0,.24.47,1.12,1.12,0,0,0,.42.32,1.32,1.32,0,0,0,.59.12,1.39,1.39,0,0,0,.78-.2,1.32,1.32,0,0,0,.44-.62h1a2.11,2.11,0,0,1-.3.72,2.15,2.15,0,0,1-1.18.86,2.88,2.88,0,0,1-.78.11,2.56,2.56,0,0,1-1-.19,2.14,2.14,0,0,1-.77-.54,2.19,2.19,0,0,1-.47-.83,3.23,3.23,0,0,1-.16-1.06,3,3,0,0,1,.17-1,2.49,2.49,0,0,1,.48-.84,2.33,2.33,0,0,1,.75-.57,2.21,2.21,0,0,1,1-.22,2.26,2.26,0,0,1,1.05.25,2.21,2.21,0,0,1,.77.65,2.52,2.52,0,0,1,.45.93,2.61,2.61,0,0,1,.07,1.08Zm2.56-.72a2.13,2.13,0,0,0-.11-.5,1.46,1.46,0,0,0-.25-.42,1.42,1.42,0,0,0-.39-.29,1.18,1.18,0,0,0-.5-.11,1.29,1.29,0,0,0-.53.1,1.15,1.15,0,0,0-.4.28,1.17,1.17,0,0,0-.27.42,1.27,1.27,0,0,0-.11.52Z"/><path class="cls-3" d="M434.12,287.1a.8.8,0,0,0,.37.67,1.41,1.41,0,0,0,.76.19,2,2,0,0,0,.72-.11.72.72,0,0,0,.28-.2.43.43,0,0,0,.1-.34.45.45,0,0,0-.15-.35,1,1,0,0,0-.37-.21,2.3,2.3,0,0,0-.52-.14l-.58-.13a5.25,5.25,0,0,1-.6-.16,2,2,0,0,1-.51-.26,1.22,1.22,0,0,1-.36-.42,1.34,1.34,0,0,1-.13-.63,1.08,1.08,0,0,1,.2-.68,1.42,1.42,0,0,1,.5-.44,2.05,2.05,0,0,1,.67-.24,4.49,4.49,0,0,1,.71-.07,2.92,2.92,0,0,1,.73.09,1.92,1.92,0,0,1,.64.26,1.44,1.44,0,0,1,.47.48,1.66,1.66,0,0,1,.24.7h-1.15a.67.67,0,0,0-.36-.52,1.51,1.51,0,0,0-.65-.14l-.27,0a1.32,1.32,0,0,0-.3.07.67.67,0,0,0-.24.16.36.36,0,0,0-.09.26.4.4,0,0,0,.14.33,1.22,1.22,0,0,0,.36.21,3,3,0,0,0,.52.13l.59.13a5.69,5.69,0,0,1,.59.16,2,2,0,0,1,.51.26,1.15,1.15,0,0,1,.37.42,1.25,1.25,0,0,1,.14.61,1.35,1.35,0,0,1-.2.75,1.49,1.49,0,0,1-.53.5,2.11,2.11,0,0,1-.71.28,3.59,3.59,0,0,1-.78.09,3,3,0,0,1-.87-.11,2,2,0,0,1-.7-.32,1.51,1.51,0,0,1-.46-.54,1.77,1.77,0,0,1-.18-.76Z"/><path class="cls-3" d="M441.65,285.38a1,1,0,0,0-.37-.69,1.22,1.22,0,0,0-.77-.24,1.5,1.5,0,0,0-.45.07,1.07,1.07,0,0,0-.44.27,1.48,1.48,0,0,0-.34.55,2.79,2.79,0,0,0-.06,1.54,1.78,1.78,0,0,0,.23.55,1.07,1.07,0,0,0,.41.38,1.14,1.14,0,0,0,.6.15,1.16,1.16,0,0,0,.8-.29,1.38,1.38,0,0,0,.39-.84h1.1a2.46,2.46,0,0,1-.74,1.49,2.28,2.28,0,0,1-1.55.51,2.56,2.56,0,0,1-1-.2,2.19,2.19,0,0,1-.76-.54,2.15,2.15,0,0,1-.46-.81,3,3,0,0,1-.16-1,3.6,3.6,0,0,1,.15-1.05,2.4,2.4,0,0,1,.46-.85,2.21,2.21,0,0,1,.77-.57,2.52,2.52,0,0,1,1.07-.21,3.26,3.26,0,0,1,.83.11,2.34,2.34,0,0,1,.69.34,1.66,1.66,0,0,1,.49.56,1.93,1.93,0,0,1,.24.79Z"/><path class="cls-3" d="M443.67,281.82h1.1v1h-1.1Zm0,1.9h1.1v5h-1.1Z"/><path class="cls-3" d="M446,281.82h1.1v6.88H446Z"/><path class="cls-3" d="M451.81,286.49a2.1,2.1,0,0,0,.08.56,1.41,1.41,0,0,0,.25.47,1.17,1.17,0,0,0,.41.32,1.59,1.59,0,0,0,1.38-.08,1.24,1.24,0,0,0,.43-.62h1a1.78,1.78,0,0,1-.3.72,2,2,0,0,1-.51.53,2,2,0,0,1-.66.33,2.88,2.88,0,0,1-.78.11,2.61,2.61,0,0,1-1-.19,2.1,2.1,0,0,1-.76-.54,2.35,2.35,0,0,1-.48-.83,3.53,3.53,0,0,1-.15-1.06,3,3,0,0,1,.16-1,2.69,2.69,0,0,1,.49-.84,2.23,2.23,0,0,1,.75-.57,2.19,2.19,0,0,1,1-.22,2.33,2.33,0,0,1,1.06.25,2.21,2.21,0,0,1,.77.65,2.52,2.52,0,0,1,.45.93,2.8,2.8,0,0,1,.07,1.08Zm2.56-.72a1.72,1.72,0,0,0-.11-.5,1.27,1.27,0,0,0-.25-.42,1.24,1.24,0,0,0-.38-.29,1.19,1.19,0,0,0-.51-.11,1.24,1.24,0,0,0-.52.1,1.3,1.3,0,0,0-.41.28,1.51,1.51,0,0,0-.27.42,1.72,1.72,0,0,0-.11.52Z"/><path class="cls-3" d="M461,288.7h-1V288h0a1.3,1.3,0,0,1-.65.62,2.09,2.09,0,0,1-.89.19,2.37,2.37,0,0,1-1-.21,1.9,1.9,0,0,1-.72-.56,2.41,2.41,0,0,1-.44-.84,3.92,3.92,0,0,1-.14-1.05,3.37,3.37,0,0,1,.18-1.16,2.17,2.17,0,0,1,.49-.81,1.89,1.89,0,0,1,.69-.47,2.17,2.17,0,0,1,.79-.15,2.7,2.7,0,0,1,.48.05,1.88,1.88,0,0,1,.46.14,1.91,1.91,0,0,1,.41.24,1.47,1.47,0,0,1,.31.35h0v-2.54H461Zm-3.84-2.44a2.28,2.28,0,0,0,.09.63,1.48,1.48,0,0,0,.25.54,1.15,1.15,0,0,0,.43.39,1.17,1.17,0,0,0,.61.14,1.22,1.22,0,0,0,.63-.15,1.27,1.27,0,0,0,.43-.4,1.85,1.85,0,0,0,.26-.57,2.74,2.74,0,0,0,.08-.64,2.06,2.06,0,0,0-.37-1.29,1.23,1.23,0,0,0-1-.46,1.21,1.21,0,0,0-.65.16,1.3,1.3,0,0,0-.43.41,1.87,1.87,0,0,0-.24.58A3,3,0,0,0,457.16,286.26Z"/><path class="cls-3" d="M462.22,281.82h1.1v1h-1.1Zm0,1.9h1.1v5h-1.1Z"/><path class="cls-3" d="M464.54,281.82h1.1v6.88h-1.1Z"/><path class="cls-3" d="M466.83,283.72h1v.69h0a2.16,2.16,0,0,1,.27-.33,1.39,1.39,0,0,1,.32-.27,1.52,1.52,0,0,1,.41-.16,1.7,1.7,0,0,1,.53-.07,1.74,1.74,0,0,1,.84.21,1.12,1.12,0,0,1,.55.62,2.17,2.17,0,0,1,.65-.6,1.71,1.71,0,0,1,.91-.23,1.78,1.78,0,0,1,1.23.39,1.66,1.66,0,0,1,.44,1.29v3.44H473v-2.91c0-.2,0-.38,0-.55a1.08,1.08,0,0,0-.11-.42.59.59,0,0,0-.27-.27,1,1,0,0,0-.5-.1.92.92,0,0,0-.81.35,1.63,1.63,0,0,0-.25,1v2.92h-1.1v-3.2a1.28,1.28,0,0,0-.19-.78.77.77,0,0,0-.69-.27,1,1,0,0,0-.41.09,1,1,0,0,0-.34.25,1.22,1.22,0,0,0-.24.4,1.59,1.59,0,0,0-.09.55v3h-1.1Z"/><path class="cls-3" d="M475.23,281.82h1.1v1h-1.1Zm0,1.9h1.1v5h-1.1Z"/><path class="cls-3" d="M478.45,290.24a1.52,1.52,0,0,0,.32.11,1,1,0,0,0,.3,0h.21a.6.6,0,0,0,.19-.06.41.41,0,0,0,.14-.12.39.39,0,0,0,.05-.2.31.31,0,0,0-.14-.28.53.53,0,0,0-.3-.09.7.7,0,0,0-.38.1l-.21-.19.54-.72a3.63,3.63,0,0,1-.59-.1,2,2,0,0,1-.69-.32,1.51,1.51,0,0,1-.46-.54,1.77,1.77,0,0,1-.18-.76h1.1a.83.83,0,0,0,.37.67,1.41,1.41,0,0,0,.76.19,2,2,0,0,0,.72-.11.72.72,0,0,0,.28-.2.43.43,0,0,0,.1-.34.45.45,0,0,0-.15-.35,1,1,0,0,0-.37-.21,2.3,2.3,0,0,0-.52-.14l-.58-.13a4.59,4.59,0,0,1-.59-.16,2,2,0,0,1-.51-.26,1.15,1.15,0,0,1-.37-.42,1.34,1.34,0,0,1-.13-.63,1.14,1.14,0,0,1,.2-.68,1.52,1.52,0,0,1,.5-.44,2.05,2.05,0,0,1,.67-.24,4.49,4.49,0,0,1,.71-.07,3,3,0,0,1,.74.09,2,2,0,0,1,.63.26,1.44,1.44,0,0,1,.47.48,1.53,1.53,0,0,1,.24.7h-1.15a.67.67,0,0,0-.36-.52,1.48,1.48,0,0,0-.65-.14l-.27,0a1.32,1.32,0,0,0-.3.07.78.78,0,0,0-.24.16.36.36,0,0,0-.09.26.4.4,0,0,0,.14.33,1.22,1.22,0,0,0,.36.21,3.29,3.29,0,0,0,.52.13l.59.13a5.69,5.69,0,0,1,.59.16,2.11,2.11,0,0,1,.52.26,1.22,1.22,0,0,1,.36.42,1.15,1.15,0,0,1,.14.61,1.35,1.35,0,0,1-.2.75,1.55,1.55,0,0,1-.52.5,2.25,2.25,0,0,1-.72.28,3.29,3.29,0,0,1-.62.08l-.33.44h0l.14,0h.18a1,1,0,0,1,.29,0,.79.79,0,0,1,.26.13.71.71,0,0,1,.19.23.63.63,0,0,1,.08.32.68.68,0,0,1-.11.41,1,1,0,0,1-.26.27,1.88,1.88,0,0,1-.38.15,1.84,1.84,0,0,1-.41,0,3.07,3.07,0,0,1-.53,0,1.88,1.88,0,0,1-.47-.17Z"/><path class="cls-3" d="M482,283.72h.83v-1.49h1.09v1.49h1v.82h-1v2.65a2.36,2.36,0,0,0,0,.3.4.4,0,0,0,.07.21.28.28,0,0,0,.15.13.79.79,0,0,0,.29.05h.23a1,1,0,0,0,.24,0v.85l-.36,0a2.11,2.11,0,0,1-.36,0,2.17,2.17,0,0,1-.69-.08.86.86,0,0,1-.42-.24.76.76,0,0,1-.2-.4,2.26,2.26,0,0,1-.06-.55v-2.93H482Z"/><path class="cls-3" d="M485.75,281.82h1.1v1h-1.1Zm0,1.9h1.1v5h-1.1Z"/><path class="cls-3" d="M488,283.72h1v1h0a1.4,1.4,0,0,1,.19-.39,1.61,1.61,0,0,1,.34-.35,1.5,1.5,0,0,1,.44-.26,1.38,1.38,0,0,1,.49-.1h.26l.15,0v1.06l-.23,0-.24,0a1.36,1.36,0,0,0-.53.11,1.34,1.34,0,0,0-.42.33,1.47,1.47,0,0,0-.29.54,2.29,2.29,0,0,0-.11.73v2.37H488Z"/><path class="cls-3" d="M490.63,287.4H492v1.3h-1.34Z"/><path class="cls-3" d="M2.64,293.37H3.92l2.64,6.88H5.27l-.64-1.82H1.89l-.65,1.82H0Zm-.43,4.14h2.1l-1-2.95h0Z"/><path class="cls-3" d="M7.07,295.27h1V296h0l.27-.33a1.35,1.35,0,0,1,.33-.26,1.46,1.46,0,0,1,.4-.17,2.2,2.2,0,0,1,.53-.06,1.75,1.75,0,0,1,.85.2,1.12,1.12,0,0,1,.55.62,2.3,2.3,0,0,1,.65-.6,1.68,1.68,0,0,1,.91-.22,1.79,1.79,0,0,1,1.23.38,1.66,1.66,0,0,1,.43,1.29v3.44H13.19v-2.91c0-.2,0-.38,0-.54a1.09,1.09,0,0,0-.11-.43.57.57,0,0,0-.28-.27,1,1,0,0,0-.5-.1.94.94,0,0,0-.81.35,1.71,1.71,0,0,0-.25,1v2.92H10.13v-3.2a1.38,1.38,0,0,0-.19-.78.8.8,0,0,0-.69-.27,1,1,0,0,0-.41.09,1.07,1.07,0,0,0-.35.25,1.42,1.42,0,0,0-.24.4,1.59,1.59,0,0,0-.09.55v3H7.07Z"/><path class="cls-3" d="M19.61,299.14a.69.69,0,0,0,.05.29.23.23,0,0,0,.21.09H20l.16,0v.76l-.15,0-.19,0a.63.63,0,0,1-.19,0h-.17a1,1,0,0,1-.55-.13.66.66,0,0,1-.29-.47,2,2,0,0,1-.81.46,3.32,3.32,0,0,1-.92.14,2.25,2.25,0,0,1-.64-.09,1.52,1.52,0,0,1-.54-.27,1.27,1.27,0,0,1-.38-.45,1.44,1.44,0,0,1-.14-.64,1.49,1.49,0,0,1,.17-.75,1.3,1.3,0,0,1,.44-.46,2.28,2.28,0,0,1,.62-.23,5.22,5.22,0,0,1,.69-.11,3.78,3.78,0,0,1,.56-.08l.48-.08a.75.75,0,0,0,.33-.18.49.49,0,0,0,.12-.36.63.63,0,0,0-.1-.35.72.72,0,0,0-.25-.21.9.9,0,0,0-.34-.09l-.34,0a1.45,1.45,0,0,0-.76.19.77.77,0,0,0-.34.6h-1.1a1.71,1.71,0,0,1,.23-.8,1.69,1.69,0,0,1,.52-.51,2,2,0,0,1,.71-.27,4.28,4.28,0,0,1,.81-.07,3.51,3.51,0,0,1,.72.07,2.25,2.25,0,0,1,.64.25,1.38,1.38,0,0,1,.45.45,1.2,1.2,0,0,1,.18.67Zm-1.1-1.39a1.3,1.3,0,0,1-.62.2c-.24,0-.48.06-.73.1l-.33.08a1.13,1.13,0,0,0-.29.15.59.59,0,0,0-.2.24.8.8,0,0,0-.07.36.48.48,0,0,0,.1.31.86.86,0,0,0,.26.2,1.59,1.59,0,0,0,.33.1l.32,0a1.89,1.89,0,0,0,.39,0,1.18,1.18,0,0,0,.4-.17,1,1,0,0,0,.32-.29.76.76,0,0,0,.12-.44Z"/><path class="cls-3" d="M24.15,296.94a1,1,0,0,0-.37-.7A1.19,1.19,0,0,0,23,296a1.9,1.9,0,0,0-.46.07,1.07,1.07,0,0,0-.44.27,1.72,1.72,0,0,0-.34.55,3.08,3.08,0,0,0-.06,1.54A1.93,1.93,0,0,0,22,299a1.27,1.27,0,0,0,.41.39,1.17,1.17,0,0,0,.61.15,1.09,1.09,0,0,0,.79-.3,1.38,1.38,0,0,0,.39-.84h1.1a2.41,2.41,0,0,1-.74,1.49,2.25,2.25,0,0,1-1.54.51,2.44,2.44,0,0,1-1-.2,2.17,2.17,0,0,1-.75-.53,2.29,2.29,0,0,1-.47-.82,3,3,0,0,1-.16-1,3.3,3.3,0,0,1,.16-1.05,2.33,2.33,0,0,1,.46-.85,2.17,2.17,0,0,1,.76-.57,3.06,3.06,0,0,1,1.9-.09,2,2,0,0,1,.69.33,1.8,1.8,0,0,1,.5.56,1.93,1.93,0,0,1,.23.8Z"/><path class="cls-3" d="M26.17,300.25v-5h1.1v5Z"/><path class="cls-3" d="M35.83,300.25h-1v-.68h0a1.27,1.27,0,0,1-.65.62,2.09,2.09,0,0,1-.89.19,2.56,2.56,0,0,1-1-.2,2,2,0,0,1-.72-.57,2.41,2.41,0,0,1-.44-.84,3.86,3.86,0,0,1-.14-1,3.41,3.41,0,0,1,.18-1.16,2.31,2.31,0,0,1,.49-.81,1.86,1.86,0,0,1,.69-.46,2.22,2.22,0,0,1,.8-.15,2.56,2.56,0,0,1,.47,0,2.44,2.44,0,0,1,.46.14,2.1,2.1,0,0,1,.41.24,1.34,1.34,0,0,1,.31.36h0v-2.55h1.1ZM32,297.81a2.27,2.27,0,0,0,.08.63,1.72,1.72,0,0,0,.25.55,1.22,1.22,0,0,0,.43.38,1.2,1.2,0,0,0,.61.15,1.23,1.23,0,0,0,.63-.16,1.41,1.41,0,0,0,.44-.4,2.1,2.1,0,0,0,.25-.57,2.67,2.67,0,0,0,.08-.64,2,2,0,0,0-.37-1.29,1.25,1.25,0,0,0-1-.46,1.23,1.23,0,0,0-.65.16,1.33,1.33,0,0,0-.43.42,1.81,1.81,0,0,0-.24.57A3,3,0,0,0,32,297.81Z"/><path class="cls-3" d="M37.05,300.25v-5h1.1v5Z"/><path class="cls-3" d="M40.27,301.79a1.67,1.67,0,0,0,.31.11,1.06,1.06,0,0,0,.31,0h.2a.66.66,0,0,0,.2-.06.53.53,0,0,0,.14-.12.39.39,0,0,0,0-.2.32.32,0,0,0-.14-.28.55.55,0,0,0-.3-.09.67.67,0,0,0-.38.1l-.21-.19.54-.72a5.21,5.21,0,0,1-.59-.09,2,2,0,0,1-.69-.33,1.51,1.51,0,0,1-.46-.54,1.77,1.77,0,0,1-.18-.76h1.1a.82.82,0,0,0,.36.67,1.47,1.47,0,0,0,.77.2l.35,0a1.18,1.18,0,0,0,.37-.09.63.63,0,0,0,.28-.2.42.42,0,0,0,.1-.34.49.49,0,0,0-.15-.35,1.19,1.19,0,0,0-.37-.21,3,3,0,0,0-.52-.14l-.58-.13a5.25,5.25,0,0,1-.6-.16,1.75,1.75,0,0,1-.51-.26,1.22,1.22,0,0,1-.36-.42,1.34,1.34,0,0,1-.13-.63,1.08,1.08,0,0,1,.2-.68,1.42,1.42,0,0,1,.5-.44,2.31,2.31,0,0,1,.67-.24,4.44,4.44,0,0,1,.71-.06,2.92,2.92,0,0,1,.73.08,1.92,1.92,0,0,1,.64.26,1.44,1.44,0,0,1,.47.48,1.66,1.66,0,0,1,.24.71H42.19a.67.67,0,0,0-.36-.53,1.51,1.51,0,0,0-.65-.14l-.27,0a1.32,1.32,0,0,0-.3.07.67.67,0,0,0-.24.16.36.36,0,0,0-.1.26.42.42,0,0,0,.14.33,1.44,1.44,0,0,0,.37.21,4.25,4.25,0,0,0,.52.14l.59.12.59.16a2.44,2.44,0,0,1,.51.26,1.15,1.15,0,0,1,.37.42,1.28,1.28,0,0,1,.14.61,1.41,1.41,0,0,1-.2.76,1.69,1.69,0,0,1-.53.5,2.63,2.63,0,0,1-.71.28,3.27,3.27,0,0,1-.62.07l-.34.45h0l.14,0h.18a1,1,0,0,1,.29,0A.91.91,0,0,1,42,301a.83.83,0,0,1,.19.23.66.66,0,0,1,.08.32.73.73,0,0,1-.11.41.87.87,0,0,1-.27.27,1.37,1.37,0,0,1-.37.15,1.51,1.51,0,0,1-.42.05,2.24,2.24,0,0,1-.52-.05,1.47,1.47,0,0,1-.47-.17Z"/><path class="cls-3" d="M44.37,300.25v-5h1.09v5Z"/><path class="cls-3" d="M46.66,295.27h1V296l0,0a1.84,1.84,0,0,1,.65-.65,1.72,1.72,0,0,1,.9-.23,1.89,1.89,0,0,1,1.29.42,1.64,1.64,0,0,1,.47,1.27v3.42h-1.1v-3.13a1.34,1.34,0,0,0-.25-.85A.89.89,0,0,0,49,296a1.27,1.27,0,0,0-.5.1,1.08,1.08,0,0,0-.38.28,1.46,1.46,0,0,0-.33.93v2.94H46.66Z"/><path class="cls-3" d="M56.87,300.25h-1v-.68h0a1.28,1.28,0,0,1-.64.62,2.14,2.14,0,0,1-.9.19,2.47,2.47,0,0,1-1-.2,2,2,0,0,1-.73-.57,2.39,2.39,0,0,1-.43-.84,3.51,3.51,0,0,1-.15-1,3.41,3.41,0,0,1,.18-1.16,2.46,2.46,0,0,1,.49-.81,1.86,1.86,0,0,1,.69-.46,2.22,2.22,0,0,1,.8-.15,2.56,2.56,0,0,1,.47,0,2.44,2.44,0,0,1,.46.14,1.84,1.84,0,0,1,.41.24,1.19,1.19,0,0,1,.31.36h0v-2.55h1.1ZM53,297.81a2.72,2.72,0,0,0,.08.63,2,2,0,0,0,.25.55,1.31,1.31,0,0,0,.43.38,1.21,1.21,0,0,0,.62.15,1.28,1.28,0,0,0,.63-.16,1.37,1.37,0,0,0,.43-.4,1.83,1.83,0,0,0,.25-.57,2.67,2.67,0,0,0,.08-.64,2,2,0,0,0-.37-1.29,1.24,1.24,0,0,0-1-.46,1.18,1.18,0,0,0-.65.16,1.26,1.26,0,0,0-.44.42,1.81,1.81,0,0,0-.24.57A3,3,0,0,0,53,297.81Z"/><path class="cls-3" d="M62.23,299.14a.55.55,0,0,0,.06.29.2.2,0,0,0,.2.09h.12l.15,0v.76l-.15,0-.19,0a.58.58,0,0,1-.19,0h-.16a1.06,1.06,0,0,1-.56-.13.69.69,0,0,1-.29-.47,2,2,0,0,1-.8.46,3.43,3.43,0,0,1-.92.14,2.32,2.32,0,0,1-.65-.09,1.71,1.71,0,0,1-.54-.27,1.38,1.38,0,0,1-.38-.45,1.44,1.44,0,0,1-.14-.64,1.49,1.49,0,0,1,.17-.75,1.32,1.32,0,0,1,.45-.46,2.21,2.21,0,0,1,.61-.23,5.5,5.5,0,0,1,.69-.11,4.1,4.1,0,0,1,.57-.08,4.13,4.13,0,0,0,.47-.08.75.75,0,0,0,.33-.18.49.49,0,0,0,.12-.36.56.56,0,0,0-.1-.35.72.72,0,0,0-.25-.21.9.9,0,0,0-.33-.09l-.35,0a1.45,1.45,0,0,0-.76.19.77.77,0,0,0-.34.6H58a1.61,1.61,0,0,1,.23-.8,1.55,1.55,0,0,1,.51-.51,2.09,2.09,0,0,1,.71-.27,4.28,4.28,0,0,1,.81-.07,3.51,3.51,0,0,1,.72.07,2.14,2.14,0,0,1,.64.25,1.52,1.52,0,0,1,.46.45,1.28,1.28,0,0,1,.17.67Zm-1.1-1.39a1.26,1.26,0,0,1-.61.2c-.25,0-.49.06-.73.1l-.34.08a1.13,1.13,0,0,0-.29.15.68.68,0,0,0-.2.24,1,1,0,0,0-.07.36.49.49,0,0,0,.11.31.82.82,0,0,0,.25.2,1.59,1.59,0,0,0,.33.1l.32,0a2,2,0,0,0,.4,0,1.27,1.27,0,0,0,.4-.17A1,1,0,0,0,61,299a.76.76,0,0,0,.12-.44Z"/><path class="cls-3" d="M65.6,295.27h1.19l1.27,3.82h0l1.22-3.82h1.13l-1.78,5H67.41Z"/><path class="cls-3" d="M71.94,298a1.73,1.73,0,0,0,.09.56,1.23,1.23,0,0,0,.24.47,1.14,1.14,0,0,0,.42.33,1.25,1.25,0,0,0,1.81-.71h1a2.11,2.11,0,0,1-.3.72,2,2,0,0,1-.51.53,2.1,2.1,0,0,1-.67.33,2.54,2.54,0,0,1-.78.11,2.61,2.61,0,0,1-1-.19A2.17,2.17,0,0,1,71,298.82a3.23,3.23,0,0,1-.16-1.06,2.8,2.8,0,0,1,.17-1,2.49,2.49,0,0,1,.48-.84,2.24,2.24,0,0,1,1.75-.78,2.27,2.27,0,0,1,1.06.24,2.32,2.32,0,0,1,.77.65,2.52,2.52,0,0,1,.45.93A2.8,2.8,0,0,1,75.6,298Zm2.56-.72a1.45,1.45,0,0,0-.11-.5,1.27,1.27,0,0,0-.25-.42,1.24,1.24,0,0,0-.38-.29,1.19,1.19,0,0,0-.51-.11,1.46,1.46,0,0,0-.52.1,1.2,1.2,0,0,0-.67.7,1.52,1.52,0,0,0-.12.52Z"/><path class="cls-3" d="M83.28,299.14a.55.55,0,0,0,.06.29.2.2,0,0,0,.2.09h.12l.15,0v.76l-.15,0-.18,0a.69.69,0,0,1-.2,0h-.16a1.08,1.08,0,0,1-.56-.13.69.69,0,0,1-.29-.47,1.92,1.92,0,0,1-.8.46,3.37,3.37,0,0,1-.92.14,2.25,2.25,0,0,1-.64-.09,1.66,1.66,0,0,1-.55-.27,1.24,1.24,0,0,1-.37-.45,1.31,1.31,0,0,1-.14-.64,1.39,1.39,0,0,1,.17-.75,1.22,1.22,0,0,1,.44-.46,2.34,2.34,0,0,1,.61-.23,5.5,5.5,0,0,1,.69-.11,4.1,4.1,0,0,1,.57-.08l.48-.08a.77.77,0,0,0,.32-.18.49.49,0,0,0,.12-.36.56.56,0,0,0-.1-.35.64.64,0,0,0-.25-.21.9.9,0,0,0-.33-.09l-.35,0a1.47,1.47,0,0,0-.76.19.74.74,0,0,0-.33.6H79a1.71,1.71,0,0,1,.23-.8,1.69,1.69,0,0,1,.52-.51,2,2,0,0,1,.7-.27,4.43,4.43,0,0,1,.81-.07,3.38,3.38,0,0,1,.72.07,2.14,2.14,0,0,1,.64.25,1.41,1.41,0,0,1,.46.45,1.19,1.19,0,0,1,.17.67Zm-1.09-1.39a1.34,1.34,0,0,1-.62.2c-.24,0-.49.06-.73.1l-.34.08a1.32,1.32,0,0,0-.29.15.57.57,0,0,0-.19.24.8.8,0,0,0-.08.36.49.49,0,0,0,.11.31.86.86,0,0,0,.26.2,1.34,1.34,0,0,0,.32.1l.32,0a1.9,1.9,0,0,0,.4,0,1.27,1.27,0,0,0,.4-.17,1,1,0,0,0,.31-.29.7.7,0,0,0,.13-.44Z"/><path class="cls-3" d="M85.3,298.65a.82.82,0,0,0,.36.67,1.43,1.43,0,0,0,.76.2l.35,0a1.06,1.06,0,0,0,.37-.09.66.66,0,0,0,.29-.2.46.46,0,0,0,.1-.34.54.54,0,0,0-.15-.35,1.14,1.14,0,0,0-.38-.21,3.12,3.12,0,0,0-.51-.14L85.9,298a5.69,5.69,0,0,1-.59-.16,1.75,1.75,0,0,1-.51-.26,1.22,1.22,0,0,1-.36-.42,1.33,1.33,0,0,1-.14-.63,1.14,1.14,0,0,1,.2-.68,1.52,1.52,0,0,1,.5-.44,2.38,2.38,0,0,1,.68-.24,4.32,4.32,0,0,1,.7-.06,3,3,0,0,1,.74.08,2,2,0,0,1,.64.26,1.55,1.55,0,0,1,.7,1.19H87.32a.67.67,0,0,0-.36-.53,1.51,1.51,0,0,0-.65-.14L86,296a1.63,1.63,0,0,0-.3.07.63.63,0,0,0-.23.16.33.33,0,0,0-.1.26.42.42,0,0,0,.14.33,1.29,1.29,0,0,0,.37.21,4.6,4.6,0,0,0,.51.14l.6.12.59.16a2.44,2.44,0,0,1,.51.26,1.37,1.37,0,0,1,.37.42,1.28,1.28,0,0,1,.14.61,1.33,1.33,0,0,1-.21.76,1.66,1.66,0,0,1-.52.5,2.7,2.7,0,0,1-.72.28,4.13,4.13,0,0,1-.78.08,3.46,3.46,0,0,1-.87-.1,1.92,1.92,0,0,1-.69-.33,1.42,1.42,0,0,1-.46-.54,1.64,1.64,0,0,1-.18-.76Z"/><path class="cls-3" d="M89.49,293.37h1.1v6.88h-1.1Z"/><path class="cls-3" d="M91.81,300.25v-5h1.1v5Z"/><path class="cls-3" d="M94.1,295.27h1V296l0,0a2,2,0,0,1,.66-.65,1.69,1.69,0,0,1,.89-.23,1.86,1.86,0,0,1,1.29.42,1.6,1.6,0,0,1,.47,1.27v3.42H97.38v-3.13a1.41,1.41,0,0,0-.25-.85.92.92,0,0,0-.73-.27,1.35,1.35,0,0,0-.5.1,1.13,1.13,0,0,0-.37.28,1.46,1.46,0,0,0-.33.93v2.94H94.1Z"/><path class="cls-3" d="M103.8,299.14a.56.56,0,0,0,0,.29.22.22,0,0,0,.21.09h.11l.16,0v.76l-.15,0-.19,0a.63.63,0,0,1-.19,0h-.17a1,1,0,0,1-.55-.13.66.66,0,0,1-.29-.47,2,2,0,0,1-.81.46,3.37,3.37,0,0,1-.92.14,2.25,2.25,0,0,1-.64-.09,1.66,1.66,0,0,1-.55-.27,1.36,1.36,0,0,1-.37-.45,1.44,1.44,0,0,1-.14-.64,1.49,1.49,0,0,1,.17-.75,1.3,1.3,0,0,1,.44-.46,2.28,2.28,0,0,1,.62-.23,5.07,5.07,0,0,1,.68-.11,4.1,4.1,0,0,1,.57-.08l.48-.08a.75.75,0,0,0,.33-.18.49.49,0,0,0,.12-.36.63.63,0,0,0-.1-.35.72.72,0,0,0-.25-.21.9.9,0,0,0-.34-.09l-.34,0a1.45,1.45,0,0,0-.76.19.77.77,0,0,0-.34.6h-1.1a1.71,1.71,0,0,1,.23-.8,1.69,1.69,0,0,1,.52-.51,2,2,0,0,1,.71-.27,4.25,4.25,0,0,1,.8-.07,3.54,3.54,0,0,1,.73.07,2.25,2.25,0,0,1,.64.25,1.38,1.38,0,0,1,.45.45,1.2,1.2,0,0,1,.18.67Zm-1.1-1.39a1.3,1.3,0,0,1-.62.2c-.24,0-.48.06-.73.1l-.33.08a1.13,1.13,0,0,0-.29.15.59.59,0,0,0-.2.24.8.8,0,0,0-.07.36.48.48,0,0,0,.1.31.86.86,0,0,0,.26.2,1.59,1.59,0,0,0,.33.1l.32,0a1.89,1.89,0,0,0,.39,0,1.18,1.18,0,0,0,.4-.17.86.86,0,0,0,.31-.29.7.7,0,0,0,.13-.44Z"/><path class="cls-3" d="M111.83,299.14a.56.56,0,0,0,0,.29.2.2,0,0,0,.2.09h.12l.15,0v.76l-.14,0-.19,0-.19,0h-.17a1.08,1.08,0,0,1-.56-.13.72.72,0,0,1-.29-.47,1.92,1.92,0,0,1-.8.46,3.37,3.37,0,0,1-.92.14,2.25,2.25,0,0,1-.64-.09,1.66,1.66,0,0,1-.55-.27,1.36,1.36,0,0,1-.37-.45,1.31,1.31,0,0,1-.14-.64,1.39,1.39,0,0,1,.17-.75,1.3,1.3,0,0,1,.44-.46,2.34,2.34,0,0,1,.61-.23,5.5,5.5,0,0,1,.69-.11,4.1,4.1,0,0,1,.57-.08l.48-.08a.71.71,0,0,0,.32-.18.49.49,0,0,0,.13-.36.56.56,0,0,0-.11-.35.64.64,0,0,0-.25-.21.9.9,0,0,0-.33-.09l-.34,0a1.49,1.49,0,0,0-.77.19.76.76,0,0,0-.33.6h-1.1a1.71,1.71,0,0,1,.23-.8,1.69,1.69,0,0,1,.52-.51,2,2,0,0,1,.7-.27,4.43,4.43,0,0,1,.81-.07,3.38,3.38,0,0,1,.72.07,2,2,0,0,1,.64.25,1.41,1.41,0,0,1,.46.45,1.2,1.2,0,0,1,.18.67Zm-1.1-1.39a1.3,1.3,0,0,1-.62.2c-.24,0-.49.06-.73.1l-.34.08a1.32,1.32,0,0,0-.29.15.65.65,0,0,0-.19.24.8.8,0,0,0-.08.36.49.49,0,0,0,.11.31.86.86,0,0,0,.26.2,1.5,1.5,0,0,0,.32.1l.33,0a1.89,1.89,0,0,0,.39,0,1.27,1.27,0,0,0,.4-.17.86.86,0,0,0,.31-.29.7.7,0,0,0,.13-.44Z"/><path class="cls-3" d="M112.46,295.27h1.2L115,299h0l1.26-3.72h1.15l-1.94,5.25c-.09.22-.17.44-.26.64a2.27,2.27,0,0,1-.32.55,1.33,1.33,0,0,1-.47.37,1.6,1.6,0,0,1-.71.14,4.87,4.87,0,0,1-.76-.06v-.92l.26,0a1.15,1.15,0,0,0,.26,0,.93.93,0,0,0,.32-.05.6.6,0,0,0,.21-.14.93.93,0,0,0,.14-.22c0-.08.07-.18.1-.29l.13-.38Z"/><path class="cls-3" d="M118,293.37h1.1v3.91l2-2h1.35l-1.9,1.83,2.08,3.15h-1.33l-1.52-2.42-.66.64v1.78H118Z"/><path class="cls-3" d="M123.2,300.25v-5h1.1v5Z"/><path class="cls-3" d="M125.49,295.27h1v1h0a1.17,1.17,0,0,1,.19-.39,1.88,1.88,0,0,1,.78-.61,1.37,1.37,0,0,1,.49-.09h.41v1.06l-.24,0h-.23a1.2,1.2,0,0,0-.53.11,1.18,1.18,0,0,0-.42.32,1.56,1.56,0,0,0-.29.54,2.29,2.29,0,0,0-.11.73v2.37h-1.1Z"/><path class="cls-3" d="M128.91,300.25v-5H130v5Z"/><path class="cls-3" d="M133.88,295.27h1v1h0a1.14,1.14,0,0,1,.18-.39,1.88,1.88,0,0,1,.34-.35,1.76,1.76,0,0,1,.44-.26,1.37,1.37,0,0,1,.49-.09h.41v1.06l-.23,0h-.24a1.16,1.16,0,0,0-.52.11,1.13,1.13,0,0,0-.43.32,1.74,1.74,0,0,0-.29.54,2.3,2.3,0,0,0-.1.73v2.37h-1.1Z"/><path class="cls-3" d="M138,298a2,2,0,0,0,.08.56,1.41,1.41,0,0,0,.25.47,1.11,1.11,0,0,0,.41.33,1.4,1.4,0,0,0,.6.12,1.28,1.28,0,0,0,.77-.21,1.26,1.26,0,0,0,.44-.62h1a2.11,2.11,0,0,1-.3.72,2.15,2.15,0,0,1-1.18.86,2.43,2.43,0,0,1-.77.11,2.61,2.61,0,0,1-1-.19,2.23,2.23,0,0,1-.77-.54,2.33,2.33,0,0,1-.47-.83,3.52,3.52,0,0,1-.16-1.06,3,3,0,0,1,.17-1,2.49,2.49,0,0,1,.48-.84,2.27,2.27,0,0,1,.76-.57,2.29,2.29,0,0,1,1-.21,2.26,2.26,0,0,1,1.05.24,2.47,2.47,0,0,1,.78.65,2.87,2.87,0,0,1,.45.93,3,3,0,0,1,.07,1.08Zm2.56-.72a1.72,1.72,0,0,0-.11-.5,1.27,1.27,0,0,0-.25-.42,1.28,1.28,0,0,0-.39-.29,1.15,1.15,0,0,0-.5-.11,1.51,1.51,0,0,0-.53.1,1.26,1.26,0,0,0-.4.28,1.43,1.43,0,0,0-.38.94Z"/><path class="cls-3" d="M142.45,295.27h1V296l0,0a2,2,0,0,1,.66-.65,1.71,1.71,0,0,1,.89-.23,1.86,1.86,0,0,1,1.29.42,1.61,1.61,0,0,1,.48,1.27v3.42h-1.1v-3.13a1.34,1.34,0,0,0-.25-.85.91.91,0,0,0-.72-.27,1.27,1.27,0,0,0-.5.1,1.08,1.08,0,0,0-.38.28,1.46,1.46,0,0,0-.33.93v2.94h-1.09Z"/><path class="cls-3" d="M148,293.37h1.1v3.91l2-2h1.35l-1.91,1.83,2.09,3.15h-1.34l-1.52-2.42-.65.64v1.78H148Z"/><path class="cls-3" d="M153.23,299h1.33v1.3a1.46,1.46,0,0,1-.36,1,1.65,1.65,0,0,1-.94.52v-.59a.7.7,0,0,0,.48-.35,1,1,0,0,0,.15-.58h-.66Z"/><path class="cls-3" d="M163.18,300.25h-1v-.68h0a1.28,1.28,0,0,1-.64.62,2.14,2.14,0,0,1-.9.19,2.47,2.47,0,0,1-1-.2,2,2,0,0,1-.73-.57,2.39,2.39,0,0,1-.43-.84,3.51,3.51,0,0,1-.15-1,3.41,3.41,0,0,1,.18-1.16,2.46,2.46,0,0,1,.49-.81,1.86,1.86,0,0,1,.69-.46,2.22,2.22,0,0,1,.8-.15,2.56,2.56,0,0,1,.47,0,2.44,2.44,0,0,1,.46.14,2.1,2.1,0,0,1,.41.24,1.19,1.19,0,0,1,.31.36h0v-2.55h1.1Zm-3.83-2.44a2.72,2.72,0,0,0,.08.63,1.72,1.72,0,0,0,.25.55,1.31,1.31,0,0,0,.43.38,1.21,1.21,0,0,0,.62.15,1.28,1.28,0,0,0,.63-.16,1.37,1.37,0,0,0,.43-.4,2.1,2.1,0,0,0,.25-.57,2.67,2.67,0,0,0,.08-.64,2,2,0,0,0-.37-1.29,1.25,1.25,0,0,0-1-.46,1.23,1.23,0,0,0-.65.16,1.33,1.33,0,0,0-.43.42,1.81,1.81,0,0,0-.24.57A3,3,0,0,0,159.35,297.81Z"/><path class="cls-3" d="M168.74,300.25h-1.07v-.7h0a1.56,1.56,0,0,1-.61.61,1.59,1.59,0,0,1-.81.22,1.84,1.84,0,0,1-1.42-.48,2.17,2.17,0,0,1-.44-1.47v-3.16h1.1v3.05a1.35,1.35,0,0,0,.25.93.91.91,0,0,0,.7.27,1.39,1.39,0,0,0,.58-.11,1,1,0,0,0,.58-.71,2.35,2.35,0,0,0,.07-.54v-2.89h1.09Zm-3.57-5.8v-1h1.1v1Zm2.75-1v1h-1.09v-1Z"/><path class="cls-3" d="M169.73,295.27h4V296l-2.85,3.34h3v.87h-4.38v-.77l2.76-3.34h-2.56Z"/><path class="cls-3" d="M175.57,298a2,2,0,0,0,.08.56,1.25,1.25,0,0,0,.25.47,1,1,0,0,0,.41.33,1.4,1.4,0,0,0,.6.12,1.28,1.28,0,0,0,.77-.21,1.26,1.26,0,0,0,.44-.62h1a2.11,2.11,0,0,1-.3.72,2.15,2.15,0,0,1-1.18.86,2.47,2.47,0,0,1-.77.11,2.57,2.57,0,0,1-1-.19,2.14,2.14,0,0,1-.77-.54,2.33,2.33,0,0,1-.47-.83,3.23,3.23,0,0,1-.16-1.06,3,3,0,0,1,.17-1,2.49,2.49,0,0,1,.48-.84,2.39,2.39,0,0,1,2.81-.54,2.47,2.47,0,0,1,.78.65,2.66,2.66,0,0,1,.44.93,2.8,2.8,0,0,1,.08,1.08Zm2.56-.72a1.72,1.72,0,0,0-.11-.5,1.46,1.46,0,0,0-.25-.42,1.42,1.42,0,0,0-.39-.29,1.18,1.18,0,0,0-.5-.11,1.47,1.47,0,0,0-.53.1,1.26,1.26,0,0,0-.4.28,1.51,1.51,0,0,0-.27.42,1.31,1.31,0,0,0-.11.52Z"/><path class="cls-3" d="M180.06,295.27h1V296l0,0a2,2,0,0,1,.66-.65,1.69,1.69,0,0,1,.89-.23,1.86,1.86,0,0,1,1.29.42,1.6,1.6,0,0,1,.47,1.27v3.42h-1.09v-3.13a1.41,1.41,0,0,0-.25-.85.92.92,0,0,0-.73-.27,1.35,1.35,0,0,0-.5.1,1.13,1.13,0,0,0-.37.28,1.46,1.46,0,0,0-.33.93v2.94h-1.1Z"/><path class="cls-3" d="M187.77,295.27H189l1.26,3.82h0l1.21-3.82h1.14l-1.78,5h-1.24Z"/><path class="cls-3" d="M194.12,298a1.73,1.73,0,0,0,.08.56,1.39,1.39,0,0,0,.24.47,1.14,1.14,0,0,0,.42.33,1.37,1.37,0,0,0,.6.12,1.3,1.3,0,0,0,.77-.21,1.26,1.26,0,0,0,.44-.62h1a2.11,2.11,0,0,1-.3.72,2.15,2.15,0,0,1-1.18.86,2.47,2.47,0,0,1-.77.11,2.57,2.57,0,0,1-1-.19,2.14,2.14,0,0,1-.77-.54,2.19,2.19,0,0,1-.47-.83,3.23,3.23,0,0,1-.16-1.06,3,3,0,0,1,.17-1,2.49,2.49,0,0,1,.48-.84,2.39,2.39,0,0,1,2.81-.54,2.47,2.47,0,0,1,.78.65,2.66,2.66,0,0,1,.44.93,2.8,2.8,0,0,1,.08,1.08Zm2.56-.72a1.72,1.72,0,0,0-.11-.5,1.46,1.46,0,0,0-.25-.42,1.42,1.42,0,0,0-.39-.29,1.18,1.18,0,0,0-.5-.11,1.47,1.47,0,0,0-.53.1,1.15,1.15,0,0,0-.4.28,1.51,1.51,0,0,0-.27.42,1.31,1.31,0,0,0-.11.52Z"/><path class="cls-3" d="M201.32,293.37h1.09v2.55h0a1.29,1.29,0,0,1,.28-.33,1.78,1.78,0,0,1,.36-.25,2.1,2.1,0,0,1,.42-.15,1.58,1.58,0,0,1,.43-.05,2.47,2.47,0,0,1,1,.2,2.06,2.06,0,0,1,.73.57,2.39,2.39,0,0,1,.43.84,3.47,3.47,0,0,1,.15,1,4,4,0,0,1-.13,1,2.56,2.56,0,0,1-.4.83,2.09,2.09,0,0,1-.67.58,2,2,0,0,1-1,.21l-.51,0a1.89,1.89,0,0,1-.48-.13,1.73,1.73,0,0,1-.42-.25,1.09,1.09,0,0,1-.31-.41h0v.69h-1Zm3.83,4.39a2.37,2.37,0,0,0-.09-.65,1.7,1.7,0,0,0-.26-.56,1.27,1.27,0,0,0-.43-.4,1.16,1.16,0,0,0-.6-.15,1.2,1.2,0,0,0-1,.48,2.09,2.09,0,0,0-.35,1.28,2.58,2.58,0,0,0,.09.7,1.49,1.49,0,0,0,.27.55,1.3,1.3,0,0,0,.44.37,1.25,1.25,0,0,0,.59.14,1.29,1.29,0,0,0,.64-.16,1.36,1.36,0,0,0,.43-.4,1.67,1.67,0,0,0,.24-.56A3.3,3.3,0,0,0,205.15,297.76Z"/><path class="cls-3" d="M211.54,300.25h-1.08v-.7h0a1.47,1.47,0,0,1-.6.61,1.65,1.65,0,0,1-.81.22,1.83,1.83,0,0,1-1.42-.48,2.17,2.17,0,0,1-.44-1.47v-3.16h1.1v3.05a1.35,1.35,0,0,0,.25.93.9.9,0,0,0,.7.27,1.43,1.43,0,0,0,.58-.11,1.07,1.07,0,0,0,.37-.28,1.08,1.08,0,0,0,.21-.43,2.35,2.35,0,0,0,.06-.54v-2.89h1.1Zm-3.57-5.8v-1h1.1v1Zm2.75-1v1h-1.1v-1Z"/><path class="cls-3" d="M212.15,295.27h1.2l1.3,3.72h0l1.26-3.72h1.15l-1.94,5.25-.26.64a2.65,2.65,0,0,1-.32.55,1.43,1.43,0,0,1-.47.37,1.63,1.63,0,0,1-.71.14,4.77,4.77,0,0,1-.76-.06v-.92l.26,0a1.09,1.09,0,0,0,.26,0,1,1,0,0,0,.32-.05.48.48,0,0,0,.2-.14.69.69,0,0,0,.14-.22,1.6,1.6,0,0,0,.11-.29l.12-.38Z"/><path class="cls-3" d="M222.06,300.25H221v-.7h0a1.47,1.47,0,0,1-.6.61,1.59,1.59,0,0,1-.81.22,1.83,1.83,0,0,1-1.42-.48,2.17,2.17,0,0,1-.44-1.47v-3.16h1.1v3.05a1.35,1.35,0,0,0,.25.93.91.91,0,0,0,.7.27,1.39,1.39,0,0,0,.58-.11,1.07,1.07,0,0,0,.37-.28,1.08,1.08,0,0,0,.21-.43,2.35,2.35,0,0,0,.06-.54v-2.89h1.1Zm-3.57-5.8v-1h1.1v1Zm2.75-1v1h-1.09v-1Z"/><path class="cls-3" d="M223.25,293.37h1.09v3.91l2-2h1.34l-1.9,1.83,2.09,3.15h-1.34L225,297.83l-.66.64v1.78h-1.09Z"/><path class="cls-3" d="M228.41,293.37h1.1v6.88h-1.1Z"/><path class="cls-3" d="M235.08,300.25H234v-.7h0a1.6,1.6,0,0,1-.6.61,1.66,1.66,0,0,1-.82.22,1.86,1.86,0,0,1-1.42-.48,2.17,2.17,0,0,1-.43-1.47v-3.16h1.09v3.05a1.4,1.4,0,0,0,.25.93.92.92,0,0,0,.71.27,1.35,1.35,0,0,0,.57-.11,1.11,1.11,0,0,0,.38-.28,1.23,1.23,0,0,0,.21-.43,2.35,2.35,0,0,0,.06-.54v-2.89h1.1Zm-3.58-5.8v-1h1.1v1Zm2.76-1v1h-1.1v-1Z"/><path class="cls-3" d="M236.26,293.37h1.1v3.91l2-2h1.35l-1.91,1.83,2.09,3.15h-1.34L238,297.83l-.65.64v1.78h-1.1Z"/><path class="cls-3" d="M241.43,293.37h1.1v6.88h-1.1Z"/><path class="cls-3" d="M244.58,298a1.73,1.73,0,0,0,.08.56,1.23,1.23,0,0,0,.24.47,1.14,1.14,0,0,0,.42.33,1.25,1.25,0,0,0,1.81-.71h1a2.11,2.11,0,0,1-.3.72,2.15,2.15,0,0,1-1.18.86,2.86,2.86,0,0,1-1.81-.08,2.14,2.14,0,0,1-.77-.54,2.19,2.19,0,0,1-.47-.83,3.23,3.23,0,0,1-.16-1.06,3,3,0,0,1,.17-1,2.49,2.49,0,0,1,.48-.84,2.24,2.24,0,0,1,1.76-.78,2.26,2.26,0,0,1,1.05.24,2.32,2.32,0,0,1,.77.65,2.52,2.52,0,0,1,.45.93,2.8,2.8,0,0,1,.07,1.08Zm2.56-.72a2.13,2.13,0,0,0-.11-.5,1.46,1.46,0,0,0-.25-.42,1.42,1.42,0,0,0-.39-.29,1.18,1.18,0,0,0-.5-.11,1.47,1.47,0,0,0-.53.1,1.15,1.15,0,0,0-.4.28,1.17,1.17,0,0,0-.27.42,1.31,1.31,0,0,0-.11.52Z"/><path class="cls-3" d="M249.07,295.27h1v1h0a1.17,1.17,0,0,1,.19-.39,1.41,1.41,0,0,1,.34-.35,1.7,1.7,0,0,1,.43-.26,1.41,1.41,0,0,1,.49-.09H252v1.06l-.24,0h-.23a1.2,1.2,0,0,0-.53.11,1.31,1.31,0,0,0-.43.32,2,2,0,0,0-.29.54,2.3,2.3,0,0,0-.1.73v2.37h-1.1Z"/><path class="cls-3" d="M257,300.25h-1v-.68h0a1.3,1.3,0,0,1-.65.62,2.09,2.09,0,0,1-.89.19,2.49,2.49,0,0,1-1-.2,2.16,2.16,0,0,1-.73-.57,2.57,2.57,0,0,1-.43-.84,3.51,3.51,0,0,1-.14-1,3.41,3.41,0,0,1,.18-1.16,2.29,2.29,0,0,1,.48-.81,2,2,0,0,1,.7-.46,2.17,2.17,0,0,1,.79-.15,2.49,2.49,0,0,1,.47,0,2.54,2.54,0,0,1,.47.14,2,2,0,0,1,.4.24,1.38,1.38,0,0,1,.32.36h0v-2.55H257Zm-3.83-2.44a2.28,2.28,0,0,0,.09.63,1.53,1.53,0,0,0,.25.55,1.28,1.28,0,0,0,.42.38,1.24,1.24,0,0,0,.62.15,1.25,1.25,0,0,0,1.06-.56,1.63,1.63,0,0,0,.25-.57,2.25,2.25,0,0,0,.09-.64,2,2,0,0,0-.38-1.29,1.23,1.23,0,0,0-1-.46,1.21,1.21,0,0,0-.65.16,1.24,1.24,0,0,0-.43.42,1.45,1.45,0,0,0-.24.57A3,3,0,0,0,253.14,297.81Z"/><path class="cls-3" d="M259,298a1.73,1.73,0,0,0,.09.56,1.23,1.23,0,0,0,.24.47,1.14,1.14,0,0,0,.42.33,1.25,1.25,0,0,0,1.81-.71h1a2.11,2.11,0,0,1-.3.72,2,2,0,0,1-.51.53,2.1,2.1,0,0,1-.67.33,2.54,2.54,0,0,1-.78.11,2.61,2.61,0,0,1-1-.19,2.17,2.17,0,0,1-1.23-1.37,3.23,3.23,0,0,1-.16-1.06,2.8,2.8,0,0,1,.17-1,2.49,2.49,0,0,1,.48-.84,2.24,2.24,0,0,1,1.75-.78,2.27,2.27,0,0,1,1.06.24,2.32,2.32,0,0,1,.77.65,2.52,2.52,0,0,1,.45.93,2.8,2.8,0,0,1,.07,1.08Zm2.56-.72a1.45,1.45,0,0,0-.11-.5,1.27,1.27,0,0,0-.25-.42,1.24,1.24,0,0,0-.38-.29,1.19,1.19,0,0,0-.51-.11,1.46,1.46,0,0,0-.52.1,1.2,1.2,0,0,0-.67.7,1.52,1.52,0,0,0-.12.52Z"/><path class="cls-3" d="M266.23,293.37h1.09v3.91l2-2h1.34l-1.9,1.83,2.09,3.15H269.5L268,297.83l-.66.64v1.78h-1.09Z"/><path class="cls-3" d="M275.74,300.25h-1.08v-.7h0a1.6,1.6,0,0,1-.6.61,1.66,1.66,0,0,1-.82.22,1.86,1.86,0,0,1-1.42-.48,2.17,2.17,0,0,1-.43-1.47v-3.16h1.09v3.05a1.4,1.4,0,0,0,.25.93.92.92,0,0,0,.71.27,1.35,1.35,0,0,0,.57-.11,1.11,1.11,0,0,0,.38-.28,1.44,1.44,0,0,0,.21-.43,2.35,2.35,0,0,0,.06-.54v-2.89h1.1Z"/><path class="cls-3" d="M276.92,293.37H278v6.88h-1.1Z"/><path class="cls-3" d="M279.24,293.37h1.1v6.88h-1.1Z"/><path class="cls-3" d="M285.7,299.14a.69.69,0,0,0,.05.29.23.23,0,0,0,.21.09h.11l.16,0v.76l-.15,0-.19,0a.63.63,0,0,1-.19,0h-.17a1,1,0,0,1-.55-.13.66.66,0,0,1-.29-.47,2,2,0,0,1-.81.46,3.32,3.32,0,0,1-.92.14,2.25,2.25,0,0,1-.64-.09,1.52,1.52,0,0,1-.54-.27,1.27,1.27,0,0,1-.38-.45,1.44,1.44,0,0,1-.14-.64,1.49,1.49,0,0,1,.17-.75,1.3,1.3,0,0,1,.44-.46,2.28,2.28,0,0,1,.62-.23,5.5,5.5,0,0,1,.69-.11,4,4,0,0,1,.56-.08l.48-.08a.75.75,0,0,0,.33-.18.49.49,0,0,0,.12-.36.63.63,0,0,0-.1-.35.72.72,0,0,0-.25-.21A.9.9,0,0,0,284,296l-.34,0a1.45,1.45,0,0,0-.76.19.77.77,0,0,0-.34.6h-1.1a1.71,1.71,0,0,1,.23-.8,1.69,1.69,0,0,1,.52-.51,2,2,0,0,1,.71-.27,4.28,4.28,0,0,1,.81-.07,3.51,3.51,0,0,1,.72.07,2.14,2.14,0,0,1,.64.25,1.38,1.38,0,0,1,.45.45,1.2,1.2,0,0,1,.18.67Zm-1.1-1.39a1.3,1.3,0,0,1-.62.2c-.24,0-.48.06-.73.1l-.33.08a1.13,1.13,0,0,0-.29.15.59.59,0,0,0-.2.24.8.8,0,0,0-.07.36.48.48,0,0,0,.1.31.86.86,0,0,0,.26.2,1.59,1.59,0,0,0,.33.1l.32,0a1.89,1.89,0,0,0,.39,0,1.18,1.18,0,0,0,.4-.17,1,1,0,0,0,.32-.29.76.76,0,0,0,.12-.44Z"/><path class="cls-3" d="M286.88,295.27h1V296l0,0a2,2,0,0,1,.66-.65,1.69,1.69,0,0,1,.89-.23,1.86,1.86,0,0,1,1.29.42,1.6,1.6,0,0,1,.47,1.27v3.42h-1.09v-3.13a1.34,1.34,0,0,0-.26-.85.89.89,0,0,0-.72-.27,1.35,1.35,0,0,0-.5.1,1,1,0,0,0-.37.28,1.1,1.1,0,0,0-.24.42,1.44,1.44,0,0,0-.09.51v2.94h-1.1Z"/><path class="cls-3" d="M292.44,300.25v-5h1.09v5Z"/><path class="cls-3" d="M294.76,293.37h1.09v6.88h-1.09Z"/><path class="cls-3" d="M301.22,299.14a.56.56,0,0,0,0,.29q0,.09.21.09h.11l.15,0v.76l-.14,0-.19,0-.19,0h-.17a1.08,1.08,0,0,1-.56-.13.72.72,0,0,1-.29-.47,1.92,1.92,0,0,1-.8.46,3.37,3.37,0,0,1-.92.14,2.25,2.25,0,0,1-.64-.09,1.66,1.66,0,0,1-.55-.27,1.36,1.36,0,0,1-.37-.45,1.31,1.31,0,0,1-.14-.64,1.39,1.39,0,0,1,.17-.75,1.3,1.3,0,0,1,.44-.46,2.34,2.34,0,0,1,.61-.23,5.5,5.5,0,0,1,.69-.11,4.1,4.1,0,0,1,.57-.08l.48-.08a.71.71,0,0,0,.32-.18.45.45,0,0,0,.13-.36.56.56,0,0,0-.11-.35.64.64,0,0,0-.25-.21.9.9,0,0,0-.33-.09l-.34,0a1.42,1.42,0,0,0-.76.19.74.74,0,0,0-.34.6H297a1.71,1.71,0,0,1,.23-.8,1.69,1.69,0,0,1,.52-.51,2,2,0,0,1,.7-.27,4.43,4.43,0,0,1,.81-.07,3.38,3.38,0,0,1,.72.07,2,2,0,0,1,.64.25,1.41,1.41,0,0,1,.46.45,1.2,1.2,0,0,1,.18.67Zm-1.1-1.39a1.3,1.3,0,0,1-.62.2c-.24,0-.49.06-.73.1l-.34.08a1.32,1.32,0,0,0-.29.15.65.65,0,0,0-.19.24.8.8,0,0,0-.07.36.48.48,0,0,0,.1.31.86.86,0,0,0,.26.2,1.5,1.5,0,0,0,.32.1l.33,0a1.89,1.89,0,0,0,.39,0,1.27,1.27,0,0,0,.4-.17A.86.86,0,0,0,300,299a.7.7,0,0,0,.13-.44Z"/><path class="cls-3" d="M302.4,295.27h1V296h0a2.16,2.16,0,0,1,.27-.33,1.14,1.14,0,0,1,.32-.26,1.53,1.53,0,0,1,.41-.17,2.09,2.09,0,0,1,.53-.06,1.74,1.74,0,0,1,.84.2,1.09,1.09,0,0,1,.55.62,2.3,2.3,0,0,1,.65-.6,1.7,1.7,0,0,1,.91-.22,1.78,1.78,0,0,1,1.23.38,1.66,1.66,0,0,1,.44,1.29v3.44h-1.1v-2.91a4.52,4.52,0,0,0,0-.54,1.09,1.09,0,0,0-.11-.43.59.59,0,0,0-.27-.27,1,1,0,0,0-.5-.1.93.93,0,0,0-.81.35,1.63,1.63,0,0,0-.25,1v2.92h-1.1v-3.2a1.3,1.3,0,0,0-.19-.78.77.77,0,0,0-.69-.27.93.93,0,0,0-.4.09,1,1,0,0,0-.35.25,1.22,1.22,0,0,0-.24.4,1.59,1.59,0,0,0-.09.55v3h-1.1Z"/><path class="cls-3" d="M314.94,299.14a.55.55,0,0,0,.06.29.2.2,0,0,0,.2.09h.12l.15,0v.76l-.15,0-.19,0a.58.58,0,0,1-.19,0h-.16a1.06,1.06,0,0,1-.56-.13.69.69,0,0,1-.29-.47,2,2,0,0,1-.8.46,3.43,3.43,0,0,1-.92.14,2.32,2.32,0,0,1-.65-.09A1.71,1.71,0,0,1,311,300a1.38,1.38,0,0,1-.38-.45,1.44,1.44,0,0,1-.14-.64,1.49,1.49,0,0,1,.17-.75,1.32,1.32,0,0,1,.45-.46,2.21,2.21,0,0,1,.61-.23,5.5,5.5,0,0,1,.69-.11,4.1,4.1,0,0,1,.57-.08,4.13,4.13,0,0,0,.47-.08.75.75,0,0,0,.33-.18.49.49,0,0,0,.12-.36.56.56,0,0,0-.1-.35.72.72,0,0,0-.25-.21.9.9,0,0,0-.33-.09l-.35,0a1.45,1.45,0,0,0-.76.19.77.77,0,0,0-.34.6h-1.09a1.61,1.61,0,0,1,.23-.8,1.55,1.55,0,0,1,.51-.51,2.09,2.09,0,0,1,.71-.27,4.28,4.28,0,0,1,.81-.07,3.51,3.51,0,0,1,.72.07,2.14,2.14,0,0,1,.64.25,1.52,1.52,0,0,1,.46.45,1.28,1.28,0,0,1,.17.67Zm-1.1-1.39a1.26,1.26,0,0,1-.61.2c-.25,0-.49.06-.73.1l-.34.08a1.13,1.13,0,0,0-.29.15.68.68,0,0,0-.2.24,1,1,0,0,0-.07.36.49.49,0,0,0,.11.31.82.82,0,0,0,.25.2,1.59,1.59,0,0,0,.33.1l.32,0a2,2,0,0,0,.4,0,1.27,1.27,0,0,0,.4-.17,1,1,0,0,0,.31-.29.76.76,0,0,0,.12-.44Z"/><path class="cls-3" d="M316,295.27H320V296l-2.85,3.34h3v.87h-4.38v-.77l2.75-3.34H316Z"/><path class="cls-3" d="M321,299h1.33v1.3H321Z"/></g></g></svg>