<svg xmlns="http://www.w3.org/2000/svg" viewBox="0 0 686.37 297.23"><defs><style>.cls-1{fill:#e20613;}.cls-2{fill:#4c4c4b;}.cls-3{fill:#b2b2b2;}</style></defs><g id="Layer_2" data-name="Layer 2"><g id="Layer_1-2" data-name="Layer 1"><path class="cls-1" d="M507,97.4H313a9.23,9.23,0,0,1-9.23-9.23V78.79a32.42,32.42,0,0,1,16.21-28.07L400.28,4.34a32.41,32.41,0,0,1,32.41,0l13,7.51a5,5,0,0,1,.79,8.1l-52.6,46A7.31,7.31,0,0,0,398,78.71l79,7.65a63.3,63.3,0,0,1,30,11Z"/><path class="cls-2" d="M195.83,153.9q-4-3.18-12.11-5.08l-12.3-2.9q-7.11-1.66-9.3-2.9a6,6,0,0,1-3.41-5.6,7.21,7.21,0,0,1,3.46-6.37c2.3-1.52,5.39-2.28,9.25-2.28a19.24,19.24,0,0,1,8.72,1.76q5.27,2.66,5.65,9h14.07q-.39-11.17-8.3-17t-19.12-5.87q-13.42,0-20.35,6.23a20.15,20.15,0,0,0-6.92,15.63q0,10.32,7.08,15.16,4.19,2.9,15.36,5.37l7.58,1.66q6.66,1.42,9.72,3.28A6,6,0,0,1,188,169.3q0,5.94-6.26,8.12a26.84,26.84,0,0,1-8.59,1.14q-8.82,0-12.46-4.32c-1.33-1.58-2.22-4-2.67-7.18H144Q144,178,152,184.24t21.76,6.25q13.54,0,21-6.34a20.1,20.1,0,0,0,7.42-16Q202.09,158.84,195.83,153.9Z"/><path class="cls-2" d="M229.87,135.23q-13.35,0-19.91,8.21a32.17,32.17,0,0,0,0,38.91q6.56,8.09,19.91,8.09t19.91-8.09a32.13,32.13,0,0,0,0-38.91Q243.23,135.24,229.87,135.23ZM239,174.86a12,12,0,0,1-18.27,0q-3.21-4.22-3.21-12t3.21-12a12,12,0,0,1,18.27,0q3.18,4.2,3.18,12T239,174.86Z"/><rect class="cls-2" x="261.64" y="118.65" width="13.54" height="70.04"/><rect class="cls-2" x="283.91" y="136.89" width="13.73" height="51.79"/><rect class="cls-2" x="283.91" y="118.22" width="13.73" height="12.5"/><polygon class="cls-2" points="372.51 155.21 408.61 155.21 408.61 149.56 372.51 149.56 372.51 124.27 412.5 124.27 412.5 118.62 365.89 118.62 365.89 188.68 413.48 188.68 413.48 183.04 372.51 183.04 372.51 155.21"/><rect class="cls-2" x="420.67" y="118.62" width="5.84" height="70.06"/><path class="cls-2" d="M473.61,144.07q-5.94-7.15-16.35-7.15a21.8,21.8,0,0,0-9.73,2.09,21.19,21.19,0,0,0-7.25,5.74,26.46,26.46,0,0,0-4.57,8.51,33.09,33.09,0,0,0-1.61,10.41A37.9,37.9,0,0,0,435.46,174a23.71,23.71,0,0,0,4.19,8.37,19.56,19.56,0,0,0,7.2,5.59,24.47,24.47,0,0,0,10.41,2.05,25.31,25.31,0,0,0,8.37-1.27,18.94,18.94,0,0,0,6.23-3.55,20.79,20.79,0,0,0,4.38-5.35,32.37,32.37,0,0,0,2.82-6.67h-6.52a14.54,14.54,0,0,1-5.45,8.56,16,16,0,0,1-9.83,3,16.3,16.3,0,0,1-7.39-1.6,15.46,15.46,0,0,1-5.31-4.29,18.67,18.67,0,0,1-3.16-6.32,27.47,27.47,0,0,1-1.07-7.74h39.12Q479.54,151.22,473.61,144.07ZM440.33,160a26.3,26.3,0,0,1,1.65-6.81,19.5,19.5,0,0,1,3.36-5.65,15.79,15.79,0,0,1,5.06-3.89,15.42,15.42,0,0,1,6.86-1.46,16.16,16.16,0,0,1,6.91,1.41,14.36,14.36,0,0,1,5,3.8,16.26,16.26,0,0,1,3,5.64,23.15,23.15,0,0,1,1,7Z"/><path class="cls-2" d="M517.35,181.19q-3.95,3.6-10.46,3.6a15.71,15.71,0,0,1-7.79-1.8,15.18,15.18,0,0,1-5.25-4.82,20.92,20.92,0,0,1-3-6.81,32.54,32.54,0,0,1-.92-7.78,31.33,31.33,0,0,1,1-7.74,22.1,22.1,0,0,1,3-6.91A15.53,15.53,0,0,1,499.2,144a15.18,15.18,0,0,1,7.69-1.85,14.52,14.52,0,0,1,9.63,3.16,16.93,16.93,0,0,1,5.35,8.81h5.94q-1.37-8.85-6.76-13t-14.16-4.18a21.85,21.85,0,0,0-10,2.18,21.6,21.6,0,0,0-7.25,5.89,26.24,26.24,0,0,0-4.42,8.52,33.32,33.32,0,0,0-1.51,10.07A38.35,38.35,0,0,0,485.09,174a23.53,23.53,0,0,0,4.19,8.42,19.56,19.56,0,0,0,7.2,5.59,27.16,27.16,0,0,0,18.87.68,18.79,18.79,0,0,0,6.38-3.84,20.19,20.19,0,0,0,4.38-5.94,29.45,29.45,0,0,0,2.48-7.63h-6.23A16.71,16.71,0,0,1,517.35,181.19Z"/><path class="cls-2" d="M548.54,184.79a8.31,8.31,0,0,1-2.87-.39,2.76,2.76,0,0,1-1.51-1.26,5.4,5.4,0,0,1-.59-2.24q-.09-1.36-.09-3.21V143.14h9.44v-4.86h-9.44v-14h-5.84v14h-7.11v4.86h7.11V180q0,5.65,2.28,7.84t6.67,2.19a14.63,14.63,0,0,0,3.89-.49c1.17-.33,2.11-.55,2.82-.68v-4.77c-.77.19-1.57.36-2.38.49A15,15,0,0,1,548.54,184.79Z"/><path class="cls-2" d="M564.3,147.72h-.19v-9.44h-5.84v50.4h5.84V164a42.67,42.67,0,0,1,.73-8,17.79,17.79,0,0,1,2.62-6.67,13.46,13.46,0,0,1,5.11-4.47,17,17,0,0,1,8.18-1.56v-6.32q-6.33,0-10.17,2.38T564.3,147.72Z"/><path class="cls-2" d="M623.37,144.65a21,21,0,0,0-7.3-5.64,23.64,23.64,0,0,0-10.32-2.09A23.36,23.36,0,0,0,595.54,139a20.67,20.67,0,0,0-7.3,5.69,24.38,24.38,0,0,0-4.38,8.42,35.63,35.63,0,0,0-1.46,10.36,33.18,33.18,0,0,0,1.85,11.58,23.69,23.69,0,0,0,5,8.27,20.29,20.29,0,0,0,7.39,5,26.26,26.26,0,0,0,9.1,1.76,23.72,23.72,0,0,0,9.59-1.9,20.92,20.92,0,0,0,7.39-5.4,24.47,24.47,0,0,0,4.72-8.37,33.53,33.53,0,0,0,1.66-10.9,37.2,37.2,0,0,0-1.41-10.41A23.36,23.36,0,0,0,623.37,144.65Zm-1.46,26.71a21.67,21.67,0,0,1-3,6.81,15.07,15.07,0,0,1-5.3,4.82,16,16,0,0,1-7.84,1.8,16.7,16.7,0,0,1-7.39-1.56,14.42,14.42,0,0,1-5.35-4.38,20,20,0,0,1-3.26-6.76,31.31,31.31,0,0,1-1.12-8.61,32.13,32.13,0,0,1,1-7.93,20.86,20.86,0,0,1,3-6.81,15.32,15.32,0,0,1,5.3-4.77,16,16,0,0,1,7.83-1.8,17.15,17.15,0,0,1,7.89,1.65,14.58,14.58,0,0,1,5.25,4.53,19.89,19.89,0,0,1,3,6.76,34.93,34.93,0,0,1,1,8.37A32,32,0,0,1,621.91,171.36Z"/><path class="cls-2" d="M674.79,149.71a12.35,12.35,0,0,0-2.19-5.59,14.74,14.74,0,0,0-6.71-5.6,23,23,0,0,0-8.66-1.6,16.66,16.66,0,0,0-9,2.33,37.13,37.13,0,0,0-7.25,6v-7h-5.84v50.4H641V161.53c0-1.75.06-3.37.19-4.86a18.73,18.73,0,0,1,1.07-4.67,14.77,14.77,0,0,1,2-3.7,14.36,14.36,0,0,1,3.07-3.11,15.5,15.5,0,0,1,4-2.19,14.32,14.32,0,0,1,5-.83q7,0,10,3.41t3,10.21v32.89h5.83v-33A50.29,50.29,0,0,0,674.79,149.71Z"/><path class="cls-2" d="M346.72,118.74h-7.23v24.71a16.46,16.46,0,0,0-5.94-5.73,16.79,16.79,0,0,0-8.36-2.06q-10.21,0-16.32,7.6t-6.11,20.86q0,11.49,6.2,18.84a19.27,19.27,0,0,0,15.28,7.34,18.6,18.6,0,0,0,9.22-2.09,19.16,19.16,0,0,0,6.6-6.7v7.17h13.16V118.74h-6.5Zm-9.84,55.88a10,10,0,0,1-8.75,4.28q-5.75,0-8.57-4.31t-2.83-11.47A20.83,20.83,0,0,1,319.51,152q2.78-4.48,8.72-4.49a10.3,10.3,0,0,1,6.84,2.47q4.8,4.08,4.8,13.59Q339.87,170.35,336.88,174.62Z"/><path class="cls-2" d="M675.92,121.43a5.51,5.51,0,0,1,1.18-1.71,5.57,5.57,0,0,1,5.94-1.13,5.41,5.41,0,0,1,1.72,1.13,5.65,5.65,0,0,1,1.17,1.71,5.24,5.24,0,0,1,.44,2.13,5.31,5.31,0,0,1-.44,2.16,5.62,5.62,0,0,1-1.17,1.73,5.41,5.41,0,0,1-1.72,1.13,5.61,5.61,0,0,1-4.21,0,5.35,5.35,0,0,1-1.73-1.13,5.48,5.48,0,0,1-1.18-1.73,5.31,5.31,0,0,1-.44-2.16A5.24,5.24,0,0,1,675.92,121.43Zm.89,4a4.36,4.36,0,0,0,4.13,2.8,4.24,4.24,0,0,0,1.75-.35,4.36,4.36,0,0,0,1.41-1,4.47,4.47,0,0,0,.94-1.47,4.78,4.78,0,0,0,.34-1.84,4.7,4.7,0,0,0-.34-1.81,4.48,4.48,0,0,0-.94-1.45,4.33,4.33,0,0,0-1.41-1,4.25,4.25,0,0,0-1.75-.36,4.4,4.4,0,0,0-4.13,2.78,4.7,4.7,0,0,0-.34,1.81A4.78,4.78,0,0,0,676.81,125.4Zm4.46-5a2.58,2.58,0,0,1,1.67.45,1.67,1.67,0,0,1,.55,1.36,1.54,1.54,0,0,1-.48,1.25,2.15,2.15,0,0,1-1.19.47l1.81,2.79h-1.06L680.85,124h-1v2.72h-1v-6.32Zm-.43,2.81q.33,0,.63,0a1.42,1.42,0,0,0,.52-.12.81.81,0,0,0,.37-.31,1,1,0,0,0,.14-.59.9.9,0,0,0-.12-.5.81.81,0,0,0-.32-.29,1.49,1.49,0,0,0-.45-.14,4.21,4.21,0,0,0-.5,0h-1.3v2Z"/><path class="cls-3" d="M8.38,271.22a4.64,4.64,0,0,1-3.13,1,4.59,4.59,0,0,1-3.15-1,3.82,3.82,0,0,1-1.11-3V262h2.2v6.22a4.33,4.33,0,0,0,.07.8,1.64,1.64,0,0,0,.29.69,1.67,1.67,0,0,0,.63.49,2.44,2.44,0,0,0,1.07.19,2.06,2.06,0,0,0,1.62-.53,2.49,2.49,0,0,0,.45-1.64V262h2.2v6.22A3.79,3.79,0,0,1,8.38,271.22Z"/><path class="cls-3" d="M13.87,274.13a2.79,2.79,0,0,1-1.59.38c-.21,0-.41,0-.61,0l-.61-.05V272.8l.57.06a3.88,3.88,0,0,0,.59,0,.77.77,0,0,0,.58-.3A1,1,0,0,0,13,272a1.33,1.33,0,0,0-.08-.45l-2.54-6.79h2.12l1.63,5h0l1.58-5h2.06l-3,8.13A2.48,2.48,0,0,1,13.87,274.13Z"/><path class="cls-3" d="M18.38,267a2.31,2.31,0,0,1,.35-1.17,2.51,2.51,0,0,1,.78-.74,3.7,3.7,0,0,1,1.07-.4,6.11,6.11,0,0,1,1.2-.12,8.41,8.41,0,0,1,1.11.08,3.36,3.36,0,0,1,1,.3,2,2,0,0,1,.76.63A1.74,1.74,0,0,1,25,266.6v3.77a7.19,7.19,0,0,0,.06.94,1.68,1.68,0,0,0,.19.67h-2c0-.11-.07-.23-.1-.34a2.2,2.2,0,0,1,0-.36,2.71,2.71,0,0,1-1.12.68,4.54,4.54,0,0,1-1.32.2,3.35,3.35,0,0,1-1-.13,2,2,0,0,1-.78-.39,2,2,0,0,1-.53-.67,2.37,2.37,0,0,1-.18-1,2.16,2.16,0,0,1,.21-1,1.84,1.84,0,0,1,.56-.64,2.48,2.48,0,0,1,.79-.36,8.76,8.76,0,0,1,.89-.18c.29-.05.59-.09.88-.12a5.2,5.2,0,0,0,.77-.12,1.38,1.38,0,0,0,.53-.25.53.53,0,0,0,.18-.47,1.08,1.08,0,0,0-.1-.51.86.86,0,0,0-.28-.29,1.11,1.11,0,0,0-.41-.14,3.75,3.75,0,0,0-.5,0,1.48,1.48,0,0,0-.92.26,1.09,1.09,0,0,0-.39.84ZM23,268.44a.92.92,0,0,1-.31.17,4,4,0,0,1-.41.11l-.45.07-.48.07a2.18,2.18,0,0,0-.44.11,1.35,1.35,0,0,0-.38.19.94.94,0,0,0-.26.3,1,1,0,0,0-.1.46,1,1,0,0,0,.1.45.73.73,0,0,0,.27.28,1.13,1.13,0,0,0,.39.15,2.32,2.32,0,0,0,.46,0,1.76,1.76,0,0,0,.91-.19,1.35,1.35,0,0,0,.48-.47,1.72,1.72,0,0,0,.19-.55q0-.28,0-.45Z"/><path class="cls-3" d="M28.39,264.74v1.34h0a2.61,2.61,0,0,1,.37-.62,2.55,2.55,0,0,1,1.21-.8,2.24,2.24,0,0,1,.73-.12,1.82,1.82,0,0,1,.43.07v1.85l-.33,0-.38,0a2.17,2.17,0,0,0-.93.18,1.77,1.77,0,0,0-.61.5,2.17,2.17,0,0,0-.33.74,4.32,4.32,0,0,0-.09.91V272h-2v-7.24Z"/><path class="cls-3" d="M34,264.74V272H32v-7.24Z"/><path class="cls-3" d="M.8,276.66H4.14a2.39,2.39,0,0,1,1.48.42,1.51,1.51,0,0,1,.56,1.28,1.53,1.53,0,0,1-.26.89,1.59,1.59,0,0,1-.72.57v0a1.51,1.51,0,0,1,1,.6,2,2,0,0,1,.33,1.17,1.94,1.94,0,0,1-.15.76,1.38,1.38,0,0,1-.45.6,2.26,2.26,0,0,1-.79.41,3.84,3.84,0,0,1-1.14.15H.8ZM2,279.53H4a1.1,1.1,0,0,0,.72-.24,1.08,1.08,0,0,0,0-1.44,1.19,1.19,0,0,0-.75-.21H2Zm0,3H4.13a1.18,1.18,0,0,0,.85-.29,1.2,1.2,0,0,0,0-1.59,1.22,1.22,0,0,0-.85-.27H2Z"/><path class="cls-3" d="M11.79,283.53H10.71v-.69h0a1.45,1.45,0,0,1-.6.6,1.59,1.59,0,0,1-.81.22,1.83,1.83,0,0,1-1.42-.48,2.17,2.17,0,0,1-.44-1.47v-3.16h1.1v3.05a1.35,1.35,0,0,0,.25.93.91.91,0,0,0,.7.27,1.39,1.39,0,0,0,.58-.11,1.08,1.08,0,0,0,.38-.28,1.14,1.14,0,0,0,.2-.43,2.35,2.35,0,0,0,.06-.54v-2.89h1.1Z"/><path class="cls-3" d="M15.65,276.66h1.1v6.87h-1.1Z"/><path class="cls-3" d="M20.22,283.66a2.74,2.74,0,0,1-1.06-.19,2.49,2.49,0,0,1-.79-.55,2.29,2.29,0,0,1-.49-.83,3.33,3.33,0,0,1,0-2.1,2.37,2.37,0,0,1,.49-.83,2.49,2.49,0,0,1,.79-.55,3.08,3.08,0,0,1,2.13,0,2.49,2.49,0,0,1,.79.55,2.37,2.37,0,0,1,.49.83,3.33,3.33,0,0,1,0,2.1,2.29,2.29,0,0,1-.49.83,2.49,2.49,0,0,1-.79.55A2.76,2.76,0,0,1,20.22,283.66Zm0-.86a1.19,1.19,0,0,0,.64-.16,1.21,1.21,0,0,0,.44-.4,1.91,1.91,0,0,0,.26-.56,2.8,2.8,0,0,0,.08-.64,2.74,2.74,0,0,0-.08-.64,1.7,1.7,0,0,0-.26-.56,1.21,1.21,0,0,0-.44-.4,1.34,1.34,0,0,0-1.27,0,1.21,1.21,0,0,0-.44.4,1.7,1.7,0,0,0-.26.56,2.74,2.74,0,0,0-.08.64,2.8,2.8,0,0,0,.08.64,1.91,1.91,0,0,0,.26.56,1.21,1.21,0,0,0,.44.4A1.18,1.18,0,0,0,20.22,282.8Z"/><path class="cls-3" d="M28.25,283.27a2.12,2.12,0,0,1-.63,1.68,2.65,2.65,0,0,1-1.81.55,3.91,3.91,0,0,1-.76-.07,2.59,2.59,0,0,1-.69-.26,1.77,1.77,0,0,1-.53-.49,1.51,1.51,0,0,1-.25-.73h1.1a1,1,0,0,0,.16.38.85.85,0,0,0,.28.22,1,1,0,0,0,.35.11,2.61,2.61,0,0,0,.4,0,1.33,1.33,0,0,0,1-.32,1.37,1.37,0,0,0,.3-.95v-.76h0a1.74,1.74,0,0,1-.64.65,1.7,1.7,0,0,1-.86.23,2.25,2.25,0,0,1-1-.21,2,2,0,0,1-.7-.57,2.27,2.27,0,0,1-.39-.83,3.63,3.63,0,0,1-.13-1,3,3,0,0,1,.15-1,2.51,2.51,0,0,1,.45-.8,2.19,2.19,0,0,1,.7-.54,2.1,2.1,0,0,1,.95-.2,1.92,1.92,0,0,1,.87.19,1.43,1.43,0,0,1,.61.63h0v-.69h1.1Zm-2.43-.61a1.21,1.21,0,0,0,.62-.15,1.18,1.18,0,0,0,.41-.39,1.74,1.74,0,0,0,.23-.56,2.7,2.7,0,0,0,.07-.63,2.56,2.56,0,0,0-.07-.62,1.6,1.6,0,0,0-.24-.53,1.1,1.1,0,0,0-.41-.36,1.31,1.31,0,0,0-.61-.14,1.19,1.19,0,0,0-.62.16,1.1,1.1,0,0,0-.4.4,1.65,1.65,0,0,0-.23.56,3.18,3.18,0,0,0-.06.62,2.46,2.46,0,0,0,.07.6,1.77,1.77,0,0,0,.24.52,1.32,1.32,0,0,0,.4.38A1.27,1.27,0,0,0,25.82,282.66Z"/><path class="cls-3" d="M31.64,283.66a2.71,2.71,0,0,1-1.06-.19,2.38,2.38,0,0,1-.79-.55,2.15,2.15,0,0,1-.49-.83,3.33,3.33,0,0,1,0-2.1,2.23,2.23,0,0,1,.49-.83,2.38,2.38,0,0,1,.79-.55,3.05,3.05,0,0,1,2.12,0,2.28,2.28,0,0,1,.79.55A2.23,2.23,0,0,1,34,280a3.33,3.33,0,0,1,0,2.1,2.15,2.15,0,0,1-.49.83,2.28,2.28,0,0,1-.79.55A2.71,2.71,0,0,1,31.64,283.66Zm0-.86a1.22,1.22,0,0,0,.64-.16,1.3,1.3,0,0,0,.44-.4,1.88,1.88,0,0,0,.25-.56,2.35,2.35,0,0,0,.09-.64,2.3,2.3,0,0,0-.09-.64,1.68,1.68,0,0,0-.25-.56,1.3,1.3,0,0,0-.44-.4,1.36,1.36,0,0,0-1.28,0,1.4,1.4,0,0,0-.44.4,1.68,1.68,0,0,0-.25.56,2.29,2.29,0,0,0-.08.64,2.34,2.34,0,0,0,.08.64,1.88,1.88,0,0,0,.25.56,1.4,1.4,0,0,0,.44.4A1.22,1.22,0,0,0,31.64,282.8Z"/><path class="cls-3" d="M37,276.49h1.05l-2.76,7.2h-1Z"/><path class="cls-3" d="M42.62,282.42a.52.52,0,0,0,.06.29.2.2,0,0,0,.2.09H43l.15,0v.76l-.15,0-.18.05-.2,0h-.16a1.08,1.08,0,0,1-.56-.13.69.69,0,0,1-.29-.47,2,2,0,0,1-.8.46,3,3,0,0,1-.92.14,2.37,2.37,0,0,1-.65-.09,1.71,1.71,0,0,1-.54-.27,1.24,1.24,0,0,1-.37-.45,1.31,1.31,0,0,1-.14-.64,1.49,1.49,0,0,1,.16-.75,1.29,1.29,0,0,1,.45-.45,2,2,0,0,1,.61-.24c.23,0,.46-.08.69-.11a4.1,4.1,0,0,1,.57-.08l.48-.08a.77.77,0,0,0,.32-.18.49.49,0,0,0,.12-.36.56.56,0,0,0-.1-.35.64.64,0,0,0-.25-.21,1.15,1.15,0,0,0-.33-.09l-.35,0a1.39,1.39,0,0,0-.76.2.7.7,0,0,0-.33.59h-1.1a1.75,1.75,0,0,1,.23-.8,1.65,1.65,0,0,1,.51-.51,2.62,2.62,0,0,1,.71-.27,4.36,4.36,0,0,1,.81-.07,3.38,3.38,0,0,1,.72.07,2.44,2.44,0,0,1,.64.25,1.52,1.52,0,0,1,.46.45,1.22,1.22,0,0,1,.17.67ZM41.53,281a1.46,1.46,0,0,1-.62.19l-.73.1a1.89,1.89,0,0,0-.34.09,1,1,0,0,0-.29.14.57.57,0,0,0-.19.24.8.8,0,0,0-.08.36.47.47,0,0,0,.11.31.82.82,0,0,0,.25.2,1.15,1.15,0,0,0,.33.1l.32,0a1.9,1.9,0,0,0,.4-.05,1.52,1.52,0,0,0,.4-.16,1.11,1.11,0,0,0,.31-.3.76.76,0,0,0,.13-.44Z"/><path class="cls-3" d="M43.81,278.55h1v.7h0a1.84,1.84,0,0,1,.27-.34,1.35,1.35,0,0,1,.32-.26,1.53,1.53,0,0,1,.41-.17,2.09,2.09,0,0,1,.53-.06,1.74,1.74,0,0,1,.84.2,1.11,1.11,0,0,1,.55.63,2.21,2.21,0,0,1,.65-.61,1.7,1.7,0,0,1,.91-.22,1.83,1.83,0,0,1,1.23.38,1.66,1.66,0,0,1,.44,1.29v3.44h-1.1v-2.91c0-.2,0-.38,0-.54a1.09,1.09,0,0,0-.11-.43.64.64,0,0,0-.27-.27,1.18,1.18,0,0,0-.51-.1.91.91,0,0,0-.8.35,1.63,1.63,0,0,0-.25,1v2.92h-1.1v-3.2a1.3,1.3,0,0,0-.19-.78.77.77,0,0,0-.69-.27,1,1,0,0,0-.41.09,1,1,0,0,0-.34.25,1.22,1.22,0,0,0-.24.4,1.58,1.58,0,0,0-.1.55v3H43.81Z"/><path class="cls-3" d="M52.21,276.66h1.1v2.54h0a1.44,1.44,0,0,1,.28-.33,1.78,1.78,0,0,1,.36-.25,2.86,2.86,0,0,1,.41-.15,1.63,1.63,0,0,1,.43-.05,2.47,2.47,0,0,1,1,.2,2,2,0,0,1,.73.57A2.59,2.59,0,0,1,57,280a3.88,3.88,0,0,1,.14,1,3.56,3.56,0,0,1-.13,1,2.56,2.56,0,0,1-.4.83,2,2,0,0,1-.66.58,2.06,2.06,0,0,1-1,.21l-.5,0a2.09,2.09,0,0,1-.49-.13,1.79,1.79,0,0,1-.42-.25,1.26,1.26,0,0,1-.31-.4h0v.68h-1ZM56,281.05a2.84,2.84,0,0,0-.08-.66,1.92,1.92,0,0,0-.26-.56,1.3,1.3,0,0,0-.44-.4,1.15,1.15,0,0,0-.59-.15,1.2,1.2,0,0,0-1.05.49,2.14,2.14,0,0,0-.35,1.28,2.5,2.5,0,0,0,.09.69,1.48,1.48,0,0,0,.28.56,1.36,1.36,0,0,0,.43.36,1.27,1.27,0,0,0,.6.14,1.14,1.14,0,0,0,.63-.16,1.27,1.27,0,0,0,.43-.4,1.67,1.67,0,0,0,.24-.56A2.65,2.65,0,0,0,56,281.05Z"/><path class="cls-3" d="M58.09,276.66h1.1v6.87h-1.1Z"/><path class="cls-3" d="M61.24,281.32a2,2,0,0,0,.08.56,1.41,1.41,0,0,0,.25.47,1.11,1.11,0,0,0,.41.33,1.4,1.4,0,0,0,.6.12,1.28,1.28,0,0,0,.77-.21,1.21,1.21,0,0,0,.44-.62h1a2.11,2.11,0,0,1-.3.72,2,2,0,0,1-1.18.86,2.43,2.43,0,0,1-.77.11,2.61,2.61,0,0,1-1-.19,2.15,2.15,0,0,1-1.24-1.37,3.5,3.5,0,0,1-.16-1.05,3.06,3.06,0,0,1,.17-1,2.49,2.49,0,0,1,.48-.84,2.27,2.27,0,0,1,.76-.57,2.29,2.29,0,0,1,1-.21,2.26,2.26,0,0,1,1.05.24,2.47,2.47,0,0,1,.78.65,2.87,2.87,0,0,1,.45.93,3,3,0,0,1,.07,1.08Zm2.56-.72a1.72,1.72,0,0,0-.11-.5,1.27,1.27,0,0,0-.25-.42,1.28,1.28,0,0,0-.39-.29,1.15,1.15,0,0,0-.5-.11,1.32,1.32,0,0,0-.53.11,1.23,1.23,0,0,0-.4.27,1.43,1.43,0,0,0-.38.94Z"/><path class="cls-3" d="M65.74,278.55h1v.7h0a3.37,3.37,0,0,1,.27-.34,1.64,1.64,0,0,1,.33-.26,1.46,1.46,0,0,1,.4-.17,2.2,2.2,0,0,1,.53-.06,1.75,1.75,0,0,1,.85.2,1.11,1.11,0,0,1,.55.63,2.21,2.21,0,0,1,.65-.61,1.68,1.68,0,0,1,.91-.22,1.85,1.85,0,0,1,1.23.38,1.66,1.66,0,0,1,.43,1.29v3.44H71.86v-2.91c0-.2,0-.38,0-.54a1.09,1.09,0,0,0-.11-.43.61.61,0,0,0-.28-.27,1.13,1.13,0,0,0-.5-.1.94.94,0,0,0-.81.35,1.71,1.71,0,0,0-.25,1v2.92H68.8v-3.2a1.38,1.38,0,0,0-.19-.78.8.8,0,0,0-.69-.27,1,1,0,0,0-.41.09,1.07,1.07,0,0,0-.35.25,1.22,1.22,0,0,0-.24.4,1.59,1.59,0,0,0-.09.55v3H65.74Z"/><path class="cls-3" d="M77.73,281.24a1.54,1.54,0,0,0,.13.67,1.22,1.22,0,0,0,.38.46,1.64,1.64,0,0,0,.55.26,3,3,0,0,0,.68.08,2.29,2.29,0,0,0,.68-.09,1.37,1.37,0,0,0,.45-.24.81.81,0,0,0,.25-.33,1,1,0,0,0,.08-.38.81.81,0,0,0-.18-.58,1.1,1.1,0,0,0-.39-.27c-.25-.09-.53-.17-.85-.25l-1.2-.31a2.54,2.54,0,0,1-.74-.31,1.61,1.61,0,0,1-.47-.42,1.49,1.49,0,0,1-.24-.49,2,2,0,0,1,.14-1.43,2.05,2.05,0,0,1,.58-.63,2.56,2.56,0,0,1,.8-.37,3.65,3.65,0,0,1,1.93,0,2.37,2.37,0,0,1,.84.42,2.11,2.11,0,0,1,.57.69,1.93,1.93,0,0,1,.22.95H80.73a1.14,1.14,0,0,0-.45-.94,1.81,1.81,0,0,0-1-.28,2.1,2.1,0,0,0-.43,0,1.32,1.32,0,0,0-.41.14.89.89,0,0,0-.3.28.73.73,0,0,0-.12.43.71.71,0,0,0,.23.57,1.38,1.38,0,0,0,.59.31l.3.09.59.16.64.16.45.12a2,2,0,0,1,.59.29,2.09,2.09,0,0,1,.42.42,1.81,1.81,0,0,1,.33,1.05,1.9,1.9,0,0,1-.24,1,1.82,1.82,0,0,1-.62.67,2.74,2.74,0,0,1-.87.38,4.35,4.35,0,0,1-2.11,0,2.67,2.67,0,0,1-.91-.45,2.1,2.1,0,0,1-.61-.76,2.38,2.38,0,0,1-.24-1.1Z"/><path class="cls-3" d="M85.31,283.66a2.76,2.76,0,0,1-1.07-.19,2.49,2.49,0,0,1-.79-.55,2.29,2.29,0,0,1-.49-.83,3.33,3.33,0,0,1,0-2.1,2.37,2.37,0,0,1,.49-.83,2.49,2.49,0,0,1,.79-.55,3.08,3.08,0,0,1,2.13,0,2.49,2.49,0,0,1,.79.55,2.37,2.37,0,0,1,.49.83,3.33,3.33,0,0,1,0,2.1,2.29,2.29,0,0,1-.49.83,2.49,2.49,0,0,1-.79.55A2.74,2.74,0,0,1,85.31,283.66Zm0-.86a1.18,1.18,0,0,0,.63-.16,1.21,1.21,0,0,0,.44-.4,1.91,1.91,0,0,0,.26-.56,2.8,2.8,0,0,0,.08-.64,2.74,2.74,0,0,0-.08-.64,1.7,1.7,0,0,0-.26-.56,1.21,1.21,0,0,0-.44-.4,1.34,1.34,0,0,0-1.27,0,1.21,1.21,0,0,0-.44.4,1.7,1.7,0,0,0-.26.56,2.74,2.74,0,0,0-.08.64,2.8,2.8,0,0,0,.08.64,1.91,1.91,0,0,0,.26.56,1.21,1.21,0,0,0,.44.4A1.19,1.19,0,0,0,85.31,282.8Z"/><path class="cls-3" d="M88.76,276.66h1.1v6.87h-1.1Z"/><path class="cls-3" d="M91.08,276.66h1.1v1h-1.1Zm0,1.89h1.1v5h-1.1Z"/><path class="cls-3" d="M98.06,283.53H97v-.68h0a1.35,1.35,0,0,1-.64.63,2.33,2.33,0,0,1-.9.18,2.47,2.47,0,0,1-1-.2,2,2,0,0,1-.73-.57,2.23,2.23,0,0,1-.43-.84,3.49,3.49,0,0,1-.15-1,3.43,3.43,0,0,1,.18-1.17,2.69,2.69,0,0,1,.49-.81,1.86,1.86,0,0,1,.69-.46,2.22,2.22,0,0,1,.8-.15,2.56,2.56,0,0,1,.47,0,2.44,2.44,0,0,1,.46.14,1.73,1.73,0,0,1,.41.25,1.17,1.17,0,0,1,.31.35h0v-2.54h1.1Zm-3.83-2.44a2.65,2.65,0,0,0,.08.63,1.72,1.72,0,0,0,.25.55,1.26,1.26,0,0,0,1,.53,1.19,1.19,0,0,0,.64-.16,1.27,1.27,0,0,0,.43-.4,2.18,2.18,0,0,0,.25-.56A2.8,2.8,0,0,0,97,281a2,2,0,0,0-.37-1.29,1.23,1.23,0,0,0-1-.47,1.33,1.33,0,0,0-.65.16,1.44,1.44,0,0,0-.43.42,1.81,1.81,0,0,0-.24.57A3,3,0,0,0,94.23,281.09Z"/><path class="cls-3" d="M102.08,276.66h5v1h-3.74v1.8h3.46v1h-3.46v2h3.81v1h-5Z"/><path class="cls-3" d="M108,276.66h1.1v6.87H108Z"/><path class="cls-3" d="M111.17,281.32a2,2,0,0,0,.08.56,1.41,1.41,0,0,0,.25.47,1.11,1.11,0,0,0,.41.33,1.4,1.4,0,0,0,.6.12,1.28,1.28,0,0,0,.77-.21,1.21,1.21,0,0,0,.44-.62h1a2.11,2.11,0,0,1-.3.72,2,2,0,0,1-1.18.86,2.43,2.43,0,0,1-.77.11,2.61,2.61,0,0,1-1-.19,2.15,2.15,0,0,1-1.24-1.37,3.21,3.21,0,0,1-.16-1.05,3.06,3.06,0,0,1,.17-1,2.49,2.49,0,0,1,.48-.84,2.27,2.27,0,0,1,.76-.57,2.29,2.29,0,0,1,1-.21,2.26,2.26,0,0,1,1,.24,2.47,2.47,0,0,1,.78.65,2.87,2.87,0,0,1,.45.93,3,3,0,0,1,.07,1.08Zm2.56-.72a1.72,1.72,0,0,0-.11-.5,1.27,1.27,0,0,0-.25-.42,1.42,1.42,0,0,0-.39-.29,1.15,1.15,0,0,0-.5-.11,1.32,1.32,0,0,0-.53.11,1.23,1.23,0,0,0-.4.27,1.43,1.43,0,0,0-.38.94Z"/><path class="cls-3" d="M119,280.22a1,1,0,0,0-.37-.7,1.17,1.17,0,0,0-.76-.24,1.53,1.53,0,0,0-.45.08,1,1,0,0,0-.45.27,1.55,1.55,0,0,0-.33.54,2.62,2.62,0,0,0-.14.92,3.27,3.27,0,0,0,.07.62,1.7,1.7,0,0,0,.24.55,1.24,1.24,0,0,0,.4.39,1.17,1.17,0,0,0,.61.15,1.12,1.12,0,0,0,.8-.3,1.43,1.43,0,0,0,.38-.84h1.1a2.43,2.43,0,0,1-.73,1.49,2.28,2.28,0,0,1-1.55.51,2.53,2.53,0,0,1-1-.19,2.49,2.49,0,0,1-.76-.54,2.45,2.45,0,0,1-.47-.82,3.3,3.3,0,0,1-.16-1,3.6,3.6,0,0,1,.16-1,2.49,2.49,0,0,1,.46-.85,2.21,2.21,0,0,1,.77-.57,2.69,2.69,0,0,1,1.07-.2,2.75,2.75,0,0,1,.82.11,2.15,2.15,0,0,1,.7.33,1.81,1.81,0,0,1,.72,1.36Z"/><path class="cls-3" d="M120.52,278.55h.82v-1.49h1.1v1.49h1v.82h-1V282a2.66,2.66,0,0,0,0,.3.65.65,0,0,0,.06.21.34.34,0,0,0,.16.13.78.78,0,0,0,.29,0h.23l.23,0v.85l-.35,0-.36,0a2.64,2.64,0,0,1-.7-.08,1,1,0,0,1-.41-.25.73.73,0,0,1-.2-.4,2.83,2.83,0,0,1-.07-.54v-2.94h-.82Z"/><path class="cls-3" d="M124.22,278.55h1v1h0a1.13,1.13,0,0,1,.19-.4,1.61,1.61,0,0,1,.34-.35,1.7,1.7,0,0,1,.43-.26,1.43,1.43,0,0,1,.5-.09H127l.15,0v1.06l-.24,0h-.23a1.2,1.2,0,0,0-.53.11,1.31,1.31,0,0,0-.43.32,1.72,1.72,0,0,0-.28.54,2.08,2.08,0,0,0-.11.73v2.37h-1.1Z"/><path class="cls-3" d="M129.72,283.66a2.71,2.71,0,0,1-1.06-.19,2.28,2.28,0,0,1-.79-.55,2.15,2.15,0,0,1-.49-.83,3.33,3.33,0,0,1,0-2.1,2.23,2.23,0,0,1,.49-.83,2.28,2.28,0,0,1,.79-.55,3.05,3.05,0,0,1,2.12,0,2.38,2.38,0,0,1,.79.55,2.23,2.23,0,0,1,.49.83,3.33,3.33,0,0,1,0,2.1,2.15,2.15,0,0,1-.49.83,2.38,2.38,0,0,1-.79.55A2.71,2.71,0,0,1,129.72,283.66Zm0-.86a1.18,1.18,0,0,0,.63-.16,1.33,1.33,0,0,0,.45-.4,1.88,1.88,0,0,0,.25-.56,2.34,2.34,0,0,0,.08-.64,2.29,2.29,0,0,0-.08-.64,1.68,1.68,0,0,0-.25-.56,1.33,1.33,0,0,0-.45-.4,1.28,1.28,0,0,0-.63-.16,1.32,1.32,0,0,0-.64.16,1.3,1.3,0,0,0-.44.4,1.68,1.68,0,0,0-.25.56,2.3,2.3,0,0,0-.09.64,2.35,2.35,0,0,0,.09.64,1.88,1.88,0,0,0,.25.56,1.3,1.3,0,0,0,.44.4A1.22,1.22,0,0,0,129.72,282.8Z"/><path class="cls-3" d="M133.15,278.55h1v.75a2,2,0,0,1,.66-.65,1.82,1.82,0,0,1,.89-.23,1.86,1.86,0,0,1,1.29.42,1.61,1.61,0,0,1,.48,1.27v3.42h-1.1V280.4a1.34,1.34,0,0,0-.25-.85.91.91,0,0,0-.72-.27,1.12,1.12,0,0,0-.5.11,1.05,1.05,0,0,0-.38.27,1.46,1.46,0,0,0-.33.93v2.94h-1.09Z"/><path class="cls-3" d="M141.5,276.66h1.2v3.12l3.07-3.12h1.48l-2.75,2.74,2.94,4.13h-1.5l-2.25-3.28-1,1v2.31h-1.2Z"/><path class="cls-3" d="M150.22,283.66a2.71,2.71,0,0,1-1.06-.19,2.38,2.38,0,0,1-.79-.55,2.15,2.15,0,0,1-.49-.83,3.33,3.33,0,0,1,0-2.1,2.23,2.23,0,0,1,.49-.83,2.38,2.38,0,0,1,.79-.55,2.71,2.71,0,0,1,1.06-.19,2.8,2.8,0,0,1,1.07.19,2.49,2.49,0,0,1,.79.55,2.53,2.53,0,0,1,.49.83,3.53,3.53,0,0,1,0,2.1,2.43,2.43,0,0,1-.49.83,2.49,2.49,0,0,1-.79.55A2.8,2.8,0,0,1,150.22,283.66Zm0-.86a1.19,1.19,0,0,0,.64-.16,1.21,1.21,0,0,0,.44-.4,1.91,1.91,0,0,0,.26-.56,2.8,2.8,0,0,0,.08-.64,2.74,2.74,0,0,0-.08-.64,1.7,1.7,0,0,0-.26-.56,1.21,1.21,0,0,0-.44-.4,1.34,1.34,0,0,0-1.27,0,1.33,1.33,0,0,0-.45.4,1.68,1.68,0,0,0-.25.56,2.29,2.29,0,0,0-.08.64,2.34,2.34,0,0,0,.08.64,1.88,1.88,0,0,0,.25.56,1.33,1.33,0,0,0,.45.4A1.18,1.18,0,0,0,150.22,282.8Z"/><path class="cls-3" d="M153.65,278.55h1v.73l0,0a1.92,1.92,0,0,1,.65-.65,1.83,1.83,0,0,1,.9-.23,1.89,1.89,0,0,1,1.29.42,1.64,1.64,0,0,1,.47,1.27v3.42h-1.1V280.4a1.28,1.28,0,0,0-.25-.85.89.89,0,0,0-.72-.27,1.23,1.23,0,0,0-.88.38,1.44,1.44,0,0,0-.24.42,1.7,1.7,0,0,0-.08.51v2.94h-1.1Z"/><path class="cls-3" d="M158.67,278.55h.83v-1.49h1.1v1.49h1v.82h-1V282a2.81,2.81,0,0,0,0,.3.65.65,0,0,0,.07.21.34.34,0,0,0,.16.13.78.78,0,0,0,.29,0h.23l.23,0v.85l-.36,0-.35,0a2.64,2.64,0,0,1-.7-.08.92.92,0,0,1-.41-.25.81.81,0,0,1-.21-.4,4,4,0,0,1-.06-.54v-2.94h-.83Z"/><path class="cls-3" d="M162.38,278.55h1v1h0a1,1,0,0,1,.19-.4,1.56,1.56,0,0,1,.33-.35,1.76,1.76,0,0,1,.44-.26,1.41,1.41,0,0,1,.49-.09h.27l.15,0v1.06l-.24,0h-.24a1.16,1.16,0,0,0-.52.11,1.21,1.21,0,0,0-.43.32,1.74,1.74,0,0,0-.29.54,2.34,2.34,0,0,0-.1.73v2.37h-1.1Z"/><path class="cls-3" d="M167.88,283.66a2.76,2.76,0,0,1-1.07-.19,2.49,2.49,0,0,1-.79-.55,2.29,2.29,0,0,1-.49-.83,3.33,3.33,0,0,1,0-2.1,2.37,2.37,0,0,1,.49-.83,2.49,2.49,0,0,1,.79-.55,3.08,3.08,0,0,1,2.13,0,2.49,2.49,0,0,1,.79.55,2.37,2.37,0,0,1,.49.83,3.33,3.33,0,0,1,0,2.1,2.29,2.29,0,0,1-.49.83,2.49,2.49,0,0,1-.79.55A2.74,2.74,0,0,1,167.88,283.66Zm0-.86a1.18,1.18,0,0,0,.63-.16,1.21,1.21,0,0,0,.44-.4,1.91,1.91,0,0,0,.26-.56,2.8,2.8,0,0,0,.08-.64,2.74,2.74,0,0,0-.08-.64,1.7,1.7,0,0,0-.26-.56,1.21,1.21,0,0,0-.44-.4,1.34,1.34,0,0,0-1.27,0,1.21,1.21,0,0,0-.44.4,1.7,1.7,0,0,0-.26.56,2.74,2.74,0,0,0-.08.64,2.8,2.8,0,0,0,.08.64,1.91,1.91,0,0,0,.26.56,1.21,1.21,0,0,0,.44.4A1.19,1.19,0,0,0,167.88,282.8Z"/><path class="cls-3" d="M171.33,276.66h1.1v6.87h-1.1Z"/><path class="cls-3" d="M175.8,276.66h5.56v1h-2.18v5.83H178V277.7H175.8Z"/><path class="cls-3" d="M181.79,281.32a1.73,1.73,0,0,0,.09.56,1.23,1.23,0,0,0,.24.47,1.14,1.14,0,0,0,.42.33,1.54,1.54,0,0,0,1.37-.09,1.27,1.27,0,0,0,.44-.62h1a2.11,2.11,0,0,1-.3.72,2.18,2.18,0,0,1-.51.54,2.3,2.3,0,0,1-.67.32,2.54,2.54,0,0,1-.78.11,2.64,2.64,0,0,1-1-.19,2.19,2.19,0,0,1-.76-.54,2.12,2.12,0,0,1-.47-.83,3.21,3.21,0,0,1-.16-1.05,2.82,2.82,0,0,1,.17-1,2.49,2.49,0,0,1,.48-.84,2.24,2.24,0,0,1,1.75-.78,2.27,2.27,0,0,1,1.06.24,2.32,2.32,0,0,1,.77.65,2.52,2.52,0,0,1,.45.93,2.8,2.8,0,0,1,.07,1.08Zm2.57-.72a2.13,2.13,0,0,0-.11-.5,1.49,1.49,0,0,0-.26-.42,1.24,1.24,0,0,0-.38-.29,1.19,1.19,0,0,0-.51-.11,1.27,1.27,0,0,0-.52.11,1.13,1.13,0,0,0-.4.27,1.17,1.17,0,0,0-.27.42,1.52,1.52,0,0,0-.12.52Z"/><path class="cls-3" d="M186.32,276.66h1.1v3.9l2-2h1.35l-1.91,1.83,2.09,3.15h-1.34l-1.52-2.42-.65.64v1.78h-1.1Z"/><path class="cls-3" d="M191.46,278.55h1v.73l0,0a1.92,1.92,0,0,1,.65-.65,1.83,1.83,0,0,1,.9-.23,1.89,1.89,0,0,1,1.29.42,1.64,1.64,0,0,1,.47,1.27v3.42h-1.1V280.4a1.28,1.28,0,0,0-.25-.85.89.89,0,0,0-.72-.27,1.23,1.23,0,0,0-.88.38,1.44,1.44,0,0,0-.24.42,1.7,1.7,0,0,0-.08.51v2.94h-1.1Z"/><path class="cls-3" d="M199.27,283.66a2.76,2.76,0,0,1-1.07-.19,2.49,2.49,0,0,1-.79-.55,2.29,2.29,0,0,1-.49-.83,3.33,3.33,0,0,1,0-2.1,2.37,2.37,0,0,1,.49-.83,2.49,2.49,0,0,1,.79-.55,3.08,3.08,0,0,1,2.13,0,2.49,2.49,0,0,1,.79.55,2.37,2.37,0,0,1,.49.83,3.33,3.33,0,0,1,0,2.1,2.29,2.29,0,0,1-.49.83,2.49,2.49,0,0,1-.79.55A2.74,2.74,0,0,1,199.27,283.66Zm0-.86a1.18,1.18,0,0,0,.63-.16,1.21,1.21,0,0,0,.44-.4,1.91,1.91,0,0,0,.26-.56,2.8,2.8,0,0,0,.08-.64,2.74,2.74,0,0,0-.08-.64,1.7,1.7,0,0,0-.26-.56,1.21,1.21,0,0,0-.44-.4,1.34,1.34,0,0,0-1.27,0,1.21,1.21,0,0,0-.44.4,1.7,1.7,0,0,0-.26.56,2.74,2.74,0,0,0-.08.64,2.8,2.8,0,0,0,.08.64,1.91,1.91,0,0,0,.26.56,1.21,1.21,0,0,0,.44.4A1.19,1.19,0,0,0,199.27,282.8Z"/><path class="cls-3" d="M202.72,276.66h1.1v6.87h-1.1Z"/><path class="cls-3" d="M207.29,283.66a2.74,2.74,0,0,1-1.06-.19,2.49,2.49,0,0,1-.79-.55,2.29,2.29,0,0,1-.49-.83,3.33,3.33,0,0,1,0-2.1,2.37,2.37,0,0,1,.49-.83,2.49,2.49,0,0,1,.79-.55,3.08,3.08,0,0,1,2.13,0,2.49,2.49,0,0,1,.79.55,2.37,2.37,0,0,1,.49.83,3.33,3.33,0,0,1,0,2.1,2.29,2.29,0,0,1-.49.83,2.49,2.49,0,0,1-.79.55A2.76,2.76,0,0,1,207.29,283.66Zm0-.86a1.19,1.19,0,0,0,.64-.16,1.21,1.21,0,0,0,.44-.4,1.91,1.91,0,0,0,.26-.56,2.8,2.8,0,0,0,.08-.64,2.74,2.74,0,0,0-.08-.64,1.7,1.7,0,0,0-.26-.56,1.21,1.21,0,0,0-.44-.4,1.34,1.34,0,0,0-1.27,0,1.21,1.21,0,0,0-.44.4,1.7,1.7,0,0,0-.26.56,2.74,2.74,0,0,0-.08.64,2.8,2.8,0,0,0,.08.64,1.91,1.91,0,0,0,.26.56,1.21,1.21,0,0,0,.44.4A1.18,1.18,0,0,0,207.29,282.8Z"/><path class="cls-3" d="M210.75,278.55h1.1V284a1.77,1.77,0,0,1-.33,1.15,1.33,1.33,0,0,1-1.1.4h-.27a.78.78,0,0,1-.22,0v-.86l.2,0h.18a.36.36,0,0,0,.37-.19,1.52,1.52,0,0,0,.07-.55Zm0-1.89h1.1v1h-1.1Z"/><path class="cls-3" d="M213.07,276.66h1.1v1h-1.1Zm0,1.89h1.1v5h-1.1Z"/><path class="cls-3" d="M215.39,276.66h1.1v6.87h-1.1Z"/><path class="cls-3" d="M218.54,281.32a1.73,1.73,0,0,0,.08.56,1.39,1.39,0,0,0,.24.47,1.14,1.14,0,0,0,.42.33,1.37,1.37,0,0,0,.6.12,1.3,1.3,0,0,0,.77-.21,1.21,1.21,0,0,0,.44-.62h1a2.11,2.11,0,0,1-.3.72,2,2,0,0,1-1.18.86,2.47,2.47,0,0,1-.77.11,2.57,2.57,0,0,1-1-.19,2.14,2.14,0,0,1-.77-.54,2.12,2.12,0,0,1-.47-.83,3.21,3.21,0,0,1-.16-1.05,3.06,3.06,0,0,1,.17-1,2.49,2.49,0,0,1,.48-.84,2.39,2.39,0,0,1,2.81-.54,2.47,2.47,0,0,1,.78.65,2.66,2.66,0,0,1,.44.93,2.8,2.8,0,0,1,.08,1.08Zm2.56-.72a2.13,2.13,0,0,0-.11-.5,1.46,1.46,0,0,0-.25-.42,1.42,1.42,0,0,0-.39-.29,1.18,1.18,0,0,0-.5-.11,1.29,1.29,0,0,0-.53.11,1.13,1.13,0,0,0-.4.27,1.51,1.51,0,0,0-.27.42,1.31,1.31,0,0,0-.11.52Z"/><path class="cls-3" d="M223,278.55h1v1h0a1.13,1.13,0,0,1,.19-.4,1.61,1.61,0,0,1,.34-.35,1.7,1.7,0,0,1,.43-.26,1.43,1.43,0,0,1,.5-.09h.26l.15,0v1.06l-.24,0h-.23a1.2,1.2,0,0,0-.53.11,1.31,1.31,0,0,0-.43.32,1.72,1.72,0,0,0-.28.54,2.33,2.33,0,0,0-.11.73v2.37H223Z"/><path class="cls-3" d="M226.45,276.66h1.1v1h-1.1Zm0,1.89h1.1v5h-1.1Z"/><path class="cls-3" d="M232.36,281.24a1.54,1.54,0,0,0,.14.67,1.11,1.11,0,0,0,.37.46,1.74,1.74,0,0,0,.55.26,3,3,0,0,0,.68.08,2.24,2.24,0,0,0,.68-.09,1.37,1.37,0,0,0,.45-.24.81.81,0,0,0,.25-.33,1,1,0,0,0,.08-.38.81.81,0,0,0-.18-.58,1.1,1.1,0,0,0-.39-.27c-.25-.09-.53-.17-.85-.25l-1.2-.31a2.54,2.54,0,0,1-.74-.31,1.74,1.74,0,0,1-.47-.42,1.49,1.49,0,0,1-.24-.49,2,2,0,0,1,.14-1.43,2.05,2.05,0,0,1,.58-.63,2.56,2.56,0,0,1,.8-.37,3.65,3.65,0,0,1,1.93,0,2.37,2.37,0,0,1,.84.42,2.11,2.11,0,0,1,.57.69,1.93,1.93,0,0,1,.22.95h-1.21a1.14,1.14,0,0,0-.45-.94,1.81,1.81,0,0,0-1-.28,2.18,2.18,0,0,0-.43,0,1.42,1.42,0,0,0-.41.14.89.89,0,0,0-.3.28.73.73,0,0,0-.12.43.75.75,0,0,0,.23.57,1.38,1.38,0,0,0,.59.31l.3.09.59.16.64.16.45.12a2,2,0,0,1,.59.29,1.86,1.86,0,0,1,.42.42,1.81,1.81,0,0,1,.33,1.05,1.9,1.9,0,0,1-.24,1,1.82,1.82,0,0,1-.62.67,2.74,2.74,0,0,1-.87.38,4.21,4.21,0,0,1-1,.12,4.38,4.38,0,0,1-1.11-.14,2.67,2.67,0,0,1-.91-.45,2.1,2.1,0,0,1-.61-.76,2.38,2.38,0,0,1-.24-1.1Z"/><path class="cls-3" d="M241.82,282.42a.52.52,0,0,0,.06.29.2.2,0,0,0,.2.09h.12l.15,0v.76l-.15,0-.19.05-.19,0h-.16a1.06,1.06,0,0,1-.56-.13.69.69,0,0,1-.29-.47,2,2,0,0,1-.8.46,3.07,3.07,0,0,1-.92.14,2.32,2.32,0,0,1-.65-.09,1.71,1.71,0,0,1-.54-.27,1.38,1.38,0,0,1-.38-.45,1.44,1.44,0,0,1-.14-.64,1.49,1.49,0,0,1,.17-.75A1.29,1.29,0,0,1,238,281a1.94,1.94,0,0,1,.61-.24c.23,0,.46-.08.69-.11a4.1,4.1,0,0,1,.57-.08,4.13,4.13,0,0,0,.47-.08.75.75,0,0,0,.33-.18.49.49,0,0,0,.12-.36.56.56,0,0,0-.1-.35.72.72,0,0,0-.25-.21,1.15,1.15,0,0,0-.33-.09l-.35,0a1.36,1.36,0,0,0-.76.2.7.7,0,0,0-.33.59h-1.1a1.64,1.64,0,0,1,.23-.8,1.55,1.55,0,0,1,.51-.51,2.62,2.62,0,0,1,.71-.27,4.28,4.28,0,0,1,.81-.07,3.51,3.51,0,0,1,.72.07,2.44,2.44,0,0,1,.64.25,1.52,1.52,0,0,1,.46.45,1.31,1.31,0,0,1,.17.67ZM240.73,281a1.46,1.46,0,0,1-.62.19l-.73.1a1.89,1.89,0,0,0-.34.09.87.87,0,0,0-.29.14.68.68,0,0,0-.2.24,1,1,0,0,0-.07.36.47.47,0,0,0,.11.31.82.82,0,0,0,.25.2,1.15,1.15,0,0,0,.33.1l.32,0a2,2,0,0,0,.4-.05,1.52,1.52,0,0,0,.4-.16,1.11,1.11,0,0,0,.31-.3.76.76,0,0,0,.13-.44Z"/><path class="cls-3" d="M243,278.55h1v.75a2,2,0,0,1,.66-.65,1.82,1.82,0,0,1,.89-.23,1.86,1.86,0,0,1,1.29.42,1.61,1.61,0,0,1,.48,1.27v3.42h-1.1V280.4a1.34,1.34,0,0,0-.25-.85.9.9,0,0,0-.72-.27,1.12,1.12,0,0,0-.5.11,1.05,1.05,0,0,0-.38.27,1.46,1.46,0,0,0-.33.93v2.94H243Z"/><path class="cls-3" d="M248.62,282.23H250v1.3h-1.34Z"/><path class="cls-3" d="M253.39,278.55h1.2l1.26,3.82h0l1.21-3.82h1.14l-1.79,5H255.2Z"/><path class="cls-3" d="M259.74,281.32a1.73,1.73,0,0,0,.08.56,1.23,1.23,0,0,0,.24.47,1.14,1.14,0,0,0,.42.33,1.54,1.54,0,0,0,1.37-.09,1.27,1.27,0,0,0,.44-.62h1a2.11,2.11,0,0,1-.3.72,2,2,0,0,1-1.18.86,2.86,2.86,0,0,1-1.81-.08,2.14,2.14,0,0,1-.77-.54,2.12,2.12,0,0,1-.47-.83,3.21,3.21,0,0,1-.16-1.05,3.06,3.06,0,0,1,.17-1,2.49,2.49,0,0,1,.48-.84,2.24,2.24,0,0,1,1.76-.78,2.26,2.26,0,0,1,1.05.24,2.32,2.32,0,0,1,.77.65,2.52,2.52,0,0,1,.45.93,2.61,2.61,0,0,1,.07,1.08Zm2.56-.72a2.13,2.13,0,0,0-.11-.5,1.46,1.46,0,0,0-.25-.42,1.42,1.42,0,0,0-.39-.29,1.18,1.18,0,0,0-.5-.11,1.29,1.29,0,0,0-.53.11,1.13,1.13,0,0,0-.4.27,1.17,1.17,0,0,0-.27.42,1.31,1.31,0,0,0-.11.52Z"/><path class="cls-3" d="M266.41,276.66H272v1h-2.18v5.83h-1.21V277.7h-2.17Z"/><path class="cls-3" d="M272.65,276.66h1.09v1h-1.09Zm0,1.89h1.09v5h-1.09Z"/><path class="cls-3" d="M278.3,280.22a1,1,0,0,0-.38-.7,1.17,1.17,0,0,0-.76-.24,1.53,1.53,0,0,0-.45.08,1,1,0,0,0-.45.27,1.55,1.55,0,0,0-.33.54,2.62,2.62,0,0,0-.14.92,3.27,3.27,0,0,0,.07.62,1.7,1.7,0,0,0,.24.55,1.24,1.24,0,0,0,.4.39,1.17,1.17,0,0,0,.61.15,1.12,1.12,0,0,0,.8-.3,1.5,1.5,0,0,0,.39-.84h1.09a2.43,2.43,0,0,1-.73,1.49,2.28,2.28,0,0,1-1.55.51,2.56,2.56,0,0,1-1-.19,2.49,2.49,0,0,1-.76-.54,2.45,2.45,0,0,1-.47-.82,3.31,3.31,0,0,1-.15-1,3.6,3.6,0,0,1,.15-1,2.49,2.49,0,0,1,.46-.85,2.21,2.21,0,0,1,.77-.57,2.69,2.69,0,0,1,1.07-.2,2.75,2.75,0,0,1,.82.11,2.15,2.15,0,0,1,.7.33,1.81,1.81,0,0,1,.72,1.36Z"/><path class="cls-3" d="M280.37,282.23h1.34v1.3h-1.34Z"/><path class="cls-3" d="M287.63,276.66h1.28l2.65,6.87h-1.29l-.64-1.82h-2.75l-.64,1.82H285Zm-.42,4.14h2.1l-1-3h0Z"/><path class="cls-3" d="M292.15,282.23h1.34v1.3h-1.34Z"/><path class="cls-3" d="M295.66,285.07a1.74,1.74,0,0,0,.32.11,1,1,0,0,0,.31,0h.2a.6.6,0,0,0,.19-.06.33.33,0,0,0,.14-.12.31.31,0,0,0,.05-.2.3.3,0,0,0-.14-.28.53.53,0,0,0-.3-.09.64.64,0,0,0-.37.1l-.22-.18.54-.73a5,5,0,0,1-.58-.09,1.85,1.85,0,0,1-.69-.33,1.46,1.46,0,0,1-.46-.53,1.57,1.57,0,0,1-.18-.77h1.09a.84.84,0,0,0,.37.67,1.43,1.43,0,0,0,.76.2l.35,0a1.12,1.12,0,0,0,.37-.09.66.66,0,0,0,.29-.2.51.51,0,0,0,.1-.34.48.48,0,0,0-.16-.34,1,1,0,0,0-.37-.22,3.12,3.12,0,0,0-.51-.14l-.59-.13a4,4,0,0,1-.59-.16,1.75,1.75,0,0,1-.51-.26,1.22,1.22,0,0,1-.36-.42,1.33,1.33,0,0,1-.14-.63,1.16,1.16,0,0,1,.2-.68,1.52,1.52,0,0,1,.5-.44,2.43,2.43,0,0,1,.67-.24,4.53,4.53,0,0,1,.71-.06,3,3,0,0,1,.74.08,2,2,0,0,1,.63.26,1.52,1.52,0,0,1,.71,1.19h-1.14a.71.71,0,0,0-.36-.53,1.51,1.51,0,0,0-.65-.14l-.28,0a1.67,1.67,0,0,0-.3.08.51.51,0,0,0-.23.15.34.34,0,0,0-.1.26.42.42,0,0,0,.14.33,1.16,1.16,0,0,0,.37.21,4.6,4.6,0,0,0,.51.14l.6.12c.2.05.39.1.59.17a1.75,1.75,0,0,1,.51.26,1.33,1.33,0,0,1,.37.41,1.29,1.29,0,0,1,.14.62,1.32,1.32,0,0,1-.21.75,1.66,1.66,0,0,1-.52.5,2.51,2.51,0,0,1-.72.28,3.17,3.17,0,0,1-.61.07l-.34.45h0a.28.28,0,0,1,.13,0h.19a.9.9,0,0,1,.28,0,.6.6,0,0,1,.26.14.7.7,0,0,1,.2.22.66.66,0,0,1,.07.32.73.73,0,0,1-.1.41.87.87,0,0,1-.27.27,1.11,1.11,0,0,1-.37.15,1.52,1.52,0,0,1-.42.06,2.33,2.33,0,0,1-.53-.06,1.41,1.41,0,0,1-.46-.17Z"/><path class="cls-3" d="M299.82,282.23h1.34v1.3h-1.34Z"/><path class="cls-3" d="M302.57,278.81a.57.57,0,0,0,.47-.29,1.28,1.28,0,0,0,.12-.56h-.59v-1.3h1.21V278a1.4,1.4,0,0,1-.33.94,1.32,1.32,0,0,1-.88.47Z"/><path class="cls-3" d="M304.54,278.55h1.2l1.3,3.72h0l1.26-3.72h1.14l-1.93,5.25c-.09.22-.18.44-.27.64a2.25,2.25,0,0,1-.31.55,1.43,1.43,0,0,1-.47.37,1.5,1.5,0,0,1-.71.14,4.77,4.77,0,0,1-.76-.06v-.92l.26,0a1.09,1.09,0,0,0,.26,0,.87.87,0,0,0,.31,0,.46.46,0,0,0,.21-.14.69.69,0,0,0,.14-.22,1.6,1.6,0,0,0,.11-.29l.12-.38Z"/><path class="cls-3" d="M310.94,281.32a1.73,1.73,0,0,0,.08.56,1.39,1.39,0,0,0,.24.47,1.14,1.14,0,0,0,.42.33,1.37,1.37,0,0,0,.6.12,1.3,1.3,0,0,0,.77-.21,1.21,1.21,0,0,0,.44-.62h1a2.11,2.11,0,0,1-.3.72,2,2,0,0,1-1.18.86,2.52,2.52,0,0,1-.77.11,2.57,2.57,0,0,1-1-.19,2.14,2.14,0,0,1-.77-.54,2.12,2.12,0,0,1-.47-.83,3.21,3.21,0,0,1-.16-1.05,3.06,3.06,0,0,1,.17-1,2.49,2.49,0,0,1,.48-.84,2.39,2.39,0,0,1,2.81-.54,2.47,2.47,0,0,1,.78.65,2.66,2.66,0,0,1,.44.93,2.8,2.8,0,0,1,.08,1.08Zm2.56-.72a2.13,2.13,0,0,0-.11-.5,1.46,1.46,0,0,0-.25-.42,1.42,1.42,0,0,0-.39-.29,1.18,1.18,0,0,0-.5-.11,1.29,1.29,0,0,0-.53.11,1.13,1.13,0,0,0-.4.27,1.51,1.51,0,0,0-.27.42,1.31,1.31,0,0,0-.11.52Z"/><path class="cls-3" d="M317.56,278.55h1.2l1.3,3.72h0l1.26-3.72h1.15l-1.94,5.25c-.09.22-.17.44-.26.64a2.27,2.27,0,0,1-.32.55,1.33,1.33,0,0,1-.47.37,1.47,1.47,0,0,1-.71.14,4.87,4.87,0,0,1-.76-.06v-.92l.26,0a1.09,1.09,0,0,0,.26,0,.93.93,0,0,0,.32,0,.6.6,0,0,0,.21-.14.93.93,0,0,0,.14-.22c0-.08.07-.18.1-.29l.13-.38Z"/><path class="cls-3" d="M324,281.32a2,2,0,0,0,.08.56,1.41,1.41,0,0,0,.25.47,1.2,1.2,0,0,0,.41.33,1.4,1.4,0,0,0,.6.12,1.28,1.28,0,0,0,.77-.21,1.16,1.16,0,0,0,.44-.62h1a2.11,2.11,0,0,1-.3.72,2,2,0,0,1-1.18.86,2.43,2.43,0,0,1-.77.11,2.61,2.61,0,0,1-1-.19,2.23,2.23,0,0,1-.77-.54,2.4,2.4,0,0,1-.47-.83,3.5,3.5,0,0,1-.16-1.05,3.06,3.06,0,0,1,.17-1,2.49,2.49,0,0,1,.48-.84,2.27,2.27,0,0,1,.76-.57,2.29,2.29,0,0,1,1-.21,2.26,2.26,0,0,1,1.05.24,2.36,2.36,0,0,1,.78.65,2.87,2.87,0,0,1,.45.93,3,3,0,0,1,.07,1.08Zm2.56-.72a1.72,1.72,0,0,0-.11-.5,1.27,1.27,0,0,0-.25-.42,1.37,1.37,0,0,0-.38-.29,1.23,1.23,0,0,0-.51-.11,1.24,1.24,0,0,0-.52.11,1.17,1.17,0,0,0-.41.27,1.43,1.43,0,0,0-.38.94Z"/><path class="cls-3" d="M328,278.55h.82v-1.49h1.1v1.49h1v.82h-1V282a2.66,2.66,0,0,0,0,.3.65.65,0,0,0,.06.21.34.34,0,0,0,.16.13.78.78,0,0,0,.29,0h.23l.23,0v.85l-.35,0-.36,0a2.64,2.64,0,0,1-.7-.08,1,1,0,0,1-.41-.25.73.73,0,0,1-.2-.4,2.83,2.83,0,0,1-.07-.54v-2.94H328Z"/><path class="cls-3" d="M331.69,276.66h1.1v3.9l2-2h1.35l-1.91,1.83,2.09,3.15H335l-1.52-2.42-.65.64v1.78h-1.1Z"/><path class="cls-3" d="M336.86,276.66H338v1h-1.1Zm0,1.89H338v5h-1.1Z"/><path class="cls-3" d="M339.18,276.66h1.1v6.87h-1.1Z"/><path class="cls-3" d="M341.5,276.66h1.1v1h-1.1Zm0,1.89h1.1v5h-1.1Z"/><path class="cls-3" d="M346.5,276.66h1.09v3.9l2-2h1.34l-1.9,1.83,2.09,3.15h-1.34l-1.52-2.42-.66.64v1.78H346.5Z"/><path class="cls-3" d="M356,283.53h-1.08v-.69h0a1.57,1.57,0,0,1-.6.6,1.66,1.66,0,0,1-.82.22,1.86,1.86,0,0,1-1.42-.48,2.17,2.17,0,0,1-.43-1.47v-3.16h1.09v3.05a1.4,1.4,0,0,0,.25.93.92.92,0,0,0,.71.27,1.35,1.35,0,0,0,.57-.11,1,1,0,0,0,.38-.28,1.33,1.33,0,0,0,.21-.43,2.35,2.35,0,0,0,.06-.54v-2.89H356Z"/><path class="cls-3" d="M357.16,278.55h1v1h0a1,1,0,0,1,.19-.4,1.56,1.56,0,0,1,.33-.35,2,2,0,0,1,.44-.26,1.41,1.41,0,0,1,.49-.09h.27l.15,0v1.06l-.24,0h-.23a1.17,1.17,0,0,0-.53.11,1.21,1.21,0,0,0-.43.32,1.74,1.74,0,0,0-.29.54,2.34,2.34,0,0,0-.1.73v2.37h-1.1Z"/><path class="cls-3" d="M364.92,283.53h-1.08v-.69h0a1.45,1.45,0,0,1-.6.6,1.65,1.65,0,0,1-.81.22,1.83,1.83,0,0,1-1.42-.48,2.12,2.12,0,0,1-.44-1.47v-3.16h1.1v3.05a1.35,1.35,0,0,0,.25.93.9.9,0,0,0,.7.27,1.43,1.43,0,0,0,.58-.11,1,1,0,0,0,.37-.28,1,1,0,0,0,.21-.43,2.35,2.35,0,0,0,.06-.54v-2.89h1.1Z"/><path class="cls-3" d="M366.07,278.55h1v.7h0a3.37,3.37,0,0,1,.27-.34,1.92,1.92,0,0,1,.32-.26,1.68,1.68,0,0,1,.41-.17,2.15,2.15,0,0,1,.53-.06,1.77,1.77,0,0,1,.85.2,1.11,1.11,0,0,1,.55.63,2.17,2.17,0,0,1,.64-.61,1.74,1.74,0,0,1,.92-.22,1.86,1.86,0,0,1,1.23.38,1.66,1.66,0,0,1,.43,1.29v3.44H372.2v-2.91c0-.2,0-.38,0-.54a1.29,1.29,0,0,0-.11-.43.66.66,0,0,0-.28-.27,1.13,1.13,0,0,0-.5-.1.94.94,0,0,0-.81.35,1.71,1.71,0,0,0-.25,1v2.92h-1.09v-3.2a1.38,1.38,0,0,0-.19-.78.8.8,0,0,0-.69-.27,1,1,0,0,0-.41.09,1.07,1.07,0,0,0-.35.25,1.22,1.22,0,0,0-.24.4,1.59,1.59,0,0,0-.09.55v3h-1.1Z"/><path class="cls-3" d="M376.62,278.55h.83v-1.49h1.1v1.49h1v.82h-1V282a2.81,2.81,0,0,0,0,.3.65.65,0,0,0,.07.21.34.34,0,0,0,.16.13.78.78,0,0,0,.29,0h.23l.23,0v.85l-.35,0-.36,0a2.64,2.64,0,0,1-.7-.08.92.92,0,0,1-.41-.25.81.81,0,0,1-.21-.4,4,4,0,0,1-.06-.54v-2.94h-.83Z"/><path class="cls-3" d="M384.5,282.42a.65.65,0,0,0,.05.29.23.23,0,0,0,.21.09h.11l.16,0v.76l-.15,0-.19.05-.19,0h-.17a1,1,0,0,1-.55-.13.66.66,0,0,1-.29-.47,2,2,0,0,1-.81.46,3,3,0,0,1-.92.14,2.3,2.3,0,0,1-.64-.09,1.52,1.52,0,0,1-.54-.27,1.27,1.27,0,0,1-.38-.45,1.44,1.44,0,0,1-.14-.64,1.49,1.49,0,0,1,.17-.75,1.27,1.27,0,0,1,.44-.45,2,2,0,0,1,.62-.24c.23,0,.46-.08.69-.11a4,4,0,0,1,.56-.08l.48-.08a.75.75,0,0,0,.33-.18.49.49,0,0,0,.12-.36.56.56,0,0,0-.1-.35.72.72,0,0,0-.25-.21,1.15,1.15,0,0,0-.33-.09l-.35,0a1.36,1.36,0,0,0-.76.2.74.74,0,0,0-.34.59h-1.1a1.64,1.64,0,0,1,.24-.8,1.55,1.55,0,0,1,.51-.51,2.5,2.5,0,0,1,.71-.27,4.28,4.28,0,0,1,.81-.07,3.51,3.51,0,0,1,.72.07,2.44,2.44,0,0,1,.64.25,1.52,1.52,0,0,1,.46.45,1.31,1.31,0,0,1,.17.67ZM383.4,281a1.41,1.41,0,0,1-.61.19l-.74.1a2,2,0,0,0-.33.09.87.87,0,0,0-.29.14.59.59,0,0,0-.2.24.8.8,0,0,0-.07.36.46.46,0,0,0,.1.31.86.86,0,0,0,.26.2,1.15,1.15,0,0,0,.33.1l.32,0a1.89,1.89,0,0,0,.39-.05,1.4,1.4,0,0,0,.4-.16,1.14,1.14,0,0,0,.32-.3.76.76,0,0,0,.12-.44Z"/><path class="cls-3" d="M385.68,278.55h1v1h0a1.13,1.13,0,0,1,.19-.4,1.41,1.41,0,0,1,.34-.35,1.7,1.7,0,0,1,.43-.26,1.43,1.43,0,0,1,.5-.09h.26l.15,0v1.06l-.24,0h-.23a1.2,1.2,0,0,0-.53.11,1.31,1.31,0,0,0-.43.32,1.72,1.72,0,0,0-.28.54,2.08,2.08,0,0,0-.11.73v2.37h-1.1Z"/><path class="cls-3" d="M393.24,282.42a.65.65,0,0,0,.05.29.23.23,0,0,0,.21.09h.11l.16,0v.76l-.15,0-.19.05-.19,0h-.16a1,1,0,0,1-.56-.13.66.66,0,0,1-.29-.47,2,2,0,0,1-.81.46,3,3,0,0,1-.92.14,2.3,2.3,0,0,1-.64-.09,1.52,1.52,0,0,1-.54-.27,1.27,1.27,0,0,1-.38-.45,1.44,1.44,0,0,1-.14-.64,1.49,1.49,0,0,1,.17-.75,1.27,1.27,0,0,1,.44-.45,2.11,2.11,0,0,1,.62-.24c.23,0,.46-.08.69-.11a4,4,0,0,1,.56-.08l.48-.08a.75.75,0,0,0,.33-.18.49.49,0,0,0,.12-.36.56.56,0,0,0-.1-.35.72.72,0,0,0-.25-.21,1.15,1.15,0,0,0-.33-.09l-.35,0a1.36,1.36,0,0,0-.76.2.74.74,0,0,0-.34.59H389a1.64,1.64,0,0,1,.24-.8,1.55,1.55,0,0,1,.51-.51,2.5,2.5,0,0,1,.71-.27,4.28,4.28,0,0,1,.81-.07,3.51,3.51,0,0,1,.72.07,2.44,2.44,0,0,1,.64.25,1.52,1.52,0,0,1,.46.45,1.31,1.31,0,0,1,.17.67Zm-1.1-1.38a1.41,1.41,0,0,1-.61.19l-.74.1-.33.09a.87.87,0,0,0-.29.14.59.59,0,0,0-.2.24.8.8,0,0,0-.07.36.46.46,0,0,0,.1.31,1,1,0,0,0,.26.2,1.15,1.15,0,0,0,.33.1l.32,0a1.89,1.89,0,0,0,.39-.05,1.4,1.4,0,0,0,.4-.16,1.14,1.14,0,0,0,.32-.3.76.76,0,0,0,.12-.44Z"/><path class="cls-3" d="M393.93,278.55h.82v-.41a2.07,2.07,0,0,1,.12-.77,1,1,0,0,1,.3-.45,1,1,0,0,1,.44-.21,2.24,2.24,0,0,1,.52,0,3.53,3.53,0,0,1,.77.06v.86l-.23,0-.28,0a.66.66,0,0,0-.38.11.45.45,0,0,0-.16.41v.51h.93v.82h-.93v4.16h-1.1v-4.16h-.82Z"/><path class="cls-3" d="M397.48,283.53v-5h1.1v5Z"/><path class="cls-3" d="M399.77,278.55h1v.73l0,0a2,2,0,0,1,.66-.65,1.82,1.82,0,0,1,.89-.23,1.86,1.86,0,0,1,1.29.42,1.61,1.61,0,0,1,.48,1.27v3.42h-1.1V280.4a1.41,1.41,0,0,0-.25-.85.91.91,0,0,0-.72-.27,1.19,1.19,0,0,0-.51.11,1.11,1.11,0,0,0-.37.27,1.46,1.46,0,0,0-.33.93v2.94h-1.1Z"/><path class="cls-3" d="M410,283.53h-1v-.68h0a1.33,1.33,0,0,1-.65.63,2.25,2.25,0,0,1-.89.18,2.56,2.56,0,0,1-1-.2,2,2,0,0,1-.72-.57,2.24,2.24,0,0,1-.44-.84,3.84,3.84,0,0,1-.14-1,3.43,3.43,0,0,1,.18-1.17,2.5,2.5,0,0,1,.49-.81,1.86,1.86,0,0,1,.69-.46,2.22,2.22,0,0,1,.8-.15,2.56,2.56,0,0,1,.47,0,2.44,2.44,0,0,1,.46.14,1.73,1.73,0,0,1,.41.25,1.17,1.17,0,0,1,.31.35h0v-2.54H410Zm-3.83-2.44a2.22,2.22,0,0,0,.08.63,1.72,1.72,0,0,0,.25.55,1.13,1.13,0,0,0,.43.38,1.2,1.2,0,0,0,.61.15,1.14,1.14,0,0,0,.63-.16,1.3,1.3,0,0,0,.44-.4,2.18,2.18,0,0,0,.25-.56,2.8,2.8,0,0,0,.08-.64,2,2,0,0,0-.37-1.29,1.23,1.23,0,0,0-1-.47,1.33,1.33,0,0,0-.65.16,1.44,1.44,0,0,0-.43.42,1.81,1.81,0,0,0-.24.57A3,3,0,0,0,406.16,281.09Z"/><path class="cls-3" d="M415.35,282.42a.65.65,0,0,0,0,.29.23.23,0,0,0,.21.09h.11l.16,0v.76l-.15,0-.19.05-.19,0h-.16a1,1,0,0,1-.56-.13.66.66,0,0,1-.29-.47,2,2,0,0,1-.81.46,3,3,0,0,1-.91.14,2.32,2.32,0,0,1-.65-.09,1.61,1.61,0,0,1-.54-.27,1.27,1.27,0,0,1-.38-.45,1.44,1.44,0,0,1-.14-.64,1.49,1.49,0,0,1,.17-.75,1.27,1.27,0,0,1,.44-.45,2.11,2.11,0,0,1,.62-.24c.23,0,.46-.08.69-.11a4.1,4.1,0,0,1,.57-.08l.47-.08a.75.75,0,0,0,.33-.18.49.49,0,0,0,.12-.36.56.56,0,0,0-.1-.35.72.72,0,0,0-.25-.21,1.15,1.15,0,0,0-.33-.09l-.35,0a1.36,1.36,0,0,0-.76.2.74.74,0,0,0-.34.59h-1.1a1.64,1.64,0,0,1,.24-.8,1.55,1.55,0,0,1,.51-.51,2.5,2.5,0,0,1,.71-.27,4.28,4.28,0,0,1,.81-.07,3.51,3.51,0,0,1,.72.07,2.44,2.44,0,0,1,.64.25,1.52,1.52,0,0,1,.46.45,1.31,1.31,0,0,1,.17.67Zm-1.1-1.38a1.41,1.41,0,0,1-.61.19l-.74.1-.33.09a.87.87,0,0,0-.29.14.59.59,0,0,0-.2.24.8.8,0,0,0-.07.36.46.46,0,0,0,.1.31,1,1,0,0,0,.26.2,1.15,1.15,0,0,0,.33.1l.32,0a1.89,1.89,0,0,0,.39-.05,1.29,1.29,0,0,0,.4-.16,1.14,1.14,0,0,0,.32-.3.76.76,0,0,0,.12-.44Z"/><path class="cls-3" d="M416.53,278.55h1v.73l0,0a2,2,0,0,1,.66-.65,1.79,1.79,0,0,1,.89-.23,1.86,1.86,0,0,1,1.29.42,1.6,1.6,0,0,1,.47,1.27v3.42h-1.09V280.4a1.41,1.41,0,0,0-.25-.85.92.92,0,0,0-.73-.27,1.18,1.18,0,0,0-.5.11,1.11,1.11,0,0,0-.37.27,1.46,1.46,0,0,0-.33.93v2.94h-1.1Z"/><path class="cls-3" d="M424.23,278.55h.83v-1.49h1.1v1.49h1v.82h-1V282a2.81,2.81,0,0,0,0,.3.65.65,0,0,0,.07.21.34.34,0,0,0,.16.13.78.78,0,0,0,.29,0h.23l.23,0v.85l-.36,0-.35,0a2.64,2.64,0,0,1-.7-.08.92.92,0,0,1-.41-.25.81.81,0,0,1-.21-.4,4,4,0,0,1-.06-.54v-2.94h-.83Z"/><path class="cls-3" d="M428.8,281.32a1.73,1.73,0,0,0,.08.56,1.23,1.23,0,0,0,.24.47,1.14,1.14,0,0,0,.42.33,1.54,1.54,0,0,0,1.37-.09,1.27,1.27,0,0,0,.44-.62h1a2.11,2.11,0,0,1-.3.72,2,2,0,0,1-1.18.86,2.86,2.86,0,0,1-1.81-.08,2.14,2.14,0,0,1-.77-.54,2.12,2.12,0,0,1-.47-.83,3.21,3.21,0,0,1-.16-1.05,3.06,3.06,0,0,1,.17-1,2.49,2.49,0,0,1,.48-.84,2.24,2.24,0,0,1,1.76-.78,2.26,2.26,0,0,1,1.05.24,2.32,2.32,0,0,1,.77.65,2.52,2.52,0,0,1,.45.93,2.61,2.61,0,0,1,.07,1.08Zm2.56-.72a2.13,2.13,0,0,0-.11-.5,1.46,1.46,0,0,0-.25-.42,1.42,1.42,0,0,0-.39-.29,1.18,1.18,0,0,0-.5-.11,1.29,1.29,0,0,0-.53.11,1.13,1.13,0,0,0-.4.27,1.17,1.17,0,0,0-.27.42,1.31,1.31,0,0,0-.11.52Z"/><path class="cls-3" d="M434.12,281.93a.79.79,0,0,0,.37.67,1.41,1.41,0,0,0,.76.2l.35,0a1.18,1.18,0,0,0,.37-.09.63.63,0,0,0,.28-.2.42.42,0,0,0,.1-.34.43.43,0,0,0-.15-.34,1,1,0,0,0-.37-.22,3,3,0,0,0-.52-.14l-.58-.13a3.77,3.77,0,0,1-.6-.16,1.75,1.75,0,0,1-.51-.26,1.22,1.22,0,0,1-.36-.42,1.34,1.34,0,0,1-.13-.63,1.1,1.1,0,0,1,.2-.68,1.42,1.42,0,0,1,.5-.44,2.31,2.31,0,0,1,.67-.24,4.44,4.44,0,0,1,.71-.06,2.92,2.92,0,0,1,.73.08,1.92,1.92,0,0,1,.64.26,1.54,1.54,0,0,1,.47.48,1.71,1.71,0,0,1,.24.71h-1.15a.67.67,0,0,0-.36-.53,1.51,1.51,0,0,0-.65-.14l-.27,0a1.32,1.32,0,0,0-.3.08.55.55,0,0,0-.24.15.37.37,0,0,0-.09.26.39.39,0,0,0,.14.33,1.22,1.22,0,0,0,.36.21,4.25,4.25,0,0,0,.52.14l.59.12a5.72,5.72,0,0,1,.59.17,1.75,1.75,0,0,1,.51.26,1.12,1.12,0,0,1,.37.41,1.29,1.29,0,0,1,.14.62,1.4,1.4,0,0,1-.2.75,1.69,1.69,0,0,1-.53.5,2.34,2.34,0,0,1-.71.28,4.3,4.3,0,0,1-.78.08,3.35,3.35,0,0,1-.87-.1,2,2,0,0,1-.7-.33,1.56,1.56,0,0,1-.46-.53,1.82,1.82,0,0,1-.18-.77Z"/><path class="cls-3" d="M441.65,280.22a1.07,1.07,0,0,0-.37-.7,1.22,1.22,0,0,0-.77-.24,1.53,1.53,0,0,0-.45.08.9.9,0,0,0-.44.27,1.43,1.43,0,0,0-.34.54,2.79,2.79,0,0,0-.06,1.54,1.69,1.69,0,0,0,.23.55,1.18,1.18,0,0,0,.41.39,1.14,1.14,0,0,0,.6.15,1.12,1.12,0,0,0,.8-.3,1.38,1.38,0,0,0,.39-.84h1.1a2.44,2.44,0,0,1-.74,1.49,2.28,2.28,0,0,1-1.55.51,2.56,2.56,0,0,1-1-.19,2.49,2.49,0,0,1-.76-.54,2.27,2.27,0,0,1-.46-.82,3,3,0,0,1-.16-1,3.6,3.6,0,0,1,.15-1,2.49,2.49,0,0,1,.46-.85,2.21,2.21,0,0,1,.77-.57,2.69,2.69,0,0,1,1.07-.2,2.87,2.87,0,0,1,.83.11,2.1,2.1,0,0,1,.69.33,1.66,1.66,0,0,1,.49.56,1.93,1.93,0,0,1,.24.8Z"/><path class="cls-3" d="M443.67,276.66h1.1v1h-1.1Zm0,1.89h1.1v5h-1.1Z"/><path class="cls-3" d="M446,276.66h1.1v6.87H446Z"/><path class="cls-3" d="M451.81,281.32a2,2,0,0,0,.08.56,1.41,1.41,0,0,0,.25.47,1.2,1.2,0,0,0,.41.33,1.4,1.4,0,0,0,.6.12,1.33,1.33,0,0,0,.78-.21,1.2,1.2,0,0,0,.43-.62h1a1.78,1.78,0,0,1-.3.72,2.18,2.18,0,0,1-.51.54,2.13,2.13,0,0,1-.66.32,2.54,2.54,0,0,1-.78.11,2.61,2.61,0,0,1-1-.19,2.1,2.1,0,0,1-.76-.54,2.27,2.27,0,0,1-.48-.83,3.51,3.51,0,0,1-.15-1.05,3.05,3.05,0,0,1,.16-1,2.69,2.69,0,0,1,.49-.84,2.23,2.23,0,0,1,.75-.57,2.3,2.3,0,0,1,2.83.68,2.52,2.52,0,0,1,.45.93,2.8,2.8,0,0,1,.07,1.08Zm2.56-.72a1.72,1.72,0,0,0-.11-.5,1.27,1.27,0,0,0-.25-.42,1.24,1.24,0,0,0-.38-.29,1.19,1.19,0,0,0-.51-.11,1.24,1.24,0,0,0-.52.11,1.27,1.27,0,0,0-.41.27,1.51,1.51,0,0,0-.27.42,1.78,1.78,0,0,0-.11.52Z"/><path class="cls-3" d="M461,283.53h-1v-.68h0a1.37,1.37,0,0,1-.65.63,2.25,2.25,0,0,1-.89.18,2.52,2.52,0,0,1-1-.2,2,2,0,0,1-.72-.57,2.24,2.24,0,0,1-.44-.84,3.84,3.84,0,0,1-.14-1,3.43,3.43,0,0,1,.18-1.17,2.34,2.34,0,0,1,.49-.81,1.86,1.86,0,0,1,.69-.46,2.17,2.17,0,0,1,.79-.15,2.67,2.67,0,0,1,.48,0,2.44,2.44,0,0,1,.46.14,2,2,0,0,1,.41.25,1.17,1.17,0,0,1,.31.35h0v-2.54H461Zm-3.84-2.44a2.23,2.23,0,0,0,.09.63,1.53,1.53,0,0,0,.25.55,1.13,1.13,0,0,0,.43.38,1.17,1.17,0,0,0,.61.15,1.14,1.14,0,0,0,.63-.16,1.18,1.18,0,0,0,.43-.4,1.91,1.91,0,0,0,.26-.56,2.8,2.8,0,0,0,.08-.64,2,2,0,0,0-.37-1.29,1.24,1.24,0,0,0-1-.47,1.3,1.3,0,0,0-.65.16,1.33,1.33,0,0,0-.43.42,1.81,1.81,0,0,0-.24.57A3,3,0,0,0,457.16,281.09Z"/><path class="cls-3" d="M462.22,276.66h1.1v1h-1.1Zm0,1.89h1.1v5h-1.1Z"/><path class="cls-3" d="M464.54,276.66h1.1v6.87h-1.1Z"/><path class="cls-3" d="M466.83,278.55h1v.7h0a1.84,1.84,0,0,1,.27-.34,1.35,1.35,0,0,1,.32-.26,1.53,1.53,0,0,1,.41-.17,2.09,2.09,0,0,1,.53-.06,1.74,1.74,0,0,1,.84.2,1.11,1.11,0,0,1,.55.63,2.21,2.21,0,0,1,.65-.61,1.7,1.7,0,0,1,.91-.22,1.83,1.83,0,0,1,1.23.38,1.66,1.66,0,0,1,.44,1.29v3.44H473v-2.91c0-.2,0-.38,0-.54a1.09,1.09,0,0,0-.11-.43.64.64,0,0,0-.27-.27,1.17,1.17,0,0,0-.5-.1.92.92,0,0,0-.81.35,1.63,1.63,0,0,0-.25,1v2.92h-1.1v-3.2a1.3,1.3,0,0,0-.19-.78.77.77,0,0,0-.69-.27,1,1,0,0,0-.41.09,1,1,0,0,0-.34.25,1.22,1.22,0,0,0-.24.4,1.59,1.59,0,0,0-.09.55v3h-1.1Z"/><path class="cls-3" d="M475.23,276.66h1.1v1h-1.1Zm0,1.89h1.1v5h-1.1Z"/><path class="cls-3" d="M478.45,285.07a1.52,1.52,0,0,0,.32.11,1,1,0,0,0,.3,0h.21a.6.6,0,0,0,.19-.06.41.41,0,0,0,.14-.12.39.39,0,0,0,.05-.2.32.32,0,0,0-.14-.28.53.53,0,0,0-.3-.09.7.7,0,0,0-.38.1l-.21-.18.54-.73a5.21,5.21,0,0,1-.59-.09,2,2,0,0,1-.69-.33,1.56,1.56,0,0,1-.46-.53,1.82,1.82,0,0,1-.18-.77h1.1a.81.81,0,0,0,.37.67,1.41,1.41,0,0,0,.76.2l.35,0a1.18,1.18,0,0,0,.37-.09.63.63,0,0,0,.28-.2.42.42,0,0,0,.1-.34.43.43,0,0,0-.15-.34,1,1,0,0,0-.37-.22,3,3,0,0,0-.52-.14l-.58-.13a3.39,3.39,0,0,1-.59-.16,1.75,1.75,0,0,1-.51-.26,1.15,1.15,0,0,1-.37-.42,1.34,1.34,0,0,1-.13-.63,1.16,1.16,0,0,1,.2-.68,1.52,1.52,0,0,1,.5-.44,2.31,2.31,0,0,1,.67-.24,4.44,4.44,0,0,1,.71-.06,3,3,0,0,1,.74.08,2,2,0,0,1,.63.26,1.54,1.54,0,0,1,.47.48,1.58,1.58,0,0,1,.24.71h-1.15a.67.67,0,0,0-.36-.53,1.48,1.48,0,0,0-.65-.14l-.27,0a1.32,1.32,0,0,0-.3.08.61.61,0,0,0-.24.15.37.37,0,0,0-.09.26.39.39,0,0,0,.14.33,1.22,1.22,0,0,0,.36.21,4.81,4.81,0,0,0,.52.14l.59.12a5.72,5.72,0,0,1,.59.17,1.81,1.81,0,0,1,.52.26,1.2,1.2,0,0,1,.5,1,1.4,1.4,0,0,1-.2.75,1.77,1.77,0,0,1-.52.5,2.51,2.51,0,0,1-.72.28,3.27,3.27,0,0,1-.62.07l-.33.45h0a.32.32,0,0,1,.14,0h.18a1,1,0,0,1,.29,0,.66.66,0,0,1,.26.14.67.67,0,0,1,.19.22.75.75,0,0,1,0,.73,1,1,0,0,1-.26.27,1.16,1.16,0,0,1-.38.15,1.4,1.4,0,0,1-.41.06,2.33,2.33,0,0,1-.53-.06,1.56,1.56,0,0,1-.47-.17Z"/><path class="cls-3" d="M482,278.55h.83v-1.49h1.09v1.49h1v.82h-1V282a2.66,2.66,0,0,0,0,.3.48.48,0,0,0,.07.21.28.28,0,0,0,.15.13.81.81,0,0,0,.29,0h.23l.24,0v.85l-.36,0-.36,0a2.51,2.51,0,0,1-.69-.08,1,1,0,0,1-.42-.25.73.73,0,0,1-.2-.4,2.23,2.23,0,0,1-.06-.54v-2.94H482Z"/><path class="cls-3" d="M485.75,276.66h1.1v1h-1.1Zm0,1.89h1.1v5h-1.1Z"/><path class="cls-3" d="M488,278.55h1v1h0a1.33,1.33,0,0,1,.19-.4,1.61,1.61,0,0,1,.34-.35,1.76,1.76,0,0,1,.44-.26,1.37,1.37,0,0,1,.49-.09h.26l.15,0v1.06l-.23,0h-.24a1.2,1.2,0,0,0-.53.11,1.18,1.18,0,0,0-.42.32,1.56,1.56,0,0,0-.29.54,2.33,2.33,0,0,0-.11.73v2.37H488Z"/><path class="cls-3" d="M490.63,282.23H492v1.3h-1.34Z"/><path class="cls-3" d="M2.64,288.21H3.92l2.64,6.87H5.27l-.64-1.82H1.89l-.65,1.82H0Zm-.43,4.14h2.1l-1-3h0Z"/><path class="cls-3" d="M7.07,290.1h1v.7h0c.09-.12.18-.24.27-.34a1.64,1.64,0,0,1,.33-.26,1.46,1.46,0,0,1,.4-.17,2.2,2.2,0,0,1,.53-.06,1.87,1.87,0,0,1,.85.2,1.18,1.18,0,0,1,.55.63,2.21,2.21,0,0,1,.65-.61,1.68,1.68,0,0,1,.91-.22,1.85,1.85,0,0,1,1.23.38,1.66,1.66,0,0,1,.43,1.29v3.44H13.19v-2.91c0-.2,0-.38,0-.54a1,1,0,0,0-.11-.42.63.63,0,0,0-.28-.28,1.15,1.15,0,0,0-.5-.09.94.94,0,0,0-.81.34,1.71,1.71,0,0,0-.25,1v2.92H10.13v-3.2a1.4,1.4,0,0,0-.19-.78.79.79,0,0,0-.69-.26,1,1,0,0,0-.41.08,1.07,1.07,0,0,0-.35.25,1.48,1.48,0,0,0-.24.41,1.55,1.55,0,0,0-.09.55v2.95H7.07Z"/><path class="cls-3" d="M19.61,294a.65.65,0,0,0,.05.29.23.23,0,0,0,.21.09H20l.16,0v.76l-.15,0-.19.05-.19,0h-.17a1,1,0,0,1-.55-.14.66.66,0,0,1-.29-.47,2,2,0,0,1-.81.46,3,3,0,0,1-.92.15,2.25,2.25,0,0,1-.64-.1,1.52,1.52,0,0,1-.54-.27,1.19,1.19,0,0,1-.38-.45,1.41,1.41,0,0,1-.14-.64,1.49,1.49,0,0,1,.17-.75,1.27,1.27,0,0,1,.44-.45,2,2,0,0,1,.62-.24c.23-.05.45-.08.69-.11s.38-.06.56-.08a3,3,0,0,0,.48-.08.75.75,0,0,0,.33-.18.49.49,0,0,0,.12-.36.63.63,0,0,0-.1-.35.6.6,0,0,0-.25-.2,1.13,1.13,0,0,0-.34-.1,2,2,0,0,0-.34,0,1.36,1.36,0,0,0-.76.19.75.75,0,0,0-.34.59h-1.1a1.67,1.67,0,0,1,.23-.79,1.49,1.49,0,0,1,.52-.51,2,2,0,0,1,.71-.27,3.59,3.59,0,0,1,.81-.08,2.94,2.94,0,0,1,.72.08,2,2,0,0,1,.64.25,1.27,1.27,0,0,1,.45.44,1.22,1.22,0,0,1,.18.67Zm-1.1-1.38a1.3,1.3,0,0,1-.62.19c-.24,0-.48.06-.73.11a1.32,1.32,0,0,0-.33.08.87.87,0,0,0-.29.14.59.59,0,0,0-.2.24.8.8,0,0,0-.07.36.45.45,0,0,0,.1.31.86.86,0,0,0,.26.2,1.15,1.15,0,0,0,.33.1l.32,0a1.89,1.89,0,0,0,.39-.05,1.4,1.4,0,0,0,.4-.16,1.14,1.14,0,0,0,.32-.3.75.75,0,0,0,.12-.43Z"/><path class="cls-3" d="M24.15,291.77a1,1,0,0,0-.37-.7,1.19,1.19,0,0,0-.76-.23,1.51,1.51,0,0,0-.46.07,1.07,1.07,0,0,0-.44.27,1.52,1.52,0,0,0-.34.55,3,3,0,0,0-.06,1.53,1.82,1.82,0,0,0,.23.55,1.27,1.27,0,0,0,.41.39,1.17,1.17,0,0,0,.61.15,1.09,1.09,0,0,0,.79-.3,1.38,1.38,0,0,0,.39-.84h1.1a2.38,2.38,0,0,1-.74,1.49,2.26,2.26,0,0,1-1.54.52,2.61,2.61,0,0,1-1-.2,2.07,2.07,0,0,1-.75-.54,2.33,2.33,0,0,1-.47-.81,3.13,3.13,0,0,1-.16-1,3.19,3.19,0,0,1,.16-1,2.3,2.3,0,0,1,.46-.86,2,2,0,0,1,.76-.56A2.6,2.6,0,0,1,23,290a3.18,3.18,0,0,1,.82.11,2,2,0,0,1,.69.33,1.78,1.78,0,0,1,.73,1.36Z"/><path class="cls-3" d="M26.17,295.08v-5h1.1v5Z"/><path class="cls-3" d="M35.83,295.08h-1v-.67h0a1.31,1.31,0,0,1-.65.62,2.26,2.26,0,0,1-.89.19,2.4,2.4,0,0,1-1-.21,2,2,0,0,1-.72-.57,2.24,2.24,0,0,1-.44-.84,3.84,3.84,0,0,1-.14-1,3.43,3.43,0,0,1,.18-1.17,2.35,2.35,0,0,1,.49-.8,1.77,1.77,0,0,1,.69-.47,2.22,2.22,0,0,1,.8-.15,2.56,2.56,0,0,1,.47,0,2.44,2.44,0,0,1,.46.14,2.14,2.14,0,0,1,.41.25,1.3,1.3,0,0,1,.31.35h0v-2.54h1.1ZM32,292.64a2.18,2.18,0,0,0,.08.63,1.63,1.63,0,0,0,.25.55,1.13,1.13,0,0,0,.43.38,1.2,1.2,0,0,0,.61.15,1.14,1.14,0,0,0,.63-.16,1.3,1.3,0,0,0,.44-.4,2,2,0,0,0,.25-.56,2.74,2.74,0,0,0,.08-.64,2,2,0,0,0-.37-1.29,1.22,1.22,0,0,0-1-.46,1.33,1.33,0,0,0-.65.15,1.44,1.44,0,0,0-.43.42,1.77,1.77,0,0,0-.24.58A2.81,2.81,0,0,0,32,292.64Z"/><path class="cls-3" d="M37.05,295.08v-5h1.1v5Z"/><path class="cls-3" d="M40.27,296.62l.31.12a1.55,1.55,0,0,0,.31,0h.2a.66.66,0,0,0,.2-.06.53.53,0,0,0,.14-.12.39.39,0,0,0,0-.2.31.31,0,0,0-.14-.27.49.49,0,0,0-.3-.1.77.77,0,0,0-.38.1l-.21-.18.54-.72a5.18,5.18,0,0,1-.59-.1,2.19,2.19,0,0,1-.69-.32,1.7,1.7,0,0,1-.46-.54,1.82,1.82,0,0,1-.18-.77h1.1a.84.84,0,0,0,.36.68,1.57,1.57,0,0,0,.77.19l.35,0a1.18,1.18,0,0,0,.37-.09.7.7,0,0,0,.28-.19.45.45,0,0,0,.1-.35.47.47,0,0,0-.15-.34,1.21,1.21,0,0,0-.37-.22,4.25,4.25,0,0,0-.52-.14l-.58-.12a5.25,5.25,0,0,1-.6-.17,1.75,1.75,0,0,1-.51-.26,1.22,1.22,0,0,1-.36-.42,1.34,1.34,0,0,1-.13-.63,1,1,0,0,1,.2-.67,1.36,1.36,0,0,1,.5-.45,2,2,0,0,1,.67-.23,3.56,3.56,0,0,1,.71-.07,3.47,3.47,0,0,1,.73.08,1.93,1.93,0,0,1,.64.27,1.51,1.51,0,0,1,.47.47,1.71,1.71,0,0,1,.24.71H42.19a.68.68,0,0,0-.36-.53,1.51,1.51,0,0,0-.65-.13h-.27a1.32,1.32,0,0,0-.3.08.55.55,0,0,0-.24.15.41.41,0,0,0-.1.27.42.42,0,0,0,.14.32,1,1,0,0,0,.37.21,4.25,4.25,0,0,0,.52.14l.59.12a5.72,5.72,0,0,1,.59.17,1.75,1.75,0,0,1,.51.26,1.12,1.12,0,0,1,.37.41,1.29,1.29,0,0,1,.14.62,1.4,1.4,0,0,1-.2.75,1.69,1.69,0,0,1-.53.5,2.34,2.34,0,0,1-.71.28,4.38,4.38,0,0,1-.62.08l-.34.44h0a.58.58,0,0,1,.14,0h.18a1,1,0,0,1,.29,0,.94.94,0,0,1,.26.14.67.67,0,0,1,.19.22.66.66,0,0,1,.08.32.77.77,0,0,1-.11.42,1,1,0,0,1-.27.26,1.11,1.11,0,0,1-.37.15,1.52,1.52,0,0,1-.42.06,2.24,2.24,0,0,1-.52-.06,1.74,1.74,0,0,1-.47-.16Z"/><path class="cls-3" d="M44.37,295.08v-5h1.09v5Z"/><path class="cls-3" d="M46.66,290.1h1v.74h0a1.75,1.75,0,0,1,1.55-.88,1.89,1.89,0,0,1,1.29.42,1.65,1.65,0,0,1,.47,1.27v3.42h-1.1V292a1.36,1.36,0,0,0-.25-.85.88.88,0,0,0-.72-.26,1.12,1.12,0,0,0-.5.1,1,1,0,0,0-.38.28,1.27,1.27,0,0,0-.24.41,1.52,1.52,0,0,0-.09.51v2.94H46.66Z"/><path class="cls-3" d="M56.87,295.08h-1v-.67h0a1.33,1.33,0,0,1-.64.62,2.4,2.4,0,0,1-1.92,0,2,2,0,0,1-.73-.57,2.23,2.23,0,0,1-.43-.84,3.49,3.49,0,0,1-.15-1,3.43,3.43,0,0,1,.18-1.17,2.52,2.52,0,0,1,.49-.8,1.77,1.77,0,0,1,.69-.47,2.22,2.22,0,0,1,.8-.15,2.56,2.56,0,0,1,.47,0,2.44,2.44,0,0,1,.46.14,1.87,1.87,0,0,1,.41.25,1.15,1.15,0,0,1,.31.35h0v-2.54h1.1ZM53,292.64a2.59,2.59,0,0,0,.08.63,1.85,1.85,0,0,0,.25.55,1.26,1.26,0,0,0,1.05.53,1.18,1.18,0,0,0,.63-.16,1.27,1.27,0,0,0,.43-.4,1.78,1.78,0,0,0,.25-.56,2.74,2.74,0,0,0,.08-.64,2,2,0,0,0-.37-1.29,1.21,1.21,0,0,0-1-.46,1.28,1.28,0,0,0-.65.15,1.36,1.36,0,0,0-.44.42,1.77,1.77,0,0,0-.24.58A2.81,2.81,0,0,0,53,292.64Z"/><path class="cls-3" d="M62.23,294a.52.52,0,0,0,.06.29.2.2,0,0,0,.2.09h.12l.15,0v.76l-.15,0-.19.05-.19,0h-.16a1.06,1.06,0,0,1-.56-.14.69.69,0,0,1-.29-.47,2,2,0,0,1-.8.46,3.1,3.1,0,0,1-.92.15,2.32,2.32,0,0,1-.65-.1,1.71,1.71,0,0,1-.54-.27,1.29,1.29,0,0,1-.38-.45,1.41,1.41,0,0,1-.14-.64A1.49,1.49,0,0,1,58,293a1.29,1.29,0,0,1,.45-.45,1.94,1.94,0,0,1,.61-.24c.23-.05.46-.08.69-.11s.39-.06.57-.08a2.69,2.69,0,0,0,.47-.08.75.75,0,0,0,.33-.18.49.49,0,0,0,.12-.36.56.56,0,0,0-.1-.35.6.6,0,0,0-.25-.2,1.15,1.15,0,0,0-.33-.1,2.11,2.11,0,0,0-.35,0,1.36,1.36,0,0,0-.76.19.75.75,0,0,0-.34.59H58a1.57,1.57,0,0,1,.23-.79,1.39,1.39,0,0,1,.51-.51,2.09,2.09,0,0,1,.71-.27,3.59,3.59,0,0,1,.81-.08,2.94,2.94,0,0,1,.72.08,1.9,1.9,0,0,1,.64.25,1.38,1.38,0,0,1,.46.44,1.31,1.31,0,0,1,.17.67Zm-1.1-1.38a1.26,1.26,0,0,1-.61.19c-.25,0-.49.06-.73.11a1.3,1.3,0,0,0-.34.08.87.87,0,0,0-.29.14.68.68,0,0,0-.2.24,1,1,0,0,0-.07.36A.45.45,0,0,0,59,294a.82.82,0,0,0,.25.2,1.15,1.15,0,0,0,.33.1l.32,0a2,2,0,0,0,.4-.05,1.52,1.52,0,0,0,.4-.16,1.11,1.11,0,0,0,.31-.3.75.75,0,0,0,.12-.43Z"/><path class="cls-3" d="M65.6,290.1h1.19l1.27,3.83h0l1.22-3.83h1.13l-1.78,5H67.41Z"/><path class="cls-3" d="M71.94,292.88a1.67,1.67,0,0,0,.09.55,1.35,1.35,0,0,0,.24.48,1.23,1.23,0,0,0,.42.32,1.54,1.54,0,0,0,1.37-.09,1.27,1.27,0,0,0,.44-.62h1a2.11,2.11,0,0,1-.3.72,2.18,2.18,0,0,1-.51.54,2.3,2.3,0,0,1-.67.32,2.54,2.54,0,0,1-.78.12,2.61,2.61,0,0,1-1-.2,2.19,2.19,0,0,1-.76-.54,2.15,2.15,0,0,1-.47-.82,3.27,3.27,0,0,1-.16-1.06,2.82,2.82,0,0,1,.17-1,2.49,2.49,0,0,1,.48-.84,2.24,2.24,0,0,1,1.75-.78,2.27,2.27,0,0,1,1.06.24,2.45,2.45,0,0,1,.77.65,2.52,2.52,0,0,1,.45.93,2.83,2.83,0,0,1,.07,1.09Zm2.56-.73a1.45,1.45,0,0,0-.11-.5,1.27,1.27,0,0,0-.25-.42,1.21,1.21,0,0,0-.38-.28,1.06,1.06,0,0,0-.51-.11,1.27,1.27,0,0,0-.52.1,1.22,1.22,0,0,0-.67.69,1.58,1.58,0,0,0-.12.52Z"/><path class="cls-3" d="M83.28,294a.52.52,0,0,0,.06.29.2.2,0,0,0,.2.09h.12l.15,0v.76l-.15,0-.18.05-.2,0h-.16a1.08,1.08,0,0,1-.56-.14.69.69,0,0,1-.29-.47,1.92,1.92,0,0,1-.8.46,3,3,0,0,1-.92.15,2.25,2.25,0,0,1-.64-.1,1.66,1.66,0,0,1-.55-.27,1.17,1.17,0,0,1-.37-.45,1.29,1.29,0,0,1-.14-.64A1.39,1.39,0,0,1,79,293a1.19,1.19,0,0,1,.44-.45,2,2,0,0,1,.61-.24c.23-.05.46-.08.69-.11s.39-.06.57-.08a3,3,0,0,0,.48-.08.77.77,0,0,0,.32-.18.49.49,0,0,0,.12-.36.56.56,0,0,0-.1-.35.55.55,0,0,0-.25-.2,1.15,1.15,0,0,0-.33-.1,2.11,2.11,0,0,0-.35,0,1.38,1.38,0,0,0-.76.19.72.72,0,0,0-.33.59H79a1.67,1.67,0,0,1,.23-.79,1.49,1.49,0,0,1,.52-.51,2,2,0,0,1,.7-.27,3.71,3.71,0,0,1,.81-.08,2.84,2.84,0,0,1,.72.08,1.9,1.9,0,0,1,.64.25,1.3,1.3,0,0,1,.46.44,1.22,1.22,0,0,1,.17.67Zm-1.09-1.38a1.33,1.33,0,0,1-.62.19c-.24,0-.49.06-.73.11a1.3,1.3,0,0,0-.34.08,1,1,0,0,0-.29.14.57.57,0,0,0-.19.24.8.8,0,0,0-.08.36.45.45,0,0,0,.11.31.86.86,0,0,0,.26.2,1,1,0,0,0,.32.1l.32,0a1.9,1.9,0,0,0,.4-.05,1.52,1.52,0,0,0,.4-.16,1.11,1.11,0,0,0,.31-.3.69.69,0,0,0,.13-.43Z"/><path class="cls-3" d="M85.3,293.48a.84.84,0,0,0,.36.68,1.53,1.53,0,0,0,.76.19l.35,0a1.06,1.06,0,0,0,.37-.09.73.73,0,0,0,.29-.19.49.49,0,0,0,.1-.35.51.51,0,0,0-.15-.34,1.15,1.15,0,0,0-.38-.22,4.6,4.6,0,0,0-.51-.14l-.59-.12a5.72,5.72,0,0,1-.59-.17,1.75,1.75,0,0,1-.51-.26,1.22,1.22,0,0,1-.36-.42,1.33,1.33,0,0,1-.14-.63,1.11,1.11,0,0,1,.2-.67,1.44,1.44,0,0,1,.5-.45,2.1,2.1,0,0,1,.68-.23,3.46,3.46,0,0,1,.7-.07,3.5,3.5,0,0,1,.74.08,2,2,0,0,1,.64.27,1.75,1.75,0,0,1,.47.47,1.7,1.7,0,0,1,.23.71H87.32A.68.68,0,0,0,87,291a1.51,1.51,0,0,0-.65-.13H86a1.67,1.67,0,0,0-.3.08.51.51,0,0,0-.23.15.36.36,0,0,0-.1.27.42.42,0,0,0,.14.32,1,1,0,0,0,.37.21,4.6,4.6,0,0,0,.51.14l.6.12c.2.05.39.1.59.17a1.75,1.75,0,0,1,.51.26,1.33,1.33,0,0,1,.37.41,1.29,1.29,0,0,1,.14.62,1.32,1.32,0,0,1-.21.75,1.66,1.66,0,0,1-.52.5,2.4,2.4,0,0,1-.72.28,3.46,3.46,0,0,1-1.65,0,2.09,2.09,0,0,1-.69-.32,1.58,1.58,0,0,1-.46-.54,1.68,1.68,0,0,1-.18-.77Z"/><path class="cls-3" d="M89.49,288.21h1.1v6.87h-1.1Z"/><path class="cls-3" d="M91.81,295.08v-5h1.1v5Z"/><path class="cls-3" d="M94.1,290.1h1v.74h0a2,2,0,0,1,.66-.65,1.79,1.79,0,0,1,.89-.23,1.86,1.86,0,0,1,1.29.42,1.62,1.62,0,0,1,.47,1.27v3.42H97.38V292a1.43,1.43,0,0,0-.25-.85.92.92,0,0,0-.73-.26,1.18,1.18,0,0,0-.5.1,1,1,0,0,0-.37.28,1.27,1.27,0,0,0-.24.41,1.52,1.52,0,0,0-.09.51v2.94H94.1Z"/><path class="cls-3" d="M103.8,294a.54.54,0,0,0,0,.29.22.22,0,0,0,.21.09h.11l.16,0v.76l-.15,0-.19.05-.19,0h-.17a1,1,0,0,1-.55-.14.66.66,0,0,1-.29-.47,2,2,0,0,1-.81.46,3,3,0,0,1-.92.15,2.25,2.25,0,0,1-.64-.1,1.66,1.66,0,0,1-.55-.27,1.26,1.26,0,0,1-.37-.45,1.41,1.41,0,0,1-.14-.64,1.49,1.49,0,0,1,.17-.75,1.27,1.27,0,0,1,.44-.45,2,2,0,0,1,.62-.24c.22-.05.45-.08.68-.11s.39-.06.57-.08a3,3,0,0,0,.48-.08.75.75,0,0,0,.33-.18.49.49,0,0,0,.12-.36.63.63,0,0,0-.1-.35.6.6,0,0,0-.25-.2,1.13,1.13,0,0,0-.34-.1,2,2,0,0,0-.34,0,1.36,1.36,0,0,0-.76.19.75.75,0,0,0-.34.59h-1.1a1.67,1.67,0,0,1,.23-.79,1.49,1.49,0,0,1,.52-.51,2,2,0,0,1,.71-.27,3.56,3.56,0,0,1,.8-.08,3,3,0,0,1,.73.08,2,2,0,0,1,.64.25,1.27,1.27,0,0,1,.45.44,1.22,1.22,0,0,1,.18.67Zm-1.1-1.38a1.3,1.3,0,0,1-.62.19c-.24,0-.48.06-.73.11a1.23,1.23,0,0,0-.33.08.87.87,0,0,0-.29.14.59.59,0,0,0-.2.24.8.8,0,0,0-.07.36.45.45,0,0,0,.1.31.86.86,0,0,0,.26.2,1.15,1.15,0,0,0,.33.1l.32,0a1.89,1.89,0,0,0,.39-.05,1.4,1.4,0,0,0,.4-.16,1,1,0,0,0,.31-.3.69.69,0,0,0,.13-.43Z"/><path class="cls-3" d="M111.83,294a.54.54,0,0,0,0,.29.2.2,0,0,0,.2.09h.12l.15,0v.76l-.14,0-.19.05-.19,0h-.17a1.08,1.08,0,0,1-.56-.14.72.72,0,0,1-.29-.47,1.92,1.92,0,0,1-.8.46,3,3,0,0,1-.92.15,2.25,2.25,0,0,1-.64-.1,1.66,1.66,0,0,1-.55-.27,1.26,1.26,0,0,1-.37-.45,1.29,1.29,0,0,1-.14-.64,1.39,1.39,0,0,1,.17-.75,1.27,1.27,0,0,1,.44-.45,2,2,0,0,1,.61-.24c.23-.05.46-.08.69-.11s.39-.06.57-.08a3,3,0,0,0,.48-.08.71.71,0,0,0,.32-.18.49.49,0,0,0,.13-.36.56.56,0,0,0-.11-.35.55.55,0,0,0-.25-.2,1.15,1.15,0,0,0-.33-.1,2.06,2.06,0,0,0-.34,0,1.4,1.4,0,0,0-.77.19.74.74,0,0,0-.33.59h-1.1a1.67,1.67,0,0,1,.23-.79,1.49,1.49,0,0,1,.52-.51,2,2,0,0,1,.7-.27,3.71,3.71,0,0,1,.81-.08,2.84,2.84,0,0,1,.72.08,1.82,1.82,0,0,1,.64.25,1.3,1.3,0,0,1,.46.44,1.22,1.22,0,0,1,.18.67Zm-1.1-1.38a1.3,1.3,0,0,1-.62.19c-.24,0-.49.06-.73.11a1.3,1.3,0,0,0-.34.08,1,1,0,0,0-.29.14.65.65,0,0,0-.19.24.8.8,0,0,0-.08.36.45.45,0,0,0,.11.31.86.86,0,0,0,.26.2,1.09,1.09,0,0,0,.32.1l.33,0a1.89,1.89,0,0,0,.39-.05,1.52,1.52,0,0,0,.4-.16,1,1,0,0,0,.31-.3.69.69,0,0,0,.13-.43Z"/><path class="cls-3" d="M112.46,290.1h1.2l1.3,3.72h0l1.26-3.72h1.15l-1.94,5.25c-.09.22-.17.44-.26.64a2.27,2.27,0,0,1-.32.55,1.23,1.23,0,0,1-.47.37,1.47,1.47,0,0,1-.71.14,6.47,6.47,0,0,1-.76-.05v-.93l.26.05.26,0a.93.93,0,0,0,.32-.05A.6.6,0,0,0,114,296a.93.93,0,0,0,.14-.22,2.91,2.91,0,0,0,.1-.28l.13-.39Z"/><path class="cls-3" d="M118,288.21h1.1v3.91l2-2h1.35l-1.9,1.83,2.08,3.15h-1.33l-1.52-2.42-.66.64v1.78H118Z"/><path class="cls-3" d="M123.2,295.08v-5h1.1v5Z"/><path class="cls-3" d="M125.49,290.1h1v1h0a1.13,1.13,0,0,1,.19-.4,1.87,1.87,0,0,1,.34-.35,1.6,1.6,0,0,1,.44-.26A1.37,1.37,0,0,1,128,290h.26l.15,0v1.06l-.24,0h-.23a1.36,1.36,0,0,0-.53.11,1.1,1.1,0,0,0-.42.33,1.42,1.42,0,0,0-.29.53,2.33,2.33,0,0,0-.11.73v2.37h-1.1Z"/><path class="cls-3" d="M128.91,295.08v-5H130v5Z"/><path class="cls-3" d="M133.88,290.1h1v1h0a1.1,1.1,0,0,1,.18-.4,2.24,2.24,0,0,1,.34-.35,1.76,1.76,0,0,1,.44-.26,1.37,1.37,0,0,1,.49-.09h.27l.14,0v1.06l-.23,0h-.24a1.31,1.31,0,0,0-.52.11,1.06,1.06,0,0,0-.43.33,1.58,1.58,0,0,0-.29.53,2.34,2.34,0,0,0-.1.73v2.37h-1.1Z"/><path class="cls-3" d="M138,292.88a2,2,0,0,0,.08.55,1.57,1.57,0,0,0,.25.48,1.19,1.19,0,0,0,.41.32,1.4,1.4,0,0,0,.6.12,1.28,1.28,0,0,0,.77-.21,1.21,1.21,0,0,0,.44-.62h1a2.11,2.11,0,0,1-.3.72,2,2,0,0,1-1.18.86,2.43,2.43,0,0,1-.77.12,2.61,2.61,0,0,1-1-.2,2.23,2.23,0,0,1-.77-.54,2.29,2.29,0,0,1-.47-.82,3.57,3.57,0,0,1-.16-1.06,3.06,3.06,0,0,1,.17-1,2.49,2.49,0,0,1,.48-.84,2.27,2.27,0,0,1,.76-.57,2.29,2.29,0,0,1,1-.21,2.26,2.26,0,0,1,1.05.24,2.61,2.61,0,0,1,.78.65,2.87,2.87,0,0,1,.45.93,3,3,0,0,1,.07,1.09Zm2.56-.73a1.72,1.72,0,0,0-.11-.5,1.19,1.19,0,0,0-.64-.7,1,1,0,0,0-.5-.11,1.32,1.32,0,0,0-.53.1,1.12,1.12,0,0,0-.4.28,1.33,1.33,0,0,0-.27.41,1.56,1.56,0,0,0-.11.52Z"/><path class="cls-3" d="M142.45,290.1h1v.74h0a2,2,0,0,1,.66-.65,1.82,1.82,0,0,1,.89-.23,1.86,1.86,0,0,1,1.29.42,1.62,1.62,0,0,1,.48,1.27v3.42h-1.1V292a1.36,1.36,0,0,0-.25-.85.91.91,0,0,0-.72-.26,1.12,1.12,0,0,0-.5.1,1,1,0,0,0-.38.28,1.27,1.27,0,0,0-.24.41,1.52,1.52,0,0,0-.09.51v2.94h-1.09Z"/><path class="cls-3" d="M148,288.21h1.1v3.91l2-2h1.35l-1.91,1.83,2.09,3.15h-1.34l-1.52-2.42-.65.64v1.78H148Z"/><path class="cls-3" d="M153.23,293.78h1.33v1.3a1.44,1.44,0,0,1-.36,1,1.65,1.65,0,0,1-.94.52V296a.67.67,0,0,0,.48-.35,1,1,0,0,0,.15-.58h-.66Z"/><path class="cls-3" d="M163.18,295.08h-1v-.67h0a1.33,1.33,0,0,1-.64.62,2.4,2.4,0,0,1-1.92,0,2,2,0,0,1-.73-.57,2.23,2.23,0,0,1-.43-.84,3.49,3.49,0,0,1-.15-1,3.43,3.43,0,0,1,.18-1.17,2.52,2.52,0,0,1,.49-.8,1.77,1.77,0,0,1,.69-.47,2.22,2.22,0,0,1,.8-.15,2.56,2.56,0,0,1,.47,0,2.44,2.44,0,0,1,.46.14,2.14,2.14,0,0,1,.41.25,1.15,1.15,0,0,1,.31.35h0v-2.54h1.1Zm-3.83-2.44a2.59,2.59,0,0,0,.08.63,1.63,1.63,0,0,0,.25.55,1.26,1.26,0,0,0,1,.53,1.18,1.18,0,0,0,.63-.16,1.27,1.27,0,0,0,.43-.4,2,2,0,0,0,.25-.56,2.74,2.74,0,0,0,.08-.64,2,2,0,0,0-.37-1.29,1.22,1.22,0,0,0-1-.46,1.33,1.33,0,0,0-.65.15,1.44,1.44,0,0,0-.43.42,1.77,1.77,0,0,0-.24.58A2.81,2.81,0,0,0,159.35,292.64Z"/><path class="cls-3" d="M168.74,295.08h-1.07v-.69h0a1.53,1.53,0,0,1-.61.6,1.61,1.61,0,0,1-.81.23,1.85,1.85,0,0,1-1.42-.49,2.15,2.15,0,0,1-.44-1.47V290.1h1.1v3.06a1.33,1.33,0,0,0,.25.92.91.91,0,0,0,.7.27,1.39,1.39,0,0,0,.58-.11,1.08,1.08,0,0,0,.38-.28,1.14,1.14,0,0,0,.2-.43,2.35,2.35,0,0,0,.07-.54V290.1h1.09Zm-3.57-5.79v-1h1.1v1Zm2.75-1v1h-1.09v-1Z"/><path class="cls-3" d="M169.73,290.1h4v.77l-2.85,3.34h3v.87h-4.38v-.77l2.76-3.34h-2.56Z"/><path class="cls-3" d="M175.57,292.88a2,2,0,0,0,.08.55,1.38,1.38,0,0,0,.25.48,1.11,1.11,0,0,0,.41.32,1.4,1.4,0,0,0,.6.12,1.28,1.28,0,0,0,.77-.21,1.21,1.21,0,0,0,.44-.62h1a2.11,2.11,0,0,1-.3.72,2,2,0,0,1-1.18.86,2.48,2.48,0,0,1-.77.12,2.57,2.57,0,0,1-1-.2,2.14,2.14,0,0,1-.77-.54,2.29,2.29,0,0,1-.47-.82,3.27,3.27,0,0,1-.16-1.06,3.06,3.06,0,0,1,.17-1,2.49,2.49,0,0,1,.48-.84,2.39,2.39,0,0,1,2.81-.54,2.61,2.61,0,0,1,.78.65,2.66,2.66,0,0,1,.44.93,2.83,2.83,0,0,1,.08,1.09Zm2.56-.73a1.72,1.72,0,0,0-.11-.5,1.46,1.46,0,0,0-.25-.42,1.39,1.39,0,0,0-.39-.28,1,1,0,0,0-.5-.11,1.29,1.29,0,0,0-.53.1,1.12,1.12,0,0,0-.4.28,1.33,1.33,0,0,0-.27.41,1.35,1.35,0,0,0-.11.52Z"/><path class="cls-3" d="M180.06,290.1h1v.74h0a2,2,0,0,1,.66-.65,1.79,1.79,0,0,1,.89-.23,1.86,1.86,0,0,1,1.29.42,1.62,1.62,0,0,1,.47,1.27v3.42h-1.09V292a1.43,1.43,0,0,0-.25-.85.92.92,0,0,0-.73-.26,1.18,1.18,0,0,0-.5.1,1,1,0,0,0-.37.28,1.27,1.27,0,0,0-.24.41,1.52,1.52,0,0,0-.09.51v2.94h-1.1Z"/><path class="cls-3" d="M187.77,290.1H189l1.26,3.83h0l1.21-3.83h1.14l-1.78,5h-1.24Z"/><path class="cls-3" d="M194.12,292.88a1.67,1.67,0,0,0,.08.55,1.54,1.54,0,0,0,.24.48,1.23,1.23,0,0,0,.42.32,1.37,1.37,0,0,0,.6.12,1.3,1.3,0,0,0,.77-.21,1.21,1.21,0,0,0,.44-.62h1a2.11,2.11,0,0,1-.3.72,2,2,0,0,1-1.18.86,2.48,2.48,0,0,1-.77.12,2.57,2.57,0,0,1-1-.2,2.17,2.17,0,0,1-1.24-1.36,3.27,3.27,0,0,1-.16-1.06,3.06,3.06,0,0,1,.17-1,2.49,2.49,0,0,1,.48-.84,2.39,2.39,0,0,1,2.81-.54,2.61,2.61,0,0,1,.78.65,2.66,2.66,0,0,1,.44.93,2.83,2.83,0,0,1,.08,1.09Zm2.56-.73a1.72,1.72,0,0,0-.11-.5,1.46,1.46,0,0,0-.25-.42,1.39,1.39,0,0,0-.39-.28,1,1,0,0,0-.5-.11,1.29,1.29,0,0,0-.53.1,1,1,0,0,0-.4.28,1.33,1.33,0,0,0-.27.41,1.35,1.35,0,0,0-.11.52Z"/><path class="cls-3" d="M201.32,288.21h1.09v2.54h0a1.56,1.56,0,0,1,.64-.57,2.14,2.14,0,0,1,.42-.16,2.1,2.1,0,0,1,.43,0,2.32,2.32,0,0,1,1,.21,1.93,1.93,0,0,1,.73.56,2.44,2.44,0,0,1,.43.85,3.42,3.42,0,0,1,.15,1,4,4,0,0,1-.13,1,2.56,2.56,0,0,1-.4.83,2.09,2.09,0,0,1-.67.58,2,2,0,0,1-1,.22,4.38,4.38,0,0,1-.51,0,1.55,1.55,0,0,1-.48-.13,1.46,1.46,0,0,1-.42-.25,1.13,1.13,0,0,1-.31-.4h0v.68h-1Zm3.83,4.39a2.39,2.39,0,0,0-.09-.66,1.7,1.7,0,0,0-.26-.56,1.37,1.37,0,0,0-.43-.4,1.27,1.27,0,0,0-.6-.14,1.2,1.2,0,0,0-1,.48,2.07,2.07,0,0,0-.35,1.28,2.63,2.63,0,0,0,.09.7,1.66,1.66,0,0,0,.27.55,1.39,1.39,0,0,0,.44.36,1.25,1.25,0,0,0,.59.14,1.19,1.19,0,0,0,.64-.16,1.45,1.45,0,0,0,.43-.39,1.76,1.76,0,0,0,.24-.56A3.48,3.48,0,0,0,205.15,292.6Z"/><path class="cls-3" d="M211.54,295.08h-1.08v-.69h0a1.45,1.45,0,0,1-.6.6,1.66,1.66,0,0,1-.81.23,1.83,1.83,0,0,1-1.42-.49,2.15,2.15,0,0,1-.44-1.47V290.1h1.1v3.06a1.33,1.33,0,0,0,.25.92.9.9,0,0,0,.7.27,1.43,1.43,0,0,0,.58-.11,1,1,0,0,0,.37-.28,1,1,0,0,0,.21-.43,2.35,2.35,0,0,0,.06-.54V290.1h1.1ZM208,289.29v-1h1.1v1Zm2.75-1v1h-1.1v-1Z"/><path class="cls-3" d="M212.15,290.1h1.2l1.3,3.72h0l1.26-3.72h1.15l-1.94,5.25-.26.64a2.65,2.65,0,0,1-.32.55,1.31,1.31,0,0,1-.47.37,1.5,1.5,0,0,1-.71.14,6.33,6.33,0,0,1-.76-.05v-.93l.26.05.26,0a1,1,0,0,0,.32-.05.48.48,0,0,0,.2-.14.69.69,0,0,0,.14-.22,1.49,1.49,0,0,0,.11-.28l.12-.39Z"/><path class="cls-3" d="M222.06,295.08H221v-.69h0a1.45,1.45,0,0,1-.6.6,1.61,1.61,0,0,1-.81.23,1.83,1.83,0,0,1-1.42-.49,2.15,2.15,0,0,1-.44-1.47V290.1h1.1v3.06a1.33,1.33,0,0,0,.25.92.91.91,0,0,0,.7.27,1.39,1.39,0,0,0,.58-.11,1,1,0,0,0,.37-.28,1,1,0,0,0,.21-.43A2.35,2.35,0,0,0,221,293V290.1h1.1Zm-3.57-5.79v-1h1.1v1Zm2.75-1v1h-1.09v-1Z"/><path class="cls-3" d="M223.25,288.21h1.09v3.91l2-2h1.34l-1.9,1.83,2.09,3.15h-1.34L225,292.66l-.66.64v1.78h-1.09Z"/><path class="cls-3" d="M228.41,288.21h1.1v6.87h-1.1Z"/><path class="cls-3" d="M235.08,295.08H234v-.69h0a1.57,1.57,0,0,1-.6.6,1.67,1.67,0,0,1-.82.23,1.86,1.86,0,0,1-1.42-.49,2.15,2.15,0,0,1-.43-1.47V290.1h1.09v3.06a1.39,1.39,0,0,0,.25.92.92.92,0,0,0,.71.27,1.35,1.35,0,0,0,.57-.11,1,1,0,0,0,.38-.28,1.15,1.15,0,0,0,.21-.43A2.35,2.35,0,0,0,234,293V290.1h1.1Zm-3.58-5.79v-1h1.1v1Zm2.76-1v1h-1.1v-1Z"/><path class="cls-3" d="M236.26,288.21h1.1v3.91l2-2h1.35l-1.91,1.83,2.09,3.15h-1.34L238,292.66l-.65.64v1.78h-1.1Z"/><path class="cls-3" d="M241.43,288.21h1.1v6.87h-1.1Z"/><path class="cls-3" d="M244.58,292.88a1.67,1.67,0,0,0,.08.55,1.35,1.35,0,0,0,.24.48,1.23,1.23,0,0,0,.42.32,1.54,1.54,0,0,0,1.37-.09,1.27,1.27,0,0,0,.44-.62h1a2.11,2.11,0,0,1-.3.72,2,2,0,0,1-1.18.86,2.68,2.68,0,0,1-1.81-.08,2.17,2.17,0,0,1-1.24-1.36,3.27,3.27,0,0,1-.16-1.06,3.06,3.06,0,0,1,.17-1,2.49,2.49,0,0,1,.48-.84,2.24,2.24,0,0,1,1.76-.78,2.26,2.26,0,0,1,1.05.24,2.45,2.45,0,0,1,.77.65,2.52,2.52,0,0,1,.45.93,2.83,2.83,0,0,1,.07,1.09Zm2.56-.73a2.13,2.13,0,0,0-.11-.5,1.46,1.46,0,0,0-.25-.42,1.39,1.39,0,0,0-.39-.28,1,1,0,0,0-.5-.11,1.29,1.29,0,0,0-.53.1,1,1,0,0,0-.4.28,1,1,0,0,0-.27.41,1.35,1.35,0,0,0-.11.52Z"/><path class="cls-3" d="M249.07,290.1h1v1h0a1.13,1.13,0,0,1,.19-.4,1.6,1.6,0,0,1,.34-.35,1.7,1.7,0,0,1,.43-.26,1.41,1.41,0,0,1,.49-.09h.27l.15,0v1.06l-.24,0h-.23a1.36,1.36,0,0,0-.53.11,1.21,1.21,0,0,0-.43.33,1.78,1.78,0,0,0-.29.53,2.34,2.34,0,0,0-.1.73v2.37h-1.1Z"/><path class="cls-3" d="M257,295.08h-1v-.67h0a1.35,1.35,0,0,1-.65.62,2.26,2.26,0,0,1-.89.19,2.34,2.34,0,0,1-1-.21,2.16,2.16,0,0,1-.73-.57,2.38,2.38,0,0,1-.43-.84,3.49,3.49,0,0,1-.14-1,3.43,3.43,0,0,1,.18-1.17,2.34,2.34,0,0,1,.48-.8,1.88,1.88,0,0,1,.7-.47,2.17,2.17,0,0,1,.79-.15,2.49,2.49,0,0,1,.47,0,2.54,2.54,0,0,1,.47.14,2.06,2.06,0,0,1,.4.25,1.34,1.34,0,0,1,.32.35h0v-2.54H257Zm-3.83-2.44a2.18,2.18,0,0,0,.09.63,1.46,1.46,0,0,0,.25.55,1.18,1.18,0,0,0,.42.38,1.24,1.24,0,0,0,.62.15,1.25,1.25,0,0,0,1.06-.56,1.58,1.58,0,0,0,.25-.56,2.3,2.3,0,0,0,.09-.64,2,2,0,0,0-.38-1.29,1.2,1.2,0,0,0-1-.46,1.3,1.3,0,0,0-.65.15,1.33,1.33,0,0,0-.43.42,1.43,1.43,0,0,0-.24.58A2.82,2.82,0,0,0,253.14,292.64Z"/><path class="cls-3" d="M259,292.88a1.67,1.67,0,0,0,.09.55,1.35,1.35,0,0,0,.24.48,1.23,1.23,0,0,0,.42.32,1.54,1.54,0,0,0,1.37-.09,1.27,1.27,0,0,0,.44-.62h1a2.11,2.11,0,0,1-.3.72,2.18,2.18,0,0,1-.51.54,2.3,2.3,0,0,1-.67.32,2.54,2.54,0,0,1-.78.12,2.61,2.61,0,0,1-1-.2,2.19,2.19,0,0,1-.76-.54,2.15,2.15,0,0,1-.47-.82,3.27,3.27,0,0,1-.16-1.06,2.82,2.82,0,0,1,.17-1,2.49,2.49,0,0,1,.48-.84,2.24,2.24,0,0,1,1.75-.78,2.27,2.27,0,0,1,1.06.24,2.45,2.45,0,0,1,.77.65,2.52,2.52,0,0,1,.45.93,2.83,2.83,0,0,1,.07,1.09Zm2.56-.73a1.45,1.45,0,0,0-.11-.5,1.27,1.27,0,0,0-.25-.42,1.21,1.21,0,0,0-.38-.28,1.06,1.06,0,0,0-.51-.11,1.27,1.27,0,0,0-.52.1,1.22,1.22,0,0,0-.67.69,1.58,1.58,0,0,0-.12.52Z"/><path class="cls-3" d="M266.23,288.21h1.09v3.91l2-2h1.34l-1.9,1.83,2.09,3.15H269.5L268,292.66l-.66.64v1.78h-1.09Z"/><path class="cls-3" d="M275.74,295.08h-1.08v-.69h0a1.57,1.57,0,0,1-.6.6,1.67,1.67,0,0,1-.82.23,1.86,1.86,0,0,1-1.42-.49,2.15,2.15,0,0,1-.43-1.47V290.1h1.09v3.06a1.39,1.39,0,0,0,.25.92.92.92,0,0,0,.71.27,1.35,1.35,0,0,0,.57-.11,1,1,0,0,0,.38-.28,1.33,1.33,0,0,0,.21-.43,2.35,2.35,0,0,0,.06-.54V290.1h1.1Z"/><path class="cls-3" d="M276.92,288.21H278v6.87h-1.1Z"/><path class="cls-3" d="M279.24,288.21h1.1v6.87h-1.1Z"/><path class="cls-3" d="M285.7,294a.65.65,0,0,0,.05.29.23.23,0,0,0,.21.09h.11l.16,0v.76l-.15,0-.19.05-.19,0h-.17a1,1,0,0,1-.55-.14.66.66,0,0,1-.29-.47,2,2,0,0,1-.81.46,3,3,0,0,1-.92.15,2.25,2.25,0,0,1-.64-.1,1.52,1.52,0,0,1-.54-.27,1.19,1.19,0,0,1-.38-.45,1.41,1.41,0,0,1-.14-.64,1.49,1.49,0,0,1,.17-.75,1.27,1.27,0,0,1,.44-.45,2,2,0,0,1,.62-.24c.23-.05.46-.08.69-.11s.38-.06.56-.08a3,3,0,0,0,.48-.08.75.75,0,0,0,.33-.18.49.49,0,0,0,.12-.36.63.63,0,0,0-.1-.35.6.6,0,0,0-.25-.2,1.13,1.13,0,0,0-.34-.1,2,2,0,0,0-.34,0,1.36,1.36,0,0,0-.76.19.75.75,0,0,0-.34.59h-1.1a1.67,1.67,0,0,1,.23-.79,1.49,1.49,0,0,1,.52-.51,2,2,0,0,1,.71-.27,3.59,3.59,0,0,1,.81-.08,2.94,2.94,0,0,1,.72.08,1.9,1.9,0,0,1,.64.25,1.27,1.27,0,0,1,.45.44,1.22,1.22,0,0,1,.18.67Zm-1.1-1.38a1.3,1.3,0,0,1-.62.19c-.24,0-.48.06-.73.11a1.32,1.32,0,0,0-.33.08.87.87,0,0,0-.29.14.59.59,0,0,0-.2.24.8.8,0,0,0-.07.36.45.45,0,0,0,.1.31.86.86,0,0,0,.26.2,1.15,1.15,0,0,0,.33.1l.32,0a1.89,1.89,0,0,0,.39-.05,1.4,1.4,0,0,0,.4-.16,1.14,1.14,0,0,0,.32-.3.75.75,0,0,0,.12-.43Z"/><path class="cls-3" d="M286.88,290.1h1v.74h0a2,2,0,0,1,.66-.65,1.79,1.79,0,0,1,.89-.23,1.86,1.86,0,0,1,1.29.42,1.62,1.62,0,0,1,.47,1.27v3.42h-1.09V292a1.36,1.36,0,0,0-.26-.85.88.88,0,0,0-.72-.26,1.18,1.18,0,0,0-.5.1.93.93,0,0,0-.37.28,1,1,0,0,0-.24.41,1.52,1.52,0,0,0-.09.51v2.94h-1.1Z"/><path class="cls-3" d="M292.44,295.08v-5h1.09v5Z"/><path class="cls-3" d="M294.76,288.21h1.09v6.87h-1.09Z"/><path class="cls-3" d="M301.22,294a.54.54,0,0,0,0,.29q0,.09.21.09h.11l.15,0v.76l-.14,0-.19.05-.19,0h-.17a1.08,1.08,0,0,1-.56-.14.72.72,0,0,1-.29-.47,1.92,1.92,0,0,1-.8.46,3,3,0,0,1-.92.15,2.25,2.25,0,0,1-.64-.1,1.66,1.66,0,0,1-.55-.27,1.26,1.26,0,0,1-.37-.45,1.29,1.29,0,0,1-.14-.64A1.39,1.39,0,0,1,297,293a1.27,1.27,0,0,1,.44-.45,2,2,0,0,1,.61-.24c.23-.05.46-.08.69-.11s.39-.06.57-.08a3,3,0,0,0,.48-.08.71.71,0,0,0,.32-.18.45.45,0,0,0,.13-.36.56.56,0,0,0-.11-.35.55.55,0,0,0-.25-.2,1.15,1.15,0,0,0-.33-.1,2.06,2.06,0,0,0-.34,0,1.34,1.34,0,0,0-.76.19.73.73,0,0,0-.34.59H297a1.67,1.67,0,0,1,.23-.79,1.49,1.49,0,0,1,.52-.51,2,2,0,0,1,.7-.27,3.71,3.71,0,0,1,.81-.08,2.84,2.84,0,0,1,.72.08,1.82,1.82,0,0,1,.64.25,1.3,1.3,0,0,1,.46.44,1.22,1.22,0,0,1,.18.67Zm-1.1-1.38a1.3,1.3,0,0,1-.62.19c-.24,0-.49.06-.73.11a1.3,1.3,0,0,0-.34.08,1,1,0,0,0-.29.14.65.65,0,0,0-.19.24.8.8,0,0,0-.07.36.45.45,0,0,0,.1.31.86.86,0,0,0,.26.2,1.09,1.09,0,0,0,.32.1l.33,0a1.89,1.89,0,0,0,.39-.05,1.52,1.52,0,0,0,.4-.16,1,1,0,0,0,.31-.3.69.69,0,0,0,.13-.43Z"/><path class="cls-3" d="M302.4,290.1h1v.7h0a2.24,2.24,0,0,1,.27-.34,1.35,1.35,0,0,1,.32-.26,1.53,1.53,0,0,1,.41-.17A2.09,2.09,0,0,1,305,290a1.86,1.86,0,0,1,.84.2,1.14,1.14,0,0,1,.55.63,2.21,2.21,0,0,1,.65-.61A1.7,1.7,0,0,1,308,290a1.83,1.83,0,0,1,1.23.38,1.66,1.66,0,0,1,.44,1.29v3.44h-1.1v-2.91a4.52,4.52,0,0,0,0-.54,1,1,0,0,0-.11-.42.66.66,0,0,0-.27-.28,1.15,1.15,0,0,0-.5-.09.93.93,0,0,0-.81.34,1.63,1.63,0,0,0-.25,1v2.92h-1.1v-3.2a1.32,1.32,0,0,0-.19-.78.77.77,0,0,0-.69-.26.92.92,0,0,0-.4.08,1,1,0,0,0-.35.25,1.27,1.27,0,0,0-.24.41,1.55,1.55,0,0,0-.09.55v2.95h-1.1Z"/><path class="cls-3" d="M314.94,294a.52.52,0,0,0,.06.29.2.2,0,0,0,.2.09h.12l.15,0v.76l-.15,0-.19.05-.19,0h-.16a1.06,1.06,0,0,1-.56-.14.69.69,0,0,1-.29-.47,2,2,0,0,1-.8.46,3.1,3.1,0,0,1-.92.15,2.32,2.32,0,0,1-.65-.1,1.71,1.71,0,0,1-.54-.27,1.29,1.29,0,0,1-.38-.45,1.41,1.41,0,0,1-.14-.64,1.49,1.49,0,0,1,.17-.75,1.29,1.29,0,0,1,.45-.45,1.94,1.94,0,0,1,.61-.24c.23-.05.46-.08.69-.11s.39-.06.57-.08a2.69,2.69,0,0,0,.47-.08.75.75,0,0,0,.33-.18.49.49,0,0,0,.12-.36.56.56,0,0,0-.1-.35.6.6,0,0,0-.25-.2,1.15,1.15,0,0,0-.33-.1,2.11,2.11,0,0,0-.35,0,1.36,1.36,0,0,0-.76.19.75.75,0,0,0-.34.59h-1.09a1.57,1.57,0,0,1,.23-.79,1.39,1.39,0,0,1,.51-.51,2.09,2.09,0,0,1,.71-.27A3.59,3.59,0,0,1,313,290a2.94,2.94,0,0,1,.72.08,1.9,1.9,0,0,1,.64.25,1.38,1.38,0,0,1,.46.44,1.31,1.31,0,0,1,.17.67Zm-1.1-1.38a1.26,1.26,0,0,1-.61.19c-.25,0-.49.06-.73.11a1.3,1.3,0,0,0-.34.08.87.87,0,0,0-.29.14.68.68,0,0,0-.2.24,1,1,0,0,0-.07.36.45.45,0,0,0,.11.31.82.82,0,0,0,.25.2,1.15,1.15,0,0,0,.33.1l.32,0a2,2,0,0,0,.4-.05,1.52,1.52,0,0,0,.4-.16,1.11,1.11,0,0,0,.31-.3.75.75,0,0,0,.12-.43Z"/><path class="cls-3" d="M316,290.1H320v.77l-2.85,3.34h3v.87h-4.38v-.77l2.75-3.34H316Z"/><path class="cls-3" d="M321,293.78h1.33v1.3H321Z"/></g></g></svg>