<svg xmlns="http://www.w3.org/2000/svg" viewBox="0 0 682.97 276.07"><defs><style>.cls-1{fill:#007e4d;}.cls-2{fill:#333;}.cls-3{fill:#fff;}.cls-4{fill:#1d1d1b;}.cls-5{fill:#b2b2b2;}</style></defs><g id="Layer_2" data-name="Layer 2"><g id="Layer_1-2" data-name="Layer 1"><path class="cls-1" d="M670.88,0H159.65a12.1,12.1,0,0,0-12.1,12.1v92.71a12.08,12.08,0,0,0,12.1,12.09H670.88A12.09,12.09,0,0,0,683,104.81V12.1A12.09,12.09,0,0,0,670.88,0Zm7.6,104.8a7.62,7.62,0,0,1-7.6,7.61H457V4.5H670.88a7.61,7.61,0,0,1,7.6,7.6Z"/><path class="cls-2" d="M470.82,24.8h27.33c16,0,25.61,9.37,25.61,23.13v.19c0,15.57-12,23.51-27.05,23.51H485.53V91.69H470.82Zm26.37,33.73c7.36,0,11.66-4.39,11.66-10.13v-.19c0-6.59-4.59-10.13-11.94-10.13H485.53V58.53Z"/><path class="cls-2" d="M533.22,24.8H563.8c8.5,0,15,2.29,19.49,6.79,3.83,3.82,5.74,8.88,5.74,15.29v.19c0,10.79-5.83,17.58-14.34,20.73L591,91.69h-17.2L559.5,70.29H547.94v21.4H533.22Zm29.62,32.49c7.27,0,11.28-3.73,11.28-9.46v-.19c0-6.4-4.3-9.56-11.56-9.56H547.94V57.29Z"/><path class="cls-2" d="M597.91,58.44v-.19c0-19,15-34.6,35.65-34.6S669,39,669,58.06v.19c0,19-15,34.59-35.64,34.59S597.91,77.45,597.91,58.44Zm55.72,0v-.19c0-11.47-8.41-21-20.26-21S613.3,46.59,613.3,58.06v.19c0,11.46,8.41,21,20.26,21S653.63,69.9,653.63,58.44Z"/><path class="cls-3" d="M173.87,24.8h16.24L207.6,71.91,225.09,24.8H241l-27,67.37h-13Z"/><path class="cls-3" d="M250.51,24.8h14.71V91.69H250.51Z"/><path class="cls-3" d="M280.51,24.8H331V37.89H295.13V51.46h31.54V64.55H295.13v14h36.32V91.69H280.51Z"/><path class="cls-3" d="M338,24.8h15.76l13.86,45.3,15-45.49h12.61l15,45.49L424,24.8h15.39L416.59,92.17h-12.8L388.69,48.4l-15.1,43.77H360.78Z"/><path class="cls-4" d="M245.58,131.31h2l4.74,13.82,4.55-13.87h1.54L263,145.13l4.74-13.82h2L263.78,148H262.2l-4.56-13.46L253.07,148h-1.56Z"/><path class="cls-4" d="M277.1,131.19h1.76l7.56,16.71h-2l-1.94-4.38h-9l-2,4.38h-1.92Zm4.63,10.64L278,133.37l-3.8,8.46Z"/><path class="cls-4" d="M292,133h-5.6v-1.73h13.06V133h-5.59V147.9H292Z"/><path class="cls-4" d="M302.85,131.31h12V133H304.72v5.66h9v1.71h-9v5.81H315v1.7H302.85Z"/><path class="cls-4" d="M318.73,131.31h7.13a6.54,6.54,0,0,1,4.72,1.66,4.48,4.48,0,0,1,1.28,3.27v0c0,2.75-1.9,4.38-4.51,4.83l5.1,6.78h-2.3l-4.81-6.45H320.6v6.45h-1.87Zm7,8.46c2.47,0,4.27-1.28,4.27-3.41v-.05c0-2.06-1.56-3.27-4.24-3.27H320.6v6.73Z"/><path class="cls-4" d="M347.29,133h-5.6v-1.73h13.06V133h-5.59V147.9h-1.87Z"/><path class="cls-4" d="M362.27,131.19H364l7.56,16.71h-2l-1.95-4.38h-9l-2,4.38H354.7Zm4.62,10.64-3.77-8.46-3.79,8.46Z"/><path class="cls-4" d="M374.85,131.31h1.76l10.45,13.3v-13.3h1.82V147.9h-1.49l-10.71-13.6v13.6h-1.83Z"/><path class="cls-4" d="M393.58,131.31h1.87v9.91l9.53-9.91h2.44l-7.14,7.25,7.42,9.34h-2.34l-6.38-8-3.53,3.58v4.45h-1.87Z"/><path class="cls-4" d="M417,139.65v0a8.38,8.38,0,0,1,8.4-8.58,8.51,8.51,0,0,1,6.47,2.63L430.58,135a7.21,7.21,0,0,0-5.22-2.27,6.5,6.5,0,0,0-6.42,6.8v.05a6.53,6.53,0,0,0,6.42,6.85,7.2,7.2,0,0,0,5.36-2.4l1.23,1.21a8.66,8.66,0,0,1-6.64,2.92A8.28,8.28,0,0,1,417,139.65Z"/><path class="cls-4" d="M434.11,139.65v0a8.46,8.46,0,1,1,16.92-.05v.05a8.46,8.46,0,1,1-16.92,0Zm15,0v0a6.6,6.6,0,0,0-6.54-6.85,6.51,6.51,0,0,0-6.5,6.8v.05a6.6,6.6,0,0,0,6.54,6.85A6.52,6.52,0,0,0,449.09,139.65Z"/><path class="cls-4" d="M455,131.31h1.75l10.46,13.3v-13.3H469V147.9h-1.49l-10.72-13.6v13.6H455Z"/><path class="cls-4" d="M478,133h-5.6v-1.73h13.06V133H479.9V147.9H478Z"/><path class="cls-4" d="M488.91,131.31H496a6.52,6.52,0,0,1,4.72,1.66,4.48,4.48,0,0,1,1.28,3.27v0c0,2.75-1.9,4.38-4.51,4.83l5.1,6.78h-2.3l-4.81-6.45h-4.74v6.45h-1.87Zm7,8.46c2.46,0,4.26-1.28,4.26-3.41v-.05c0-2.06-1.56-3.27-4.24-3.27h-5.12v6.73Z"/><path class="cls-4" d="M505.31,139.65v0a8.46,8.46,0,1,1,16.92-.05v.05a8.46,8.46,0,1,1-16.92,0Zm15,0v0a6.6,6.6,0,0,0-6.54-6.85,6.51,6.51,0,0,0-6.5,6.8v.05a6.6,6.6,0,0,0,6.54,6.85A6.52,6.52,0,0,0,520.29,139.65Z"/><path class="cls-4" d="M526.19,131.31h1.87v14.86h9.34v1.73H526.19Z"/><path class="cls-4" d="M540.77,131.31h1.87v14.86H552v1.73H540.77Z"/><path class="cls-4" d="M555.34,131.31h12V133H557.22v5.66h9v1.71h-9v5.81h10.24v1.7H555.34Z"/><path class="cls-4" d="M571.22,131.31h7.14a6.5,6.5,0,0,1,4.71,1.66,4.48,4.48,0,0,1,1.29,3.27v0c0,2.75-1.9,4.38-4.51,4.83l5.1,6.78h-2.3l-4.81-6.45H573.1v6.45h-1.88Zm7,8.46c2.47,0,4.27-1.28,4.27-3.41v-.05c0-2.06-1.57-3.27-4.24-3.27H573.1v6.73Z"/><path class="cls-5" d="M8.38,250.06a4.59,4.59,0,0,1-3.13,1,4.64,4.64,0,0,1-3.15-1,3.82,3.82,0,0,1-1.11-3v-6.22h2.2v6.22a4.15,4.15,0,0,0,.07.79,1.68,1.68,0,0,0,.29.7,1.67,1.67,0,0,0,.63.49,2.6,2.6,0,0,0,1.07.19,2.06,2.06,0,0,0,1.62-.53,2.49,2.49,0,0,0,.45-1.64v-6.22h2.2v6.22A3.77,3.77,0,0,1,8.38,250.06Z"/><path class="cls-5" d="M13.87,253a2.87,2.87,0,0,1-1.59.38l-.61,0-.61-.05v-1.64l.57.06a3.88,3.88,0,0,0,.59,0,.78.78,0,0,0,.58-.31.94.94,0,0,0,.19-.58,1.13,1.13,0,0,0-.09-.45l-2.53-6.79h2.11l1.64,4.95h0l1.58-4.95h2.06l-3,8.13A2.48,2.48,0,0,1,13.87,253Z"/><path class="cls-5" d="M18.38,245.81a2.3,2.3,0,0,1,.35-1.16,2.4,2.4,0,0,1,.78-.74,3.43,3.43,0,0,1,1.07-.4,6.11,6.11,0,0,1,1.2-.12,8.53,8.53,0,0,1,1.11.08,3.36,3.36,0,0,1,1,.3,2.1,2.1,0,0,1,.76.62,1.8,1.8,0,0,1,.29,1.06v3.77a7,7,0,0,0,.06.93,1.68,1.68,0,0,0,.19.68h-2c0-.12-.07-.23-.1-.35s0-.23-.05-.35a2.61,2.61,0,0,1-1.11.68,4.54,4.54,0,0,1-1.32.2,3.35,3.35,0,0,1-1-.13,2,2,0,0,1-.78-.39,1.84,1.84,0,0,1-.53-.67,2.37,2.37,0,0,1-.18-1,2.13,2.13,0,0,1,.21-1,1.84,1.84,0,0,1,.56-.64,2.48,2.48,0,0,1,.79-.36,8.79,8.79,0,0,1,.89-.19l.88-.11a7,7,0,0,0,.77-.12,1.38,1.38,0,0,0,.53-.25.54.54,0,0,0,.18-.47,1.08,1.08,0,0,0-.1-.51.78.78,0,0,0-.28-.29,1.11,1.11,0,0,0-.41-.14,2.6,2.6,0,0,0-.5,0,1.55,1.55,0,0,0-.92.25,1.12,1.12,0,0,0-.39.84ZM23,247.28a.79.79,0,0,1-.31.18,2.73,2.73,0,0,1-.41.1l-.46.07-.47.07a3.17,3.17,0,0,0-.44.12,1.34,1.34,0,0,0-.38.18.88.88,0,0,0-.26.31,1,1,0,0,0-.1.46,1.06,1.06,0,0,0,.1.45.73.73,0,0,0,.27.28,1.13,1.13,0,0,0,.39.15,2.32,2.32,0,0,0,.46,0,1.76,1.76,0,0,0,.91-.19,1.44,1.44,0,0,0,.48-.47,1.77,1.77,0,0,0,.19-.56,4.21,4.21,0,0,0,0-.44Z"/><path class="cls-5" d="M28.39,243.59v1.34h0a2.61,2.61,0,0,1,.37-.62,2.33,2.33,0,0,1,.55-.49,2.87,2.87,0,0,1,.66-.32,2.48,2.48,0,0,1,.73-.11,1.82,1.82,0,0,1,.43.07v1.85a2.27,2.27,0,0,0-.34-.05l-.37,0a2.17,2.17,0,0,0-.93.18,1.66,1.66,0,0,0-.61.5,2.12,2.12,0,0,0-.33.73,4.39,4.39,0,0,0-.09.91v3.27h-2v-7.24Z"/><path class="cls-5" d="M34,243.59v7.24H32v-7.24Z"/><path class="cls-5" d="M.8,255.5H4.14a2.35,2.35,0,0,1,1.48.43,1.51,1.51,0,0,1,.56,1.28,1.55,1.55,0,0,1-.26.89,1.59,1.59,0,0,1-.72.57v0a1.51,1.51,0,0,1,1,.6,2,2,0,0,1,.33,1.17,1.94,1.94,0,0,1-.15.76,1.44,1.44,0,0,1-.45.6,2.26,2.26,0,0,1-.79.41,3.84,3.84,0,0,1-1.14.15H.8ZM2,258.38H4a1.11,1.11,0,0,0,.73-.24,1.08,1.08,0,0,0,0-1.44,1.21,1.21,0,0,0-.76-.22H2Zm0,3H4.13a1.18,1.18,0,0,0,.85-.28,1.06,1.06,0,0,0,.3-.8,1,1,0,0,0-.3-.79,1.22,1.22,0,0,0-.85-.27H2Z"/><path class="cls-5" d="M11.79,262.38H10.71v-.7h0a1.45,1.45,0,0,1-.6.6,1.54,1.54,0,0,1-.81.23A1.8,1.8,0,0,1,7.86,262a2.12,2.12,0,0,1-.44-1.46V257.4h1.1v3.05a1.35,1.35,0,0,0,.25.93.91.91,0,0,0,.7.26,1.44,1.44,0,0,0,.58-.1,1.07,1.07,0,0,0,.37-.28,1.08,1.08,0,0,0,.21-.43,2.35,2.35,0,0,0,.06-.54V257.4h1.1Z"/><path class="cls-5" d="M15.65,255.5h1.1v6.88h-1.1Z"/><path class="cls-5" d="M20.22,262.51a2.57,2.57,0,0,1-1.06-.2,2.31,2.31,0,0,1-.79-.54,2.37,2.37,0,0,1-.49-.83,3.36,3.36,0,0,1,0-2.11,2.33,2.33,0,0,1,.49-.82,2.21,2.21,0,0,1,.79-.55,3.08,3.08,0,0,1,2.13,0,2.21,2.21,0,0,1,.79.55,2.33,2.33,0,0,1,.49.82,3.36,3.36,0,0,1,0,2.11,2.37,2.37,0,0,1-.49.83,2.31,2.31,0,0,1-.79.54A2.59,2.59,0,0,1,20.22,262.51Zm0-.87a1.29,1.29,0,0,0,.64-.15,1.31,1.31,0,0,0,.44-.4,1.85,1.85,0,0,0,.26-.57,2.56,2.56,0,0,0,0-1.27,1.85,1.85,0,0,0-.26-.57,1.28,1.28,0,0,0-.44-.39,1.19,1.19,0,0,0-.64-.16,1.18,1.18,0,0,0-.63.16,1.28,1.28,0,0,0-.44.39,1.85,1.85,0,0,0-.26.57,2.56,2.56,0,0,0,0,1.27,1.85,1.85,0,0,0,.26.57,1.31,1.31,0,0,0,.44.4A1.28,1.28,0,0,0,20.22,261.64Z"/><path class="cls-5" d="M28.25,262.12a2.12,2.12,0,0,1-.63,1.68,2.65,2.65,0,0,1-1.81.55,3.92,3.92,0,0,1-.76-.08,2.29,2.29,0,0,1-.69-.26,1.62,1.62,0,0,1-.53-.48,1.51,1.51,0,0,1-.25-.73h1.1a1,1,0,0,0,.16.38.85.85,0,0,0,.28.22,1,1,0,0,0,.35.11l.4,0a1.29,1.29,0,0,0,1-.33,1.33,1.33,0,0,0,.3-.94v-.76h0a1.55,1.55,0,0,1-.63.64,1.62,1.62,0,0,1-.86.24,2.25,2.25,0,0,1-1-.21,2,2,0,0,1-.7-.57,2.35,2.35,0,0,1-.39-.83,3.68,3.68,0,0,1-.13-1,3,3,0,0,1,.15-.95A2.41,2.41,0,0,1,24,258a2.06,2.06,0,0,1,.7-.54,2.1,2.1,0,0,1,.95-.2,1.92,1.92,0,0,1,.87.19,1.34,1.34,0,0,1,.6.62h0v-.68h1.1Zm-2.43-.61a1.21,1.21,0,0,0,.62-.15,1.18,1.18,0,0,0,.41-.39,1.74,1.74,0,0,0,.23-.56,2.7,2.7,0,0,0,.07-.63,2.56,2.56,0,0,0-.07-.62,1.6,1.6,0,0,0-.24-.53,1.1,1.1,0,0,0-.41-.36,1.31,1.31,0,0,0-.61-.14,1.1,1.1,0,0,0-.62.16,1.15,1.15,0,0,0-.4.39,1.74,1.74,0,0,0-.23.56,3.34,3.34,0,0,0-.06.62,2.48,2.48,0,0,0,.07.61,1.55,1.55,0,0,0,.24.52,1.45,1.45,0,0,0,.4.38A1.24,1.24,0,0,0,25.82,261.51Z"/><path class="cls-5" d="M31.64,262.51a2.54,2.54,0,0,1-1.06-.2,2.14,2.14,0,0,1-.79-.54,2.23,2.23,0,0,1-.49-.83,3.36,3.36,0,0,1,0-2.11,2.19,2.19,0,0,1,.49-.82,2,2,0,0,1,.79-.55,3.05,3.05,0,0,1,2.12,0,2.12,2.12,0,0,1,.79.55,2.19,2.19,0,0,1,.49.82,3.36,3.36,0,0,1,0,2.11,2.21,2.21,0,0,1-1.28,1.37A2.54,2.54,0,0,1,31.64,262.51Zm0-.87a1.32,1.32,0,0,0,.64-.15,1.41,1.41,0,0,0,.44-.4,1.83,1.83,0,0,0,.25-.57,2.29,2.29,0,0,0,.08-.64,2.27,2.27,0,0,0-.08-.63,1.83,1.83,0,0,0-.25-.57,1.38,1.38,0,0,0-.44-.39,1.36,1.36,0,0,0-1.28,0,1.38,1.38,0,0,0-.44.39,1.83,1.83,0,0,0-.25.57,2.29,2.29,0,0,0,0,1.27,1.83,1.83,0,0,0,.25.57,1.41,1.41,0,0,0,.44.4A1.32,1.32,0,0,0,31.64,261.64Z"/><path class="cls-5" d="M37,255.34h1.05l-2.76,7.2h-1Z"/><path class="cls-5" d="M42.62,261.27a.55.55,0,0,0,.06.29c0,.06.1.08.2.08h.27v.76l-.15,0-.18,0a.69.69,0,0,1-.2,0h-.16a1.06,1.06,0,0,1-.56-.13.69.69,0,0,1-.29-.48,1.89,1.89,0,0,1-.8.47,3.43,3.43,0,0,1-.92.14,2.32,2.32,0,0,1-.65-.09,1.71,1.71,0,0,1-.54-.27,1.24,1.24,0,0,1-.37-.45,1.31,1.31,0,0,1-.14-.64,1.49,1.49,0,0,1,.16-.75,1.24,1.24,0,0,1,.45-.46,2.34,2.34,0,0,1,.61-.23,5.5,5.5,0,0,1,.69-.11,4.1,4.1,0,0,1,.57-.08,2.94,2.94,0,0,0,.48-.09.66.66,0,0,0,.32-.17.49.49,0,0,0,.12-.36.54.54,0,0,0-.1-.35.72.72,0,0,0-.25-.21.9.9,0,0,0-.33-.09l-.35,0a1.45,1.45,0,0,0-.76.19.74.74,0,0,0-.33.6h-1.1a1.61,1.61,0,0,1,.23-.8,1.65,1.65,0,0,1,.51-.51,2.09,2.09,0,0,1,.71-.27,4.28,4.28,0,0,1,.81-.07,3.38,3.38,0,0,1,.72.07,2.14,2.14,0,0,1,.64.25,1.52,1.52,0,0,1,.46.45,1.19,1.19,0,0,1,.17.67Zm-1.09-1.39a1.34,1.34,0,0,1-.62.2c-.24,0-.49.06-.73.1l-.34.08a1.32,1.32,0,0,0-.29.15.57.57,0,0,0-.19.24.8.8,0,0,0-.08.36.49.49,0,0,0,.11.31.82.82,0,0,0,.25.2,1.59,1.59,0,0,0,.33.1,2.23,2.23,0,0,0,.72,0,1.55,1.55,0,0,0,.4-.17,1,1,0,0,0,.31-.29.79.79,0,0,0,.13-.44Z"/><path class="cls-5" d="M43.81,257.4h1v.69h0a2.91,2.91,0,0,1,.26-.33,1.35,1.35,0,0,1,.33-.26,1.53,1.53,0,0,1,.41-.17,2.09,2.09,0,0,1,.53-.06,1.74,1.74,0,0,1,.84.2,1.12,1.12,0,0,1,.55.62,2.17,2.17,0,0,1,.65-.6,1.7,1.7,0,0,1,.91-.22,1.78,1.78,0,0,1,1.23.38,1.66,1.66,0,0,1,.44,1.29v3.44h-1.1v-2.91c0-.2,0-.38,0-.54a1.09,1.09,0,0,0-.11-.43.59.59,0,0,0-.27-.27,1.05,1.05,0,0,0-.51-.1.91.91,0,0,0-.8.35,1.63,1.63,0,0,0-.26,1v2.92H46.87v-3.2a1.28,1.28,0,0,0-.19-.78.78.78,0,0,0-.69-.27,1,1,0,0,0-.41.09,1,1,0,0,0-.34.25,1.22,1.22,0,0,0-.24.4,1.38,1.38,0,0,0-.1.55v3H43.81Z"/><path class="cls-5" d="M52.21,255.5h1.1V258h0a1.22,1.22,0,0,1,.28-.32,1.54,1.54,0,0,1,.36-.25,1.56,1.56,0,0,1,.41-.15,1.63,1.63,0,0,1,.43-.05,2.32,2.32,0,0,1,1,.2,2,2,0,0,1,.73.57,2.39,2.39,0,0,1,.43.84,3.65,3.65,0,0,1,0,2,2.51,2.51,0,0,1-.4.84,1.91,1.91,0,0,1-.66.57,2,2,0,0,1-1,.22l-.5,0a2.52,2.52,0,0,1-.49-.13,2.22,2.22,0,0,1-.42-.25,1.3,1.3,0,0,1-.31-.41h0v.69h-1ZM56,259.89a2.82,2.82,0,0,0-.08-.65,1.92,1.92,0,0,0-.26-.56,1.3,1.3,0,0,0-.44-.4,1.15,1.15,0,0,0-.59-.15,1.22,1.22,0,0,0-1.05.48,2.16,2.16,0,0,0-.35,1.28,2.58,2.58,0,0,0,.09.7,1.49,1.49,0,0,0,.27.55,1.4,1.4,0,0,0,.44.37,1.26,1.26,0,0,0,.6.13,1.22,1.22,0,0,0,.63-.15,1.27,1.27,0,0,0,.43-.4,1.67,1.67,0,0,0,.24-.56A2.73,2.73,0,0,0,56,259.89Z"/><path class="cls-5" d="M58.09,255.5h1.1v6.88h-1.1Z"/><path class="cls-5" d="M61.24,260.17a2.1,2.1,0,0,0,.08.56,1.41,1.41,0,0,0,.25.47,1.09,1.09,0,0,0,.41.32,1.4,1.4,0,0,0,.6.12,1.28,1.28,0,0,0,.77-.2,1.26,1.26,0,0,0,.44-.62h1a2.11,2.11,0,0,1-.3.72,2.15,2.15,0,0,1-1.18.86,2.76,2.76,0,0,1-.77.11,2.61,2.61,0,0,1-1-.19,2.23,2.23,0,0,1-.77-.54,2.33,2.33,0,0,1-.47-.83,3.52,3.52,0,0,1-.16-1.06,3,3,0,0,1,.17-1,2.49,2.49,0,0,1,.48-.84,2.27,2.27,0,0,1,.76-.57,2.29,2.29,0,0,1,1-.21,2.26,2.26,0,0,1,1.05.24,2.34,2.34,0,0,1,.78.65,2.87,2.87,0,0,1,.45.93,3,3,0,0,1,.07,1.08Zm2.56-.72a1.72,1.72,0,0,0-.11-.5,1.46,1.46,0,0,0-.25-.42,1.28,1.28,0,0,0-.39-.29,1.18,1.18,0,0,0-.5-.11,1.51,1.51,0,0,0-.53.1,1.26,1.26,0,0,0-.4.28,1.51,1.51,0,0,0-.27.42,1.46,1.46,0,0,0-.11.52Z"/><path class="cls-5" d="M65.73,257.4h1v.69h0l.27-.33a1.35,1.35,0,0,1,.33-.26,1.46,1.46,0,0,1,.4-.17,2.15,2.15,0,0,1,.53-.06,1.77,1.77,0,0,1,.85.2,1.12,1.12,0,0,1,.55.62,2.17,2.17,0,0,1,.65-.6,1.68,1.68,0,0,1,.91-.22,1.81,1.81,0,0,1,1.23.38,1.66,1.66,0,0,1,.43,1.29v3.44H71.86v-2.91c0-.2,0-.38,0-.54a1.29,1.29,0,0,0-.11-.43.61.61,0,0,0-.28-.27,1,1,0,0,0-.5-.1.94.94,0,0,0-.81.35,1.71,1.71,0,0,0-.25,1v2.92H68.8v-3.2a1.36,1.36,0,0,0-.19-.78.8.8,0,0,0-.69-.27,1,1,0,0,0-.41.09,1.07,1.07,0,0,0-.35.25,1.22,1.22,0,0,0-.24.4,1.59,1.59,0,0,0-.09.55v3h-1.1Z"/><path class="cls-5" d="M77.73,260.09a1.54,1.54,0,0,0,.13.67,1.22,1.22,0,0,0,.38.46,1.64,1.64,0,0,0,.55.26,3,3,0,0,0,.68.08,2.17,2.17,0,0,0,.67-.09,1.33,1.33,0,0,0,.46-.24,1,1,0,0,0,.25-.33,1,1,0,0,0,.07-.38.81.81,0,0,0-.17-.58,1,1,0,0,0-.39-.27,8.35,8.35,0,0,0-.86-.25l-1.19-.32a2.29,2.29,0,0,1-.74-.3,1.53,1.53,0,0,1-.71-.91,1.88,1.88,0,0,1-.07-.53,1.84,1.84,0,0,1,.21-.9,2.15,2.15,0,0,1,.57-.63,2.49,2.49,0,0,1,.81-.37,3.65,3.65,0,0,1,1.93,0,2.37,2.37,0,0,1,.84.42,2,2,0,0,1,.79,1.63H80.73a1.13,1.13,0,0,0-.45-.93,1.74,1.74,0,0,0-1-.28,3.13,3.13,0,0,0-.43,0,1.34,1.34,0,0,0-.41.15,1,1,0,0,0-.3.27.76.76,0,0,0-.12.44.74.74,0,0,0,.22.57,1.48,1.48,0,0,0,.6.31l.3.08.59.16.64.17.45.12a2.16,2.16,0,0,1,.59.29,2.09,2.09,0,0,1,.42.42,2,2,0,0,1,.25.51,1.89,1.89,0,0,1,.08.53,1.91,1.91,0,0,1-.24,1,2,2,0,0,1-.62.67,2.84,2.84,0,0,1-.87.38,4.35,4.35,0,0,1-2.11,0,2.67,2.67,0,0,1-.91-.45,2.08,2.08,0,0,1-.61-.76,2.38,2.38,0,0,1-.24-1.1Z"/><path class="cls-5" d="M85.3,262.51a2.57,2.57,0,0,1-1.06-.2,2.31,2.31,0,0,1-.79-.54,2.37,2.37,0,0,1-.49-.83,3.36,3.36,0,0,1,0-2.11,2.33,2.33,0,0,1,.49-.82,2.21,2.21,0,0,1,.79-.55,3.08,3.08,0,0,1,2.13,0,2.21,2.21,0,0,1,.79.55,2.33,2.33,0,0,1,.49.82,3.36,3.36,0,0,1,0,2.11,2.37,2.37,0,0,1-.49.83,2.31,2.31,0,0,1-.79.54A2.59,2.59,0,0,1,85.3,262.51Zm0-.87a1.29,1.29,0,0,0,.64-.15,1.31,1.31,0,0,0,.44-.4,1.85,1.85,0,0,0,.26-.57,2.56,2.56,0,0,0,0-1.27,1.85,1.85,0,0,0-.26-.57,1.28,1.28,0,0,0-.44-.39,1.19,1.19,0,0,0-.64-.16,1.18,1.18,0,0,0-.63.16,1.28,1.28,0,0,0-.44.39,1.85,1.85,0,0,0-.26.57,2.56,2.56,0,0,0,0,1.27,1.85,1.85,0,0,0,.26.57,1.31,1.31,0,0,0,.44.4A1.28,1.28,0,0,0,85.3,261.64Z"/><path class="cls-5" d="M88.76,255.5h1.1v6.88h-1.1Z"/><path class="cls-5" d="M91.08,255.5h1.1v1h-1.1Zm0,1.9h1.1v5h-1.1Z"/><path class="cls-5" d="M98.06,262.38H97v-.68h0a1.28,1.28,0,0,1-.64.62,2.17,2.17,0,0,1-.9.19,2.4,2.4,0,0,1-1-.21,1.9,1.9,0,0,1-.72-.56,2.39,2.39,0,0,1-.43-.84,3.55,3.55,0,0,1-.15-1,3.41,3.41,0,0,1,.18-1.16,2.46,2.46,0,0,1,.49-.81,1.89,1.89,0,0,1,.69-.47,2.21,2.21,0,0,1,.8-.14,2.56,2.56,0,0,1,.47,0,1.88,1.88,0,0,1,.46.14,1.69,1.69,0,0,1,.41.24,1.47,1.47,0,0,1,.31.35h0V255.5h1.1Zm-3.83-2.44a2.27,2.27,0,0,0,.08.63,1.72,1.72,0,0,0,.25.55,1.22,1.22,0,0,0,.43.38,1.2,1.2,0,0,0,.61.14,1.22,1.22,0,0,0,.63-.15,1.31,1.31,0,0,0,.44-.4,2.1,2.1,0,0,0,.25-.57,2.74,2.74,0,0,0,.08-.64,2,2,0,0,0-.37-1.29,1.25,1.25,0,0,0-1-.46,1.23,1.23,0,0,0-.65.16,1.4,1.4,0,0,0-.43.41,1.87,1.87,0,0,0-.24.58A3,3,0,0,0,94.23,259.94Z"/><path class="cls-5" d="M102.08,255.5h5v1h-3.74v1.8h3.46v1h-3.46v2h3.81v1h-5Z"/><path class="cls-5" d="M108,255.5h1.1v6.88H108Z"/><path class="cls-5" d="M111.17,260.17a2.1,2.1,0,0,0,.08.56,1.25,1.25,0,0,0,.25.47,1.09,1.09,0,0,0,.41.32,1.4,1.4,0,0,0,.6.12,1.28,1.28,0,0,0,.77-.2,1.26,1.26,0,0,0,.44-.62h1a2.11,2.11,0,0,1-.3.72,2.15,2.15,0,0,1-1.18.86,2.76,2.76,0,0,1-.77.11,2.61,2.61,0,0,1-1-.19,2.23,2.23,0,0,1-.77-.54,2.33,2.33,0,0,1-.47-.83,3.23,3.23,0,0,1-.16-1.06,3,3,0,0,1,.17-1,2.49,2.49,0,0,1,.48-.84,2.27,2.27,0,0,1,.76-.57,2.29,2.29,0,0,1,1-.21,2.26,2.26,0,0,1,1,.24,2.34,2.34,0,0,1,.78.65,2.66,2.66,0,0,1,.44.93,2.8,2.8,0,0,1,.08,1.08Zm2.56-.72a1.72,1.72,0,0,0-.11-.5,1.46,1.46,0,0,0-.25-.42,1.42,1.42,0,0,0-.39-.29,1.18,1.18,0,0,0-.5-.11,1.51,1.51,0,0,0-.53.1,1.26,1.26,0,0,0-.4.28,1.51,1.51,0,0,0-.27.42,1.46,1.46,0,0,0-.11.52Z"/><path class="cls-5" d="M119,259.06a1,1,0,0,0-.37-.69,1.17,1.17,0,0,0-.76-.24,1.9,1.9,0,0,0-.45.07,1.18,1.18,0,0,0-.45.27,1.61,1.61,0,0,0-.33.55,2.62,2.62,0,0,0-.14.92,3.27,3.27,0,0,0,.07.62,1.93,1.93,0,0,0,.23.55,1.38,1.38,0,0,0,.41.39,1.17,1.17,0,0,0,.61.14,1.07,1.07,0,0,0,.79-.29,1.38,1.38,0,0,0,.39-.84h1.1a2.41,2.41,0,0,1-.74,1.49,2.24,2.24,0,0,1-1.54.51,2.37,2.37,0,0,1-1-.2,2.19,2.19,0,0,1-.76-.54,2.16,2.16,0,0,1-.47-.81,3.3,3.3,0,0,1-.16-1,3.6,3.6,0,0,1,.16-1.05A2.26,2.26,0,0,1,116,258a2.21,2.21,0,0,1,.77-.57,2.52,2.52,0,0,1,1.07-.2,2.75,2.75,0,0,1,.82.11,2,2,0,0,1,.69.33,1.68,1.68,0,0,1,.5.56,1.78,1.78,0,0,1,.23.79Z"/><path class="cls-5" d="M120.52,257.4h.82v-1.49h1.1v1.49h1v.82h-1v2.65a2.36,2.36,0,0,0,0,.3.64.64,0,0,0,.06.22.42.42,0,0,0,.16.13,1.06,1.06,0,0,0,.29,0h.23a.85.85,0,0,0,.23,0v.85l-.35,0h-.36a2.28,2.28,0,0,1-.7-.08.88.88,0,0,1-.41-.24.76.76,0,0,1-.2-.4,2.84,2.84,0,0,1-.07-.55v-2.93h-.82Z"/><path class="cls-5" d="M124.22,257.4h1v1h0a1.17,1.17,0,0,1,.19-.39,1.41,1.41,0,0,1,.34-.35,1.7,1.7,0,0,1,.43-.26,1.41,1.41,0,0,1,.49-.09H127l.15,0v1.06l-.24,0-.23,0a1.21,1.21,0,0,0-.53.12,1.31,1.31,0,0,0-.43.32,1.62,1.62,0,0,0-.28.54,2,2,0,0,0-.11.73v2.37h-1.1Z"/><path class="cls-5" d="M129.72,262.51a2.54,2.54,0,0,1-1.06-.2,2.14,2.14,0,0,1-.79-.54,2.23,2.23,0,0,1-.49-.83,3.36,3.36,0,0,1,0-2.11,2.19,2.19,0,0,1,.49-.82,2,2,0,0,1,.79-.55,3.05,3.05,0,0,1,2.12,0,2.12,2.12,0,0,1,.79.55,2.19,2.19,0,0,1,.49.82,3.36,3.36,0,0,1,0,2.11,2.21,2.21,0,0,1-1.28,1.37A2.54,2.54,0,0,1,129.72,262.51Zm0-.87a1.28,1.28,0,0,0,.63-.15,1.44,1.44,0,0,0,.45-.4,1.83,1.83,0,0,0,.25-.57,2.29,2.29,0,0,0,.08-.64,2.27,2.27,0,0,0-.08-.63,1.83,1.83,0,0,0-.25-.57,1.41,1.41,0,0,0-.45-.39,1.18,1.18,0,0,0-.63-.16,1.19,1.19,0,0,0-.64.16,1.38,1.38,0,0,0-.44.39,1.83,1.83,0,0,0-.25.57,2.29,2.29,0,0,0,0,1.27,1.83,1.83,0,0,0,.25.57,1.41,1.41,0,0,0,.44.4A1.29,1.29,0,0,0,129.72,261.64Z"/><path class="cls-5" d="M133.15,257.4h1v.75a1.87,1.87,0,0,1,.66-.65,1.71,1.71,0,0,1,.89-.23,1.86,1.86,0,0,1,1.29.42,1.59,1.59,0,0,1,.48,1.27v3.42h-1.1v-3.13a1.34,1.34,0,0,0-.25-.85.91.91,0,0,0-.72-.27,1.27,1.27,0,0,0-.5.1,1.08,1.08,0,0,0-.38.28,1.46,1.46,0,0,0-.33.93v2.94h-1.09Z"/><path class="cls-5" d="M141.5,255.5h1.2v3.13l3.07-3.13h1.48l-2.75,2.75,2.94,4.13h-1.5l-2.25-3.29-1,1v2.31h-1.2Z"/><path class="cls-5" d="M150.22,262.51a2.54,2.54,0,0,1-1.06-.2,2.21,2.21,0,0,1-1.28-1.37,3.36,3.36,0,0,1,0-2.11,2.19,2.19,0,0,1,.49-.82,2.12,2.12,0,0,1,.79-.55,2.71,2.71,0,0,1,1.06-.19,2.8,2.8,0,0,1,1.07.19,2.09,2.09,0,0,1,.78.55,2.35,2.35,0,0,1,.5.82,3.56,3.56,0,0,1,0,2.11,2.39,2.39,0,0,1-.5.83,2.18,2.18,0,0,1-.78.54A2.62,2.62,0,0,1,150.22,262.51Zm0-.87a1.32,1.32,0,0,0,.64-.15,1.41,1.41,0,0,0,.44-.4,1.63,1.63,0,0,0,.25-.57,2.29,2.29,0,0,0,0-1.27,1.63,1.63,0,0,0-.25-.57,1.38,1.38,0,0,0-.44-.39,1.22,1.22,0,0,0-.64-.16,1.18,1.18,0,0,0-.63.16,1.41,1.41,0,0,0-.45.39,1.83,1.83,0,0,0-.25.57,2.27,2.27,0,0,0-.08.63,2.29,2.29,0,0,0,.08.64,1.83,1.83,0,0,0,.25.57,1.44,1.44,0,0,0,.45.4A1.28,1.28,0,0,0,150.22,261.64Z"/><path class="cls-5" d="M153.65,257.4h1v.73l0,0a1.84,1.84,0,0,1,.65-.65,1.72,1.72,0,0,1,.9-.23,1.89,1.89,0,0,1,1.29.42A1.62,1.62,0,0,1,158,259v3.42h-1.1v-3.13a1.28,1.28,0,0,0-.25-.85.89.89,0,0,0-.72-.27,1.31,1.31,0,0,0-.5.1,1.17,1.17,0,0,0-.38.28,1.44,1.44,0,0,0-.24.42,1.7,1.7,0,0,0-.08.51v2.94h-1.1Z"/><path class="cls-5" d="M158.67,257.4h.83v-1.49h1.1v1.49h1v.82h-1v2.65a2.63,2.63,0,0,0,0,.3.48.48,0,0,0,.07.22.35.35,0,0,0,.16.13,1.06,1.06,0,0,0,.29,0h.23a.91.91,0,0,0,.23,0v.85l-.36,0h-.35a2.28,2.28,0,0,1-.7-.08.83.83,0,0,1-.41-.24.85.85,0,0,1-.21-.4,4,4,0,0,1-.06-.55v-2.93h-.83Z"/><path class="cls-5" d="M162.38,257.4h1v1h0a1,1,0,0,1,.19-.39,1.56,1.56,0,0,1,.33-.35,1.76,1.76,0,0,1,.44-.26,1.37,1.37,0,0,1,.49-.09h.27l.15,0v1.06l-.24,0-.24,0a1.17,1.17,0,0,0-.52.12,1.21,1.21,0,0,0-.43.32,1.63,1.63,0,0,0-.29.54,2.3,2.3,0,0,0-.1.73v2.37h-1.1Z"/><path class="cls-5" d="M167.88,262.51a2.59,2.59,0,0,1-1.07-.2,2.31,2.31,0,0,1-.79-.54,2.37,2.37,0,0,1-.49-.83,3.36,3.36,0,0,1,0-2.11A2.33,2.33,0,0,1,166,258a2.21,2.21,0,0,1,.79-.55,3.08,3.08,0,0,1,2.13,0,2.21,2.21,0,0,1,.79.55,2.33,2.33,0,0,1,.49.82,3.36,3.36,0,0,1,0,2.11,2.37,2.37,0,0,1-.49.83,2.31,2.31,0,0,1-.79.54A2.57,2.57,0,0,1,167.88,262.51Zm0-.87a1.28,1.28,0,0,0,.63-.15,1.31,1.31,0,0,0,.44-.4,1.85,1.85,0,0,0,.26-.57,2.56,2.56,0,0,0,0-1.27,1.85,1.85,0,0,0-.26-.57,1.28,1.28,0,0,0-.44-.39,1.18,1.18,0,0,0-.63-.16,1.19,1.19,0,0,0-.64.16,1.28,1.28,0,0,0-.44.39,1.85,1.85,0,0,0-.26.57,2.56,2.56,0,0,0,0,1.27,1.85,1.85,0,0,0,.26.57,1.31,1.31,0,0,0,.44.4A1.29,1.29,0,0,0,167.88,261.64Z"/><path class="cls-5" d="M171.33,255.5h1.1v6.88h-1.1Z"/><path class="cls-5" d="M175.8,255.5h5.56v1h-2.18v5.84H178v-5.84H175.8Z"/><path class="cls-5" d="M181.79,260.17a1.77,1.77,0,0,0,.09.56,1.23,1.23,0,0,0,.24.47,1.12,1.12,0,0,0,.42.32,1.24,1.24,0,0,0,1.81-.7h1a1.92,1.92,0,0,1-.29.72,2,2,0,0,1-.51.53,2.1,2.1,0,0,1-.67.33,2.88,2.88,0,0,1-.78.11,2.61,2.61,0,0,1-1-.19,2.17,2.17,0,0,1-1.23-1.37,3.23,3.23,0,0,1-.16-1.06,2.77,2.77,0,0,1,.17-1,2.49,2.49,0,0,1,.48-.84,2.24,2.24,0,0,1,1.75-.78,2.27,2.27,0,0,1,1.06.24,2.21,2.21,0,0,1,.77.65,2.52,2.52,0,0,1,.45.93,2.8,2.8,0,0,1,.07,1.08Zm2.57-.72a2.15,2.15,0,0,0-.12-.5,1.27,1.27,0,0,0-.25-.42,1.24,1.24,0,0,0-.38-.29,1.19,1.19,0,0,0-.51-.11,1.46,1.46,0,0,0-.52.1,1.2,1.2,0,0,0-.67.7,1.47,1.47,0,0,0-.12.52Z"/><path class="cls-5" d="M186.32,255.5h1.1v3.91l2-2h1.35l-1.91,1.83,2.09,3.15h-1.34L188.07,260l-.65.64v1.78h-1.1Z"/><path class="cls-5" d="M191.46,257.4h1v.73l0,0a1.84,1.84,0,0,1,.65-.65,1.72,1.72,0,0,1,.9-.23,1.89,1.89,0,0,1,1.29.42,1.62,1.62,0,0,1,.47,1.27v3.42h-1.1v-3.13a1.28,1.28,0,0,0-.25-.85.89.89,0,0,0-.72-.27,1.31,1.31,0,0,0-.5.1,1.17,1.17,0,0,0-.38.28,1.44,1.44,0,0,0-.24.42,1.7,1.7,0,0,0-.08.51v2.94h-1.1Z"/><path class="cls-5" d="M199.27,262.51a2.59,2.59,0,0,1-1.07-.2,2.31,2.31,0,0,1-.79-.54,2.37,2.37,0,0,1-.49-.83,3.36,3.36,0,0,1,0-2.11,2.33,2.33,0,0,1,.49-.82,2.21,2.21,0,0,1,.79-.55,3.08,3.08,0,0,1,2.13,0,2.21,2.21,0,0,1,.79.55,2.33,2.33,0,0,1,.49.82,3.36,3.36,0,0,1,0,2.11,2.37,2.37,0,0,1-.49.83,2.31,2.31,0,0,1-.79.54A2.57,2.57,0,0,1,199.27,262.51Zm0-.87a1.28,1.28,0,0,0,.63-.15,1.31,1.31,0,0,0,.44-.4,1.85,1.85,0,0,0,.26-.57,2.56,2.56,0,0,0,0-1.27,1.85,1.85,0,0,0-.26-.57,1.28,1.28,0,0,0-.44-.39,1.18,1.18,0,0,0-.63-.16,1.19,1.19,0,0,0-.64.16,1.28,1.28,0,0,0-.44.39,1.85,1.85,0,0,0-.26.57,2.56,2.56,0,0,0,0,1.27,1.85,1.85,0,0,0,.26.57,1.31,1.31,0,0,0,.44.4A1.29,1.29,0,0,0,199.27,261.64Z"/><path class="cls-5" d="M202.72,255.5h1.1v6.88h-1.1Z"/><path class="cls-5" d="M207.29,262.51a2.57,2.57,0,0,1-1.06-.2,2.31,2.31,0,0,1-.79-.54,2.37,2.37,0,0,1-.49-.83,3.36,3.36,0,0,1,0-2.11,2.33,2.33,0,0,1,.49-.82,2.21,2.21,0,0,1,.79-.55,3.08,3.08,0,0,1,2.13,0,2.21,2.21,0,0,1,.79.55,2.33,2.33,0,0,1,.49.82,3.36,3.36,0,0,1,0,2.11,2.37,2.37,0,0,1-.49.83,2.31,2.31,0,0,1-.79.54A2.59,2.59,0,0,1,207.29,262.51Zm0-.87a1.29,1.29,0,0,0,.64-.15,1.31,1.31,0,0,0,.44-.4,1.85,1.85,0,0,0,.26-.57,2.56,2.56,0,0,0,0-1.27,1.85,1.85,0,0,0-.26-.57,1.28,1.28,0,0,0-.44-.39,1.19,1.19,0,0,0-.64-.16,1.18,1.18,0,0,0-.63.16,1.28,1.28,0,0,0-.44.39,1.85,1.85,0,0,0-.26.57,2.56,2.56,0,0,0,0,1.27,1.85,1.85,0,0,0,.26.57,1.31,1.31,0,0,0,.44.4A1.28,1.28,0,0,0,207.29,261.64Z"/><path class="cls-5" d="M210.75,257.4h1.1v5.4a1.79,1.79,0,0,1-.33,1.15,1.33,1.33,0,0,1-1.1.4h-.27l-.22,0v-.87l.2,0h.18c.2,0,.32-.06.37-.18a1.52,1.52,0,0,0,.07-.55Zm0-1.9h1.1v1h-1.1Z"/><path class="cls-5" d="M213.07,255.5h1.1v1h-1.1Zm0,1.9h1.1v5h-1.1Z"/><path class="cls-5" d="M215.39,255.5h1.1v6.88h-1.1Z"/><path class="cls-5" d="M218.54,260.17a1.77,1.77,0,0,0,.08.56,1.23,1.23,0,0,0,.24.47,1.12,1.12,0,0,0,.42.32,1.37,1.37,0,0,0,.6.12,1.3,1.3,0,0,0,.77-.2,1.26,1.26,0,0,0,.44-.62h1a2.11,2.11,0,0,1-.3.72,2.15,2.15,0,0,1-1.18.86,2.87,2.87,0,0,1-.77.11,2.57,2.57,0,0,1-1-.19,2.14,2.14,0,0,1-.77-.54,2.19,2.19,0,0,1-.47-.83,3.23,3.23,0,0,1-.16-1.06,3,3,0,0,1,.17-1,2.49,2.49,0,0,1,.48-.84,2.24,2.24,0,0,1,1.76-.78,2.26,2.26,0,0,1,1.05.24,2.21,2.21,0,0,1,.77.65,2.52,2.52,0,0,1,.45.93,3,3,0,0,1,.08,1.08Zm2.56-.72a2.13,2.13,0,0,0-.11-.5,1.46,1.46,0,0,0-.25-.42,1.42,1.42,0,0,0-.39-.29,1.18,1.18,0,0,0-.5-.11,1.47,1.47,0,0,0-.53.1,1.15,1.15,0,0,0-.4.28,1.17,1.17,0,0,0-.27.42,1.27,1.27,0,0,0-.11.52Z"/><path class="cls-5" d="M223,257.4h1v1h0a1.17,1.17,0,0,1,.19-.39,1.41,1.41,0,0,1,.34-.35,1.7,1.7,0,0,1,.43-.26,1.43,1.43,0,0,1,.5-.09h.26l.15,0v1.06l-.24,0-.23,0a1.21,1.21,0,0,0-.53.12,1.31,1.31,0,0,0-.43.32,1.62,1.62,0,0,0-.28.54,2,2,0,0,0-.11.73v2.37H223Z"/><path class="cls-5" d="M226.45,255.5h1.1v1h-1.1Zm0,1.9h1.1v5h-1.1Z"/><path class="cls-5" d="M232.36,260.09a1.54,1.54,0,0,0,.13.67,1.22,1.22,0,0,0,.38.46,1.64,1.64,0,0,0,.55.26,3,3,0,0,0,.68.08,2.24,2.24,0,0,0,.68-.09,1.37,1.37,0,0,0,.45-.24,1,1,0,0,0,.25-.33,1,1,0,0,0,.08-.38.81.81,0,0,0-.18-.58,1,1,0,0,0-.39-.27c-.25-.09-.53-.17-.85-.25l-1.2-.32a2.29,2.29,0,0,1-.74-.3,1.53,1.53,0,0,1-.71-.91,1.88,1.88,0,0,1-.07-.53,1.84,1.84,0,0,1,.21-.9,2.05,2.05,0,0,1,.58-.63,2.35,2.35,0,0,1,.8-.37,3.65,3.65,0,0,1,1.93,0,2.37,2.37,0,0,1,.84.42,2,2,0,0,1,.79,1.63h-1.21a1.13,1.13,0,0,0-.45-.93,1.74,1.74,0,0,0-1-.28,3.28,3.28,0,0,0-.43,0,1.44,1.44,0,0,0-.41.15,1,1,0,0,0-.3.27.76.76,0,0,0-.12.44.75.75,0,0,0,.23.57,1.38,1.38,0,0,0,.59.31l.3.08.59.16.64.17.45.12a2,2,0,0,1,.59.29,2.09,2.09,0,0,1,.42.42,2,2,0,0,1,.25.51,1.89,1.89,0,0,1,.08.53,1.92,1.92,0,0,1-.86,1.66,2.74,2.74,0,0,1-.87.38,4.21,4.21,0,0,1-1,.12,4.32,4.32,0,0,1-1.11-.14A2.67,2.67,0,0,1,232,262a2.18,2.18,0,0,1-.61-.76,2.38,2.38,0,0,1-.24-1.1Z"/><path class="cls-5" d="M241.82,261.27a.55.55,0,0,0,.06.29c0,.06.1.08.2.08h.27v.76l-.15,0-.19,0a.58.58,0,0,1-.19,0h-.16a1.06,1.06,0,0,1-.56-.13.69.69,0,0,1-.29-.48,1.89,1.89,0,0,1-.8.47,3.43,3.43,0,0,1-.92.14,2.32,2.32,0,0,1-.65-.09,1.71,1.71,0,0,1-.54-.27,1.38,1.38,0,0,1-.38-.45,1.44,1.44,0,0,1-.14-.64,1.49,1.49,0,0,1,.17-.75,1.24,1.24,0,0,1,.45-.46,2.21,2.21,0,0,1,.61-.23,5.5,5.5,0,0,1,.69-.11,4.1,4.1,0,0,1,.57-.08,2.62,2.62,0,0,0,.47-.09.65.65,0,0,0,.33-.17.49.49,0,0,0,.12-.36.54.54,0,0,0-.1-.35.72.72,0,0,0-.25-.21.9.9,0,0,0-.33-.09l-.35,0a1.45,1.45,0,0,0-.76.19.77.77,0,0,0-.34.6h-1.09a1.61,1.61,0,0,1,.23-.8,1.55,1.55,0,0,1,.51-.51,2.09,2.09,0,0,1,.71-.27,4.28,4.28,0,0,1,.81-.07,3.51,3.51,0,0,1,.72.07,2.14,2.14,0,0,1,.64.25,1.52,1.52,0,0,1,.46.45,1.28,1.28,0,0,1,.17.67Zm-1.1-1.39a1.26,1.26,0,0,1-.61.2c-.25,0-.49.06-.73.1l-.34.08a1.13,1.13,0,0,0-.29.15.68.68,0,0,0-.2.24,1,1,0,0,0-.07.36.49.49,0,0,0,.11.31.82.82,0,0,0,.25.2,1.59,1.59,0,0,0,.33.1,1.89,1.89,0,0,0,.32,0,1.94,1.94,0,0,0,.4,0,1.55,1.55,0,0,0,.4-.17,1,1,0,0,0,.31-.29.78.78,0,0,0,.12-.44Z"/><path class="cls-5" d="M243,257.4h1v.73l0,0a1.87,1.87,0,0,1,.66-.65,1.71,1.71,0,0,1,.89-.23,1.86,1.86,0,0,1,1.29.42,1.59,1.59,0,0,1,.48,1.27v3.42h-1.1v-3.13a1.34,1.34,0,0,0-.25-.85.9.9,0,0,0-.72-.27,1.27,1.27,0,0,0-.5.1,1.08,1.08,0,0,0-.38.28,1.46,1.46,0,0,0-.33.93v2.94H243Z"/><path class="cls-5" d="M248.62,261.08H250v1.3h-1.34Z"/><path class="cls-5" d="M253.39,257.4h1.2l1.26,3.82h0l1.21-3.82h1.13l-1.78,5H255.2Z"/><path class="cls-5" d="M259.74,260.17a1.77,1.77,0,0,0,.08.56,1.23,1.23,0,0,0,.24.47,1.12,1.12,0,0,0,.42.32,1.24,1.24,0,0,0,1.81-.7h1a2.11,2.11,0,0,1-.3.72,2.15,2.15,0,0,1-1.18.86,2.88,2.88,0,0,1-.78.11,2.56,2.56,0,0,1-1-.19,2.14,2.14,0,0,1-.77-.54,2.19,2.19,0,0,1-.47-.83,3.23,3.23,0,0,1-.16-1.06,3,3,0,0,1,.17-1,2.49,2.49,0,0,1,.48-.84,2.24,2.24,0,0,1,1.75-.78,2.27,2.27,0,0,1,1.06.24,2.21,2.21,0,0,1,.77.65,2.52,2.52,0,0,1,.45.93,2.8,2.8,0,0,1,.07,1.08Zm2.56-.72a2.13,2.13,0,0,0-.11-.5,1.73,1.73,0,0,0-.25-.42,1.42,1.42,0,0,0-.39-.29,1.19,1.19,0,0,0-.51-.11,1.46,1.46,0,0,0-.52.1,1.15,1.15,0,0,0-.4.28,1.17,1.17,0,0,0-.27.42,1.27,1.27,0,0,0-.11.52Z"/><path class="cls-5" d="M266.41,255.5H272v1h-2.18v5.84h-1.21v-5.84h-2.17Z"/><path class="cls-5" d="M272.64,255.5h1.1v1h-1.1Zm0,1.9h1.1v5h-1.1Z"/><path class="cls-5" d="M278.29,259.06a1,1,0,0,0-.37-.69,1.17,1.17,0,0,0-.76-.24,1.9,1.9,0,0,0-.45.07,1.18,1.18,0,0,0-.45.27,1.61,1.61,0,0,0-.33.55,2.62,2.62,0,0,0-.14.92,3.27,3.27,0,0,0,.07.62,1.7,1.7,0,0,0,.24.55,1.24,1.24,0,0,0,.4.39,1.17,1.17,0,0,0,.61.14,1.11,1.11,0,0,0,.8-.29,1.43,1.43,0,0,0,.38-.84h1.1a2.46,2.46,0,0,1-.73,1.49,2.28,2.28,0,0,1-1.55.51,2.4,2.4,0,0,1-1-.2,2.19,2.19,0,0,1-.76-.54,2.3,2.3,0,0,1-.47-.81,3.31,3.31,0,0,1-.15-1,3.6,3.6,0,0,1,.15-1.05,2.4,2.4,0,0,1,.46-.85,2.21,2.21,0,0,1,.77-.57,2.52,2.52,0,0,1,1.07-.2,2.75,2.75,0,0,1,.82.11,2.15,2.15,0,0,1,.7.33,1.81,1.81,0,0,1,.72,1.35Z"/><path class="cls-5" d="M280.37,261.08h1.34v1.3h-1.34Z"/><path class="cls-5" d="M287.63,255.5h1.28l2.65,6.88h-1.29l-.65-1.82h-2.74l-.64,1.82H285Zm-.42,4.14h2.1l-1-2.95h0Z"/><path class="cls-5" d="M292.15,261.08h1.33v1.3h-1.33Z"/><path class="cls-5" d="M295.66,263.92a1.74,1.74,0,0,0,.32.11,1,1,0,0,0,.31,0h.2a.6.6,0,0,0,.19-.06.33.33,0,0,0,.14-.12.31.31,0,0,0,.05-.2.29.29,0,0,0-.14-.28.53.53,0,0,0-.3-.09.7.7,0,0,0-.38.1l-.21-.19.54-.72a5.58,5.58,0,0,1-.59-.09,2.05,2.05,0,0,1-.68-.33,1.53,1.53,0,0,1-.47-.54,1.64,1.64,0,0,1-.17-.76h1.09a.85.85,0,0,0,.37.67,1.41,1.41,0,0,0,.76.19,2.24,2.24,0,0,0,.35,0,2,2,0,0,0,.37-.09.75.75,0,0,0,.29-.2.51.51,0,0,0,.1-.34.5.5,0,0,0-.16-.35,1,1,0,0,0-.37-.21,3.12,3.12,0,0,0-.51-.14l-.59-.13a5.08,5.08,0,0,1-.59-.16,2,2,0,0,1-.51-.26,1.22,1.22,0,0,1-.36-.42,1.33,1.33,0,0,1-.14-.63,1.14,1.14,0,0,1,.2-.68,1.52,1.52,0,0,1,.5-.44,2.43,2.43,0,0,1,.67-.24,4.53,4.53,0,0,1,.71-.06,3,3,0,0,1,.74.08,2,2,0,0,1,.63.26,1.57,1.57,0,0,1,.48.48,1.65,1.65,0,0,1,.23.71h-1.14a.7.7,0,0,0-.37-.53,1.45,1.45,0,0,0-.65-.14l-.27,0a1.63,1.63,0,0,0-.3.07.63.63,0,0,0-.23.16.33.33,0,0,0-.1.26.42.42,0,0,0,.14.33,1.16,1.16,0,0,0,.37.21,3.15,3.15,0,0,0,.51.13l.6.13.59.16a2.44,2.44,0,0,1,.51.26,1.37,1.37,0,0,1,.37.42,1.25,1.25,0,0,1,.13.61,1.27,1.27,0,0,1-.2.75,1.46,1.46,0,0,1-.52.5,2.25,2.25,0,0,1-.72.28,2.57,2.57,0,0,1-.62.08l-.33.44h0l.13,0h.19a.9.9,0,0,1,.28,0,.71.71,0,0,1,.26.13.9.9,0,0,1,.2.23.66.66,0,0,1,.07.32.76.76,0,0,1-.1.41.87.87,0,0,1-.27.27,1.79,1.79,0,0,1-.37.15,1.51,1.51,0,0,1-.42,0,2.32,2.32,0,0,1-.53,0,1.68,1.68,0,0,1-.46-.17Z"/><path class="cls-5" d="M299.82,261.08h1.34v1.3h-1.34Z"/><path class="cls-5" d="M302.57,257.66a.57.57,0,0,0,.47-.29,1.29,1.29,0,0,0,.12-.57h-.59v-1.3h1.21v1.3a1.41,1.41,0,0,1-.33.95,1.32,1.32,0,0,1-.88.47Z"/><path class="cls-5" d="M304.54,257.4h1.2l1.3,3.72h0l1.26-3.72h1.14l-1.93,5.25c-.09.22-.18.44-.27.64a2,2,0,0,1-.31.54,1.34,1.34,0,0,1-.47.38,1.63,1.63,0,0,1-.71.14,4.77,4.77,0,0,1-.76-.06v-.92l.26,0a1.1,1.1,0,0,0,.26,0,.93.93,0,0,0,.31,0,.55.55,0,0,0,.21-.14.83.83,0,0,0,.14-.22,3,3,0,0,0,.11-.29l.12-.38Z"/><path class="cls-5" d="M310.94,260.17a1.77,1.77,0,0,0,.08.56,1.23,1.23,0,0,0,.24.47,1.12,1.12,0,0,0,.42.32,1.34,1.34,0,0,0,.6.12,1.3,1.3,0,0,0,.77-.2,1.26,1.26,0,0,0,.44-.62h1a2.11,2.11,0,0,1-.3.72,2.15,2.15,0,0,1-1.18.86,2.87,2.87,0,0,1-.77.11,2.57,2.57,0,0,1-1-.19,2.14,2.14,0,0,1-.77-.54A2.19,2.19,0,0,1,310,261a3.23,3.23,0,0,1-.16-1.06,3,3,0,0,1,.17-1,2.49,2.49,0,0,1,.48-.84,2.24,2.24,0,0,1,1.76-.78,2.26,2.26,0,0,1,1.05.24,2.21,2.21,0,0,1,.77.65,2.52,2.52,0,0,1,.45.93,2.61,2.61,0,0,1,.07,1.08Zm2.56-.72a2.13,2.13,0,0,0-.11-.5,1.46,1.46,0,0,0-.25-.42,1.42,1.42,0,0,0-.39-.29,1.18,1.18,0,0,0-.5-.11,1.47,1.47,0,0,0-.53.1,1.15,1.15,0,0,0-.4.28,1.51,1.51,0,0,0-.27.42,1.27,1.27,0,0,0-.11.52Z"/><path class="cls-5" d="M317.56,257.4h1.2l1.3,3.72h0l1.26-3.72h1.15l-1.94,5.25c-.09.22-.17.44-.26.64a2,2,0,0,1-.32.54,1.26,1.26,0,0,1-.47.38,1.6,1.6,0,0,1-.71.14,4.87,4.87,0,0,1-.76-.06v-.92l.26,0a1.1,1.1,0,0,0,.26,0,1,1,0,0,0,.32,0,.77.77,0,0,0,.21-.14.8.8,0,0,0,.13-.22,1.6,1.6,0,0,0,.11-.29l.13-.38Z"/><path class="cls-5" d="M324,260.17a2.1,2.1,0,0,0,.08.56,1.41,1.41,0,0,0,.25.47,1.17,1.17,0,0,0,.41.32,1.4,1.4,0,0,0,.6.12,1.28,1.28,0,0,0,.77-.2,1.2,1.2,0,0,0,.44-.62h1a2.11,2.11,0,0,1-.3.72,2.15,2.15,0,0,1-1.18.86,2.76,2.76,0,0,1-.77.11,2.61,2.61,0,0,1-1-.19,2.23,2.23,0,0,1-.77-.54A2.49,2.49,0,0,1,323,261a3.52,3.52,0,0,1-.16-1.06,3,3,0,0,1,.17-1,2.49,2.49,0,0,1,.48-.84,2.27,2.27,0,0,1,.76-.57,2.29,2.29,0,0,1,1-.21,2.26,2.26,0,0,1,1.05.24,2.34,2.34,0,0,1,.78.65,2.87,2.87,0,0,1,.45.93,3,3,0,0,1,.07,1.08Zm2.56-.72a1.72,1.72,0,0,0-.11-.5,1.27,1.27,0,0,0-.25-.42,1.37,1.37,0,0,0-.38-.29,1.23,1.23,0,0,0-.51-.11,1.42,1.42,0,0,0-.52.1,1.2,1.2,0,0,0-.41.28,1.51,1.51,0,0,0-.27.42,1.46,1.46,0,0,0-.11.52Z"/><path class="cls-5" d="M328,257.4h.82v-1.49h1.1v1.49h1v.82h-1v2.65a2.63,2.63,0,0,0,0,.3.63.63,0,0,0,.07.22.42.42,0,0,0,.16.13,1.06,1.06,0,0,0,.29,0h.23a.91.91,0,0,0,.23,0v.85l-.35,0h-.36a2.28,2.28,0,0,1-.7-.08.88.88,0,0,1-.41-.24.76.76,0,0,1-.2-.4,2.84,2.84,0,0,1-.07-.55v-2.93H328Z"/><path class="cls-5" d="M331.69,255.5h1.1v3.91l2-2h1.35l-1.91,1.83,2.09,3.15H335L333.44,260l-.65.64v1.78h-1.1Z"/><path class="cls-5" d="M336.86,255.5H338v1h-1.1Zm0,1.9H338v5h-1.1Z"/><path class="cls-5" d="M339.18,255.5h1.1v6.88h-1.1Z"/><path class="cls-5" d="M341.5,255.5h1.1v1h-1.1Zm0,1.9h1.1v5h-1.1Z"/><path class="cls-5" d="M346.49,255.5h1.1v3.91l2-2h1.34l-1.9,1.83,2.09,3.15h-1.34L348.25,260l-.66.64v1.78h-1.1Z"/><path class="cls-5" d="M356,262.38h-1.07v-.7h0a1.68,1.68,0,0,1-1.42.83,1.83,1.83,0,0,1-1.42-.49,2.12,2.12,0,0,1-.44-1.46V257.4h1.1v3.05a1.4,1.4,0,0,0,.25.93.91.91,0,0,0,.71.26,1.35,1.35,0,0,0,.57-.1,1.11,1.11,0,0,0,.38-.28,1.44,1.44,0,0,0,.21-.43,2.35,2.35,0,0,0,.06-.54V257.4H356Z"/><path class="cls-5" d="M357.16,257.4h1v1h0a1,1,0,0,1,.19-.39,1.56,1.56,0,0,1,.33-.35,2,2,0,0,1,.44-.26,1.41,1.41,0,0,1,.49-.09h.27l.15,0v1.06l-.24,0-.23,0a1.18,1.18,0,0,0-.53.12,1.21,1.21,0,0,0-.43.32,1.63,1.63,0,0,0-.29.54,2.3,2.3,0,0,0-.1.73v2.37h-1.1Z"/><path class="cls-5" d="M364.92,262.38h-1.08v-.7h0a1.45,1.45,0,0,1-.6.6,1.56,1.56,0,0,1-.81.23A1.8,1.8,0,0,1,361,262a2.07,2.07,0,0,1-.44-1.46V257.4h1.1v3.05a1.35,1.35,0,0,0,.25.93.89.89,0,0,0,.7.26,1.44,1.44,0,0,0,.58-.1,1.07,1.07,0,0,0,.37-.28,1.08,1.08,0,0,0,.21-.43,2.35,2.35,0,0,0,.06-.54V257.4h1.1Z"/><path class="cls-5" d="M366.07,257.4h1v.69h0l.27-.33a1.52,1.52,0,0,1,.32-.26,1.68,1.68,0,0,1,.41-.17,2.15,2.15,0,0,1,.53-.06,1.8,1.8,0,0,1,.85.2,1.12,1.12,0,0,1,.55.62,2.14,2.14,0,0,1,.64-.6,1.74,1.74,0,0,1,.92-.22,1.81,1.81,0,0,1,1.23.38,1.66,1.66,0,0,1,.43,1.29v3.44H372.2v-2.91c0-.2,0-.38,0-.54a1.29,1.29,0,0,0-.11-.43.66.66,0,0,0-.28-.27,1,1,0,0,0-.5-.1.94.94,0,0,0-.81.35,1.71,1.71,0,0,0-.25,1v2.92h-1.1v-3.2a1.36,1.36,0,0,0-.18-.78.8.8,0,0,0-.69-.27,1,1,0,0,0-.41.09,1.07,1.07,0,0,0-.35.25,1.22,1.22,0,0,0-.24.4,1.59,1.59,0,0,0-.09.55v3h-1.1Z"/><path class="cls-5" d="M376.62,257.4h.83v-1.49h1.1v1.49h1v.82h-1v2.65a2.63,2.63,0,0,0,0,.3.63.63,0,0,0,.07.22.42.42,0,0,0,.16.13,1.06,1.06,0,0,0,.29,0h.23a.91.91,0,0,0,.23,0v.85l-.36,0h-.35a2.28,2.28,0,0,1-.7-.08.83.83,0,0,1-.41-.24.85.85,0,0,1-.21-.4,4,4,0,0,1-.06-.55v-2.93h-.83Z"/><path class="cls-5" d="M384.5,261.27a.69.69,0,0,0,.05.29.23.23,0,0,0,.21.08H385v.76l-.15,0-.19,0a.63.63,0,0,1-.19,0h-.17a1,1,0,0,1-.55-.13.66.66,0,0,1-.29-.48,1.93,1.93,0,0,1-.81.47,3.32,3.32,0,0,1-.92.14,2.25,2.25,0,0,1-.64-.09,1.52,1.52,0,0,1-.54-.27,1.27,1.27,0,0,1-.38-.45,1.44,1.44,0,0,1-.14-.64,1.49,1.49,0,0,1,.17-.75,1.22,1.22,0,0,1,.44-.46,2.28,2.28,0,0,1,.62-.23,5.5,5.5,0,0,1,.69-.11,3.78,3.78,0,0,1,.56-.08,2.94,2.94,0,0,0,.48-.09.65.65,0,0,0,.33-.17.49.49,0,0,0,.12-.36.61.61,0,0,0-.1-.35.72.72,0,0,0-.25-.21.9.9,0,0,0-.33-.09l-.35,0a1.45,1.45,0,0,0-.76.19.77.77,0,0,0-.34.6h-1.1a1.71,1.71,0,0,1,.23-.8,1.69,1.69,0,0,1,.52-.51,2,2,0,0,1,.71-.27,4.28,4.28,0,0,1,.81-.07,3.51,3.51,0,0,1,.72.07,2.25,2.25,0,0,1,.64.25,1.38,1.38,0,0,1,.45.45,1.2,1.2,0,0,1,.18.67Zm-1.1-1.39a1.3,1.3,0,0,1-.61.2c-.25,0-.49.06-.74.1l-.33.08a1.13,1.13,0,0,0-.29.15.59.59,0,0,0-.2.24.8.8,0,0,0-.07.36.48.48,0,0,0,.1.31.86.86,0,0,0,.26.2,1.59,1.59,0,0,0,.33.1,1.77,1.77,0,0,0,.32,0,1.84,1.84,0,0,0,.39,0,1.42,1.42,0,0,0,.4-.17,1,1,0,0,0,.32-.29.78.78,0,0,0,.12-.44Z"/><path class="cls-5" d="M385.68,257.4h1v1h0a1.17,1.17,0,0,1,.19-.39,1.41,1.41,0,0,1,.34-.35,1.7,1.7,0,0,1,.43-.26,1.41,1.41,0,0,1,.49-.09h.27l.15,0v1.06l-.24,0-.23,0a1.3,1.3,0,0,0-1,.44,1.84,1.84,0,0,0-.29.54,2.3,2.3,0,0,0-.1.73v2.37h-1.1Z"/><path class="cls-5" d="M393.24,261.27a.69.69,0,0,0,.05.29.23.23,0,0,0,.21.08h.27v.76l-.15,0-.19,0a.63.63,0,0,1-.19,0h-.17a1,1,0,0,1-.55-.13.66.66,0,0,1-.29-.48,1.93,1.93,0,0,1-.81.47,3.32,3.32,0,0,1-.92.14,2.25,2.25,0,0,1-.64-.09,1.52,1.52,0,0,1-.54-.27,1.27,1.27,0,0,1-.38-.45,1.44,1.44,0,0,1-.14-.64,1.49,1.49,0,0,1,.17-.75,1.22,1.22,0,0,1,.44-.46,2.28,2.28,0,0,1,.62-.23,5.5,5.5,0,0,1,.69-.11,4,4,0,0,1,.56-.08,2.94,2.94,0,0,0,.48-.09.65.65,0,0,0,.33-.17.49.49,0,0,0,.12-.36.61.61,0,0,0-.1-.35.72.72,0,0,0-.25-.21.9.9,0,0,0-.33-.09l-.35,0a1.45,1.45,0,0,0-.76.19.77.77,0,0,0-.34.6H389a1.71,1.71,0,0,1,.23-.8,1.69,1.69,0,0,1,.52-.51,2,2,0,0,1,.71-.27,4.28,4.28,0,0,1,.81-.07,3.51,3.51,0,0,1,.72.07,2.14,2.14,0,0,1,.64.25,1.38,1.38,0,0,1,.45.45,1.2,1.2,0,0,1,.18.67Zm-1.1-1.39a1.3,1.3,0,0,1-.61.2c-.25,0-.49.06-.74.1l-.33.08a1.13,1.13,0,0,0-.29.15.59.59,0,0,0-.2.24.8.8,0,0,0-.07.36.48.48,0,0,0,.1.31.86.86,0,0,0,.26.2,1.59,1.59,0,0,0,.33.1,2.17,2.17,0,0,0,.71,0,1.42,1.42,0,0,0,.4-.17,1,1,0,0,0,.32-.29.78.78,0,0,0,.12-.44Z"/><path class="cls-5" d="M393.93,257.4h.82V257a2.07,2.07,0,0,1,.12-.77,1,1,0,0,1,.74-.66,2.24,2.24,0,0,1,.52-.06,3.39,3.39,0,0,1,.77.07v.86l-.23-.05h-.28a.59.59,0,0,0-.38.11.44.44,0,0,0-.16.41v.51h.93v.82h-.93v4.16h-1.1v-4.16h-.82Z"/><path class="cls-5" d="M397.48,262.38v-5h1.1v5Z"/><path class="cls-5" d="M399.77,257.4h1v.73l0,0a1.87,1.87,0,0,1,.66-.65,1.71,1.71,0,0,1,.89-.23,1.86,1.86,0,0,1,1.29.42,1.59,1.59,0,0,1,.47,1.27v3.42h-1.09v-3.13a1.41,1.41,0,0,0-.25-.85.91.91,0,0,0-.72-.27,1.36,1.36,0,0,0-.51.1,1.13,1.13,0,0,0-.37.28,1.46,1.46,0,0,0-.33.93v2.94h-1.1Z"/><path class="cls-5" d="M410,262.38h-1v-.68h0a1.27,1.27,0,0,1-.65.62,2.09,2.09,0,0,1-.89.19,2.37,2.37,0,0,1-1-.21,1.9,1.9,0,0,1-.72-.56,2.41,2.41,0,0,1-.44-.84,3.92,3.92,0,0,1-.14-1,3.41,3.41,0,0,1,.18-1.16,2.31,2.31,0,0,1,.49-.81,1.89,1.89,0,0,1,.69-.47,2.2,2.2,0,0,1,.79-.14,2.59,2.59,0,0,1,.48,0,1.88,1.88,0,0,1,.46.14,1.69,1.69,0,0,1,.41.24,1.47,1.47,0,0,1,.31.35h0V255.5H410Zm-3.83-2.44a2.27,2.27,0,0,0,.08.63,1.72,1.72,0,0,0,.25.55,1.22,1.22,0,0,0,.43.38,1.17,1.17,0,0,0,.61.14,1.22,1.22,0,0,0,.63-.15,1.41,1.41,0,0,0,.44-.4,2.1,2.1,0,0,0,.25-.57,2.74,2.74,0,0,0,.08-.64,2.06,2.06,0,0,0-.37-1.29,1.26,1.26,0,0,0-1-.46,1.21,1.21,0,0,0-.65.16,1.4,1.4,0,0,0-.43.41,1.87,1.87,0,0,0-.24.58A3,3,0,0,0,406.16,259.94Z"/><path class="cls-5" d="M415.35,261.27a.69.69,0,0,0,0,.29.23.23,0,0,0,.21.08h.27v.76l-.15,0-.19,0a.63.63,0,0,1-.19,0h-.16a1,1,0,0,1-.56-.13.66.66,0,0,1-.29-.48,1.93,1.93,0,0,1-.81.47,3.3,3.3,0,0,1-.91.14,2.32,2.32,0,0,1-.65-.09,1.52,1.52,0,0,1-.54-.27,1.27,1.27,0,0,1-.38-.45,1.44,1.44,0,0,1-.14-.64,1.49,1.49,0,0,1,.17-.75,1.22,1.22,0,0,1,.44-.46,2.41,2.41,0,0,1,.62-.23,5.5,5.5,0,0,1,.69-.11,4,4,0,0,1,.56-.08,2.94,2.94,0,0,0,.48-.09.65.65,0,0,0,.33-.17.49.49,0,0,0,.12-.36.54.54,0,0,0-.1-.35.72.72,0,0,0-.25-.21.9.9,0,0,0-.34-.09l-.34,0a1.45,1.45,0,0,0-.76.19.77.77,0,0,0-.34.6h-1.1a1.61,1.61,0,0,1,.24-.8,1.55,1.55,0,0,1,.51-.51,2,2,0,0,1,.71-.27,4.28,4.28,0,0,1,.81-.07,3.51,3.51,0,0,1,.72.07,2.14,2.14,0,0,1,.64.25,1.52,1.52,0,0,1,.46.45,1.28,1.28,0,0,1,.17.67Zm-1.1-1.39a1.3,1.3,0,0,1-.62.2c-.24,0-.48.06-.73.1l-.33.08a1.13,1.13,0,0,0-.29.15.59.59,0,0,0-.2.24.8.8,0,0,0-.07.36.48.48,0,0,0,.1.31,1,1,0,0,0,.26.2,1.59,1.59,0,0,0,.33.1,2.17,2.17,0,0,0,.71,0,1.42,1.42,0,0,0,.4-.17,1,1,0,0,0,.32-.29.78.78,0,0,0,.12-.44Z"/><path class="cls-5" d="M416.53,257.4h1v.73l0,0a1.87,1.87,0,0,1,.66-.65,1.69,1.69,0,0,1,.89-.23,1.86,1.86,0,0,1,1.29.42,1.59,1.59,0,0,1,.47,1.27v3.42h-1.09v-3.13a1.41,1.41,0,0,0-.25-.85.92.92,0,0,0-.73-.27,1.35,1.35,0,0,0-.5.1,1.13,1.13,0,0,0-.37.28,1.46,1.46,0,0,0-.33.93v2.94h-1.1Z"/><path class="cls-5" d="M424.23,257.4h.83v-1.49h1.1v1.49h1v.82h-1v2.65a2.63,2.63,0,0,0,0,.3.63.63,0,0,0,.07.22.42.42,0,0,0,.16.13,1.06,1.06,0,0,0,.29,0h.23a.91.91,0,0,0,.23,0v.85l-.36,0h-.35a2.28,2.28,0,0,1-.7-.08.83.83,0,0,1-.41-.24.85.85,0,0,1-.21-.4,4,4,0,0,1-.06-.55v-2.93h-.83Z"/><path class="cls-5" d="M428.8,260.17a1.77,1.77,0,0,0,.08.56,1.23,1.23,0,0,0,.24.47,1.12,1.12,0,0,0,.42.32,1.24,1.24,0,0,0,1.81-.7h1a2.11,2.11,0,0,1-.3.72,2.15,2.15,0,0,1-1.18.86,2.88,2.88,0,0,1-.78.11,2.64,2.64,0,0,1-1-.19,2.17,2.17,0,0,1-1.23-1.37,3.23,3.23,0,0,1-.16-1.06,2.77,2.77,0,0,1,.17-1,2.49,2.49,0,0,1,.48-.84,2.24,2.24,0,0,1,1.76-.78,2.26,2.26,0,0,1,1.05.24,2.21,2.21,0,0,1,.77.65,2.52,2.52,0,0,1,.45.93,2.8,2.8,0,0,1,.07,1.08Zm2.56-.72a2.13,2.13,0,0,0-.11-.5,1.46,1.46,0,0,0-.25-.42,1.42,1.42,0,0,0-.39-.29,1.18,1.18,0,0,0-.5-.11,1.47,1.47,0,0,0-.53.1,1.15,1.15,0,0,0-.4.28,1.17,1.17,0,0,0-.27.42,1.27,1.27,0,0,0-.11.52Z"/><path class="cls-5" d="M434.12,260.78a.82.82,0,0,0,.36.67,1.47,1.47,0,0,0,.77.19,2.3,2.3,0,0,0,.35,0,2.22,2.22,0,0,0,.37-.09.72.72,0,0,0,.28-.2.42.42,0,0,0,.1-.34.49.49,0,0,0-.15-.35,1,1,0,0,0-.37-.21,3,3,0,0,0-.52-.14l-.58-.13a5.25,5.25,0,0,1-.6-.16,2,2,0,0,1-.51-.26,1.22,1.22,0,0,1-.36-.42,1.34,1.34,0,0,1-.13-.63,1.08,1.08,0,0,1,.2-.68,1.42,1.42,0,0,1,.5-.44,2.31,2.31,0,0,1,.67-.24,4.44,4.44,0,0,1,.71-.06,2.92,2.92,0,0,1,.73.08,1.92,1.92,0,0,1,.64.26,1.44,1.44,0,0,1,.47.48,1.66,1.66,0,0,1,.24.71h-1.15a.67.67,0,0,0-.36-.53,1.51,1.51,0,0,0-.65-.14l-.27,0a1.32,1.32,0,0,0-.3.07.6.6,0,0,0-.24.16.36.36,0,0,0-.1.26.4.4,0,0,0,.15.33,1.22,1.22,0,0,0,.36.21,3,3,0,0,0,.52.13l.59.13.59.16a2.44,2.44,0,0,1,.51.26,1.15,1.15,0,0,1,.37.42,1.25,1.25,0,0,1,.14.61,1.35,1.35,0,0,1-.2.75,1.49,1.49,0,0,1-.53.5,2.11,2.11,0,0,1-.71.28,3.59,3.59,0,0,1-.78.09,3.35,3.35,0,0,1-.87-.1,2.16,2.16,0,0,1-.7-.33,1.51,1.51,0,0,1-.46-.54,1.77,1.77,0,0,1-.18-.76Z"/><path class="cls-5" d="M441.65,259.06a1,1,0,0,0-.37-.69,1.22,1.22,0,0,0-.77-.24,1.9,1.9,0,0,0-.45.07,1.07,1.07,0,0,0-.44.27,1.48,1.48,0,0,0-.34.55,2.79,2.79,0,0,0-.06,1.54,1.5,1.5,0,0,0,.23.55,1.18,1.18,0,0,0,.41.39,1.13,1.13,0,0,0,.6.14,1.11,1.11,0,0,0,.8-.29,1.38,1.38,0,0,0,.39-.84h1.09A2.4,2.4,0,0,1,442,262a2.28,2.28,0,0,1-1.55.51,2.4,2.4,0,0,1-1-.2,2.19,2.19,0,0,1-.76-.54,2.15,2.15,0,0,1-.46-.81,3,3,0,0,1-.16-1,3.6,3.6,0,0,1,.15-1.05,2.4,2.4,0,0,1,.46-.85,2.21,2.21,0,0,1,.77-.57,2.52,2.52,0,0,1,1.07-.2,2.75,2.75,0,0,1,.82.11,2.06,2.06,0,0,1,.7.33,1.81,1.81,0,0,1,.72,1.35Z"/><path class="cls-5" d="M443.67,255.5h1.1v1h-1.1Zm0,1.9h1.1v5h-1.1Z"/><path class="cls-5" d="M446,255.5h1.1v6.88H446Z"/><path class="cls-5" d="M451.81,260.17a2.1,2.1,0,0,0,.08.56,1.41,1.41,0,0,0,.25.47,1.17,1.17,0,0,0,.41.32,1.4,1.4,0,0,0,.6.12,1.33,1.33,0,0,0,.78-.2,1.24,1.24,0,0,0,.43-.62h1a1.78,1.78,0,0,1-.3.72,2,2,0,0,1-.51.53,2,2,0,0,1-.66.33,2.88,2.88,0,0,1-.78.11,2.61,2.61,0,0,1-1-.19,2.1,2.1,0,0,1-.76-.54,2.35,2.35,0,0,1-.48-.83,3.52,3.52,0,0,1-.16-1.06,3,3,0,0,1,.17-1,2.69,2.69,0,0,1,.49-.84,2.23,2.23,0,0,1,.75-.57,2.3,2.3,0,0,1,2.83.68,2.68,2.68,0,0,1,.45.93,2.8,2.8,0,0,1,.07,1.08Zm2.56-.72a1.72,1.72,0,0,0-.11-.5,1.27,1.27,0,0,0-.25-.42,1.24,1.24,0,0,0-.38-.29,1.19,1.19,0,0,0-.51-.11,1.42,1.42,0,0,0-.52.1,1.2,1.2,0,0,0-.41.28,1.51,1.51,0,0,0-.27.42,1.72,1.72,0,0,0-.11.52Z"/><path class="cls-5" d="M461,262.38h-1v-.68h0a1.3,1.3,0,0,1-.65.62,2.09,2.09,0,0,1-.89.19,2.34,2.34,0,0,1-1-.21,2,2,0,0,1-.73-.56,2.57,2.57,0,0,1-.43-.84,3.92,3.92,0,0,1-.14-1,3.41,3.41,0,0,1,.18-1.16,2.17,2.17,0,0,1,.49-.81,1.89,1.89,0,0,1,.69-.47,2.16,2.16,0,0,1,.79-.14,2.67,2.67,0,0,1,.48,0,1.88,1.88,0,0,1,.46.14,1.91,1.91,0,0,1,.41.24,1.73,1.73,0,0,1,.31.35h0V255.5H461Zm-3.84-2.44a2.28,2.28,0,0,0,.09.63,1.53,1.53,0,0,0,.25.55,1.28,1.28,0,0,0,.42.38,1.23,1.23,0,0,0,.62.14,1.25,1.25,0,0,0,.63-.15,1.27,1.27,0,0,0,.43-.4,1.85,1.85,0,0,0,.26-.57,2.74,2.74,0,0,0,.08-.64,2.06,2.06,0,0,0-.37-1.29,1.26,1.26,0,0,0-1-.46,1.21,1.21,0,0,0-.65.16,1.3,1.3,0,0,0-.43.41,1.87,1.87,0,0,0-.24.58A3,3,0,0,0,457.16,259.94Z"/><path class="cls-5" d="M462.22,255.5h1.09v1h-1.09Zm0,1.9h1.09v5h-1.09Z"/><path class="cls-5" d="M464.54,255.5h1.09v6.88h-1.09Z"/><path class="cls-5" d="M466.83,257.4h1v.69h0a2.16,2.16,0,0,1,.27-.33,1.14,1.14,0,0,1,.32-.26,1.53,1.53,0,0,1,.41-.17,2.09,2.09,0,0,1,.53-.06,1.74,1.74,0,0,1,.84.2,1.12,1.12,0,0,1,.55.62,2.17,2.17,0,0,1,.65-.6,1.7,1.7,0,0,1,.91-.22,1.78,1.78,0,0,1,1.23.38,1.66,1.66,0,0,1,.44,1.29v3.44H473v-2.91c0-.2,0-.38,0-.54a1.09,1.09,0,0,0-.11-.43.59.59,0,0,0-.27-.27,1,1,0,0,0-.5-.1.92.92,0,0,0-.81.35,1.63,1.63,0,0,0-.25,1v2.92h-1.1v-3.2a1.28,1.28,0,0,0-.19-.78.77.77,0,0,0-.69-.27,1,1,0,0,0-.41.09,1,1,0,0,0-.34.25,1.22,1.22,0,0,0-.24.4,1.59,1.59,0,0,0-.09.55v3h-1.1Z"/><path class="cls-5" d="M475.23,255.5h1.1v1h-1.1Zm0,1.9h1.1v5h-1.1Z"/><path class="cls-5" d="M478.45,263.92a1.67,1.67,0,0,0,.31.11,1.06,1.06,0,0,0,.31,0h.21a.6.6,0,0,0,.19-.06.41.41,0,0,0,.14-.12.39.39,0,0,0,.05-.2.31.31,0,0,0-.14-.28.53.53,0,0,0-.3-.09.7.7,0,0,0-.38.1l-.21-.19.54-.72a5.21,5.21,0,0,1-.59-.09,2.21,2.21,0,0,1-.69-.33,1.51,1.51,0,0,1-.46-.54,1.77,1.77,0,0,1-.18-.76h1.1a.8.8,0,0,0,.37.67,1.41,1.41,0,0,0,.76.19,2,2,0,0,0,.72-.11.72.72,0,0,0,.28-.2.42.42,0,0,0,.1-.34.45.45,0,0,0-.15-.35,1,1,0,0,0-.37-.21,3,3,0,0,0-.52-.14l-.58-.13a4.59,4.59,0,0,1-.59-.16,2,2,0,0,1-.51-.26,1.15,1.15,0,0,1-.37-.42,1.34,1.34,0,0,1-.13-.63,1.08,1.08,0,0,1,.2-.68,1.52,1.52,0,0,1,.5-.44,2.31,2.31,0,0,1,.67-.24,4.44,4.44,0,0,1,.71-.06,2.87,2.87,0,0,1,.73.08,1.92,1.92,0,0,1,.64.26,1.44,1.44,0,0,1,.47.48,1.53,1.53,0,0,1,.24.71h-1.15a.67.67,0,0,0-.36-.53,1.48,1.48,0,0,0-.65-.14l-.27,0a1.32,1.32,0,0,0-.3.07.78.78,0,0,0-.24.16.36.36,0,0,0-.09.26.39.39,0,0,0,.14.33,1.22,1.22,0,0,0,.36.21,3.29,3.29,0,0,0,.52.13l.59.13.59.16a2.53,2.53,0,0,1,.52.26,1.22,1.22,0,0,1,.36.42,1.25,1.25,0,0,1,.14.61,1.35,1.35,0,0,1-.2.75,1.55,1.55,0,0,1-.52.5,2.25,2.25,0,0,1-.72.28,2.64,2.64,0,0,1-.62.08l-.33.44h0l.14,0h.18a1,1,0,0,1,.29,0,.79.79,0,0,1,.26.13.71.71,0,0,1,.19.23.66.66,0,0,1,.08.32.76.76,0,0,1-.11.41.87.87,0,0,1-.27.27,1.58,1.58,0,0,1-.37.15,1.4,1.4,0,0,1-.41,0,2.32,2.32,0,0,1-.53,0,1.75,1.75,0,0,1-.47-.17Z"/><path class="cls-5" d="M482,257.4h.83v-1.49h1.09v1.49h1v.82h-1v2.65a2.36,2.36,0,0,0,0,.3.48.48,0,0,0,.07.22.32.32,0,0,0,.15.13,1.06,1.06,0,0,0,.29,0h.23a1,1,0,0,0,.24,0v.85l-.36,0h-.36a2.17,2.17,0,0,1-.69-.08.86.86,0,0,1-.42-.24.76.76,0,0,1-.2-.4,2.26,2.26,0,0,1-.06-.55v-2.93H482Z"/><path class="cls-5" d="M485.75,255.5h1.1v1h-1.1Zm0,1.9h1.1v5h-1.1Z"/><path class="cls-5" d="M488,257.4h1v1h0a1.17,1.17,0,0,1,.19-.39,1.88,1.88,0,0,1,.78-.61,1.37,1.37,0,0,1,.49-.09h.26l.15,0v1.06l-.24,0-.23,0a1.21,1.21,0,0,0-.53.12,1.18,1.18,0,0,0-.42.32,1.47,1.47,0,0,0-.29.54,2.29,2.29,0,0,0-.11.73v2.37H488Z"/><path class="cls-5" d="M490.63,261.08H492v1.3h-1.34Z"/><path class="cls-5" d="M2.64,267.06H3.92l2.64,6.87H5.27l-.64-1.82H1.89l-.65,1.82H0Zm-.43,4.13h2.1l-1-2.95h0Z"/><path class="cls-5" d="M7.06,269h1v.69h0l.27-.33a1.64,1.64,0,0,1,.33-.26,1.46,1.46,0,0,1,.4-.17,2.15,2.15,0,0,1,.53-.06,1.77,1.77,0,0,1,.85.2,1.12,1.12,0,0,1,.55.62,2.3,2.3,0,0,1,.65-.6,1.68,1.68,0,0,1,.91-.22,1.81,1.81,0,0,1,1.23.38,1.66,1.66,0,0,1,.43,1.29v3.44H13.19V271c0-.2,0-.38,0-.54a1.29,1.29,0,0,0-.11-.43.61.61,0,0,0-.28-.27,1.13,1.13,0,0,0-.5-.1.94.94,0,0,0-.81.35,1.71,1.71,0,0,0-.25,1v2.92H10.13v-3.2a1.38,1.38,0,0,0-.19-.78.8.8,0,0,0-.69-.27,1,1,0,0,0-.41.09,1.07,1.07,0,0,0-.35.25,1.22,1.22,0,0,0-.24.4,1.59,1.59,0,0,0-.09.55v3H7.06Z"/><path class="cls-5" d="M19.61,272.82a.54.54,0,0,0,.05.29.22.22,0,0,0,.21.09H20l.16,0v.76L20,274l-.19,0a.63.63,0,0,1-.19,0h-.17a1,1,0,0,1-.55-.13.66.66,0,0,1-.29-.47,2,2,0,0,1-.81.46,3,3,0,0,1-.92.14,2.25,2.25,0,0,1-.64-.09,1.52,1.52,0,0,1-.54-.27,1.27,1.27,0,0,1-.38-.45,1.44,1.44,0,0,1-.14-.64,1.49,1.49,0,0,1,.17-.75,1.27,1.27,0,0,1,.44-.45,2,2,0,0,1,.62-.24c.22-.05.45-.08.69-.11a3.78,3.78,0,0,1,.56-.08l.48-.08a.75.75,0,0,0,.33-.18.49.49,0,0,0,.12-.36.63.63,0,0,0-.1-.35.72.72,0,0,0-.25-.21,1.13,1.13,0,0,0-.34-.09l-.34,0a1.36,1.36,0,0,0-.76.2.74.74,0,0,0-.34.59h-1.1a1.75,1.75,0,0,1,.23-.8,1.69,1.69,0,0,1,.52-.51,2,2,0,0,1,.71-.27,4.28,4.28,0,0,1,.81-.07,3.51,3.51,0,0,1,.72.07,2.25,2.25,0,0,1,.64.25,1.38,1.38,0,0,1,.45.45,1.2,1.2,0,0,1,.18.67Zm-1.1-1.39a1.3,1.3,0,0,1-.62.2c-.24,0-.48.06-.73.1l-.33.08a1.13,1.13,0,0,0-.29.15.59.59,0,0,0-.2.24.8.8,0,0,0-.07.36.46.46,0,0,0,.1.31.86.86,0,0,0,.26.2,1.59,1.59,0,0,0,.33.1l.32,0a1.89,1.89,0,0,0,.39-.05,1.18,1.18,0,0,0,.4-.17.86.86,0,0,0,.31-.29.7.7,0,0,0,.13-.44Z"/><path class="cls-5" d="M24.15,270.62a1,1,0,0,0-.37-.7,1.19,1.19,0,0,0-.76-.24,1.54,1.54,0,0,0-.46.08,1,1,0,0,0-.44.26,1.56,1.56,0,0,0-.34.55,3.08,3.08,0,0,0-.06,1.54,1.93,1.93,0,0,0,.23.55,1.27,1.27,0,0,0,.41.39,1.17,1.17,0,0,0,.61.15,1.09,1.09,0,0,0,.79-.3,1.38,1.38,0,0,0,.39-.84h1.1a2.41,2.41,0,0,1-.74,1.49,2.25,2.25,0,0,1-1.54.51,2.61,2.61,0,0,1-1-.19,2.33,2.33,0,0,1-.75-.54,2.29,2.29,0,0,1-.47-.82,3,3,0,0,1-.16-1,3.3,3.3,0,0,1,.16-1.05,2.33,2.33,0,0,1,.46-.85,2.17,2.17,0,0,1,.76-.57,2.74,2.74,0,0,1,1.08-.2,2.8,2.8,0,0,1,.82.11,2,2,0,0,1,.69.33,1.8,1.8,0,0,1,.5.56,1.93,1.93,0,0,1,.23.8Z"/><path class="cls-5" d="M26.17,273.93v-5h1.1v5Z"/><path class="cls-5" d="M35.83,273.93h-1v-.68h0a1.33,1.33,0,0,1-.65.63,2.25,2.25,0,0,1-.89.18,2.56,2.56,0,0,1-1-.2,2,2,0,0,1-.72-.57,2.32,2.32,0,0,1-.44-.84,3.84,3.84,0,0,1-.14-1,3.43,3.43,0,0,1,.18-1.17,2.31,2.31,0,0,1,.49-.81,1.86,1.86,0,0,1,.69-.46,2.21,2.21,0,0,1,.79-.15,2.59,2.59,0,0,1,.48,0A2.44,2.44,0,0,1,34,269a1.73,1.73,0,0,1,.41.25,1.17,1.17,0,0,1,.31.35h0v-2.54h1.1ZM32,271.49a2.27,2.27,0,0,0,.08.63,1.72,1.72,0,0,0,.25.55,1.13,1.13,0,0,0,.43.38,1.17,1.17,0,0,0,.61.15A1.23,1.23,0,0,0,34,273a1.3,1.3,0,0,0,.44-.4,2.18,2.18,0,0,0,.25-.56,2.82,2.82,0,0,0,.08-.65,2.06,2.06,0,0,0-.37-1.29,1.25,1.25,0,0,0-1-.46,1.3,1.3,0,0,0-.65.16,1.44,1.44,0,0,0-.43.42,1.81,1.81,0,0,0-.24.57A3,3,0,0,0,32,271.49Z"/><path class="cls-5" d="M37.05,273.93v-5h1.1v5Z"/><path class="cls-5" d="M40.26,275.47a2,2,0,0,0,.32.11,1.06,1.06,0,0,0,.31,0h.2a.66.66,0,0,0,.2-.06.37.37,0,0,0,.13-.12.32.32,0,0,0,.06-.2.32.32,0,0,0-.14-.28.55.55,0,0,0-.3-.09.67.67,0,0,0-.38.1l-.21-.19.54-.72a5.21,5.21,0,0,1-.59-.09,2,2,0,0,1-.69-.33,1.56,1.56,0,0,1-.46-.53,1.82,1.82,0,0,1-.18-.77h1.1a.8.8,0,0,0,.36.67,1.46,1.46,0,0,0,.76.2l.36,0a1.18,1.18,0,0,0,.37-.09.63.63,0,0,0,.28-.2.42.42,0,0,0,.1-.34.47.47,0,0,0-.15-.34,1,1,0,0,0-.37-.22,3.25,3.25,0,0,0-.52-.14l-.58-.13a5.25,5.25,0,0,1-.6-.16,1.75,1.75,0,0,1-.51-.26,1.22,1.22,0,0,1-.36-.42,1.34,1.34,0,0,1-.13-.63,1.1,1.1,0,0,1,.2-.68,1.42,1.42,0,0,1,.5-.44,2.31,2.31,0,0,1,.67-.24,4.44,4.44,0,0,1,.71-.06,2.92,2.92,0,0,1,.73.08,1.92,1.92,0,0,1,.64.26,1.66,1.66,0,0,1,.47.48,1.86,1.86,0,0,1,.24.71H42.19a.67.67,0,0,0-.36-.53,1.51,1.51,0,0,0-.65-.14l-.28,0-.29.07a.6.6,0,0,0-.24.16.38.38,0,0,0-.1.26.42.42,0,0,0,.14.33,1.44,1.44,0,0,0,.37.21,4.6,4.6,0,0,0,.51.14l.6.12a5.72,5.72,0,0,1,.59.17,1.75,1.75,0,0,1,.51.26,1.13,1.13,0,0,1,.37.41,1.29,1.29,0,0,1,.14.62,1.4,1.4,0,0,1-.2.75,1.69,1.69,0,0,1-.53.5,2.3,2.3,0,0,1-.72.28,3.17,3.17,0,0,1-.61.07l-.34.45h0a.32.32,0,0,1,.14,0h.18a1,1,0,0,1,.29,0,.91.91,0,0,1,.26.13,1.06,1.06,0,0,1,.19.23.66.66,0,0,1,.08.32.73.73,0,0,1-.11.41.87.87,0,0,1-.27.27,1.37,1.37,0,0,1-.37.15,1.51,1.51,0,0,1-.42.05,2.24,2.24,0,0,1-.52-.05,1.47,1.47,0,0,1-.47-.17Z"/><path class="cls-5" d="M44.37,273.93v-5h1.09v5Z"/><path class="cls-5" d="M46.66,269h1v.75a2,2,0,0,1,.66-.65,1.72,1.72,0,0,1,.9-.23,1.85,1.85,0,0,1,1.28.42,1.61,1.61,0,0,1,.48,1.27v3.42h-1.1V270.8a1.34,1.34,0,0,0-.25-.85.89.89,0,0,0-.72-.27,1.27,1.27,0,0,0-.5.1,1.08,1.08,0,0,0-.38.28,1.46,1.46,0,0,0-.33.93v2.94H46.66Z"/><path class="cls-5" d="M56.87,273.93h-1v-.68h0a1.35,1.35,0,0,1-.64.63,2.3,2.3,0,0,1-.9.18,2.47,2.47,0,0,1-1-.2,2,2,0,0,1-.73-.57,2.31,2.31,0,0,1-.43-.84,3.49,3.49,0,0,1-.15-1,3.43,3.43,0,0,1,.18-1.17,2.46,2.46,0,0,1,.49-.81,1.86,1.86,0,0,1,.69-.46,2.22,2.22,0,0,1,.8-.15,2.56,2.56,0,0,1,.47,0A2.44,2.44,0,0,1,55,269a1.55,1.55,0,0,1,.41.25,1,1,0,0,1,.31.35h0v-2.54h1.1ZM53,271.49a2.72,2.72,0,0,0,.08.63,1.72,1.72,0,0,0,.25.55,1.26,1.26,0,0,0,1.05.53,1.28,1.28,0,0,0,.63-.16,1.27,1.27,0,0,0,.43-.4,2.18,2.18,0,0,0,.25-.56,2.82,2.82,0,0,0,.08-.65,2,2,0,0,0-.37-1.29,1.25,1.25,0,0,0-1-.46,1.26,1.26,0,0,0-.64.16,1.36,1.36,0,0,0-.44.42,1.81,1.81,0,0,0-.24.57A3,3,0,0,0,53,271.49Z"/><path class="cls-5" d="M62.23,272.82a.52.52,0,0,0,.06.29.2.2,0,0,0,.2.09h.12l.15,0v.76l-.15,0-.19,0a.63.63,0,0,1-.19,0h-.16a1.06,1.06,0,0,1-.56-.13.69.69,0,0,1-.29-.47,2,2,0,0,1-.8.46,3.07,3.07,0,0,1-.92.14,2.32,2.32,0,0,1-.65-.09,1.71,1.71,0,0,1-.54-.27,1.38,1.38,0,0,1-.38-.45,1.44,1.44,0,0,1-.14-.64,1.49,1.49,0,0,1,.17-.75,1.21,1.21,0,0,1,.45-.45,1.94,1.94,0,0,1,.61-.24c.23-.05.46-.08.69-.11a4.1,4.1,0,0,1,.57-.08,4.13,4.13,0,0,0,.47-.08.75.75,0,0,0,.33-.18.49.49,0,0,0,.12-.36.56.56,0,0,0-.1-.35.72.72,0,0,0-.25-.21,1.15,1.15,0,0,0-.33-.09l-.35,0a1.36,1.36,0,0,0-.76.2.74.74,0,0,0-.34.59H58a1.64,1.64,0,0,1,.23-.8,1.55,1.55,0,0,1,.51-.51,2.09,2.09,0,0,1,.71-.27,4.28,4.28,0,0,1,.81-.07,3.51,3.51,0,0,1,.72.07,2.14,2.14,0,0,1,.64.25,1.52,1.52,0,0,1,.46.45,1.28,1.28,0,0,1,.17.67Zm-1.1-1.39a1.26,1.26,0,0,1-.61.2c-.25,0-.49.06-.73.1l-.34.08a1.13,1.13,0,0,0-.29.15.68.68,0,0,0-.2.24,1,1,0,0,0-.07.36.47.47,0,0,0,.11.31.82.82,0,0,0,.25.2,1.59,1.59,0,0,0,.33.1l.32,0a2,2,0,0,0,.4-.05,1.27,1.27,0,0,0,.4-.17,1,1,0,0,0,.31-.29.76.76,0,0,0,.12-.44Z"/><path class="cls-5" d="M65.6,269h1.19l1.26,3.82h0L69.29,269h1.13l-1.78,5H67.41Z"/><path class="cls-5" d="M71.94,271.72a1.73,1.73,0,0,0,.09.56,1.23,1.23,0,0,0,.24.47,1.14,1.14,0,0,0,.42.33,1.25,1.25,0,0,0,1.81-.71h1a2.11,2.11,0,0,1-.3.72,2.63,2.63,0,0,1-.51.54,2.3,2.3,0,0,1-.67.32,2.54,2.54,0,0,1-.78.11,2.61,2.61,0,0,1-1-.19A2.17,2.17,0,0,1,71,272.5a3.23,3.23,0,0,1-.16-1.06,2.8,2.8,0,0,1,.17-1,2.49,2.49,0,0,1,.48-.84,2.24,2.24,0,0,1,1.75-.78,2.3,2.3,0,0,1,1.06.24,2.32,2.32,0,0,1,.77.65,2.52,2.52,0,0,1,.45.93,2.8,2.8,0,0,1,.07,1.08ZM74.5,271a1.45,1.45,0,0,0-.11-.5,1.27,1.27,0,0,0-.25-.42,1.24,1.24,0,0,0-.38-.29,1.19,1.19,0,0,0-.51-.11,1.46,1.46,0,0,0-.52.1,1.3,1.3,0,0,0-.41.28,1.51,1.51,0,0,0-.27.42,1.78,1.78,0,0,0-.11.52Z"/><path class="cls-5" d="M83.28,272.82a.52.52,0,0,0,.06.29.2.2,0,0,0,.2.09h.12l.15,0v.76l-.15,0-.18,0a.69.69,0,0,1-.2,0h-.16a1.08,1.08,0,0,1-.56-.13.69.69,0,0,1-.29-.47,2,2,0,0,1-.8.46,3,3,0,0,1-.92.14,2.37,2.37,0,0,1-.65-.09,1.71,1.71,0,0,1-.54-.27,1.24,1.24,0,0,1-.37-.45,1.31,1.31,0,0,1-.14-.64,1.49,1.49,0,0,1,.16-.75,1.29,1.29,0,0,1,.45-.45,2,2,0,0,1,.61-.24c.23-.05.46-.08.69-.11a4.1,4.1,0,0,1,.57-.08l.48-.08a.77.77,0,0,0,.32-.18.49.49,0,0,0,.12-.36.56.56,0,0,0-.1-.35.64.64,0,0,0-.25-.21,1.15,1.15,0,0,0-.33-.09l-.35,0a1.39,1.39,0,0,0-.76.2.7.7,0,0,0-.33.59H79a1.64,1.64,0,0,1,.23-.8,1.58,1.58,0,0,1,.52-.51,2,2,0,0,1,.7-.27,4.43,4.43,0,0,1,.81-.07,3.38,3.38,0,0,1,.72.07,2.14,2.14,0,0,1,.64.25,1.41,1.41,0,0,1,.46.45,1.19,1.19,0,0,1,.17.67Zm-1.09-1.39a1.34,1.34,0,0,1-.62.2c-.24,0-.49.06-.73.1l-.34.08a1.32,1.32,0,0,0-.29.15.57.57,0,0,0-.19.24.8.8,0,0,0-.08.36.47.47,0,0,0,.11.31,1,1,0,0,0,.25.2,1.59,1.59,0,0,0,.33.1l.32,0a1.9,1.9,0,0,0,.4-.05,1.27,1.27,0,0,0,.4-.17,1,1,0,0,0,.31-.29.76.76,0,0,0,.13-.44Z"/><path class="cls-5" d="M85.29,272.33a.84.84,0,0,0,.37.67,1.43,1.43,0,0,0,.76.2l.35,0a1.12,1.12,0,0,0,.37-.09.66.66,0,0,0,.29-.2.46.46,0,0,0,.1-.34.51.51,0,0,0-.15-.34A1.09,1.09,0,0,0,87,272a3.12,3.12,0,0,0-.51-.14l-.59-.13a5.69,5.69,0,0,1-.59-.16,1.75,1.75,0,0,1-.51-.26,1.22,1.22,0,0,1-.36-.42,1.33,1.33,0,0,1-.14-.63,1.16,1.16,0,0,1,.2-.68,1.52,1.52,0,0,1,.5-.44,2.38,2.38,0,0,1,.68-.24,4.32,4.32,0,0,1,.7-.06,3,3,0,0,1,.74.08,1.86,1.86,0,0,1,.63.26,1.52,1.52,0,0,1,.71,1.19H87.32a.69.69,0,0,0-.36-.53,1.51,1.51,0,0,0-.65-.14l-.28,0-.3.07a.63.63,0,0,0-.23.16.34.34,0,0,0-.1.26.42.42,0,0,0,.14.33,1.29,1.29,0,0,0,.37.21,4.6,4.6,0,0,0,.51.14l.6.12c.2.05.39.1.59.17a1.75,1.75,0,0,1,.51.26,1.23,1.23,0,0,1,.37.41,1.29,1.29,0,0,1,.14.62,1.32,1.32,0,0,1-.21.75,1.66,1.66,0,0,1-.52.5,2.4,2.4,0,0,1-.72.28,4.13,4.13,0,0,1-.78.08,3.46,3.46,0,0,1-.87-.1,1.92,1.92,0,0,1-.69-.33,1.46,1.46,0,0,1-.46-.53,1.68,1.68,0,0,1-.18-.77Z"/><path class="cls-5" d="M89.49,267.06h1.1v6.87h-1.1Z"/><path class="cls-5" d="M91.81,273.93v-5h1.1v5Z"/><path class="cls-5" d="M94.1,269h1v.73l0,0a2,2,0,0,1,.66-.65,1.69,1.69,0,0,1,.89-.23,1.86,1.86,0,0,1,1.29.42,1.6,1.6,0,0,1,.47,1.27v3.42H97.38V270.8a1.34,1.34,0,0,0-.26-.85.89.89,0,0,0-.72-.27,1.35,1.35,0,0,0-.5.1,1.13,1.13,0,0,0-.37.28,1.1,1.1,0,0,0-.24.42,1.44,1.44,0,0,0-.09.51v2.94H94.1Z"/><path class="cls-5" d="M103.8,272.82a.54.54,0,0,0,0,.29q0,.09.21.09h.11l.16,0v.76l-.15,0-.19,0-.19,0h-.17a1.08,1.08,0,0,1-.56-.13.68.68,0,0,1-.28-.47,2,2,0,0,1-.81.46,3,3,0,0,1-.92.14,2.25,2.25,0,0,1-.64-.09,1.66,1.66,0,0,1-.55-.27,1.36,1.36,0,0,1-.37-.45,1.44,1.44,0,0,1-.14-.64,1.49,1.49,0,0,1,.17-.75,1.27,1.27,0,0,1,.44-.45,2,2,0,0,1,.62-.24c.22-.05.45-.08.68-.11a4.1,4.1,0,0,1,.57-.08l.48-.08a.75.75,0,0,0,.33-.18.49.49,0,0,0,.12-.36.63.63,0,0,0-.1-.35.82.82,0,0,0-.25-.21,1.13,1.13,0,0,0-.34-.09l-.34,0a1.34,1.34,0,0,0-.76.2.71.71,0,0,0-.34.59h-1.1a1.75,1.75,0,0,1,.23-.8,1.69,1.69,0,0,1,.52-.51,2,2,0,0,1,.71-.27,4.25,4.25,0,0,1,.8-.07,3.54,3.54,0,0,1,.73.07,2.25,2.25,0,0,1,.64.25,1.38,1.38,0,0,1,.45.45,1.2,1.2,0,0,1,.18.67Zm-1.1-1.39a1.3,1.3,0,0,1-.62.2c-.24,0-.48.06-.73.1l-.34.08a1.25,1.25,0,0,0-.28.15.59.59,0,0,0-.2.24.8.8,0,0,0-.07.36.46.46,0,0,0,.1.31.86.86,0,0,0,.26.2,1.7,1.7,0,0,0,.32.1l.33,0a1.89,1.89,0,0,0,.39-.05,1.18,1.18,0,0,0,.4-.17.86.86,0,0,0,.31-.29.7.7,0,0,0,.13-.44Z"/><path class="cls-5" d="M111.82,272.82a.52.52,0,0,0,.06.29.2.2,0,0,0,.2.09h.12l.15,0v.76l-.14,0-.19,0a.69.69,0,0,1-.2,0h-.16a1.08,1.08,0,0,1-.56-.13.72.72,0,0,1-.29-.47,1.92,1.92,0,0,1-.8.46,3,3,0,0,1-.92.14,2.25,2.25,0,0,1-.64-.09,1.66,1.66,0,0,1-.55-.27,1.24,1.24,0,0,1-.37-.45,1.31,1.31,0,0,1-.14-.64,1.39,1.39,0,0,1,.17-.75,1.27,1.27,0,0,1,.44-.45,2,2,0,0,1,.61-.24c.23-.05.46-.08.69-.11a4.1,4.1,0,0,1,.57-.08l.48-.08a.77.77,0,0,0,.32-.18.49.49,0,0,0,.12-.36.56.56,0,0,0-.1-.35.64.64,0,0,0-.25-.21,1.15,1.15,0,0,0-.33-.09l-.35,0a1.39,1.39,0,0,0-.76.2.7.7,0,0,0-.33.59h-1.1a1.75,1.75,0,0,1,.23-.8,1.69,1.69,0,0,1,.52-.51,2,2,0,0,1,.7-.27,4.43,4.43,0,0,1,.81-.07,3.38,3.38,0,0,1,.72.07,2.14,2.14,0,0,1,.64.25,1.41,1.41,0,0,1,.46.45,1.19,1.19,0,0,1,.17.67Zm-1.09-1.39a1.3,1.3,0,0,1-.62.2c-.24,0-.49.06-.73.1l-.34.08a1.32,1.32,0,0,0-.29.15.65.65,0,0,0-.19.24.8.8,0,0,0-.08.36.47.47,0,0,0,.11.31.86.86,0,0,0,.26.2,1.5,1.5,0,0,0,.32.1l.33,0a1.89,1.89,0,0,0,.39-.05,1.27,1.27,0,0,0,.4-.17,1,1,0,0,0,.31-.29.7.7,0,0,0,.13-.44Z"/><path class="cls-5" d="M112.46,269h1.2l1.3,3.72h0l1.26-3.72h1.15l-1.94,5.25c-.09.22-.17.44-.26.64a2.27,2.27,0,0,1-.32.55,1.33,1.33,0,0,1-.47.37,1.6,1.6,0,0,1-.71.14,4.87,4.87,0,0,1-.76-.06v-.92l.26,0a1.15,1.15,0,0,0,.26,0,.93.93,0,0,0,.32-.05.6.6,0,0,0,.21-.14.93.93,0,0,0,.14-.22c0-.08.07-.18.1-.29l.13-.38Z"/><path class="cls-5" d="M118,267.06h1.1V271l2-2h1.35l-1.91,1.83,2.09,3.15h-1.33l-1.52-2.42-.66.64v1.78H118Z"/><path class="cls-5" d="M123.2,273.93v-5h1.1v5Z"/><path class="cls-5" d="M125.49,269h1v1h0a1.17,1.17,0,0,1,.19-.39,1.61,1.61,0,0,1,.34-.35,1.7,1.7,0,0,1,.43-.26,1.47,1.47,0,0,1,.5-.09h.26l.15,0v1l-.24,0h-.23a1.2,1.2,0,0,0-.53.11,1.18,1.18,0,0,0-.42.32,1.56,1.56,0,0,0-.29.54,2,2,0,0,0-.11.73v2.37h-1.1Z"/><path class="cls-5" d="M128.91,273.93v-5H130v5Z"/><path class="cls-5" d="M133.88,269h1v1h0a1.14,1.14,0,0,1,.18-.39,1.88,1.88,0,0,1,.34-.35,1.76,1.76,0,0,1,.44-.26,1.37,1.37,0,0,1,.49-.09h.26l.15,0v1l-.23,0h-.24a1.16,1.16,0,0,0-.52.11,1.13,1.13,0,0,0-.43.32,1.74,1.74,0,0,0-.29.54,2.29,2.29,0,0,0-.11.73v2.37h-1.09Z"/><path class="cls-5" d="M138,271.72a2,2,0,0,0,.08.56,1.41,1.41,0,0,0,.25.47,1.11,1.11,0,0,0,.41.33,1.4,1.4,0,0,0,.6.12,1.28,1.28,0,0,0,.77-.21,1.26,1.26,0,0,0,.44-.62h1a2.11,2.11,0,0,1-.3.72,2,2,0,0,1-1.18.86,2.43,2.43,0,0,1-.77.11,2.61,2.61,0,0,1-1-.19,2.23,2.23,0,0,1-.77-.54,2.33,2.33,0,0,1-.47-.83,3.23,3.23,0,0,1-.16-1.06,3,3,0,0,1,.17-1,2.49,2.49,0,0,1,.48-.84,2.27,2.27,0,0,1,.76-.57,2.29,2.29,0,0,1,1-.21,2.26,2.26,0,0,1,1.05.24,2.47,2.47,0,0,1,.78.65,2.87,2.87,0,0,1,.45.93,3,3,0,0,1,.07,1.08Zm2.56-.72a1.72,1.72,0,0,0-.11-.5,1.46,1.46,0,0,0-.25-.42,1.42,1.42,0,0,0-.39-.29,1.15,1.15,0,0,0-.5-.11,1.51,1.51,0,0,0-.53.1,1.26,1.26,0,0,0-.4.28,1.43,1.43,0,0,0-.38.94Z"/><path class="cls-5" d="M142.45,269h1v.73l0,0a2,2,0,0,1,.66-.65,1.71,1.71,0,0,1,.89-.23,1.86,1.86,0,0,1,1.29.42,1.6,1.6,0,0,1,.47,1.27v3.42h-1.09V270.8a1.34,1.34,0,0,0-.25-.85.91.91,0,0,0-.72-.27,1.36,1.36,0,0,0-.51.1,1.13,1.13,0,0,0-.37.28,1.46,1.46,0,0,0-.33.93v2.94h-1.09Z"/><path class="cls-5" d="M148,267.06h1.1V271l2-2h1.35l-1.91,1.83,2.09,3.15h-1.34l-1.52-2.42-.65.64v1.78H148Z"/><path class="cls-5" d="M153.23,272.63h1.33v1.3a1.44,1.44,0,0,1-.36,1,1.65,1.65,0,0,1-.94.52v-.59a.72.72,0,0,0,.48-.35,1,1,0,0,0,.15-.58h-.66Z"/><path class="cls-5" d="M163.18,273.93h-1v-.68h0a1.33,1.33,0,0,1-.65.63,2.25,2.25,0,0,1-.89.18,2.56,2.56,0,0,1-1-.2,2,2,0,0,1-.72-.57,2.49,2.49,0,0,1-.44-.84,3.84,3.84,0,0,1-.14-1,3.43,3.43,0,0,1,.18-1.17,2.31,2.31,0,0,1,.49-.81,1.86,1.86,0,0,1,.69-.46,2.22,2.22,0,0,1,.8-.15,2.56,2.56,0,0,1,.47,0,2.44,2.44,0,0,1,.46.14,1.73,1.73,0,0,1,.41.25,1,1,0,0,1,.31.35h0v-2.54h1.1Zm-3.83-2.44a2.72,2.72,0,0,0,.08.63,1.72,1.72,0,0,0,.25.55,1.26,1.26,0,0,0,1,.53,1.29,1.29,0,0,0,.64-.16,1.27,1.27,0,0,0,.43-.4,2.18,2.18,0,0,0,.25-.56,2.82,2.82,0,0,0,.08-.65,2,2,0,0,0-.37-1.29,1.25,1.25,0,0,0-1-.46,1.33,1.33,0,0,0-.65.16,1.44,1.44,0,0,0-.43.42,1.81,1.81,0,0,0-.24.57A3,3,0,0,0,159.35,271.49Z"/><path class="cls-5" d="M168.74,273.93h-1.08v-.7h0a1.49,1.49,0,0,1-.61.61,1.59,1.59,0,0,1-.81.22,1.84,1.84,0,0,1-1.42-.48,2.17,2.17,0,0,1-.44-1.47V269h1.1V272a1.35,1.35,0,0,0,.25.93.91.91,0,0,0,.7.27,1.39,1.39,0,0,0,.58-.11,1.08,1.08,0,0,0,.38-.28,1.14,1.14,0,0,0,.2-.43,2.35,2.35,0,0,0,.07-.54V269h1.09Zm-3.57-5.8v-1h1.1v1Zm2.75-1v1h-1.09v-1Z"/><path class="cls-5" d="M169.72,269h4.05v.77l-2.85,3.34h3v.87h-4.38v-.77l2.76-3.34h-2.57Z"/><path class="cls-5" d="M175.57,271.72a1.73,1.73,0,0,0,.08.56,1.39,1.39,0,0,0,.24.47,1.14,1.14,0,0,0,.42.33,1.37,1.37,0,0,0,.6.12,1.3,1.3,0,0,0,.77-.21,1.26,1.26,0,0,0,.44-.62h1a2.11,2.11,0,0,1-.3.72,2,2,0,0,1-1.18.86,2.47,2.47,0,0,1-.77.11,2.57,2.57,0,0,1-1-.19,2.14,2.14,0,0,1-.77-.54,2.19,2.19,0,0,1-.47-.83,3.23,3.23,0,0,1-.16-1.06,3,3,0,0,1,.17-1,2.49,2.49,0,0,1,.48-.84,2.39,2.39,0,0,1,2.81-.54,2.47,2.47,0,0,1,.78.65,2.66,2.66,0,0,1,.44.93,2.8,2.8,0,0,1,.08,1.08Zm2.56-.72a1.72,1.72,0,0,0-.11-.5,1.46,1.46,0,0,0-.25-.42,1.42,1.42,0,0,0-.39-.29,1.18,1.18,0,0,0-.5-.11,1.47,1.47,0,0,0-.53.1,1.26,1.26,0,0,0-.4.28,1.51,1.51,0,0,0-.27.42,1.31,1.31,0,0,0-.11.52Z"/><path class="cls-5" d="M180.06,269h1v.73l0,0a2,2,0,0,1,.66-.65,1.69,1.69,0,0,1,.89-.23,1.86,1.86,0,0,1,1.29.42,1.6,1.6,0,0,1,.47,1.27v3.42h-1.09V270.8a1.41,1.41,0,0,0-.25-.85.92.92,0,0,0-.73-.27,1.35,1.35,0,0,0-.5.1,1,1,0,0,0-.37.28,1.1,1.1,0,0,0-.24.42,1.44,1.44,0,0,0-.09.51v2.94h-1.1Z"/><path class="cls-5" d="M187.77,269H189l1.26,3.82h0l1.21-3.82h1.14l-1.79,5h-1.23Z"/><path class="cls-5" d="M194.12,271.72a1.73,1.73,0,0,0,.08.56,1.23,1.23,0,0,0,.24.47,1.14,1.14,0,0,0,.42.33,1.37,1.37,0,0,0,.6.12,1.3,1.3,0,0,0,.77-.21,1.26,1.26,0,0,0,.44-.62h1a2.11,2.11,0,0,1-.3.72,2,2,0,0,1-1.18.86,2.52,2.52,0,0,1-.77.11,2.57,2.57,0,0,1-1-.19,2.14,2.14,0,0,1-.77-.54,2.19,2.19,0,0,1-.47-.83,3.23,3.23,0,0,1-.16-1.06,3,3,0,0,1,.17-1,2.49,2.49,0,0,1,.48-.84,2.24,2.24,0,0,1,1.76-.78,2.26,2.26,0,0,1,1,.24,2.32,2.32,0,0,1,.77.65,2.52,2.52,0,0,1,.45.93,3,3,0,0,1,.08,1.08Zm2.56-.72a2.13,2.13,0,0,0-.11-.5,1.46,1.46,0,0,0-.25-.42,1.42,1.42,0,0,0-.39-.29,1.18,1.18,0,0,0-.5-.11,1.47,1.47,0,0,0-.53.1,1.15,1.15,0,0,0-.4.28,1.17,1.17,0,0,0-.27.42,1.31,1.31,0,0,0-.11.52Z"/><path class="cls-5" d="M201.32,267.06h1.09v2.54h0a1.75,1.75,0,0,1,.28-.33,1.78,1.78,0,0,1,.36-.25,2.1,2.1,0,0,1,.42-.15,1.58,1.58,0,0,1,.43-.05,2.47,2.47,0,0,1,1,.2,2.06,2.06,0,0,1,.73.57,2.57,2.57,0,0,1,.43.84,3.52,3.52,0,0,1,.15,1,4,4,0,0,1-.13,1,2.56,2.56,0,0,1-.4.83,2.09,2.09,0,0,1-.67.58,2,2,0,0,1-1,.21,4.36,4.36,0,0,1-.51,0,1.89,1.89,0,0,1-.48-.13,1.46,1.46,0,0,1-.42-.25,1.09,1.09,0,0,1-.31-.41h0v.69h-1Zm3.83,4.38a2.37,2.37,0,0,0-.09-.65,1.7,1.7,0,0,0-.26-.56,1.27,1.27,0,0,0-.43-.4,1.16,1.16,0,0,0-.6-.15,1.2,1.2,0,0,0-1,.48,2.11,2.11,0,0,0-.35,1.28,2.58,2.58,0,0,0,.09.7,1.62,1.62,0,0,0,.27.56,1.39,1.39,0,0,0,.44.36,1.25,1.25,0,0,0,.59.14,1.29,1.29,0,0,0,.64-.16,1.36,1.36,0,0,0,.43-.4,1.67,1.67,0,0,0,.24-.56A3.3,3.3,0,0,0,205.15,271.44Z"/><path class="cls-5" d="M211.54,273.93h-1.08v-.7h0a1.41,1.41,0,0,1-.6.61,1.65,1.65,0,0,1-.81.22,1.83,1.83,0,0,1-1.42-.48,2.17,2.17,0,0,1-.44-1.47V269h1.1V272a1.35,1.35,0,0,0,.25.93.9.9,0,0,0,.7.27,1.43,1.43,0,0,0,.58-.11,1,1,0,0,0,.37-.28,1,1,0,0,0,.21-.43,2.35,2.35,0,0,0,.06-.54V269h1.1Zm-3.57-5.8v-1h1.1v1Zm2.75-1v1h-1.1v-1Z"/><path class="cls-5" d="M212.15,269h1.2l1.3,3.72h0l1.26-3.72h1.14l-1.93,5.25-.26.64a2.65,2.65,0,0,1-.32.55,1.43,1.43,0,0,1-.47.37,1.63,1.63,0,0,1-.71.14,4.77,4.77,0,0,1-.76-.06v-.92l.26,0a1.09,1.09,0,0,0,.26,0,1,1,0,0,0,.32-.05.48.48,0,0,0,.2-.14.69.69,0,0,0,.14-.22,1.6,1.6,0,0,0,.11-.29l.12-.38Z"/><path class="cls-5" d="M222.06,273.93H221v-.7h0a1.41,1.41,0,0,1-.6.61,1.62,1.62,0,0,1-.81.22,1.83,1.83,0,0,1-1.42-.48,2.17,2.17,0,0,1-.44-1.47V269h1.1V272a1.35,1.35,0,0,0,.25.93.91.91,0,0,0,.7.27,1.43,1.43,0,0,0,.58-.11,1,1,0,0,0,.37-.28,1,1,0,0,0,.21-.43,2.35,2.35,0,0,0,.06-.54V269h1.1Zm-3.57-5.8v-1h1.1v1Zm2.75-1v1h-1.09v-1Z"/><path class="cls-5" d="M223.24,267.06h1.1V271l2-2h1.34l-1.9,1.83,2.09,3.15h-1.34L225,271.51l-.66.64v1.78h-1.1Z"/><path class="cls-5" d="M228.41,267.06h1.1v6.87h-1.1Z"/><path class="cls-5" d="M235.08,273.93H234v-.7h0a1.53,1.53,0,0,1-.6.61,1.66,1.66,0,0,1-.82.22,1.86,1.86,0,0,1-1.42-.48,2.17,2.17,0,0,1-.43-1.47V269h1.09V272a1.4,1.4,0,0,0,.25.93.92.92,0,0,0,.71.27,1.35,1.35,0,0,0,.57-.11,1,1,0,0,0,.38-.28,1.33,1.33,0,0,0,.21-.43,2.35,2.35,0,0,0,.06-.54V269h1.1Zm-3.58-5.8v-1h1.1v1Zm2.76-1v1h-1.1v-1Z"/><path class="cls-5" d="M236.26,267.06h1.1V271l2-2h1.35l-1.91,1.83,2.09,3.15h-1.34L238,271.51l-.65.64v1.78h-1.1Z"/><path class="cls-5" d="M241.43,267.06h1.1v6.87h-1.1Z"/><path class="cls-5" d="M244.58,271.72a1.73,1.73,0,0,0,.08.56,1.23,1.23,0,0,0,.24.47,1.14,1.14,0,0,0,.42.33,1.25,1.25,0,0,0,1.81-.71h1a2.11,2.11,0,0,1-.3.72,2,2,0,0,1-1.18.86,2.86,2.86,0,0,1-1.81-.08,2.14,2.14,0,0,1-.77-.54,2.19,2.19,0,0,1-.47-.83,3.23,3.23,0,0,1-.16-1.06,3,3,0,0,1,.17-1,2.49,2.49,0,0,1,.48-.84,2.24,2.24,0,0,1,1.75-.78,2.27,2.27,0,0,1,1.06.24,2.32,2.32,0,0,1,.77.65,2.52,2.52,0,0,1,.45.93,2.8,2.8,0,0,1,.07,1.08Zm2.56-.72a2.13,2.13,0,0,0-.11-.5,1.73,1.73,0,0,0-.25-.42,1.42,1.42,0,0,0-.39-.29,1.19,1.19,0,0,0-.51-.11,1.46,1.46,0,0,0-.52.1,1.15,1.15,0,0,0-.4.28,1.17,1.17,0,0,0-.27.42,1.31,1.31,0,0,0-.11.52Z"/><path class="cls-5" d="M249.07,269h1v1h0a1,1,0,0,1,.19-.39,1.56,1.56,0,0,1,.33-.35,2,2,0,0,1,.44-.26,1.41,1.41,0,0,1,.49-.09h.27l.15,0v1l-.24,0h-.23a1.2,1.2,0,0,0-.53.11,1.31,1.31,0,0,0-.43.32,2,2,0,0,0-.29.54,2.3,2.3,0,0,0-.1.73v2.37h-1.1Z"/><path class="cls-5" d="M257,273.93h-1v-.68h0a1.37,1.37,0,0,1-.65.63,2.25,2.25,0,0,1-.89.18,2.49,2.49,0,0,1-1-.2,2.16,2.16,0,0,1-.73-.57,2.47,2.47,0,0,1-.43-.84,3.49,3.49,0,0,1-.15-1,3.41,3.41,0,0,1,.19-1.17,2.29,2.29,0,0,1,.48-.81,2,2,0,0,1,.7-.46,2.17,2.17,0,0,1,.79-.15,2.49,2.49,0,0,1,.47,0,2.24,2.24,0,0,1,.46.14,1.55,1.55,0,0,1,.41.25,1.2,1.2,0,0,1,.32.35h0v-2.54H257Zm-3.83-2.44a2.72,2.72,0,0,0,.08.63,2,2,0,0,0,.25.55,1.3,1.3,0,0,0,.43.38,1.24,1.24,0,0,0,.62.15,1.28,1.28,0,0,0,.63-.16,1.18,1.18,0,0,0,.43-.4,1.66,1.66,0,0,0,.25-.56,2.37,2.37,0,0,0,.09-.65,2,2,0,0,0-.38-1.29,1.23,1.23,0,0,0-1-.46,1.3,1.3,0,0,0-.65.16,1.33,1.33,0,0,0-.43.42,1.63,1.63,0,0,0-.25.57A3.7,3.7,0,0,0,253.14,271.49Z"/><path class="cls-5" d="M259,271.72a1.73,1.73,0,0,0,.09.56,1.23,1.23,0,0,0,.24.47,1.14,1.14,0,0,0,.42.33,1.25,1.25,0,0,0,1.81-.71h1a2.11,2.11,0,0,1-.3.72,2.63,2.63,0,0,1-.51.54,2.3,2.3,0,0,1-.67.32,2.54,2.54,0,0,1-.78.11,2.61,2.61,0,0,1-1-.19,2.17,2.17,0,0,1-1.23-1.37,3.23,3.23,0,0,1-.16-1.06,2.8,2.8,0,0,1,.17-1,2.49,2.49,0,0,1,.48-.84,2.24,2.24,0,0,1,1.75-.78,2.3,2.3,0,0,1,1.06.24,2.32,2.32,0,0,1,.77.65,2.52,2.52,0,0,1,.45.93,2.8,2.8,0,0,1,.07,1.08Zm2.56-.72a1.45,1.45,0,0,0-.11-.5,1.27,1.27,0,0,0-.25-.42,1.24,1.24,0,0,0-.38-.29,1.19,1.19,0,0,0-.51-.11,1.46,1.46,0,0,0-.52.1,1.3,1.3,0,0,0-.41.28,1.51,1.51,0,0,0-.27.42,1.78,1.78,0,0,0-.11.52Z"/><path class="cls-5" d="M266.22,267.06h1.1V271l2-2h1.35l-1.9,1.83,2.09,3.15H269.5L268,271.51l-.66.64v1.78h-1.1Z"/><path class="cls-5" d="M275.73,273.93h-1.07v-.7h0a1.53,1.53,0,0,1-.6.61,1.66,1.66,0,0,1-.82.22,1.84,1.84,0,0,1-1.42-.48,2.17,2.17,0,0,1-.43-1.47V269h1.09V272a1.35,1.35,0,0,0,.25.93.92.92,0,0,0,.71.27,1.35,1.35,0,0,0,.57-.11,1,1,0,0,0,.38-.28,1.33,1.33,0,0,0,.21-.43,2.35,2.35,0,0,0,.06-.54V269h1.09Z"/><path class="cls-5" d="M276.92,267.06H278v6.87h-1.1Z"/><path class="cls-5" d="M279.24,267.06h1.1v6.87h-1.1Z"/><path class="cls-5" d="M285.7,272.82a.54.54,0,0,0,.05.29.23.23,0,0,0,.21.09h.11l.16,0v.76l-.15,0-.19,0a.63.63,0,0,1-.19,0h-.17a1,1,0,0,1-.55-.13.66.66,0,0,1-.29-.47,2,2,0,0,1-.81.46,3,3,0,0,1-.92.14,2.25,2.25,0,0,1-.64-.09,1.52,1.52,0,0,1-.54-.27,1.27,1.27,0,0,1-.38-.45,1.44,1.44,0,0,1-.14-.64,1.49,1.49,0,0,1,.17-.75,1.27,1.27,0,0,1,.44-.45,2,2,0,0,1,.62-.24c.22-.05.46-.08.69-.11a4,4,0,0,1,.56-.08l.48-.08a.75.75,0,0,0,.33-.18.49.49,0,0,0,.12-.36.63.63,0,0,0-.1-.35.72.72,0,0,0-.25-.21,1.13,1.13,0,0,0-.34-.09l-.34,0a1.36,1.36,0,0,0-.76.2.74.74,0,0,0-.34.59h-1.1a1.75,1.75,0,0,1,.23-.8,1.69,1.69,0,0,1,.52-.51,2,2,0,0,1,.71-.27,4.28,4.28,0,0,1,.81-.07,3.51,3.51,0,0,1,.72.07,2.25,2.25,0,0,1,.64.25,1.38,1.38,0,0,1,.45.45,1.2,1.2,0,0,1,.18.67Zm-1.1-1.39a1.3,1.3,0,0,1-.62.2c-.24,0-.48.06-.73.1l-.33.08a1.13,1.13,0,0,0-.29.15.59.59,0,0,0-.2.24.8.8,0,0,0-.07.36.46.46,0,0,0,.1.31.86.86,0,0,0,.26.2,1.59,1.59,0,0,0,.33.1l.32,0a1.89,1.89,0,0,0,.39-.05,1.18,1.18,0,0,0,.4-.17.86.86,0,0,0,.31-.29.7.7,0,0,0,.13-.44Z"/><path class="cls-5" d="M286.88,269h1v.73l0,0a2,2,0,0,1,.66-.65,1.69,1.69,0,0,1,.89-.23,1.86,1.86,0,0,1,1.29.42,1.64,1.64,0,0,1,.47,1.27v3.42h-1.1V270.8a1.28,1.28,0,0,0-.25-.85.89.89,0,0,0-.72-.27,1.35,1.35,0,0,0-.5.1,1,1,0,0,0-.37.28,1.1,1.1,0,0,0-.24.42,1.44,1.44,0,0,0-.09.51v2.94h-1.1Z"/><path class="cls-5" d="M292.44,273.93v-5h1.09v5Z"/><path class="cls-5" d="M294.76,267.06h1.09v6.87h-1.09Z"/><path class="cls-5" d="M301.21,272.82a.52.52,0,0,0,.06.29.2.2,0,0,0,.2.09h.12l.15,0v.76l-.14,0-.19,0a.69.69,0,0,1-.2,0h-.16a1.08,1.08,0,0,1-.56-.13.72.72,0,0,1-.29-.47,1.92,1.92,0,0,1-.8.46,3,3,0,0,1-.92.14,2.25,2.25,0,0,1-.64-.09,1.66,1.66,0,0,1-.55-.27,1.24,1.24,0,0,1-.37-.45,1.31,1.31,0,0,1-.14-.64,1.39,1.39,0,0,1,.17-.75,1.27,1.27,0,0,1,.44-.45,2,2,0,0,1,.61-.24c.23-.05.46-.08.69-.11a4.1,4.1,0,0,1,.57-.08l.48-.08a.71.71,0,0,0,.32-.18.49.49,0,0,0,.13-.36.56.56,0,0,0-.11-.35.64.64,0,0,0-.25-.21,1.15,1.15,0,0,0-.33-.09l-.35,0a1.39,1.39,0,0,0-.76.2.73.73,0,0,0-.33.59H297a1.75,1.75,0,0,1,.23-.8,1.69,1.69,0,0,1,.52-.51,2,2,0,0,1,.7-.27,4.43,4.43,0,0,1,.81-.07,3.38,3.38,0,0,1,.72.07,2.14,2.14,0,0,1,.64.25,1.41,1.41,0,0,1,.46.45,1.19,1.19,0,0,1,.17.67Zm-1.09-1.39a1.3,1.3,0,0,1-.62.2c-.24,0-.49.06-.73.1l-.34.08a1.32,1.32,0,0,0-.29.15.65.65,0,0,0-.19.24.8.8,0,0,0-.07.36.46.46,0,0,0,.1.31.86.86,0,0,0,.26.2,1.34,1.34,0,0,0,.32.1l.32,0a1.9,1.9,0,0,0,.4-.05,1.27,1.27,0,0,0,.4-.17,1,1,0,0,0,.31-.29.7.7,0,0,0,.13-.44Z"/><path class="cls-5" d="M302.4,269h1v.69h0a2.16,2.16,0,0,1,.27-.33,1.35,1.35,0,0,1,.32-.26,1.53,1.53,0,0,1,.41-.17,2.09,2.09,0,0,1,.53-.06,1.74,1.74,0,0,1,.84.2,1.09,1.09,0,0,1,.55.62,2.3,2.3,0,0,1,.65-.6,1.7,1.7,0,0,1,.91-.22,1.78,1.78,0,0,1,1.23.38,1.66,1.66,0,0,1,.44,1.29v3.44h-1.1V271c0-.2,0-.38,0-.54a1.09,1.09,0,0,0-.11-.43.59.59,0,0,0-.27-.27,1.17,1.17,0,0,0-.5-.1.92.92,0,0,0-.81.35,1.63,1.63,0,0,0-.25,1v2.92h-1.1v-3.2a1.3,1.3,0,0,0-.19-.78.77.77,0,0,0-.69-.27,1,1,0,0,0-.41.09,1,1,0,0,0-.34.25,1.22,1.22,0,0,0-.24.4,1.59,1.59,0,0,0-.09.55v3h-1.1Z"/><path class="cls-5" d="M314.94,272.82a.65.65,0,0,0,.05.29.23.23,0,0,0,.21.09h.12l.15,0v.76l-.15,0-.19,0a.58.58,0,0,1-.19,0h-.16a1.06,1.06,0,0,1-.56-.13.69.69,0,0,1-.29-.47,2,2,0,0,1-.8.46,3.07,3.07,0,0,1-.92.14,2.32,2.32,0,0,1-.65-.09,1.71,1.71,0,0,1-.54-.27,1.38,1.38,0,0,1-.38-.45,1.44,1.44,0,0,1-.14-.64,1.49,1.49,0,0,1,.17-.75,1.29,1.29,0,0,1,.45-.45,1.94,1.94,0,0,1,.61-.24c.23-.05.46-.08.69-.11A4.1,4.1,0,0,1,313,271a4.13,4.13,0,0,0,.47-.08.75.75,0,0,0,.33-.18.49.49,0,0,0,.12-.36.56.56,0,0,0-.1-.35.72.72,0,0,0-.25-.21,1.15,1.15,0,0,0-.33-.09l-.35,0a1.36,1.36,0,0,0-.76.2.74.74,0,0,0-.34.59h-1.09a1.64,1.64,0,0,1,.23-.8,1.55,1.55,0,0,1,.51-.51,2.09,2.09,0,0,1,.71-.27,4.28,4.28,0,0,1,.81-.07,3.51,3.51,0,0,1,.72.07,2.14,2.14,0,0,1,.64.25,1.52,1.52,0,0,1,.46.45,1.28,1.28,0,0,1,.17.67Zm-1.1-1.39a1.26,1.26,0,0,1-.61.2c-.25,0-.49.06-.73.1l-.34.08a1.13,1.13,0,0,0-.29.15.68.68,0,0,0-.2.24.8.8,0,0,0-.07.36.47.47,0,0,0,.11.31.82.82,0,0,0,.25.2,1.59,1.59,0,0,0,.33.1l.32,0a2,2,0,0,0,.4-.05,1.27,1.27,0,0,0,.4-.17,1.06,1.06,0,0,0,.31-.29.76.76,0,0,0,.12-.44Z"/><path class="cls-5" d="M316,269H320v.77l-2.85,3.34h3v.87h-4.38v-.77l2.75-3.34H316Z"/><path class="cls-5" d="M321,272.63h1.33v1.3H321Z"/></g></g></svg>