<svg xmlns="http://www.w3.org/2000/svg" viewBox="0 0 696.81 238.49"><defs><style>.cls-1{fill:#e30613;}.cls-2,.cls-3{fill:#3c3c3b;}.cls-2{opacity:0.8;}.cls-4{fill:#b2b2b2;}</style></defs><g id="Layer_2" data-name="Layer 2"><g id="Layer_1-2" data-name="Layer 1"><path class="cls-1" d="M136.43.14h18a2.85,2.85,0,0,1,2.83,2.51l2.38,20.14L176.32,2.14A5.76,5.76,0,0,1,180.79,0h15a2.84,2.84,0,0,1,2.8,2.35l3.66,20.44,15.3-20.36a5.77,5.77,0,0,1,4.6-2.29h21.6L205.87,47.67h0a24.89,24.89,0,0,1-24.39-19.88l-.74-3.58L161.1,47.67h0a23.85,23.85,0,0,1-23.55-20l-3.93-24.2A2.85,2.85,0,0,1,136.43.14Z"/><path class="cls-2" d="M326.68,4.18A2.85,2.85,0,0,0,324,.47H308.78a5.75,5.75,0,0,0-5.48,4L290.84,43.71,274,1.92A2.84,2.84,0,0,0,271.34.14H253.77a5.77,5.77,0,0,0-4.52,2.19L213.64,47.67h18.13a15.49,15.49,0,0,0,12.66-6.56l14-19.94.68,2.13a34.92,34.92,0,0,0,30.47,24.26l0,.11h40.85a19.4,19.4,0,0,0,18.48-13.48H317.17Z"/><path class="cls-2" d="M431.39.47h-24.5A11.3,11.3,0,0,0,400,2.83L381.18,17.4,385.49,4A2.68,2.68,0,0,0,382.94.47H367.55a5.77,5.77,0,0,0-5.49,4l-9.49,29.89a10.21,10.21,0,0,0,9.73,13.3h9.32l2.71-8.56,9.23-6.61A32.48,32.48,0,0,0,411,47.67h6.85L401.35,22.05Z"/><path class="cls-2" d="M459.36,4.18A2.84,2.84,0,0,0,456.65.47H441.47a5.77,5.77,0,0,0-5.49,4l-9.53,30a10.11,10.11,0,0,0,9.64,13.17h41.19l4.32-13.48H449.86Z"/><path class="cls-2" d="M684.74.47H634.33a5.75,5.75,0,0,0-5.48,4L616.74,42.62,600.32,1.92A2.84,2.84,0,0,0,597.68.14H580.11a5.77,5.77,0,0,0-4.52,2.19l-34,43.34L545,34.73H508l1.69-5.13h34l3.58-11.39h-34l1.51-4.79h36.52l3-9.23A2.85,2.85,0,0,0,551.52.47H500.24a5.77,5.77,0,0,0-5.49,4l-9.23,29.08a10.83,10.83,0,0,0,10.32,14.11h62.28a15.49,15.49,0,0,0,12.65-6.56l14-19.94.68,2.13A34.92,34.92,0,0,0,615.2,47.47l-.07.2H625a18.58,18.58,0,0,0,17.6-12.62h8.33l10.78,12.62h25.57L675,35C696.76,34.36,706.1.47,684.74.47ZM668.11,23.66h-22l2.69-10.25h21.93C675.21,13.41,672.4,23.66,668.11,23.66Z"/><path class="cls-3" d="M346.32,69.43l.56-.64A5.52,5.52,0,0,0,351,70.5c1.72,0,2.9-1,2.9-2.29v0c0-1.22-.64-1.92-3.25-2.45-2.77-.57-3.87-1.47-3.87-3.23v0c0-1.71,1.56-3,3.69-3a5.77,5.77,0,0,1,3.94,1.39l-.54.68a5,5,0,0,0-3.43-1.3c-1.71,0-2.81,1-2.81,2.16v0c0,1.23.63,1.93,3.35,2.51s3.78,1.48,3.78,3.17v0c0,1.86-1.59,3.14-3.81,3.14A6.55,6.55,0,0,1,346.32,69.43Z"/><path class="cls-3" d="M360.42,59.61h.81l4.61,6.8,4.61-6.8h.81V71.1h-.86v-10l-4.55,6.62h-.06l-4.55-6.62v10h-.82Z"/><path class="cls-3" d="M381.89,59.53h.82l5.36,11.57h-.94l-1.46-3.21h-6.78l-1.46,3.21h-.89Zm3.42,7.58-3-6.65-3,6.65Z"/><path class="cls-3" d="M393.35,59.61h4.83a4.46,4.46,0,0,1,3.23,1.13,3,3,0,0,1,.87,2.14v0c0,1.92-1.44,3-3.36,3.28l3.79,4.91h-1.08L398,66.34h-3.76V71.1h-.86Zm4.73,6c1.92,0,3.35-1,3.35-2.63v0c0-1.56-1.2-2.51-3.3-2.51h-3.92v5.17Z"/><path class="cls-3" d="M411.1,60.4h-4v-.79H416v.79h-4V71.1h-.85Z"/><path class="cls-3" d="M429.11,59.61h3.82c3.61,0,6.11,2.48,6.11,5.71v0a5.75,5.75,0,0,1-6.11,5.74h-3.82Zm.85.79v9.91h3a4.87,4.87,0,0,0,5.22-4.92v0a4.92,4.92,0,0,0-5.22-5Z"/><path class="cls-3" d="M444.92,59.61h.85V71.1h-.85Z"/><path class="cls-3" d="M451.42,69.43l.55-.64a5.54,5.54,0,0,0,4.12,1.71c1.73,0,2.91-1,2.91-2.29v0c0-1.22-.64-1.92-3.25-2.45-2.77-.57-3.87-1.47-3.87-3.23v0c0-1.71,1.56-3,3.69-3a5.79,5.79,0,0,1,3.94,1.39l-.54.68a5,5,0,0,0-3.43-1.3c-1.71,0-2.81,1-2.81,2.16v0c0,1.23.62,1.93,3.35,2.51s3.77,1.48,3.77,3.17v0c0,1.86-1.59,3.14-3.8,3.14A6.53,6.53,0,0,1,451.42,69.43Z"/><path class="cls-3" d="M465.63,59.61h.86V71.1h-.86Z"/><path class="cls-3" d="M472.87,59.61h.81l7.93,10v-10h.82V71.1h-.64l-8.1-10.21V71.1h-.82Z"/><path class="cls-3" d="M488.7,59.61h8.09v.79h-7.24v4.71h6.5v.79h-6.5v5.2h-.85Z"/><path class="cls-3" d="M502.32,59.61h8.18v.79h-7.32v4.51h6.58v.79h-6.58v4.61h7.4v.79h-8.26Z"/><path class="cls-3" d="M516.18,59.61h.8l7.93,10v-10h.82V71.1h-.64L517,60.89V71.1h-.82Z"/><path class="cls-3" d="M531.49,65.39v0a5.78,5.78,0,0,1,5.75-6,6,6,0,0,1,4.47,1.84l-.61.63a5.27,5.27,0,0,0-3.88-1.69,4.91,4.91,0,0,0-4.84,5.13v0a5,5,0,0,0,4.86,5.17,5.24,5.24,0,0,0,4-1.79l.57.56a6.15,6.15,0,0,1-4.56,2A5.71,5.71,0,0,1,531.49,65.39Z"/><path class="cls-3" d="M550.16,60.4h-4v-.79H555v.79h-4V71.1h-.85Z"/><path class="cls-3" d="M560.5,59.61h.86V71.1h-.86Z"/><path class="cls-3" d="M567.23,65.39v0a5.78,5.78,0,1,1,11.56,0v0a5.78,5.78,0,1,1-11.56,0Zm10.67,0v0A5,5,0,0,0,573,60.19a4.91,4.91,0,0,0-4.87,5.13v0A5,5,0,0,0,573,70.53,4.91,4.91,0,0,0,577.9,65.39Z"/><path class="cls-3" d="M584.55,59.61h.81l7.92,10v-10h.82V71.1h-.64l-8.09-10.21V71.1h-.82Z"/><path class="cls-3" d="M607.42,69.43l.56-.64a5.52,5.52,0,0,0,4.12,1.71c1.72,0,2.9-1,2.9-2.29v0c0-1.22-.64-1.92-3.25-2.45-2.77-.57-3.87-1.47-3.87-3.23v0c0-1.71,1.56-3,3.69-3a5.77,5.77,0,0,1,3.94,1.39l-.54.68a5,5,0,0,0-3.43-1.3c-1.71,0-2.81,1-2.81,2.16v0c0,1.23.63,1.93,3.35,2.51s3.78,1.48,3.78,3.17v0c0,1.86-1.6,3.14-3.81,3.14A6.55,6.55,0,0,1,607.42,69.43Z"/><path class="cls-3" d="M624.77,66.56l-4.93-7h1.07l4.3,6.17,4.32-6.17h1l-4.93,6.93V71.1h-.85Z"/><path class="cls-3" d="M634.33,69.43l.55-.64A5.54,5.54,0,0,0,639,70.5c1.73,0,2.91-1,2.91-2.29v0c0-1.22-.64-1.92-3.25-2.45-2.78-.57-3.88-1.47-3.88-3.23v0c0-1.71,1.56-3,3.7-3a5.79,5.79,0,0,1,3.94,1.39l-.54.68a5,5,0,0,0-3.43-1.3c-1.71,0-2.81,1-2.81,2.16v0c0,1.23.62,1.93,3.35,2.51s3.77,1.48,3.77,3.17v0c0,1.86-1.59,3.14-3.81,3.14A6.52,6.52,0,0,1,634.33,69.43Z"/><path class="cls-3" d="M651.36,60.4h-4v-.79h8.86v.79h-4V71.1h-.86Z"/><path class="cls-3" d="M661.59,59.61h8.18v.79h-7.33v4.51H669v.79h-6.59v4.61h7.41v.79h-8.26Z"/><path class="cls-3" d="M675.45,59.61h.8l4.61,6.8,4.62-6.8h.8V71.1h-.85v-10l-4.55,6.62h-.06l-4.55-6.62v10h-.82Z"/><path class="cls-4" d="M8.38,212.48a4.59,4.59,0,0,1-3.13,1,4.64,4.64,0,0,1-3.15-1,3.83,3.83,0,0,1-1.11-3v-6.21h2.2v6.21a4.18,4.18,0,0,0,.07.8,1.68,1.68,0,0,0,.29.7,1.67,1.67,0,0,0,.63.49,2.61,2.61,0,0,0,1.07.18,2.06,2.06,0,0,0,1.62-.52,2.5,2.5,0,0,0,.45-1.65v-6.21h2.2v6.21A3.78,3.78,0,0,1,8.38,212.48Z"/><path class="cls-4" d="M13.87,215.4a2.87,2.87,0,0,1-1.59.38l-.61,0-.61,0v-1.64l.57.06a3.88,3.88,0,0,0,.59,0,.78.78,0,0,0,.58-.31.94.94,0,0,0,.19-.58,1.33,1.33,0,0,0-.08-.45L10.37,206h2.12l1.63,5h0l1.58-5h2.06l-3,8.13A2.48,2.48,0,0,1,13.87,215.4Z"/><path class="cls-4" d="M18.38,208.23a2.3,2.3,0,0,1,.35-1.16,2.4,2.4,0,0,1,.78-.74,3.43,3.43,0,0,1,1.07-.4,6.11,6.11,0,0,1,1.2-.12,8.41,8.41,0,0,1,1.11.08,3.36,3.36,0,0,1,1,.3,2.1,2.1,0,0,1,.76.62,1.8,1.8,0,0,1,.29,1.06v3.76a7.07,7.07,0,0,0,.06.94,1.68,1.68,0,0,0,.19.68h-2c0-.12-.07-.23-.1-.35a2,2,0,0,1,0-.35,2.71,2.71,0,0,1-1.12.68,4.54,4.54,0,0,1-1.32.2,3.73,3.73,0,0,1-1-.13,2,2,0,0,1-.78-.39,2,2,0,0,1-.53-.67,2.4,2.4,0,0,1-.18-1,2.13,2.13,0,0,1,.21-1,1.84,1.84,0,0,1,.56-.64,2.48,2.48,0,0,1,.79-.36,8.79,8.79,0,0,1,.89-.19l.88-.11a7,7,0,0,0,.77-.12,1.38,1.38,0,0,0,.53-.25.54.54,0,0,0,.18-.47,1.08,1.08,0,0,0-.1-.51.78.78,0,0,0-.28-.29,1.11,1.11,0,0,0-.41-.14,2.6,2.6,0,0,0-.5,0,1.55,1.55,0,0,0-.92.25,1.12,1.12,0,0,0-.39.84ZM23,209.7a.79.79,0,0,1-.31.18,2.46,2.46,0,0,1-.41.1l-.45.07-.48.07a3.17,3.17,0,0,0-.44.12,1.11,1.11,0,0,0-.38.18.88.88,0,0,0-.26.31,1,1,0,0,0-.1.46,1,1,0,0,0,.1.44.76.76,0,0,0,.27.29,1.13,1.13,0,0,0,.39.15,2.32,2.32,0,0,0,.46,0,1.76,1.76,0,0,0,.91-.19,1.44,1.44,0,0,0,.48-.47,1.77,1.77,0,0,0,.19-.56,4.21,4.21,0,0,0,0-.44Z"/><path class="cls-4" d="M28.39,206v1.34h0a2.61,2.61,0,0,1,.37-.62,2.55,2.55,0,0,1,.55-.49,2.87,2.87,0,0,1,.66-.32,2.53,2.53,0,0,1,.73-.11,1.82,1.82,0,0,1,.43.07v1.85l-.33,0-.38,0a2.17,2.17,0,0,0-.93.18,1.66,1.66,0,0,0-.61.5,2.12,2.12,0,0,0-.33.73,4.39,4.39,0,0,0-.09.91v3.27h-2V206Z"/><path class="cls-4" d="M34,206v7.24H32V206Z"/><path class="cls-4" d="M.8,217.92H4.14a2.33,2.33,0,0,1,1.48.43,1.51,1.51,0,0,1,.56,1.28,1.55,1.55,0,0,1-.26.89,1.65,1.65,0,0,1-.72.57v0a1.51,1.51,0,0,1,1,.6,2,2,0,0,1,.33,1.17,1.94,1.94,0,0,1-.15.76,1.44,1.44,0,0,1-.45.6,2.26,2.26,0,0,1-.79.41A3.84,3.84,0,0,1,4,224.8H.8ZM2,220.8H4a1.1,1.1,0,0,0,.72-.24,1.08,1.08,0,0,0,0-1.44A1.2,1.2,0,0,0,4,218.9H2Zm0,3H4.13a1.18,1.18,0,0,0,.85-.28,1.06,1.06,0,0,0,.3-.8,1,1,0,0,0-.3-.79,1.22,1.22,0,0,0-.85-.27H2Z"/><path class="cls-4" d="M11.79,224.8H10.71v-.7h0a1.45,1.45,0,0,1-.6.6,1.51,1.51,0,0,1-.81.23,1.8,1.8,0,0,1-1.42-.49A2.12,2.12,0,0,1,7.42,223v-3.16h1.1v3.05a1.35,1.35,0,0,0,.25.93.94.94,0,0,0,.7.26,1.4,1.4,0,0,0,.58-.1,1,1,0,0,0,.58-.71,2.35,2.35,0,0,0,.06-.54v-2.89h1.1Z"/><path class="cls-4" d="M15.65,217.92h1.1v6.88h-1.1Z"/><path class="cls-4" d="M20.22,224.93a2.57,2.57,0,0,1-1.06-.2,2.31,2.31,0,0,1-.79-.54,2.37,2.37,0,0,1-.49-.83,3.36,3.36,0,0,1,0-2.11,2.33,2.33,0,0,1,.49-.82,2.21,2.21,0,0,1,.79-.55,2.94,2.94,0,0,1,2.13,0,2.21,2.21,0,0,1,.79.55,2.33,2.33,0,0,1,.49.82,3.36,3.36,0,0,1,0,2.11,2.37,2.37,0,0,1-.49.83,2.31,2.31,0,0,1-.79.54A2.59,2.59,0,0,1,20.22,224.93Zm0-.87a1.29,1.29,0,0,0,.64-.15,1.31,1.31,0,0,0,.44-.4,1.85,1.85,0,0,0,.26-.57,2.56,2.56,0,0,0,0-1.27,1.85,1.85,0,0,0-.26-.57,1.28,1.28,0,0,0-.44-.39,1.19,1.19,0,0,0-.64-.16,1.18,1.18,0,0,0-.63.16,1.28,1.28,0,0,0-.44.39,1.85,1.85,0,0,0-.26.57,2.56,2.56,0,0,0,0,1.27,1.85,1.85,0,0,0,.26.57,1.31,1.31,0,0,0,.44.4A1.28,1.28,0,0,0,20.22,224.06Z"/><path class="cls-4" d="M28.25,224.54a2.12,2.12,0,0,1-.63,1.68,2.65,2.65,0,0,1-1.81.55,3.92,3.92,0,0,1-.76-.08,2.29,2.29,0,0,1-.69-.26,1.62,1.62,0,0,1-.53-.48,1.51,1.51,0,0,1-.25-.73h1.1a.9.9,0,0,0,.16.37.77.77,0,0,0,.28.23,1,1,0,0,0,.35.11l.4,0a1.29,1.29,0,0,0,1-.33,1.33,1.33,0,0,0,.3-.94v-.76h0a1.64,1.64,0,0,1-.64.64,1.62,1.62,0,0,1-.86.24,2.25,2.25,0,0,1-1-.21,2,2,0,0,1-.7-.57,2.35,2.35,0,0,1-.39-.83,3.68,3.68,0,0,1-.13-1,3.06,3.06,0,0,1,.15-1,2.46,2.46,0,0,1,.45-.79,2.06,2.06,0,0,1,.7-.54,2.11,2.11,0,0,1,.95-.21,1.92,1.92,0,0,1,.87.2,1.41,1.41,0,0,1,.61.62h0v-.68h1.1Zm-2.43-.61a1.21,1.21,0,0,0,.62-.15,1.18,1.18,0,0,0,.41-.39,1.74,1.74,0,0,0,.23-.56,2.7,2.7,0,0,0,.07-.63,2.56,2.56,0,0,0-.07-.62,1.6,1.6,0,0,0-.24-.53,1.1,1.1,0,0,0-.41-.36,1.31,1.31,0,0,0-.61-.14,1.1,1.1,0,0,0-.62.16,1.15,1.15,0,0,0-.4.39,1.74,1.74,0,0,0-.23.56,3.34,3.34,0,0,0-.06.62,2.35,2.35,0,0,0,.07.6,1.72,1.72,0,0,0,.24.53,1.45,1.45,0,0,0,.4.38A1.27,1.27,0,0,0,25.82,223.93Z"/><path class="cls-4" d="M31.64,224.93a2.54,2.54,0,0,1-1.06-.2,2.21,2.21,0,0,1-1.28-1.37,3.36,3.36,0,0,1,0-2.11,2.19,2.19,0,0,1,.49-.82,2.12,2.12,0,0,1,.79-.55,2.91,2.91,0,0,1,2.12,0,2,2,0,0,1,.79.55,2.19,2.19,0,0,1,.49.82,3.36,3.36,0,0,1,0,2.11,2.23,2.23,0,0,1-.49.83,2.14,2.14,0,0,1-.79.54A2.54,2.54,0,0,1,31.64,224.93Zm0-.87a1.32,1.32,0,0,0,.64-.15,1.41,1.41,0,0,0,.44-.4,1.83,1.83,0,0,0,.25-.57,2.29,2.29,0,0,0,0-1.27,1.83,1.83,0,0,0-.25-.57,1.38,1.38,0,0,0-.44-.39,1.36,1.36,0,0,0-1.28,0,1.49,1.49,0,0,0-.44.39,1.83,1.83,0,0,0-.25.57,2.27,2.27,0,0,0-.08.63,2.29,2.29,0,0,0,.08.64,1.83,1.83,0,0,0,.25.57,1.53,1.53,0,0,0,.44.4A1.32,1.32,0,0,0,31.64,224.06Z"/><path class="cls-4" d="M37,217.76h1.05L35.33,225h-1Z"/><path class="cls-4" d="M42.62,223.69a.55.55,0,0,0,.06.29c0,.06.1.08.2.08h.27v.76l-.15,0-.18,0a.69.69,0,0,1-.2,0h-.16a1.08,1.08,0,0,1-.56-.13.69.69,0,0,1-.29-.48,1.89,1.89,0,0,1-.8.47,3.37,3.37,0,0,1-.92.14,2.37,2.37,0,0,1-.65-.09,1.71,1.71,0,0,1-.54-.27,1.24,1.24,0,0,1-.37-.45,1.34,1.34,0,0,1-.14-.64,1.49,1.49,0,0,1,.16-.75,1.24,1.24,0,0,1,.45-.46,2.34,2.34,0,0,1,.61-.23,5.5,5.5,0,0,1,.69-.11,4.1,4.1,0,0,1,.57-.08,2.94,2.94,0,0,0,.48-.09.66.66,0,0,0,.32-.17.51.51,0,0,0,.12-.37.53.53,0,0,0-.1-.34.64.64,0,0,0-.25-.21.9.9,0,0,0-.33-.09l-.35,0a1.47,1.47,0,0,0-.76.19.74.74,0,0,0-.33.6h-1.1a1.71,1.71,0,0,1,.23-.8,1.65,1.65,0,0,1,.51-.51,2.09,2.09,0,0,1,.71-.27,4.36,4.36,0,0,1,.81-.08,3.38,3.38,0,0,1,.72.08A2.14,2.14,0,0,1,42,220a1.52,1.52,0,0,1,.46.45,1.19,1.19,0,0,1,.17.67Zm-1.09-1.39a1.34,1.34,0,0,1-.62.2c-.24,0-.49.06-.73.1l-.34.08a1.32,1.32,0,0,0-.29.15.57.57,0,0,0-.19.24.8.8,0,0,0-.08.36.49.49,0,0,0,.11.31.67.67,0,0,0,.25.19A1.17,1.17,0,0,0,40,224l.32,0a1.87,1.87,0,0,0,.4,0,1.55,1.55,0,0,0,.4-.17,1,1,0,0,0,.31-.29.79.79,0,0,0,.13-.44Z"/><path class="cls-4" d="M43.81,219.82h1v.69h0a2.16,2.16,0,0,1,.27-.33,1.14,1.14,0,0,1,.32-.26,1.26,1.26,0,0,1,.41-.17,2.06,2.06,0,0,1,.53-.07,1.74,1.74,0,0,1,.84.21,1.12,1.12,0,0,1,.55.62,2.17,2.17,0,0,1,.65-.6,1.71,1.71,0,0,1,.91-.23,1.78,1.78,0,0,1,1.23.39,1.66,1.66,0,0,1,.44,1.29v3.44h-1.1v-2.91c0-.2,0-.38,0-.55a1.08,1.08,0,0,0-.11-.42.59.59,0,0,0-.27-.27,1.05,1.05,0,0,0-.51-.1.91.91,0,0,0-.8.35,1.63,1.63,0,0,0-.25,1v2.92h-1.1v-3.2a1.28,1.28,0,0,0-.19-.78.77.77,0,0,0-.69-.27,1,1,0,0,0-.41.09,1,1,0,0,0-.34.25,1.22,1.22,0,0,0-.24.4,1.58,1.58,0,0,0-.1.55v3H43.81Z"/><path class="cls-4" d="M52.21,217.92h1.1v2.54h0a1.22,1.22,0,0,1,.28-.32,1.78,1.78,0,0,1,.36-.25,1.56,1.56,0,0,1,.41-.15,1.65,1.65,0,0,1,.43-.06,2.32,2.32,0,0,1,1,.21,2,2,0,0,1,.73.57,2.59,2.59,0,0,1,.44.84,3.82,3.82,0,0,1,.14,1,3.44,3.44,0,0,1-.13,1,2.51,2.51,0,0,1-.4.84,1.82,1.82,0,0,1-.66.57,2,2,0,0,1-1,.22l-.5,0a2.72,2.72,0,0,1-.49-.13,2.22,2.22,0,0,1-.42-.25,1.3,1.3,0,0,1-.31-.41h0v.69h-1ZM56,222.31a2.82,2.82,0,0,0-.08-.65,2.12,2.12,0,0,0-.26-.57,1.38,1.38,0,0,0-.44-.39,1.15,1.15,0,0,0-.59-.15,1.22,1.22,0,0,0-1.05.48,2.16,2.16,0,0,0-.35,1.28,2.58,2.58,0,0,0,.09.7,1.36,1.36,0,0,0,.28.55,1.2,1.2,0,0,0,1,.5,1.22,1.22,0,0,0,.63-.15,1.37,1.37,0,0,0,.43-.4A1.67,1.67,0,0,0,56,223,2.73,2.73,0,0,0,56,222.31Z"/><path class="cls-4" d="M58.09,217.92h1.1v6.88h-1.1Z"/><path class="cls-4" d="M61.24,222.59a2.1,2.1,0,0,0,.08.56,1.41,1.41,0,0,0,.25.47,1.09,1.09,0,0,0,.41.32,1.4,1.4,0,0,0,.6.12,1.28,1.28,0,0,0,.77-.2,1.26,1.26,0,0,0,.44-.62h1a2.11,2.11,0,0,1-.3.72,2.15,2.15,0,0,1-1.18.86,2.76,2.76,0,0,1-.77.11,2.61,2.61,0,0,1-1-.19,2.23,2.23,0,0,1-.77-.54,2.33,2.33,0,0,1-.47-.83,3.52,3.52,0,0,1-.16-1.06,3,3,0,0,1,.17-1,2.49,2.49,0,0,1,.48-.84,2.27,2.27,0,0,1,.76-.57,2.3,2.3,0,0,1,1-.22,2.26,2.26,0,0,1,1.05.25,2.34,2.34,0,0,1,.78.65,2.87,2.87,0,0,1,.45.93,3,3,0,0,1,.07,1.08Zm2.56-.72a1.72,1.72,0,0,0-.11-.5,1.27,1.27,0,0,0-.25-.42,1.28,1.28,0,0,0-.39-.29,1.15,1.15,0,0,0-.5-.11,1.51,1.51,0,0,0-.53.1,1.26,1.26,0,0,0-.4.28,1.51,1.51,0,0,0-.27.42,1.46,1.46,0,0,0-.11.52Z"/><path class="cls-4" d="M65.74,219.82h1v.69h0l.27-.33a1.35,1.35,0,0,1,.33-.26,1.21,1.21,0,0,1,.4-.17,2.19,2.19,0,0,1,.53-.07,1.76,1.76,0,0,1,.85.21,1.12,1.12,0,0,1,.55.62,2.17,2.17,0,0,1,.65-.6,1.68,1.68,0,0,1,.91-.23,1.8,1.8,0,0,1,1.23.39,1.66,1.66,0,0,1,.43,1.29v3.44H71.86v-2.91c0-.2,0-.38,0-.55a1.08,1.08,0,0,0-.11-.42.57.57,0,0,0-.28-.27,1,1,0,0,0-.5-.1.94.94,0,0,0-.81.35,1.71,1.71,0,0,0-.25,1v2.92H68.8v-3.2a1.36,1.36,0,0,0-.19-.78.8.8,0,0,0-.69-.27,1,1,0,0,0-.41.09,1.07,1.07,0,0,0-.35.25,1.22,1.22,0,0,0-.24.4,1.59,1.59,0,0,0-.09.55v3H65.74Z"/><path class="cls-4" d="M77.73,222.51a1.54,1.54,0,0,0,.13.67,1.22,1.22,0,0,0,.38.46,1.64,1.64,0,0,0,.55.26,3,3,0,0,0,.68.08,2.29,2.29,0,0,0,.68-.09,1.37,1.37,0,0,0,.45-.24,1,1,0,0,0,.25-.33,1,1,0,0,0,.08-.38.79.79,0,0,0-.18-.58,1,1,0,0,0-.39-.27c-.25-.09-.53-.17-.85-.25l-1.2-.32a2.54,2.54,0,0,1-.74-.3,1.76,1.76,0,0,1-.47-.42,1.59,1.59,0,0,1-.24-.49,1.88,1.88,0,0,1-.07-.53,1.81,1.81,0,0,1,.21-.9,2.05,2.05,0,0,1,.58-.63,2.35,2.35,0,0,1,.8-.37,3.65,3.65,0,0,1,1.93,0,2.37,2.37,0,0,1,.84.42,1.92,1.92,0,0,1,.57.69,1.89,1.89,0,0,1,.22.94H80.73a1.13,1.13,0,0,0-.45-.93,1.74,1.74,0,0,0-1-.28,3.13,3.13,0,0,0-.43,0,1.34,1.34,0,0,0-.41.15,1,1,0,0,0-.3.27.76.76,0,0,0-.12.44.71.71,0,0,0,.23.57,1.38,1.38,0,0,0,.59.31l.3.08.59.16.64.17.45.12a2,2,0,0,1,.59.29,2.09,2.09,0,0,1,.42.42,2.13,2.13,0,0,1,.25.5,2,2,0,0,1,.08.54,1.92,1.92,0,0,1-.86,1.66,2.74,2.74,0,0,1-.87.38,4.35,4.35,0,0,1-2.11,0,2.67,2.67,0,0,1-.91-.45,2.18,2.18,0,0,1-.61-.76,2.38,2.38,0,0,1-.24-1.1Z"/><path class="cls-4" d="M85.31,224.93a2.59,2.59,0,0,1-1.07-.2,2.31,2.31,0,0,1-.79-.54,2.37,2.37,0,0,1-.49-.83,3.36,3.36,0,0,1,0-2.11,2.33,2.33,0,0,1,.49-.82,2.21,2.21,0,0,1,.79-.55,2.94,2.94,0,0,1,2.13,0,2.21,2.21,0,0,1,.79.55,2.33,2.33,0,0,1,.49.82,3.36,3.36,0,0,1,0,2.11,2.37,2.37,0,0,1-.49.83,2.31,2.31,0,0,1-.79.54A2.57,2.57,0,0,1,85.31,224.93Zm0-.87a1.28,1.28,0,0,0,.63-.15,1.31,1.31,0,0,0,.44-.4,1.85,1.85,0,0,0,.26-.57,2.56,2.56,0,0,0,0-1.27,1.85,1.85,0,0,0-.26-.57,1.28,1.28,0,0,0-.44-.39,1.18,1.18,0,0,0-.63-.16,1.19,1.19,0,0,0-.64.16,1.28,1.28,0,0,0-.44.39,1.85,1.85,0,0,0-.26.57,2.56,2.56,0,0,0,0,1.27,1.85,1.85,0,0,0,.26.57,1.31,1.31,0,0,0,.44.4A1.29,1.29,0,0,0,85.31,224.06Z"/><path class="cls-4" d="M88.76,217.92h1.1v6.88h-1.1Z"/><path class="cls-4" d="M91.08,217.92h1.1v1h-1.1Zm0,1.9h1.1v5h-1.1Z"/><path class="cls-4" d="M98.06,224.8H97v-.68h0a1.28,1.28,0,0,1-.64.62,2.17,2.17,0,0,1-.9.19,2.32,2.32,0,0,1-1-.21,1.86,1.86,0,0,1-.73-.56,2.39,2.39,0,0,1-.43-.84,3.55,3.55,0,0,1-.15-1,3.41,3.41,0,0,1,.18-1.16,2.46,2.46,0,0,1,.49-.81,1.89,1.89,0,0,1,.69-.47,2.22,2.22,0,0,1,.8-.15,2.59,2.59,0,0,1,.47,0,1.88,1.88,0,0,1,.46.14,1.69,1.69,0,0,1,.41.24,1.47,1.47,0,0,1,.31.35h0v-2.54h1.1Zm-3.83-2.44a2.72,2.72,0,0,0,.08.63,1.72,1.72,0,0,0,.25.55,1.31,1.31,0,0,0,.43.38,1.2,1.2,0,0,0,.61.14,1.29,1.29,0,0,0,.64-.15,1.37,1.37,0,0,0,.43-.4,2.1,2.1,0,0,0,.25-.57,2.74,2.74,0,0,0,.08-.64,2,2,0,0,0-.37-1.29,1.25,1.25,0,0,0-1-.46,1.23,1.23,0,0,0-.65.16,1.4,1.4,0,0,0-.43.41,1.87,1.87,0,0,0-.24.58A3,3,0,0,0,94.23,222.36Z"/><path class="cls-4" d="M102.08,217.92h5v1h-3.74v1.8h3.46v1h-3.46v2h3.81v1h-5Z"/><path class="cls-4" d="M108,217.92h1.1v6.88H108Z"/><path class="cls-4" d="M111.17,222.59a2.1,2.1,0,0,0,.08.56,1.41,1.41,0,0,0,.25.47,1.09,1.09,0,0,0,.41.32,1.4,1.4,0,0,0,.6.12,1.28,1.28,0,0,0,.77-.2,1.26,1.26,0,0,0,.44-.62h1a2.11,2.11,0,0,1-.3.72,2.15,2.15,0,0,1-1.18.86,2.76,2.76,0,0,1-.77.11,2.61,2.61,0,0,1-1-.19,2.23,2.23,0,0,1-.77-.54,2.33,2.33,0,0,1-.47-.83,3.23,3.23,0,0,1-.16-1.06,3,3,0,0,1,.17-1,2.49,2.49,0,0,1,.48-.84,2.27,2.27,0,0,1,.76-.57,2.3,2.3,0,0,1,1-.22,2.26,2.26,0,0,1,1,.25,2.34,2.34,0,0,1,.78.65,2.87,2.87,0,0,1,.45.93,3,3,0,0,1,.07,1.08Zm2.56-.72a1.72,1.72,0,0,0-.11-.5,1.27,1.27,0,0,0-.25-.42,1.42,1.42,0,0,0-.39-.29,1.15,1.15,0,0,0-.5-.11,1.51,1.51,0,0,0-.53.1,1.26,1.26,0,0,0-.4.28,1.51,1.51,0,0,0-.27.42,1.46,1.46,0,0,0-.11.52Z"/><path class="cls-4" d="M119,221.48a1,1,0,0,0-.37-.69,1.17,1.17,0,0,0-.76-.24,1.9,1.9,0,0,0-.45.07,1.18,1.18,0,0,0-.45.27,1.61,1.61,0,0,0-.33.55,2.62,2.62,0,0,0-.14.92,3.27,3.27,0,0,0,.07.62,1.7,1.7,0,0,0,.24.55,1.24,1.24,0,0,0,.4.39,1.28,1.28,0,0,0,.61.14,1.16,1.16,0,0,0,.8-.29,1.43,1.43,0,0,0,.38-.84h1.1a2.46,2.46,0,0,1-.73,1.49,2.28,2.28,0,0,1-1.55.51,2.37,2.37,0,0,1-1-.2,2.19,2.19,0,0,1-.76-.54,2.3,2.3,0,0,1-.47-.81,3.3,3.3,0,0,1-.16-1,3.6,3.6,0,0,1,.16-1.05,2.4,2.4,0,0,1,.46-.85,2.21,2.21,0,0,1,.77-.57,2.52,2.52,0,0,1,1.07-.21,2.76,2.76,0,0,1,.82.12,2.15,2.15,0,0,1,.7.33,1.81,1.81,0,0,1,.72,1.35Z"/><path class="cls-4" d="M120.52,219.82h.82v-1.49h1.1v1.49h1v.82h-1v2.65a2.36,2.36,0,0,0,0,.3.53.53,0,0,0,.06.21.29.29,0,0,0,.16.13.76.76,0,0,0,.29,0h.23a.85.85,0,0,0,.23,0v.85l-.35,0h-.36a2.28,2.28,0,0,1-.7-.08.88.88,0,0,1-.41-.24.76.76,0,0,1-.2-.4,2.84,2.84,0,0,1-.07-.55v-2.93h-.82Z"/><path class="cls-4" d="M124.22,219.82h1v1h0a1.17,1.17,0,0,1,.19-.39,1.61,1.61,0,0,1,.34-.35,1.45,1.45,0,0,1,.43-.26,1.44,1.44,0,0,1,.5-.1H127l.15,0v1.06l-.24,0-.23,0a1.21,1.21,0,0,0-.53.12,1.31,1.31,0,0,0-.43.32,1.62,1.62,0,0,0-.28.54,2,2,0,0,0-.11.73v2.37h-1.1Z"/><path class="cls-4" d="M129.72,224.93a2.54,2.54,0,0,1-1.06-.2,2.14,2.14,0,0,1-.79-.54,2.23,2.23,0,0,1-.49-.83,3.36,3.36,0,0,1,0-2.11,2.19,2.19,0,0,1,.49-.82,2,2,0,0,1,.79-.55,2.91,2.91,0,0,1,2.12,0,2.12,2.12,0,0,1,.79.55,2.19,2.19,0,0,1,.49.82,3.36,3.36,0,0,1,0,2.11,2.21,2.21,0,0,1-1.28,1.37A2.54,2.54,0,0,1,129.72,224.93Zm0-.87a1.28,1.28,0,0,0,.63-.15,1.44,1.44,0,0,0,.45-.4,1.83,1.83,0,0,0,.25-.57,2.29,2.29,0,0,0,.08-.64,2.27,2.27,0,0,0-.08-.63,1.83,1.83,0,0,0-.25-.57,1.41,1.41,0,0,0-.45-.39,1.18,1.18,0,0,0-.63-.16,1.22,1.22,0,0,0-.64.16,1.38,1.38,0,0,0-.44.39,1.83,1.83,0,0,0-.25.57,2.29,2.29,0,0,0,0,1.27,1.83,1.83,0,0,0,.25.57,1.41,1.41,0,0,0,.44.4A1.32,1.32,0,0,0,129.72,224.06Z"/><path class="cls-4" d="M133.15,219.82h1v.75a1.87,1.87,0,0,1,.66-.65,1.72,1.72,0,0,1,.89-.24,1.86,1.86,0,0,1,1.29.43,1.59,1.59,0,0,1,.48,1.27v3.42h-1.1v-3.13a1.34,1.34,0,0,0-.25-.85.91.91,0,0,0-.72-.27,1.27,1.27,0,0,0-.5.1,1.08,1.08,0,0,0-.38.28,1.46,1.46,0,0,0-.33.93v2.94h-1.09Z"/><path class="cls-4" d="M141.5,217.92h1.2v3.13l3.07-3.13h1.48l-2.75,2.75,2.94,4.13h-1.5l-2.25-3.29-1,1v2.31h-1.2Z"/><path class="cls-4" d="M150.22,224.93a2.54,2.54,0,0,1-1.06-.2,2.21,2.21,0,0,1-1.28-1.37,3.36,3.36,0,0,1,0-2.11,2.19,2.19,0,0,1,.49-.82,2.12,2.12,0,0,1,.79-.55,2.71,2.71,0,0,1,1.06-.2,2.79,2.79,0,0,1,1.07.2,2.21,2.21,0,0,1,.79.55,2.49,2.49,0,0,1,.49.82,3.56,3.56,0,0,1,0,2.11,2.53,2.53,0,0,1-.49.83,2.31,2.31,0,0,1-.79.54A2.62,2.62,0,0,1,150.22,224.93Zm0-.87a1.29,1.29,0,0,0,.64-.15,1.31,1.31,0,0,0,.44-.4,1.85,1.85,0,0,0,.26-.57,2.56,2.56,0,0,0,0-1.27,1.85,1.85,0,0,0-.26-.57,1.28,1.28,0,0,0-.44-.39,1.19,1.19,0,0,0-.64-.16,1.18,1.18,0,0,0-.63.16,1.41,1.41,0,0,0-.45.39,1.83,1.83,0,0,0-.25.57,2.27,2.27,0,0,0-.08.63,2.29,2.29,0,0,0,.08.64,1.83,1.83,0,0,0,.25.57,1.44,1.44,0,0,0,.45.4A1.28,1.28,0,0,0,150.22,224.06Z"/><path class="cls-4" d="M153.65,219.82h1v.73l0,0a1.84,1.84,0,0,1,.65-.65,1.73,1.73,0,0,1,.9-.24,1.89,1.89,0,0,1,1.29.43,1.62,1.62,0,0,1,.47,1.27v3.42h-1.1v-3.13a1.28,1.28,0,0,0-.25-.85.89.89,0,0,0-.72-.27,1.31,1.31,0,0,0-.5.1,1.17,1.17,0,0,0-.38.28,1.44,1.44,0,0,0-.24.42,1.7,1.7,0,0,0-.08.51v2.94h-1.1Z"/><path class="cls-4" d="M158.67,219.82h.83v-1.49h1.1v1.49h1v.82h-1v2.65a2.63,2.63,0,0,0,0,.3.52.52,0,0,0,.07.21.29.29,0,0,0,.16.13.76.76,0,0,0,.29,0h.23a.91.91,0,0,0,.23,0v.85l-.36,0h-.35a2.28,2.28,0,0,1-.7-.08.83.83,0,0,1-.41-.24.85.85,0,0,1-.21-.4,4,4,0,0,1-.06-.55v-2.93h-.83Z"/><path class="cls-4" d="M162.38,219.82h1v1h0a1,1,0,0,1,.19-.39A1.56,1.56,0,0,1,164,220a1.5,1.5,0,0,1,.44-.26,1.43,1.43,0,0,1,.49-.1h.27l.15,0v1.06l-.24,0-.24,0a1.17,1.17,0,0,0-.52.12,1.21,1.21,0,0,0-.43.32,1.63,1.63,0,0,0-.29.54,2.3,2.3,0,0,0-.1.73v2.37h-1.1Z"/><path class="cls-4" d="M167.88,224.93a2.59,2.59,0,0,1-1.07-.2,2.31,2.31,0,0,1-.79-.54,2.37,2.37,0,0,1-.49-.83,3.36,3.36,0,0,1,0-2.11,2.33,2.33,0,0,1,.49-.82,2.21,2.21,0,0,1,.79-.55,2.94,2.94,0,0,1,2.13,0,2.21,2.21,0,0,1,.79.55,2.33,2.33,0,0,1,.49.82,3.36,3.36,0,0,1,0,2.11,2.37,2.37,0,0,1-.49.83,2.31,2.31,0,0,1-.79.54A2.57,2.57,0,0,1,167.88,224.93Zm0-.87a1.28,1.28,0,0,0,.63-.15,1.31,1.31,0,0,0,.44-.4,1.85,1.85,0,0,0,.26-.57,2.56,2.56,0,0,0,0-1.27,1.85,1.85,0,0,0-.26-.57,1.28,1.28,0,0,0-.44-.39,1.18,1.18,0,0,0-.63-.16,1.19,1.19,0,0,0-.64.16,1.28,1.28,0,0,0-.44.39,1.85,1.85,0,0,0-.26.57,2.56,2.56,0,0,0,0,1.27,1.85,1.85,0,0,0,.26.57,1.31,1.31,0,0,0,.44.4A1.29,1.29,0,0,0,167.88,224.06Z"/><path class="cls-4" d="M171.33,217.92h1.1v6.88h-1.1Z"/><path class="cls-4" d="M175.8,217.92h5.56v1h-2.18v5.84H178V219H175.8Z"/><path class="cls-4" d="M181.79,222.59a1.77,1.77,0,0,0,.09.56,1.23,1.23,0,0,0,.24.47,1.12,1.12,0,0,0,.42.32,1.24,1.24,0,0,0,1.81-.7h1a2.11,2.11,0,0,1-.3.72,2,2,0,0,1-.51.53,2.1,2.1,0,0,1-.67.33,2.88,2.88,0,0,1-.78.11,2.64,2.64,0,0,1-1-.19,2.17,2.17,0,0,1-1.23-1.37,3.23,3.23,0,0,1-.16-1.06,2.77,2.77,0,0,1,.17-1,2.49,2.49,0,0,1,.48-.84,2.29,2.29,0,0,1,1.75-.79,2.27,2.27,0,0,1,1.06.25,2.21,2.21,0,0,1,.77.65,2.52,2.52,0,0,1,.45.93,2.8,2.8,0,0,1,.07,1.08Zm2.57-.72a2.13,2.13,0,0,0-.11-.5A1.49,1.49,0,0,0,184,221a1.24,1.24,0,0,0-.38-.29,1.19,1.19,0,0,0-.51-.11,1.46,1.46,0,0,0-.52.1,1.15,1.15,0,0,0-.4.28,1.17,1.17,0,0,0-.27.42,1.47,1.47,0,0,0-.12.52Z"/><path class="cls-4" d="M186.32,217.92h1.1v3.91l2-2h1.35l-1.91,1.83,2.09,3.15h-1.34l-1.52-2.42-.65.63v1.79h-1.1Z"/><path class="cls-4" d="M191.46,219.82h1v.73l0,0a1.84,1.84,0,0,1,.65-.65,1.73,1.73,0,0,1,.9-.24,1.89,1.89,0,0,1,1.29.43,1.62,1.62,0,0,1,.47,1.27v3.42h-1.1v-3.13a1.28,1.28,0,0,0-.25-.85.89.89,0,0,0-.72-.27,1.31,1.31,0,0,0-.5.1,1.17,1.17,0,0,0-.38.28,1.44,1.44,0,0,0-.24.42,1.7,1.7,0,0,0-.08.51v2.94h-1.1Z"/><path class="cls-4" d="M199.27,224.93a2.59,2.59,0,0,1-1.07-.2,2.31,2.31,0,0,1-.79-.54,2.37,2.37,0,0,1-.49-.83,3.36,3.36,0,0,1,0-2.11,2.33,2.33,0,0,1,.49-.82,2.21,2.21,0,0,1,.79-.55,2.94,2.94,0,0,1,2.13,0,2.21,2.21,0,0,1,.79.55,2.33,2.33,0,0,1,.49.82,3.36,3.36,0,0,1,0,2.11,2.37,2.37,0,0,1-.49.83,2.31,2.31,0,0,1-.79.54A2.57,2.57,0,0,1,199.27,224.93Zm0-.87a1.28,1.28,0,0,0,.63-.15,1.31,1.31,0,0,0,.44-.4,1.85,1.85,0,0,0,.26-.57,2.56,2.56,0,0,0,0-1.27,1.85,1.85,0,0,0-.26-.57,1.28,1.28,0,0,0-.44-.39,1.18,1.18,0,0,0-.63-.16,1.19,1.19,0,0,0-.64.16,1.28,1.28,0,0,0-.44.39,1.85,1.85,0,0,0-.26.57,2.56,2.56,0,0,0,0,1.27,1.85,1.85,0,0,0,.26.57,1.31,1.31,0,0,0,.44.4A1.29,1.29,0,0,0,199.27,224.06Z"/><path class="cls-4" d="M202.72,217.92h1.1v6.88h-1.1Z"/><path class="cls-4" d="M207.29,224.93a2.57,2.57,0,0,1-1.06-.2,2.31,2.31,0,0,1-.79-.54,2.37,2.37,0,0,1-.49-.83,3.36,3.36,0,0,1,0-2.11,2.33,2.33,0,0,1,.49-.82,2.21,2.21,0,0,1,.79-.55,2.94,2.94,0,0,1,2.13,0,2.21,2.21,0,0,1,.79.55,2.33,2.33,0,0,1,.49.82,3.36,3.36,0,0,1,0,2.11,2.37,2.37,0,0,1-.49.83,2.31,2.31,0,0,1-.79.54A2.59,2.59,0,0,1,207.29,224.93Zm0-.87a1.29,1.29,0,0,0,.64-.15,1.31,1.31,0,0,0,.44-.4,1.85,1.85,0,0,0,.26-.57,2.56,2.56,0,0,0,0-1.27,1.85,1.85,0,0,0-.26-.57,1.28,1.28,0,0,0-.44-.39,1.19,1.19,0,0,0-.64-.16,1.18,1.18,0,0,0-.63.16,1.28,1.28,0,0,0-.44.39,1.85,1.85,0,0,0-.26.57,2.56,2.56,0,0,0,0,1.27,1.85,1.85,0,0,0,.26.57,1.31,1.31,0,0,0,.44.4A1.28,1.28,0,0,0,207.29,224.06Z"/><path class="cls-4" d="M210.75,219.82h1.1v5.4a1.79,1.79,0,0,1-.33,1.15,1.36,1.36,0,0,1-1.1.4h-.27l-.22,0v-.87l.2,0h.18c.2,0,.32-.06.37-.18a1.52,1.52,0,0,0,.07-.55Zm0-1.9h1.1v1h-1.1Z"/><path class="cls-4" d="M213.07,217.92h1.1v1h-1.1Zm0,1.9h1.1v5h-1.1Z"/><path class="cls-4" d="M215.39,217.92h1.1v6.88h-1.1Z"/><path class="cls-4" d="M218.54,222.59a1.77,1.77,0,0,0,.08.56,1.39,1.39,0,0,0,.24.47,1.12,1.12,0,0,0,.42.32,1.37,1.37,0,0,0,.6.12,1.3,1.3,0,0,0,.77-.2,1.26,1.26,0,0,0,.44-.62h1a2.11,2.11,0,0,1-.3.72,2.15,2.15,0,0,1-1.18.86,2.81,2.81,0,0,1-.77.11,2.57,2.57,0,0,1-1-.19,2.14,2.14,0,0,1-.77-.54,2.19,2.19,0,0,1-.47-.83,3.23,3.23,0,0,1-.16-1.06,3,3,0,0,1,.17-1,2.49,2.49,0,0,1,.48-.84,2.35,2.35,0,0,1,2.81-.54,2.34,2.34,0,0,1,.78.65,2.66,2.66,0,0,1,.44.93,2.8,2.8,0,0,1,.08,1.08Zm2.56-.72a2.13,2.13,0,0,0-.11-.5,1.46,1.46,0,0,0-.25-.42,1.42,1.42,0,0,0-.39-.29,1.18,1.18,0,0,0-.5-.11,1.47,1.47,0,0,0-.53.1,1.15,1.15,0,0,0-.4.28,1.51,1.51,0,0,0-.27.42,1.27,1.27,0,0,0-.11.52Z"/><path class="cls-4" d="M223,219.82h1v1h0a1.17,1.17,0,0,1,.19-.39,1.61,1.61,0,0,1,.34-.35,1.45,1.45,0,0,1,.43-.26,1.44,1.44,0,0,1,.5-.1h.26l.15,0v1.06l-.24,0-.23,0a1.21,1.21,0,0,0-.53.12,1.31,1.31,0,0,0-.43.32,1.62,1.62,0,0,0-.28.54,2.29,2.29,0,0,0-.11.73v2.37H223Z"/><path class="cls-4" d="M226.45,217.92h1.1v1h-1.1Zm0,1.9h1.1v5h-1.1Z"/><path class="cls-4" d="M232.36,222.51a1.54,1.54,0,0,0,.14.67,1.11,1.11,0,0,0,.37.46,1.74,1.74,0,0,0,.55.26,3,3,0,0,0,.68.08,2.24,2.24,0,0,0,.68-.09,1.37,1.37,0,0,0,.45-.24,1,1,0,0,0,.25-.33,1,1,0,0,0,.08-.38.79.79,0,0,0-.18-.58,1,1,0,0,0-.39-.27c-.25-.09-.53-.17-.85-.25l-1.2-.32a2.54,2.54,0,0,1-.74-.3,1.93,1.93,0,0,1-.47-.42,1.59,1.59,0,0,1-.24-.49,1.88,1.88,0,0,1-.07-.53,1.81,1.81,0,0,1,.21-.9,2.05,2.05,0,0,1,.58-.63,2.35,2.35,0,0,1,.8-.37,3.65,3.65,0,0,1,1.93,0,2.37,2.37,0,0,1,.84.42,1.92,1.92,0,0,1,.57.69,1.89,1.89,0,0,1,.22.94h-1.21a1.13,1.13,0,0,0-.45-.93,1.74,1.74,0,0,0-1-.28,3.28,3.28,0,0,0-.43,0,1.44,1.44,0,0,0-.41.15,1,1,0,0,0-.3.27.76.76,0,0,0-.12.44.75.75,0,0,0,.23.57,1.38,1.38,0,0,0,.59.31l.3.08.59.16.64.17.45.12a2,2,0,0,1,.59.29,1.86,1.86,0,0,1,.42.42,2.13,2.13,0,0,1,.25.5,2,2,0,0,1,.08.54,1.92,1.92,0,0,1-.86,1.66,2.74,2.74,0,0,1-.87.38,4.21,4.21,0,0,1-1,.12,4.38,4.38,0,0,1-1.11-.14,2.67,2.67,0,0,1-.91-.45,2.18,2.18,0,0,1-.61-.76,2.38,2.38,0,0,1-.24-1.1Z"/><path class="cls-4" d="M241.82,223.69a.55.55,0,0,0,.06.29c0,.06.1.08.2.08h.27v.76l-.15,0-.19,0a.58.58,0,0,1-.19,0h-.16a1.06,1.06,0,0,1-.56-.13.69.69,0,0,1-.29-.48,1.89,1.89,0,0,1-.8.47,3.43,3.43,0,0,1-.92.14,2.32,2.32,0,0,1-.65-.09,1.71,1.71,0,0,1-.54-.27,1.38,1.38,0,0,1-.38-.45,1.47,1.47,0,0,1-.14-.64,1.49,1.49,0,0,1,.17-.75,1.24,1.24,0,0,1,.45-.46,2.21,2.21,0,0,1,.61-.23,5.5,5.5,0,0,1,.69-.11,4.1,4.1,0,0,1,.57-.08,2.62,2.62,0,0,0,.47-.09.65.65,0,0,0,.33-.17.51.51,0,0,0,.12-.37.53.53,0,0,0-.1-.34.72.72,0,0,0-.25-.21.9.9,0,0,0-.33-.09l-.35,0a1.45,1.45,0,0,0-.76.19.74.74,0,0,0-.33.6h-1.1a1.61,1.61,0,0,1,.23-.8,1.55,1.55,0,0,1,.51-.51,2.09,2.09,0,0,1,.71-.27,4.28,4.28,0,0,1,.81-.08,3.53,3.53,0,0,1,.72.08,2.14,2.14,0,0,1,.64.25,1.52,1.52,0,0,1,.46.45,1.28,1.28,0,0,1,.17.67Zm-1.09-1.39a1.34,1.34,0,0,1-.62.2c-.25,0-.49.06-.73.1l-.34.08a1.13,1.13,0,0,0-.29.15.68.68,0,0,0-.2.24,1,1,0,0,0-.07.36.49.49,0,0,0,.11.31.67.67,0,0,0,.25.19,1.17,1.17,0,0,0,.33.11l.32,0a1.94,1.94,0,0,0,.4,0,1.55,1.55,0,0,0,.4-.17,1,1,0,0,0,.31-.29.79.79,0,0,0,.13-.44Z"/><path class="cls-4" d="M243,219.82h1v.75a1.87,1.87,0,0,1,.66-.65,1.72,1.72,0,0,1,.89-.24,1.86,1.86,0,0,1,1.29.43,1.59,1.59,0,0,1,.48,1.27v3.42h-1.1v-3.13a1.34,1.34,0,0,0-.25-.85.9.9,0,0,0-.72-.27,1.27,1.27,0,0,0-.5.1,1.08,1.08,0,0,0-.38.28,1.46,1.46,0,0,0-.33.93v2.94H243Z"/><path class="cls-4" d="M248.62,223.5H250v1.3h-1.34Z"/><path class="cls-4" d="M253.39,219.82h1.2l1.26,3.82h0l1.21-3.82h1.14l-1.79,5H255.2Z"/><path class="cls-4" d="M259.74,222.59a1.77,1.77,0,0,0,.08.56,1.23,1.23,0,0,0,.24.47,1.12,1.12,0,0,0,.42.32,1.24,1.24,0,0,0,1.81-.7h1a2.11,2.11,0,0,1-.3.72,2.15,2.15,0,0,1-1.18.86,2.88,2.88,0,0,1-.78.11,2.56,2.56,0,0,1-1-.19,2.14,2.14,0,0,1-.77-.54,2.19,2.19,0,0,1-.47-.83,3.23,3.23,0,0,1-.16-1.06,3,3,0,0,1,.17-1,2.49,2.49,0,0,1,.48-.84,2.29,2.29,0,0,1,1.76-.79,2.26,2.26,0,0,1,1.05.25,2.21,2.21,0,0,1,.77.65,2.52,2.52,0,0,1,.45.93,2.61,2.61,0,0,1,.07,1.08Zm2.56-.72a2.13,2.13,0,0,0-.11-.5,1.46,1.46,0,0,0-.25-.42,1.42,1.42,0,0,0-.39-.29,1.18,1.18,0,0,0-.5-.11,1.47,1.47,0,0,0-.53.1,1.15,1.15,0,0,0-.4.28,1.17,1.17,0,0,0-.27.42,1.27,1.27,0,0,0-.11.52Z"/><path class="cls-4" d="M266.41,217.92H272v1h-2.18v5.84h-1.21V219h-2.17Z"/><path class="cls-4" d="M272.65,217.92h1.09v1h-1.09Zm0,1.9h1.09v5h-1.09Z"/><path class="cls-4" d="M278.3,221.48a1,1,0,0,0-.38-.69,1.17,1.17,0,0,0-.76-.24,1.9,1.9,0,0,0-.45.07,1.18,1.18,0,0,0-.45.27,1.61,1.61,0,0,0-.33.55,2.62,2.62,0,0,0-.14.92,3.27,3.27,0,0,0,.07.62,1.7,1.7,0,0,0,.24.55,1.24,1.24,0,0,0,.4.39,1.28,1.28,0,0,0,.61.14,1.16,1.16,0,0,0,.8-.29,1.5,1.5,0,0,0,.39-.84h1.09a2.46,2.46,0,0,1-.73,1.49,2.28,2.28,0,0,1-1.55.51,2.4,2.4,0,0,1-1-.2,2.19,2.19,0,0,1-.76-.54,2.3,2.3,0,0,1-.47-.81,3.31,3.31,0,0,1-.15-1,3.6,3.6,0,0,1,.15-1.05,2.4,2.4,0,0,1,.46-.85,2.21,2.21,0,0,1,.77-.57,2.52,2.52,0,0,1,1.07-.21,2.76,2.76,0,0,1,.82.12,2.15,2.15,0,0,1,.7.33,1.81,1.81,0,0,1,.72,1.35Z"/><path class="cls-4" d="M280.37,223.5h1.34v1.3h-1.34Z"/><path class="cls-4" d="M287.63,217.92h1.28l2.65,6.88h-1.29l-.64-1.82h-2.75l-.64,1.82H285Zm-.42,4.14h2.1l-1-2.95h0Z"/><path class="cls-4" d="M292.15,223.5h1.34v1.3h-1.34Z"/><path class="cls-4" d="M295.66,226.34a1.74,1.74,0,0,0,.32.11,1,1,0,0,0,.31,0h.2a.6.6,0,0,0,.19-.06.33.33,0,0,0,.14-.12.31.31,0,0,0,.05-.2.29.29,0,0,0-.14-.28.53.53,0,0,0-.3-.09.64.64,0,0,0-.37.1l-.22-.19.54-.72a5,5,0,0,1-.58-.09,2,2,0,0,1-.69-.33,1.42,1.42,0,0,1-.46-.54,1.53,1.53,0,0,1-.18-.76h1.09a.85.85,0,0,0,.37.67,1.43,1.43,0,0,0,.76.19,2.24,2.24,0,0,0,.35,0,2,2,0,0,0,.37-.09.75.75,0,0,0,.29-.2.51.51,0,0,0,.1-.34.5.5,0,0,0-.16-.35,1,1,0,0,0-.37-.21,3.12,3.12,0,0,0-.51-.14l-.59-.13a5.69,5.69,0,0,1-.59-.16,2,2,0,0,1-.51-.26,1.22,1.22,0,0,1-.36-.42,1.33,1.33,0,0,1-.14-.63,1.14,1.14,0,0,1,.2-.68,1.52,1.52,0,0,1,.5-.44,2.43,2.43,0,0,1,.67-.24,4.6,4.6,0,0,1,.71-.07,3,3,0,0,1,.74.09,2,2,0,0,1,.63.26,1.57,1.57,0,0,1,.48.48,1.65,1.65,0,0,1,.23.7h-1.14a.71.71,0,0,0-.36-.52,1.51,1.51,0,0,0-.65-.14l-.28,0a1.63,1.63,0,0,0-.3.07.63.63,0,0,0-.23.16.33.33,0,0,0-.1.26.44.44,0,0,0,.14.33,1.16,1.16,0,0,0,.37.21,3.15,3.15,0,0,0,.51.13l.6.13.59.16a2,2,0,0,1,.51.26,1.37,1.37,0,0,1,.37.42,1.25,1.25,0,0,1,.14.61,1.28,1.28,0,0,1-.21.75,1.46,1.46,0,0,1-.52.5,2.25,2.25,0,0,1-.72.28,2.55,2.55,0,0,1-.61.08l-.34.44h0l.13,0h.19a.9.9,0,0,1,.28,0,.71.71,0,0,1,.26.13.74.74,0,0,1,.2.23.63.63,0,0,1,.07.32.76.76,0,0,1-.1.41.87.87,0,0,1-.27.27,1.79,1.79,0,0,1-.37.15,2,2,0,0,1-.42.05,3.07,3.07,0,0,1-.53-.05,1.68,1.68,0,0,1-.46-.17Z"/><path class="cls-4" d="M299.82,223.5h1.34v1.3h-1.34Z"/><path class="cls-4" d="M302.57,220.08a.57.57,0,0,0,.47-.29,1.32,1.32,0,0,0,.12-.57h-.59v-1.3h1.21v1.3a1.43,1.43,0,0,1-.33.95,1.32,1.32,0,0,1-.88.47Z"/><path class="cls-4" d="M304.54,219.82h1.2l1.3,3.72h0l1.26-3.72h1.14l-1.93,5.25c-.09.22-.18.44-.27.64a2,2,0,0,1-.31.54,1.34,1.34,0,0,1-.47.38,1.63,1.63,0,0,1-.71.14,4.77,4.77,0,0,1-.76-.06v-.92l.26,0a1.1,1.1,0,0,0,.26,0,.9.9,0,0,0,.31,0,.55.55,0,0,0,.21-.14.83.83,0,0,0,.14-.22,1.6,1.6,0,0,0,.11-.29l.12-.38Z"/><path class="cls-4" d="M310.94,222.59a1.77,1.77,0,0,0,.08.56,1.39,1.39,0,0,0,.24.47,1.12,1.12,0,0,0,.42.32,1.37,1.37,0,0,0,.6.12,1.3,1.3,0,0,0,.77-.2,1.26,1.26,0,0,0,.44-.62h1a2.11,2.11,0,0,1-.3.72,2.15,2.15,0,0,1-1.18.86,2.87,2.87,0,0,1-.77.11,2.57,2.57,0,0,1-1-.19,2.14,2.14,0,0,1-.77-.54,2.19,2.19,0,0,1-.47-.83,3.23,3.23,0,0,1-.16-1.06,3,3,0,0,1,.17-1,2.49,2.49,0,0,1,.48-.84,2.35,2.35,0,0,1,2.81-.54,2.34,2.34,0,0,1,.78.65,2.66,2.66,0,0,1,.44.93,2.8,2.8,0,0,1,.08,1.08Zm2.56-.72a2.13,2.13,0,0,0-.11-.5,1.46,1.46,0,0,0-.25-.42,1.42,1.42,0,0,0-.39-.29,1.18,1.18,0,0,0-.5-.11,1.47,1.47,0,0,0-.53.1,1.15,1.15,0,0,0-.4.28,1.51,1.51,0,0,0-.27.42,1.27,1.27,0,0,0-.11.52Z"/><path class="cls-4" d="M317.56,219.82h1.2l1.3,3.72h0l1.26-3.72h1.15l-1.94,5.25c-.09.22-.17.44-.26.64a2,2,0,0,1-.32.54,1.26,1.26,0,0,1-.47.38,1.6,1.6,0,0,1-.71.14,4.87,4.87,0,0,1-.76-.06v-.92l.26,0a1.1,1.1,0,0,0,.26,0,1,1,0,0,0,.32,0,.77.77,0,0,0,.21-.14,1.18,1.18,0,0,0,.14-.22c0-.08.07-.18.1-.29l.13-.38Z"/><path class="cls-4" d="M324,222.59a2.1,2.1,0,0,0,.08.56,1.41,1.41,0,0,0,.25.47,1.17,1.17,0,0,0,.41.32,1.4,1.4,0,0,0,.6.12,1.28,1.28,0,0,0,.77-.2,1.2,1.2,0,0,0,.44-.62h1a2.11,2.11,0,0,1-.3.72,2.15,2.15,0,0,1-1.18.86,2.76,2.76,0,0,1-.77.11,2.61,2.61,0,0,1-1-.19,2.23,2.23,0,0,1-.77-.54,2.49,2.49,0,0,1-.47-.83,3.52,3.52,0,0,1-.16-1.06,3,3,0,0,1,.17-1,2.49,2.49,0,0,1,.48-.84,2.27,2.27,0,0,1,.76-.57,2.3,2.3,0,0,1,1-.22,2.29,2.29,0,0,1,1.83.9,2.87,2.87,0,0,1,.45.93,3,3,0,0,1,.07,1.08Zm2.56-.72a1.72,1.72,0,0,0-.11-.5,1.27,1.27,0,0,0-.25-.42,1.37,1.37,0,0,0-.38-.29,1.23,1.23,0,0,0-.51-.11,1.42,1.42,0,0,0-.52.1,1.2,1.2,0,0,0-.41.28,1.51,1.51,0,0,0-.27.42,1.46,1.46,0,0,0-.11.52Z"/><path class="cls-4" d="M328,219.82h.82v-1.49h1.1v1.49h1v.82h-1v2.65a2.36,2.36,0,0,0,0,.3.53.53,0,0,0,.06.21.29.29,0,0,0,.16.13.76.76,0,0,0,.29,0h.23a.85.85,0,0,0,.23,0v.85l-.35,0h-.36a2.28,2.28,0,0,1-.7-.08.88.88,0,0,1-.41-.24.76.76,0,0,1-.2-.4,2.84,2.84,0,0,1-.07-.55v-2.93H328Z"/><path class="cls-4" d="M331.69,217.92h1.1v3.91l2-2h1.35l-1.91,1.83,2.09,3.15H335l-1.52-2.42-.65.63v1.79h-1.1Z"/><path class="cls-4" d="M336.86,217.92H338v1h-1.1Zm0,1.9H338v5h-1.1Z"/><path class="cls-4" d="M339.18,217.92h1.1v6.88h-1.1Z"/><path class="cls-4" d="M341.5,217.92h1.1v1h-1.1Zm0,1.9h1.1v5h-1.1Z"/><path class="cls-4" d="M346.5,217.92h1.09v3.91l2-2h1.34l-1.9,1.83,2.09,3.15h-1.34l-1.52-2.42-.66.63v1.79H346.5Z"/><path class="cls-4" d="M356,224.8h-1.08v-.7h0a1.68,1.68,0,0,1-1.42.83,1.83,1.83,0,0,1-1.42-.49,2.12,2.12,0,0,1-.43-1.46v-3.16h1.09v3.05a1.4,1.4,0,0,0,.25.93,1,1,0,0,0,.71.26,1.35,1.35,0,0,0,.57-.1,1,1,0,0,0,.38-.29,1.27,1.27,0,0,0,.21-.42,2.35,2.35,0,0,0,.06-.54v-2.89H356Z"/><path class="cls-4" d="M357.16,219.82h1v1h0a1,1,0,0,1,.19-.39,1.56,1.56,0,0,1,.33-.35,1.65,1.65,0,0,1,.44-.26,1.43,1.43,0,0,1,.49-.1h.27l.15,0v1.06l-.24,0-.23,0a1.18,1.18,0,0,0-.53.12,1.21,1.21,0,0,0-.43.32,1.63,1.63,0,0,0-.29.54,2.3,2.3,0,0,0-.1.73v2.37h-1.1Z"/><path class="cls-4" d="M364.92,224.8h-1.08v-.7h0a1.45,1.45,0,0,1-.6.6,1.56,1.56,0,0,1-.81.23,1.8,1.8,0,0,1-1.42-.49,2.07,2.07,0,0,1-.44-1.46v-3.16h1.1v3.05a1.35,1.35,0,0,0,.25.93.93.93,0,0,0,.7.26,1.44,1.44,0,0,0,.58-.1,1.07,1.07,0,0,0,.58-.71,2.35,2.35,0,0,0,.06-.54v-2.89h1.1Z"/><path class="cls-4" d="M366.07,219.82h1v.69h0q.14-.18.27-.33a1.52,1.52,0,0,1,.32-.26,1.36,1.36,0,0,1,.41-.17,2.13,2.13,0,0,1,.53-.07,1.78,1.78,0,0,1,.85.21,1.12,1.12,0,0,1,.55.62,2.14,2.14,0,0,1,.64-.6,1.74,1.74,0,0,1,.92-.23,1.81,1.81,0,0,1,1.23.39,1.66,1.66,0,0,1,.43,1.29v3.44H372.2v-2.91c0-.2,0-.38,0-.55a1.29,1.29,0,0,0-.11-.42.61.61,0,0,0-.28-.27,1,1,0,0,0-.5-.1.94.94,0,0,0-.81.35,1.71,1.71,0,0,0-.25,1v2.92h-1.09v-3.2a1.36,1.36,0,0,0-.19-.78.8.8,0,0,0-.69-.27,1,1,0,0,0-.41.09,1.07,1.07,0,0,0-.35.25,1.22,1.22,0,0,0-.24.4,1.59,1.59,0,0,0-.09.55v3h-1.1Z"/><path class="cls-4" d="M376.62,219.82h.83v-1.49h1.1v1.49h1v.82h-1v2.65a2.63,2.63,0,0,0,0,.3.52.52,0,0,0,.07.21.29.29,0,0,0,.16.13.76.76,0,0,0,.29,0h.23a.91.91,0,0,0,.23,0v.85l-.35,0h-.36a2.28,2.28,0,0,1-.7-.08.83.83,0,0,1-.41-.24.85.85,0,0,1-.21-.4,4,4,0,0,1-.06-.55v-2.93h-.83Z"/><path class="cls-4" d="M384.5,223.69a.69.69,0,0,0,.05.29.23.23,0,0,0,.21.08H385v.76l-.15,0-.19,0a.63.63,0,0,1-.19,0h-.17a1,1,0,0,1-.55-.13.66.66,0,0,1-.29-.48,1.93,1.93,0,0,1-.81.47,3.32,3.32,0,0,1-.92.14,2.3,2.3,0,0,1-.64-.09,1.52,1.52,0,0,1-.54-.27,1.27,1.27,0,0,1-.38-.45,1.47,1.47,0,0,1-.14-.64,1.49,1.49,0,0,1,.17-.75,1.22,1.22,0,0,1,.44-.46,2.28,2.28,0,0,1,.62-.23,5.5,5.5,0,0,1,.69-.11,4,4,0,0,1,.56-.08,2.94,2.94,0,0,0,.48-.09.65.65,0,0,0,.33-.17.51.51,0,0,0,.12-.37.53.53,0,0,0-.1-.34.72.72,0,0,0-.25-.21.9.9,0,0,0-.33-.09l-.35,0a1.45,1.45,0,0,0-.76.19.77.77,0,0,0-.34.6h-1.1a1.61,1.61,0,0,1,.24-.8A1.55,1.55,0,0,1,381,220a2,2,0,0,1,.71-.27,4.28,4.28,0,0,1,.81-.08,3.53,3.53,0,0,1,.72.08,2.14,2.14,0,0,1,.64.25,1.52,1.52,0,0,1,.46.45,1.28,1.28,0,0,1,.17.67Zm-1.1-1.39a1.3,1.3,0,0,1-.61.2c-.25,0-.49.06-.74.1l-.33.08a1.13,1.13,0,0,0-.29.15.59.59,0,0,0-.2.24.8.8,0,0,0-.07.36.48.48,0,0,0,.1.31.7.7,0,0,0,.26.19,1.17,1.17,0,0,0,.33.11l.32,0a1.84,1.84,0,0,0,.39,0,1.42,1.42,0,0,0,.4-.17,1,1,0,0,0,.32-.29.78.78,0,0,0,.12-.44Z"/><path class="cls-4" d="M385.68,219.82h1v1h0a1.17,1.17,0,0,1,.19-.39,1.41,1.41,0,0,1,.34-.35,1.45,1.45,0,0,1,.43-.26,1.44,1.44,0,0,1,.5-.1h.26l.15,0v1.06l-.24,0-.23,0a1.21,1.21,0,0,0-.53.12,1.31,1.31,0,0,0-.43.32,1.62,1.62,0,0,0-.28.54,2,2,0,0,0-.11.73v2.37h-1.1Z"/><path class="cls-4" d="M393.24,223.69a.69.69,0,0,0,.05.29.23.23,0,0,0,.21.08h.27v.76l-.15,0-.19,0a.63.63,0,0,1-.19,0h-.16a1,1,0,0,1-.56-.13.66.66,0,0,1-.29-.48,1.93,1.93,0,0,1-.81.47,3.32,3.32,0,0,1-.92.14,2.3,2.3,0,0,1-.64-.09,1.52,1.52,0,0,1-.54-.27,1.27,1.27,0,0,1-.38-.45,1.47,1.47,0,0,1-.14-.64,1.49,1.49,0,0,1,.17-.75,1.22,1.22,0,0,1,.44-.46A2.41,2.41,0,0,1,390,222a5.5,5.5,0,0,1,.69-.11,4,4,0,0,1,.56-.08,2.94,2.94,0,0,0,.48-.09.65.65,0,0,0,.33-.17.51.51,0,0,0,.12-.37.53.53,0,0,0-.1-.34.72.72,0,0,0-.25-.21.9.9,0,0,0-.33-.09l-.35,0a1.45,1.45,0,0,0-.76.19.77.77,0,0,0-.34.6H389a1.61,1.61,0,0,1,.24-.8,1.55,1.55,0,0,1,.51-.51,2,2,0,0,1,.71-.27,4.28,4.28,0,0,1,.81-.08,3.53,3.53,0,0,1,.72.08,2.14,2.14,0,0,1,.64.25,1.52,1.52,0,0,1,.46.45,1.28,1.28,0,0,1,.17.67Zm-1.1-1.39a1.3,1.3,0,0,1-.61.2c-.25,0-.49.06-.74.1l-.33.08a1.13,1.13,0,0,0-.29.15.59.59,0,0,0-.2.24.8.8,0,0,0-.07.36.48.48,0,0,0,.1.31.79.79,0,0,0,.26.19,1.17,1.17,0,0,0,.33.11l.32,0a1.84,1.84,0,0,0,.39,0,1.42,1.42,0,0,0,.4-.17,1,1,0,0,0,.32-.29.78.78,0,0,0,.12-.44Z"/><path class="cls-4" d="M393.93,219.82h.82v-.41a2.07,2.07,0,0,1,.12-.77,1,1,0,0,1,.74-.66,2.24,2.24,0,0,1,.52-.06,3.39,3.39,0,0,1,.77.07v.86l-.23,0h-.28a.59.59,0,0,0-.38.11.44.44,0,0,0-.16.41v.51h.93v.82h-.93v4.16h-1.1v-4.16h-.82Z"/><path class="cls-4" d="M397.48,224.8v-5h1.1v5Z"/><path class="cls-4" d="M399.77,219.82h1v.73l0,0a1.87,1.87,0,0,1,.66-.65,1.72,1.72,0,0,1,.89-.24,1.86,1.86,0,0,1,1.29.43,1.59,1.59,0,0,1,.48,1.27v3.42h-1.1v-3.13a1.41,1.41,0,0,0-.25-.85.91.91,0,0,0-.72-.27,1.36,1.36,0,0,0-.51.1,1.13,1.13,0,0,0-.37.28,1.46,1.46,0,0,0-.33.93v2.94h-1.1Z"/><path class="cls-4" d="M410,224.8h-1v-.68h0a1.27,1.27,0,0,1-.65.62,2.09,2.09,0,0,1-.89.19,2.4,2.4,0,0,1-1-.21,1.9,1.9,0,0,1-.72-.56,2.41,2.41,0,0,1-.44-.84,3.92,3.92,0,0,1-.14-1,3.41,3.41,0,0,1,.18-1.16,2.31,2.31,0,0,1,.49-.81,1.89,1.89,0,0,1,.69-.47,2.22,2.22,0,0,1,.8-.15,2.59,2.59,0,0,1,.47,0,1.88,1.88,0,0,1,.46.14,1.69,1.69,0,0,1,.41.24,1.47,1.47,0,0,1,.31.35h0v-2.54H410Zm-3.83-2.44a2.27,2.27,0,0,0,.08.63,1.72,1.72,0,0,0,.25.55,1.22,1.22,0,0,0,.43.38,1.2,1.2,0,0,0,.61.14,1.22,1.22,0,0,0,.63-.15,1.41,1.41,0,0,0,.44-.4,2.1,2.1,0,0,0,.25-.57,2.74,2.74,0,0,0,.08-.64,2,2,0,0,0-.37-1.29,1.25,1.25,0,0,0-1-.46,1.23,1.23,0,0,0-.65.16,1.4,1.4,0,0,0-.43.41,1.87,1.87,0,0,0-.24.58A3,3,0,0,0,406.16,222.36Z"/><path class="cls-4" d="M415.35,223.69a.69.69,0,0,0,0,.29.23.23,0,0,0,.21.08h.27v.76l-.15,0-.19,0a.63.63,0,0,1-.19,0h-.16a1,1,0,0,1-.56-.13.66.66,0,0,1-.29-.48,1.93,1.93,0,0,1-.81.47,3.3,3.3,0,0,1-.91.14,2.32,2.32,0,0,1-.65-.09,1.61,1.61,0,0,1-.54-.27,1.27,1.27,0,0,1-.38-.45,1.47,1.47,0,0,1-.14-.64,1.49,1.49,0,0,1,.17-.75,1.22,1.22,0,0,1,.44-.46,2.41,2.41,0,0,1,.62-.23,5.5,5.5,0,0,1,.69-.11,4.1,4.1,0,0,1,.57-.08,3,3,0,0,0,.47-.09.65.65,0,0,0,.33-.17.51.51,0,0,0,.12-.37.53.53,0,0,0-.1-.34.72.72,0,0,0-.25-.21.9.9,0,0,0-.33-.09l-.35,0a1.45,1.45,0,0,0-.76.19.77.77,0,0,0-.34.6h-1.1a1.61,1.61,0,0,1,.24-.8,1.55,1.55,0,0,1,.51-.51,2,2,0,0,1,.71-.27,4.28,4.28,0,0,1,.81-.08,3.53,3.53,0,0,1,.72.08,2.14,2.14,0,0,1,.64.25,1.52,1.52,0,0,1,.46.45,1.28,1.28,0,0,1,.17.67Zm-1.1-1.39a1.3,1.3,0,0,1-.61.2c-.25,0-.49.06-.74.1l-.33.08a1.13,1.13,0,0,0-.29.15.59.59,0,0,0-.2.24.8.8,0,0,0-.07.36.48.48,0,0,0,.1.31.79.79,0,0,0,.26.19,1.17,1.17,0,0,0,.33.11l.32,0a1.84,1.84,0,0,0,.39,0,1.31,1.31,0,0,0,.4-.17,1,1,0,0,0,.32-.29.78.78,0,0,0,.12-.44Z"/><path class="cls-4" d="M416.53,219.82h1v.73l0,0a1.87,1.87,0,0,1,.66-.65,1.7,1.7,0,0,1,.89-.24,1.86,1.86,0,0,1,1.29.43,1.59,1.59,0,0,1,.47,1.27v3.42h-1.09v-3.13a1.41,1.41,0,0,0-.25-.85.92.92,0,0,0-.73-.27,1.35,1.35,0,0,0-.5.1,1.13,1.13,0,0,0-.37.28,1.46,1.46,0,0,0-.33.93v2.94h-1.1Z"/><path class="cls-4" d="M424.23,219.82h.83v-1.49h1.1v1.49h1v.82h-1v2.65a2.63,2.63,0,0,0,0,.3.52.52,0,0,0,.07.21.29.29,0,0,0,.16.13.76.76,0,0,0,.29,0h.23a.91.91,0,0,0,.23,0v.85l-.36,0h-.35a2.28,2.28,0,0,1-.7-.08.83.83,0,0,1-.41-.24.85.85,0,0,1-.21-.4,4,4,0,0,1-.06-.55v-2.93h-.83Z"/><path class="cls-4" d="M428.8,222.59a1.77,1.77,0,0,0,.08.56,1.23,1.23,0,0,0,.24.47,1.12,1.12,0,0,0,.42.32,1.24,1.24,0,0,0,1.81-.7h1a2.11,2.11,0,0,1-.3.72,2.15,2.15,0,0,1-1.18.86,2.88,2.88,0,0,1-.78.11,2.56,2.56,0,0,1-1-.19,2.14,2.14,0,0,1-.77-.54,2.19,2.19,0,0,1-.47-.83,3.23,3.23,0,0,1-.16-1.06,3,3,0,0,1,.17-1,2.49,2.49,0,0,1,.48-.84,2.29,2.29,0,0,1,1.76-.79,2.26,2.26,0,0,1,1.05.25,2.21,2.21,0,0,1,.77.65,2.52,2.52,0,0,1,.45.93,2.61,2.61,0,0,1,.07,1.08Zm2.56-.72a2.13,2.13,0,0,0-.11-.5A1.46,1.46,0,0,0,431,221a1.42,1.42,0,0,0-.39-.29,1.18,1.18,0,0,0-.5-.11,1.47,1.47,0,0,0-.53.1,1.15,1.15,0,0,0-.4.28,1.17,1.17,0,0,0-.27.42,1.27,1.27,0,0,0-.11.52Z"/><path class="cls-4" d="M434.12,223.2a.8.8,0,0,0,.37.67,1.41,1.41,0,0,0,.76.19A2,2,0,0,0,436,224a.72.72,0,0,0,.28-.2.42.42,0,0,0,.1-.34.45.45,0,0,0-.15-.35,1,1,0,0,0-.37-.21,3,3,0,0,0-.52-.14l-.58-.13a5.25,5.25,0,0,1-.6-.16,2,2,0,0,1-.51-.26,1.22,1.22,0,0,1-.36-.42,1.34,1.34,0,0,1-.13-.63,1.08,1.08,0,0,1,.2-.68,1.42,1.42,0,0,1,.5-.44,2.31,2.31,0,0,1,.67-.24,4.49,4.49,0,0,1,.71-.07,2.92,2.92,0,0,1,.73.09,1.92,1.92,0,0,1,.64.26,1.44,1.44,0,0,1,.47.48,1.66,1.66,0,0,1,.24.7h-1.15a.67.67,0,0,0-.36-.52,1.51,1.51,0,0,0-.65-.14l-.27,0a1.32,1.32,0,0,0-.3.07.67.67,0,0,0-.24.16.36.36,0,0,0-.09.26.4.4,0,0,0,.14.33,1.22,1.22,0,0,0,.36.21,3,3,0,0,0,.52.13l.59.13.59.16a2,2,0,0,1,.51.26,1.15,1.15,0,0,1,.37.42,1.25,1.25,0,0,1,.14.61,1.35,1.35,0,0,1-.2.75,1.49,1.49,0,0,1-.53.5,2.11,2.11,0,0,1-.71.28,3.59,3.59,0,0,1-.78.09,3.35,3.35,0,0,1-.87-.1,2.16,2.16,0,0,1-.7-.33,1.51,1.51,0,0,1-.46-.54,1.77,1.77,0,0,1-.18-.76Z"/><path class="cls-4" d="M441.65,221.48a1,1,0,0,0-.37-.69,1.22,1.22,0,0,0-.77-.24,1.9,1.9,0,0,0-.45.07,1.07,1.07,0,0,0-.44.27,1.48,1.48,0,0,0-.34.55,2.79,2.79,0,0,0-.06,1.54,1.69,1.69,0,0,0,.23.55,1.18,1.18,0,0,0,.41.39,1.24,1.24,0,0,0,.6.14,1.16,1.16,0,0,0,.8-.29,1.38,1.38,0,0,0,.39-.84h1.1a2.46,2.46,0,0,1-.74,1.49,2.28,2.28,0,0,1-1.55.51,2.4,2.4,0,0,1-1-.2,2.19,2.19,0,0,1-.76-.54,2.15,2.15,0,0,1-.46-.81,3,3,0,0,1-.16-1,3.6,3.6,0,0,1,.15-1.05,2.4,2.4,0,0,1,.46-.85,2.21,2.21,0,0,1,.77-.57,2.52,2.52,0,0,1,1.07-.21,2.87,2.87,0,0,1,.83.12,2.1,2.1,0,0,1,.69.33,1.66,1.66,0,0,1,.49.56,1.93,1.93,0,0,1,.24.79Z"/><path class="cls-4" d="M443.67,217.92h1.1v1h-1.1Zm0,1.9h1.1v5h-1.1Z"/><path class="cls-4" d="M446,217.92h1.1v6.88H446Z"/><path class="cls-4" d="M451.81,222.59a2.1,2.1,0,0,0,.08.56,1.41,1.41,0,0,0,.25.47,1.17,1.17,0,0,0,.41.32,1.4,1.4,0,0,0,.6.12,1.33,1.33,0,0,0,.78-.2,1.24,1.24,0,0,0,.43-.62h1a1.78,1.78,0,0,1-.3.72,2,2,0,0,1-.51.53,2,2,0,0,1-.66.33,2.88,2.88,0,0,1-.78.11,2.61,2.61,0,0,1-1-.19,2.1,2.1,0,0,1-.76-.54,2.35,2.35,0,0,1-.48-.83,3.53,3.53,0,0,1-.15-1.06,3,3,0,0,1,.16-1,2.69,2.69,0,0,1,.49-.84,2.23,2.23,0,0,1,.75-.57,2.38,2.38,0,0,1,2.06,0,2.21,2.21,0,0,1,.77.65,2.52,2.52,0,0,1,.45.93,2.8,2.8,0,0,1,.07,1.08Zm2.56-.72a1.72,1.72,0,0,0-.11-.5A1.27,1.27,0,0,0,454,221a1.24,1.24,0,0,0-.38-.29,1.19,1.19,0,0,0-.51-.11,1.42,1.42,0,0,0-.52.1,1.3,1.3,0,0,0-.41.28,1.51,1.51,0,0,0-.27.42,1.72,1.72,0,0,0-.11.52Z"/><path class="cls-4" d="M461,224.8h-1v-.68h0a1.3,1.3,0,0,1-.65.62,2.09,2.09,0,0,1-.89.19,2.37,2.37,0,0,1-1-.21,1.9,1.9,0,0,1-.72-.56,2.41,2.41,0,0,1-.44-.84,3.92,3.92,0,0,1-.14-1,3.41,3.41,0,0,1,.18-1.16,2.17,2.17,0,0,1,.49-.81,1.89,1.89,0,0,1,.69-.47,2.17,2.17,0,0,1,.79-.15,2.7,2.7,0,0,1,.48,0,1.88,1.88,0,0,1,.46.14,1.91,1.91,0,0,1,.41.24,1.47,1.47,0,0,1,.31.35h0v-2.54H461Zm-3.84-2.44a2.28,2.28,0,0,0,.09.63,1.53,1.53,0,0,0,.25.55,1.22,1.22,0,0,0,.43.38,1.17,1.17,0,0,0,.61.14,1.22,1.22,0,0,0,.63-.15,1.27,1.27,0,0,0,.43-.4,1.85,1.85,0,0,0,.26-.57,2.74,2.74,0,0,0,.08-.64,2.06,2.06,0,0,0-.37-1.29,1.26,1.26,0,0,0-1-.46,1.21,1.21,0,0,0-.65.16,1.3,1.3,0,0,0-.43.41,1.87,1.87,0,0,0-.24.58A3,3,0,0,0,457.16,222.36Z"/><path class="cls-4" d="M462.22,217.92h1.1v1h-1.1Zm0,1.9h1.1v5h-1.1Z"/><path class="cls-4" d="M464.54,217.92h1.1v6.88h-1.1Z"/><path class="cls-4" d="M466.83,219.82h1v.69h0a2.16,2.16,0,0,1,.27-.33,1.14,1.14,0,0,1,.32-.26,1.26,1.26,0,0,1,.41-.17,2.06,2.06,0,0,1,.53-.07,1.74,1.74,0,0,1,.84.21,1.12,1.12,0,0,1,.55.62,2.17,2.17,0,0,1,.65-.6,1.71,1.71,0,0,1,.91-.23,1.78,1.78,0,0,1,1.23.39,1.66,1.66,0,0,1,.44,1.29v3.44H473v-2.91c0-.2,0-.38,0-.55a1.08,1.08,0,0,0-.11-.42.59.59,0,0,0-.27-.27,1,1,0,0,0-.5-.1.92.92,0,0,0-.81.35,1.63,1.63,0,0,0-.25,1v2.92h-1.1v-3.2a1.28,1.28,0,0,0-.19-.78.77.77,0,0,0-.69-.27,1,1,0,0,0-.41.09,1,1,0,0,0-.34.25,1.22,1.22,0,0,0-.24.4,1.59,1.59,0,0,0-.09.55v3h-1.1Z"/><path class="cls-4" d="M475.23,217.92h1.1v1h-1.1Zm0,1.9h1.1v5h-1.1Z"/><path class="cls-4" d="M478.45,226.34a1.52,1.52,0,0,0,.32.11,1,1,0,0,0,.3,0h.21a.6.6,0,0,0,.19-.06.41.41,0,0,0,.14-.12.39.39,0,0,0,.05-.2.31.31,0,0,0-.14-.28.53.53,0,0,0-.3-.09.7.7,0,0,0-.38.1l-.21-.19.54-.72a5.21,5.21,0,0,1-.59-.09,2.21,2.21,0,0,1-.69-.33,1.51,1.51,0,0,1-.46-.54,1.77,1.77,0,0,1-.18-.76h1.1a.83.83,0,0,0,.37.67,1.41,1.41,0,0,0,.76.19,2,2,0,0,0,.72-.11.72.72,0,0,0,.28-.2.42.42,0,0,0,.1-.34.45.45,0,0,0-.15-.35,1,1,0,0,0-.37-.21,3,3,0,0,0-.52-.14l-.58-.13a4.59,4.59,0,0,1-.59-.16,2,2,0,0,1-.51-.26,1.15,1.15,0,0,1-.37-.42,1.34,1.34,0,0,1-.13-.63,1.14,1.14,0,0,1,.2-.68,1.52,1.52,0,0,1,.5-.44,2.31,2.31,0,0,1,.67-.24,4.49,4.49,0,0,1,.71-.07,3,3,0,0,1,.74.09,2,2,0,0,1,.63.26,1.44,1.44,0,0,1,.47.48,1.53,1.53,0,0,1,.24.7h-1.15a.67.67,0,0,0-.36-.52,1.48,1.48,0,0,0-.65-.14l-.27,0a1.32,1.32,0,0,0-.3.07.78.78,0,0,0-.24.16.36.36,0,0,0-.09.26.4.4,0,0,0,.14.33,1.22,1.22,0,0,0,.36.21,3.29,3.29,0,0,0,.52.13l.59.13.59.16a2.11,2.11,0,0,1,.52.26,1.22,1.22,0,0,1,.36.42,1.15,1.15,0,0,1,.14.61,1.35,1.35,0,0,1-.2.75,1.55,1.55,0,0,1-.52.5,2.25,2.25,0,0,1-.72.28,2.64,2.64,0,0,1-.62.08l-.33.44h0l.14,0h.18a1,1,0,0,1,.29,0,.79.79,0,0,1,.26.13.71.71,0,0,1,.19.23.63.63,0,0,1,.08.32.68.68,0,0,1-.11.41,1,1,0,0,1-.26.27,1.88,1.88,0,0,1-.38.15,1.84,1.84,0,0,1-.41.05,3.07,3.07,0,0,1-.53-.05,1.88,1.88,0,0,1-.47-.17Z"/><path class="cls-4" d="M482,219.82h.83v-1.49h1.09v1.49h1v.82h-1v2.65a2.36,2.36,0,0,0,0,.3.4.4,0,0,0,.07.21.24.24,0,0,0,.15.13.79.79,0,0,0,.29,0h.23a1,1,0,0,0,.24,0v.85l-.36,0h-.36a2.17,2.17,0,0,1-.69-.08.86.86,0,0,1-.42-.24.76.76,0,0,1-.2-.4,2.26,2.26,0,0,1-.06-.55v-2.93H482Z"/><path class="cls-4" d="M485.75,217.92h1.1v1h-1.1Zm0,1.9h1.1v5h-1.1Z"/><path class="cls-4" d="M488,219.82h1v1h0a1.4,1.4,0,0,1,.19-.39,1.61,1.61,0,0,1,.34-.35,1.5,1.5,0,0,1,.44-.26,1.38,1.38,0,0,1,.49-.1h.26l.15,0v1.06l-.23,0-.24,0a1.21,1.21,0,0,0-.53.12,1.18,1.18,0,0,0-.42.32,1.47,1.47,0,0,0-.29.54,2.29,2.29,0,0,0-.11.73v2.37H488Z"/><path class="cls-4" d="M490.63,223.5H492v1.3h-1.34Z"/><path class="cls-4" d="M2.64,229.47H3.92l2.64,6.88H5.27l-.64-1.82H1.89l-.65,1.82H0Zm-.43,4.14h2.1l-1-3h0Z"/><path class="cls-4" d="M7.07,231.37h1v.69h0l.27-.33a1.64,1.64,0,0,1,.33-.26,1.46,1.46,0,0,1,.4-.17,2.2,2.2,0,0,1,.53-.06,1.75,1.75,0,0,1,.85.2,1.12,1.12,0,0,1,.55.62,2.3,2.3,0,0,1,.65-.6,1.68,1.68,0,0,1,.91-.22,1.79,1.79,0,0,1,1.23.38,1.66,1.66,0,0,1,.43,1.29v3.44H13.19v-2.91c0-.2,0-.38,0-.54a1.09,1.09,0,0,0-.11-.43.57.57,0,0,0-.28-.27,1,1,0,0,0-.5-.1.94.94,0,0,0-.81.35,1.71,1.71,0,0,0-.25,1v2.92H10.13v-3.2a1.38,1.38,0,0,0-.19-.78.8.8,0,0,0-.69-.27,1,1,0,0,0-.41.09,1.07,1.07,0,0,0-.35.25,1.42,1.42,0,0,0-.24.4,1.59,1.59,0,0,0-.09.55v3H7.07Z"/><path class="cls-4" d="M19.61,235.24a.65.65,0,0,0,.05.29.23.23,0,0,0,.21.09H20l.16,0v.76l-.15,0-.19,0a.63.63,0,0,1-.19,0h-.17a1,1,0,0,1-.55-.13.66.66,0,0,1-.29-.47,2,2,0,0,1-.81.46,3.32,3.32,0,0,1-.92.14,2.25,2.25,0,0,1-.64-.09,1.52,1.52,0,0,1-.54-.27,1.27,1.27,0,0,1-.38-.45,1.44,1.44,0,0,1-.14-.64,1.49,1.49,0,0,1,.17-.75,1.19,1.19,0,0,1,.44-.45,2,2,0,0,1,.62-.24c.23-.05.45-.08.69-.11a3.78,3.78,0,0,1,.56-.08l.48-.08a.75.75,0,0,0,.33-.18.49.49,0,0,0,.12-.36.63.63,0,0,0-.1-.35.72.72,0,0,0-.25-.21.9.9,0,0,0-.34-.09l-.34,0a1.36,1.36,0,0,0-.76.2.74.74,0,0,0-.34.59h-1.1a1.71,1.71,0,0,1,.23-.8,1.69,1.69,0,0,1,.52-.51,2,2,0,0,1,.71-.27,4.28,4.28,0,0,1,.81-.07,3.51,3.51,0,0,1,.72.07,2.25,2.25,0,0,1,.64.25,1.38,1.38,0,0,1,.45.45,1.2,1.2,0,0,1,.18.67Zm-1.1-1.39a1.3,1.3,0,0,1-.62.2c-.24,0-.48.06-.73.1l-.33.08a1.13,1.13,0,0,0-.29.15.59.59,0,0,0-.2.24.8.8,0,0,0-.07.36.46.46,0,0,0,.1.31.86.86,0,0,0,.26.2,1.59,1.59,0,0,0,.33.1l.32,0a1.89,1.89,0,0,0,.39-.05,1.18,1.18,0,0,0,.4-.17,1,1,0,0,0,.32-.29.76.76,0,0,0,.12-.44Z"/><path class="cls-4" d="M24.15,233a1,1,0,0,0-.37-.7,1.19,1.19,0,0,0-.76-.24,1.9,1.9,0,0,0-.46.07,1.07,1.07,0,0,0-.44.27,1.72,1.72,0,0,0-.34.55,3.08,3.08,0,0,0-.06,1.54,1.93,1.93,0,0,0,.23.55,1.27,1.27,0,0,0,.41.39,1.17,1.17,0,0,0,.61.15,1.09,1.09,0,0,0,.79-.3,1.38,1.38,0,0,0,.39-.84h1.1a2.41,2.41,0,0,1-.74,1.49,2.25,2.25,0,0,1-1.54.51,2.61,2.61,0,0,1-1-.19,2.33,2.33,0,0,1-.75-.54,2.29,2.29,0,0,1-.47-.82,3,3,0,0,1-.16-1,3.3,3.3,0,0,1,.16-1,2.33,2.33,0,0,1,.46-.85,2.17,2.17,0,0,1,.76-.57,3.06,3.06,0,0,1,1.9-.09,2,2,0,0,1,.69.33,1.8,1.8,0,0,1,.5.56,1.93,1.93,0,0,1,.23.8Z"/><path class="cls-4" d="M26.17,236.35v-5h1.1v5Z"/><path class="cls-4" d="M35.83,236.35h-1v-.68h0a1.33,1.33,0,0,1-.65.63,2.25,2.25,0,0,1-.89.18,2.56,2.56,0,0,1-1-.2,2,2,0,0,1-.72-.57,2.41,2.41,0,0,1-.44-.84,3.84,3.84,0,0,1-.14-1,3.43,3.43,0,0,1,.18-1.17,2.31,2.31,0,0,1,.49-.81,1.86,1.86,0,0,1,.69-.46,2.22,2.22,0,0,1,.8-.15,2.56,2.56,0,0,1,.47,0,2.44,2.44,0,0,1,.46.14,1.73,1.73,0,0,1,.41.25,1.17,1.17,0,0,1,.31.35h0v-2.55h1.1ZM32,233.91a2.27,2.27,0,0,0,.08.63,1.72,1.72,0,0,0,.25.55,1.13,1.13,0,0,0,.43.38,1.2,1.2,0,0,0,.61.15,1.23,1.23,0,0,0,.63-.16,1.41,1.41,0,0,0,.44-.4,2.18,2.18,0,0,0,.25-.56,2.82,2.82,0,0,0,.08-.65,2,2,0,0,0-.37-1.29,1.25,1.25,0,0,0-1-.46,1.33,1.33,0,0,0-.65.16,1.44,1.44,0,0,0-.43.42,1.81,1.81,0,0,0-.24.57A3,3,0,0,0,32,233.91Z"/><path class="cls-4" d="M37.05,236.35v-5h1.1v5Z"/><path class="cls-4" d="M40.27,237.89a1.67,1.67,0,0,0,.31.11,1.06,1.06,0,0,0,.31,0h.2a.66.66,0,0,0,.2-.06.53.53,0,0,0,.14-.12.39.39,0,0,0,0-.2.32.32,0,0,0-.14-.28.55.55,0,0,0-.3-.09.67.67,0,0,0-.38.1l-.21-.19.54-.72a5.21,5.21,0,0,1-.59-.09,2,2,0,0,1-.69-.33,1.51,1.51,0,0,1-.46-.54,1.74,1.74,0,0,1-.18-.76h1.1a.8.8,0,0,0,.36.67,1.47,1.47,0,0,0,.77.2l.35,0a1.18,1.18,0,0,0,.37-.09.63.63,0,0,0,.28-.2.42.42,0,0,0,.1-.34.47.47,0,0,0-.15-.34,1,1,0,0,0-.37-.22,3,3,0,0,0-.52-.14l-.58-.13a5.25,5.25,0,0,1-.6-.16,1.75,1.75,0,0,1-.51-.26,1.22,1.22,0,0,1-.36-.42,1.34,1.34,0,0,1-.13-.63,1.1,1.1,0,0,1,.2-.68,1.42,1.42,0,0,1,.5-.44,2.31,2.31,0,0,1,.67-.24,4.44,4.44,0,0,1,.71-.06,2.92,2.92,0,0,1,.73.08,1.92,1.92,0,0,1,.64.26,1.54,1.54,0,0,1,.47.48,1.71,1.71,0,0,1,.24.71H42.19a.67.67,0,0,0-.36-.53,1.51,1.51,0,0,0-.65-.14l-.27,0a1.32,1.32,0,0,0-.3.07.67.67,0,0,0-.24.16.38.38,0,0,0-.1.26.42.42,0,0,0,.14.33,1.44,1.44,0,0,0,.37.21,4.25,4.25,0,0,0,.52.14l.59.12a5.72,5.72,0,0,1,.59.17,1.75,1.75,0,0,1,.51.26,1,1,0,0,1,.37.41,1.29,1.29,0,0,1,.14.62,1.4,1.4,0,0,1-.2.75,1.69,1.69,0,0,1-.53.5,2.34,2.34,0,0,1-.71.28,3.27,3.27,0,0,1-.62.07l-.34.45h0l.14,0h.18a1,1,0,0,1,.29,0,.91.91,0,0,1,.26.13.83.83,0,0,1,.19.23.66.66,0,0,1,.08.32.73.73,0,0,1-.11.41.87.87,0,0,1-.27.27,1.37,1.37,0,0,1-.37.15,1.51,1.51,0,0,1-.42.05,2.24,2.24,0,0,1-.52-.05,1.47,1.47,0,0,1-.47-.17Z"/><path class="cls-4" d="M44.37,236.35v-5h1.09v5Z"/><path class="cls-4" d="M46.66,231.37h1v.73l0,0a1.84,1.84,0,0,1,.65-.65,1.72,1.72,0,0,1,.9-.23,1.89,1.89,0,0,1,1.29.42,1.64,1.64,0,0,1,.47,1.27v3.42h-1.1v-3.13a1.34,1.34,0,0,0-.25-.85.89.89,0,0,0-.72-.27,1.27,1.27,0,0,0-.5.1,1.08,1.08,0,0,0-.38.28,1.46,1.46,0,0,0-.33.93v2.94H46.66Z"/><path class="cls-4" d="M56.87,236.35h-1v-.68h0a1.35,1.35,0,0,1-.64.63,2.3,2.3,0,0,1-.9.18,2.47,2.47,0,0,1-1-.2,2,2,0,0,1-.73-.57,2.39,2.39,0,0,1-.43-.84,3.49,3.49,0,0,1-.15-1,3.43,3.43,0,0,1,.18-1.17,2.46,2.46,0,0,1,.49-.81,1.86,1.86,0,0,1,.69-.46,2.22,2.22,0,0,1,.8-.15,2.56,2.56,0,0,1,.47,0,2.44,2.44,0,0,1,.46.14,1.55,1.55,0,0,1,.41.25,1,1,0,0,1,.31.35h0v-2.55h1.1ZM53,233.91a2.72,2.72,0,0,0,.08.63,2,2,0,0,0,.25.55,1.26,1.26,0,0,0,1.05.53,1.28,1.28,0,0,0,.63-.16,1.37,1.37,0,0,0,.43-.4,1.88,1.88,0,0,0,.25-.56,2.82,2.82,0,0,0,.08-.65,2,2,0,0,0-.37-1.29,1.24,1.24,0,0,0-1-.46,1.28,1.28,0,0,0-.65.16,1.36,1.36,0,0,0-.44.42,1.81,1.81,0,0,0-.24.57A3,3,0,0,0,53,233.91Z"/><path class="cls-4" d="M62.23,235.24a.52.52,0,0,0,.06.29.2.2,0,0,0,.2.09h.12l.15,0v.76l-.15,0-.19,0a.58.58,0,0,1-.19,0h-.16a1.06,1.06,0,0,1-.56-.13.69.69,0,0,1-.29-.47,2,2,0,0,1-.8.46,3.43,3.43,0,0,1-.92.14,2.32,2.32,0,0,1-.65-.09,1.71,1.71,0,0,1-.54-.27,1.38,1.38,0,0,1-.38-.45,1.44,1.44,0,0,1-.14-.64,1.49,1.49,0,0,1,.17-.75,1.21,1.21,0,0,1,.45-.45,1.94,1.94,0,0,1,.61-.24c.23-.05.46-.08.69-.11a4.1,4.1,0,0,1,.57-.08,4.13,4.13,0,0,0,.47-.08.75.75,0,0,0,.33-.18.49.49,0,0,0,.12-.36.56.56,0,0,0-.1-.35.72.72,0,0,0-.25-.21.9.9,0,0,0-.33-.09l-.35,0a1.36,1.36,0,0,0-.76.2.74.74,0,0,0-.34.59H58a1.61,1.61,0,0,1,.23-.8,1.55,1.55,0,0,1,.51-.51,2.09,2.09,0,0,1,.71-.27,4.28,4.28,0,0,1,.81-.07,3.51,3.51,0,0,1,.72.07,2.14,2.14,0,0,1,.64.25,1.52,1.52,0,0,1,.46.45,1.28,1.28,0,0,1,.17.67Zm-1.1-1.39a1.26,1.26,0,0,1-.61.2c-.25,0-.49.06-.73.1l-.34.08a1.13,1.13,0,0,0-.29.15.68.68,0,0,0-.2.24,1,1,0,0,0-.07.36.47.47,0,0,0,.11.31.82.82,0,0,0,.25.2,1.59,1.59,0,0,0,.33.1l.32,0a2,2,0,0,0,.4-.05,1.27,1.27,0,0,0,.4-.17,1,1,0,0,0,.31-.29.76.76,0,0,0,.12-.44Z"/><path class="cls-4" d="M65.6,231.37h1.19l1.27,3.82h0l1.22-3.82h1.13l-1.78,5H67.41Z"/><path class="cls-4" d="M71.94,234.14a1.73,1.73,0,0,0,.09.56,1.23,1.23,0,0,0,.24.47,1.14,1.14,0,0,0,.42.33,1.25,1.25,0,0,0,1.81-.71h1a2.11,2.11,0,0,1-.3.72,2.18,2.18,0,0,1-.51.54,2.3,2.3,0,0,1-.67.32,2.54,2.54,0,0,1-.78.11,2.61,2.61,0,0,1-1-.19A2.17,2.17,0,0,1,71,234.92a3.23,3.23,0,0,1-.16-1.06,2.8,2.8,0,0,1,.17-1,2.49,2.49,0,0,1,.48-.84,2.24,2.24,0,0,1,1.75-.78,2.27,2.27,0,0,1,1.06.24,2.32,2.32,0,0,1,.77.65,2.52,2.52,0,0,1,.45.93,2.8,2.8,0,0,1,.07,1.08Zm2.56-.72a1.45,1.45,0,0,0-.11-.5,1.27,1.27,0,0,0-.25-.42,1.24,1.24,0,0,0-.38-.29,1.19,1.19,0,0,0-.51-.11,1.46,1.46,0,0,0-.52.1,1.2,1.2,0,0,0-.67.7,1.52,1.52,0,0,0-.12.52Z"/><path class="cls-4" d="M83.28,235.24a.52.52,0,0,0,.06.29.2.2,0,0,0,.2.09h.12l.15,0v.76l-.15,0-.18,0a.69.69,0,0,1-.2,0h-.16a1.08,1.08,0,0,1-.56-.13.69.69,0,0,1-.29-.47,1.92,1.92,0,0,1-.8.46,3.37,3.37,0,0,1-.92.14,2.25,2.25,0,0,1-.64-.09,1.66,1.66,0,0,1-.55-.27,1.24,1.24,0,0,1-.37-.45,1.31,1.31,0,0,1-.14-.64,1.39,1.39,0,0,1,.17-.75,1.12,1.12,0,0,1,.44-.45,2,2,0,0,1,.61-.24c.23-.05.46-.08.69-.11a4.1,4.1,0,0,1,.57-.08l.48-.08a.77.77,0,0,0,.32-.18.49.49,0,0,0,.12-.36.56.56,0,0,0-.1-.35.64.64,0,0,0-.25-.21.9.9,0,0,0-.33-.09l-.35,0a1.39,1.39,0,0,0-.76.2.7.7,0,0,0-.33.59H79a1.71,1.71,0,0,1,.23-.8,1.69,1.69,0,0,1,.52-.51,2,2,0,0,1,.7-.27,4.43,4.43,0,0,1,.81-.07,3.38,3.38,0,0,1,.72.07,2.14,2.14,0,0,1,.64.25,1.41,1.41,0,0,1,.46.45,1.19,1.19,0,0,1,.17.67Zm-1.09-1.39a1.34,1.34,0,0,1-.62.2c-.24,0-.49.06-.73.1l-.34.08a1.32,1.32,0,0,0-.29.15.57.57,0,0,0-.19.24.8.8,0,0,0-.08.36.47.47,0,0,0,.11.31.86.86,0,0,0,.26.2,1.34,1.34,0,0,0,.32.1l.32,0a1.9,1.9,0,0,0,.4-.05,1.27,1.27,0,0,0,.4-.17,1,1,0,0,0,.31-.29.7.7,0,0,0,.13-.44Z"/><path class="cls-4" d="M85.3,234.75a.8.8,0,0,0,.36.67,1.43,1.43,0,0,0,.76.2l.35,0a1.06,1.06,0,0,0,.37-.09.66.66,0,0,0,.29-.2.46.46,0,0,0,.1-.34.51.51,0,0,0-.15-.34,1,1,0,0,0-.38-.22,3.12,3.12,0,0,0-.51-.14l-.59-.13a5.69,5.69,0,0,1-.59-.16,1.75,1.75,0,0,1-.51-.26,1.22,1.22,0,0,1-.36-.42,1.33,1.33,0,0,1-.14-.63,1.16,1.16,0,0,1,.2-.68,1.52,1.52,0,0,1,.5-.44,2.38,2.38,0,0,1,.68-.24,4.32,4.32,0,0,1,.7-.06,3,3,0,0,1,.74.08,2,2,0,0,1,.64.26,1.79,1.79,0,0,1,.47.48,1.7,1.7,0,0,1,.23.71H87.32a.67.67,0,0,0-.36-.53,1.51,1.51,0,0,0-.65-.14l-.28,0a1.63,1.63,0,0,0-.3.07.63.63,0,0,0-.23.16.34.34,0,0,0-.1.26.42.42,0,0,0,.14.33,1.29,1.29,0,0,0,.37.21,4.6,4.6,0,0,0,.51.14l.6.12c.2.05.39.1.59.17a1.75,1.75,0,0,1,.51.26,1.23,1.23,0,0,1,.37.41,1.29,1.29,0,0,1,.14.62,1.32,1.32,0,0,1-.21.75,1.66,1.66,0,0,1-.52.5,2.4,2.4,0,0,1-.72.28,4.13,4.13,0,0,1-.78.08,3.46,3.46,0,0,1-.87-.1,1.92,1.92,0,0,1-.69-.33,1.42,1.42,0,0,1-.46-.54,1.61,1.61,0,0,1-.18-.76Z"/><path class="cls-4" d="M89.49,229.47h1.1v6.88h-1.1Z"/><path class="cls-4" d="M91.81,236.35v-5h1.1v5Z"/><path class="cls-4" d="M94.1,231.37h1v.73l0,0a2,2,0,0,1,.66-.65,1.69,1.69,0,0,1,.89-.23,1.86,1.86,0,0,1,1.29.42,1.6,1.6,0,0,1,.47,1.27v3.42H97.38v-3.13a1.41,1.41,0,0,0-.25-.85.92.92,0,0,0-.73-.27,1.35,1.35,0,0,0-.5.1,1.13,1.13,0,0,0-.37.28,1.46,1.46,0,0,0-.33.93v2.94H94.1Z"/><path class="cls-4" d="M103.8,235.24a.54.54,0,0,0,0,.29.22.22,0,0,0,.21.09h.11l.16,0v.76l-.15,0-.19,0a.63.63,0,0,1-.19,0h-.17a1,1,0,0,1-.55-.13.66.66,0,0,1-.29-.47,2,2,0,0,1-.81.46,3.37,3.37,0,0,1-.92.14,2.25,2.25,0,0,1-.64-.09,1.66,1.66,0,0,1-.55-.27,1.36,1.36,0,0,1-.37-.45,1.44,1.44,0,0,1-.14-.64,1.49,1.49,0,0,1,.17-.75,1.19,1.19,0,0,1,.44-.45,2,2,0,0,1,.62-.24c.22-.05.45-.08.68-.11a4.1,4.1,0,0,1,.57-.08l.48-.08a.75.75,0,0,0,.33-.18.49.49,0,0,0,.12-.36.63.63,0,0,0-.1-.35.72.72,0,0,0-.25-.21.9.9,0,0,0-.34-.09l-.34,0a1.36,1.36,0,0,0-.76.2.74.74,0,0,0-.34.59h-1.1a1.71,1.71,0,0,1,.23-.8,1.69,1.69,0,0,1,.52-.51,2,2,0,0,1,.71-.27,4.25,4.25,0,0,1,.8-.07,3.54,3.54,0,0,1,.73.07,2.25,2.25,0,0,1,.64.25,1.38,1.38,0,0,1,.45.45,1.2,1.2,0,0,1,.18.67Zm-1.1-1.39a1.3,1.3,0,0,1-.62.2c-.24,0-.48.06-.73.1l-.33.08a1.13,1.13,0,0,0-.29.15.59.59,0,0,0-.2.24.8.8,0,0,0-.07.36.46.46,0,0,0,.1.31.86.86,0,0,0,.26.2,1.59,1.59,0,0,0,.33.1l.32,0a1.89,1.89,0,0,0,.39-.05,1.18,1.18,0,0,0,.4-.17.86.86,0,0,0,.31-.29.7.7,0,0,0,.13-.44Z"/><path class="cls-4" d="M111.83,235.24a.54.54,0,0,0,0,.29.2.2,0,0,0,.2.09h.12l.15,0v.76l-.14,0-.19,0-.19,0h-.17a1.08,1.08,0,0,1-.56-.13.72.72,0,0,1-.29-.47,1.92,1.92,0,0,1-.8.46,3.37,3.37,0,0,1-.92.14,2.25,2.25,0,0,1-.64-.09,1.66,1.66,0,0,1-.55-.27,1.36,1.36,0,0,1-.37-.45,1.31,1.31,0,0,1-.14-.64,1.39,1.39,0,0,1,.17-.75,1.19,1.19,0,0,1,.44-.45,2,2,0,0,1,.61-.24c.23-.05.46-.08.69-.11a4.1,4.1,0,0,1,.57-.08l.48-.08a.71.71,0,0,0,.32-.18.49.49,0,0,0,.13-.36.56.56,0,0,0-.11-.35.64.64,0,0,0-.25-.21.9.9,0,0,0-.33-.09l-.34,0a1.4,1.4,0,0,0-.77.2.73.73,0,0,0-.33.59h-1.1a1.71,1.71,0,0,1,.23-.8,1.69,1.69,0,0,1,.52-.51,2,2,0,0,1,.7-.27,4.43,4.43,0,0,1,.81-.07,3.38,3.38,0,0,1,.72.07,2,2,0,0,1,.64.25,1.41,1.41,0,0,1,.46.45,1.2,1.2,0,0,1,.18.67Zm-1.1-1.39a1.3,1.3,0,0,1-.62.2c-.24,0-.49.06-.73.1l-.34.08a1.32,1.32,0,0,0-.29.15.65.65,0,0,0-.19.24.8.8,0,0,0-.08.36.47.47,0,0,0,.11.31.86.86,0,0,0,.26.2,1.5,1.5,0,0,0,.32.1l.33,0a1.89,1.89,0,0,0,.39-.05,1.27,1.27,0,0,0,.4-.17.86.86,0,0,0,.31-.29.7.7,0,0,0,.13-.44Z"/><path class="cls-4" d="M112.46,231.37h1.2l1.3,3.72h0l1.26-3.72h1.15l-1.94,5.25c-.09.22-.17.44-.26.64a2.27,2.27,0,0,1-.32.55,1.33,1.33,0,0,1-.47.37,1.6,1.6,0,0,1-.71.14,4.87,4.87,0,0,1-.76-.06v-.92l.26,0a1.15,1.15,0,0,0,.26,0,.93.93,0,0,0,.32,0,.6.6,0,0,0,.21-.14.93.93,0,0,0,.14-.22c0-.08.07-.18.1-.29l.13-.38Z"/><path class="cls-4" d="M118,229.47h1.1v3.91l2-2h1.35l-1.9,1.83,2.08,3.15h-1.33l-1.52-2.42-.66.64v1.78H118Z"/><path class="cls-4" d="M123.2,236.35v-5h1.1v5Z"/><path class="cls-4" d="M125.49,231.37h1v1h0a1.17,1.17,0,0,1,.19-.39,1.88,1.88,0,0,1,.78-.61,1.37,1.37,0,0,1,.49-.09h.41v1.06l-.24,0h-.23a1.2,1.2,0,0,0-.53.11,1.18,1.18,0,0,0-.42.32,1.56,1.56,0,0,0-.29.54,2.29,2.29,0,0,0-.11.73v2.37h-1.1Z"/><path class="cls-4" d="M128.91,236.35v-5H130v5Z"/><path class="cls-4" d="M133.88,231.37h1v1h0a1.14,1.14,0,0,1,.18-.39,1.88,1.88,0,0,1,.34-.35,1.76,1.76,0,0,1,.44-.26,1.37,1.37,0,0,1,.49-.09h.41v1.06l-.23,0h-.24a1.16,1.16,0,0,0-.52.11,1.13,1.13,0,0,0-.43.32,1.74,1.74,0,0,0-.29.54,2.3,2.3,0,0,0-.1.73v2.37h-1.1Z"/><path class="cls-4" d="M138,234.14a2,2,0,0,0,.08.56,1.41,1.41,0,0,0,.25.47,1.11,1.11,0,0,0,.41.33,1.4,1.4,0,0,0,.6.12,1.28,1.28,0,0,0,.77-.21,1.26,1.26,0,0,0,.44-.62h1a2.11,2.11,0,0,1-.3.72,2,2,0,0,1-1.18.86,2.43,2.43,0,0,1-.77.11,2.61,2.61,0,0,1-1-.19,2.23,2.23,0,0,1-.77-.54,2.33,2.33,0,0,1-.47-.83,3.52,3.52,0,0,1-.16-1.06,3,3,0,0,1,.17-1,2.49,2.49,0,0,1,.48-.84,2.27,2.27,0,0,1,.76-.57,2.29,2.29,0,0,1,1-.21,2.26,2.26,0,0,1,1.05.24,2.47,2.47,0,0,1,.78.65,2.87,2.87,0,0,1,.45.93,3,3,0,0,1,.07,1.08Zm2.56-.72a1.72,1.72,0,0,0-.11-.5,1.27,1.27,0,0,0-.25-.42,1.28,1.28,0,0,0-.39-.29,1.15,1.15,0,0,0-.5-.11,1.51,1.51,0,0,0-.53.1,1.26,1.26,0,0,0-.4.28,1.43,1.43,0,0,0-.38.94Z"/><path class="cls-4" d="M142.45,231.37h1v.73l0,0a2,2,0,0,1,.66-.65,1.71,1.71,0,0,1,.89-.23,1.86,1.86,0,0,1,1.29.42,1.61,1.61,0,0,1,.48,1.27v3.42h-1.1v-3.13a1.34,1.34,0,0,0-.25-.85.91.91,0,0,0-.72-.27,1.27,1.27,0,0,0-.5.1,1.08,1.08,0,0,0-.38.28,1.46,1.46,0,0,0-.33.93v2.94h-1.09Z"/><path class="cls-4" d="M148,229.47h1.1v3.91l2-2h1.35l-1.91,1.83,2.09,3.15h-1.34l-1.52-2.42-.65.64v1.78H148Z"/><path class="cls-4" d="M153.23,235.05h1.33v1.3a1.44,1.44,0,0,1-.36,1,1.65,1.65,0,0,1-.94.52v-.59a.7.7,0,0,0,.48-.35,1,1,0,0,0,.15-.58h-.66Z"/><path class="cls-4" d="M163.18,236.35h-1v-.68h0a1.35,1.35,0,0,1-.64.63,2.3,2.3,0,0,1-.9.18,2.47,2.47,0,0,1-1-.2,2,2,0,0,1-.73-.57,2.39,2.39,0,0,1-.43-.84,3.49,3.49,0,0,1-.15-1,3.43,3.43,0,0,1,.18-1.17,2.46,2.46,0,0,1,.49-.81,1.86,1.86,0,0,1,.69-.46,2.22,2.22,0,0,1,.8-.15,2.56,2.56,0,0,1,.47,0,2.44,2.44,0,0,1,.46.14,1.73,1.73,0,0,1,.41.25,1,1,0,0,1,.31.35h0v-2.55h1.1Zm-3.83-2.44a2.72,2.72,0,0,0,.08.63,1.72,1.72,0,0,0,.25.55,1.26,1.26,0,0,0,1,.53,1.28,1.28,0,0,0,.63-.16,1.37,1.37,0,0,0,.43-.4,2.18,2.18,0,0,0,.25-.56,2.82,2.82,0,0,0,.08-.65,2,2,0,0,0-.37-1.29,1.25,1.25,0,0,0-1-.46,1.33,1.33,0,0,0-.65.16,1.44,1.44,0,0,0-.43.42,1.81,1.81,0,0,0-.24.57A3,3,0,0,0,159.35,233.91Z"/><path class="cls-4" d="M168.74,236.35h-1.07v-.7h0a1.49,1.49,0,0,1-.61.61,1.59,1.59,0,0,1-.81.22,1.84,1.84,0,0,1-1.42-.48,2.17,2.17,0,0,1-.44-1.47v-3.16h1.1v3a1.35,1.35,0,0,0,.25.93.91.91,0,0,0,.7.27,1.39,1.39,0,0,0,.58-.11,1,1,0,0,0,.58-.71,2.35,2.35,0,0,0,.07-.54v-2.89h1.09Zm-3.57-5.8v-1h1.1v1Zm2.75-1v1h-1.09v-1Z"/><path class="cls-4" d="M169.73,231.37h4v.77l-2.85,3.34h3v.87h-4.38v-.77l2.76-3.34h-2.56Z"/><path class="cls-4" d="M175.57,234.14a2,2,0,0,0,.08.56,1.25,1.25,0,0,0,.25.47,1,1,0,0,0,.41.33,1.4,1.4,0,0,0,.6.12,1.28,1.28,0,0,0,.77-.21,1.26,1.26,0,0,0,.44-.62h1a2.11,2.11,0,0,1-.3.72,2,2,0,0,1-1.18.86,2.47,2.47,0,0,1-.77.11,2.57,2.57,0,0,1-1-.19,2.14,2.14,0,0,1-.77-.54,2.33,2.33,0,0,1-.47-.83,3.23,3.23,0,0,1-.16-1.06,3,3,0,0,1,.17-1,2.49,2.49,0,0,1,.48-.84,2.39,2.39,0,0,1,2.81-.54,2.47,2.47,0,0,1,.78.65,2.66,2.66,0,0,1,.44.93,2.8,2.8,0,0,1,.08,1.08Zm2.56-.72a1.72,1.72,0,0,0-.11-.5,1.46,1.46,0,0,0-.25-.42,1.42,1.42,0,0,0-.39-.29,1.18,1.18,0,0,0-.5-.11,1.47,1.47,0,0,0-.53.1,1.26,1.26,0,0,0-.4.28,1.51,1.51,0,0,0-.27.42,1.31,1.31,0,0,0-.11.52Z"/><path class="cls-4" d="M180.06,231.37h1v.73l0,0a2,2,0,0,1,.66-.65,1.69,1.69,0,0,1,.89-.23,1.86,1.86,0,0,1,1.29.42,1.6,1.6,0,0,1,.47,1.27v3.42h-1.09v-3.13a1.41,1.41,0,0,0-.25-.85.92.92,0,0,0-.73-.27,1.35,1.35,0,0,0-.5.1,1.13,1.13,0,0,0-.37.28,1.46,1.46,0,0,0-.33.93v2.94h-1.1Z"/><path class="cls-4" d="M187.77,231.37H189l1.26,3.82h0l1.21-3.82h1.14l-1.78,5h-1.24Z"/><path class="cls-4" d="M194.12,234.14a1.73,1.73,0,0,0,.08.56,1.39,1.39,0,0,0,.24.47,1.14,1.14,0,0,0,.42.33,1.37,1.37,0,0,0,.6.12,1.3,1.3,0,0,0,.77-.21,1.26,1.26,0,0,0,.44-.62h1a2.11,2.11,0,0,1-.3.72,2,2,0,0,1-1.18.86,2.47,2.47,0,0,1-.77.11,2.57,2.57,0,0,1-1-.19,2.14,2.14,0,0,1-.77-.54,2.19,2.19,0,0,1-.47-.83,3.23,3.23,0,0,1-.16-1.06,3,3,0,0,1,.17-1,2.49,2.49,0,0,1,.48-.84,2.39,2.39,0,0,1,2.81-.54,2.47,2.47,0,0,1,.78.65,2.66,2.66,0,0,1,.44.93,2.8,2.8,0,0,1,.08,1.08Zm2.56-.72a1.72,1.72,0,0,0-.11-.5,1.46,1.46,0,0,0-.25-.42,1.42,1.42,0,0,0-.39-.29,1.18,1.18,0,0,0-.5-.11,1.47,1.47,0,0,0-.53.1,1.15,1.15,0,0,0-.4.28,1.51,1.51,0,0,0-.27.42,1.31,1.31,0,0,0-.11.52Z"/><path class="cls-4" d="M201.32,229.47h1.09V232h0a1.48,1.48,0,0,1,.28-.33,1.78,1.78,0,0,1,.36-.25,2.1,2.1,0,0,1,.42-.15,1.58,1.58,0,0,1,.43,0,2.47,2.47,0,0,1,1,.2,2.06,2.06,0,0,1,.73.57,2.39,2.39,0,0,1,.43.84,3.47,3.47,0,0,1,.15,1,4,4,0,0,1-.13,1,2.56,2.56,0,0,1-.4.83,2.09,2.09,0,0,1-.67.58,2,2,0,0,1-1,.21,4.36,4.36,0,0,1-.51,0,1.89,1.89,0,0,1-.48-.13,1.46,1.46,0,0,1-.42-.25,1.09,1.09,0,0,1-.31-.41h0v.69h-1Zm3.83,4.39a2.37,2.37,0,0,0-.09-.65,1.7,1.7,0,0,0-.26-.56,1.27,1.27,0,0,0-.43-.4,1.16,1.16,0,0,0-.6-.15,1.2,1.2,0,0,0-1,.48,2.11,2.11,0,0,0-.35,1.28,2.58,2.58,0,0,0,.09.7,1.62,1.62,0,0,0,.27.56,1.39,1.39,0,0,0,.44.36,1.25,1.25,0,0,0,.59.14,1.29,1.29,0,0,0,.64-.16,1.36,1.36,0,0,0,.43-.4,1.67,1.67,0,0,0,.24-.56A3.3,3.3,0,0,0,205.15,233.86Z"/><path class="cls-4" d="M211.54,236.35h-1.08v-.7h0a1.41,1.41,0,0,1-.6.61,1.65,1.65,0,0,1-.81.22,1.83,1.83,0,0,1-1.42-.48,2.17,2.17,0,0,1-.44-1.47v-3.16h1.1v3a1.35,1.35,0,0,0,.25.93.9.9,0,0,0,.7.27,1.43,1.43,0,0,0,.58-.11,1.07,1.07,0,0,0,.37-.28,1.08,1.08,0,0,0,.21-.43,2.35,2.35,0,0,0,.06-.54v-2.89h1.1Zm-3.57-5.8v-1h1.1v1Zm2.75-1v1h-1.1v-1Z"/><path class="cls-4" d="M212.15,231.37h1.2l1.3,3.72h0l1.26-3.72h1.15l-1.94,5.25-.26.64a2.65,2.65,0,0,1-.32.55,1.43,1.43,0,0,1-.47.37,1.63,1.63,0,0,1-.71.14,4.77,4.77,0,0,1-.76-.06v-.92l.26,0a1.09,1.09,0,0,0,.26,0,1,1,0,0,0,.32,0,.48.48,0,0,0,.2-.14.69.69,0,0,0,.14-.22,1.6,1.6,0,0,0,.11-.29l.12-.38Z"/><path class="cls-4" d="M222.06,236.35H221v-.7h0a1.41,1.41,0,0,1-.6.61,1.59,1.59,0,0,1-.81.22,1.83,1.83,0,0,1-1.42-.48,2.17,2.17,0,0,1-.44-1.47v-3.16h1.1v3a1.35,1.35,0,0,0,.25.93.91.91,0,0,0,.7.27,1.39,1.39,0,0,0,.58-.11,1.07,1.07,0,0,0,.37-.28,1.08,1.08,0,0,0,.21-.43,2.35,2.35,0,0,0,.06-.54v-2.89h1.1Zm-3.57-5.8v-1h1.1v1Zm2.75-1v1h-1.09v-1Z"/><path class="cls-4" d="M223.25,229.47h1.09v3.91l2-2h1.34l-1.9,1.83,2.09,3.15h-1.34L225,233.93l-.66.64v1.78h-1.09Z"/><path class="cls-4" d="M228.41,229.47h1.1v6.88h-1.1Z"/><path class="cls-4" d="M235.08,236.35H234v-.7h0a1.53,1.53,0,0,1-.6.61,1.66,1.66,0,0,1-.82.22,1.86,1.86,0,0,1-1.42-.48,2.17,2.17,0,0,1-.43-1.47v-3.16h1.09v3a1.4,1.4,0,0,0,.25.93.92.92,0,0,0,.71.27,1.35,1.35,0,0,0,.57-.11,1.11,1.11,0,0,0,.38-.28,1.23,1.23,0,0,0,.21-.43,2.35,2.35,0,0,0,.06-.54v-2.89h1.1Zm-3.58-5.8v-1h1.1v1Zm2.76-1v1h-1.1v-1Z"/><path class="cls-4" d="M236.26,229.47h1.1v3.91l2-2h1.35l-1.91,1.83,2.09,3.15h-1.34L238,233.93l-.65.64v1.78h-1.1Z"/><path class="cls-4" d="M241.43,229.47h1.1v6.88h-1.1Z"/><path class="cls-4" d="M244.58,234.14a1.73,1.73,0,0,0,.08.56,1.23,1.23,0,0,0,.24.47,1.14,1.14,0,0,0,.42.33,1.25,1.25,0,0,0,1.81-.71h1a2.11,2.11,0,0,1-.3.72,2,2,0,0,1-1.18.86,2.86,2.86,0,0,1-1.81-.08,2.14,2.14,0,0,1-.77-.54,2.19,2.19,0,0,1-.47-.83,3.23,3.23,0,0,1-.16-1.06,3,3,0,0,1,.17-1,2.49,2.49,0,0,1,.48-.84,2.24,2.24,0,0,1,1.76-.78,2.26,2.26,0,0,1,1.05.24,2.32,2.32,0,0,1,.77.65,2.52,2.52,0,0,1,.45.93,2.8,2.8,0,0,1,.07,1.08Zm2.56-.72a2.13,2.13,0,0,0-.11-.5,1.46,1.46,0,0,0-.25-.42,1.42,1.42,0,0,0-.39-.29,1.18,1.18,0,0,0-.5-.11,1.47,1.47,0,0,0-.53.1,1.15,1.15,0,0,0-.4.28,1.17,1.17,0,0,0-.27.42,1.31,1.31,0,0,0-.11.52Z"/><path class="cls-4" d="M249.07,231.37h1v1h0a1.17,1.17,0,0,1,.19-.39,1.41,1.41,0,0,1,.34-.35,1.7,1.7,0,0,1,.43-.26,1.41,1.41,0,0,1,.49-.09H252v1.06l-.24,0h-.23a1.2,1.2,0,0,0-.53.11,1.31,1.31,0,0,0-.43.32,2,2,0,0,0-.29.54,2.3,2.3,0,0,0-.1.73v2.37h-1.1Z"/><path class="cls-4" d="M257,236.35h-1v-.68h0a1.37,1.37,0,0,1-.65.63,2.25,2.25,0,0,1-.89.18,2.49,2.49,0,0,1-1-.2,2.16,2.16,0,0,1-.73-.57,2.57,2.57,0,0,1-.43-.84,3.49,3.49,0,0,1-.14-1,3.43,3.43,0,0,1,.18-1.17,2.29,2.29,0,0,1,.48-.81,2,2,0,0,1,.7-.46,2.17,2.17,0,0,1,.79-.15,2.49,2.49,0,0,1,.47,0,2.54,2.54,0,0,1,.47.14,1.67,1.67,0,0,1,.4.25,1.2,1.2,0,0,1,.32.35h0v-2.55H257Zm-3.83-2.44a2.28,2.28,0,0,0,.09.63,1.53,1.53,0,0,0,.25.55,1.18,1.18,0,0,0,.42.38,1.24,1.24,0,0,0,.62.15,1.25,1.25,0,0,0,1.06-.56,1.66,1.66,0,0,0,.25-.56,2.37,2.37,0,0,0,.09-.65,2,2,0,0,0-.38-1.29,1.23,1.23,0,0,0-1-.46,1.3,1.3,0,0,0-.65.16,1.33,1.33,0,0,0-.43.42,1.45,1.45,0,0,0-.24.57A3,3,0,0,0,253.14,233.91Z"/><path class="cls-4" d="M259,234.14a1.73,1.73,0,0,0,.09.56,1.23,1.23,0,0,0,.24.47,1.14,1.14,0,0,0,.42.33,1.25,1.25,0,0,0,1.81-.71h1a2.11,2.11,0,0,1-.3.72,2.18,2.18,0,0,1-.51.54,2.3,2.3,0,0,1-.67.32,2.54,2.54,0,0,1-.78.11,2.61,2.61,0,0,1-1-.19,2.17,2.17,0,0,1-1.23-1.37,3.23,3.23,0,0,1-.16-1.06,2.8,2.8,0,0,1,.17-1,2.49,2.49,0,0,1,.48-.84,2.24,2.24,0,0,1,1.75-.78,2.27,2.27,0,0,1,1.06.24,2.32,2.32,0,0,1,.77.65,2.52,2.52,0,0,1,.45.93,2.8,2.8,0,0,1,.07,1.08Zm2.56-.72a1.45,1.45,0,0,0-.11-.5,1.27,1.27,0,0,0-.25-.42,1.24,1.24,0,0,0-.38-.29,1.19,1.19,0,0,0-.51-.11,1.46,1.46,0,0,0-.52.1,1.2,1.2,0,0,0-.67.7,1.52,1.52,0,0,0-.12.52Z"/><path class="cls-4" d="M266.23,229.47h1.09v3.91l2-2h1.34l-1.9,1.83,2.09,3.15H269.5L268,233.93l-.66.64v1.78h-1.09Z"/><path class="cls-4" d="M275.74,236.35h-1.08v-.7h0a1.53,1.53,0,0,1-.6.61,1.66,1.66,0,0,1-.82.22,1.86,1.86,0,0,1-1.42-.48,2.17,2.17,0,0,1-.43-1.47v-3.16h1.09v3a1.4,1.4,0,0,0,.25.93.92.92,0,0,0,.71.27,1.35,1.35,0,0,0,.57-.11,1.11,1.11,0,0,0,.38-.28,1.44,1.44,0,0,0,.21-.43,2.35,2.35,0,0,0,.06-.54v-2.89h1.1Z"/><path class="cls-4" d="M276.92,229.47H278v6.88h-1.1Z"/><path class="cls-4" d="M279.24,229.47h1.1v6.88h-1.1Z"/><path class="cls-4" d="M285.7,235.24a.65.65,0,0,0,.05.29.23.23,0,0,0,.21.09h.11l.16,0v.76l-.15,0-.19,0a.63.63,0,0,1-.19,0h-.17a1,1,0,0,1-.55-.13.66.66,0,0,1-.29-.47,2,2,0,0,1-.81.46,3.32,3.32,0,0,1-.92.14,2.25,2.25,0,0,1-.64-.09,1.52,1.52,0,0,1-.54-.27,1.27,1.27,0,0,1-.38-.45,1.44,1.44,0,0,1-.14-.64,1.49,1.49,0,0,1,.17-.75,1.19,1.19,0,0,1,.44-.45,2,2,0,0,1,.62-.24c.23-.05.46-.08.69-.11a4,4,0,0,1,.56-.08l.48-.08a.75.75,0,0,0,.33-.18.49.49,0,0,0,.12-.36.63.63,0,0,0-.1-.35.72.72,0,0,0-.25-.21.9.9,0,0,0-.34-.09l-.34,0a1.36,1.36,0,0,0-.76.2.74.74,0,0,0-.34.59h-1.1a1.71,1.71,0,0,1,.23-.8,1.69,1.69,0,0,1,.52-.51,2,2,0,0,1,.71-.27,4.28,4.28,0,0,1,.81-.07,3.51,3.51,0,0,1,.72.07,2.14,2.14,0,0,1,.64.25,1.38,1.38,0,0,1,.45.45,1.2,1.2,0,0,1,.18.67Zm-1.1-1.39a1.3,1.3,0,0,1-.62.2c-.24,0-.48.06-.73.1l-.33.08a1.13,1.13,0,0,0-.29.15.59.59,0,0,0-.2.24.8.8,0,0,0-.07.36.46.46,0,0,0,.1.31.86.86,0,0,0,.26.2,1.59,1.59,0,0,0,.33.1l.32,0a1.89,1.89,0,0,0,.39-.05,1.18,1.18,0,0,0,.4-.17,1,1,0,0,0,.32-.29.76.76,0,0,0,.12-.44Z"/><path class="cls-4" d="M286.88,231.37h1v.73l0,0a2,2,0,0,1,.66-.65,1.69,1.69,0,0,1,.89-.23,1.86,1.86,0,0,1,1.29.42,1.6,1.6,0,0,1,.47,1.27v3.42h-1.09v-3.13a1.34,1.34,0,0,0-.26-.85.89.89,0,0,0-.72-.27,1.35,1.35,0,0,0-.5.1,1,1,0,0,0-.37.28,1.1,1.1,0,0,0-.24.42,1.44,1.44,0,0,0-.09.51v2.94h-1.1Z"/><path class="cls-4" d="M292.44,236.35v-5h1.09v5Z"/><path class="cls-4" d="M294.76,229.47h1.09v6.88h-1.09Z"/><path class="cls-4" d="M301.22,235.24a.54.54,0,0,0,0,.29q0,.09.21.09h.11l.15,0v.76l-.14,0-.19,0-.19,0h-.17a1.08,1.08,0,0,1-.56-.13.72.72,0,0,1-.29-.47,1.92,1.92,0,0,1-.8.46,3.37,3.37,0,0,1-.92.14,2.25,2.25,0,0,1-.64-.09,1.66,1.66,0,0,1-.55-.27,1.36,1.36,0,0,1-.37-.45,1.31,1.31,0,0,1-.14-.64,1.39,1.39,0,0,1,.17-.75,1.19,1.19,0,0,1,.44-.45,2,2,0,0,1,.61-.24c.23-.05.46-.08.69-.11a4.1,4.1,0,0,1,.57-.08l.48-.08a.71.71,0,0,0,.32-.18.45.45,0,0,0,.13-.36.56.56,0,0,0-.11-.35.64.64,0,0,0-.25-.21.9.9,0,0,0-.33-.09l-.34,0a1.34,1.34,0,0,0-.76.2.71.71,0,0,0-.34.59H297a1.71,1.71,0,0,1,.23-.8,1.69,1.69,0,0,1,.52-.51,2,2,0,0,1,.7-.27,4.43,4.43,0,0,1,.81-.07,3.38,3.38,0,0,1,.72.07,2,2,0,0,1,.64.25,1.41,1.41,0,0,1,.46.45,1.2,1.2,0,0,1,.18.67Zm-1.1-1.39a1.3,1.3,0,0,1-.62.2c-.24,0-.49.06-.73.1l-.34.08a1.32,1.32,0,0,0-.29.15.65.65,0,0,0-.19.24.8.8,0,0,0-.07.36.46.46,0,0,0,.1.31.86.86,0,0,0,.26.2,1.5,1.5,0,0,0,.32.1l.33,0a1.89,1.89,0,0,0,.39-.05,1.27,1.27,0,0,0,.4-.17.86.86,0,0,0,.31-.29.7.7,0,0,0,.13-.44Z"/><path class="cls-4" d="M302.4,231.37h1v.69h0a2.16,2.16,0,0,1,.27-.33,1.35,1.35,0,0,1,.32-.26,1.53,1.53,0,0,1,.41-.17,2.09,2.09,0,0,1,.53-.06,1.74,1.74,0,0,1,.84.2,1.09,1.09,0,0,1,.55.62,2.3,2.3,0,0,1,.65-.6,1.7,1.7,0,0,1,.91-.22,1.78,1.78,0,0,1,1.23.38,1.66,1.66,0,0,1,.44,1.29v3.44h-1.1v-2.91a4.52,4.52,0,0,0,0-.54,1.09,1.09,0,0,0-.11-.43.59.59,0,0,0-.27-.27,1,1,0,0,0-.5-.1.93.93,0,0,0-.81.35,1.63,1.63,0,0,0-.25,1v2.92h-1.1v-3.2a1.3,1.3,0,0,0-.19-.78.77.77,0,0,0-.69-.27.93.93,0,0,0-.4.09,1,1,0,0,0-.35.25,1.22,1.22,0,0,0-.24.4,1.59,1.59,0,0,0-.09.55v3h-1.1Z"/><path class="cls-4" d="M314.94,235.24a.52.52,0,0,0,.06.29.2.2,0,0,0,.2.09h.12l.15,0v.76l-.15,0-.19,0a.58.58,0,0,1-.19,0h-.16a1.06,1.06,0,0,1-.56-.13.69.69,0,0,1-.29-.47,2,2,0,0,1-.8.46,3.43,3.43,0,0,1-.92.14,2.32,2.32,0,0,1-.65-.09,1.71,1.71,0,0,1-.54-.27,1.38,1.38,0,0,1-.38-.45,1.44,1.44,0,0,1-.14-.64,1.49,1.49,0,0,1,.17-.75,1.21,1.21,0,0,1,.45-.45,1.94,1.94,0,0,1,.61-.24c.23-.05.46-.08.69-.11a4.1,4.1,0,0,1,.57-.08,4.13,4.13,0,0,0,.47-.08.75.75,0,0,0,.33-.18.49.49,0,0,0,.12-.36.56.56,0,0,0-.1-.35.72.72,0,0,0-.25-.21.9.9,0,0,0-.33-.09l-.35,0a1.36,1.36,0,0,0-.76.2.74.74,0,0,0-.34.59h-1.09a1.61,1.61,0,0,1,.23-.8,1.55,1.55,0,0,1,.51-.51,2.09,2.09,0,0,1,.71-.27,4.28,4.28,0,0,1,.81-.07,3.51,3.51,0,0,1,.72.07,2.14,2.14,0,0,1,.64.25,1.52,1.52,0,0,1,.46.45,1.28,1.28,0,0,1,.17.67Zm-1.1-1.39a1.26,1.26,0,0,1-.61.2c-.25,0-.49.06-.73.1l-.34.08a1.13,1.13,0,0,0-.29.15.68.68,0,0,0-.2.24,1,1,0,0,0-.07.36.47.47,0,0,0,.11.31.82.82,0,0,0,.25.2,1.59,1.59,0,0,0,.33.1l.32,0a2,2,0,0,0,.4-.05,1.27,1.27,0,0,0,.4-.17,1,1,0,0,0,.31-.29.76.76,0,0,0,.12-.44Z"/><path class="cls-4" d="M316,231.37H320v.77l-2.85,3.34h3v.87h-4.38v-.77l2.75-3.34H316Z"/><path class="cls-4" d="M321,235.05h1.33v1.3H321Z"/></g></g></svg>