<svg xmlns="http://www.w3.org/2000/svg" viewBox="0 0 671.55 277.33"><defs><style>.cls-1{fill:#e61c83;}.cls-2{fill:#fff;}.cls-3{fill:#333;}.cls-4{fill:#1d1d1b;}.cls-5{fill:#b2b2b2;}</style></defs><g id="Layer_2" data-name="Layer 2"><g id="Layer_1-2" data-name="Layer 1"><path class="cls-1" d="M659.14,0H170.56a12.41,12.41,0,0,0-12.41,12.42v95.14A12.4,12.4,0,0,0,170.56,120H659.14a12.41,12.41,0,0,0,12.41-12.41V12.42A12.41,12.41,0,0,0,659.14,0ZM667,107.57a7.81,7.81,0,0,1-7.81,7.8H445.54V4.62h213.6a7.81,7.81,0,0,1,7.81,7.8Z"/><path class="cls-2" d="M185.25,31h14.41l12.66,41.39L226,30.78h11.53l13.7,41.57L263.92,31H278L257.11,92.52h-11.7l-13.79-40-13.8,40h-11.7Z"/><path class="cls-2" d="M298.68,30.52h12.39l26.2,61.56H323.21l-5.59-13.71H291.78l-5.59,13.71H272.48Zm14.14,36L304.7,46.68,296.58,66.5Z"/><path class="cls-2" d="M331.77,31h14.41l12.66,41.39,13.71-41.57h11.52l13.71,41.57L410.44,31H424.5L403.63,92.52h-11.7l-13.8-40-13.79,40h-11.7Z"/><path class="cls-3" d="M470.4,31h25c14.59,0,23.41,8.56,23.41,21.13v.18c0,14.23-11,21.48-24.71,21.48H483.85V92.15H470.4Zm24.1,30.83c6.73,0,10.65-4,10.65-9.26v-.17c0-6-4.19-9.26-10.91-9.26H483.85V61.85Z"/><path class="cls-3" d="M526.37,31h27.94c7.78,0,13.71,2.1,17.82,6.2,3.49,3.5,5.24,8.12,5.24,14v.18c0,9.86-5.33,16.06-13.1,18.95L579.2,92.15H563.48l-13.1-19.56H539.82V92.15H526.37Zm27.07,29.69c6.64,0,10.3-3.41,10.3-8.64v-.18c0-5.85-3.93-8.73-10.56-8.73H539.82V60.71Z"/><path class="cls-3" d="M584.44,61.76v-.18C584.44,44.21,598.15,30,617,30S649.4,44,649.4,61.41v.17c0,17.38-13.71,31.61-32.57,31.61S584.44,79.13,584.44,61.76Zm50.9,0v-.18c0-10.47-7.68-19.21-18.51-19.21s-18.33,8.56-18.33,19v.17c0,10.48,7.68,19.21,18.51,19.21S635.34,72.24,635.34,61.76Z"/><path class="cls-4" d="M234.75,133.81h2l4.74,13.82,4.55-13.86h1.54l4.55,13.86,4.74-13.82h2L253,150.52h-1.58l-4.56-13.46-4.57,13.46h-1.56Z"/><path class="cls-4" d="M266.27,133.7H268l7.56,16.71h-2L271.63,146h-9l-2,4.39h-1.92Zm4.63,10.64-3.77-8.46-3.8,8.46Z"/><path class="cls-4" d="M277.44,148l1.16-1.38a7.8,7.8,0,0,0,5.69,2.35c2.25,0,3.7-1.18,3.7-2.82v0c0-1.54-.83-2.39-4.32-3.15-3.81-.83-5.57-2.06-5.57-4.79v-.05c0-2.58,2.3-4.52,5.45-4.52a8.65,8.65,0,0,1,5.83,2l-1.09,1.44a7.31,7.31,0,0,0-4.78-1.8c-2.18,0-3.54,1.16-3.54,2.68V138c0,1.56.83,2.46,4.51,3.22s5.4,2.16,5.4,4.69v0c0,2.84-2.37,4.69-5.66,4.69A9.56,9.56,0,0,1,277.44,148Z"/><path class="cls-4" d="M297.75,135.54h-5.59v-1.73h13.06v1.73h-5.6v14.87h-1.87Z"/><path class="cls-4" d="M308.63,133.81h12v1.71H310.5v5.67h9.06v1.7H310.5v5.81h10.24v1.71H308.63Z"/><path class="cls-4" d="M330.34,133.81h2l4.74,13.82,4.55-13.86h1.54l4.55,13.86,4.74-13.82h2l-5.93,16.71H347l-4.55-13.46-4.58,13.46h-1.56Z"/><path class="cls-4" d="M361.87,133.7h1.75l7.56,16.71h-2L367.22,146h-9l-2,4.39H354.3Zm4.62,10.64-3.77-8.46-3.79,8.46Z"/><path class="cls-4" d="M376.73,135.54h-5.6v-1.73h13.06v1.73H378.6v14.87h-1.87Z"/><path class="cls-4" d="M387.61,133.81h12v1.71H389.48v5.67h9v1.7h-9v5.81h10.24v1.71H387.61Z"/><path class="cls-4" d="M403.49,133.81h7.13a6.52,6.52,0,0,1,4.72,1.66,4.49,4.49,0,0,1,1.28,3.27v0c0,2.75-1.9,4.39-4.51,4.84l5.1,6.78h-2.3L410.1,144h-4.74v6.45h-1.87Zm7,8.47c2.46,0,4.26-1.28,4.26-3.42v0c0-2.07-1.56-3.28-4.24-3.28h-5.12v6.74Z"/><path class="cls-4" d="M427,142.16v0a8.37,8.37,0,0,1,8.39-8.58,8.49,8.49,0,0,1,6.47,2.63l-1.28,1.38a7.2,7.2,0,0,0-5.21-2.28,6.51,6.51,0,0,0-6.43,6.8v.05a6.53,6.53,0,0,0,6.43,6.85,7.21,7.21,0,0,0,5.35-2.39l1.24,1.21a8.66,8.66,0,0,1-6.64,2.91A8.27,8.27,0,0,1,427,142.16Z"/><path class="cls-4" d="M444.11,142.16v0a8.47,8.47,0,1,1,16.93-.05v.05a8.47,8.47,0,1,1-16.93,0Zm15,0v0a6.6,6.6,0,0,0-6.54-6.85,6.51,6.51,0,0,0-6.49,6.8v.05A6.6,6.6,0,0,0,452.6,149,6.51,6.51,0,0,0,459.09,142.16Z"/><path class="cls-4" d="M465,133.81h1.76l10.45,13.3v-13.3H479v16.6h-1.5L466.82,136.8v13.61H465Z"/><path class="cls-4" d="M488,135.54h-5.59v-1.73H495.5v1.73h-5.6v14.87H488Z"/><path class="cls-4" d="M498.91,133.81h7.14a6.5,6.5,0,0,1,4.71,1.66,4.49,4.49,0,0,1,1.28,3.27v0c0,2.75-1.89,4.39-4.5,4.84l5.1,6.78h-2.3L505.52,144h-4.74v6.45h-1.87Zm7,8.47c2.47,0,4.27-1.28,4.27-3.42v0c0-2.07-1.57-3.28-4.25-3.28h-5.12v6.74Z"/><path class="cls-4" d="M515.31,142.16v0a8.47,8.47,0,1,1,16.93-.05v.05a8.47,8.47,0,1,1-16.93,0Zm15,0v0a6.6,6.6,0,0,0-6.54-6.85,6.51,6.51,0,0,0-6.49,6.8v.05A6.6,6.6,0,0,0,523.8,149,6.51,6.51,0,0,0,530.29,142.16Z"/><path class="cls-4" d="M536.2,133.81h1.87v14.87h9.34v1.73H536.2Z"/><path class="cls-4" d="M550.77,133.81h1.87v14.87H562v1.73H550.77Z"/><path class="cls-4" d="M565.35,133.81h12v1.71H567.22v5.67h9v1.7h-9v5.81h10.24v1.71H565.35Z"/><path class="cls-4" d="M581.23,133.81h7.13a6.5,6.5,0,0,1,4.72,1.66,4.49,4.49,0,0,1,1.28,3.27v0c0,2.75-1.9,4.39-4.5,4.84l5.09,6.78h-2.3L587.84,144H583.1v6.45h-1.87Zm7,8.47c2.46,0,4.26-1.28,4.26-3.42v0c0-2.07-1.56-3.28-4.24-3.28H583.1v6.74Z"/><path class="cls-5" d="M8.38,251.32a4.64,4.64,0,0,1-3.13,1,4.59,4.59,0,0,1-3.15-1,3.82,3.82,0,0,1-1.11-3v-6.22h2.2v6.22a4.33,4.33,0,0,0,.07.8,1.64,1.64,0,0,0,.29.69,1.67,1.67,0,0,0,.63.49,2.6,2.6,0,0,0,1.07.19,2.06,2.06,0,0,0,1.62-.53,2.49,2.49,0,0,0,.45-1.64v-6.22h2.2v6.22A3.79,3.79,0,0,1,8.38,251.32Z"/><path class="cls-5" d="M13.87,254.23a2.79,2.79,0,0,1-1.59.38c-.21,0-.41,0-.61,0l-.61-.05V252.9l.57.06a3.88,3.88,0,0,0,.59,0,.77.77,0,0,0,.58-.3,1,1,0,0,0,.19-.59,1.33,1.33,0,0,0-.08-.45l-2.54-6.79h2.12l1.63,5h0l1.58-5h2.06l-3,8.13A2.48,2.48,0,0,1,13.87,254.23Z"/><path class="cls-5" d="M18.38,247.07a2.31,2.31,0,0,1,.35-1.17,2.51,2.51,0,0,1,.78-.74,3.7,3.7,0,0,1,1.07-.4,6.11,6.11,0,0,1,1.2-.12,8.41,8.41,0,0,1,1.11.08,3.36,3.36,0,0,1,1,.3,2,2,0,0,1,.76.63,1.74,1.74,0,0,1,.29,1v3.77a7.19,7.19,0,0,0,.06.94,1.68,1.68,0,0,0,.19.67h-2a3.57,3.57,0,0,1-.1-.35,2,2,0,0,1,0-.35,2.65,2.65,0,0,1-1.12.68,4.54,4.54,0,0,1-1.32.2,3.35,3.35,0,0,1-1-.13,2,2,0,0,1-.78-.39,2,2,0,0,1-.53-.67,2.37,2.37,0,0,1-.18-1,2.16,2.16,0,0,1,.21-1,1.84,1.84,0,0,1,.56-.64,2.48,2.48,0,0,1,.79-.36,8.76,8.76,0,0,1,.89-.18c.29,0,.59-.09.88-.12a5.2,5.2,0,0,0,.77-.12,1.38,1.38,0,0,0,.53-.25A.53.53,0,0,0,23,247a1.08,1.08,0,0,0-.1-.51.86.86,0,0,0-.28-.29,1.11,1.11,0,0,0-.41-.14,3.75,3.75,0,0,0-.5,0,1.48,1.48,0,0,0-.92.26,1.09,1.09,0,0,0-.39.84ZM23,248.54a.92.92,0,0,1-.31.17l-.41.11-.46.07a4.11,4.11,0,0,0-.47.07,2.18,2.18,0,0,0-.44.11,1.13,1.13,0,0,0-.38.19.94.94,0,0,0-.26.3,1,1,0,0,0-.1.46,1,1,0,0,0,.1.45.73.73,0,0,0,.27.28,1.13,1.13,0,0,0,.39.15,2.32,2.32,0,0,0,.46,0,1.76,1.76,0,0,0,.91-.19,1.35,1.35,0,0,0,.48-.47,1.72,1.72,0,0,0,.19-.55q0-.28,0-.45Z"/><path class="cls-5" d="M28.39,244.84v1.34h0a2.61,2.61,0,0,1,.37-.62,2.55,2.55,0,0,1,1.21-.8,2.19,2.19,0,0,1,.73-.12,1.82,1.82,0,0,1,.43.07v1.85l-.33-.05-.38,0a2.17,2.17,0,0,0-.93.18,1.77,1.77,0,0,0-.61.5,2.17,2.17,0,0,0-.33.74,4.32,4.32,0,0,0-.09.91v3.26h-2v-7.24Z"/><path class="cls-5" d="M34,244.84v7.24H32v-7.24Z"/><path class="cls-5" d="M.8,256.76H4.14a2.39,2.39,0,0,1,1.48.42,1.51,1.51,0,0,1,.56,1.28,1.53,1.53,0,0,1-.26.89,1.59,1.59,0,0,1-.72.57v0a1.51,1.51,0,0,1,1,.6,2,2,0,0,1,.33,1.17,1.94,1.94,0,0,1-.15.76,1.44,1.44,0,0,1-.45.6,2.26,2.26,0,0,1-.79.41,3.84,3.84,0,0,1-1.14.15H.8ZM2,259.63H4a1.1,1.1,0,0,0,.72-.24,1.08,1.08,0,0,0,0-1.44,1.19,1.19,0,0,0-.75-.21H2Zm0,3H4.13a1.18,1.18,0,0,0,.85-.29,1.17,1.17,0,0,0,0-1.59,1.22,1.22,0,0,0-.85-.27H2Z"/><path class="cls-5" d="M11.79,263.63H10.71v-.69h0a1.53,1.53,0,0,1-.61.6,1.59,1.59,0,0,1-.81.22,1.83,1.83,0,0,1-1.42-.48,2.17,2.17,0,0,1-.44-1.47v-3.16h1.1v3.05a1.35,1.35,0,0,0,.25.93.91.91,0,0,0,.7.27,1.39,1.39,0,0,0,.58-.11,1.08,1.08,0,0,0,.38-.28,1.14,1.14,0,0,0,.2-.43,2.35,2.35,0,0,0,.07-.54v-2.89h1.09Z"/><path class="cls-5" d="M15.65,256.76h1.1v6.87h-1.1Z"/><path class="cls-5" d="M20.22,263.76a2.74,2.74,0,0,1-1.06-.19,2.49,2.49,0,0,1-.79-.55,2.29,2.29,0,0,1-.49-.83,3.33,3.33,0,0,1,0-2.1,2.37,2.37,0,0,1,.49-.83,2.49,2.49,0,0,1,.79-.55,3.08,3.08,0,0,1,2.13,0,2.49,2.49,0,0,1,.79.55,2.37,2.37,0,0,1,.49.83,3.33,3.33,0,0,1,0,2.1,2.29,2.29,0,0,1-.49.83,2.49,2.49,0,0,1-.79.55A2.76,2.76,0,0,1,20.22,263.76Zm0-.86a1.19,1.19,0,0,0,.64-.16,1.21,1.21,0,0,0,.44-.4,1.91,1.91,0,0,0,.26-.56,2.8,2.8,0,0,0,.08-.64,2.74,2.74,0,0,0-.08-.64,1.7,1.7,0,0,0-.26-.56,1.21,1.21,0,0,0-.44-.4,1.34,1.34,0,0,0-1.27,0,1.21,1.21,0,0,0-.44.4,1.7,1.7,0,0,0-.26.56,2.74,2.74,0,0,0-.08.64,2.8,2.8,0,0,0,.08.64,1.91,1.91,0,0,0,.26.56,1.21,1.21,0,0,0,.44.4A1.18,1.18,0,0,0,20.22,262.9Z"/><path class="cls-5" d="M28.25,263.37a2.12,2.12,0,0,1-.63,1.68,2.65,2.65,0,0,1-1.81.55,3.91,3.91,0,0,1-.76-.07,2.59,2.59,0,0,1-.69-.26,1.77,1.77,0,0,1-.53-.49,1.51,1.51,0,0,1-.25-.73h1.1a1,1,0,0,0,.16.38.85.85,0,0,0,.28.22,1,1,0,0,0,.35.11,2.68,2.68,0,0,0,.41,0,1.32,1.32,0,0,0,1-.32,1.37,1.37,0,0,0,.3-.95v-.76h0a1.64,1.64,0,0,1-.63.65,1.7,1.7,0,0,1-.86.23,2.25,2.25,0,0,1-1-.21,2,2,0,0,1-.7-.57,2.27,2.27,0,0,1-.39-.83,3.63,3.63,0,0,1-.13-1,3,3,0,0,1,.15-.95,2.51,2.51,0,0,1,.45-.8,2.19,2.19,0,0,1,.7-.54,2.1,2.1,0,0,1,.95-.2,1.92,1.92,0,0,1,.87.19,1.36,1.36,0,0,1,.6.63h0v-.69h1.1Zm-2.43-.61a1.21,1.21,0,0,0,.62-.15,1.18,1.18,0,0,0,.41-.39,1.74,1.74,0,0,0,.23-.56,2.7,2.7,0,0,0,.07-.63,2.56,2.56,0,0,0-.07-.62,1.6,1.6,0,0,0-.24-.53,1.1,1.1,0,0,0-.41-.36,1.31,1.31,0,0,0-.61-.14,1.19,1.19,0,0,0-.62.16,1.1,1.1,0,0,0-.4.4,1.65,1.65,0,0,0-.23.56,3.18,3.18,0,0,0-.06.62,2.46,2.46,0,0,0,.07.6,1.77,1.77,0,0,0,.24.52,1.32,1.32,0,0,0,.4.38A1.27,1.27,0,0,0,25.82,262.76Z"/><path class="cls-5" d="M31.64,263.76a2.71,2.71,0,0,1-1.06-.19,2.38,2.38,0,0,1-.79-.55,2.15,2.15,0,0,1-.49-.83,3.33,3.33,0,0,1,0-2.1,2.23,2.23,0,0,1,.49-.83,2.38,2.38,0,0,1,.79-.55,3.05,3.05,0,0,1,2.12,0,2.28,2.28,0,0,1,.79.55,2.23,2.23,0,0,1,.49.83,3.33,3.33,0,0,1,0,2.1,2.15,2.15,0,0,1-.49.83,2.28,2.28,0,0,1-.79.55A2.71,2.71,0,0,1,31.64,263.76Zm0-.86a1.22,1.22,0,0,0,.64-.16,1.3,1.3,0,0,0,.44-.4,1.88,1.88,0,0,0,.25-.56,2.34,2.34,0,0,0,.08-.64,2.29,2.29,0,0,0-.08-.64,1.68,1.68,0,0,0-.25-.56,1.3,1.3,0,0,0-.44-.4,1.36,1.36,0,0,0-1.28,0,1.4,1.4,0,0,0-.44.4,1.68,1.68,0,0,0-.25.56,2.3,2.3,0,0,0-.09.64,2.35,2.35,0,0,0,.09.64,1.88,1.88,0,0,0,.25.56,1.4,1.4,0,0,0,.44.4A1.22,1.22,0,0,0,31.64,262.9Z"/><path class="cls-5" d="M37,256.59h1.05l-2.76,7.2h-1Z"/><path class="cls-5" d="M42.62,262.52a.52.52,0,0,0,.06.29.2.2,0,0,0,.2.09H43l.15,0v.76l-.15,0-.18.05-.2,0h-.16a1.08,1.08,0,0,1-.56-.13.69.69,0,0,1-.29-.47,2,2,0,0,1-.8.46,3,3,0,0,1-.92.14,2.37,2.37,0,0,1-.65-.09,1.71,1.71,0,0,1-.54-.27,1.24,1.24,0,0,1-.37-.45,1.31,1.31,0,0,1-.14-.64,1.49,1.49,0,0,1,.16-.75,1.29,1.29,0,0,1,.45-.45,2,2,0,0,1,.61-.24c.23-.05.46-.08.69-.11a4.1,4.1,0,0,1,.57-.08l.48-.08a.77.77,0,0,0,.32-.18.49.49,0,0,0,.12-.36.56.56,0,0,0-.1-.35.64.64,0,0,0-.25-.21,1.15,1.15,0,0,0-.33-.09l-.35,0a1.39,1.39,0,0,0-.76.2.7.7,0,0,0-.33.59h-1.1a1.64,1.64,0,0,1,.23-.8,1.58,1.58,0,0,1,.52-.51,2.17,2.17,0,0,1,.7-.27,4.43,4.43,0,0,1,.81-.07,3.38,3.38,0,0,1,.72.07,2.44,2.44,0,0,1,.64.25,1.52,1.52,0,0,1,.46.45,1.22,1.22,0,0,1,.17.67Zm-1.09-1.38a1.46,1.46,0,0,1-.62.19l-.73.1a1.89,1.89,0,0,0-.34.09,1,1,0,0,0-.29.14.57.57,0,0,0-.19.24.8.8,0,0,0-.08.36.47.47,0,0,0,.11.31.82.82,0,0,0,.25.2,1.15,1.15,0,0,0,.33.1l.32,0a1.9,1.9,0,0,0,.4,0,1.52,1.52,0,0,0,.4-.16,1.11,1.11,0,0,0,.31-.3.76.76,0,0,0,.13-.44Z"/><path class="cls-5" d="M43.81,258.65h1v.7h0a1.84,1.84,0,0,1,.27-.34,1.35,1.35,0,0,1,.32-.26,1.53,1.53,0,0,1,.41-.17,2.09,2.09,0,0,1,.53-.06,1.74,1.74,0,0,1,.84.2,1.11,1.11,0,0,1,.55.63,2.21,2.21,0,0,1,.65-.61,1.7,1.7,0,0,1,.91-.22,1.83,1.83,0,0,1,1.23.38,1.66,1.66,0,0,1,.44,1.29v3.44h-1.1v-2.91c0-.2,0-.38,0-.54a1.09,1.09,0,0,0-.11-.43.64.64,0,0,0-.27-.27,1.17,1.17,0,0,0-.5-.1.92.92,0,0,0-.81.35,1.63,1.63,0,0,0-.25,1v2.92h-1.1v-3.2a1.3,1.3,0,0,0-.19-.78.77.77,0,0,0-.69-.27,1,1,0,0,0-.41.09,1,1,0,0,0-.34.25,1.22,1.22,0,0,0-.24.4,1.58,1.58,0,0,0-.1.55v3H43.81Z"/><path class="cls-5" d="M52.21,256.76h1.1v2.54h0a1.44,1.44,0,0,1,.28-.33,1.78,1.78,0,0,1,.36-.25,2.86,2.86,0,0,1,.41-.15,1.63,1.63,0,0,1,.43-.05,2.47,2.47,0,0,1,1,.2,2,2,0,0,1,.73.57,2.59,2.59,0,0,1,.44.84,3.88,3.88,0,0,1,.14,1,3.56,3.56,0,0,1-.13,1,2.76,2.76,0,0,1-.39.83,2.2,2.2,0,0,1-.67.58,2.06,2.06,0,0,1-1,.21l-.5,0a2.09,2.09,0,0,1-.49-.13,1.79,1.79,0,0,1-.42-.25,1.2,1.2,0,0,1-.31-.41h0v.69h-1ZM56,261.15a2.84,2.84,0,0,0-.08-.66,1.92,1.92,0,0,0-.26-.56,1.3,1.3,0,0,0-.44-.4,1.15,1.15,0,0,0-.59-.15,1.22,1.22,0,0,0-1.05.48,2.19,2.19,0,0,0-.35,1.29,2.5,2.5,0,0,0,.09.69,1.48,1.48,0,0,0,.28.56,1.36,1.36,0,0,0,.43.36,1.27,1.27,0,0,0,.6.14,1.14,1.14,0,0,0,.63-.16,1.27,1.27,0,0,0,.43-.4,1.67,1.67,0,0,0,.24-.56A2.65,2.65,0,0,0,56,261.15Z"/><path class="cls-5" d="M58.09,256.76h1.1v6.87h-1.1Z"/><path class="cls-5" d="M61.24,261.42a2,2,0,0,0,.08.56,1.41,1.41,0,0,0,.25.47,1.11,1.11,0,0,0,.41.33,1.4,1.4,0,0,0,.6.12,1.28,1.28,0,0,0,.77-.21,1.16,1.16,0,0,0,.44-.62h1a2.11,2.11,0,0,1-.3.72,2,2,0,0,1-1.18.86,2.43,2.43,0,0,1-.77.11,2.61,2.61,0,0,1-1-.19,2.15,2.15,0,0,1-1.24-1.37,3.5,3.5,0,0,1-.16-1.05,3.06,3.06,0,0,1,.17-1,2.49,2.49,0,0,1,.48-.84,2.27,2.27,0,0,1,.76-.57,2.29,2.29,0,0,1,1-.21,2.26,2.26,0,0,1,1.05.24,2.47,2.47,0,0,1,.78.65,2.87,2.87,0,0,1,.45.93,3,3,0,0,1,.07,1.08Zm2.56-.72a1.72,1.72,0,0,0-.11-.5,1.46,1.46,0,0,0-.25-.42,1.28,1.28,0,0,0-.39-.29,1.15,1.15,0,0,0-.5-.11,1.51,1.51,0,0,0-.53.1,1.44,1.44,0,0,0-.4.28,1.43,1.43,0,0,0-.38.94Z"/><path class="cls-5" d="M65.74,258.65h1v.7h0a3.37,3.37,0,0,1,.27-.34,1.64,1.64,0,0,1,.33-.26,1.46,1.46,0,0,1,.4-.17,2.15,2.15,0,0,1,.53-.06,1.75,1.75,0,0,1,.85.2,1.11,1.11,0,0,1,.55.63,2.21,2.21,0,0,1,.65-.61,1.68,1.68,0,0,1,.91-.22,1.85,1.85,0,0,1,1.23.38,1.66,1.66,0,0,1,.44,1.29v3.44h-1.1v-2.91c0-.2,0-.38,0-.54a1.09,1.09,0,0,0-.11-.43.61.61,0,0,0-.28-.27,1.13,1.13,0,0,0-.5-.1.94.94,0,0,0-.81.35,1.71,1.71,0,0,0-.25,1v2.92H68.8v-3.2a1.38,1.38,0,0,0-.19-.78.8.8,0,0,0-.69-.27,1,1,0,0,0-.41.09,1.07,1.07,0,0,0-.35.25,1.22,1.22,0,0,0-.24.4,1.59,1.59,0,0,0-.09.55v3H65.74Z"/><path class="cls-5" d="M77.73,261.34a1.54,1.54,0,0,0,.13.67,1.22,1.22,0,0,0,.38.46,1.64,1.64,0,0,0,.55.26,3,3,0,0,0,.68.08,2.29,2.29,0,0,0,.68-.09,1.37,1.37,0,0,0,.45-.24.81.81,0,0,0,.25-.33,1,1,0,0,0,.08-.38.81.81,0,0,0-.18-.58,1.1,1.1,0,0,0-.39-.27c-.25-.09-.53-.17-.85-.25l-1.2-.31a2.54,2.54,0,0,1-.74-.31,1.74,1.74,0,0,1-.47-.42,1.49,1.49,0,0,1-.24-.49,2,2,0,0,1,.14-1.43,2.05,2.05,0,0,1,.58-.63,2.56,2.56,0,0,1,.8-.37,3.65,3.65,0,0,1,1.93,0,2.37,2.37,0,0,1,.84.42,2.11,2.11,0,0,1,.57.69,1.93,1.93,0,0,1,.22,1H80.73a1.14,1.14,0,0,0-.45-.94,1.81,1.81,0,0,0-1-.28,2.1,2.1,0,0,0-.43.05,1.42,1.42,0,0,0-.41.14.89.89,0,0,0-.3.28.73.73,0,0,0-.12.43.74.74,0,0,0,.22.57,1.48,1.48,0,0,0,.6.31l.3.09.59.16.64.16.45.12a2,2,0,0,1,.59.29,2.09,2.09,0,0,1,.42.42,1.81,1.81,0,0,1,.33,1.05,1.9,1.9,0,0,1-.24,1,1.82,1.82,0,0,1-.62.67,2.74,2.74,0,0,1-.87.38,4.35,4.35,0,0,1-2.11,0,2.67,2.67,0,0,1-.91-.45,2.1,2.1,0,0,1-.61-.76,2.38,2.38,0,0,1-.24-1.1Z"/><path class="cls-5" d="M85.3,263.76a2.74,2.74,0,0,1-1.06-.19,2.49,2.49,0,0,1-.79-.55,2.29,2.29,0,0,1-.49-.83,3.33,3.33,0,0,1,0-2.1,2.37,2.37,0,0,1,.49-.83,2.49,2.49,0,0,1,.79-.55,3.08,3.08,0,0,1,2.13,0,2.49,2.49,0,0,1,.79.55,2.37,2.37,0,0,1,.49.83,3.33,3.33,0,0,1,0,2.1,2.29,2.29,0,0,1-.49.83,2.49,2.49,0,0,1-.79.55A2.76,2.76,0,0,1,85.3,263.76Zm0-.86a1.19,1.19,0,0,0,.64-.16,1.21,1.21,0,0,0,.44-.4,1.91,1.91,0,0,0,.26-.56,2.8,2.8,0,0,0,.08-.64,2.74,2.74,0,0,0-.08-.64,1.7,1.7,0,0,0-.26-.56,1.21,1.21,0,0,0-.44-.4,1.34,1.34,0,0,0-1.27,0,1.21,1.21,0,0,0-.44.4,1.7,1.7,0,0,0-.26.56,2.74,2.74,0,0,0-.08.64,2.8,2.8,0,0,0,.08.64,1.91,1.91,0,0,0,.26.56,1.21,1.21,0,0,0,.44.4A1.18,1.18,0,0,0,85.3,262.9Z"/><path class="cls-5" d="M88.76,256.76h1.1v6.87h-1.1Z"/><path class="cls-5" d="M91.08,256.76h1.1v1h-1.1Zm0,1.89h1.1v5h-1.1Z"/><path class="cls-5" d="M98.06,263.63H97V263h0a1.35,1.35,0,0,1-.64.63,2.3,2.3,0,0,1-.9.18,2.47,2.47,0,0,1-1-.2,2,2,0,0,1-.73-.57,2.23,2.23,0,0,1-.43-.84,3.49,3.49,0,0,1-.15-1,3.43,3.43,0,0,1,.18-1.17,2.57,2.57,0,0,1,.49-.81,1.86,1.86,0,0,1,.69-.46,2.22,2.22,0,0,1,.8-.15,2.56,2.56,0,0,1,.47,0,2.44,2.44,0,0,1,.46.14,1.73,1.73,0,0,1,.41.25,1.17,1.17,0,0,1,.31.35h0v-2.54h1.1Zm-3.83-2.44a2.72,2.72,0,0,0,.08.63,1.72,1.72,0,0,0,.25.55,1.26,1.26,0,0,0,1,.53,1.18,1.18,0,0,0,.63-.16,1.27,1.27,0,0,0,.43-.4,2.18,2.18,0,0,0,.25-.56,2.8,2.8,0,0,0,.08-.64,2,2,0,0,0-.37-1.29,1.23,1.23,0,0,0-1-.47,1.33,1.33,0,0,0-.65.16,1.44,1.44,0,0,0-.43.42,1.81,1.81,0,0,0-.24.57A3,3,0,0,0,94.23,261.19Z"/><path class="cls-5" d="M102.08,256.76h5v1h-3.74v1.8h3.46v1h-3.46v2h3.81v1h-5Z"/><path class="cls-5" d="M108,256.76h1.1v6.87H108Z"/><path class="cls-5" d="M111.17,261.42a2,2,0,0,0,.08.56,1.41,1.41,0,0,0,.25.47,1.11,1.11,0,0,0,.41.33,1.4,1.4,0,0,0,.6.12,1.28,1.28,0,0,0,.77-.21,1.21,1.21,0,0,0,.44-.62h1a2.11,2.11,0,0,1-.3.72,2,2,0,0,1-1.18.86,2.43,2.43,0,0,1-.77.11,2.61,2.61,0,0,1-1-.19,2.15,2.15,0,0,1-1.24-1.37,3.21,3.21,0,0,1-.16-1.05,3.06,3.06,0,0,1,.17-1,2.49,2.49,0,0,1,.48-.84,2.27,2.27,0,0,1,.76-.57,2.29,2.29,0,0,1,1-.21,2.26,2.26,0,0,1,1,.24,2.47,2.47,0,0,1,.78.65,2.87,2.87,0,0,1,.45.93,3,3,0,0,1,.07,1.08Zm2.56-.72a1.72,1.72,0,0,0-.11-.5,1.46,1.46,0,0,0-.25-.42,1.42,1.42,0,0,0-.39-.29,1.15,1.15,0,0,0-.5-.11,1.51,1.51,0,0,0-.53.1,1.44,1.44,0,0,0-.4.28,1.43,1.43,0,0,0-.38.94Z"/><path class="cls-5" d="M119,260.32a1,1,0,0,0-.38-.7,1.17,1.17,0,0,0-.76-.24,1.53,1.53,0,0,0-.45.08,1,1,0,0,0-.45.27,1.55,1.55,0,0,0-.33.54,2.62,2.62,0,0,0-.14.92,3.27,3.27,0,0,0,.07.62,1.7,1.7,0,0,0,.24.55,1.24,1.24,0,0,0,.4.39,1.17,1.17,0,0,0,.61.15,1.08,1.08,0,0,0,.79-.3,1.45,1.45,0,0,0,.4-.84h1.09a2.46,2.46,0,0,1-.73,1.49,2.28,2.28,0,0,1-1.55.51,2.53,2.53,0,0,1-1-.19,2.49,2.49,0,0,1-.76-.54,2.45,2.45,0,0,1-.47-.82,3.3,3.3,0,0,1-.16-1,3.6,3.6,0,0,1,.16-1.05,2.49,2.49,0,0,1,.46-.85,2.21,2.21,0,0,1,.77-.57,2.69,2.69,0,0,1,1.07-.2,2.75,2.75,0,0,1,.82.11,2.15,2.15,0,0,1,.7.33,1.81,1.81,0,0,1,.72,1.36Z"/><path class="cls-5" d="M120.52,258.65h.82v-1.49h1.1v1.49h1v.82h-1v2.66a2.66,2.66,0,0,0,0,.3.65.65,0,0,0,.06.21.42.42,0,0,0,.16.13.78.78,0,0,0,.29,0h.23l.23,0v.85l-.35,0-.36,0a2.64,2.64,0,0,1-.7-.08,1,1,0,0,1-.41-.25.76.76,0,0,1-.2-.4,2.83,2.83,0,0,1-.07-.54v-2.94h-.82Z"/><path class="cls-5" d="M124.22,258.65h1v1h0a1.17,1.17,0,0,1,.19-.39,1.61,1.61,0,0,1,.34-.35,1.7,1.7,0,0,1,.43-.26,1.43,1.43,0,0,1,.5-.09H127l.15,0v1.06l-.24,0h-.23a1.2,1.2,0,0,0-.53.11,1.31,1.31,0,0,0-.43.32,1.72,1.72,0,0,0-.28.54,2.29,2.29,0,0,0-.11.73v2.37h-1.1Z"/><path class="cls-5" d="M129.72,263.76a2.71,2.71,0,0,1-1.06-.19,2.28,2.28,0,0,1-.79-.55,2.15,2.15,0,0,1-.49-.83,3.33,3.33,0,0,1,0-2.1,2.23,2.23,0,0,1,.49-.83,2.28,2.28,0,0,1,.79-.55,3.05,3.05,0,0,1,2.12,0,2.38,2.38,0,0,1,.79.55,2.23,2.23,0,0,1,.49.83,3.33,3.33,0,0,1,0,2.1,2.15,2.15,0,0,1-.49.83,2.38,2.38,0,0,1-.79.55A2.71,2.71,0,0,1,129.72,263.76Zm0-.86a1.18,1.18,0,0,0,.63-.16,1.33,1.33,0,0,0,.45-.4,1.88,1.88,0,0,0,.25-.56,2.34,2.34,0,0,0,.08-.64,2.29,2.29,0,0,0-.08-.64,1.68,1.68,0,0,0-.25-.56,1.33,1.33,0,0,0-.45-.4,1.34,1.34,0,0,0-1.27,0,1.3,1.3,0,0,0-.44.4,1.68,1.68,0,0,0-.25.56,2.3,2.3,0,0,0-.09.64,2.35,2.35,0,0,0,.09.64,1.88,1.88,0,0,0,.25.56,1.3,1.3,0,0,0,.44.4A1.19,1.19,0,0,0,129.72,262.9Z"/><path class="cls-5" d="M133.15,258.65h1v.73l0,0a1.84,1.84,0,0,1,.65-.65,1.82,1.82,0,0,1,.89-.23,1.86,1.86,0,0,1,1.29.42,1.61,1.61,0,0,1,.48,1.27v3.42h-1.1V260.5a1.34,1.34,0,0,0-.25-.85.91.91,0,0,0-.72-.27,1.27,1.27,0,0,0-.5.1,1.21,1.21,0,0,0-.38.28,1.46,1.46,0,0,0-.33.93v2.94h-1.09Z"/><path class="cls-5" d="M141.5,256.76h1.21v3.12l3.06-3.12h1.48l-2.75,2.74,2.94,4.13h-1.5l-2.25-3.28-1,1v2.31H141.5Z"/><path class="cls-5" d="M150.22,263.76a2.71,2.71,0,0,1-1.06-.19,2.38,2.38,0,0,1-.79-.55,2.15,2.15,0,0,1-.49-.83,3.33,3.33,0,0,1,0-2.1,2.23,2.23,0,0,1,.49-.83,2.38,2.38,0,0,1,.79-.55,2.71,2.71,0,0,1,1.06-.19,2.8,2.8,0,0,1,1.07.19,2.49,2.49,0,0,1,.79.55,2.53,2.53,0,0,1,.49.83,3.53,3.53,0,0,1,0,2.1,2.43,2.43,0,0,1-.49.83,2.49,2.49,0,0,1-.79.55A2.8,2.8,0,0,1,150.22,263.76Zm0-.86a1.19,1.19,0,0,0,.64-.16,1.21,1.21,0,0,0,.44-.4,1.91,1.91,0,0,0,.26-.56,2.8,2.8,0,0,0,.08-.64,2.74,2.74,0,0,0-.08-.64,1.7,1.7,0,0,0-.26-.56,1.21,1.21,0,0,0-.44-.4,1.34,1.34,0,0,0-1.27,0,1.33,1.33,0,0,0-.45.4,1.68,1.68,0,0,0-.25.56,2.29,2.29,0,0,0-.08.64,2.34,2.34,0,0,0,.08.64,1.88,1.88,0,0,0,.25.56,1.33,1.33,0,0,0,.45.4A1.18,1.18,0,0,0,150.22,262.9Z"/><path class="cls-5" d="M153.65,258.65h1v.73l0,0a1.92,1.92,0,0,1,.65-.65,1.83,1.83,0,0,1,.9-.23,1.89,1.89,0,0,1,1.29.42,1.64,1.64,0,0,1,.47,1.27v3.42h-1.1V260.5a1.28,1.28,0,0,0-.25-.85.89.89,0,0,0-.72-.27,1.31,1.31,0,0,0-.5.1,1.34,1.34,0,0,0-.38.28,1.44,1.44,0,0,0-.24.42,1.7,1.7,0,0,0-.08.51v2.94h-1.1Z"/><path class="cls-5" d="M158.67,258.65h.83v-1.49h1.1v1.49h1v.82h-1v2.66a2.81,2.81,0,0,0,0,.3.65.65,0,0,0,.07.21.42.42,0,0,0,.16.13.78.78,0,0,0,.29,0h.23l.23,0v.85l-.36,0-.35,0a2.64,2.64,0,0,1-.7-.08.92.92,0,0,1-.41-.25.85.85,0,0,1-.21-.4,4,4,0,0,1-.06-.54v-2.94h-.83Z"/><path class="cls-5" d="M162.38,258.65h1v1h0a1,1,0,0,1,.19-.39,1.56,1.56,0,0,1,.33-.35,1.76,1.76,0,0,1,.44-.26,1.41,1.41,0,0,1,.49-.09h.27l.15,0v1.06l-.24,0h-.24a1.16,1.16,0,0,0-.52.11,1.21,1.21,0,0,0-.43.32,1.74,1.74,0,0,0-.29.54,2.3,2.3,0,0,0-.1.73v2.37h-1.1Z"/><path class="cls-5" d="M167.88,263.76a2.76,2.76,0,0,1-1.07-.19A2.49,2.49,0,0,1,166,263a2.29,2.29,0,0,1-.49-.83,3.33,3.33,0,0,1,0-2.1,2.37,2.37,0,0,1,.49-.83,2.49,2.49,0,0,1,.79-.55,3.08,3.08,0,0,1,2.13,0,2.49,2.49,0,0,1,.79.55,2.37,2.37,0,0,1,.49.83,3.33,3.33,0,0,1,0,2.1,2.29,2.29,0,0,1-.49.83,2.49,2.49,0,0,1-.79.55A2.74,2.74,0,0,1,167.88,263.76Zm0-.86a1.18,1.18,0,0,0,.63-.16,1.21,1.21,0,0,0,.44-.4,1.91,1.91,0,0,0,.26-.56,2.8,2.8,0,0,0,.08-.64,2.74,2.74,0,0,0-.08-.64,1.7,1.7,0,0,0-.26-.56,1.21,1.21,0,0,0-.44-.4,1.34,1.34,0,0,0-1.27,0,1.21,1.21,0,0,0-.44.4,1.7,1.7,0,0,0-.26.56,2.74,2.74,0,0,0-.08.64,2.8,2.8,0,0,0,.08.64,1.91,1.91,0,0,0,.26.56,1.21,1.21,0,0,0,.44.4A1.19,1.19,0,0,0,167.88,262.9Z"/><path class="cls-5" d="M171.33,256.76h1.1v6.87h-1.1Z"/><path class="cls-5" d="M175.8,256.76h5.56v1h-2.18v5.83H178V257.8H175.8Z"/><path class="cls-5" d="M181.79,261.42a1.73,1.73,0,0,0,.09.56,1.23,1.23,0,0,0,.24.47,1.14,1.14,0,0,0,.42.33,1.54,1.54,0,0,0,1.37-.09,1.27,1.27,0,0,0,.44-.62h1a2.11,2.11,0,0,1-.3.72,2.18,2.18,0,0,1-.51.54,2.3,2.3,0,0,1-.67.32,2.54,2.54,0,0,1-.78.11,2.61,2.61,0,0,1-1-.19,2.19,2.19,0,0,1-.76-.54,2.12,2.12,0,0,1-.47-.83,3.21,3.21,0,0,1-.16-1.05,2.82,2.82,0,0,1,.17-1,2.49,2.49,0,0,1,.48-.84,2.24,2.24,0,0,1,1.75-.78,2.27,2.27,0,0,1,1.06.24,2.32,2.32,0,0,1,.77.65,2.52,2.52,0,0,1,.45.93,2.8,2.8,0,0,1,.07,1.08Zm2.57-.72a2.13,2.13,0,0,0-.11-.5,1.49,1.49,0,0,0-.26-.42,1.24,1.24,0,0,0-.38-.29,1.19,1.19,0,0,0-.51-.11,1.46,1.46,0,0,0-.52.1,1.3,1.3,0,0,0-.4.28,1.17,1.17,0,0,0-.27.42,1.52,1.52,0,0,0-.12.52Z"/><path class="cls-5" d="M186.32,256.76h1.1v3.9l2-2h1.35l-1.91,1.83,2.09,3.15h-1.34l-1.52-2.42-.65.64v1.78h-1.1Z"/><path class="cls-5" d="M191.46,258.65h1v.73l0,0a1.92,1.92,0,0,1,.65-.65,1.83,1.83,0,0,1,.9-.23,1.89,1.89,0,0,1,1.29.42,1.64,1.64,0,0,1,.47,1.27v3.42h-1.1V260.5a1.28,1.28,0,0,0-.25-.85.89.89,0,0,0-.72-.27,1.31,1.31,0,0,0-.5.1,1.34,1.34,0,0,0-.38.28,1.44,1.44,0,0,0-.24.42,1.7,1.7,0,0,0-.08.51v2.94h-1.1Z"/><path class="cls-5" d="M199.27,263.76a2.76,2.76,0,0,1-1.07-.19,2.49,2.49,0,0,1-.79-.55,2.43,2.43,0,0,1-.49-.83,3.33,3.33,0,0,1,0-2.1,2.53,2.53,0,0,1,.49-.83,2.49,2.49,0,0,1,.79-.55,3.08,3.08,0,0,1,2.13,0,2.49,2.49,0,0,1,.79.55,2.37,2.37,0,0,1,.49.83,3.33,3.33,0,0,1,0,2.1,2.29,2.29,0,0,1-.49.83,2.49,2.49,0,0,1-.79.55A2.74,2.74,0,0,1,199.27,263.76Zm0-.86a1.18,1.18,0,0,0,.63-.16,1.21,1.21,0,0,0,.44-.4,1.91,1.91,0,0,0,.26-.56,2.8,2.8,0,0,0,.08-.64,2.74,2.74,0,0,0-.08-.64,1.7,1.7,0,0,0-.26-.56,1.21,1.21,0,0,0-.44-.4,1.34,1.34,0,0,0-1.27,0,1.21,1.21,0,0,0-.44.4,1.7,1.7,0,0,0-.26.56,2.74,2.74,0,0,0-.08.64,2.8,2.8,0,0,0,.08.64,1.91,1.91,0,0,0,.26.56,1.21,1.21,0,0,0,.44.4A1.19,1.19,0,0,0,199.27,262.9Z"/><path class="cls-5" d="M202.72,256.76h1.1v6.87h-1.1Z"/><path class="cls-5" d="M207.29,263.76a2.74,2.74,0,0,1-1.06-.19,2.49,2.49,0,0,1-.79-.55,2.29,2.29,0,0,1-.49-.83,3.33,3.33,0,0,1,0-2.1,2.37,2.37,0,0,1,.49-.83,2.49,2.49,0,0,1,.79-.55,3.08,3.08,0,0,1,2.13,0,2.49,2.49,0,0,1,.79.55,2.37,2.37,0,0,1,.49.83,3.33,3.33,0,0,1,0,2.1,2.29,2.29,0,0,1-.49.83,2.49,2.49,0,0,1-.79.55A2.76,2.76,0,0,1,207.29,263.76Zm0-.86a1.19,1.19,0,0,0,.64-.16,1.21,1.21,0,0,0,.44-.4,1.91,1.91,0,0,0,.26-.56,2.8,2.8,0,0,0,.08-.64,2.74,2.74,0,0,0-.08-.64,1.7,1.7,0,0,0-.26-.56,1.21,1.21,0,0,0-.44-.4,1.34,1.34,0,0,0-1.27,0,1.21,1.21,0,0,0-.44.4,1.7,1.7,0,0,0-.26.56,2.74,2.74,0,0,0-.08.64,2.8,2.8,0,0,0,.08.64,1.91,1.91,0,0,0,.26.56,1.21,1.21,0,0,0,.44.4A1.18,1.18,0,0,0,207.29,262.9Z"/><path class="cls-5" d="M210.75,258.65h1.1v5.4a1.77,1.77,0,0,1-.33,1.15,1.33,1.33,0,0,1-1.1.4h-.27a.78.78,0,0,1-.22,0v-.86l.2,0h.18a.36.36,0,0,0,.37-.19,1.52,1.52,0,0,0,.07-.55Zm0-1.89h1.1v1h-1.1Z"/><path class="cls-5" d="M213.07,256.76h1.1v1h-1.1Zm0,1.89h1.1v5h-1.1Z"/><path class="cls-5" d="M215.39,256.76h1.1v6.87h-1.1Z"/><path class="cls-5" d="M218.54,261.42a1.73,1.73,0,0,0,.08.56,1.25,1.25,0,0,0,.25.47,1,1,0,0,0,.41.33,1.37,1.37,0,0,0,.6.12,1.28,1.28,0,0,0,.77-.21,1.21,1.21,0,0,0,.44-.62h1a2.11,2.11,0,0,1-.3.72,2,2,0,0,1-1.18.86,2.52,2.52,0,0,1-.77.11,2.57,2.57,0,0,1-1-.19,2.14,2.14,0,0,1-.77-.54,2.25,2.25,0,0,1-.47-.83,3.21,3.21,0,0,1-.16-1.05,3.06,3.06,0,0,1,.17-1,2.49,2.49,0,0,1,.48-.84,2.39,2.39,0,0,1,2.81-.54,2.47,2.47,0,0,1,.78.65,2.66,2.66,0,0,1,.44.93,2.8,2.8,0,0,1,.08,1.08Zm2.56-.72a2.13,2.13,0,0,0-.11-.5,1.46,1.46,0,0,0-.25-.42,1.42,1.42,0,0,0-.39-.29,1.18,1.18,0,0,0-.5-.11,1.47,1.47,0,0,0-.53.1,1.3,1.3,0,0,0-.4.28,1.17,1.17,0,0,0-.27.42,1.31,1.31,0,0,0-.11.52Z"/><path class="cls-5" d="M223,258.65h1v1h0a1.17,1.17,0,0,1,.19-.39,1.41,1.41,0,0,1,.34-.35,1.7,1.7,0,0,1,.43-.26,1.47,1.47,0,0,1,.5-.09h.26l.15,0v1.06l-.24,0h-.23a1.2,1.2,0,0,0-.53.11,1.18,1.18,0,0,0-.42.32,1.56,1.56,0,0,0-.29.54,2.29,2.29,0,0,0-.11.73v2.37H223Z"/><path class="cls-5" d="M226.45,256.76h1.1v1h-1.1Zm0,1.89h1.1v5h-1.1Z"/><path class="cls-5" d="M232.36,261.34a1.54,1.54,0,0,0,.14.67,1.11,1.11,0,0,0,.37.46,1.64,1.64,0,0,0,.55.26,3,3,0,0,0,.68.08,2.24,2.24,0,0,0,.68-.09,1.37,1.37,0,0,0,.45-.24.81.81,0,0,0,.25-.33,1,1,0,0,0,.08-.38.81.81,0,0,0-.18-.58,1.1,1.1,0,0,0-.39-.27c-.25-.09-.53-.17-.85-.25l-1.2-.31a2.54,2.54,0,0,1-.74-.31,1.74,1.74,0,0,1-.47-.42,1.49,1.49,0,0,1-.24-.49,2,2,0,0,1,.14-1.43,2.05,2.05,0,0,1,.58-.63,2.56,2.56,0,0,1,.8-.37,3.63,3.63,0,0,1,.92-.12,3.75,3.75,0,0,1,1,.14,2.41,2.41,0,0,1,.83.42,2.27,2.27,0,0,1,.58.69,2,2,0,0,1,.21,1h-1.21a1.14,1.14,0,0,0-.45-.94,1.81,1.81,0,0,0-1-.28,2.18,2.18,0,0,0-.43.05,1.42,1.42,0,0,0-.41.14.89.89,0,0,0-.3.28.73.73,0,0,0-.12.43.75.75,0,0,0,.23.57,1.38,1.38,0,0,0,.59.31l.3.09.59.16.64.16.45.12a2,2,0,0,1,.59.29,1.86,1.86,0,0,1,.42.42,1.81,1.81,0,0,1,.33,1.05,1.9,1.9,0,0,1-.24,1,1.82,1.82,0,0,1-.62.67,2.74,2.74,0,0,1-.87.38,4.21,4.21,0,0,1-1,.12,4.38,4.38,0,0,1-1.11-.14,2.67,2.67,0,0,1-.91-.45,2.1,2.1,0,0,1-.61-.76,2.38,2.38,0,0,1-.24-1.1Z"/><path class="cls-5" d="M241.82,262.52a.52.52,0,0,0,.06.29.2.2,0,0,0,.2.09h.12l.15,0v.76l-.15,0-.19.05-.19,0h-.16a1.06,1.06,0,0,1-.56-.13.69.69,0,0,1-.29-.47,2,2,0,0,1-.8.46,3.07,3.07,0,0,1-.92.14,2.32,2.32,0,0,1-.65-.09,1.71,1.71,0,0,1-.54-.27,1.38,1.38,0,0,1-.38-.45,1.44,1.44,0,0,1-.14-.64,1.49,1.49,0,0,1,.17-.75,1.29,1.29,0,0,1,.45-.45,1.94,1.94,0,0,1,.61-.24c.23-.05.46-.08.69-.11a4.1,4.1,0,0,1,.57-.08,4.13,4.13,0,0,0,.47-.08.75.75,0,0,0,.33-.18.49.49,0,0,0,.12-.36.56.56,0,0,0-.1-.35.72.72,0,0,0-.25-.21,1.15,1.15,0,0,0-.33-.09l-.35,0a1.36,1.36,0,0,0-.76.2.7.7,0,0,0-.33.59h-1.1a1.64,1.64,0,0,1,.23-.8,1.65,1.65,0,0,1,.51-.51,2.33,2.33,0,0,1,.71-.27,4.28,4.28,0,0,1,.81-.07,3.51,3.51,0,0,1,.72.07,2.44,2.44,0,0,1,.64.25,1.52,1.52,0,0,1,.46.45,1.31,1.31,0,0,1,.17.67Zm-1.1-1.38a1.37,1.37,0,0,1-.61.19l-.73.1a1.89,1.89,0,0,0-.34.09.87.87,0,0,0-.29.14.68.68,0,0,0-.2.24,1,1,0,0,0-.07.36.47.47,0,0,0,.11.31.82.82,0,0,0,.25.2,1.15,1.15,0,0,0,.33.1l.32,0a1.9,1.9,0,0,0,.4,0,1.52,1.52,0,0,0,.4-.16,1.11,1.11,0,0,0,.31-.3.76.76,0,0,0,.12-.44Z"/><path class="cls-5" d="M243,258.65h1v.75a2,2,0,0,1,.66-.65,1.83,1.83,0,0,1,.9-.23,1.85,1.85,0,0,1,1.28.42,1.61,1.61,0,0,1,.48,1.27v3.42h-1.1V260.5a1.34,1.34,0,0,0-.25-.85.9.9,0,0,0-.72-.27,1.27,1.27,0,0,0-.5.1,1.21,1.21,0,0,0-.38.28,1.46,1.46,0,0,0-.33.93v2.94H243Z"/><path class="cls-5" d="M248.62,262.33H250v1.3h-1.34Z"/><path class="cls-5" d="M253.39,258.65h1.2l1.26,3.82h0l1.21-3.82h1.13l-1.78,5H255.2Z"/><path class="cls-5" d="M259.74,261.42a1.73,1.73,0,0,0,.08.56,1.39,1.39,0,0,0,.24.47,1.14,1.14,0,0,0,.42.33,1.54,1.54,0,0,0,1.37-.09,1.27,1.27,0,0,0,.44-.62h1a2.11,2.11,0,0,1-.3.72,2,2,0,0,1-1.18.86,2.86,2.86,0,0,1-1.81-.08,2.14,2.14,0,0,1-.77-.54,2.12,2.12,0,0,1-.47-.83,3.21,3.21,0,0,1-.16-1.05,3.06,3.06,0,0,1,.17-1,2.49,2.49,0,0,1,.48-.84,2.24,2.24,0,0,1,1.76-.78,2.26,2.26,0,0,1,1.05.24,2.47,2.47,0,0,1,.78.65,2.66,2.66,0,0,1,.44.93,2.61,2.61,0,0,1,.07,1.08Zm2.56-.72a2.13,2.13,0,0,0-.11-.5,1.73,1.73,0,0,0-.25-.42,1.42,1.42,0,0,0-.39-.29,1.18,1.18,0,0,0-.5-.11,1.47,1.47,0,0,0-.53.1,1.3,1.3,0,0,0-.4.28,1.17,1.17,0,0,0-.27.42,1.31,1.31,0,0,0-.11.52Z"/><path class="cls-5" d="M266.41,256.76H272v1h-2.18v5.83h-1.21V257.8h-2.17Z"/><path class="cls-5" d="M272.64,256.76h1.1v1h-1.1Zm0,1.89h1.1v5h-1.1Z"/><path class="cls-5" d="M278.29,260.32a1,1,0,0,0-.37-.7,1.17,1.17,0,0,0-.76-.24,1.53,1.53,0,0,0-.45.08,1,1,0,0,0-.45.27,1.55,1.55,0,0,0-.33.54,2.79,2.79,0,0,0-.06,1.54,1.5,1.5,0,0,0,.23.55,1.24,1.24,0,0,0,.4.39,1.17,1.17,0,0,0,.61.15,1.12,1.12,0,0,0,.8-.3,1.43,1.43,0,0,0,.38-.84h1.1a2.46,2.46,0,0,1-.73,1.49,2.28,2.28,0,0,1-1.55.51,2.56,2.56,0,0,1-1-.19,2.49,2.49,0,0,1-.76-.54,2.45,2.45,0,0,1-.47-.82,3.31,3.31,0,0,1-.15-1,3.6,3.6,0,0,1,.15-1.05,2.49,2.49,0,0,1,.46-.85,2.21,2.21,0,0,1,.77-.57,2.69,2.69,0,0,1,1.07-.2,2.75,2.75,0,0,1,.82.11,2.15,2.15,0,0,1,.7.33,1.81,1.81,0,0,1,.72,1.36Z"/><path class="cls-5" d="M280.38,262.33h1.33v1.3h-1.33Z"/><path class="cls-5" d="M287.63,256.76h1.28l2.65,6.87h-1.29l-.65-1.82h-2.74l-.64,1.82H285Zm-.42,4.14h2.1l-1-3h0Z"/><path class="cls-5" d="M292.15,262.33h1.34v1.3h-1.34Z"/><path class="cls-5" d="M295.66,265.17a1.74,1.74,0,0,0,.32.11,1,1,0,0,0,.31,0h.2a.6.6,0,0,0,.19-.06.33.33,0,0,0,.14-.12.31.31,0,0,0,.05-.2.3.3,0,0,0-.14-.28.53.53,0,0,0-.3-.09.64.64,0,0,0-.37.1l-.22-.18.54-.73a5.58,5.58,0,0,1-.59-.09,1.88,1.88,0,0,1-.68-.33,1.46,1.46,0,0,1-.46-.53,1.57,1.57,0,0,1-.18-.77h1.09a.84.84,0,0,0,.37.67,1.43,1.43,0,0,0,.76.2l.35,0a1.12,1.12,0,0,0,.37-.09.66.66,0,0,0,.29-.2.51.51,0,0,0,.1-.34.48.48,0,0,0-.16-.34,1,1,0,0,0-.37-.22,3.12,3.12,0,0,0-.51-.14l-.59-.13a3.65,3.65,0,0,1-.59-.16,1.75,1.75,0,0,1-.51-.26,1.22,1.22,0,0,1-.36-.42,1.33,1.33,0,0,1-.14-.63,1.16,1.16,0,0,1,.2-.68,1.52,1.52,0,0,1,.5-.44,2.38,2.38,0,0,1,.68-.24,4.32,4.32,0,0,1,.7-.06,3,3,0,0,1,.74.08,2,2,0,0,1,.63.26,1.52,1.52,0,0,1,.71,1.19h-1.14a.68.68,0,0,0-.37-.53,1.44,1.44,0,0,0-.64-.14l-.28,0a1.67,1.67,0,0,0-.3.08.51.51,0,0,0-.23.15.34.34,0,0,0-.1.26.42.42,0,0,0,.14.33,1.29,1.29,0,0,0,.37.21,4.6,4.6,0,0,0,.51.14l.6.12c.2.05.39.1.59.17a1.75,1.75,0,0,1,.51.26,1.33,1.33,0,0,1,.37.41,1.29,1.29,0,0,1,.13.62,1.32,1.32,0,0,1-.2.75,1.66,1.66,0,0,1-.52.5,2.51,2.51,0,0,1-.72.28,3.17,3.17,0,0,1-.61.07l-.34.45h0a.28.28,0,0,1,.13,0h.19a.9.9,0,0,1,.28,0,.7.7,0,0,1,.27.14.82.82,0,0,1,.19.22.66.66,0,0,1,.07.32.73.73,0,0,1-.1.41.87.87,0,0,1-.27.27,1.11,1.11,0,0,1-.37.15,1.52,1.52,0,0,1-.42.06,2.18,2.18,0,0,1-.52-.06,1.38,1.38,0,0,1-.47-.17Z"/><path class="cls-5" d="M299.82,262.33h1.34v1.3h-1.34Z"/><path class="cls-5" d="M302.57,258.91a.57.57,0,0,0,.47-.29,1.28,1.28,0,0,0,.12-.56h-.59v-1.3h1.21v1.3a1.4,1.4,0,0,1-.33.94,1.32,1.32,0,0,1-.88.47Z"/><path class="cls-5" d="M304.54,258.65h1.2l1.3,3.72h0l1.26-3.72h1.14l-1.93,5.25c-.09.22-.18.44-.27.64a2.25,2.25,0,0,1-.31.55,1.43,1.43,0,0,1-.47.37,1.5,1.5,0,0,1-.71.14,4.77,4.77,0,0,1-.76-.06v-.92l.26,0a1.09,1.09,0,0,0,.26,0,.87.87,0,0,0,.31-.05.46.46,0,0,0,.21-.14.69.69,0,0,0,.14-.22,1.6,1.6,0,0,0,.11-.29l.12-.38Z"/><path class="cls-5" d="M310.94,261.42a1.73,1.73,0,0,0,.08.56,1.39,1.39,0,0,0,.24.47,1.14,1.14,0,0,0,.42.33,1.37,1.37,0,0,0,.6.12,1.3,1.3,0,0,0,.77-.21,1.21,1.21,0,0,0,.44-.62h1a2.11,2.11,0,0,1-.3.72,2,2,0,0,1-1.18.86,2.52,2.52,0,0,1-.77.11,2.57,2.57,0,0,1-1-.19,2.14,2.14,0,0,1-.77-.54,2.12,2.12,0,0,1-.47-.83,3.21,3.21,0,0,1-.16-1.05,3.06,3.06,0,0,1,.17-1,2.49,2.49,0,0,1,.48-.84,2.39,2.39,0,0,1,2.81-.54,2.47,2.47,0,0,1,.78.65,2.66,2.66,0,0,1,.44.93,2.8,2.8,0,0,1,.08,1.08Zm2.56-.72a2.13,2.13,0,0,0-.11-.5,1.46,1.46,0,0,0-.25-.42,1.42,1.42,0,0,0-.39-.29,1.18,1.18,0,0,0-.5-.11,1.47,1.47,0,0,0-.53.1,1.3,1.3,0,0,0-.4.28,1.51,1.51,0,0,0-.27.42,1.31,1.31,0,0,0-.11.52Z"/><path class="cls-5" d="M317.56,258.65h1.2l1.3,3.72h0l1.26-3.72h1.15l-1.94,5.25c-.09.22-.17.44-.26.64a2.27,2.27,0,0,1-.32.55,1.33,1.33,0,0,1-.47.37,1.47,1.47,0,0,1-.71.14,4.87,4.87,0,0,1-.76-.06v-.92l.26,0a1.15,1.15,0,0,0,.26,0,.93.93,0,0,0,.32-.05.6.6,0,0,0,.21-.14.67.67,0,0,0,.13-.22,1.6,1.6,0,0,0,.11-.29l.13-.38Z"/><path class="cls-5" d="M324,261.42a2,2,0,0,0,.08.56,1.41,1.41,0,0,0,.25.47,1.2,1.2,0,0,0,.41.33,1.4,1.4,0,0,0,.6.12,1.28,1.28,0,0,0,.77-.21,1.16,1.16,0,0,0,.44-.62h1a2.11,2.11,0,0,1-.3.72,2,2,0,0,1-1.18.86,2.43,2.43,0,0,1-.77.11,2.61,2.61,0,0,1-1-.19,2.23,2.23,0,0,1-.77-.54,2.4,2.4,0,0,1-.47-.83,3.5,3.5,0,0,1-.16-1.05,3.06,3.06,0,0,1,.17-1,2.49,2.49,0,0,1,.48-.84,2.27,2.27,0,0,1,.76-.57,2.29,2.29,0,0,1,1-.21,2.26,2.26,0,0,1,1.05.24,2.36,2.36,0,0,1,.78.65,2.87,2.87,0,0,1,.45.93,3,3,0,0,1,.07,1.08Zm2.56-.72a1.72,1.72,0,0,0-.11-.5,1.27,1.27,0,0,0-.25-.42,1.37,1.37,0,0,0-.38-.29,1.23,1.23,0,0,0-.51-.11,1.42,1.42,0,0,0-.52.1,1.35,1.35,0,0,0-.41.28,1.43,1.43,0,0,0-.38.94Z"/><path class="cls-5" d="M328,258.65h.82v-1.49h1.1v1.49h1v.82h-1v2.66a2.66,2.66,0,0,0,0,.3.65.65,0,0,0,.06.21.42.42,0,0,0,.16.13.78.78,0,0,0,.29,0h.23l.23,0v.85l-.35,0-.36,0a2.64,2.64,0,0,1-.7-.08,1,1,0,0,1-.41-.25.76.76,0,0,1-.2-.4,2.83,2.83,0,0,1-.07-.54v-2.94H328Z"/><path class="cls-5" d="M331.69,256.76h1.1v3.9l2-2h1.35l-1.91,1.83,2.09,3.15H335l-1.52-2.42-.65.64v1.78h-1.1Z"/><path class="cls-5" d="M336.86,256.76H338v1h-1.1Zm0,1.89H338v5h-1.1Z"/><path class="cls-5" d="M339.18,256.76h1.1v6.87h-1.1Z"/><path class="cls-5" d="M341.5,256.76h1.1v1h-1.1Zm0,1.89h1.1v5h-1.1Z"/><path class="cls-5" d="M346.5,256.76h1.09v3.9l2-2h1.34l-1.9,1.83,2.09,3.15h-1.34l-1.52-2.42-.66.64v1.78H346.5Z"/><path class="cls-5" d="M356,263.63h-1.08v-.69h0a1.57,1.57,0,0,1-.6.6,1.66,1.66,0,0,1-.82.22,1.86,1.86,0,0,1-1.42-.48,2.17,2.17,0,0,1-.44-1.47v-3.16h1.1v3.05a1.4,1.4,0,0,0,.25.93.92.92,0,0,0,.71.27,1.35,1.35,0,0,0,.57-.11,1,1,0,0,0,.38-.28,1.33,1.33,0,0,0,.21-.43,2.35,2.35,0,0,0,.06-.54v-2.89H356Z"/><path class="cls-5" d="M357.16,258.65h1v1h0a1,1,0,0,1,.19-.39,1.56,1.56,0,0,1,.33-.35,2,2,0,0,1,.44-.26,1.41,1.41,0,0,1,.49-.09h.27l.15,0v1.06l-.24,0h-.23a1.17,1.17,0,0,0-.53.11,1.21,1.21,0,0,0-.43.32,1.74,1.74,0,0,0-.29.54,2.3,2.3,0,0,0-.1.73v2.37h-1.1Z"/><path class="cls-5" d="M364.92,263.63h-1.08v-.69h0a1.45,1.45,0,0,1-.6.6,1.65,1.65,0,0,1-.81.22,1.83,1.83,0,0,1-1.42-.48,2.17,2.17,0,0,1-.44-1.47v-3.16h1.1v3.05a1.35,1.35,0,0,0,.25.93.9.9,0,0,0,.7.27,1.43,1.43,0,0,0,.58-.11,1,1,0,0,0,.37-.28,1,1,0,0,0,.21-.43,2.35,2.35,0,0,0,.06-.54v-2.89h1.1Z"/><path class="cls-5" d="M366.07,258.65h1v.7h0a3.37,3.37,0,0,1,.27-.34,1.92,1.92,0,0,1,.32-.26,1.68,1.68,0,0,1,.41-.17,2.15,2.15,0,0,1,.53-.06,1.77,1.77,0,0,1,.85.2,1.11,1.11,0,0,1,.55.63,2.17,2.17,0,0,1,.64-.61,1.74,1.74,0,0,1,.92-.22,1.86,1.86,0,0,1,1.23.38,1.66,1.66,0,0,1,.43,1.29v3.44H372.2v-2.91c0-.2,0-.38,0-.54a1.29,1.29,0,0,0-.11-.43.66.66,0,0,0-.28-.27,1.13,1.13,0,0,0-.5-.1.94.94,0,0,0-.81.35,1.71,1.71,0,0,0-.25,1v2.92h-1.1v-3.2a1.38,1.38,0,0,0-.18-.78.8.8,0,0,0-.69-.27,1,1,0,0,0-.41.09,1.07,1.07,0,0,0-.35.25,1.22,1.22,0,0,0-.24.4,1.59,1.59,0,0,0-.09.55v3h-1.1Z"/><path class="cls-5" d="M376.62,258.65h.83v-1.49h1.1v1.49h1v.82h-1v2.66a2.81,2.81,0,0,0,0,.3.65.65,0,0,0,.07.21.42.42,0,0,0,.16.13.78.78,0,0,0,.29,0h.23l.23,0v.85l-.35,0-.36,0a2.64,2.64,0,0,1-.7-.08.92.92,0,0,1-.41-.25.85.85,0,0,1-.21-.4,4,4,0,0,1-.06-.54v-2.94h-.83Z"/><path class="cls-5" d="M384.5,262.52a.65.65,0,0,0,.05.29.23.23,0,0,0,.21.09h.11l.16,0v.76l-.15,0-.19.05-.19,0h-.17a1,1,0,0,1-.55-.13.66.66,0,0,1-.29-.47,2,2,0,0,1-.81.46,3,3,0,0,1-.92.14,2.3,2.3,0,0,1-.64-.09,1.52,1.52,0,0,1-.54-.27,1.27,1.27,0,0,1-.38-.45,1.44,1.44,0,0,1-.14-.64,1.49,1.49,0,0,1,.17-.75,1.27,1.27,0,0,1,.44-.45,2.11,2.11,0,0,1,.62-.24c.23-.05.46-.08.69-.11a4.19,4.19,0,0,1,.56-.08l.48-.08a.75.75,0,0,0,.33-.18.49.49,0,0,0,.12-.36.56.56,0,0,0-.1-.35.72.72,0,0,0-.25-.21,1.15,1.15,0,0,0-.33-.09l-.35,0a1.36,1.36,0,0,0-.76.2.74.74,0,0,0-.34.59h-1.1a1.75,1.75,0,0,1,.23-.8,1.69,1.69,0,0,1,.52-.51,2.23,2.23,0,0,1,.71-.27,4.28,4.28,0,0,1,.81-.07,3.51,3.51,0,0,1,.72.07,2.58,2.58,0,0,1,.64.25,1.52,1.52,0,0,1,.46.45,1.31,1.31,0,0,1,.17.67Zm-1.1-1.38a1.41,1.41,0,0,1-.61.19l-.74.1-.33.09a.87.87,0,0,0-.29.14.59.59,0,0,0-.2.24.8.8,0,0,0-.07.36.46.46,0,0,0,.1.31.86.86,0,0,0,.26.2,1.15,1.15,0,0,0,.33.1l.32,0a1.89,1.89,0,0,0,.39,0,1.29,1.29,0,0,0,.4-.16,1.14,1.14,0,0,0,.32-.3.76.76,0,0,0,.12-.44Z"/><path class="cls-5" d="M385.68,258.65h1v1h0a1.17,1.17,0,0,1,.19-.39,1.41,1.41,0,0,1,.34-.35,1.7,1.7,0,0,1,.43-.26,1.43,1.43,0,0,1,.5-.09h.26l.15,0v1.06l-.24,0h-.23a1.2,1.2,0,0,0-.53.11,1.31,1.31,0,0,0-.43.32,2,2,0,0,0-.29.54,2.3,2.3,0,0,0-.1.73v2.37h-1.1Z"/><path class="cls-5" d="M393.24,262.52a.65.65,0,0,0,.05.29.23.23,0,0,0,.21.09h.11l.16,0v.76l-.15,0-.19.05-.19,0h-.16a1,1,0,0,1-.56-.13.66.66,0,0,1-.29-.47,2,2,0,0,1-.81.46,3,3,0,0,1-.92.14,2.3,2.3,0,0,1-.64-.09,1.52,1.52,0,0,1-.54-.27,1.27,1.27,0,0,1-.38-.45,1.44,1.44,0,0,1-.14-.64,1.49,1.49,0,0,1,.17-.75,1.27,1.27,0,0,1,.44-.45,2.11,2.11,0,0,1,.62-.24c.23-.05.46-.08.69-.11a4.1,4.1,0,0,1,.57-.08l.47-.08a.75.75,0,0,0,.33-.18.49.49,0,0,0,.12-.36.56.56,0,0,0-.1-.35.72.72,0,0,0-.25-.21,1.15,1.15,0,0,0-.33-.09l-.35,0a1.36,1.36,0,0,0-.76.2.74.74,0,0,0-.34.59H389a1.75,1.75,0,0,1,.23-.8,1.69,1.69,0,0,1,.52-.51,2.23,2.23,0,0,1,.71-.27,4.28,4.28,0,0,1,.81-.07,3.51,3.51,0,0,1,.72.07,2.44,2.44,0,0,1,.64.25,1.52,1.52,0,0,1,.46.45,1.31,1.31,0,0,1,.17.67Zm-1.1-1.38a1.41,1.41,0,0,1-.61.19l-.74.1-.33.09a.87.87,0,0,0-.29.14.59.59,0,0,0-.2.24.8.8,0,0,0-.07.36.46.46,0,0,0,.1.31,1,1,0,0,0,.26.2,1.15,1.15,0,0,0,.33.1l.32,0a1.89,1.89,0,0,0,.39,0,1.29,1.29,0,0,0,.4-.16,1.14,1.14,0,0,0,.32-.3.76.76,0,0,0,.12-.44Z"/><path class="cls-5" d="M393.93,258.65h.82v-.41a2.07,2.07,0,0,1,.12-.77,1,1,0,0,1,.3-.45,1,1,0,0,1,.44-.21,2.24,2.24,0,0,1,.52-.05,3.53,3.53,0,0,1,.77.06v.86l-.23,0-.28,0a.66.66,0,0,0-.38.11.45.45,0,0,0-.16.41v.51h.93v.82h-.93v4.16h-1.1v-4.16h-.82Z"/><path class="cls-5" d="M397.48,263.63v-5h1.1v5Z"/><path class="cls-5" d="M399.78,258.65h1v.73l0,0a2,2,0,0,1,.66-.65,1.82,1.82,0,0,1,.89-.23,1.86,1.86,0,0,1,1.29.42,1.6,1.6,0,0,1,.47,1.27v3.42h-1.09V260.5a1.34,1.34,0,0,0-.25-.85.91.91,0,0,0-.72-.27,1.36,1.36,0,0,0-.51.1,1.29,1.29,0,0,0-.37.28,1.46,1.46,0,0,0-.33.93v2.94h-1.09Z"/><path class="cls-5" d="M410,263.63h-1V263h0a1.33,1.33,0,0,1-.65.63,2.25,2.25,0,0,1-.89.18,2.56,2.56,0,0,1-1-.2,2,2,0,0,1-.72-.57,2.24,2.24,0,0,1-.44-.84,3.84,3.84,0,0,1-.14-1,3.43,3.43,0,0,1,.18-1.17,2.4,2.4,0,0,1,.49-.81,1.86,1.86,0,0,1,.69-.46,2.21,2.21,0,0,1,.79-.15,2.59,2.59,0,0,1,.48,0,2.44,2.44,0,0,1,.46.14,1.73,1.73,0,0,1,.41.25,1.17,1.17,0,0,1,.31.35h0v-2.54H410Zm-3.83-2.44a2.27,2.27,0,0,0,.08.63,1.72,1.72,0,0,0,.25.55,1.13,1.13,0,0,0,.43.38,1.17,1.17,0,0,0,.61.15,1.14,1.14,0,0,0,.63-.16,1.3,1.3,0,0,0,.44-.4,2.18,2.18,0,0,0,.25-.56,2.8,2.8,0,0,0,.08-.64,2,2,0,0,0-.37-1.29,1.23,1.23,0,0,0-1-.47,1.3,1.3,0,0,0-.65.16,1.44,1.44,0,0,0-.43.42,1.81,1.81,0,0,0-.24.57A3,3,0,0,0,406.16,261.19Z"/><path class="cls-5" d="M415.35,262.52a.65.65,0,0,0,0,.29.23.23,0,0,0,.21.09h.11l.16,0v.76l-.15,0-.19.05-.19,0h-.16a1.06,1.06,0,0,1-.56-.13.66.66,0,0,1-.29-.47,2,2,0,0,1-.8.46,3.07,3.07,0,0,1-.92.14,2.32,2.32,0,0,1-.65-.09,1.61,1.61,0,0,1-.54-.27,1.27,1.27,0,0,1-.38-.45,1.44,1.44,0,0,1-.14-.64,1.49,1.49,0,0,1,.17-.75,1.27,1.27,0,0,1,.44-.45,2.11,2.11,0,0,1,.62-.24c.23-.05.46-.08.69-.11a4,4,0,0,1,.56-.08l.48-.08a.75.75,0,0,0,.33-.18.49.49,0,0,0,.12-.36.56.56,0,0,0-.1-.35.72.72,0,0,0-.25-.21,1.15,1.15,0,0,0-.33-.09l-.35,0a1.36,1.36,0,0,0-.76.2.74.74,0,0,0-.34.59h-1.1a1.64,1.64,0,0,1,.24-.8,1.55,1.55,0,0,1,.51-.51,2.33,2.33,0,0,1,.71-.27,4.28,4.28,0,0,1,.81-.07,3.51,3.51,0,0,1,.72.07,2.44,2.44,0,0,1,.64.25,1.52,1.52,0,0,1,.46.45,1.31,1.31,0,0,1,.17.67Zm-1.1-1.38a1.41,1.41,0,0,1-.61.19l-.74.1-.33.09a.87.87,0,0,0-.29.14.68.68,0,0,0-.2.24.8.8,0,0,0-.07.36.42.42,0,0,0,.11.31.82.82,0,0,0,.25.2,1.15,1.15,0,0,0,.33.1l.32,0a1.89,1.89,0,0,0,.39,0,1.4,1.4,0,0,0,.4-.16,1.14,1.14,0,0,0,.32-.3.76.76,0,0,0,.12-.44Z"/><path class="cls-5" d="M416.53,258.65h1v.73l0,0a2,2,0,0,1,.66-.65,1.79,1.79,0,0,1,.89-.23,1.86,1.86,0,0,1,1.29.42,1.6,1.6,0,0,1,.47,1.27v3.42h-1.09V260.5a1.41,1.41,0,0,0-.25-.85.92.92,0,0,0-.73-.27,1.35,1.35,0,0,0-.5.1,1.29,1.29,0,0,0-.37.28,1.46,1.46,0,0,0-.33.93v2.94h-1.1Z"/><path class="cls-5" d="M424.23,258.65h.83v-1.49h1.1v1.49h1v.82h-1v2.66a2.81,2.81,0,0,0,0,.3.65.65,0,0,0,.07.21.42.42,0,0,0,.16.13.78.78,0,0,0,.29,0h.23l.23,0v.85l-.36,0-.35,0a2.64,2.64,0,0,1-.7-.08.92.92,0,0,1-.41-.25.85.85,0,0,1-.21-.4,4,4,0,0,1-.06-.54v-2.94h-.83Z"/><path class="cls-5" d="M428.8,261.42a1.73,1.73,0,0,0,.08.56,1.23,1.23,0,0,0,.24.47,1.14,1.14,0,0,0,.42.33,1.35,1.35,0,0,0,.59.12,1.31,1.31,0,0,0,.78-.21,1.21,1.21,0,0,0,.44-.62h1a2.11,2.11,0,0,1-.3.72,2,2,0,0,1-1.18.86,2.86,2.86,0,0,1-1.81-.08,2.14,2.14,0,0,1-.77-.54,2.12,2.12,0,0,1-.47-.83,3.21,3.21,0,0,1-.16-1.05,3.06,3.06,0,0,1,.17-1,2.49,2.49,0,0,1,.48-.84,2.24,2.24,0,0,1,1.76-.78,2.26,2.26,0,0,1,1.05.24,2.32,2.32,0,0,1,.77.65,2.52,2.52,0,0,1,.45.93,3,3,0,0,1,.08,1.08Zm2.56-.72a2.13,2.13,0,0,0-.11-.5,1.46,1.46,0,0,0-.25-.42,1.42,1.42,0,0,0-.39-.29,1.18,1.18,0,0,0-.5-.11,1.47,1.47,0,0,0-.53.1,1.3,1.3,0,0,0-.4.28,1.17,1.17,0,0,0-.27.42,1.31,1.31,0,0,0-.11.52Z"/><path class="cls-5" d="M434.12,262a.79.79,0,0,0,.37.67,1.41,1.41,0,0,0,.76.2l.35,0a1.18,1.18,0,0,0,.37-.09.63.63,0,0,0,.28-.2.42.42,0,0,0,.1-.34.47.47,0,0,0-.15-.34,1,1,0,0,0-.37-.22,3,3,0,0,0-.52-.14l-.58-.13a3.77,3.77,0,0,1-.6-.16,2,2,0,0,1-.51-.26,1.22,1.22,0,0,1-.36-.42,1.34,1.34,0,0,1-.13-.63,1.1,1.1,0,0,1,.2-.68,1.42,1.42,0,0,1,.5-.44,2.31,2.31,0,0,1,.67-.24,4.44,4.44,0,0,1,.71-.06,2.92,2.92,0,0,1,.73.08,1.92,1.92,0,0,1,.64.26,1.54,1.54,0,0,1,.47.48,1.71,1.71,0,0,1,.24.71h-1.15a.67.67,0,0,0-.36-.53,1.48,1.48,0,0,0-.65-.14l-.27,0a1.32,1.32,0,0,0-.3.08.55.55,0,0,0-.24.15.37.37,0,0,0-.09.26.39.39,0,0,0,.14.33,1.22,1.22,0,0,0,.36.21,4.25,4.25,0,0,0,.52.14l.59.12a5.72,5.72,0,0,1,.59.17,2,2,0,0,1,.52.26,1.19,1.19,0,0,1,.36.41,1.29,1.29,0,0,1,.14.62,1.4,1.4,0,0,1-.2.75,1.69,1.69,0,0,1-.53.5,2.34,2.34,0,0,1-.71.28,4.3,4.3,0,0,1-.78.08,3.35,3.35,0,0,1-.87-.1,2,2,0,0,1-.7-.33,1.56,1.56,0,0,1-.46-.53A1.82,1.82,0,0,1,433,262Z"/><path class="cls-5" d="M441.65,260.32a1.07,1.07,0,0,0-.37-.7,1.22,1.22,0,0,0-.77-.24,1.53,1.53,0,0,0-.45.08.9.9,0,0,0-.44.27,1.43,1.43,0,0,0-.34.54,2.79,2.79,0,0,0-.06,1.54,1.69,1.69,0,0,0,.23.55,1.18,1.18,0,0,0,.41.39,1.14,1.14,0,0,0,.6.15,1.12,1.12,0,0,0,.8-.3,1.38,1.38,0,0,0,.39-.84h1.1a2.46,2.46,0,0,1-.74,1.49,2.26,2.26,0,0,1-1.55.51,2.56,2.56,0,0,1-1-.19,2.49,2.49,0,0,1-.76-.54,2.27,2.27,0,0,1-.46-.82,3,3,0,0,1-.16-1,3.6,3.6,0,0,1,.15-1.05,2.49,2.49,0,0,1,.46-.85,2.21,2.21,0,0,1,.77-.57,2.69,2.69,0,0,1,1.07-.2,2.87,2.87,0,0,1,.83.11,2.1,2.1,0,0,1,.69.33,1.77,1.77,0,0,1,.49.56,1.93,1.93,0,0,1,.24.8Z"/><path class="cls-5" d="M443.67,256.76h1.1v1h-1.1Zm0,1.89h1.1v5h-1.1Z"/><path class="cls-5" d="M446,256.76h1.1v6.87H446Z"/><path class="cls-5" d="M451.81,261.42a2,2,0,0,0,.08.56,1.41,1.41,0,0,0,.25.47,1.2,1.2,0,0,0,.41.33,1.4,1.4,0,0,0,.6.12,1.33,1.33,0,0,0,.78-.21,1.2,1.2,0,0,0,.43-.62h1a1.92,1.92,0,0,1-.29.72,2.43,2.43,0,0,1-.52.54,2.13,2.13,0,0,1-.66.32,2.54,2.54,0,0,1-.78.11,2.61,2.61,0,0,1-1-.19,2.1,2.1,0,0,1-.76-.54,2.27,2.27,0,0,1-.48-.83,3.5,3.5,0,0,1-.16-1.05,3.06,3.06,0,0,1,.17-1,2.69,2.69,0,0,1,.49-.84,2.23,2.23,0,0,1,.75-.57,2.33,2.33,0,0,1,1-.21,2.3,2.3,0,0,1,1.06.24,2.32,2.32,0,0,1,.77.65,2.68,2.68,0,0,1,.45.93,2.8,2.8,0,0,1,.07,1.08Zm2.56-.72a1.72,1.72,0,0,0-.11-.5,1.27,1.27,0,0,0-.25-.42,1.24,1.24,0,0,0-.38-.29,1.19,1.19,0,0,0-.51-.11,1.42,1.42,0,0,0-.52.1,1.35,1.35,0,0,0-.41.28,1.51,1.51,0,0,0-.27.42,1.78,1.78,0,0,0-.11.52Z"/><path class="cls-5" d="M461,263.63h-1V263h0a1.37,1.37,0,0,1-.65.63,2.25,2.25,0,0,1-.89.18,2.52,2.52,0,0,1-1-.2,2.16,2.16,0,0,1-.73-.57,2.38,2.38,0,0,1-.43-.84,3.84,3.84,0,0,1-.14-1,3.43,3.43,0,0,1,.18-1.17,2.25,2.25,0,0,1,.49-.81,1.86,1.86,0,0,1,.69-.46,2.17,2.17,0,0,1,.79-.15,2.59,2.59,0,0,1,.48,0,2.44,2.44,0,0,1,.46.14,2,2,0,0,1,.41.25,1.17,1.17,0,0,1,.31.35h0v-2.54H461Zm-3.84-2.44a2.28,2.28,0,0,0,.09.63,1.53,1.53,0,0,0,.25.55,1.13,1.13,0,0,0,.43.38,1.17,1.17,0,0,0,.61.15,1.14,1.14,0,0,0,.63-.16,1.3,1.3,0,0,0,.44-.4,2.18,2.18,0,0,0,.25-.56,2.8,2.8,0,0,0,.08-.64,2,2,0,0,0-.37-1.29,1.24,1.24,0,0,0-1-.47,1.3,1.3,0,0,0-.65.16,1.33,1.33,0,0,0-.43.42,1.81,1.81,0,0,0-.24.57A3,3,0,0,0,457.16,261.19Z"/><path class="cls-5" d="M462.22,256.76h1.1v1h-1.1Zm0,1.89h1.1v5h-1.1Z"/><path class="cls-5" d="M464.54,256.76h1.09v6.87h-1.09Z"/><path class="cls-5" d="M466.83,258.65h1v.7h0a1.84,1.84,0,0,1,.27-.34,1.35,1.35,0,0,1,.32-.26,1.53,1.53,0,0,1,.41-.17,2.09,2.09,0,0,1,.53-.06,1.74,1.74,0,0,1,.84.2,1.11,1.11,0,0,1,.55.63,2.21,2.21,0,0,1,.65-.61,1.7,1.7,0,0,1,.91-.22,1.83,1.83,0,0,1,1.23.38,1.66,1.66,0,0,1,.44,1.29v3.44H473v-2.91a4.52,4.52,0,0,0,0-.54,1.09,1.09,0,0,0-.11-.43.64.64,0,0,0-.27-.27,1.17,1.17,0,0,0-.5-.1.92.92,0,0,0-.81.35,1.63,1.63,0,0,0-.25,1v2.92h-1.1v-3.2a1.3,1.3,0,0,0-.19-.78.77.77,0,0,0-.69-.27.93.93,0,0,0-.4.09,1,1,0,0,0-.35.25,1.22,1.22,0,0,0-.24.4,1.59,1.59,0,0,0-.09.55v3h-1.1Z"/><path class="cls-5" d="M475.23,256.76h1.1v1h-1.1Zm0,1.89h1.1v5h-1.1Z"/><path class="cls-5" d="M478.45,265.17a1.52,1.52,0,0,0,.32.11,1,1,0,0,0,.3,0h.21a.6.6,0,0,0,.19-.06.41.41,0,0,0,.14-.12.39.39,0,0,0,.05-.2.32.32,0,0,0-.14-.28.53.53,0,0,0-.3-.09.7.7,0,0,0-.38.1l-.21-.18.54-.73a5.21,5.21,0,0,1-.59-.09,2,2,0,0,1-.69-.33,1.56,1.56,0,0,1-.46-.53,1.82,1.82,0,0,1-.18-.77h1.1a.81.81,0,0,0,.37.67,1.41,1.41,0,0,0,.76.2l.35,0a1.18,1.18,0,0,0,.37-.09.63.63,0,0,0,.28-.2.42.42,0,0,0,.1-.34.43.43,0,0,0-.15-.34,1,1,0,0,0-.37-.22,3,3,0,0,0-.52-.14l-.58-.13a3.39,3.39,0,0,1-.59-.16,1.75,1.75,0,0,1-.51-.26,1.25,1.25,0,0,1-.37-.42,1.34,1.34,0,0,1-.13-.63,1.16,1.16,0,0,1,.2-.68,1.52,1.52,0,0,1,.5-.44,2.31,2.31,0,0,1,.67-.24,4.44,4.44,0,0,1,.71-.06,3,3,0,0,1,.74.08,2,2,0,0,1,.63.26,1.54,1.54,0,0,1,.47.48,1.58,1.58,0,0,1,.24.71h-1.15a.67.67,0,0,0-.36-.53,1.48,1.48,0,0,0-.65-.14l-.27,0a1.32,1.32,0,0,0-.3.08.61.61,0,0,0-.24.15.37.37,0,0,0-.09.26.39.39,0,0,0,.14.33,1.22,1.22,0,0,0,.36.21,4.81,4.81,0,0,0,.52.14l.59.12a5.72,5.72,0,0,1,.59.17,1.81,1.81,0,0,1,.52.26,1.19,1.19,0,0,1,.36.41,1.29,1.29,0,0,1,.14.62,1.4,1.4,0,0,1-.2.75,1.77,1.77,0,0,1-.52.5,2.51,2.51,0,0,1-.72.28,3.27,3.27,0,0,1-.62.07l-.33.45h0a.32.32,0,0,1,.14,0h.18a1,1,0,0,1,.29,0,.66.66,0,0,1,.26.14.67.67,0,0,1,.19.22.66.66,0,0,1,.08.32.73.73,0,0,1-.11.41.87.87,0,0,1-.27.27,1,1,0,0,1-.37.15,1.4,1.4,0,0,1-.41.06,2.33,2.33,0,0,1-.53-.06,1.56,1.56,0,0,1-.47-.17Z"/><path class="cls-5" d="M482,258.65h.83v-1.49h1.09v1.49h1v.82h-1v2.66a2.66,2.66,0,0,0,0,.3.48.48,0,0,0,.07.21.32.32,0,0,0,.15.13.81.81,0,0,0,.29,0h.24l.23,0v.85l-.36,0-.36,0a2.51,2.51,0,0,1-.69-.08,1,1,0,0,1-.42-.25.76.76,0,0,1-.2-.4,2.23,2.23,0,0,1-.06-.54v-2.94H482Z"/><path class="cls-5" d="M485.75,256.76h1.1v1h-1.1Zm0,1.89h1.1v5h-1.1Z"/><path class="cls-5" d="M488,258.65h1v1h0a1.17,1.17,0,0,1,.19-.39,1.61,1.61,0,0,1,.34-.35,1.76,1.76,0,0,1,.44-.26,1.37,1.37,0,0,1,.49-.09h.26l.15,0v1.06l-.24,0h-.23a1.2,1.2,0,0,0-.53.11,1.18,1.18,0,0,0-.42.32,1.56,1.56,0,0,0-.29.54,2.29,2.29,0,0,0-.11.73v2.37H488Z"/><path class="cls-5" d="M490.63,262.33H492v1.3h-1.34Z"/><path class="cls-5" d="M2.64,268.31H3.92l2.64,6.87H5.28l-.65-1.82H1.89l-.65,1.82H0Zm-.43,4.14h2.1l-1-3h0Z"/><path class="cls-5" d="M7.07,270.2h1v.7h0c.09-.12.18-.24.27-.34a1.64,1.64,0,0,1,.33-.26,1.46,1.46,0,0,1,.4-.17,2.15,2.15,0,0,1,.53-.06,1.87,1.87,0,0,1,.85.2,1.14,1.14,0,0,1,.55.63,2.21,2.21,0,0,1,.65-.61,1.68,1.68,0,0,1,.91-.22,1.85,1.85,0,0,1,1.23.38,1.66,1.66,0,0,1,.44,1.29v3.44h-1.1v-2.91c0-.2,0-.38,0-.54a1,1,0,0,0-.11-.42.63.63,0,0,0-.28-.28,1.15,1.15,0,0,0-.5-.09.94.94,0,0,0-.81.34,1.71,1.71,0,0,0-.25,1v2.92H10.13V272a1.4,1.4,0,0,0-.19-.78.79.79,0,0,0-.69-.26,1,1,0,0,0-.41.08,1.07,1.07,0,0,0-.35.25,1.27,1.27,0,0,0-.24.41,1.55,1.55,0,0,0-.09.55v2.95H7.07Z"/><path class="cls-5" d="M19.61,274.07a.54.54,0,0,0,.05.29.23.23,0,0,0,.21.09H20l.16,0v.76l-.15,0-.19,0-.19,0h-.17a1,1,0,0,1-.55-.14.66.66,0,0,1-.29-.47,2,2,0,0,1-.81.46,3,3,0,0,1-.92.15,2.25,2.25,0,0,1-.64-.1,1.52,1.52,0,0,1-.54-.27,1.19,1.19,0,0,1-.38-.45,1.41,1.41,0,0,1-.14-.64,1.49,1.49,0,0,1,.17-.75,1.27,1.27,0,0,1,.44-.45,2,2,0,0,1,.62-.24c.22-.05.46-.08.69-.11s.38-.06.56-.08a3,3,0,0,0,.48-.08.75.75,0,0,0,.33-.18.49.49,0,0,0,.12-.36.63.63,0,0,0-.1-.35.6.6,0,0,0-.25-.2,1.13,1.13,0,0,0-.34-.1,2,2,0,0,0-.34,0,1.36,1.36,0,0,0-.76.19.75.75,0,0,0-.34.59h-1.1a1.67,1.67,0,0,1,.23-.79,1.49,1.49,0,0,1,.52-.51,2,2,0,0,1,.71-.27,3.59,3.59,0,0,1,.81-.08,2.94,2.94,0,0,1,.72.08,2,2,0,0,1,.64.25,1.27,1.27,0,0,1,.45.44,1.22,1.22,0,0,1,.18.67Zm-1.1-1.38a1.3,1.3,0,0,1-.62.19c-.24,0-.48.06-.73.11a1.32,1.32,0,0,0-.33.08.87.87,0,0,0-.29.14.59.59,0,0,0-.2.24.8.8,0,0,0-.07.36.45.45,0,0,0,.1.31.86.86,0,0,0,.26.2,1.15,1.15,0,0,0,.33.1l.32,0a1.89,1.89,0,0,0,.39-.05,1.4,1.4,0,0,0,.4-.16,1,1,0,0,0,.31-.3.69.69,0,0,0,.13-.43Z"/><path class="cls-5" d="M24.15,271.87a1,1,0,0,0-.37-.7,1.19,1.19,0,0,0-.76-.23,1.56,1.56,0,0,0-.46.07,1.07,1.07,0,0,0-.44.27,1.52,1.52,0,0,0-.34.55,3,3,0,0,0-.06,1.53,1.82,1.82,0,0,0,.23.55,1.27,1.27,0,0,0,.41.39,1.17,1.17,0,0,0,.61.15,1.09,1.09,0,0,0,.79-.3,1.38,1.38,0,0,0,.39-.84h1.1a2.38,2.38,0,0,1-.74,1.49,2.26,2.26,0,0,1-1.54.52,2.61,2.61,0,0,1-1-.2,2.07,2.07,0,0,1-.75-.54,2.33,2.33,0,0,1-.47-.81,3.13,3.13,0,0,1-.16-1,3.19,3.19,0,0,1,.16-1,2.3,2.3,0,0,1,.46-.86,2,2,0,0,1,.76-.56,2.6,2.6,0,0,1,1.08-.21,3.18,3.18,0,0,1,.82.11,2,2,0,0,1,.69.33,1.78,1.78,0,0,1,.73,1.36Z"/><path class="cls-5" d="M26.17,275.18v-5h1.1v5Z"/><path class="cls-5" d="M35.83,275.18h-1v-.67h0a1.31,1.31,0,0,1-.65.62,2.26,2.26,0,0,1-.89.19,2.4,2.4,0,0,1-1-.21,2,2,0,0,1-.72-.57,2.4,2.4,0,0,1-.44-.84,3.84,3.84,0,0,1-.14-1,3.43,3.43,0,0,1,.18-1.17,2.35,2.35,0,0,1,.49-.8,1.77,1.77,0,0,1,.69-.47,2.22,2.22,0,0,1,.8-.15,2.56,2.56,0,0,1,.47,0,2.44,2.44,0,0,1,.46.14,2.14,2.14,0,0,1,.41.25,1.3,1.3,0,0,1,.31.35h0v-2.54h1.1ZM32,272.74a2.18,2.18,0,0,0,.08.63,1.63,1.63,0,0,0,.25.55,1.13,1.13,0,0,0,.43.38,1.2,1.2,0,0,0,.61.15,1.14,1.14,0,0,0,.63-.16,1.3,1.3,0,0,0,.44-.4,2,2,0,0,0,.25-.56,2.8,2.8,0,0,0,.08-.64,2,2,0,0,0-.37-1.29,1.22,1.22,0,0,0-1-.46,1.33,1.33,0,0,0-.65.15,1.44,1.44,0,0,0-.43.42,1.77,1.77,0,0,0-.24.58A2.81,2.81,0,0,0,32,272.74Z"/><path class="cls-5" d="M37.05,275.18v-5h1.1v5Z"/><path class="cls-5" d="M40.27,276.72l.31.12a1.55,1.55,0,0,0,.31,0h.2a.66.66,0,0,0,.2-.06.53.53,0,0,0,.14-.12.39.39,0,0,0,0-.2.31.31,0,0,0-.14-.27.49.49,0,0,0-.3-.1.77.77,0,0,0-.38.1l-.21-.18.54-.72a5.18,5.18,0,0,1-.59-.1,2.19,2.19,0,0,1-.69-.32,1.7,1.7,0,0,1-.46-.54,1.82,1.82,0,0,1-.18-.77h1.1a.82.82,0,0,0,.37.68,1.49,1.49,0,0,0,.75.19l.36,0a1.18,1.18,0,0,0,.37-.09.7.7,0,0,0,.28-.19.45.45,0,0,0,.1-.35.47.47,0,0,0-.15-.34,1.21,1.21,0,0,0-.37-.22,4.81,4.81,0,0,0-.52-.14l-.58-.12a5.25,5.25,0,0,1-.6-.17,1.75,1.75,0,0,1-.51-.26,1.22,1.22,0,0,1-.36-.42,1.34,1.34,0,0,1-.13-.63,1,1,0,0,1,.2-.67,1.36,1.36,0,0,1,.5-.45,2,2,0,0,1,.67-.23,3.56,3.56,0,0,1,.71-.07,3.47,3.47,0,0,1,.73.08,1.93,1.93,0,0,1,.64.27,1.62,1.62,0,0,1,.47.47,1.71,1.71,0,0,1,.24.71H42.19a.68.68,0,0,0-.36-.53,1.51,1.51,0,0,0-.65-.13h-.27a1.32,1.32,0,0,0-.3.08.55.55,0,0,0-.24.15.39.39,0,0,0-.09.26.42.42,0,0,0,.13.33,1,1,0,0,0,.37.21,4.6,4.6,0,0,0,.51.14l.6.12a5.72,5.72,0,0,1,.59.17,1.75,1.75,0,0,1,.51.26,1.22,1.22,0,0,1,.37.41,1.29,1.29,0,0,1,.14.62,1.4,1.4,0,0,1-.2.75,1.69,1.69,0,0,1-.53.5,2.34,2.34,0,0,1-.71.28,4.58,4.58,0,0,1-.62.08l-.34.44h0a.32.32,0,0,1,.14,0h.18a1,1,0,0,1,.29,0,.94.94,0,0,1,.26.14.67.67,0,0,1,.19.22.66.66,0,0,1,.08.32.77.77,0,0,1-.11.42,1,1,0,0,1-.27.26,1.11,1.11,0,0,1-.37.15,1.52,1.52,0,0,1-.42.06,2.24,2.24,0,0,1-.52-.06,1.74,1.74,0,0,1-.47-.16Z"/><path class="cls-5" d="M44.37,275.18v-5h1.09v5Z"/><path class="cls-5" d="M46.66,270.2h1v.74h0a1.75,1.75,0,0,1,1.55-.88,1.89,1.89,0,0,1,1.29.42,1.65,1.65,0,0,1,.47,1.27v3.42h-1.1v-3.13a1.36,1.36,0,0,0-.25-.85.88.88,0,0,0-.72-.26,1.15,1.15,0,0,0-.5.1,1,1,0,0,0-.38.28,1.27,1.27,0,0,0-.24.41,1.52,1.52,0,0,0-.09.51v2.94H46.66Z"/><path class="cls-5" d="M56.87,275.18h-1v-.67h0a1.33,1.33,0,0,1-.64.62,2.4,2.4,0,0,1-1.92,0,2,2,0,0,1-.73-.57,2.23,2.23,0,0,1-.43-.84,3.49,3.49,0,0,1-.15-1,3.43,3.43,0,0,1,.18-1.17,2.52,2.52,0,0,1,.49-.8,1.77,1.77,0,0,1,.69-.47,2.22,2.22,0,0,1,.8-.15,2.56,2.56,0,0,1,.47,0,2.44,2.44,0,0,1,.46.14,1.87,1.87,0,0,1,.41.25,1.15,1.15,0,0,1,.31.35h0v-2.54h1.1ZM53,272.74a2.59,2.59,0,0,0,.08.63,1.85,1.85,0,0,0,.25.55,1.26,1.26,0,0,0,1.05.53,1.18,1.18,0,0,0,.63-.16,1.27,1.27,0,0,0,.43-.4,1.78,1.78,0,0,0,.25-.56,2.8,2.8,0,0,0,.08-.64,2,2,0,0,0-.37-1.29,1.21,1.21,0,0,0-1-.46,1.28,1.28,0,0,0-.65.15,1.36,1.36,0,0,0-.44.42,1.77,1.77,0,0,0-.24.58A2.81,2.81,0,0,0,53,272.74Z"/><path class="cls-5" d="M62.23,274.07a.52.52,0,0,0,.06.29.2.2,0,0,0,.2.09h.12l.15,0v.76l-.15,0-.19,0-.19,0h-.16a1.06,1.06,0,0,1-.56-.14.69.69,0,0,1-.29-.47,2,2,0,0,1-.8.46,3.1,3.1,0,0,1-.92.15,2.32,2.32,0,0,1-.65-.1,1.71,1.71,0,0,1-.54-.27,1.29,1.29,0,0,1-.38-.45,1.41,1.41,0,0,1-.14-.64,1.49,1.49,0,0,1,.17-.75,1.29,1.29,0,0,1,.45-.45,1.94,1.94,0,0,1,.61-.24c.23-.05.46-.08.69-.11s.39-.06.57-.08a2.69,2.69,0,0,0,.47-.08.75.75,0,0,0,.33-.18.49.49,0,0,0,.12-.36.56.56,0,0,0-.1-.35.6.6,0,0,0-.25-.2,1.15,1.15,0,0,0-.33-.1,2.11,2.11,0,0,0-.35,0,1.36,1.36,0,0,0-.76.19.75.75,0,0,0-.34.59H58a1.57,1.57,0,0,1,.23-.79,1.39,1.39,0,0,1,.51-.51,2.09,2.09,0,0,1,.71-.27,3.59,3.59,0,0,1,.81-.08,2.94,2.94,0,0,1,.72.08,1.9,1.9,0,0,1,.64.25,1.38,1.38,0,0,1,.46.44,1.31,1.31,0,0,1,.17.67Zm-1.1-1.38a1.26,1.26,0,0,1-.61.19c-.25,0-.49.06-.73.11a1.3,1.3,0,0,0-.34.08.87.87,0,0,0-.29.14.68.68,0,0,0-.2.24,1,1,0,0,0-.07.36.45.45,0,0,0,.11.31.82.82,0,0,0,.25.2,1.15,1.15,0,0,0,.33.1l.32,0a2,2,0,0,0,.4-.05,1.52,1.52,0,0,0,.4-.16,1.11,1.11,0,0,0,.31-.3.75.75,0,0,0,.12-.43Z"/><path class="cls-5" d="M65.6,270.2h1.19L68.06,274h0l1.22-3.83h1.13l-1.78,5H67.41Z"/><path class="cls-5" d="M71.94,273a1.67,1.67,0,0,0,.09.55,1.35,1.35,0,0,0,.24.48,1.23,1.23,0,0,0,.42.32,1.54,1.54,0,0,0,1.37-.09,1.27,1.27,0,0,0,.44-.62h1a2.11,2.11,0,0,1-.3.72,2.18,2.18,0,0,1-.51.54,2.3,2.3,0,0,1-.67.32,2.54,2.54,0,0,1-.78.12,2.61,2.61,0,0,1-1-.2,2.19,2.19,0,0,1-.76-.54,2.15,2.15,0,0,1-.47-.82,3.27,3.27,0,0,1-.16-1.06,2.82,2.82,0,0,1,.17-1,2.49,2.49,0,0,1,.48-.84,2.24,2.24,0,0,1,1.75-.78,2.3,2.3,0,0,1,1.06.24,2.32,2.32,0,0,1,.77.65,2.52,2.52,0,0,1,.45.93A2.83,2.83,0,0,1,75.6,273Zm2.56-.73a1.45,1.45,0,0,0-.11-.5,1.27,1.27,0,0,0-.25-.42,1.21,1.21,0,0,0-.38-.28,1.06,1.06,0,0,0-.51-.11,1.27,1.27,0,0,0-.52.1,1.15,1.15,0,0,0-.41.28,1.33,1.33,0,0,0-.27.41,1.86,1.86,0,0,0-.11.52Z"/><path class="cls-5" d="M83.28,274.07a.52.52,0,0,0,.06.29.2.2,0,0,0,.2.09h.12l.15,0v.76l-.15,0-.18,0-.2,0h-.16a1.08,1.08,0,0,1-.56-.14.69.69,0,0,1-.29-.47,2,2,0,0,1-.8.46,3,3,0,0,1-.92.15,2.25,2.25,0,0,1-.64-.1,1.66,1.66,0,0,1-.55-.27,1.17,1.17,0,0,1-.37-.45,1.29,1.29,0,0,1-.14-.64,1.39,1.39,0,0,1,.17-.75,1.27,1.27,0,0,1,.44-.45,2,2,0,0,1,.61-.24c.23-.05.46-.08.69-.11s.39-.06.57-.08a3,3,0,0,0,.48-.08.77.77,0,0,0,.32-.18.49.49,0,0,0,.12-.36.56.56,0,0,0-.1-.35.55.55,0,0,0-.25-.2,1.15,1.15,0,0,0-.33-.1,2.11,2.11,0,0,0-.35,0,1.38,1.38,0,0,0-.76.19.72.72,0,0,0-.33.59H79a1.67,1.67,0,0,1,.23-.79,1.49,1.49,0,0,1,.52-.51,2,2,0,0,1,.7-.27,3.71,3.71,0,0,1,.81-.08,2.84,2.84,0,0,1,.72.08,1.9,1.9,0,0,1,.64.25,1.3,1.3,0,0,1,.46.44,1.22,1.22,0,0,1,.17.67Zm-1.09-1.38a1.33,1.33,0,0,1-.62.19c-.24,0-.49.06-.73.11a1.3,1.3,0,0,0-.34.08,1,1,0,0,0-.29.14.57.57,0,0,0-.19.24.8.8,0,0,0-.08.36.45.45,0,0,0,.11.31,1,1,0,0,0,.25.2,1.15,1.15,0,0,0,.33.1l.33,0a1.89,1.89,0,0,0,.39-.05,1.52,1.52,0,0,0,.4-.16,1.11,1.11,0,0,0,.31-.3.75.75,0,0,0,.13-.43Z"/><path class="cls-5" d="M85.3,273.58a.84.84,0,0,0,.36.68,1.53,1.53,0,0,0,.76.19l.35,0a1.06,1.06,0,0,0,.37-.09.73.73,0,0,0,.29-.19.49.49,0,0,0,.1-.35.51.51,0,0,0-.15-.34,1.15,1.15,0,0,0-.38-.22,4.6,4.6,0,0,0-.51-.14L85.9,273a5.72,5.72,0,0,1-.59-.17,1.75,1.75,0,0,1-.51-.26,1.22,1.22,0,0,1-.36-.42,1.33,1.33,0,0,1-.14-.63,1.11,1.11,0,0,1,.2-.67,1.44,1.44,0,0,1,.5-.45,2.19,2.19,0,0,1,.68-.23,3.46,3.46,0,0,1,.7-.07,3.5,3.5,0,0,1,.74.08,2,2,0,0,1,.64.27,1.62,1.62,0,0,1,.47.47,1.7,1.7,0,0,1,.23.71H87.32a.68.68,0,0,0-.36-.53,1.51,1.51,0,0,0-.65-.13H86a1.67,1.67,0,0,0-.3.08.51.51,0,0,0-.23.15.35.35,0,0,0-.1.26.42.42,0,0,0,.14.33,1,1,0,0,0,.37.21,4.6,4.6,0,0,0,.51.14l.6.12c.2.05.39.1.59.17a1.75,1.75,0,0,1,.51.26,1.33,1.33,0,0,1,.37.41,1.29,1.29,0,0,1,.14.62,1.32,1.32,0,0,1-.21.75,1.56,1.56,0,0,1-.52.5,2.4,2.4,0,0,1-.72.28,3.46,3.46,0,0,1-1.65,0,2.19,2.19,0,0,1-.69-.32,1.58,1.58,0,0,1-.46-.54,1.68,1.68,0,0,1-.18-.77Z"/><path class="cls-5" d="M89.49,268.31h1.1v6.87h-1.1Z"/><path class="cls-5" d="M91.81,275.18v-5h1.1v5Z"/><path class="cls-5" d="M94.1,270.2h1v.74h0a2,2,0,0,1,.66-.65,1.79,1.79,0,0,1,.89-.23,1.86,1.86,0,0,1,1.29.42,1.62,1.62,0,0,1,.47,1.27v3.42H97.38v-3.13a1.43,1.43,0,0,0-.25-.85.92.92,0,0,0-.73-.26,1.18,1.18,0,0,0-.5.1,1,1,0,0,0-.37.28,1.27,1.27,0,0,0-.24.41,1.52,1.52,0,0,0-.09.51v2.94H94.1Z"/><path class="cls-5" d="M103.8,274.07a.54.54,0,0,0,0,.29q0,.09.21.09h.11l.16,0v.76l-.15,0-.19,0-.19,0h-.17a1,1,0,0,1-.55-.14.66.66,0,0,1-.29-.47,2,2,0,0,1-.81.46,3,3,0,0,1-.92.15,2.25,2.25,0,0,1-.64-.1,1.52,1.52,0,0,1-.54-.27,1.19,1.19,0,0,1-.38-.45,1.41,1.41,0,0,1-.14-.64,1.49,1.49,0,0,1,.17-.75,1.27,1.27,0,0,1,.44-.45,2,2,0,0,1,.62-.24c.22-.05.45-.08.69-.11s.38-.06.56-.08a3,3,0,0,0,.48-.08.75.75,0,0,0,.33-.18.49.49,0,0,0,.12-.36.63.63,0,0,0-.1-.35.6.6,0,0,0-.25-.2,1.13,1.13,0,0,0-.34-.1,2,2,0,0,0-.34,0,1.36,1.36,0,0,0-.76.19.75.75,0,0,0-.34.59h-1.1a1.67,1.67,0,0,1,.23-.79,1.49,1.49,0,0,1,.52-.51,2,2,0,0,1,.71-.27,3.56,3.56,0,0,1,.8-.08,3,3,0,0,1,.73.08,2,2,0,0,1,.64.25,1.27,1.27,0,0,1,.45.44,1.22,1.22,0,0,1,.18.67Zm-1.1-1.38a1.3,1.3,0,0,1-.62.19c-.24,0-.48.06-.73.11a1.23,1.23,0,0,0-.33.08.87.87,0,0,0-.29.14.59.59,0,0,0-.2.24.8.8,0,0,0-.07.36.45.45,0,0,0,.1.31.86.86,0,0,0,.26.2,1.19,1.19,0,0,0,.32.1l.33,0a1.89,1.89,0,0,0,.39-.05,1.4,1.4,0,0,0,.4-.16,1,1,0,0,0,.31-.3.69.69,0,0,0,.13-.43Z"/><path class="cls-5" d="M111.83,274.07a.54.54,0,0,0,0,.29.2.2,0,0,0,.2.09h.12l.15,0v.76l-.14,0-.19,0-.19,0h-.17a1.08,1.08,0,0,1-.56-.14.72.72,0,0,1-.29-.47,1.92,1.92,0,0,1-.8.46,3,3,0,0,1-.92.15,2.25,2.25,0,0,1-.64-.1,1.66,1.66,0,0,1-.55-.27,1.26,1.26,0,0,1-.37-.45,1.29,1.29,0,0,1-.14-.64,1.39,1.39,0,0,1,.17-.75,1.27,1.27,0,0,1,.44-.45,2,2,0,0,1,.62-.24c.22-.05.45-.08.68-.11s.39-.06.57-.08a3,3,0,0,0,.48-.08.71.71,0,0,0,.32-.18.49.49,0,0,0,.12-.36.56.56,0,0,0-.1-.35.55.55,0,0,0-.25-.2,1.15,1.15,0,0,0-.33-.1,2,2,0,0,0-.34,0,1.4,1.4,0,0,0-.77.19.74.74,0,0,0-.33.59h-1.1a1.67,1.67,0,0,1,.23-.79,1.49,1.49,0,0,1,.52-.51,2,2,0,0,1,.7-.27,3.71,3.71,0,0,1,.81-.08,2.84,2.84,0,0,1,.72.08,2,2,0,0,1,.65.25,1.35,1.35,0,0,1,.45.44,1.22,1.22,0,0,1,.18.67Zm-1.1-1.38a1.3,1.3,0,0,1-.62.19c-.24,0-.49.06-.73.11a1.3,1.3,0,0,0-.34.08,1,1,0,0,0-.29.14.65.65,0,0,0-.19.24.8.8,0,0,0-.08.36.45.45,0,0,0,.11.31.86.86,0,0,0,.26.2,1.09,1.09,0,0,0,.32.1l.33,0a1.89,1.89,0,0,0,.39-.05,1.52,1.52,0,0,0,.4-.16,1,1,0,0,0,.31-.3.69.69,0,0,0,.13-.43Z"/><path class="cls-5" d="M112.46,270.2h1.2l1.3,3.72h0l1.26-3.72h1.15l-1.94,5.25c-.09.22-.17.44-.26.64a2.27,2.27,0,0,1-.32.55,1.23,1.23,0,0,1-.47.37,1.47,1.47,0,0,1-.71.14,6.47,6.47,0,0,1-.76,0v-.93l.26.05.26,0a.93.93,0,0,0,.32-.05.6.6,0,0,0,.21-.14.93.93,0,0,0,.14-.22c0-.08.07-.18.1-.28l.13-.39Z"/><path class="cls-5" d="M118,268.31h1.1v3.91l2-2h1.35l-1.9,1.83,2.08,3.15h-1.33l-1.52-2.42-.66.64v1.78H118Z"/><path class="cls-5" d="M123.2,275.18v-5h1.1v5Z"/><path class="cls-5" d="M125.49,270.2h1v1h0a1.13,1.13,0,0,1,.19-.4,1.87,1.87,0,0,1,.34-.35,1.6,1.6,0,0,1,.44-.26,1.37,1.37,0,0,1,.49-.09h.26l.15,0v1.06l-.24,0h-.23a1.36,1.36,0,0,0-.53.11,1.1,1.1,0,0,0-.42.33,1.42,1.42,0,0,0-.29.53,2.33,2.33,0,0,0-.11.73v2.37h-1.1Z"/><path class="cls-5" d="M128.91,275.18v-5H130v5Z"/><path class="cls-5" d="M133.88,270.2h1v1h0a1,1,0,0,1,.19-.4,1.81,1.81,0,0,1,.33-.35,1.76,1.76,0,0,1,.44-.26,1.37,1.37,0,0,1,.49-.09h.27l.14,0v1.06l-.23,0h-.24a1.31,1.31,0,0,0-.52.11,1.06,1.06,0,0,0-.43.33,1.58,1.58,0,0,0-.29.53,2.33,2.33,0,0,0-.11.73v2.37h-1.09Z"/><path class="cls-5" d="M138,273a2,2,0,0,0,.08.55,1.57,1.57,0,0,0,.25.48,1.19,1.19,0,0,0,.41.32,1.4,1.4,0,0,0,.6.12,1.28,1.28,0,0,0,.77-.21,1.21,1.21,0,0,0,.44-.62h1a2.11,2.11,0,0,1-.3.72,2,2,0,0,1-1.18.86,2.43,2.43,0,0,1-.77.12,2.61,2.61,0,0,1-1-.2,2.23,2.23,0,0,1-.77-.54,2.29,2.29,0,0,1-.47-.82,3.57,3.57,0,0,1-.16-1.06,3.06,3.06,0,0,1,.17-1,2.49,2.49,0,0,1,.48-.84,2.27,2.27,0,0,1,.76-.57,2.29,2.29,0,0,1,1-.21,2.26,2.26,0,0,1,1.05.24,2.47,2.47,0,0,1,.78.65,2.87,2.87,0,0,1,.45.93,3,3,0,0,1,.07,1.09Zm2.56-.73a1.72,1.72,0,0,0-.11-.5,1.19,1.19,0,0,0-.64-.7,1,1,0,0,0-.5-.11,1.32,1.32,0,0,0-.53.1,1.12,1.12,0,0,0-.4.28,1.33,1.33,0,0,0-.27.41,1.56,1.56,0,0,0-.11.52Z"/><path class="cls-5" d="M142.45,270.2h1v.74h0a2,2,0,0,1,.66-.65,1.82,1.82,0,0,1,.89-.23,1.86,1.86,0,0,1,1.29.42,1.62,1.62,0,0,1,.48,1.27v3.42h-1.1v-3.13a1.36,1.36,0,0,0-.25-.85.91.91,0,0,0-.72-.26,1.12,1.12,0,0,0-.5.1,1,1,0,0,0-.38.28,1.27,1.27,0,0,0-.24.41,1.52,1.52,0,0,0-.09.51v2.94h-1.09Z"/><path class="cls-5" d="M148,268.31h1.1v3.91l2-2h1.35L150.52,272l2.09,3.15h-1.34l-1.52-2.42-.65.64v1.78H148Z"/><path class="cls-5" d="M153.23,273.88h1.33v1.3a1.44,1.44,0,0,1-.36,1,1.65,1.65,0,0,1-.94.52v-.59a.69.69,0,0,0,.48-.35,1,1,0,0,0,.15-.58h-.66Z"/><path class="cls-5" d="M163.18,275.18h-1v-.67h0a1.33,1.33,0,0,1-.64.62,2.34,2.34,0,0,1-.9.19,2.4,2.4,0,0,1-1-.21,2,2,0,0,1-.72-.57,2.23,2.23,0,0,1-.43-.84,3.49,3.49,0,0,1-.15-1,3.43,3.43,0,0,1,.18-1.17,2.52,2.52,0,0,1,.49-.8,1.77,1.77,0,0,1,.69-.47,2.22,2.22,0,0,1,.8-.15,2.56,2.56,0,0,1,.47,0,2.44,2.44,0,0,1,.46.14,2.14,2.14,0,0,1,.41.25,1.15,1.15,0,0,1,.31.35h0v-2.54h1.1Zm-3.83-2.44a2.59,2.59,0,0,0,.08.63,1.63,1.63,0,0,0,.25.55,1.26,1.26,0,0,0,1,.53,1.19,1.19,0,0,0,.64-.16,1.27,1.27,0,0,0,.43-.4,2,2,0,0,0,.25-.56,2.8,2.8,0,0,0,.08-.64,2,2,0,0,0-.37-1.29,1.22,1.22,0,0,0-1-.46,1.33,1.33,0,0,0-.65.15,1.44,1.44,0,0,0-.43.42,1.77,1.77,0,0,0-.24.58A2.81,2.81,0,0,0,159.35,272.74Z"/><path class="cls-5" d="M168.74,275.18h-1.07v-.69h0a1.53,1.53,0,0,1-.61.6,1.61,1.61,0,0,1-.81.23,1.85,1.85,0,0,1-1.42-.49,2.15,2.15,0,0,1-.44-1.47V270.2h1.1v3.06a1.33,1.33,0,0,0,.25.92.91.91,0,0,0,.7.27,1.39,1.39,0,0,0,.58-.11,1.08,1.08,0,0,0,.38-.28,1.14,1.14,0,0,0,.2-.43,2.35,2.35,0,0,0,.07-.54V270.2h1.09Zm-3.57-5.79v-1h1.1v1Zm2.75-1v1h-1.09v-1Z"/><path class="cls-5" d="M169.72,270.2h4.05V271l-2.85,3.34h3v.87h-4.38v-.77l2.76-3.34h-2.57Z"/><path class="cls-5" d="M175.57,273a2,2,0,0,0,.08.55,1.38,1.38,0,0,0,.25.48,1.11,1.11,0,0,0,.41.32,1.4,1.4,0,0,0,.6.12,1.28,1.28,0,0,0,.77-.21,1.21,1.21,0,0,0,.44-.62h1a2.11,2.11,0,0,1-.3.72,2,2,0,0,1-1.18.86,2.48,2.48,0,0,1-.77.12,2.57,2.57,0,0,1-1-.2,2.14,2.14,0,0,1-.77-.54,2.29,2.29,0,0,1-.47-.82,3.27,3.27,0,0,1-.16-1.06,3.06,3.06,0,0,1,.17-1,2.49,2.49,0,0,1,.48-.84,2.39,2.39,0,0,1,2.81-.54,2.47,2.47,0,0,1,.78.65,2.66,2.66,0,0,1,.44.93,2.83,2.83,0,0,1,.08,1.09Zm2.56-.73a1.72,1.72,0,0,0-.11-.5,1.46,1.46,0,0,0-.25-.42,1.39,1.39,0,0,0-.39-.28,1,1,0,0,0-.5-.11,1.29,1.29,0,0,0-.53.1,1.12,1.12,0,0,0-.4.28,1.33,1.33,0,0,0-.27.41,1.35,1.35,0,0,0-.11.52Z"/><path class="cls-5" d="M180.06,270.2h1v.74h0a2,2,0,0,1,.66-.65,1.79,1.79,0,0,1,.89-.23,1.86,1.86,0,0,1,1.29.42,1.62,1.62,0,0,1,.47,1.27v3.42h-1.09v-3.13a1.43,1.43,0,0,0-.25-.85.92.92,0,0,0-.73-.26,1.18,1.18,0,0,0-.5.1,1,1,0,0,0-.37.28,1,1,0,0,0-.24.41,1.52,1.52,0,0,0-.09.51v2.94h-1.1Z"/><path class="cls-5" d="M187.77,270.2H189l1.26,3.83h0l1.21-3.83h1.14l-1.78,5h-1.24Z"/><path class="cls-5" d="M194.12,273a1.67,1.67,0,0,0,.08.55,1.38,1.38,0,0,0,.25.48,1.11,1.11,0,0,0,.41.32,1.37,1.37,0,0,0,.6.12,1.28,1.28,0,0,0,.77-.21,1.21,1.21,0,0,0,.44-.62h1a2.11,2.11,0,0,1-.3.72,2,2,0,0,1-1.18.86,2.53,2.53,0,0,1-.77.12,2.57,2.57,0,0,1-1-.2,2.14,2.14,0,0,1-.77-.54,2.29,2.29,0,0,1-.47-.82,3.27,3.27,0,0,1-.16-1.06,3.06,3.06,0,0,1,.17-1,2.49,2.49,0,0,1,.48-.84,2.39,2.39,0,0,1,2.81-.54,2.47,2.47,0,0,1,.78.65,2.66,2.66,0,0,1,.44.93,2.83,2.83,0,0,1,.08,1.09Zm2.56-.73a1.72,1.72,0,0,0-.11-.5,1.46,1.46,0,0,0-.25-.42,1.39,1.39,0,0,0-.39-.28,1,1,0,0,0-.5-.11,1.29,1.29,0,0,0-.53.1,1,1,0,0,0-.4.28,1,1,0,0,0-.27.41,1.35,1.35,0,0,0-.11.52Z"/><path class="cls-5" d="M201.32,268.31h1.09v2.54h0a1.56,1.56,0,0,1,.64-.57,2.14,2.14,0,0,1,.42-.16,2.1,2.1,0,0,1,.43-.05,2.32,2.32,0,0,1,1,.21,1.93,1.93,0,0,1,.73.56,2.35,2.35,0,0,1,.43.85,3.42,3.42,0,0,1,.15,1,4,4,0,0,1-.13,1,2.56,2.56,0,0,1-.4.83,2.09,2.09,0,0,1-.67.58,2,2,0,0,1-1,.22,4.38,4.38,0,0,1-.51,0,1.55,1.55,0,0,1-.48-.13,1.46,1.46,0,0,1-.42-.25,1.13,1.13,0,0,1-.31-.4h0v.68h-1Zm3.83,4.39a2.39,2.39,0,0,0-.09-.66,1.7,1.7,0,0,0-.26-.56,1.37,1.37,0,0,0-.43-.4,1.16,1.16,0,0,0-.6-.14,1.2,1.2,0,0,0-1,.48,2.07,2.07,0,0,0-.35,1.28,2.63,2.63,0,0,0,.09.7,1.66,1.66,0,0,0,.27.55,1.39,1.39,0,0,0,.44.36,1.25,1.25,0,0,0,.59.14,1.19,1.19,0,0,0,.64-.16,1.45,1.45,0,0,0,.43-.39,1.76,1.76,0,0,0,.24-.56A3.48,3.48,0,0,0,205.15,272.7Z"/><path class="cls-5" d="M211.54,275.18h-1.08v-.69h0a1.45,1.45,0,0,1-.6.6,1.66,1.66,0,0,1-.81.23,1.83,1.83,0,0,1-1.42-.49,2.15,2.15,0,0,1-.44-1.47V270.2h1.1v3.06a1.33,1.33,0,0,0,.25.92.9.9,0,0,0,.7.27,1.43,1.43,0,0,0,.58-.11,1,1,0,0,0,.37-.28,1,1,0,0,0,.21-.43,2.35,2.35,0,0,0,.06-.54V270.2h1.1ZM208,269.39v-1h1.1v1Zm2.75-1v1h-1.1v-1Z"/><path class="cls-5" d="M212.15,270.2h1.2l1.3,3.72h0l1.26-3.72h1.15l-1.94,5.25-.26.64a2.65,2.65,0,0,1-.32.55,1.31,1.31,0,0,1-.47.37,1.5,1.5,0,0,1-.71.14,6.33,6.33,0,0,1-.76,0v-.93l.26.05.26,0a1,1,0,0,0,.32-.05.48.48,0,0,0,.2-.14.69.69,0,0,0,.14-.22,1.82,1.82,0,0,0,.11-.28l.12-.39Z"/><path class="cls-5" d="M222.06,275.18H221v-.69h0a1.45,1.45,0,0,1-.6.6,1.61,1.61,0,0,1-.81.23,1.83,1.83,0,0,1-1.42-.49,2.15,2.15,0,0,1-.44-1.47V270.2h1.1v3.06a1.33,1.33,0,0,0,.25.92.91.91,0,0,0,.7.27,1.39,1.39,0,0,0,.58-.11,1.08,1.08,0,0,0,.38-.28,1.14,1.14,0,0,0,.2-.43,2.35,2.35,0,0,0,.06-.54V270.2h1.1Zm-3.57-5.79v-1h1.1v1Zm2.75-1v1h-1.09v-1Z"/><path class="cls-5" d="M223.25,268.31h1.09v3.91l2-2h1.34l-1.9,1.83,2.09,3.15h-1.34L225,272.76l-.66.64v1.78h-1.09Z"/><path class="cls-5" d="M228.41,268.31h1.1v6.87h-1.1Z"/><path class="cls-5" d="M235.08,275.18H234v-.69h0a1.57,1.57,0,0,1-.6.6,1.67,1.67,0,0,1-.82.23,1.86,1.86,0,0,1-1.42-.49,2.15,2.15,0,0,1-.43-1.47V270.2h1.09v3.06a1.39,1.39,0,0,0,.25.92.92.92,0,0,0,.71.27,1.35,1.35,0,0,0,.57-.11,1,1,0,0,0,.38-.28,1.33,1.33,0,0,0,.21-.43,2.35,2.35,0,0,0,.06-.54V270.2h1.1Zm-3.58-5.79v-1h1.1v1Zm2.76-1v1h-1.1v-1Z"/><path class="cls-5" d="M236.26,268.31h1.1v3.91l2-2h1.35L238.78,272l2.09,3.15h-1.34L238,272.76l-.65.64v1.78h-1.1Z"/><path class="cls-5" d="M241.43,268.31h1.1v6.87h-1.1Z"/><path class="cls-5" d="M244.58,273a1.67,1.67,0,0,0,.08.55,1.35,1.35,0,0,0,.24.48,1.23,1.23,0,0,0,.42.32,1.54,1.54,0,0,0,1.37-.09,1.27,1.27,0,0,0,.44-.62h1a2.11,2.11,0,0,1-.3.72,2,2,0,0,1-1.18.86,2.68,2.68,0,0,1-1.81-.08,2.17,2.17,0,0,1-1.24-1.36,3.27,3.27,0,0,1-.16-1.06,3.06,3.06,0,0,1,.17-1,2.49,2.49,0,0,1,.48-.84,2.24,2.24,0,0,1,1.76-.78,2.26,2.26,0,0,1,1.05.24,2.32,2.32,0,0,1,.77.65,2.52,2.52,0,0,1,.45.93,2.83,2.83,0,0,1,.07,1.09Zm2.56-.73a2.13,2.13,0,0,0-.11-.5,1.73,1.73,0,0,0-.25-.42,1.39,1.39,0,0,0-.39-.28,1,1,0,0,0-.5-.11,1.29,1.29,0,0,0-.53.1,1,1,0,0,0-.4.28,1,1,0,0,0-.27.41,1.35,1.35,0,0,0-.11.52Z"/><path class="cls-5" d="M249.07,270.2h1v1h0a1,1,0,0,1,.19-.4,1.6,1.6,0,0,1,.34-.35,1.7,1.7,0,0,1,.43-.26,1.41,1.41,0,0,1,.49-.09h.27l.15,0v1.06l-.24,0h-.23a1.36,1.36,0,0,0-.53.11,1.21,1.21,0,0,0-.43.33,1.57,1.57,0,0,0-.28.53,2.08,2.08,0,0,0-.11.73v2.37h-1.1Z"/><path class="cls-5" d="M257,275.18h-1v-.67h0a1.35,1.35,0,0,1-.65.62,2.26,2.26,0,0,1-.89.19,2.34,2.34,0,0,1-1-.21,2.16,2.16,0,0,1-.73-.57,2.38,2.38,0,0,1-.43-.84,3.49,3.49,0,0,1-.14-1,3.43,3.43,0,0,1,.18-1.17,2.34,2.34,0,0,1,.48-.8,1.88,1.88,0,0,1,.7-.47,2.17,2.17,0,0,1,.79-.15,2.49,2.49,0,0,1,.47,0,2.54,2.54,0,0,1,.47.14,2.06,2.06,0,0,1,.4.25,1.34,1.34,0,0,1,.32.35h0v-2.54H257Zm-3.83-2.44a2.59,2.59,0,0,0,.08.63,1.64,1.64,0,0,0,.26.55,1.18,1.18,0,0,0,.42.38,1.24,1.24,0,0,0,.62.15,1.25,1.25,0,0,0,1.06-.56,1.58,1.58,0,0,0,.25-.56,2.35,2.35,0,0,0,.09-.64,2,2,0,0,0-.38-1.29,1.2,1.2,0,0,0-1-.46,1.3,1.3,0,0,0-.65.15,1.33,1.33,0,0,0-.43.42,1.6,1.6,0,0,0-.25.58A3.5,3.5,0,0,0,253.14,272.74Z"/><path class="cls-5" d="M259,273a1.67,1.67,0,0,0,.09.55,1.35,1.35,0,0,0,.24.48,1.23,1.23,0,0,0,.42.32,1.54,1.54,0,0,0,1.37-.09,1.27,1.27,0,0,0,.44-.62h1a2.11,2.11,0,0,1-.3.72,2.18,2.18,0,0,1-.51.54,2.3,2.3,0,0,1-.67.32,2.54,2.54,0,0,1-.78.12,2.61,2.61,0,0,1-1-.2,2.19,2.19,0,0,1-.76-.54,2.15,2.15,0,0,1-.47-.82,3.27,3.27,0,0,1-.16-1.06,2.82,2.82,0,0,1,.17-1,2.49,2.49,0,0,1,.48-.84,2.24,2.24,0,0,1,1.75-.78,2.3,2.3,0,0,1,1.06.24,2.32,2.32,0,0,1,.77.65,2.52,2.52,0,0,1,.45.93,2.83,2.83,0,0,1,.07,1.09Zm2.56-.73a1.45,1.45,0,0,0-.11-.5,1.27,1.27,0,0,0-.25-.42,1.21,1.21,0,0,0-.38-.28,1.06,1.06,0,0,0-.51-.11,1.27,1.27,0,0,0-.52.1,1.15,1.15,0,0,0-.41.28,1.33,1.33,0,0,0-.27.41,1.86,1.86,0,0,0-.11.52Z"/><path class="cls-5" d="M266.22,268.31h1.1v3.91l2-2h1.34l-1.9,1.83,2.09,3.15H269.5L268,272.76l-.66.64v1.78h-1.1Z"/><path class="cls-5" d="M275.74,275.18h-1.08v-.69h0a1.57,1.57,0,0,1-.6.6,1.67,1.67,0,0,1-.82.23,1.86,1.86,0,0,1-1.42-.49,2.15,2.15,0,0,1-.43-1.47V270.2h1.09v3.06a1.39,1.39,0,0,0,.25.92.92.92,0,0,0,.71.27,1.35,1.35,0,0,0,.57-.11,1,1,0,0,0,.38-.28,1.33,1.33,0,0,0,.21-.43,2.35,2.35,0,0,0,.06-.54V270.2h1.1Z"/><path class="cls-5" d="M276.92,268.31H278v6.87h-1.1Z"/><path class="cls-5" d="M279.24,268.31h1.1v6.87h-1.1Z"/><path class="cls-5" d="M285.7,274.07a.65.65,0,0,0,.05.29.23.23,0,0,0,.21.09h.11l.16,0v.76l-.15,0-.19,0-.19,0h-.16a1,1,0,0,1-.56-.14.66.66,0,0,1-.29-.47,2,2,0,0,1-.81.46,3,3,0,0,1-.92.15,2.31,2.31,0,0,1-.64-.1,1.52,1.52,0,0,1-.54-.27,1.19,1.19,0,0,1-.38-.45,1.41,1.41,0,0,1-.14-.64,1.49,1.49,0,0,1,.17-.75,1.27,1.27,0,0,1,.44-.45,2,2,0,0,1,.62-.24c.23-.05.46-.08.69-.11s.38-.06.56-.08a3,3,0,0,0,.48-.08.75.75,0,0,0,.33-.18.49.49,0,0,0,.12-.36.63.63,0,0,0-.1-.35.6.6,0,0,0-.25-.2,1.13,1.13,0,0,0-.34-.1,2,2,0,0,0-.34,0,1.36,1.36,0,0,0-.76.19.75.75,0,0,0-.34.59h-1.1a1.67,1.67,0,0,1,.23-.79,1.49,1.49,0,0,1,.52-.51,2,2,0,0,1,.71-.27,3.59,3.59,0,0,1,.81-.08,2.94,2.94,0,0,1,.72.08,1.9,1.9,0,0,1,.64.25,1.38,1.38,0,0,1,.46.44,1.31,1.31,0,0,1,.17.67Zm-1.1-1.38a1.3,1.3,0,0,1-.62.19c-.24,0-.48.06-.73.11a1.32,1.32,0,0,0-.33.08.87.87,0,0,0-.29.14.59.59,0,0,0-.2.24.8.8,0,0,0-.07.36.45.45,0,0,0,.1.31,1,1,0,0,0,.26.2,1.15,1.15,0,0,0,.33.1l.32,0a1.89,1.89,0,0,0,.39-.05,1.4,1.4,0,0,0,.4-.16,1.14,1.14,0,0,0,.32-.3.75.75,0,0,0,.12-.43Z"/><path class="cls-5" d="M286.88,270.2h1v.74h0a2,2,0,0,1,.66-.65,1.79,1.79,0,0,1,.89-.23,1.86,1.86,0,0,1,1.29.42,1.62,1.62,0,0,1,.47,1.27v3.42h-1.09v-3.13a1.36,1.36,0,0,0-.26-.85.88.88,0,0,0-.72-.26,1.18,1.18,0,0,0-.5.1,1,1,0,0,0-.37.28,1,1,0,0,0-.24.41,1.52,1.52,0,0,0-.09.51v2.94h-1.1Z"/><path class="cls-5" d="M292.44,275.18v-5h1.09v5Z"/><path class="cls-5" d="M294.76,268.31h1.09v6.87h-1.09Z"/><path class="cls-5" d="M301.21,274.07a.52.52,0,0,0,.06.29.2.2,0,0,0,.2.09h.12l.15,0v.76l-.14,0-.19,0-.2,0h-.16a1.08,1.08,0,0,1-.56-.14.68.68,0,0,1-.28-.47,2,2,0,0,1-.81.46,3,3,0,0,1-.92.15,2.25,2.25,0,0,1-.64-.1,1.66,1.66,0,0,1-.55-.27,1.17,1.17,0,0,1-.37-.45,1.29,1.29,0,0,1-.14-.64,1.39,1.39,0,0,1,.17-.75,1.27,1.27,0,0,1,.44-.45,2,2,0,0,1,.61-.24c.23-.05.46-.08.69-.11s.39-.06.57-.08a3,3,0,0,0,.48-.08.71.71,0,0,0,.32-.18.49.49,0,0,0,.13-.36.56.56,0,0,0-.11-.35.55.55,0,0,0-.25-.2,1.15,1.15,0,0,0-.33-.1,2.06,2.06,0,0,0-.34,0,1.4,1.4,0,0,0-.77.19.74.74,0,0,0-.33.59H297a1.67,1.67,0,0,1,.23-.79,1.49,1.49,0,0,1,.52-.51,2,2,0,0,1,.7-.27,3.71,3.71,0,0,1,.81-.08,3,3,0,0,1,.73.08,1.85,1.85,0,0,1,.63.25,1.3,1.3,0,0,1,.46.44,1.22,1.22,0,0,1,.17.67Zm-1.09-1.38a1.3,1.3,0,0,1-.62.19c-.24,0-.49.06-.73.11a1.3,1.3,0,0,0-.34.08,1,1,0,0,0-.29.14.65.65,0,0,0-.19.24.8.8,0,0,0-.07.36.45.45,0,0,0,.1.31.86.86,0,0,0,.26.2,1.09,1.09,0,0,0,.32.1l.33,0a1.89,1.89,0,0,0,.39-.05,1.52,1.52,0,0,0,.4-.16,1.11,1.11,0,0,0,.31-.3.69.69,0,0,0,.13-.43Z"/><path class="cls-5" d="M302.4,270.2h1v.7h0a2.24,2.24,0,0,1,.27-.34,1.35,1.35,0,0,1,.32-.26,1.53,1.53,0,0,1,.41-.17,2.09,2.09,0,0,1,.53-.06,1.86,1.86,0,0,1,.84.2,1.1,1.1,0,0,1,.55.63,2.21,2.21,0,0,1,.65-.61,1.7,1.7,0,0,1,.91-.22,1.83,1.83,0,0,1,1.23.38,1.66,1.66,0,0,1,.44,1.29v3.44h-1.1v-2.91a4.52,4.52,0,0,0,0-.54,1,1,0,0,0-.11-.42.66.66,0,0,0-.27-.28,1.15,1.15,0,0,0-.5-.09.91.91,0,0,0-.81.34,1.63,1.63,0,0,0-.25,1v2.92h-1.1V272a1.32,1.32,0,0,0-.19-.78.77.77,0,0,0-.69-.26.92.92,0,0,0-.4.08,1,1,0,0,0-.35.25,1.27,1.27,0,0,0-.24.41,1.55,1.55,0,0,0-.09.55v2.95h-1.1Z"/><path class="cls-5" d="M314.94,274.07a.52.52,0,0,0,.06.29.2.2,0,0,0,.2.09h.12l.15,0v.76l-.15,0-.19,0-.19,0h-.16a1.06,1.06,0,0,1-.56-.14.69.69,0,0,1-.29-.47,2,2,0,0,1-.8.46,3.1,3.1,0,0,1-.92.15,2.32,2.32,0,0,1-.65-.1A1.71,1.71,0,0,1,311,275a1.29,1.29,0,0,1-.38-.45,1.41,1.41,0,0,1-.14-.64,1.49,1.49,0,0,1,.17-.75,1.29,1.29,0,0,1,.45-.45,1.94,1.94,0,0,1,.61-.24c.23-.05.46-.08.69-.11s.39-.06.57-.08a2.69,2.69,0,0,0,.47-.08.75.75,0,0,0,.33-.18.49.49,0,0,0,.12-.36.56.56,0,0,0-.1-.35.6.6,0,0,0-.25-.2,1.15,1.15,0,0,0-.33-.1,2.11,2.11,0,0,0-.35,0,1.36,1.36,0,0,0-.76.19.72.72,0,0,0-.33.59h-1.1a1.57,1.57,0,0,1,.23-.79,1.39,1.39,0,0,1,.51-.51,2.09,2.09,0,0,1,.71-.27,3.59,3.59,0,0,1,.81-.08,2.94,2.94,0,0,1,.72.08,1.9,1.9,0,0,1,.64.25,1.38,1.38,0,0,1,.46.44,1.31,1.31,0,0,1,.17.67Zm-1.1-1.38a1.26,1.26,0,0,1-.61.19c-.25,0-.49.06-.73.11a1.3,1.3,0,0,0-.34.08,1,1,0,0,0-.29.14.68.68,0,0,0-.2.24,1,1,0,0,0-.07.36.45.45,0,0,0,.11.31.82.82,0,0,0,.25.2,1.15,1.15,0,0,0,.33.1l.32,0a2,2,0,0,0,.4-.05,1.52,1.52,0,0,0,.4-.16,1.11,1.11,0,0,0,.31-.3.75.75,0,0,0,.12-.43Z"/><path class="cls-5" d="M316,270.2H320V271l-2.85,3.34h3v.87h-4.38v-.77l2.75-3.34H316Z"/><path class="cls-5" d="M321,273.88h1.33v1.3H321Z"/></g></g></svg>