<svg xmlns="http://www.w3.org/2000/svg" viewBox="0 0 691.24 276.5"><defs><style>.cls-1{fill:#4eabc3;}.cls-2{fill:#333;}.cls-3{fill:#fff;}.cls-4{fill:#1d1d1b;}.cls-5{fill:#b2b2b2;}</style></defs><g id="Layer_2" data-name="Layer 2"><g id="Layer_1-2" data-name="Layer 1"><path class="cls-1" d="M679.14,0H151.25a12.09,12.09,0,0,0-12.09,12.1v92.71a12.07,12.07,0,0,0,12.09,12.09H679.14a12.09,12.09,0,0,0,12.1-12.09V12.1A12.09,12.09,0,0,0,679.14,0Zm7.61,104.8a7.62,7.62,0,0,1-7.61,7.61H465.26V4.5H679.14a7.61,7.61,0,0,1,7.61,7.6Z"/><path class="cls-2" d="M479.08,24.8h27.33c16,0,25.61,9.37,25.61,23.13v.19c0,15.57-12,23.5-27,23.5H493.8V91.69H479.08Zm26.38,33.73c7.35,0,11.65-4.39,11.65-10.13v-.19c0-6.59-4.58-10.13-11.94-10.13H493.8V58.53Z"/><path class="cls-2" d="M541.48,24.8h30.58c8.51,0,15,2.29,19.5,6.79,3.82,3.82,5.73,8.88,5.73,15.28v.2c0,10.79-5.83,17.58-14.33,20.73L599.3,91.69H582.1l-14.34-21.4H556.2v21.4H541.48Zm29.63,32.49c7.26,0,11.27-3.73,11.27-9.46v-.19c0-6.4-4.3-9.56-11.56-9.56H556.2V57.29Z"/><path class="cls-2" d="M606.18,58.44v-.19c0-19,15-34.6,35.64-34.6S677.27,39,677.27,58.06v.19c0,19-15,34.59-35.64,34.59S606.18,77.45,606.18,58.44Zm55.71,0v-.19c0-11.47-8.41-21-20.26-21s-20.07,9.37-20.07,20.84v.19c0,11.46,8.41,21,20.26,21S661.89,69.9,661.89,58.44Z"/><path class="cls-3" d="M166,24.8h15.77l13.85,45.3,15-45.49h12.61l15,45.49,13.86-45.3h15.38L244.69,92.17H231.88L216.78,48.4l-15.1,43.77h-12.8Z"/><path class="cls-3" d="M277,24.8h50.45V37.89H291.61V51.46h31.53V64.55H291.61v14h36.31V91.69H277Z"/><path class="cls-3" d="M339.58,24.8H354.3V78.31h33.35V91.69H339.58Z"/><path class="cls-3" d="M397.3,24.8H412V78.31h33.35V91.69H397.3Z"/><path class="cls-4" d="M205,132.16h2L211.81,146l4.55-13.86h1.54L222.45,146l4.74-13.81h2l-5.93,16.71h-1.59l-4.55-13.47-4.57,13.47H211Z"/><path class="cls-4" d="M236.55,132h1.76l7.56,16.71h-2l-1.94-4.39h-9l-2,4.39H229Zm4.63,10.64-3.77-8.46-3.79,8.46Z"/><path class="cls-4" d="M251.42,133.89h-5.6v-1.73h13.06v1.73h-5.59v14.86h-1.87Z"/><path class="cls-4" d="M262.3,132.16h12v1.7H264.17v5.67h9.05v1.7h-9.05V147h10.24v1.71H262.3Z"/><path class="cls-4" d="M278.18,132.16h7.13a6.5,6.5,0,0,1,4.72,1.66,4.48,4.48,0,0,1,1.28,3.27v0c0,2.75-1.9,4.39-4.51,4.84l5.1,6.78h-2.3l-4.81-6.45h-4.74v6.45h-1.87Zm7,8.46c2.47,0,4.27-1.28,4.27-3.41v-.05c0-2.06-1.56-3.27-4.24-3.27h-5.12v6.73Z"/><path class="cls-4" d="M301.14,132.16h2L307.92,146l4.55-13.86H314L318.56,146l4.74-13.81h2l-5.92,16.71h-1.59l-4.55-13.47-4.58,13.47h-1.56Z"/><path class="cls-4" d="M328.66,132.16h12v1.7H330.53v5.67h9.06v1.7h-9.06V147h10.24v1.71H328.66Z"/><path class="cls-4" d="M344.54,132.16h1.87V147h9.34v1.73H344.54Z"/><path class="cls-4" d="M359.12,132.16H361V147h9.34v1.73H359.12Z"/><path class="cls-4" d="M380.8,132.16H387c3.75,0,6.21,2,6.21,5.26v.05c0,3.57-3,5.42-6.51,5.42h-4v5.86H380.8Zm6,9c2.75,0,4.55-1.47,4.55-3.65v0c0-2.37-1.78-3.6-4.46-3.6h-4.19v7.3Z"/><path class="cls-4" d="M396.38,141.8v-9.64h1.87v9.53c0,3.6,1.87,5.59,5.07,5.59s5-1.85,5-5.48v-9.64h1.88v9.5c0,4.86-2.78,7.35-6.92,7.35S396.38,146.5,396.38,141.8Z"/><path class="cls-4" d="M414.63,132.16h1.89l6.05,9.05,6-9.05h1.9v16.59h-1.87V135.31l-6.05,8.89h-.09l-6.05-8.87v13.42h-1.82Z"/><path class="cls-4" d="M435.2,132.16h6.21c3.75,0,6.21,2,6.21,5.26v.05c0,3.57-3,5.42-6.52,5.42h-4v5.86H435.2Zm6,9c2.74,0,4.55-1.47,4.55-3.65v0c0-2.37-1.78-3.6-4.46-3.6h-4.2v7.3Z"/><path class="cls-4" d="M457.41,140.5v-.05a8.37,8.37,0,0,1,8.39-8.58,8.53,8.53,0,0,1,6.47,2.63L471,135.88a7.2,7.2,0,0,0-5.21-2.28,6.51,6.51,0,0,0-6.43,6.8v0a6.53,6.53,0,0,0,6.43,6.85,7.17,7.17,0,0,0,5.35-2.39l1.24,1.21a8.66,8.66,0,0,1-6.64,2.91A8.27,8.27,0,0,1,457.41,140.5Z"/><path class="cls-4" d="M474.52,140.5v-.05a8.47,8.47,0,1,1,16.93,0v0a8.47,8.47,0,1,1-16.93.05Zm15,0v-.05A6.6,6.6,0,0,0,483,133.6a6.52,6.52,0,0,0-6.49,6.8v0A6.6,6.6,0,0,0,483,147.3,6.51,6.51,0,0,0,489.5,140.5Z"/><path class="cls-4" d="M495.41,132.16h1.75l10.45,13.29V132.16h1.83v16.59h-1.5l-10.71-13.61v13.61h-1.82Z"/><path class="cls-4" d="M518.44,133.89h-5.59v-1.73h13.06v1.73h-5.59v14.86h-1.88Z"/><path class="cls-4" d="M529.32,132.16h7.14a6.45,6.45,0,0,1,4.71,1.66,4.48,4.48,0,0,1,1.28,3.27v0c0,2.75-1.89,4.39-4.5,4.84l5.1,6.78h-2.3l-4.81-6.45H531.2v6.45h-1.88Zm7,8.46c2.47,0,4.27-1.28,4.27-3.41v-.05c0-2.06-1.57-3.27-4.24-3.27H531.2v6.73Z"/><path class="cls-4" d="M545.72,140.5v-.05a8.47,8.47,0,1,1,16.93,0v0a8.47,8.47,0,1,1-16.93.05Zm15,0v-.05a6.6,6.6,0,0,0-6.54-6.85,6.52,6.52,0,0,0-6.49,6.8v0a6.6,6.6,0,0,0,6.54,6.85A6.51,6.51,0,0,0,560.7,140.5Z"/><path class="cls-4" d="M566.61,132.16h1.87V147h9.34v1.73H566.61Z"/><path class="cls-4" d="M581.18,132.16h1.88V147h9.33v1.73H581.18Z"/><path class="cls-4" d="M595.76,132.16h12v1.7H597.63v5.67h9.06v1.7h-9.06V147h10.24v1.71H595.76Z"/><path class="cls-4" d="M611.64,132.16h7.13a6.46,6.46,0,0,1,4.72,1.66,4.48,4.48,0,0,1,1.28,3.27v0c0,2.75-1.89,4.39-4.5,4.84l5.1,6.78h-2.3l-4.82-6.45h-4.74v6.45h-1.87Zm7,8.46c2.46,0,4.27-1.28,4.27-3.41v-.05c0-2.06-1.57-3.27-4.25-3.27h-5.12v6.73Z"/><path class="cls-5" d="M8.38,250.49a4.64,4.64,0,0,1-3.13,1,4.59,4.59,0,0,1-3.15-1,3.82,3.82,0,0,1-1.11-3v-6.22h2.2v6.22a4.25,4.25,0,0,0,.07.8,1.64,1.64,0,0,0,.29.69,1.67,1.67,0,0,0,.63.49,2.44,2.44,0,0,0,1.07.19,2.06,2.06,0,0,0,1.62-.53,2.47,2.47,0,0,0,.45-1.64v-6.22h2.2v6.22A3.79,3.79,0,0,1,8.38,250.49Z"/><path class="cls-5" d="M13.87,253.41a2.88,2.88,0,0,1-1.59.37c-.21,0-.41,0-.61,0l-.61,0v-1.63l.57,0a5.82,5.82,0,0,0,.59,0,.81.81,0,0,0,.58-.31,1,1,0,0,0,.19-.59,1.33,1.33,0,0,0-.08-.45L10.37,244h2.12l1.63,5h0l1.58-5h2.06l-3,8.14A2.57,2.57,0,0,1,13.87,253.41Z"/><path class="cls-5" d="M18.38,246.24a2.24,2.24,0,0,1,.35-1.16,2.43,2.43,0,0,1,.78-.75,3.7,3.7,0,0,1,1.07-.4,6.09,6.09,0,0,1,1.2-.11,8.38,8.38,0,0,1,1.11.07,3.36,3.36,0,0,1,1,.3,2,2,0,0,1,.76.63,1.74,1.74,0,0,1,.29,1.05v3.77a7.07,7.07,0,0,0,.06.94,1.63,1.63,0,0,0,.19.67h-2c0-.11-.07-.23-.1-.34s0-.24,0-.36a2.67,2.67,0,0,1-1.12.69,4.53,4.53,0,0,1-1.32.19,3.35,3.35,0,0,1-1-.13,2,2,0,0,1-.78-.39,1.86,1.86,0,0,1-.53-.67,2.35,2.35,0,0,1-.18-1,2.18,2.18,0,0,1,.21-1,1.84,1.84,0,0,1,.56-.64,2.47,2.47,0,0,1,.79-.35,6.71,6.71,0,0,1,.89-.19c.29-.05.59-.09.88-.12a4.15,4.15,0,0,0,.77-.12,1.38,1.38,0,0,0,.53-.25.53.53,0,0,0,.18-.47,1.08,1.08,0,0,0-.1-.51.86.86,0,0,0-.28-.29,1.11,1.11,0,0,0-.41-.14,3.84,3.84,0,0,0-.5,0,1.48,1.48,0,0,0-.92.25,1.14,1.14,0,0,0-.39.84ZM23,247.71a.92.92,0,0,1-.31.17,4,4,0,0,1-.41.11l-.45.07-.48.07a3.15,3.15,0,0,0-.44.11,1.35,1.35,0,0,0-.38.19.94.94,0,0,0-.26.3,1,1,0,0,0-.1.46,1,1,0,0,0,.1.45.84.84,0,0,0,.27.29,1.13,1.13,0,0,0,.39.14,2.31,2.31,0,0,0,.46.05,1.75,1.75,0,0,0,.91-.2,1.35,1.35,0,0,0,.48-.47,1.72,1.72,0,0,0,.19-.55q0-.28,0-.45Z"/><path class="cls-5" d="M28.39,244v1.35h0a2.48,2.48,0,0,1,.37-.63,2.55,2.55,0,0,1,1.21-.8,2.23,2.23,0,0,1,.73-.11,1.77,1.77,0,0,1,.43.06v1.85l-.33,0-.38,0a2.17,2.17,0,0,0-.93.18,1.77,1.77,0,0,0-.61.5,2.17,2.17,0,0,0-.33.74,4.32,4.32,0,0,0-.09.91v3.26h-2V244Z"/><path class="cls-5" d="M34,244v7.24H32V244Z"/><path class="cls-5" d="M.8,255.93H4.14a2.39,2.39,0,0,1,1.48.42,1.51,1.51,0,0,1,.56,1.28,1.53,1.53,0,0,1-.26.89,1.59,1.59,0,0,1-.72.57v0a1.51,1.51,0,0,1,1,.6,2,2,0,0,1,.33,1.17,1.91,1.91,0,0,1-.15.76,1.47,1.47,0,0,1-.45.61,2.25,2.25,0,0,1-.79.4A3.84,3.84,0,0,1,4,262.8H.8ZM2,258.8H4a1.1,1.1,0,0,0,.72-.24.88.88,0,0,0,.29-.71.91.91,0,0,0-.26-.73,1.19,1.19,0,0,0-.75-.21H2Zm0,3H4.13a1.18,1.18,0,0,0,.85-.29,1,1,0,0,0,.31-.8A1,1,0,0,0,5,260a1.18,1.18,0,0,0-.85-.28H2Z"/><path class="cls-5" d="M11.79,262.8H10.71v-.69h0a1.53,1.53,0,0,1-.61.6,1.59,1.59,0,0,1-.81.22,1.83,1.83,0,0,1-1.42-.48A2.17,2.17,0,0,1,7.42,261v-3.16h1.1v3.05a1.35,1.35,0,0,0,.25.93.91.91,0,0,0,.7.27,1.39,1.39,0,0,0,.58-.11,1.08,1.08,0,0,0,.38-.28,1.14,1.14,0,0,0,.2-.43,2.35,2.35,0,0,0,.07-.54v-2.89h1.09Z"/><path class="cls-5" d="M15.65,255.93h1.1v6.87h-1.1Z"/><path class="cls-5" d="M20.22,262.93a2.74,2.74,0,0,1-1.06-.19,2.28,2.28,0,0,1-1.28-1.37,3.32,3.32,0,0,1-.17-1.06,3.21,3.21,0,0,1,.17-1.05,2.37,2.37,0,0,1,.49-.83,2.31,2.31,0,0,1,.79-.54,2.94,2.94,0,0,1,2.13,0,2.31,2.31,0,0,1,.79.54,2.37,2.37,0,0,1,.49.83,3.21,3.21,0,0,1,.17,1.05,3.32,3.32,0,0,1-.17,1.06,2.28,2.28,0,0,1-1.28,1.37A2.76,2.76,0,0,1,20.22,262.93Zm0-.86a1.19,1.19,0,0,0,.64-.16,1.21,1.21,0,0,0,.44-.4,1.8,1.8,0,0,0,.26-.56,2.8,2.8,0,0,0,.08-.64,2.74,2.74,0,0,0-.08-.64,1.7,1.7,0,0,0-.26-.56,1.21,1.21,0,0,0-.44-.4,1.34,1.34,0,0,0-1.27,0,1.21,1.21,0,0,0-.44.4,1.7,1.7,0,0,0-.26.56,2.74,2.74,0,0,0-.08.64,2.8,2.8,0,0,0,.08.64,1.8,1.8,0,0,0,.26.56,1.21,1.21,0,0,0,.44.4A1.18,1.18,0,0,0,20.22,262.07Z"/><path class="cls-5" d="M28.25,262.54a2.12,2.12,0,0,1-.63,1.68,2.65,2.65,0,0,1-1.81.55,3.91,3.91,0,0,1-.76-.07,2.59,2.59,0,0,1-.69-.26,1.88,1.88,0,0,1-.53-.48,1.55,1.55,0,0,1-.25-.74h1.1a1,1,0,0,0,.16.38.89.89,0,0,0,.28.23,1,1,0,0,0,.35.1,2.63,2.63,0,0,0,.41,0,1.28,1.28,0,0,0,1-.33,1.37,1.37,0,0,0,.31-.95v-.76h0a1.67,1.67,0,0,1-.64.65,1.7,1.7,0,0,1-.86.23,2.25,2.25,0,0,1-1-.21,1.91,1.91,0,0,1-.7-.56,2.4,2.4,0,0,1-.39-.84,3.63,3.63,0,0,1-.13-1,3,3,0,0,1,.15-.95,2.51,2.51,0,0,1,.45-.8,2.34,2.34,0,0,1,.7-.54,2.24,2.24,0,0,1,.95-.2,1.8,1.8,0,0,1,.87.2,1.36,1.36,0,0,1,.61.62h0v-.69h1.09Zm-2.43-.61a1.21,1.21,0,0,0,.62-.15,1.18,1.18,0,0,0,.41-.39,1.65,1.65,0,0,0,.23-.56,2.72,2.72,0,0,0,.08-.63,2.57,2.57,0,0,0-.08-.62,1.55,1.55,0,0,0-.24-.52,1,1,0,0,0-.41-.37,1.31,1.31,0,0,0-.61-.14,1.19,1.19,0,0,0-.62.16,1.1,1.1,0,0,0-.4.4,1.46,1.46,0,0,0-.22.56,2.56,2.56,0,0,0-.07.62,2.46,2.46,0,0,0,.07.6,1.77,1.77,0,0,0,.24.52,1.32,1.32,0,0,0,.4.38A1.16,1.16,0,0,0,25.82,261.93Z"/><path class="cls-5" d="M31.64,262.93a2.71,2.71,0,0,1-1.06-.19,2.24,2.24,0,0,1-.79-.55,2.19,2.19,0,0,1-.49-.82,3.06,3.06,0,0,1-.17-1.06,3,3,0,0,1,.17-1.05,2.21,2.21,0,0,1,1.28-1.37,2.91,2.91,0,0,1,2.12,0,2.14,2.14,0,0,1,.79.54,2.23,2.23,0,0,1,.49.83,3,3,0,0,1,.17,1.05,3.06,3.06,0,0,1-.17,1.06,2.19,2.19,0,0,1-.49.82,2.16,2.16,0,0,1-.79.55A2.71,2.71,0,0,1,31.64,262.93Zm0-.86a1.22,1.22,0,0,0,.64-.16,1.3,1.3,0,0,0,.44-.4A1.78,1.78,0,0,0,33,261a2.35,2.35,0,0,0,.09-.64,2.3,2.3,0,0,0-.09-.64,1.68,1.68,0,0,0-.25-.56,1.3,1.3,0,0,0-.44-.4,1.36,1.36,0,0,0-1.28,0,1.4,1.4,0,0,0-.44.4,1.68,1.68,0,0,0-.25.56,2.29,2.29,0,0,0-.08.64,2.34,2.34,0,0,0,.08.64,1.78,1.78,0,0,0,.25.56,1.4,1.4,0,0,0,.44.4A1.22,1.22,0,0,0,31.64,262.07Z"/><path class="cls-5" d="M37,255.76h1.05L35.33,263h-1Z"/><path class="cls-5" d="M42.62,261.69a.52.52,0,0,0,.06.29.2.2,0,0,0,.2.09H43l.15,0v.76l-.15,0-.18,0-.2,0h-.16a1.08,1.08,0,0,1-.56-.13.69.69,0,0,1-.29-.47,2,2,0,0,1-.8.46,3,3,0,0,1-.92.14,2.25,2.25,0,0,1-.64-.09,1.66,1.66,0,0,1-.55-.27,1.17,1.17,0,0,1-.37-.45,1.31,1.31,0,0,1-.14-.64,1.49,1.49,0,0,1,.16-.75,1.29,1.29,0,0,1,.45-.45,2,2,0,0,1,.61-.24c.23-.05.46-.08.69-.11s.39-.06.57-.08a3,3,0,0,0,.48-.08.77.77,0,0,0,.32-.18.49.49,0,0,0,.12-.36.56.56,0,0,0-.1-.35.64.64,0,0,0-.25-.21,1.15,1.15,0,0,0-.33-.09l-.35,0a1.39,1.39,0,0,0-.76.2.72.72,0,0,0-.33.59h-1.1a1.75,1.75,0,0,1,.23-.8,1.55,1.55,0,0,1,.52-.5,2,2,0,0,1,.7-.27,3.71,3.71,0,0,1,.81-.08,2.84,2.84,0,0,1,.72.08A1.9,1.9,0,0,1,42,258a1.38,1.38,0,0,1,.46.44,1.22,1.22,0,0,1,.17.67Zm-1.09-1.38a1.33,1.33,0,0,1-.62.19c-.24,0-.49.06-.73.11a1.3,1.3,0,0,0-.34.08,1,1,0,0,0-.29.14.57.57,0,0,0-.19.24.8.8,0,0,0-.08.36.47.47,0,0,0,.11.31.82.82,0,0,0,.25.2,1.15,1.15,0,0,0,.33.1l.32,0a1.9,1.9,0,0,0,.4-.05,1.52,1.52,0,0,0,.4-.16,1.11,1.11,0,0,0,.31-.3.76.76,0,0,0,.13-.44Z"/><path class="cls-5" d="M43.81,257.82h1v.7h0a1.84,1.84,0,0,1,.27-.34,1.35,1.35,0,0,1,.32-.26,1.53,1.53,0,0,1,.41-.17,2.09,2.09,0,0,1,.53-.06,1.86,1.86,0,0,1,.84.2,1.14,1.14,0,0,1,.55.63,2.21,2.21,0,0,1,.65-.61,1.7,1.7,0,0,1,.91-.22,1.83,1.83,0,0,1,1.23.38,1.66,1.66,0,0,1,.44,1.29v3.44h-1.1v-2.91c0-.2,0-.38,0-.54a1,1,0,0,0-.11-.42.61.61,0,0,0-.27-.28,1.17,1.17,0,0,0-.5-.1.92.92,0,0,0-.81.35,1.63,1.63,0,0,0-.25,1v2.92h-1.1v-3.2a1.32,1.32,0,0,0-.19-.78.77.77,0,0,0-.69-.27,1,1,0,0,0-.41.09,1,1,0,0,0-.34.25,1.27,1.27,0,0,0-.24.41,1.53,1.53,0,0,0-.09.54v3h-1.1Z"/><path class="cls-5" d="M52.21,255.93h1.1v2.54h0a1.75,1.75,0,0,1,.28-.33,1.41,1.41,0,0,1,.36-.24,2.05,2.05,0,0,1,.41-.16,2.18,2.18,0,0,1,.43-.05,2.32,2.32,0,0,1,1,.21,1.86,1.86,0,0,1,.73.56,2.54,2.54,0,0,1,.44.85,3.77,3.77,0,0,1,.14,1,3.54,3.54,0,0,1-.13,1,2.76,2.76,0,0,1-.39.83,2.09,2.09,0,0,1-.67.58,2.06,2.06,0,0,1-1,.21l-.5,0a2.09,2.09,0,0,1-.49-.13,1.79,1.79,0,0,1-.42-.25,1.26,1.26,0,0,1-.31-.4h0v.68h-1ZM56,260.32a2.84,2.84,0,0,0-.08-.66,1.92,1.92,0,0,0-.26-.56,1.3,1.3,0,0,0-.44-.4,1.15,1.15,0,0,0-.59-.15,1.2,1.2,0,0,0-1.05.49,2.14,2.14,0,0,0-.35,1.28,2.5,2.5,0,0,0,.09.69,1.48,1.48,0,0,0,.28.56,1.36,1.36,0,0,0,.43.36,1.27,1.27,0,0,0,.6.14,1.14,1.14,0,0,0,.63-.16,1.27,1.27,0,0,0,.43-.4A1.61,1.61,0,0,0,56,261,2.79,2.79,0,0,0,56,260.32Z"/><path class="cls-5" d="M58.09,255.93h1.1v6.87h-1.1Z"/><path class="cls-5" d="M61.24,260.6a2,2,0,0,0,.08.55,1.41,1.41,0,0,0,.25.47A1.11,1.11,0,0,0,62,262a1.4,1.4,0,0,0,.6.12,1.28,1.28,0,0,0,.77-.21,1.16,1.16,0,0,0,.44-.62h1a2.11,2.11,0,0,1-.3.72,2,2,0,0,1-1.18.86,2.43,2.43,0,0,1-.77.11,2.61,2.61,0,0,1-1-.19,2.15,2.15,0,0,1-1.24-1.37,3.5,3.5,0,0,1-.16-1.05,3.06,3.06,0,0,1,.17-1,2.49,2.49,0,0,1,.48-.84,2.27,2.27,0,0,1,.76-.57,2.29,2.29,0,0,1,1-.21,2.26,2.26,0,0,1,1.05.24,2.36,2.36,0,0,1,.78.65,2.87,2.87,0,0,1,.45.93,3,3,0,0,1,.07,1.09Zm2.56-.73a1.72,1.72,0,0,0-.11-.5,1.19,1.19,0,0,0-.64-.7,1,1,0,0,0-.5-.12,1.32,1.32,0,0,0-.53.11,1.23,1.23,0,0,0-.4.27,1.43,1.43,0,0,0-.38.94Z"/><path class="cls-5" d="M65.74,257.82h1v.7h0a3.37,3.37,0,0,1,.27-.34,1.64,1.64,0,0,1,.33-.26,1.46,1.46,0,0,1,.4-.17,2.2,2.2,0,0,1,.53-.06,1.87,1.87,0,0,1,.85.2,1.14,1.14,0,0,1,.55.63,2.21,2.21,0,0,1,.65-.61,1.68,1.68,0,0,1,.91-.22,1.85,1.85,0,0,1,1.23.38,1.66,1.66,0,0,1,.44,1.29v3.44h-1.1v-2.91c0-.2,0-.38,0-.54a1,1,0,0,0-.11-.42.59.59,0,0,0-.28-.28,1.1,1.1,0,0,0-.5-.1.94.94,0,0,0-.81.35,1.71,1.71,0,0,0-.25,1v2.92H68.8v-3.2a1.4,1.4,0,0,0-.19-.78.8.8,0,0,0-.69-.27,1,1,0,0,0-.41.09.94.94,0,0,0-.34.25,1.5,1.5,0,0,0-.25.41,1.53,1.53,0,0,0-.09.54v3H65.74Z"/><path class="cls-5" d="M77.73,260.51a1.51,1.51,0,0,0,.13.67,1.22,1.22,0,0,0,.38.46,1.47,1.47,0,0,0,.55.26,3,3,0,0,0,.68.08,2.24,2.24,0,0,0,.68-.09,1.37,1.37,0,0,0,.45-.24.81.81,0,0,0,.25-.33,1,1,0,0,0,.08-.38.81.81,0,0,0-.18-.58,1.1,1.1,0,0,0-.39-.27c-.25-.09-.53-.17-.85-.25l-1.2-.31a2.54,2.54,0,0,1-.74-.31,1.74,1.74,0,0,1-.47-.42,1.49,1.49,0,0,1-.24-.49,2,2,0,0,1,.14-1.43,2.05,2.05,0,0,1,.58-.63,2.56,2.56,0,0,1,.8-.37,3.65,3.65,0,0,1,1.93,0,2.76,2.76,0,0,1,.84.42,2.11,2.11,0,0,1,.57.69,1.93,1.93,0,0,1,.22.95H80.73a1.14,1.14,0,0,0-.45-.94,1.81,1.81,0,0,0-1-.27,2.09,2.09,0,0,0-.43,0,1.8,1.8,0,0,0-.41.14.89.89,0,0,0-.3.28.73.73,0,0,0-.12.43.7.7,0,0,0,.23.57,1.39,1.39,0,0,0,.59.32l.3.08.59.16.64.16.45.13a2,2,0,0,1,.59.28,2.78,2.78,0,0,1,.42.42,1.81,1.81,0,0,1,.33,1.05,1.9,1.9,0,0,1-.24,1,1.82,1.82,0,0,1-.62.67,2.53,2.53,0,0,1-.87.38,4.23,4.23,0,0,1-1,.12,3.9,3.9,0,0,1-1.1-.14,2.66,2.66,0,0,1-.91-.44,2.22,2.22,0,0,1-.61-.77,2.38,2.38,0,0,1-.24-1.1Z"/><path class="cls-5" d="M85.31,262.93a2.76,2.76,0,0,1-1.07-.19A2.28,2.28,0,0,1,83,261.37a3.32,3.32,0,0,1-.17-1.06,3.21,3.21,0,0,1,.17-1.05,2.37,2.37,0,0,1,.49-.83,2.31,2.31,0,0,1,.79-.54,2.94,2.94,0,0,1,2.13,0,2.31,2.31,0,0,1,.79.54,2.37,2.37,0,0,1,.49.83,3.21,3.21,0,0,1,.17,1.05,3.32,3.32,0,0,1-.17,1.06,2.28,2.28,0,0,1-1.28,1.37A2.74,2.74,0,0,1,85.31,262.93Zm0-.86a1.18,1.18,0,0,0,.63-.16,1.21,1.21,0,0,0,.44-.4,1.8,1.8,0,0,0,.26-.56,2.8,2.8,0,0,0,.08-.64,2.74,2.74,0,0,0-.08-.64,1.7,1.7,0,0,0-.26-.56,1.21,1.21,0,0,0-.44-.4,1.34,1.34,0,0,0-1.27,0,1.21,1.21,0,0,0-.44.4,1.7,1.7,0,0,0-.26.56,2.74,2.74,0,0,0-.08.64A2.8,2.8,0,0,0,84,261a1.8,1.8,0,0,0,.26.56,1.21,1.21,0,0,0,.44.4A1.19,1.19,0,0,0,85.31,262.07Z"/><path class="cls-5" d="M88.76,255.93h1.1v6.87h-1.1Z"/><path class="cls-5" d="M91.08,255.93h1.1v1h-1.1Zm0,1.89h1.1v5h-1.1Z"/><path class="cls-5" d="M98.06,262.8H97v-.67h0a1.33,1.33,0,0,1-.64.62,2.3,2.3,0,0,1-.9.18,2.32,2.32,0,0,1-1-.2,2,2,0,0,1-.73-.57,2.23,2.23,0,0,1-.43-.84,3.49,3.49,0,0,1-.15-1,3.43,3.43,0,0,1,.18-1.17,2.69,2.69,0,0,1,.49-.81,1.86,1.86,0,0,1,.69-.46,2.22,2.22,0,0,1,.8-.15,2.56,2.56,0,0,1,.47,0,2.44,2.44,0,0,1,.46.14,2.14,2.14,0,0,1,.41.25,1.3,1.3,0,0,1,.31.35h0v-2.54h1.1Zm-3.83-2.44a2.59,2.59,0,0,0,.08.63,1.63,1.63,0,0,0,.25.55,1.26,1.26,0,0,0,1,.53,1.18,1.18,0,0,0,.63-.16,1.27,1.27,0,0,0,.43-.4,2,2,0,0,0,.25-.56,2.8,2.8,0,0,0,.08-.64,2,2,0,0,0-.37-1.29,1.23,1.23,0,0,0-1-.47,1.33,1.33,0,0,0-.65.16,1.44,1.44,0,0,0-.43.42,1.77,1.77,0,0,0-.24.58A2.81,2.81,0,0,0,94.23,260.36Z"/><path class="cls-5" d="M102.08,255.93h5v1h-3.74v1.8h3.46v1h-3.46v2h3.81v1h-5Z"/><path class="cls-5" d="M108,255.93h1.1v6.87H108Z"/><path class="cls-5" d="M111.17,260.6a2,2,0,0,0,.08.55,1.41,1.41,0,0,0,.25.47,1.11,1.11,0,0,0,.41.33,1.4,1.4,0,0,0,.6.12,1.28,1.28,0,0,0,.77-.21,1.21,1.21,0,0,0,.44-.62h1a2.11,2.11,0,0,1-.3.72,2,2,0,0,1-1.18.86,2.43,2.43,0,0,1-.77.11,2.61,2.61,0,0,1-1-.19,2.15,2.15,0,0,1-1.24-1.37,3.21,3.21,0,0,1-.16-1.05,3.06,3.06,0,0,1,.17-1,2.49,2.49,0,0,1,.48-.84,2.27,2.27,0,0,1,.76-.57,2.29,2.29,0,0,1,1-.21,2.26,2.26,0,0,1,1,.24,2.47,2.47,0,0,1,.78.65,2.87,2.87,0,0,1,.45.93,3,3,0,0,1,.07,1.09Zm2.56-.73a1.72,1.72,0,0,0-.11-.5,1.27,1.27,0,0,0-.25-.42,1.39,1.39,0,0,0-.39-.28,1,1,0,0,0-.5-.12,1.32,1.32,0,0,0-.53.11,1.23,1.23,0,0,0-.4.27,1.43,1.43,0,0,0-.38.94Z"/><path class="cls-5" d="M119,259.49a1,1,0,0,0-.38-.7,1.17,1.17,0,0,0-.76-.24,1.53,1.53,0,0,0-.45.08,1,1,0,0,0-.45.27,1.51,1.51,0,0,0-.33.55,2.56,2.56,0,0,0-.14.91,3.18,3.18,0,0,0,.07.62,1.61,1.61,0,0,0,.24.55,1.24,1.24,0,0,0,.4.39,1.17,1.17,0,0,0,.61.15,1.12,1.12,0,0,0,.8-.3,1.5,1.5,0,0,0,.39-.84h1.09a2.43,2.43,0,0,1-.73,1.49,2.28,2.28,0,0,1-1.55.51,2.53,2.53,0,0,1-1-.19,2.19,2.19,0,0,1-.76-.54,2.45,2.45,0,0,1-.47-.82,3.3,3.3,0,0,1-.16-1,3.49,3.49,0,0,1,.16-1,2.45,2.45,0,0,1,.46-.86,2.07,2.07,0,0,1,.77-.56,2.52,2.52,0,0,1,1.07-.21,3.12,3.12,0,0,1,.82.11,2.15,2.15,0,0,1,.7.33,1.81,1.81,0,0,1,.72,1.36Z"/><path class="cls-5" d="M120.52,257.82h.82v-1.49h1.1v1.49h1v.82h-1v2.66a2.66,2.66,0,0,0,0,.3.65.65,0,0,0,.06.21.34.34,0,0,0,.16.13.78.78,0,0,0,.29,0h.23l.23,0v.85l-.35,0-.36,0a2.64,2.64,0,0,1-.7-.08,1.09,1.09,0,0,1-.41-.24.8.8,0,0,1-.2-.4,2.94,2.94,0,0,1-.07-.55v-2.94h-.82Z"/><path class="cls-5" d="M124.22,257.82h1v1h0a1.13,1.13,0,0,1,.19-.4,1.87,1.87,0,0,1,.34-.35,1.7,1.7,0,0,1,.43-.26,1.43,1.43,0,0,1,.5-.09H127l.15,0v1.06l-.24,0h-.23a1.21,1.21,0,0,0-1,.44,1.57,1.57,0,0,0-.28.53,2.33,2.33,0,0,0-.11.73v2.37h-1.1Z"/><path class="cls-5" d="M129.72,262.93a2.71,2.71,0,0,1-1.06-.19,2.16,2.16,0,0,1-.79-.55,2.19,2.19,0,0,1-.49-.82,3.06,3.06,0,0,1-.17-1.06,3,3,0,0,1,.17-1.05,2.23,2.23,0,0,1,.49-.83,2.14,2.14,0,0,1,.79-.54,2.91,2.91,0,0,1,2.12,0,2.21,2.21,0,0,1,1.28,1.37,3,3,0,0,1,.17,1.05,3.06,3.06,0,0,1-.17,1.06,2.19,2.19,0,0,1-.49.82,2.24,2.24,0,0,1-.79.55A2.71,2.71,0,0,1,129.72,262.93Zm0-.86a1.18,1.18,0,0,0,.63-.16,1.33,1.33,0,0,0,.45-.4,1.78,1.78,0,0,0,.25-.56,2.34,2.34,0,0,0,.08-.64,2.29,2.29,0,0,0-.08-.64,1.68,1.68,0,0,0-.25-.56,1.33,1.33,0,0,0-.45-.4,1.28,1.28,0,0,0-.63-.16,1.32,1.32,0,0,0-.64.16,1.3,1.3,0,0,0-.44.4,1.68,1.68,0,0,0-.25.56,2.3,2.3,0,0,0-.09.64,2.35,2.35,0,0,0,.09.64,1.78,1.78,0,0,0,.25.56,1.3,1.3,0,0,0,.44.4A1.22,1.22,0,0,0,129.72,262.07Z"/><path class="cls-5" d="M133.15,257.82h1v.73l0,0a1.84,1.84,0,0,1,.65-.65,1.82,1.82,0,0,1,.89-.23,1.86,1.86,0,0,1,1.29.42,1.61,1.61,0,0,1,.48,1.27v3.42h-1.1v-3.13a1.36,1.36,0,0,0-.25-.85.91.91,0,0,0-.72-.27,1.12,1.12,0,0,0-.5.11,1.05,1.05,0,0,0-.38.27,1.46,1.46,0,0,0-.33.93v2.94h-1.09Z"/><path class="cls-5" d="M141.5,255.93h1.21v3.13l3.06-3.13h1.48l-2.75,2.74,2.94,4.13h-1.5l-2.25-3.28-1,1v2.31H141.5Z"/><path class="cls-5" d="M150.22,262.93a2.71,2.71,0,0,1-1.06-.19,2.24,2.24,0,0,1-.79-.55,2.19,2.19,0,0,1-.49-.82,3.32,3.32,0,0,1-.17-1.06,3.21,3.21,0,0,1,.17-1.05,2.21,2.21,0,0,1,1.28-1.37,2.54,2.54,0,0,1,1.06-.2,2.62,2.62,0,0,1,1.07.2,2.31,2.31,0,0,1,.79.54,2.53,2.53,0,0,1,.49.83,3.21,3.21,0,0,1,.17,1.05,3.32,3.32,0,0,1-.17,1.06,2.49,2.49,0,0,1-.49.82,2.34,2.34,0,0,1-.79.55A2.8,2.8,0,0,1,150.22,262.93Zm0-.86a1.19,1.19,0,0,0,.64-.16,1.21,1.21,0,0,0,.44-.4,1.8,1.8,0,0,0,.26-.56,2.8,2.8,0,0,0,.08-.64,2.74,2.74,0,0,0-.08-.64,1.7,1.7,0,0,0-.26-.56,1.21,1.21,0,0,0-.44-.4,1.34,1.34,0,0,0-1.27,0,1.33,1.33,0,0,0-.45.4,1.68,1.68,0,0,0-.25.56,2.29,2.29,0,0,0-.08.64,2.34,2.34,0,0,0,.08.64,1.78,1.78,0,0,0,.25.56,1.33,1.33,0,0,0,.45.4A1.18,1.18,0,0,0,150.22,262.07Z"/><path class="cls-5" d="M153.65,257.82h1v.73l0,0a1.92,1.92,0,0,1,.65-.65,1.83,1.83,0,0,1,.9-.23,1.89,1.89,0,0,1,1.29.42,1.64,1.64,0,0,1,.47,1.27v3.42h-1.1v-3.13a1.3,1.3,0,0,0-.25-.85.89.89,0,0,0-.72-.27,1.23,1.23,0,0,0-.88.38,1.44,1.44,0,0,0-.24.42,1.7,1.7,0,0,0-.08.51v2.94h-1.1Z"/><path class="cls-5" d="M158.67,257.82h.83v-1.49h1.1v1.49h1v.82h-1v2.66a2.81,2.81,0,0,0,0,.3.65.65,0,0,0,.07.21.34.34,0,0,0,.16.13.78.78,0,0,0,.29,0h.23l.23,0v.85l-.36,0-.35,0a2.64,2.64,0,0,1-.7-.08,1,1,0,0,1-.41-.24.9.9,0,0,1-.21-.4,4.21,4.21,0,0,1-.06-.55v-2.94h-.83Z"/><path class="cls-5" d="M162.38,257.82h1v1h0a1,1,0,0,1,.19-.4A1.81,1.81,0,0,1,164,258a1.76,1.76,0,0,1,.44-.26,1.41,1.41,0,0,1,.49-.09h.27l.15,0v1.06l-.24,0h-.23a1.17,1.17,0,0,0-.53.11,1.13,1.13,0,0,0-.43.33,1.58,1.58,0,0,0-.29.53,2.34,2.34,0,0,0-.1.73v2.37h-1.1Z"/><path class="cls-5" d="M167.88,262.93a2.76,2.76,0,0,1-1.07-.19,2.28,2.28,0,0,1-1.28-1.37,3.32,3.32,0,0,1-.17-1.06,3.21,3.21,0,0,1,.17-1.05,2.37,2.37,0,0,1,.49-.83,2.31,2.31,0,0,1,.79-.54,2.94,2.94,0,0,1,2.13,0,2.31,2.31,0,0,1,.79.54,2.37,2.37,0,0,1,.49.83,3.21,3.21,0,0,1,.17,1.05,3.32,3.32,0,0,1-.17,1.06,2.28,2.28,0,0,1-1.28,1.37A2.74,2.74,0,0,1,167.88,262.93Zm0-.86a1.18,1.18,0,0,0,.63-.16,1.21,1.21,0,0,0,.44-.4,1.6,1.6,0,0,0,.26-.56,2.8,2.8,0,0,0,.08-.64,2.74,2.74,0,0,0-.08-.64,1.52,1.52,0,0,0-.26-.56,1.21,1.21,0,0,0-.44-.4,1.34,1.34,0,0,0-1.27,0,1.21,1.21,0,0,0-.44.4,1.7,1.7,0,0,0-.26.56,2.74,2.74,0,0,0-.08.64,2.8,2.8,0,0,0,.08.64,1.8,1.8,0,0,0,.26.56,1.21,1.21,0,0,0,.44.4A1.19,1.19,0,0,0,167.88,262.07Z"/><path class="cls-5" d="M171.33,255.93h1.1v6.87h-1.1Z"/><path class="cls-5" d="M175.8,255.93h5.56v1h-2.18v5.83H178V257H175.8Z"/><path class="cls-5" d="M181.79,260.6a1.71,1.71,0,0,0,.09.55,1.23,1.23,0,0,0,.24.47,1.14,1.14,0,0,0,.42.33,1.54,1.54,0,0,0,1.37-.09,1.27,1.27,0,0,0,.44-.62h1a2.11,2.11,0,0,1-.3.72,2,2,0,0,1-1.18.86,2.54,2.54,0,0,1-.78.11,2.64,2.64,0,0,1-1-.19,2.19,2.19,0,0,1-.76-.54,2.12,2.12,0,0,1-.47-.83,3.21,3.21,0,0,1-.16-1.05,2.82,2.82,0,0,1,.17-1,2.49,2.49,0,0,1,.48-.84,2.24,2.24,0,0,1,1.75-.78,2.27,2.27,0,0,1,1.06.24,2.32,2.32,0,0,1,.77.65,2.52,2.52,0,0,1,.45.93,2.83,2.83,0,0,1,.07,1.09Zm2.57-.73a2.13,2.13,0,0,0-.11-.5A1.73,1.73,0,0,0,184,259a1.39,1.39,0,0,0-.39-.28,1.07,1.07,0,0,0-.51-.12,1.27,1.27,0,0,0-.52.11,1.13,1.13,0,0,0-.4.27,1.17,1.17,0,0,0-.27.42,1.52,1.52,0,0,0-.12.52Z"/><path class="cls-5" d="M186.32,255.93h1.1v3.9l2-2h1.35l-1.91,1.83,2.09,3.15h-1.34l-1.52-2.42-.65.64v1.78h-1.1Z"/><path class="cls-5" d="M191.46,257.82h1v.73l0,0a1.92,1.92,0,0,1,.65-.65,1.83,1.83,0,0,1,.9-.23,1.89,1.89,0,0,1,1.29.42,1.64,1.64,0,0,1,.47,1.27v3.42h-1.1v-3.13a1.3,1.3,0,0,0-.25-.85.89.89,0,0,0-.72-.27,1.23,1.23,0,0,0-.88.38,1.44,1.44,0,0,0-.24.42,1.7,1.7,0,0,0-.08.51v2.94h-1.1Z"/><path class="cls-5" d="M199.27,262.93a2.76,2.76,0,0,1-1.07-.19,2.34,2.34,0,0,1-.79-.55,2.49,2.49,0,0,1-.49-.82,3.32,3.32,0,0,1-.17-1.06,3.21,3.21,0,0,1,.17-1.05,2.53,2.53,0,0,1,.49-.83,2.31,2.31,0,0,1,.79-.54,2.94,2.94,0,0,1,2.13,0,2.31,2.31,0,0,1,.79.54,2.37,2.37,0,0,1,.49.83,3.21,3.21,0,0,1,.17,1.05,3.32,3.32,0,0,1-.17,1.06,2.28,2.28,0,0,1-1.28,1.37A2.74,2.74,0,0,1,199.27,262.93Zm0-.86a1.18,1.18,0,0,0,.63-.16,1.21,1.21,0,0,0,.44-.4,1.8,1.8,0,0,0,.26-.56,2.8,2.8,0,0,0,.08-.64,2.74,2.74,0,0,0-.08-.64,1.7,1.7,0,0,0-.26-.56,1.21,1.21,0,0,0-.44-.4,1.34,1.34,0,0,0-1.27,0,1.21,1.21,0,0,0-.44.4,1.7,1.7,0,0,0-.26.56,2.74,2.74,0,0,0-.08.64,2.8,2.8,0,0,0,.08.64,1.8,1.8,0,0,0,.26.56,1.21,1.21,0,0,0,.44.4A1.19,1.19,0,0,0,199.27,262.07Z"/><path class="cls-5" d="M202.72,255.93h1.1v6.87h-1.1Z"/><path class="cls-5" d="M207.29,262.93a2.74,2.74,0,0,1-1.06-.19,2.28,2.28,0,0,1-1.28-1.37,3.32,3.32,0,0,1-.17-1.06,3.21,3.21,0,0,1,.17-1.05,2.37,2.37,0,0,1,.49-.83,2.31,2.31,0,0,1,.79-.54,2.94,2.94,0,0,1,2.13,0,2.31,2.31,0,0,1,.79.54,2.37,2.37,0,0,1,.49.83,3.21,3.21,0,0,1,.17,1.05,3.32,3.32,0,0,1-.17,1.06,2.28,2.28,0,0,1-1.28,1.37A2.76,2.76,0,0,1,207.29,262.93Zm0-.86a1.19,1.19,0,0,0,.64-.16,1.21,1.21,0,0,0,.44-.4,1.8,1.8,0,0,0,.26-.56,2.8,2.8,0,0,0,.08-.64,2.74,2.74,0,0,0-.08-.64,1.7,1.7,0,0,0-.26-.56,1.21,1.21,0,0,0-.44-.4,1.34,1.34,0,0,0-1.27,0,1.21,1.21,0,0,0-.44.4,1.7,1.7,0,0,0-.26.56,2.74,2.74,0,0,0-.08.64,2.8,2.8,0,0,0,.08.64,1.8,1.8,0,0,0,.26.56,1.21,1.21,0,0,0,.44.4A1.18,1.18,0,0,0,207.29,262.07Z"/><path class="cls-5" d="M210.75,257.82h1.1v5.4a1.77,1.77,0,0,1-.33,1.15,1.33,1.33,0,0,1-1.1.4h-.27a.83.83,0,0,1-.22,0v-.86l.2,0h.18c.2,0,.32-.06.37-.19a1.52,1.52,0,0,0,.07-.55Zm0-1.89h1.1v1h-1.1Z"/><path class="cls-5" d="M213.07,255.93h1.1v1h-1.1Zm0,1.89h1.1v5h-1.1Z"/><path class="cls-5" d="M215.39,255.93h1.1v6.87h-1.1Z"/><path class="cls-5" d="M218.54,260.6a1.7,1.7,0,0,0,.08.55,1.25,1.25,0,0,0,.25.47,1,1,0,0,0,.41.33,1.37,1.37,0,0,0,.6.12,1.28,1.28,0,0,0,.77-.21,1.21,1.21,0,0,0,.44-.62h1a2.11,2.11,0,0,1-.3.72,2,2,0,0,1-1.18.86,2.47,2.47,0,0,1-.77.11,2.57,2.57,0,0,1-1-.19,2.14,2.14,0,0,1-.77-.54,2.25,2.25,0,0,1-.47-.83,3.21,3.21,0,0,1-.16-1.05,3.06,3.06,0,0,1,.17-1,2.49,2.49,0,0,1,.48-.84,2.39,2.39,0,0,1,2.81-.54,2.47,2.47,0,0,1,.78.65,2.66,2.66,0,0,1,.44.93,2.83,2.83,0,0,1,.08,1.09Zm2.56-.73a2.13,2.13,0,0,0-.11-.5,1.46,1.46,0,0,0-.25-.42,1.39,1.39,0,0,0-.39-.28,1.06,1.06,0,0,0-.5-.12,1.29,1.29,0,0,0-.53.11,1.23,1.23,0,0,0-.4.27,1.51,1.51,0,0,0-.27.42,1.31,1.31,0,0,0-.11.52Z"/><path class="cls-5" d="M223,257.82h1v1h0a1.13,1.13,0,0,1,.19-.4,1.87,1.87,0,0,1,.34-.35,1.7,1.7,0,0,1,.43-.26,1.47,1.47,0,0,1,.5-.09h.26l.15,0v1.06l-.24,0h-.23a1.2,1.2,0,0,0-.53.11,1.1,1.1,0,0,0-.42.33,1.42,1.42,0,0,0-.29.53,2.33,2.33,0,0,0-.11.73v2.37H223Z"/><path class="cls-5" d="M226.45,255.93h1.1v1h-1.1Zm0,1.89h1.1v5h-1.1Z"/><path class="cls-5" d="M232.36,260.51a1.51,1.51,0,0,0,.14.67,1.11,1.11,0,0,0,.37.46,1.55,1.55,0,0,0,.55.26,3,3,0,0,0,.68.08,2.24,2.24,0,0,0,.68-.09,1.37,1.37,0,0,0,.45-.24.81.81,0,0,0,.25-.33,1,1,0,0,0,.08-.38.81.81,0,0,0-.18-.58,1.1,1.1,0,0,0-.39-.27c-.25-.09-.53-.17-.85-.25l-1.2-.31a2.54,2.54,0,0,1-.74-.31,1.74,1.74,0,0,1-.47-.42,1.49,1.49,0,0,1-.24-.49,2,2,0,0,1,.14-1.43,2.05,2.05,0,0,1,.58-.63,2.56,2.56,0,0,1,.8-.37,3.63,3.63,0,0,1,.92-.12,3.75,3.75,0,0,1,1,.14,2.82,2.82,0,0,1,.83.42,2.27,2.27,0,0,1,.58.69,2,2,0,0,1,.21.95h-1.21a1.14,1.14,0,0,0-.45-.94,1.81,1.81,0,0,0-1-.27,2.15,2.15,0,0,0-.43,0,1.8,1.8,0,0,0-.41.14.89.89,0,0,0-.3.28.83.83,0,0,0,.11,1,1.39,1.39,0,0,0,.59.32l.3.08.59.16.64.16.45.13a2,2,0,0,1,.59.28,2.09,2.09,0,0,1,.42.42,1.81,1.81,0,0,1,.33,1.05,1.9,1.9,0,0,1-.24,1,1.82,1.82,0,0,1-.62.67,2.53,2.53,0,0,1-.87.38,4.21,4.21,0,0,1-1,.12,4,4,0,0,1-1.11-.14,2.66,2.66,0,0,1-.91-.44,2.22,2.22,0,0,1-.61-.77,2.38,2.38,0,0,1-.24-1.1Z"/><path class="cls-5" d="M241.82,261.69a.52.52,0,0,0,.06.29.2.2,0,0,0,.2.09h.12l.15,0v.76l-.15,0-.19,0-.19,0h-.16a1.06,1.06,0,0,1-.56-.13.69.69,0,0,1-.29-.47,2,2,0,0,1-.8.46,3.07,3.07,0,0,1-.92.14,2.32,2.32,0,0,1-.65-.09,1.71,1.71,0,0,1-.54-.27,1.29,1.29,0,0,1-.38-.45,1.44,1.44,0,0,1-.14-.64,1.49,1.49,0,0,1,.17-.75,1.29,1.29,0,0,1,.45-.45,1.94,1.94,0,0,1,.61-.24c.23-.05.46-.08.69-.11s.39-.06.57-.08a2.69,2.69,0,0,0,.47-.08.75.75,0,0,0,.33-.18.49.49,0,0,0,.12-.36.56.56,0,0,0-.1-.35.72.72,0,0,0-.25-.21,1.15,1.15,0,0,0-.33-.09l-.35,0a1.36,1.36,0,0,0-.76.2.72.72,0,0,0-.33.59h-1.1a1.64,1.64,0,0,1,.23-.8,1.52,1.52,0,0,1,.51-.5,2.09,2.09,0,0,1,.71-.27,3.59,3.59,0,0,1,.81-.08,2.94,2.94,0,0,1,.72.08,1.9,1.9,0,0,1,.64.25,1.38,1.38,0,0,1,.46.44,1.31,1.31,0,0,1,.17.67Zm-1.09-1.38a1.33,1.33,0,0,1-.62.19c-.24,0-.49.06-.73.11a1.3,1.3,0,0,0-.34.08.87.87,0,0,0-.29.14.68.68,0,0,0-.2.24,1,1,0,0,0-.07.36.47.47,0,0,0,.11.31.82.82,0,0,0,.25.2,1.15,1.15,0,0,0,.33.1l.32,0a1.9,1.9,0,0,0,.4-.05,1.52,1.52,0,0,0,.4-.16,1.11,1.11,0,0,0,.31-.3.76.76,0,0,0,.13-.44Z"/><path class="cls-5" d="M243,257.82h1v.73l0,0a1.75,1.75,0,0,1,1.55-.88,1.89,1.89,0,0,1,1.29.42,1.64,1.64,0,0,1,.47,1.27v3.42h-1.1v-3.13a1.36,1.36,0,0,0-.25-.85.9.9,0,0,0-.72-.27,1.12,1.12,0,0,0-.5.11,1.05,1.05,0,0,0-.38.27,1.46,1.46,0,0,0-.33.93v2.94H243Z"/><path class="cls-5" d="M248.62,261.5H250v1.3h-1.34Z"/><path class="cls-5" d="M253.39,257.82h1.2l1.26,3.82h0l1.21-3.82h1.14l-1.79,5H255.2Z"/><path class="cls-5" d="M259.74,260.6a1.7,1.7,0,0,0,.08.55,1.39,1.39,0,0,0,.24.47,1.14,1.14,0,0,0,.42.33,1.34,1.34,0,0,0,.6.12,1.3,1.3,0,0,0,.77-.21,1.27,1.27,0,0,0,.44-.62h1a2.11,2.11,0,0,1-.3.72,2,2,0,0,1-1.18.86,2.52,2.52,0,0,1-.77.11,2.57,2.57,0,0,1-1-.19,2.14,2.14,0,0,1-.77-.54,2.12,2.12,0,0,1-.47-.83,3.21,3.21,0,0,1-.16-1.05,3.06,3.06,0,0,1,.17-1,2.49,2.49,0,0,1,.48-.84,2.24,2.24,0,0,1,1.76-.78,2.26,2.26,0,0,1,1.05.24,2.47,2.47,0,0,1,.78.65,2.82,2.82,0,0,1,.51,2Zm2.56-.73a2.13,2.13,0,0,0-.11-.5,1.46,1.46,0,0,0-.25-.42,1.39,1.39,0,0,0-.39-.28,1.06,1.06,0,0,0-.5-.12,1.29,1.29,0,0,0-.53.11,1.13,1.13,0,0,0-.4.27,1.43,1.43,0,0,0-.38.94Z"/><path class="cls-5" d="M266.41,255.93H272v1h-2.18v5.83h-1.21V257h-2.17Z"/><path class="cls-5" d="M272.65,255.93h1.09v1h-1.09Zm0,1.89h1.09v5h-1.09Z"/><path class="cls-5" d="M278.3,259.49a1,1,0,0,0-.38-.7,1.17,1.17,0,0,0-.76-.24,1.53,1.53,0,0,0-.45.08,1,1,0,0,0-.45.27,1.51,1.51,0,0,0-.33.55,2.76,2.76,0,0,0-.06,1.53,1.43,1.43,0,0,0,.23.55,1.24,1.24,0,0,0,.4.39,1.17,1.17,0,0,0,.61.15,1.12,1.12,0,0,0,.8-.3,1.5,1.5,0,0,0,.39-.84h1.09a2.43,2.43,0,0,1-.73,1.49,2.28,2.28,0,0,1-1.55.51,2.56,2.56,0,0,1-1-.19,2.19,2.19,0,0,1-.76-.54,2.45,2.45,0,0,1-.47-.82,3.31,3.31,0,0,1-.15-1,3.49,3.49,0,0,1,.15-1,2.45,2.45,0,0,1,.46-.86,2.07,2.07,0,0,1,.77-.56,2.52,2.52,0,0,1,1.07-.21,3.12,3.12,0,0,1,.82.11,2.15,2.15,0,0,1,.7.33,1.81,1.81,0,0,1,.72,1.36Z"/><path class="cls-5" d="M280.38,261.5h1.33v1.3h-1.33Z"/><path class="cls-5" d="M287.63,255.93h1.28l2.65,6.87h-1.29l-.64-1.82h-2.75l-.64,1.82H285Zm-.42,4.14h2.1l-1-3h0Z"/><path class="cls-5" d="M292.15,261.5h1.34v1.3h-1.34Z"/><path class="cls-5" d="M295.66,264.34l.32.12a1.55,1.55,0,0,0,.31,0h.2a.6.6,0,0,0,.19-.06.33.33,0,0,0,.14-.12.31.31,0,0,0,.05-.2.29.29,0,0,0-.14-.27.47.47,0,0,0-.3-.1.76.76,0,0,0-.37.1l-.22-.18.54-.73a3.52,3.52,0,0,1-.58-.09,2,2,0,0,1-.69-.32,1.58,1.58,0,0,1-.46-.54,1.57,1.57,0,0,1-.18-.77h1.09a.87.87,0,0,0,.37.68,1.53,1.53,0,0,0,.76.19l.35,0a1.12,1.12,0,0,0,.37-.09.73.73,0,0,0,.29-.19.56.56,0,0,0,.1-.35.48.48,0,0,0-.16-.34,1.1,1.1,0,0,0-.37-.22,4.6,4.6,0,0,0-.51-.14l-.59-.12a5.72,5.72,0,0,1-.59-.17,1.75,1.75,0,0,1-.51-.26,1.22,1.22,0,0,1-.36-.42,1.33,1.33,0,0,1-.14-.63,1.16,1.16,0,0,1,.2-.68,1.52,1.52,0,0,1,.5-.44,2.1,2.1,0,0,1,.68-.23,3.46,3.46,0,0,1,.7-.07,3.57,3.57,0,0,1,.74.08,2,2,0,0,1,.63.27,1.65,1.65,0,0,1,.48.47,1.7,1.7,0,0,1,.23.71h-1.14a.71.71,0,0,0-.36-.53,1.51,1.51,0,0,0-.65-.14l-.28,0a1.67,1.67,0,0,0-.3.08.51.51,0,0,0-.23.15.35.35,0,0,0-.1.26.42.42,0,0,0,.14.33,1.09,1.09,0,0,0,.37.21,4.6,4.6,0,0,0,.51.14l.6.12c.2.05.39.1.59.17a1.75,1.75,0,0,1,.51.26,1.33,1.33,0,0,1,.37.41,1.29,1.29,0,0,1,.14.62,1.32,1.32,0,0,1-.21.75,1.66,1.66,0,0,1-.52.5,2.51,2.51,0,0,1-.72.28,3.17,3.17,0,0,1-.61.07l-.34.45h0a.28.28,0,0,1,.13,0h.19a.9.9,0,0,1,.28,0,.87.87,0,0,1,.27.14.82.82,0,0,1,.19.22.66.66,0,0,1,.07.32.71.71,0,0,1-.1.41.87.87,0,0,1-.27.27,1.11,1.11,0,0,1-.37.15,1.52,1.52,0,0,1-.42.06,2.18,2.18,0,0,1-.52-.06,1.38,1.38,0,0,1-.47-.17Z"/><path class="cls-5" d="M299.82,261.5h1.34v1.3h-1.34Z"/><path class="cls-5" d="M302.57,258.08a.57.57,0,0,0,.47-.29,1.25,1.25,0,0,0,.12-.56h-.59v-1.3h1.21v1.3a1.38,1.38,0,0,1-.33.94,1.32,1.32,0,0,1-.88.47Z"/><path class="cls-5" d="M304.54,257.82h1.2l1.3,3.72h0l1.26-3.72h1.14l-1.93,5.25c-.09.22-.18.44-.27.64a2.25,2.25,0,0,1-.31.55,1.31,1.31,0,0,1-.47.37,1.5,1.5,0,0,1-.71.14,6.33,6.33,0,0,1-.76,0v-.93l.26,0a1.09,1.09,0,0,0,.26,0,.87.87,0,0,0,.31-.05.46.46,0,0,0,.21-.14.69.69,0,0,0,.14-.22,1.82,1.82,0,0,0,.11-.28l.12-.39Z"/><path class="cls-5" d="M310.94,260.6a1.7,1.7,0,0,0,.08.55,1.39,1.39,0,0,0,.24.47,1.14,1.14,0,0,0,.42.33,1.37,1.37,0,0,0,.6.12,1.3,1.3,0,0,0,.77-.21,1.21,1.21,0,0,0,.44-.62h1a2.11,2.11,0,0,1-.3.72,2,2,0,0,1-1.18.86,2.52,2.52,0,0,1-.77.11,2.57,2.57,0,0,1-1-.19,2.14,2.14,0,0,1-.77-.54,2.12,2.12,0,0,1-.47-.83,3.21,3.21,0,0,1-.16-1.05,3.06,3.06,0,0,1,.17-1,2.49,2.49,0,0,1,.48-.84,2.39,2.39,0,0,1,2.81-.54,2.47,2.47,0,0,1,.78.65,2.66,2.66,0,0,1,.44.93,2.83,2.83,0,0,1,.08,1.09Zm2.56-.73a1.72,1.72,0,0,0-.11-.5,1.46,1.46,0,0,0-.25-.42,1.39,1.39,0,0,0-.39-.28,1.06,1.06,0,0,0-.5-.12,1.29,1.29,0,0,0-.53.11,1.13,1.13,0,0,0-.4.27,1.51,1.51,0,0,0-.27.42,1.31,1.31,0,0,0-.11.52Z"/><path class="cls-5" d="M317.56,257.82h1.2l1.3,3.72h0l1.26-3.72h1.15l-1.94,5.25c-.09.22-.17.44-.26.64a2.27,2.27,0,0,1-.32.55,1.23,1.23,0,0,1-.47.37,1.47,1.47,0,0,1-.71.14,6.47,6.47,0,0,1-.76,0v-.93l.26,0a1.15,1.15,0,0,0,.26,0,.93.93,0,0,0,.32-.05.6.6,0,0,0,.21-.14.93.93,0,0,0,.14-.22c0-.08.07-.18.1-.28l.13-.39Z"/><path class="cls-5" d="M324,260.6a2,2,0,0,0,.08.55,1.41,1.41,0,0,0,.25.47,1.2,1.2,0,0,0,.41.33,1.4,1.4,0,0,0,.6.12,1.28,1.28,0,0,0,.77-.21,1.16,1.16,0,0,0,.44-.62h1a2.11,2.11,0,0,1-.3.72,2,2,0,0,1-1.18.86,2.43,2.43,0,0,1-.77.11,2.61,2.61,0,0,1-1-.19,2.23,2.23,0,0,1-.77-.54,2.4,2.4,0,0,1-.47-.83,3.5,3.5,0,0,1-.16-1.05,3.06,3.06,0,0,1,.17-1,2.49,2.49,0,0,1,.48-.84,2.27,2.27,0,0,1,.76-.57,2.29,2.29,0,0,1,1-.21,2.26,2.26,0,0,1,1.05.24,2.36,2.36,0,0,1,.78.65,2.87,2.87,0,0,1,.45.93,3,3,0,0,1,.07,1.09Zm2.56-.73a1.72,1.72,0,0,0-.11-.5,1.27,1.27,0,0,0-.25-.42,1.34,1.34,0,0,0-.38-.28,1.1,1.1,0,0,0-.51-.12,1.24,1.24,0,0,0-.52.11,1.17,1.17,0,0,0-.41.27,1.43,1.43,0,0,0-.38.94Z"/><path class="cls-5" d="M328,257.82h.82v-1.49h1.1v1.49h1v.82h-1v2.66a2.66,2.66,0,0,0,0,.3.65.65,0,0,0,.06.21.34.34,0,0,0,.16.13.78.78,0,0,0,.29,0h.23l.23,0v.85l-.35,0-.36,0a2.64,2.64,0,0,1-.7-.08,1.09,1.09,0,0,1-.41-.24.8.8,0,0,1-.2-.4,2.94,2.94,0,0,1-.07-.55v-2.94H328Z"/><path class="cls-5" d="M331.69,255.93h1.1v3.9l2-2h1.35l-1.91,1.83,2.09,3.15H335l-1.52-2.42-.65.64v1.78h-1.1Z"/><path class="cls-5" d="M336.86,255.93H338v1h-1.1Zm0,1.89H338v5h-1.1Z"/><path class="cls-5" d="M339.18,255.93h1.1v6.87h-1.1Z"/><path class="cls-5" d="M341.5,255.93h1.1v1h-1.1Zm0,1.89h1.1v5h-1.1Z"/><path class="cls-5" d="M346.5,255.93h1.09v3.9l2-2h1.34l-1.9,1.83,2.09,3.15h-1.34l-1.52-2.42-.66.64v1.78H346.5Z"/><path class="cls-5" d="M356,262.8h-1.08v-.69h0a1.57,1.57,0,0,1-.6.6,1.66,1.66,0,0,1-.82.22,1.86,1.86,0,0,1-1.42-.48,2.17,2.17,0,0,1-.43-1.47v-3.16h1.09v3.05a1.4,1.4,0,0,0,.25.93.92.92,0,0,0,.71.27,1.35,1.35,0,0,0,.57-.11,1,1,0,0,0,.38-.28,1.15,1.15,0,0,0,.21-.43,2.35,2.35,0,0,0,.06-.54v-2.89H356Z"/><path class="cls-5" d="M357.16,257.82h1v1h0a1,1,0,0,1,.19-.4,1.81,1.81,0,0,1,.33-.35,2,2,0,0,1,.44-.26,1.41,1.41,0,0,1,.49-.09h.27l.15,0v1.06l-.24,0h-.23a1.2,1.2,0,0,0-.53.11,1.13,1.13,0,0,0-.43.33,1.58,1.58,0,0,0-.29.53,2.34,2.34,0,0,0-.1.73v2.37h-1.1Z"/><path class="cls-5" d="M364.92,262.8h-1.08v-.69h0a1.45,1.45,0,0,1-.6.6,1.65,1.65,0,0,1-.81.22,1.83,1.83,0,0,1-1.42-.48,2.17,2.17,0,0,1-.44-1.47v-3.16h1.1v3.05a1.35,1.35,0,0,0,.25.93.9.9,0,0,0,.7.27,1.43,1.43,0,0,0,.58-.11,1,1,0,0,0,.37-.28,1,1,0,0,0,.21-.43,2.35,2.35,0,0,0,.06-.54v-2.89h1.1Z"/><path class="cls-5" d="M366.07,257.82h1v.7h0a3.37,3.37,0,0,1,.27-.34,1.64,1.64,0,0,1,.33-.26,1.46,1.46,0,0,1,.4-.17,2.15,2.15,0,0,1,.53-.06,1.9,1.9,0,0,1,.85.2,1.14,1.14,0,0,1,.55.63,2.17,2.17,0,0,1,.64-.61,1.74,1.74,0,0,1,.92-.22,1.86,1.86,0,0,1,1.23.38,1.66,1.66,0,0,1,.43,1.29v3.44H372.2v-2.91c0-.2,0-.38,0-.54a1.23,1.23,0,0,0-.11-.42.63.63,0,0,0-.28-.28,1.13,1.13,0,0,0-.5-.1.94.94,0,0,0-.81.35,1.71,1.71,0,0,0-.25,1v2.92h-1.09v-3.2a1.4,1.4,0,0,0-.19-.78.8.8,0,0,0-.69-.27,1,1,0,0,0-.41.09,1.07,1.07,0,0,0-.35.25,1.27,1.27,0,0,0-.24.41,1.53,1.53,0,0,0-.09.54v3h-1.1Z"/><path class="cls-5" d="M376.62,257.82h.83v-1.49h1.1v1.49h1v.82h-1v2.66a2.81,2.81,0,0,0,0,.3.65.65,0,0,0,.07.21.34.34,0,0,0,.16.13.78.78,0,0,0,.29,0h.23l.23,0v.85l-.35,0-.36,0a2.64,2.64,0,0,1-.7-.08,1,1,0,0,1-.41-.24.9.9,0,0,1-.21-.4,4.21,4.21,0,0,1-.06-.55v-2.94h-.83Z"/><path class="cls-5" d="M384.5,261.69a.65.65,0,0,0,.05.29.23.23,0,0,0,.21.09h.11l.16,0v.76l-.15,0-.19,0-.19,0h-.17a1,1,0,0,1-.55-.13.66.66,0,0,1-.29-.47,2,2,0,0,1-.81.46,3,3,0,0,1-.92.14,2.3,2.3,0,0,1-.64-.09,1.61,1.61,0,0,1-.54-.27,1.19,1.19,0,0,1-.38-.45,1.44,1.44,0,0,1-.14-.64,1.49,1.49,0,0,1,.17-.75,1.27,1.27,0,0,1,.44-.45,2.11,2.11,0,0,1,.62-.24c.23-.05.46-.08.69-.11s.39-.06.56-.08a3,3,0,0,0,.48-.08.75.75,0,0,0,.33-.18.49.49,0,0,0,.12-.36.56.56,0,0,0-.1-.35.72.72,0,0,0-.25-.21,1.15,1.15,0,0,0-.33-.09l-.35,0a1.36,1.36,0,0,0-.76.2.75.75,0,0,0-.34.59h-1.1a1.64,1.64,0,0,1,.24-.8,1.44,1.44,0,0,1,.51-.5,2,2,0,0,1,.71-.27,3.59,3.59,0,0,1,.81-.08,2.94,2.94,0,0,1,.72.08,1.9,1.9,0,0,1,.64.25,1.38,1.38,0,0,1,.46.44,1.31,1.31,0,0,1,.17.67Zm-1.1-1.38a1.29,1.29,0,0,1-.61.19c-.25,0-.49.06-.74.11a1.32,1.32,0,0,0-.33.08.87.87,0,0,0-.29.14.59.59,0,0,0-.2.24.8.8,0,0,0-.07.36.46.46,0,0,0,.1.31.86.86,0,0,0,.26.2,1.15,1.15,0,0,0,.33.1l.32,0a1.89,1.89,0,0,0,.39-.05,1.29,1.29,0,0,0,.4-.16,1.14,1.14,0,0,0,.32-.3.76.76,0,0,0,.12-.44Z"/><path class="cls-5" d="M385.68,257.82h1v1h0a1.13,1.13,0,0,1,.19-.4,1.6,1.6,0,0,1,.34-.35,1.7,1.7,0,0,1,.43-.26,1.43,1.43,0,0,1,.5-.09h.26l.15,0v1.06l-.24,0h-.23a1.21,1.21,0,0,0-1,.44,1.57,1.57,0,0,0-.28.53,2.08,2.08,0,0,0-.11.73v2.37h-1.1Z"/><path class="cls-5" d="M393.24,261.69a.65.65,0,0,0,.05.29.23.23,0,0,0,.21.09h.11l.16,0v.76l-.15,0-.19,0-.19,0h-.16a1.06,1.06,0,0,1-.56-.13.66.66,0,0,1-.29-.47,2,2,0,0,1-.81.46,3,3,0,0,1-.92.14,2.3,2.3,0,0,1-.64-.09,1.61,1.61,0,0,1-.54-.27,1.19,1.19,0,0,1-.38-.45,1.44,1.44,0,0,1-.14-.64,1.49,1.49,0,0,1,.17-.75,1.27,1.27,0,0,1,.44-.45A2.11,2.11,0,0,1,390,260c.23-.05.46-.08.69-.11s.39-.06.57-.08a3.06,3.06,0,0,0,.47-.08.75.75,0,0,0,.33-.18.49.49,0,0,0,.12-.36.56.56,0,0,0-.1-.35.72.72,0,0,0-.25-.21,1.15,1.15,0,0,0-.33-.09l-.35,0a1.36,1.36,0,0,0-.76.2.75.75,0,0,0-.34.59H389a1.64,1.64,0,0,1,.24-.8,1.44,1.44,0,0,1,.51-.5,2,2,0,0,1,.71-.27,3.59,3.59,0,0,1,.81-.08,2.94,2.94,0,0,1,.72.08,1.9,1.9,0,0,1,.64.25,1.38,1.38,0,0,1,.46.44,1.31,1.31,0,0,1,.17.67Zm-1.1-1.38a1.29,1.29,0,0,1-.61.19c-.25,0-.49.06-.74.11a1.32,1.32,0,0,0-.33.08.87.87,0,0,0-.29.14.59.59,0,0,0-.2.24.8.8,0,0,0-.07.36.46.46,0,0,0,.1.31,1,1,0,0,0,.26.2,1.15,1.15,0,0,0,.33.1l.32,0a1.89,1.89,0,0,0,.39-.05,1.29,1.29,0,0,0,.4-.16,1.14,1.14,0,0,0,.32-.3.76.76,0,0,0,.12-.44Z"/><path class="cls-5" d="M393.93,257.82h.82v-.41a2.07,2.07,0,0,1,.12-.77,1,1,0,0,1,.74-.66,2.24,2.24,0,0,1,.52,0,3.53,3.53,0,0,1,.77.06v.86l-.23,0-.28,0a.66.66,0,0,0-.38.11.45.45,0,0,0-.16.41v.51h.93v.82h-.93v4.16h-1.1v-4.16h-.82Z"/><path class="cls-5" d="M397.48,262.8v-5h1.1v5Z"/><path class="cls-5" d="M399.78,257.82h1v.73l0,0a2,2,0,0,1,.66-.65,1.82,1.82,0,0,1,.89-.23,1.86,1.86,0,0,1,1.29.42,1.61,1.61,0,0,1,.48,1.27v3.42h-1.1v-3.13a1.36,1.36,0,0,0-.25-.85.91.91,0,0,0-.72-.27,1.12,1.12,0,0,0-.5.11,1.05,1.05,0,0,0-.38.27,1.46,1.46,0,0,0-.33.93v2.94h-1.09Z"/><path class="cls-5" d="M410,262.8h-1v-.67h0a1.31,1.31,0,0,1-.65.62,2.25,2.25,0,0,1-.89.18,2.4,2.4,0,0,1-1-.2,2,2,0,0,1-.72-.57,2.24,2.24,0,0,1-.44-.84,3.84,3.84,0,0,1-.14-1,3.43,3.43,0,0,1,.18-1.17,2.5,2.5,0,0,1,.49-.81,1.86,1.86,0,0,1,.69-.46,2.22,2.22,0,0,1,.8-.15,2.56,2.56,0,0,1,.47,0,2.44,2.44,0,0,1,.46.14,2.14,2.14,0,0,1,.41.25,1.3,1.3,0,0,1,.31.35h0v-2.54H410Zm-3.83-2.44a2.18,2.18,0,0,0,.08.63,1.63,1.63,0,0,0,.25.55,1.13,1.13,0,0,0,.43.38,1.2,1.2,0,0,0,.61.15,1.14,1.14,0,0,0,.63-.16,1.3,1.3,0,0,0,.44-.4,2,2,0,0,0,.25-.56,2.8,2.8,0,0,0,.08-.64,2,2,0,0,0-.37-1.29,1.23,1.23,0,0,0-1-.47,1.33,1.33,0,0,0-.65.16,1.44,1.44,0,0,0-.43.42,1.77,1.77,0,0,0-.24.58A2.81,2.81,0,0,0,406.16,260.36Z"/><path class="cls-5" d="M415.35,261.69a.65.65,0,0,0,0,.29.23.23,0,0,0,.21.09h.11l.16,0v.76l-.15,0-.19,0-.19,0h-.16a1.06,1.06,0,0,1-.56-.13.66.66,0,0,1-.29-.47,2,2,0,0,1-.8.46,3.07,3.07,0,0,1-.92.14,2.32,2.32,0,0,1-.65-.09,1.61,1.61,0,0,1-.54-.27,1.19,1.19,0,0,1-.38-.45,1.44,1.44,0,0,1-.14-.64,1.49,1.49,0,0,1,.17-.75,1.27,1.27,0,0,1,.44-.45,2.11,2.11,0,0,1,.62-.24c.23-.05.46-.08.69-.11s.39-.06.57-.08a2.86,2.86,0,0,0,.47-.08.75.75,0,0,0,.33-.18.49.49,0,0,0,.12-.36.56.56,0,0,0-.1-.35.72.72,0,0,0-.25-.21,1.15,1.15,0,0,0-.33-.09l-.35,0a1.36,1.36,0,0,0-.76.2.75.75,0,0,0-.34.59h-1.1a1.64,1.64,0,0,1,.24-.8,1.44,1.44,0,0,1,.51-.5,2.09,2.09,0,0,1,.71-.27,3.59,3.59,0,0,1,.81-.08,2.94,2.94,0,0,1,.72.08,1.9,1.9,0,0,1,.64.25,1.38,1.38,0,0,1,.46.44,1.31,1.31,0,0,1,.17.67Zm-1.1-1.38a1.29,1.29,0,0,1-.61.19c-.25,0-.49.06-.74.11a1.32,1.32,0,0,0-.33.08.87.87,0,0,0-.29.14.68.68,0,0,0-.2.24.8.8,0,0,0-.07.36.42.42,0,0,0,.11.31.82.82,0,0,0,.25.2,1.15,1.15,0,0,0,.33.1l.32,0a2.08,2.08,0,0,0,.4-.05,1.34,1.34,0,0,0,.39-.16,1.14,1.14,0,0,0,.32-.3.76.76,0,0,0,.12-.44Z"/><path class="cls-5" d="M416.53,257.82h1v.73l0,0a2,2,0,0,1,.66-.65,1.82,1.82,0,0,1,.89-.23,1.86,1.86,0,0,1,1.29.42,1.6,1.6,0,0,1,.47,1.27v3.42h-1.09v-3.13a1.43,1.43,0,0,0-.25-.85.92.92,0,0,0-.73-.27,1.18,1.18,0,0,0-.5.11,1.11,1.11,0,0,0-.37.27,1.46,1.46,0,0,0-.33.93v2.94h-1.1Z"/><path class="cls-5" d="M424.23,257.82h.83v-1.49h1.1v1.49h1v.82h-1v2.66a2.81,2.81,0,0,0,0,.3.65.65,0,0,0,.07.21.34.34,0,0,0,.16.13.78.78,0,0,0,.29,0h.23l.23,0v.85l-.36,0-.35,0a2.64,2.64,0,0,1-.7-.08,1,1,0,0,1-.41-.24.9.9,0,0,1-.21-.4,4.21,4.21,0,0,1-.06-.55v-2.94h-.83Z"/><path class="cls-5" d="M428.8,260.6a1.7,1.7,0,0,0,.08.55,1.23,1.23,0,0,0,.24.47,1.14,1.14,0,0,0,.42.33,1.35,1.35,0,0,0,.59.12,1.31,1.31,0,0,0,.78-.21,1.21,1.21,0,0,0,.44-.62h1a2.11,2.11,0,0,1-.3.72,2,2,0,0,1-1.18.86,2.86,2.86,0,0,1-1.81-.08,2.14,2.14,0,0,1-.77-.54,2.12,2.12,0,0,1-.47-.83,3.21,3.21,0,0,1-.16-1.05,3.06,3.06,0,0,1,.17-1,2.49,2.49,0,0,1,.48-.84,2.24,2.24,0,0,1,1.76-.78,2.26,2.26,0,0,1,1.05.24,2.32,2.32,0,0,1,.77.65,2.52,2.52,0,0,1,.45.93,2.83,2.83,0,0,1,.08,1.09Zm2.56-.73a2.13,2.13,0,0,0-.11-.5A1.46,1.46,0,0,0,431,259a1.39,1.39,0,0,0-.39-.28,1.06,1.06,0,0,0-.5-.12,1.29,1.29,0,0,0-.53.11,1.13,1.13,0,0,0-.4.27,1.17,1.17,0,0,0-.27.42,1.31,1.31,0,0,0-.11.52Z"/><path class="cls-5" d="M434.12,261.2a.82.82,0,0,0,.37.68,1.5,1.5,0,0,0,.76.19l.35,0A1.18,1.18,0,0,0,436,262a.7.7,0,0,0,.28-.19.46.46,0,0,0,.1-.35.43.43,0,0,0-.15-.34,1.21,1.21,0,0,0-.37-.22,4.25,4.25,0,0,0-.52-.14l-.58-.12a5.25,5.25,0,0,1-.6-.17,2,2,0,0,1-.51-.26,1.22,1.22,0,0,1-.36-.42,1.34,1.34,0,0,1-.13-.63,1.1,1.1,0,0,1,.2-.68,1.42,1.42,0,0,1,.5-.44,2,2,0,0,1,.67-.23,3.56,3.56,0,0,1,.71-.07,3.47,3.47,0,0,1,.73.08,1.93,1.93,0,0,1,.64.27,1.51,1.51,0,0,1,.47.47,1.71,1.71,0,0,1,.24.71h-1.15a.68.68,0,0,0-.36-.53,1.48,1.48,0,0,0-.65-.14l-.27,0a1.32,1.32,0,0,0-.3.08.55.55,0,0,0-.24.15.44.44,0,0,0,.05.59,1,1,0,0,0,.36.21,4.25,4.25,0,0,0,.52.14l.59.12a5.72,5.72,0,0,1,.59.17,2,2,0,0,1,.52.26,1.19,1.19,0,0,1,.36.41,1.29,1.29,0,0,1,.14.62,1.4,1.4,0,0,1-.2.75,1.69,1.69,0,0,1-.53.5,2.34,2.34,0,0,1-.71.28,3.56,3.56,0,0,1-.78.08,3.35,3.35,0,0,1-.87-.1,2.14,2.14,0,0,1-.7-.32,1.7,1.7,0,0,1-.46-.54,1.82,1.82,0,0,1-.18-.77Z"/><path class="cls-5" d="M441.65,259.49a1.07,1.07,0,0,0-.37-.7,1.2,1.2,0,0,0-.77-.24,1.53,1.53,0,0,0-.45.08.9.9,0,0,0-.44.27,1.4,1.4,0,0,0-.34.55,2.76,2.76,0,0,0-.06,1.53,1.6,1.6,0,0,0,.23.55,1.18,1.18,0,0,0,.41.39,1.14,1.14,0,0,0,.6.15,1.12,1.12,0,0,0,.8-.3,1.38,1.38,0,0,0,.39-.84h1.1a2.44,2.44,0,0,1-.74,1.49,2.26,2.26,0,0,1-1.55.51,2.56,2.56,0,0,1-1-.19,2.19,2.19,0,0,1-.76-.54,2.27,2.27,0,0,1-.46-.82,3,3,0,0,1-.16-1,3.49,3.49,0,0,1,.15-1,2.45,2.45,0,0,1,.46-.86,2.07,2.07,0,0,1,.77-.56,2.52,2.52,0,0,1,1.07-.21,3.2,3.2,0,0,1,.83.11,2.1,2.1,0,0,1,.69.33,1.66,1.66,0,0,1,.49.56,1.93,1.93,0,0,1,.24.8Z"/><path class="cls-5" d="M443.67,255.93h1.1v1h-1.1Zm0,1.89h1.1v5h-1.1Z"/><path class="cls-5" d="M446,255.93h1.1v6.87H446Z"/><path class="cls-5" d="M451.81,260.6a2,2,0,0,0,.08.55,1.41,1.41,0,0,0,.25.47,1.2,1.2,0,0,0,.41.33,1.4,1.4,0,0,0,.6.12,1.33,1.33,0,0,0,.78-.21,1.2,1.2,0,0,0,.43-.62h1a1.92,1.92,0,0,1-.29.72,2.43,2.43,0,0,1-.52.54,2.13,2.13,0,0,1-.66.32,2.54,2.54,0,0,1-.78.11,2.61,2.61,0,0,1-1-.19,2.1,2.1,0,0,1-.76-.54,2.27,2.27,0,0,1-.48-.83,3.51,3.51,0,0,1-.15-1.05,3.05,3.05,0,0,1,.16-1,2.69,2.69,0,0,1,.49-.84,2.23,2.23,0,0,1,.75-.57,2.33,2.33,0,0,1,1-.21,2.3,2.3,0,0,1,1.06.24,2.32,2.32,0,0,1,.77.65,2.52,2.52,0,0,1,.45.93,2.83,2.83,0,0,1,.07,1.09Zm2.56-.73a1.72,1.72,0,0,0-.11-.5A1.27,1.27,0,0,0,454,259a1.21,1.21,0,0,0-.38-.28,1.07,1.07,0,0,0-.51-.12,1.24,1.24,0,0,0-.52.11,1.27,1.27,0,0,0-.41.27,1.51,1.51,0,0,0-.27.42,1.78,1.78,0,0,0-.11.52Z"/><path class="cls-5" d="M461,262.8h-1v-.67h0a1.35,1.35,0,0,1-.65.62,2.25,2.25,0,0,1-.89.18,2.37,2.37,0,0,1-1-.2,2,2,0,0,1-.72-.57,2.24,2.24,0,0,1-.44-.84,3.84,3.84,0,0,1-.14-1,3.43,3.43,0,0,1,.18-1.17,2.34,2.34,0,0,1,.49-.81,1.86,1.86,0,0,1,.69-.46,2.17,2.17,0,0,1,.79-.15,2.59,2.59,0,0,1,.48,0,2.44,2.44,0,0,1,.46.14,2.5,2.5,0,0,1,.41.25,1.3,1.3,0,0,1,.31.35h0v-2.54H461Zm-3.83-2.44a2.18,2.18,0,0,0,.08.63,1.46,1.46,0,0,0,.25.55,1.13,1.13,0,0,0,.43.38,1.17,1.17,0,0,0,.61.15,1.14,1.14,0,0,0,.63-.16,1.3,1.3,0,0,0,.44-.4,2,2,0,0,0,.25-.56,2.8,2.8,0,0,0,.08-.64,2,2,0,0,0-.37-1.29,1.24,1.24,0,0,0-1-.47,1.3,1.3,0,0,0-.65.16,1.33,1.33,0,0,0-.43.42,1.77,1.77,0,0,0-.24.58A2.81,2.81,0,0,0,457.17,260.36Z"/><path class="cls-5" d="M462.22,255.93h1.1v1h-1.1Zm0,1.89h1.1v5h-1.1Z"/><path class="cls-5" d="M464.54,255.93h1.1v6.87h-1.1Z"/><path class="cls-5" d="M466.83,257.82h1v.7h0a1.84,1.84,0,0,1,.27-.34,1.35,1.35,0,0,1,.32-.26,1.68,1.68,0,0,1,.41-.17,2.09,2.09,0,0,1,.53-.06,1.86,1.86,0,0,1,.84.2,1.14,1.14,0,0,1,.55.63,2.21,2.21,0,0,1,.65-.61,1.7,1.7,0,0,1,.91-.22,1.83,1.83,0,0,1,1.23.38,1.66,1.66,0,0,1,.44,1.29v3.44H473v-2.91a4.52,4.52,0,0,0,0-.54,1,1,0,0,0-.11-.42.61.61,0,0,0-.27-.28,1.17,1.17,0,0,0-.5-.1.93.93,0,0,0-.81.35,1.63,1.63,0,0,0-.25,1v2.92h-1.1v-3.2a1.32,1.32,0,0,0-.19-.78.77.77,0,0,0-.69-.27.93.93,0,0,0-.4.09,1,1,0,0,0-.35.25,1.27,1.27,0,0,0-.24.41,1.53,1.53,0,0,0-.09.54v3h-1.1Z"/><path class="cls-5" d="M475.23,255.93h1.1v1h-1.1Zm0,1.89h1.1v5h-1.1Z"/><path class="cls-5" d="M478.45,264.34l.32.12a1.39,1.39,0,0,0,.3,0h.21a.6.6,0,0,0,.19-.06.41.41,0,0,0,.14-.12.39.39,0,0,0,.05-.2.31.31,0,0,0-.14-.27.47.47,0,0,0-.3-.1.8.8,0,0,0-.38.1l-.21-.18.54-.73a3.64,3.64,0,0,1-.59-.09,2.19,2.19,0,0,1-.69-.32,1.7,1.7,0,0,1-.46-.54,1.82,1.82,0,0,1-.18-.77h1.1a.84.84,0,0,0,.37.68,1.5,1.5,0,0,0,.76.19l.35,0a1.18,1.18,0,0,0,.37-.09.63.63,0,0,0,.28-.19.46.46,0,0,0,.1-.35.43.43,0,0,0-.15-.34,1.21,1.21,0,0,0-.37-.22,4.25,4.25,0,0,0-.52-.14l-.58-.12a4.57,4.57,0,0,1-.59-.17,1.75,1.75,0,0,1-.51-.26,1.12,1.12,0,0,1-.36-.42,1.33,1.33,0,0,1-.14-.63,1.16,1.16,0,0,1,.2-.68,1.52,1.52,0,0,1,.5-.44,2,2,0,0,1,.67-.23,3.55,3.55,0,0,1,1.45,0,2,2,0,0,1,.63.27,1.51,1.51,0,0,1,.47.47,1.58,1.58,0,0,1,.24.71h-1.15a.68.68,0,0,0-.36-.53,1.48,1.48,0,0,0-.65-.14l-.27,0a1.32,1.32,0,0,0-.3.08.61.61,0,0,0-.24.15.44.44,0,0,0,.05.59,1,1,0,0,0,.36.21,4.81,4.81,0,0,0,.52.14l.59.12a5.72,5.72,0,0,1,.59.17,1.81,1.81,0,0,1,.52.26,1.2,1.2,0,0,1,.5,1,1.4,1.4,0,0,1-.2.75,1.77,1.77,0,0,1-.52.5,2.51,2.51,0,0,1-.72.28,3.27,3.27,0,0,1-.62.07l-.33.45h0a.32.32,0,0,1,.14,0h.18a1,1,0,0,1,.29,0,.82.82,0,0,1,.26.14.67.67,0,0,1,.19.22.57.57,0,0,1,.08.32.71.71,0,0,1-.1.41,1,1,0,0,1-.65.42,1.4,1.4,0,0,1-.41.06,2.33,2.33,0,0,1-.53-.06,1.56,1.56,0,0,1-.47-.17Z"/><path class="cls-5" d="M482,257.82h.83v-1.49h1.09v1.49h1v.82h-1v2.66a2.66,2.66,0,0,0,0,.3.48.48,0,0,0,.07.21.28.28,0,0,0,.15.13.81.81,0,0,0,.29,0h.24l.23,0v.85l-.36,0-.36,0a2.51,2.51,0,0,1-.69-.08,1.06,1.06,0,0,1-.42-.24.8.8,0,0,1-.2-.4,2.32,2.32,0,0,1-.06-.55v-2.94H482Z"/><path class="cls-5" d="M485.75,255.93h1.1v1h-1.1Zm0,1.89h1.1v5h-1.1Z"/><path class="cls-5" d="M488,257.82h1v1h0a1.33,1.33,0,0,1,.19-.4,1.87,1.87,0,0,1,.34-.35,1.76,1.76,0,0,1,.44-.26,1.37,1.37,0,0,1,.49-.09h.26l.15,0v1.06l-.23,0h-.24a1.2,1.2,0,0,0-.53.11,1.1,1.1,0,0,0-.42.33,1.58,1.58,0,0,0-.29.53,2.33,2.33,0,0,0-.11.73v2.37H488Z"/><path class="cls-5" d="M490.63,261.5H492v1.3h-1.34Z"/><path class="cls-5" d="M2.64,267.48H3.92l2.65,6.87H5.28l-.65-1.82H1.89l-.65,1.82H0Zm-.43,4.14h2.1l-1-3h0Z"/><path class="cls-5" d="M7.07,269.37h1v.7h0c.09-.12.18-.24.27-.34a1.64,1.64,0,0,1,.33-.26,1.46,1.46,0,0,1,.4-.17,2.23,2.23,0,0,1,.54-.06,1.86,1.86,0,0,1,.84.2,1.18,1.18,0,0,1,.55.63,2.21,2.21,0,0,1,.65-.61,1.68,1.68,0,0,1,.91-.22,1.85,1.85,0,0,1,1.23.38,1.67,1.67,0,0,1,.44,1.3v3.43h-1.1v-2.91c0-.19,0-.38,0-.54a1.08,1.08,0,0,0-.11-.42.63.63,0,0,0-.28-.28,1.12,1.12,0,0,0-.5-.09.94.94,0,0,0-.81.34,1.71,1.71,0,0,0-.25,1v2.92H10.13v-3.19a1.41,1.41,0,0,0-.19-.79.79.79,0,0,0-.69-.26,1.15,1.15,0,0,0-.41.08.94.94,0,0,0-.34.25,1.5,1.5,0,0,0-.25.41,1.55,1.55,0,0,0-.09.55v3H7.07Z"/><path class="cls-5" d="M19.61,273.24a.62.62,0,0,0,.05.29.23.23,0,0,0,.21.09H20l.16,0v.76l-.15,0-.19.05-.19,0h-.17a1,1,0,0,1-.55-.14.66.66,0,0,1-.29-.47,1.91,1.91,0,0,1-.81.46,3,3,0,0,1-.92.15,2,2,0,0,1-.64-.1,1.52,1.52,0,0,1-.54-.27,1.12,1.12,0,0,1-.38-.45,1.41,1.41,0,0,1-.14-.64,1.49,1.49,0,0,1,.17-.75,1.27,1.27,0,0,1,.44-.45,2,2,0,0,1,.62-.24l.69-.11c.2,0,.38-.06.56-.08a3,3,0,0,0,.48-.08.75.75,0,0,0,.33-.18.49.49,0,0,0,.12-.36.63.63,0,0,0-.1-.35.69.69,0,0,0-.25-.2,1.13,1.13,0,0,0-.34-.1,2,2,0,0,0-.34,0,1.36,1.36,0,0,0-.76.19.77.77,0,0,0-.34.6h-1.1a1.71,1.71,0,0,1,.23-.8,1.49,1.49,0,0,1,.52-.51,2,2,0,0,1,.71-.27,4.28,4.28,0,0,1,.81-.08,3.53,3.53,0,0,1,.72.08,1.9,1.9,0,0,1,.64.25,1.27,1.27,0,0,1,.45.44,1.22,1.22,0,0,1,.18.67Zm-1.1-1.38a1.42,1.42,0,0,1-.62.2,6.38,6.38,0,0,0-.73.1,2,2,0,0,0-.33.08.87.87,0,0,0-.29.14.59.59,0,0,0-.2.24.8.8,0,0,0-.07.36.45.45,0,0,0,.1.31.73.73,0,0,0,.26.2,1.15,1.15,0,0,0,.33.1l.32,0a1.89,1.89,0,0,0,.39-.05,1.16,1.16,0,0,0,.4-.16,1.14,1.14,0,0,0,.32-.3.73.73,0,0,0,.12-.43Z"/><path class="cls-5" d="M24.15,271a1,1,0,0,0-.37-.7,1.25,1.25,0,0,0-.76-.23,1.56,1.56,0,0,0-.46.07,1.07,1.07,0,0,0-.44.27,1.52,1.52,0,0,0-.34.55,2.6,2.6,0,0,0-.13.92,2.54,2.54,0,0,0,.07.61,1.82,1.82,0,0,0,.23.55,1.27,1.27,0,0,0,.41.39,1.17,1.17,0,0,0,.61.15,1.09,1.09,0,0,0,.79-.3,1.38,1.38,0,0,0,.39-.84h1.1a2.38,2.38,0,0,1-.74,1.49,2.26,2.26,0,0,1-1.54.52,2.61,2.61,0,0,1-1-.2,2.07,2.07,0,0,1-.75-.54,2.33,2.33,0,0,1-.47-.81,3.11,3.11,0,0,1-.16-1,3.21,3.21,0,0,1,.16-1.05,2.38,2.38,0,0,1,.46-.86,2,2,0,0,1,.76-.56,2.6,2.6,0,0,1,1.08-.21,3.18,3.18,0,0,1,.82.11,2.21,2.21,0,0,1,.69.33,1.92,1.92,0,0,1,.5.56,2,2,0,0,1,.23.8Z"/><path class="cls-5" d="M26.17,274.35v-5h1.1v5Z"/><path class="cls-5" d="M35.83,274.35h-1v-.67h0a1.31,1.31,0,0,1-.65.62,2.26,2.26,0,0,1-.89.19,2.4,2.4,0,0,1-1-.21,2.12,2.12,0,0,1-.72-.56,2.54,2.54,0,0,1-.44-.85,3.84,3.84,0,0,1-.14-1,3.33,3.33,0,0,1,.18-1.16,2.31,2.31,0,0,1,.49-.81,1.77,1.77,0,0,1,.69-.47,2.22,2.22,0,0,1,.8-.15,2.56,2.56,0,0,1,.47,0,2.44,2.44,0,0,1,.46.14,2.14,2.14,0,0,1,.41.25,1.3,1.3,0,0,1,.31.35h0v-2.54h1.1ZM32,271.92a2.15,2.15,0,0,0,.08.62,1.63,1.63,0,0,0,.25.55,1.24,1.24,0,0,0,.43.39,1.31,1.31,0,0,0,.61.14,1.22,1.22,0,0,0,.63-.15,1.33,1.33,0,0,0,.44-.41,2,2,0,0,0,.25-.56,2.74,2.74,0,0,0,.08-.64,2,2,0,0,0-.37-1.29,1.22,1.22,0,0,0-1-.46,1.23,1.23,0,0,0-.65.16,1.3,1.3,0,0,0-.43.41,1.77,1.77,0,0,0-.24.58A2.84,2.84,0,0,0,32,271.92Z"/><path class="cls-5" d="M37.05,274.35v-5h1.1v5Z"/><path class="cls-5" d="M40.27,275.89l.31.12a1.55,1.55,0,0,0,.31,0l.2,0a.66.66,0,0,0,.2-.06.53.53,0,0,0,.14-.12.39.39,0,0,0,0-.2.31.31,0,0,0-.14-.27.55.55,0,0,0-.3-.09.76.76,0,0,0-.38.09l-.21-.18.54-.72a5.18,5.18,0,0,1-.59-.1,2.19,2.19,0,0,1-.69-.32,1.7,1.7,0,0,1-.46-.54,1.82,1.82,0,0,1-.18-.77h1.1a.82.82,0,0,0,.37.68,1.41,1.41,0,0,0,.76.19l.35,0a1.56,1.56,0,0,0,.37-.1.7.7,0,0,0,.28-.19.43.43,0,0,0,.1-.34.47.47,0,0,0-.15-.35,1.21,1.21,0,0,0-.37-.22,4.25,4.25,0,0,0-.52-.14l-.58-.12a5.25,5.25,0,0,1-.6-.17,1.75,1.75,0,0,1-.51-.26,1.14,1.14,0,0,1-.36-.42,1.29,1.29,0,0,1-.13-.62,1.08,1.08,0,0,1,.2-.68,1.45,1.45,0,0,1,.5-.45,2,2,0,0,1,.67-.23,3.56,3.56,0,0,1,.71-.07,3.47,3.47,0,0,1,.73.08,1.93,1.93,0,0,1,.64.27,1.51,1.51,0,0,1,.47.47,1.76,1.76,0,0,1,.24.71H42.19a.68.68,0,0,0-.36-.53,1.51,1.51,0,0,0-.65-.13,1.32,1.32,0,0,0-.27,0,.94.94,0,0,0-.3.07.55.55,0,0,0-.24.15.4.4,0,0,0-.09.27.39.39,0,0,0,.14.32.9.9,0,0,0,.36.21,3,3,0,0,0,.52.14l.59.13a5.69,5.69,0,0,1,.59.16,1.75,1.75,0,0,1,.51.26,1.21,1.21,0,0,1,.37.41,1.29,1.29,0,0,1,.14.62,1.37,1.37,0,0,1-.2.75,1.59,1.59,0,0,1-.53.5,2.34,2.34,0,0,1-.71.28,4.38,4.38,0,0,1-.62.08l-.34.44h0l.14,0h.18a1.45,1.45,0,0,1,.29,0,.82.82,0,0,1,.26.14.79.79,0,0,1,.19.22.66.66,0,0,1,.08.32.77.77,0,0,1-.11.42.84.84,0,0,1-.27.26,1.38,1.38,0,0,1-.37.16,2,2,0,0,1-.42.05,3,3,0,0,1-.52-.05,2.17,2.17,0,0,1-.47-.17Z"/><path class="cls-5" d="M44.37,274.35v-5h1.09v5Z"/><path class="cls-5" d="M46.66,269.37h1v.74l0,0a1.69,1.69,0,0,1,.65-.65,1.73,1.73,0,0,1,.9-.24,1.89,1.89,0,0,1,1.29.42,1.65,1.65,0,0,1,.47,1.27v3.42h-1.1v-3.13a1.36,1.36,0,0,0-.25-.85.88.88,0,0,0-.72-.26,1.15,1.15,0,0,0-.5.1,1.08,1.08,0,0,0-.38.28,1.46,1.46,0,0,0-.33.93v2.93H46.66Z"/><path class="cls-5" d="M56.87,274.35h-1v-.67h0a1.33,1.33,0,0,1-.64.62,2.4,2.4,0,0,1-1.92,0,2.06,2.06,0,0,1-.73-.56,2.35,2.35,0,0,1-.43-.85,3.49,3.49,0,0,1-.15-1,3.33,3.33,0,0,1,.18-1.16,2.46,2.46,0,0,1,.49-.81,1.77,1.77,0,0,1,.69-.47,2.22,2.22,0,0,1,.8-.15,2.56,2.56,0,0,1,.47,0,2.44,2.44,0,0,1,.46.14,1.87,1.87,0,0,1,.41.25,1.15,1.15,0,0,1,.31.35h0v-2.54h1.1ZM53,271.92a2.57,2.57,0,0,0,.08.62,1.85,1.85,0,0,0,.25.55,1.34,1.34,0,0,0,.43.39,1.32,1.32,0,0,0,.62.14,1.28,1.28,0,0,0,.63-.15,1.4,1.4,0,0,0,.43-.41,1.78,1.78,0,0,0,.25-.56,2.74,2.74,0,0,0,.08-.64,2,2,0,0,0-.37-1.29,1.21,1.21,0,0,0-1-.46,1.18,1.18,0,0,0-.65.16,1.24,1.24,0,0,0-.44.41,1.77,1.77,0,0,0-.24.58A2.84,2.84,0,0,0,53,271.92Z"/><path class="cls-5" d="M62.23,273.24a.5.5,0,0,0,.06.29.2.2,0,0,0,.2.09h.12l.15,0v.76l-.15,0-.19.05-.19,0h-.16a1.06,1.06,0,0,1-.56-.14.69.69,0,0,1-.29-.47,1.87,1.87,0,0,1-.8.46,3.1,3.1,0,0,1-.92.15,2,2,0,0,1-.65-.1,1.71,1.71,0,0,1-.54-.27,1.2,1.2,0,0,1-.38-.45,1.41,1.41,0,0,1-.14-.64,1.49,1.49,0,0,1,.17-.75,1.29,1.29,0,0,1,.45-.45,1.94,1.94,0,0,1,.61-.24l.69-.11c.2,0,.39-.06.57-.08a2.69,2.69,0,0,0,.47-.08.75.75,0,0,0,.33-.18.49.49,0,0,0,.12-.36.56.56,0,0,0-.1-.35.69.69,0,0,0-.25-.2,1.15,1.15,0,0,0-.33-.1,2.11,2.11,0,0,0-.35,0,1.36,1.36,0,0,0-.76.19.74.74,0,0,0-.33.6H58a1.61,1.61,0,0,1,.23-.8,1.39,1.39,0,0,1,.51-.51,2.09,2.09,0,0,1,.71-.27,4.28,4.28,0,0,1,.81-.08,3.53,3.53,0,0,1,.72.08,1.9,1.9,0,0,1,.64.25,1.38,1.38,0,0,1,.46.44,1.31,1.31,0,0,1,.17.67Zm-1.1-1.38a1.38,1.38,0,0,1-.61.2,5.83,5.83,0,0,0-.73.1,1.87,1.87,0,0,0-.34.08,1,1,0,0,0-.29.14.68.68,0,0,0-.2.24,1,1,0,0,0-.07.36.45.45,0,0,0,.11.31.69.69,0,0,0,.25.2,1.15,1.15,0,0,0,.33.1l.32,0a2,2,0,0,0,.4-.05,1.24,1.24,0,0,0,.4-.16,1.11,1.11,0,0,0,.31-.3.73.73,0,0,0,.12-.43Z"/><path class="cls-5" d="M65.6,269.37h1.19l1.27,3.83h0l1.21-3.83h1.13l-1.78,5H67.41Z"/><path class="cls-5" d="M71.94,272.15a1.77,1.77,0,0,0,.09.56,1.4,1.4,0,0,0,.24.47,1.23,1.23,0,0,0,.42.32,1.54,1.54,0,0,0,1.37-.09,1.23,1.23,0,0,0,.44-.62h1a2.11,2.11,0,0,1-.3.72,2,2,0,0,1-.51.54,2.61,2.61,0,0,1-.67.33,2.88,2.88,0,0,1-.78.11,2.61,2.61,0,0,1-1-.2,2,2,0,0,1-.76-.54,2.15,2.15,0,0,1-.47-.82,3.27,3.27,0,0,1-.16-1.06,2.86,2.86,0,0,1,.17-1,2.59,2.59,0,0,1,.48-.84,2.24,2.24,0,0,1,1.75-.78,2.16,2.16,0,0,1,1.06.25,2.21,2.21,0,0,1,.77.65,2.47,2.47,0,0,1,.45.92,2.85,2.85,0,0,1,.07,1.09Zm2.56-.73a1.45,1.45,0,0,0-.11-.5,1.13,1.13,0,0,0-.25-.41,1.1,1.1,0,0,0-.38-.29,1.06,1.06,0,0,0-.51-.11,1.27,1.27,0,0,0-.52.1,1.15,1.15,0,0,0-.4.28,1.17,1.17,0,0,0-.27.42,1.46,1.46,0,0,0-.12.51Z"/><path class="cls-5" d="M83.28,273.24a.5.5,0,0,0,.06.29.2.2,0,0,0,.2.09h.12l.15,0v.76l-.14,0-.19.05-.2,0h-.16a1.08,1.08,0,0,1-.56-.14.72.72,0,0,1-.29-.47,1.82,1.82,0,0,1-.8.46,3,3,0,0,1-.92.15,2,2,0,0,1-.64-.1,1.66,1.66,0,0,1-.55-.27,1.1,1.1,0,0,1-.37-.45,1.29,1.29,0,0,1-.14-.64,1.39,1.39,0,0,1,.17-.75,1.27,1.27,0,0,1,.44-.45,2,2,0,0,1,.61-.24l.69-.11c.2,0,.39-.06.57-.08a3,3,0,0,0,.48-.08.77.77,0,0,0,.32-.18.49.49,0,0,0,.12-.36.56.56,0,0,0-.1-.35.62.62,0,0,0-.25-.2,1.15,1.15,0,0,0-.33-.1,2.11,2.11,0,0,0-.35,0,1.38,1.38,0,0,0-.76.19.74.74,0,0,0-.33.6H79a1.71,1.71,0,0,1,.23-.8,1.49,1.49,0,0,1,.52-.51,2,2,0,0,1,.7-.27,4.45,4.45,0,0,1,.81-.08,3.38,3.38,0,0,1,.72.08,1.9,1.9,0,0,1,.64.25,1.3,1.3,0,0,1,.46.44,1.22,1.22,0,0,1,.17.67Zm-1.09-1.38a1.46,1.46,0,0,1-.62.2,6.09,6.09,0,0,0-.73.1,1.87,1.87,0,0,0-.34.08,1,1,0,0,0-.29.14.57.57,0,0,0-.19.24.8.8,0,0,0-.08.36.45.45,0,0,0,.11.31.73.73,0,0,0,.26.2,1,1,0,0,0,.32.1l.33,0a1.89,1.89,0,0,0,.39-.05,1.24,1.24,0,0,0,.4-.16,1.11,1.11,0,0,0,.31-.3.67.67,0,0,0,.13-.43Z"/><path class="cls-5" d="M85.3,272.75a.84.84,0,0,0,.36.68,1.43,1.43,0,0,0,.76.19l.35,0a1.34,1.34,0,0,0,.37-.1.73.73,0,0,0,.29-.19.48.48,0,0,0,.1-.34.51.51,0,0,0-.15-.35,1.15,1.15,0,0,0-.38-.22,4.6,4.6,0,0,0-.51-.14l-.59-.12a5.72,5.72,0,0,1-.59-.17,1.75,1.75,0,0,1-.51-.26,1.14,1.14,0,0,1-.36-.42,1.29,1.29,0,0,1-.14-.62,1.14,1.14,0,0,1,.2-.68,1.54,1.54,0,0,1,.5-.45,2.19,2.19,0,0,1,.68-.23,3.46,3.46,0,0,1,.7-.07,3.5,3.5,0,0,1,.74.08,2,2,0,0,1,.64.27,1.62,1.62,0,0,1,.47.47,1.75,1.75,0,0,1,.23.71H87.32a.68.68,0,0,0-.36-.53,1.51,1.51,0,0,0-.65-.13,1.47,1.47,0,0,0-.28,0,1.09,1.09,0,0,0-.3.07.51.51,0,0,0-.23.15.36.36,0,0,0-.1.27.42.42,0,0,0,.14.32,1,1,0,0,0,.37.21,3.12,3.12,0,0,0,.51.14l.6.13c.2,0,.39.1.59.16a1.75,1.75,0,0,1,.51.26,1.45,1.45,0,0,1,.37.41,1.44,1.44,0,0,1-.07,1.37,1.47,1.47,0,0,1-.52.5,2.4,2.4,0,0,1-.72.28,3.46,3.46,0,0,1-1.65,0,2.19,2.19,0,0,1-.69-.32,1.58,1.58,0,0,1-.46-.54,1.68,1.68,0,0,1-.18-.77Z"/><path class="cls-5" d="M89.49,267.48h1.1v6.87h-1.1Z"/><path class="cls-5" d="M91.81,274.35v-5h1.1v5Z"/><path class="cls-5" d="M94.1,269.37h1v.74l0,0a1.79,1.79,0,0,1,.66-.65,1.7,1.7,0,0,1,.89-.24,1.86,1.86,0,0,1,1.29.42,1.62,1.62,0,0,1,.47,1.27v3.42H97.38v-3.13a1.43,1.43,0,0,0-.25-.85.92.92,0,0,0-.73-.26,1.18,1.18,0,0,0-.5.1,1.13,1.13,0,0,0-.37.28,1.46,1.46,0,0,0-.33.93v2.93H94.1Z"/><path class="cls-5" d="M103.8,273.24a.52.52,0,0,0,0,.29.22.22,0,0,0,.21.09h.11l.16,0v.76l-.15,0-.19.05-.19,0h-.17a1,1,0,0,1-.55-.14.66.66,0,0,1-.29-.47,1.91,1.91,0,0,1-.81.46,3,3,0,0,1-.92.15,2,2,0,0,1-.64-.1,1.52,1.52,0,0,1-.54-.27,1.12,1.12,0,0,1-.38-.45,1.41,1.41,0,0,1-.14-.64,1.49,1.49,0,0,1,.17-.75,1.27,1.27,0,0,1,.44-.45,2,2,0,0,1,.62-.24l.69-.11c.19,0,.38-.06.56-.08a3,3,0,0,0,.48-.08.75.75,0,0,0,.33-.18.49.49,0,0,0,.12-.36.63.63,0,0,0-.1-.35.69.69,0,0,0-.25-.2,1.13,1.13,0,0,0-.34-.1,2,2,0,0,0-.34,0,1.36,1.36,0,0,0-.76.19.77.77,0,0,0-.34.6h-1.1a1.71,1.71,0,0,1,.23-.8,1.49,1.49,0,0,1,.52-.51,2,2,0,0,1,.71-.27,4.26,4.26,0,0,1,.8-.08,3.55,3.55,0,0,1,.73.08,2,2,0,0,1,.64.25,1.27,1.27,0,0,1,.45.44,1.22,1.22,0,0,1,.18.67Zm-1.1-1.38a1.42,1.42,0,0,1-.62.2,6.38,6.38,0,0,0-.73.1,1.77,1.77,0,0,0-.33.08.87.87,0,0,0-.29.14.59.59,0,0,0-.2.24.8.8,0,0,0-.07.36.45.45,0,0,0,.1.31.73.73,0,0,0,.26.2,1.15,1.15,0,0,0,.33.1l.32,0a1.89,1.89,0,0,0,.39-.05,1.16,1.16,0,0,0,.4-.16,1,1,0,0,0,.31-.3.67.67,0,0,0,.13-.43Z"/><path class="cls-5" d="M111.83,273.24a.52.52,0,0,0,0,.29.2.2,0,0,0,.2.09h.12l.15,0v.76l-.14,0-.19.05-.19,0h-.17a1.08,1.08,0,0,1-.56-.14.72.72,0,0,1-.29-.47,1.82,1.82,0,0,1-.8.46,3,3,0,0,1-.92.15,2,2,0,0,1-.64-.1,1.66,1.66,0,0,1-.55-.27,1.18,1.18,0,0,1-.37-.45,1.29,1.29,0,0,1-.14-.64,1.39,1.39,0,0,1,.17-.75,1.27,1.27,0,0,1,.44-.45,2,2,0,0,1,.62-.24l.68-.11c.2,0,.39-.06.57-.08a3,3,0,0,0,.48-.08.71.71,0,0,0,.32-.18.49.49,0,0,0,.13-.36.56.56,0,0,0-.11-.35.62.62,0,0,0-.25-.2,1.15,1.15,0,0,0-.33-.1,2,2,0,0,0-.34,0,1.4,1.4,0,0,0-.77.19.76.76,0,0,0-.33.6h-1.1a1.71,1.71,0,0,1,.23-.8,1.49,1.49,0,0,1,.52-.51,2,2,0,0,1,.7-.27,4.45,4.45,0,0,1,.81-.08,3.38,3.38,0,0,1,.72.08,2,2,0,0,1,.65.25,1.35,1.35,0,0,1,.45.44,1.22,1.22,0,0,1,.18.67Zm-1.1-1.38a1.42,1.42,0,0,1-.62.2,6.09,6.09,0,0,0-.73.1,1.87,1.87,0,0,0-.34.08,1,1,0,0,0-.29.14.65.65,0,0,0-.19.24.8.8,0,0,0-.07.36.45.45,0,0,0,.1.31.73.73,0,0,0,.26.2,1.09,1.09,0,0,0,.32.1l.33,0a1.89,1.89,0,0,0,.39-.05,1.16,1.16,0,0,0,.4-.16,1,1,0,0,0,.31-.3.67.67,0,0,0,.13-.43Z"/><path class="cls-5" d="M112.46,269.37h1.2l1.3,3.72h0l1.26-3.72h1.15l-1.94,5.25c-.09.23-.17.44-.26.65a2.41,2.41,0,0,1-.32.54,1.42,1.42,0,0,1-.46.38,1.68,1.68,0,0,1-.72.14,4.87,4.87,0,0,1-.76-.06v-.93l.26.05.26,0a.93.93,0,0,0,.32-.05.6.6,0,0,0,.21-.14,1.1,1.1,0,0,0,.14-.21,2,2,0,0,0,.1-.29l.13-.39Z"/><path class="cls-5" d="M118,267.48h1.1v3.91l2-2h1.35l-1.9,1.83,2.08,3.15h-1.33l-1.52-2.41-.66.63v1.78H118Z"/><path class="cls-5" d="M123.2,274.35v-5h1.1v5Z"/><path class="cls-5" d="M125.49,269.37h1v1h0a1.33,1.33,0,0,1,.19-.4,1.87,1.87,0,0,1,.34-.35,1.57,1.57,0,0,1,.44-.25,1.19,1.19,0,0,1,.49-.1h.26l.15,0v1.06l-.24,0h-.23a1.36,1.36,0,0,0-.53.11,1.1,1.1,0,0,0-.42.33,1.42,1.42,0,0,0-.29.53,2.33,2.33,0,0,0-.11.73v2.37h-1.1Z"/><path class="cls-5" d="M128.91,274.35v-5H130v5Z"/><path class="cls-5" d="M133.88,269.37h1v1h0a1,1,0,0,1,.19-.4,1.81,1.81,0,0,1,.33-.35,1.73,1.73,0,0,1,.44-.25,1.19,1.19,0,0,1,.49-.1h.27l.14,0v1.06l-.23,0h-.24a1.31,1.31,0,0,0-.52.11,1.06,1.06,0,0,0-.43.33,1.58,1.58,0,0,0-.29.53,2.34,2.34,0,0,0-.1.73v2.37h-1.1Z"/><path class="cls-5" d="M138,272.15a2.1,2.1,0,0,0,.08.56,1.63,1.63,0,0,0,.25.47,1.19,1.19,0,0,0,.41.32,1.4,1.4,0,0,0,.6.12,1.28,1.28,0,0,0,.77-.21,1.12,1.12,0,0,0,.44-.62h1a2.11,2.11,0,0,1-.3.72,2,2,0,0,1-.51.54,2.46,2.46,0,0,1-.67.33,2.76,2.76,0,0,1-.77.11,2.61,2.61,0,0,1-1-.2,2,2,0,0,1-.77-.54,2.29,2.29,0,0,1-.47-.82,3.57,3.57,0,0,1-.16-1.06,3.1,3.1,0,0,1,.17-1,2.59,2.59,0,0,1,.48-.84,2.27,2.27,0,0,1,.76-.57,2.29,2.29,0,0,1,1-.21,2.14,2.14,0,0,1,1.05.25,2.34,2.34,0,0,1,.78.65,2.82,2.82,0,0,1,.45.92,3.06,3.06,0,0,1,.07,1.09Zm2.56-.73a1.72,1.72,0,0,0-.11-.5,1.27,1.27,0,0,0-.64-.7,1,1,0,0,0-.5-.11,1.32,1.32,0,0,0-.53.1,1.26,1.26,0,0,0-.4.28,1.51,1.51,0,0,0-.27.42,1.45,1.45,0,0,0-.11.51Z"/><path class="cls-5" d="M142.45,269.37h1v.76a1.79,1.79,0,0,1,.66-.65,1.72,1.72,0,0,1,.89-.24,1.86,1.86,0,0,1,1.29.42,1.62,1.62,0,0,1,.48,1.27v3.42h-1.1v-3.13a1.36,1.36,0,0,0-.25-.85.91.91,0,0,0-.72-.26,1.12,1.12,0,0,0-.5.1,1.08,1.08,0,0,0-.38.28,1.46,1.46,0,0,0-.33.93v2.93h-1.09Z"/><path class="cls-5" d="M148,267.48h1.1v3.91l2-2h1.35l-1.91,1.83,2.09,3.15h-1.34l-1.52-2.41-.65.63v1.78H148Z"/><path class="cls-5" d="M153.23,273.05h1.33v1.3a1.44,1.44,0,0,1-.36,1,1.6,1.6,0,0,1-.94.52v-.58a.71.71,0,0,0,.48-.36,1,1,0,0,0,.15-.58h-.66Z"/><path class="cls-5" d="M163.18,274.35h-1v-.67h0a1.33,1.33,0,0,1-.64.62,2.4,2.4,0,0,1-1.92,0,2.06,2.06,0,0,1-.73-.56,2.35,2.35,0,0,1-.43-.85,3.49,3.49,0,0,1-.15-1,3.33,3.33,0,0,1,.18-1.16,2.46,2.46,0,0,1,.49-.81,1.77,1.77,0,0,1,.69-.47,2.22,2.22,0,0,1,.8-.15,2.56,2.56,0,0,1,.47,0,2.44,2.44,0,0,1,.46.14,2.14,2.14,0,0,1,.41.25,1.15,1.15,0,0,1,.31.35h0v-2.54h1.1Zm-3.83-2.43a2.57,2.57,0,0,0,.08.62,1.63,1.63,0,0,0,.25.55,1.34,1.34,0,0,0,.43.39,1.32,1.32,0,0,0,.62.14,1.28,1.28,0,0,0,.63-.15,1.4,1.4,0,0,0,.43-.41,2,2,0,0,0,.25-.56,2.74,2.74,0,0,0,.08-.64,2,2,0,0,0-.37-1.29,1.22,1.22,0,0,0-1-.46,1.23,1.23,0,0,0-.65.16,1.3,1.3,0,0,0-.43.41,1.77,1.77,0,0,0-.24.58A2.84,2.84,0,0,0,159.35,271.92Z"/><path class="cls-5" d="M168.74,274.35h-1.07v-.69h0a1.53,1.53,0,0,1-.61.6,1.61,1.61,0,0,1-.81.23,1.85,1.85,0,0,1-1.42-.49,2.13,2.13,0,0,1-.44-1.47v-3.16h1.1v3.06a1.33,1.33,0,0,0,.25.92.91.91,0,0,0,.7.27,1.39,1.39,0,0,0,.58-.11,1,1,0,0,0,.38-.28,1.14,1.14,0,0,0,.2-.43,2.28,2.28,0,0,0,.07-.54v-2.89h1.09Zm-3.57-5.79v-1h1.1v1Zm2.75-1v1h-1.09v-1Z"/><path class="cls-5" d="M169.73,269.37h4v.77l-2.85,3.35h3v.86h-4.38v-.77l2.76-3.34h-2.56Z"/><path class="cls-5" d="M175.57,272.15a2.1,2.1,0,0,0,.08.56,1.42,1.42,0,0,0,.25.47,1.11,1.11,0,0,0,.41.32,1.4,1.4,0,0,0,.6.12,1.28,1.28,0,0,0,.77-.21,1.17,1.17,0,0,0,.44-.62h1a2.11,2.11,0,0,1-.3.72,2,2,0,0,1-.51.54,2.46,2.46,0,0,1-.67.33,2.81,2.81,0,0,1-.77.11,2.57,2.57,0,0,1-1-.2,2,2,0,0,1-.77-.54,2.29,2.29,0,0,1-.47-.82,3.27,3.27,0,0,1-.16-1.06,3.1,3.1,0,0,1,.17-1,2.59,2.59,0,0,1,.48-.84,2.28,2.28,0,0,1,1.76-.78,2.14,2.14,0,0,1,1.05.25,2.34,2.34,0,0,1,.78.65,2.62,2.62,0,0,1,.44.92,2.85,2.85,0,0,1,.08,1.09Zm2.56-.73a1.72,1.72,0,0,0-.11-.5,1.29,1.29,0,0,0-.25-.41,1.24,1.24,0,0,0-.39-.29,1,1,0,0,0-.5-.11,1.29,1.29,0,0,0-.53.1,1.26,1.26,0,0,0-.4.28,1.51,1.51,0,0,0-.27.42,1.26,1.26,0,0,0-.11.51Z"/><path class="cls-5" d="M180.06,269.37h1v.74l0,0a1.79,1.79,0,0,1,.66-.65,1.7,1.7,0,0,1,.89-.24,1.86,1.86,0,0,1,1.29.42,1.62,1.62,0,0,1,.47,1.27v3.42h-1.09v-3.13a1.43,1.43,0,0,0-.25-.85.92.92,0,0,0-.73-.26,1.18,1.18,0,0,0-.5.1,1.13,1.13,0,0,0-.37.28,1.46,1.46,0,0,0-.33.93v2.93h-1.1Z"/><path class="cls-5" d="M187.77,269.37H189l1.26,3.83h0l1.21-3.83h1.14l-1.78,5h-1.24Z"/><path class="cls-5" d="M194.12,272.15a1.77,1.77,0,0,0,.08.56,1.42,1.42,0,0,0,.25.47,1.11,1.11,0,0,0,.41.32,1.37,1.37,0,0,0,.6.12,1.28,1.28,0,0,0,.77-.21,1.17,1.17,0,0,0,.44-.62h1a2.11,2.11,0,0,1-.3.72,2,2,0,0,1-.51.54,2.46,2.46,0,0,1-.67.33,2.81,2.81,0,0,1-.77.11,2.57,2.57,0,0,1-1-.2,1.92,1.92,0,0,1-.77-.54,2.29,2.29,0,0,1-.47-.82,3.27,3.27,0,0,1-.16-1.06,3.1,3.1,0,0,1,.17-1,2.59,2.59,0,0,1,.48-.84,2.28,2.28,0,0,1,1.76-.78,2.14,2.14,0,0,1,1,.25,2.34,2.34,0,0,1,.78.65,2.62,2.62,0,0,1,.44.92,2.85,2.85,0,0,1,.08,1.09Zm2.56-.73a1.72,1.72,0,0,0-.11-.5,1.29,1.29,0,0,0-.25-.41,1.24,1.24,0,0,0-.39-.29,1,1,0,0,0-.5-.11,1.29,1.29,0,0,0-.53.1,1.26,1.26,0,0,0-.4.28,1.51,1.51,0,0,0-.27.42,1.26,1.26,0,0,0-.11.51Z"/><path class="cls-5" d="M201.32,267.48h1.1V270h0a1.56,1.56,0,0,1,.64-.57,2.14,2.14,0,0,1,.42-.16,2.1,2.1,0,0,1,.43-.05,2.32,2.32,0,0,1,1,.21,1.93,1.93,0,0,1,.73.56,2.53,2.53,0,0,1,.43.85,3.42,3.42,0,0,1,.15,1,4,4,0,0,1-.13,1,2.56,2.56,0,0,1-.4.83,2.09,2.09,0,0,1-.67.58,2,2,0,0,1-1,.22,4.38,4.38,0,0,1-.51,0,1.55,1.55,0,0,1-.48-.13,1.46,1.46,0,0,1-.42-.25,1.13,1.13,0,0,1-.31-.4h0v.68h-1Zm3.83,4.39a2.39,2.39,0,0,0-.09-.66,1.7,1.7,0,0,0-.26-.56,1.34,1.34,0,0,0-.43-.39,1.16,1.16,0,0,0-.6-.15,1.2,1.2,0,0,0-1,.48,2.07,2.07,0,0,0-.35,1.28,2.63,2.63,0,0,0,.09.7,1.57,1.57,0,0,0,.27.55,1.43,1.43,0,0,0,.44.37,1.25,1.25,0,0,0,.59.13,1.29,1.29,0,0,0,.64-.15,1.64,1.64,0,0,0,.43-.4,1.76,1.76,0,0,0,.24-.56A3.39,3.39,0,0,0,205.15,271.87Z"/><path class="cls-5" d="M211.54,274.35h-1.08v-.69h0a1.45,1.45,0,0,1-.6.6,1.63,1.63,0,0,1-.81.23,1.83,1.83,0,0,1-1.42-.49,2.13,2.13,0,0,1-.44-1.47v-3.16h1.1v3.06a1.33,1.33,0,0,0,.25.92.9.9,0,0,0,.7.27,1.43,1.43,0,0,0,.58-.11,1,1,0,0,0,.37-.28,1,1,0,0,0,.21-.43,2.29,2.29,0,0,0,.06-.54v-2.89h1.1ZM208,268.56v-1h1.1v1Zm2.75-1v1h-1.1v-1Z"/><path class="cls-5" d="M212.15,269.37h1.2l1.3,3.72h0l1.26-3.72h1.15l-1.94,5.25-.26.65a2.85,2.85,0,0,1-.32.54,1.46,1.46,0,0,1-.47.38,1.6,1.6,0,0,1-.71.14,4.77,4.77,0,0,1-.76-.06v-.93l.26.05.26,0a1,1,0,0,0,.32-.05.48.48,0,0,0,.2-.14.77.77,0,0,0,.14-.21,2,2,0,0,0,.11-.29l.12-.39Z"/><path class="cls-5" d="M222.06,274.35H221v-.69h0a1.45,1.45,0,0,1-.6.6,1.61,1.61,0,0,1-.81.23,1.83,1.83,0,0,1-1.42-.49,2.13,2.13,0,0,1-.44-1.47v-3.16h1.1v3.06a1.33,1.33,0,0,0,.25.92.91.91,0,0,0,.7.27,1.39,1.39,0,0,0,.58-.11,1.08,1.08,0,0,0,.38-.28,1.14,1.14,0,0,0,.2-.43,2.29,2.29,0,0,0,.06-.54v-2.89h1.1Zm-3.57-5.79v-1h1.1v1Zm2.75-1v1h-1.09v-1Z"/><path class="cls-5" d="M223.25,267.48h1.09v3.91l2-2h1.34l-1.9,1.83,2.09,3.15h-1.34L225,271.94l-.66.63v1.78h-1.09Z"/><path class="cls-5" d="M228.42,267.48h1.09v6.87h-1.09Z"/><path class="cls-5" d="M235.08,274.35H234v-.69h0a1.57,1.57,0,0,1-.6.6,1.67,1.67,0,0,1-.82.23,1.86,1.86,0,0,1-1.42-.49,2.13,2.13,0,0,1-.43-1.47v-3.16h1.09v3.06a1.39,1.39,0,0,0,.25.92.92.92,0,0,0,.71.27,1.35,1.35,0,0,0,.57-.11,1,1,0,0,0,.38-.28,1.15,1.15,0,0,0,.21-.43,2.29,2.29,0,0,0,.06-.54v-2.89h1.1Zm-3.58-5.79v-1h1.1v1Zm2.76-1v1h-1.1v-1Z"/><path class="cls-5" d="M236.26,267.48h1.1v3.91l2-2h1.35l-1.91,1.83,2.09,3.15h-1.34L238,271.94l-.65.63v1.78h-1.1Z"/><path class="cls-5" d="M241.43,267.48h1.1v6.87h-1.1Z"/><path class="cls-5" d="M244.58,272.15a1.77,1.77,0,0,0,.08.56,1.4,1.4,0,0,0,.24.47,1.23,1.23,0,0,0,.42.32,1.34,1.34,0,0,0,.6.12,1.3,1.3,0,0,0,.77-.21,1.23,1.23,0,0,0,.44-.62h1a2.11,2.11,0,0,1-.3.72,2,2,0,0,1-.51.54,2.46,2.46,0,0,1-.67.33,2.87,2.87,0,0,1-.77.11,2.57,2.57,0,0,1-1-.2,1.92,1.92,0,0,1-.77-.54,2.15,2.15,0,0,1-.47-.82,3.27,3.27,0,0,1-.16-1.06,3.1,3.1,0,0,1,.17-1,2.59,2.59,0,0,1,.48-.84,2.24,2.24,0,0,1,1.76-.78,2.14,2.14,0,0,1,1.05.25,2.21,2.21,0,0,1,.77.65,2.47,2.47,0,0,1,.45.92,2.85,2.85,0,0,1,.07,1.09Zm2.56-.73a2.13,2.13,0,0,0-.11-.5,1.29,1.29,0,0,0-.25-.41,1.24,1.24,0,0,0-.39-.29,1,1,0,0,0-.5-.11,1.29,1.29,0,0,0-.53.1,1.15,1.15,0,0,0-.4.28,1.17,1.17,0,0,0-.27.42,1.26,1.26,0,0,0-.11.51Z"/><path class="cls-5" d="M249.07,269.37h1v1h0a1.13,1.13,0,0,1,.19-.4,1.6,1.6,0,0,1,.34-.35,1.67,1.67,0,0,1,.43-.25,1.24,1.24,0,0,1,.5-.1h.26l.15,0v1.06l-.24,0h-.23a1.36,1.36,0,0,0-.53.11,1.21,1.21,0,0,0-.43.33,1.57,1.57,0,0,0-.28.53,2.08,2.08,0,0,0-.11.73v2.37h-1.1Z"/><path class="cls-5" d="M257,274.35h-1v-.67h0a1.35,1.35,0,0,1-.65.62,2.26,2.26,0,0,1-.89.19,2.34,2.34,0,0,1-1-.21,2.26,2.26,0,0,1-.73-.56,2.52,2.52,0,0,1-.43-.85,3.49,3.49,0,0,1-.14-1,3.33,3.33,0,0,1,.18-1.16,2.29,2.29,0,0,1,.48-.81,1.88,1.88,0,0,1,.7-.47,2.17,2.17,0,0,1,.79-.15,2.49,2.49,0,0,1,.47,0,2.54,2.54,0,0,1,.47.14,2.06,2.06,0,0,1,.4.25,1.34,1.34,0,0,1,.32.35h0v-2.54H257Zm-3.83-2.43a2.16,2.16,0,0,0,.09.62,1.46,1.46,0,0,0,.25.55,1.31,1.31,0,0,0,.42.39,1.35,1.35,0,0,0,.62.14,1.28,1.28,0,0,0,.63-.15,1.3,1.3,0,0,0,.43-.41,1.58,1.58,0,0,0,.25-.56,2.3,2.3,0,0,0,.09-.64,2,2,0,0,0-.38-1.29,1.29,1.29,0,0,0-2.08.11,1.43,1.43,0,0,0-.24.58A2.84,2.84,0,0,0,253.14,271.92Z"/><path class="cls-5" d="M259,272.15a1.77,1.77,0,0,0,.09.56,1.4,1.4,0,0,0,.24.47,1.23,1.23,0,0,0,.42.32,1.54,1.54,0,0,0,1.37-.09,1.23,1.23,0,0,0,.44-.62h1a2.11,2.11,0,0,1-.3.72,2,2,0,0,1-.51.54,2.61,2.61,0,0,1-.67.33,2.88,2.88,0,0,1-.78.11,2.61,2.61,0,0,1-1-.2,2,2,0,0,1-.76-.54,2.15,2.15,0,0,1-.47-.82,3.27,3.27,0,0,1-.16-1.06,2.86,2.86,0,0,1,.17-1,2.59,2.59,0,0,1,.48-.84,2.24,2.24,0,0,1,1.75-.78,2.16,2.16,0,0,1,1.06.25,2.21,2.21,0,0,1,.77.65,2.47,2.47,0,0,1,.45.92,2.85,2.85,0,0,1,.07,1.09Zm2.56-.73a1.45,1.45,0,0,0-.11-.5,1.13,1.13,0,0,0-.25-.41,1.1,1.1,0,0,0-.38-.29,1.06,1.06,0,0,0-.51-.11,1.27,1.27,0,0,0-.52.1,1.15,1.15,0,0,0-.4.28,1.17,1.17,0,0,0-.27.42,1.46,1.46,0,0,0-.12.51Z"/><path class="cls-5" d="M266.23,267.48h1.09v3.91l2-2h1.34l-1.9,1.83,2.09,3.15H269.5L268,271.94l-.66.63v1.78h-1.09Z"/><path class="cls-5" d="M275.74,274.35h-1.08v-.69h0a1.57,1.57,0,0,1-.6.6,1.67,1.67,0,0,1-.82.23,1.86,1.86,0,0,1-1.42-.49,2.13,2.13,0,0,1-.43-1.47v-3.16h1.09v3.06a1.39,1.39,0,0,0,.25.92.92.92,0,0,0,.71.27,1.35,1.35,0,0,0,.57-.11,1,1,0,0,0,.38-.28,1.33,1.33,0,0,0,.21-.43,2.29,2.29,0,0,0,.06-.54v-2.89h1.1Z"/><path class="cls-5" d="M276.92,267.48H278v6.87h-1.1Z"/><path class="cls-5" d="M279.24,267.48h1.1v6.87h-1.1Z"/><path class="cls-5" d="M285.7,273.24a.62.62,0,0,0,.05.29.23.23,0,0,0,.21.09h.11l.16,0v.76l-.15,0-.19.05-.19,0h-.16a1,1,0,0,1-.56-.14.66.66,0,0,1-.29-.47,1.91,1.91,0,0,1-.81.46,3,3,0,0,1-.92.15,2,2,0,0,1-.64-.1,1.52,1.52,0,0,1-.54-.27,1.12,1.12,0,0,1-.38-.45,1.41,1.41,0,0,1-.14-.64,1.49,1.49,0,0,1,.17-.75,1.27,1.27,0,0,1,.44-.45,2,2,0,0,1,.62-.24l.69-.11c.2,0,.38-.06.56-.08a3,3,0,0,0,.48-.08.75.75,0,0,0,.33-.18.49.49,0,0,0,.12-.36.63.63,0,0,0-.1-.35.69.69,0,0,0-.25-.2,1.15,1.15,0,0,0-.33-.1,2.18,2.18,0,0,0-.35,0,1.36,1.36,0,0,0-.76.19.77.77,0,0,0-.34.6h-1.1a1.71,1.71,0,0,1,.23-.8,1.49,1.49,0,0,1,.52-.51,2,2,0,0,1,.71-.27,4.28,4.28,0,0,1,.81-.08,3.53,3.53,0,0,1,.72.08,1.9,1.9,0,0,1,.64.25,1.38,1.38,0,0,1,.46.44,1.31,1.31,0,0,1,.17.67Zm-1.1-1.38a1.42,1.42,0,0,1-.61.2,6.26,6.26,0,0,0-.74.1,2,2,0,0,0-.33.08.87.87,0,0,0-.29.14.59.59,0,0,0-.2.24.8.8,0,0,0-.07.36.45.45,0,0,0,.1.31.82.82,0,0,0,.26.2,1.15,1.15,0,0,0,.33.1l.32,0a1.89,1.89,0,0,0,.39-.05,1.16,1.16,0,0,0,.4-.16,1.14,1.14,0,0,0,.32-.3.73.73,0,0,0,.12-.43Z"/><path class="cls-5" d="M286.88,269.37h1v.74l0,0a1.79,1.79,0,0,1,.66-.65,1.7,1.7,0,0,1,.89-.24,1.86,1.86,0,0,1,1.29.42,1.62,1.62,0,0,1,.47,1.27v3.42h-1.09v-3.13a1.43,1.43,0,0,0-.25-.85.92.92,0,0,0-.73-.26,1.18,1.18,0,0,0-.5.1,1.13,1.13,0,0,0-.37.28,1.1,1.1,0,0,0-.24.42,1.44,1.44,0,0,0-.09.51v2.93h-1.1Z"/><path class="cls-5" d="M292.44,274.35v-5h1.09v5Z"/><path class="cls-5" d="M294.76,267.48h1.09v6.87h-1.09Z"/><path class="cls-5" d="M301.22,273.24a.52.52,0,0,0,0,.29q0,.09.21.09h.11l.16,0v.76l-.15,0-.19.05-.19,0h-.17a1.08,1.08,0,0,1-.56-.14.68.68,0,0,1-.28-.47,1.91,1.91,0,0,1-.81.46,3,3,0,0,1-.92.15,2,2,0,0,1-.64-.1,1.66,1.66,0,0,1-.55-.27,1.18,1.18,0,0,1-.37-.45,1.29,1.29,0,0,1-.14-.64,1.39,1.39,0,0,1,.17-.75,1.27,1.27,0,0,1,.44-.45,2,2,0,0,1,.61-.24l.69-.11c.2,0,.39-.06.57-.08a3,3,0,0,0,.48-.08.75.75,0,0,0,.33-.18.49.49,0,0,0,.12-.36.56.56,0,0,0-.11-.35.62.62,0,0,0-.25-.2,1.15,1.15,0,0,0-.33-.1,2.06,2.06,0,0,0-.34,0,1.34,1.34,0,0,0-.76.19.74.74,0,0,0-.34.6H297a1.71,1.71,0,0,1,.23-.8,1.49,1.49,0,0,1,.52-.51,2,2,0,0,1,.7-.27,4.45,4.45,0,0,1,.81-.08,3.55,3.55,0,0,1,.73.08,1.85,1.85,0,0,1,.63.25,1.3,1.3,0,0,1,.46.44,1.22,1.22,0,0,1,.18.67Zm-1.1-1.38a1.42,1.42,0,0,1-.62.2,6.09,6.09,0,0,0-.73.1,2.09,2.09,0,0,0-.34.08,1,1,0,0,0-.29.14.65.65,0,0,0-.19.24.8.8,0,0,0-.07.36.45.45,0,0,0,.1.31.73.73,0,0,0,.26.2,1.09,1.09,0,0,0,.32.1l.33,0a1.89,1.89,0,0,0,.39-.05,1.24,1.24,0,0,0,.4-.16,1,1,0,0,0,.31-.3.67.67,0,0,0,.13-.43Z"/><path class="cls-5" d="M302.4,269.37h1v.7h0a2.24,2.24,0,0,1,.27-.34,1.35,1.35,0,0,1,.32-.26,1.68,1.68,0,0,1,.41-.17,2.09,2.09,0,0,1,.53-.06,1.86,1.86,0,0,1,.84.2,1.14,1.14,0,0,1,.55.63,2.21,2.21,0,0,1,.65-.61,1.7,1.7,0,0,1,.91-.22,1.83,1.83,0,0,1,1.23.38,1.67,1.67,0,0,1,.44,1.3v3.43h-1.1v-2.91a4.61,4.61,0,0,0,0-.54,1.08,1.08,0,0,0-.11-.42.66.66,0,0,0-.27-.28,1.15,1.15,0,0,0-.5-.09.94.94,0,0,0-.81.34,1.63,1.63,0,0,0-.25,1v2.92h-1.1v-3.19a1.34,1.34,0,0,0-.19-.79.77.77,0,0,0-.69-.26,1.1,1.1,0,0,0-.4.08,1,1,0,0,0-.35.25,1.27,1.27,0,0,0-.24.41,1.55,1.55,0,0,0-.09.55v3h-1.1Z"/><path class="cls-5" d="M314.94,273.24a.5.5,0,0,0,.06.29.2.2,0,0,0,.2.09h.12l.15,0v.76l-.15,0-.19.05-.19,0h-.16a1.06,1.06,0,0,1-.56-.14.69.69,0,0,1-.29-.47,1.87,1.87,0,0,1-.8.46,3.1,3.1,0,0,1-.92.15,2,2,0,0,1-.65-.1,1.71,1.71,0,0,1-.54-.27,1.2,1.2,0,0,1-.38-.45,1.41,1.41,0,0,1-.14-.64,1.49,1.49,0,0,1,.17-.75,1.29,1.29,0,0,1,.45-.45,1.94,1.94,0,0,1,.61-.24l.69-.11c.2,0,.39-.06.57-.08a2.69,2.69,0,0,0,.47-.08.75.75,0,0,0,.33-.18.49.49,0,0,0,.12-.36.56.56,0,0,0-.1-.35.69.69,0,0,0-.25-.2,1.15,1.15,0,0,0-.33-.1,2.11,2.11,0,0,0-.35,0,1.36,1.36,0,0,0-.76.19.74.74,0,0,0-.33.6h-1.1a1.61,1.61,0,0,1,.23-.8,1.39,1.39,0,0,1,.51-.51,2.09,2.09,0,0,1,.71-.27,4.28,4.28,0,0,1,.81-.08,3.53,3.53,0,0,1,.72.08,1.9,1.9,0,0,1,.64.25,1.38,1.38,0,0,1,.46.44,1.31,1.31,0,0,1,.17.67Zm-1.1-1.38a1.38,1.38,0,0,1-.61.2,5.83,5.83,0,0,0-.73.1,1.87,1.87,0,0,0-.34.08,1,1,0,0,0-.29.14.68.68,0,0,0-.2.24,1,1,0,0,0-.07.36.45.45,0,0,0,.11.31.69.69,0,0,0,.25.2,1.15,1.15,0,0,0,.33.1l.32,0a2,2,0,0,0,.4-.05,1.24,1.24,0,0,0,.4-.16,1.11,1.11,0,0,0,.31-.3.73.73,0,0,0,.12-.43Z"/><path class="cls-5" d="M316,269.37H320v.77l-2.85,3.35h3v.86h-4.38v-.77l2.75-3.34H316Z"/><path class="cls-5" d="M321,273.05h1.33v1.3H321Z"/></g></g></svg>