<?xml version="1.0" encoding="utf-8"?>
<!-- Generator: Adobe Illustrator 23.0.6, SVG Export Plug-In . SVG Version: 6.00 Build 0)  -->
<svg version="1.1" id="katman_1" xmlns="http://www.w3.org/2000/svg" xmlns:xlink="http://www.w3.org/1999/xlink" x="0px" y="0px"
	 viewBox="0 0 28 40" style="enable-background:new 0 0 28 40;" xml:space="preserve">
<style type="text/css">
	.st0{fill:#BB7900;}
</style>
<g>
	<g>
		<g>
			<path class="st0" d="M6.8,19.4H5.4v2h1.3c0.5,0,1-0.5,1-1C7.7,19.9,7.3,19.4,6.8,19.4z"/>
			<path class="st0" d="M12.1,19.4h-1.3V23h1.3C14.3,23,14.4,19.4,12.1,19.4z"/>
			<path class="st0" d="M23,15H1c-0.6,0-1,0.4-1,1v10c0,0.5,0.4,1,1,1h22c0.6,0,1-0.5,1-1V16C24,15.4,23.6,15,23,15z M6.8,22.4H5.4
				v1.1c0,0.4-0.2,0.6-0.5,0.6c-0.3,0-0.5-0.2-0.5-0.6v-4.5c0-0.3,0.2-0.6,0.5-0.6h1.8c1,0,2,0.7,2,2C8.7,21.7,7.8,22.4,6.8,22.4z
				 M12.2,24h-1.9c-0.3,0-0.6-0.1-0.6-0.5V19c0-0.3,0.3-0.5,0.6-0.5h1.8C15.8,18.5,15.7,24,12.2,24z M19.3,19.5H17v1.3h2
				c0.3,0,0.6,0.3,0.6,0.6c0,0.3-0.3,0.5-0.6,0.5h-2v1.7c0,0.3-0.2,0.5-0.5,0.5c-0.4,0-0.6-0.2-0.6-0.5V19c0-0.3,0.2-0.5,0.6-0.5
				h2.8c0.4,0,0.6,0.2,0.6,0.5C19.9,19.2,19.7,19.5,19.3,19.5z"/>
		</g>
		<path class="st0" d="M27,7.6L20.4,1c-0.6-0.6-1.6-1-2.4-1H7C5.3,0,4,1.3,4,3v10c0,0.6,0.4,1,1,1s1-0.4,1-1V3c0-0.6,0.4-1,1-1h9
			c1.1,0,2,0.9,2,2v3.8C18,9,19,10,20.3,10H24c1.1,0,2,0.9,2,2v17c0,0.6-0.4,1-1,1H7c-0.6,0-1-0.4-1-1c0-0.6-0.4-1-1-1s-1,0.4-1,1
			c0,1.7,1.3,3,3,3h18c1.7,0,3-1.3,3-3V10C28,9.2,27.6,8.2,27,7.6z"/>
	</g>
</g>
</svg>
